<?xml version="1.0" standalone="no"?>
<!DOCTYPE svg PUBLIC "-//W3C//DTD SVG 1.1//EN" "http://www.w3.org/Graphics/SVG/1.1/DTD/svg11.dtd" >
<svg xmlns="http://www.w3.org/2000/svg" xmlns:xlink="http://www.w3.org/1999/xlink" version="1.1">
<metadata>
Created by FontForge 20200314 at Mon Oct 19 20:15:21 2015
 By www-data
Copyright (c) 2015 by . All rights reserved.
</metadata>
<defs>
<font id="Arciform" horiz-adv-x="554" >
  <font-face 
    font-family="Arciform"
    font-weight="400"
    font-stretch="normal"
    units-per-em="1000"
    panose-1="0 0 0 0 0 0 0 0 0 0"
    ascent="750"
    descent="-250"
    x-height="497"
    cap-height="702"
    bbox="-166 -253 1014 976"
    underline-thickness="50"
    underline-position="-100"
    unicode-range="U+0020-FB02"
  />
<missing-glyph horiz-adv-x="310" 
 />
    <glyph glyph-name=".notdef" horiz-adv-x="310" 
 />
    <glyph glyph-name=".null" horiz-adv-x="0" 
 />
    <glyph glyph-name="nonmarkingreturn" horiz-adv-x="333" 
 />
    <glyph glyph-name="space" unicode=" " horiz-adv-x="310" 
 />
    <glyph glyph-name="exclam" unicode="!" horiz-adv-x="160" 
d="M81 700q20 0 34.5 -14.5t14.5 -35.5v-445q0 -20 -14.5 -34.5t-34.5 -14.5q-21 0 -35.5 14.5t-14.5 34.5v445q0 21 14.5 35.5t35.5 14.5zM81 98q21 0 35 -14t14 -35t-14 -35q-15 -15 -35 -15t-35 15t-15 35t15 35q14 14 35 14z" />
    <glyph glyph-name="quotedbl" unicode="&#x22;" horiz-adv-x="283" 
d="M60 495q-20 0 -32.5 14.5t-12.5 35.5v110q0 21 13 35.5t32 14.5q21 -1 33.5 -15.5t12.5 -35.5v-110q0 -21 -12.5 -35t-33.5 -14zM215 495q-20 0 -32.5 14.5t-12.5 35.5v110q0 21 13 35.5t32 14.5q21 -1 33.5 -15.5t12.5 -35.5v-110q0 -21 -12.5 -35t-33.5 -14z" />
    <glyph glyph-name="numbersign" unicode="#" horiz-adv-x="1020" 
d="M940 519q21 0 35.5 -14.5t14.5 -35.5t-14.5 -35.5t-35.5 -14.5h-181l-86 -137h118q20 0 35 -14.5t15 -35.5q0 -20 -15 -35t-35 -15h-181l-101 -159q-15 -23 -42 -23q-16 0 -27 7q-17 11 -22 31.5t6 37.5l67 106h-162l-100 -159q-15 -23 -43 -23q-15 0 -26 7
q-18 11 -22.5 31.5t6.5 37.5l67 106h-132q-21 0 -35.5 14.5t-14.5 35.5q0 20 14.5 35t35.5 15h195l87 137h-133q-20 0 -35 14.5t-15 35.5q0 20 15 35t35 15h196l101 159q11 17 31 21.5t38 -6.5q17 -11 21.5 -31t-6.5 -38l-67 -105h162l101 159q11 17 31 21.5t38 -6.5
q17 -11 21.5 -31t-6.5 -38l-67 -105h118zM641 419h-162l-86 -137h161z" />
    <glyph glyph-name="dollar" unicode="$" horiz-adv-x="427" 
d="M261 393q66 -17 109 -71t43 -123q0 -70 -42.5 -124t-109.5 -71v-46q0 -21 -14.5 -35.5t-34.5 -14.5q-21 0 -35.5 14.5t-14.5 35.5v47q-64 17 -106.5 71t-42.5 123q0 20 14.5 35t35.5 15t35.5 -15t14.5 -35q0 -57 49 -87v194q-65 17 -107 70.5t-42 122.5q0 68 42.5 122
t106.5 71v40q0 20 14.5 34.5t35.5 14.5q20 0 34.5 -14.5t14.5 -34.5v-39q66 -17 109 -71t43 -123q0 -21 -14.5 -35.5t-35.5 -14.5q-20 0 -35 14.5t-15 35.5q0 59 -52 88v-194zM113 499q0 -56 49 -86v172q-49 -30 -49 -86zM261 110q52 30 52 89t-52 88v-177z" />
    <glyph glyph-name="ampersand" unicode="&#x26;" horiz-adv-x="641" 
d="M612 77q8 -10 8 -34q0 -20 -12 -32t-32 -12q-7 0 -26 17l-87 86q-32 -46 -84 -74.5t-114 -28.5v0v0q-98 0 -170 68t-72 165q0 69 38.5 126t100.5 91q-36 35 -36 95v0v17q7 59 48.5 98.5t99.5 39.5v0q59 0 104.5 -39.5t51.5 -98.5v-17v0q-6 -51 -41 -92.5t-80 -54.5
l103 -112v25v9q0 19 12 31.5t31 12.5q20 0 36 -13t16 -31v-9v-78q0 -26 -8 -43zM204 552v-8q0 -15 17 -51l27 -27h17h9q34 7 55.5 27t21.5 51q0 4 -4 12.5t-4 12.5q-7 22 -25.5 37.5t-43.5 15.5q-26 0 -48 -21.5t-22 -48.5zM265 85q45 7 82.5 32t56.5 63l-183 191
q-45 -13 -74 -50.5t-29 -88.5q0 -58 44.5 -102.5t102.5 -44.5z" />
    <glyph glyph-name="quotesingle" unicode="'" horiz-adv-x="134" 
d="M64 495q-20 0 -32.5 14.5t-12.5 35.5v110q0 21 13 35.5t32 14.5q21 -1 33.5 -15.5t12.5 -35.5v-110q0 -21 -12.5 -35t-33.5 -14z" />
    <glyph glyph-name="parenleft" unicode="(" horiz-adv-x="311" 
d="M233 99q21 0 35.5 -15t14.5 -35q0 -21 -14.5 -35.5t-35.5 -14.5q-83 0 -142 59t-60 142v1v133v166v1q1 83 60 142t142 59h2q20 0 35 -14.5t15 -35.5q0 -22 -17 -37.5t-39 -11.5q-41 -2 -70 -32t-29 -72v-47v-250q1 -41 31.5 -74t71.5 -29z" />
    <glyph glyph-name="parenright" unicode=")" horiz-adv-x="317" 
d="M83 99q41 -4 71.5 29t31.5 74v250v47q0 42 -29 72t-70 32q-22 -4 -39 11.5t-17 37.5q0 21 15 35.5t35 14.5h2q83 0 142 -59t60 -142v-1v-166v-133v-1q-1 -83 -60 -142t-142 -59q-21 0 -35.5 14.5t-14.5 35.5q0 20 14.5 35t35.5 15z" />
    <glyph glyph-name="asterisk" unicode="*" horiz-adv-x="231" 
d="M203 575q5 -4 7 -10q0 -5 -1 -7q-6 -12 -18 -7l-55 25l22 -57q2 -8 -2 -12q-2 -3 -5 -5q-14 -3 -17 7l-22 58l-25 -57q-4 -6 -10 -7q-5 0 -7 1q-11 7 -6 18l24 55l-56 -22q-14 -3 -17 7q-5 13 7 17l57 22l-56 25q-11 5 -6 17q5 11 17 6l55 -24l-22 56q-3 14 8 17
q12 5 17 -7l21 -57l25 56q6 11 18 6q11 -6 6 -17l-25 -55l57 22q9 2 12 -2q4 -2 5 -6q3 -12 -7 -17l-58 -21z" />
    <glyph glyph-name="plus" unicode="+" horiz-adv-x="542" 
d="M272 483q21 0 35.5 -14.5t14.5 -35.5v-141h139q20 0 34.5 -14.5t14.5 -35.5q0 -20 -14.5 -34.5t-34.5 -14.5h-139v-138q0 -20 -14.5 -34.5t-35.5 -14.5q-20 0 -34.5 14.5t-14.5 34.5v138h-140q-21 0 -35.5 14.5t-14.5 34.5q0 21 14.5 35.5t35.5 14.5h140v141
q0 21 14.5 35.5t34.5 14.5z" />
    <glyph glyph-name="comma" unicode="," horiz-adv-x="229" 
d="M31 -58q-15 15 -13.5 33.5t16.5 33.5l78 78q15 15 33.5 16t33.5 -13q14 -15 13 -34t-16 -34l-78 -78q-15 -15 -34 -16t-33 14z" />
    <glyph glyph-name="hyphen" unicode="-" horiz-adv-x="543" 
d="M33 242q0 21 14.5 35.5t35.5 14.5h378q20 0 34.5 -14.5t14.5 -35.5q0 -20 -14.5 -34.5t-34.5 -14.5h-378q-21 0 -35.5 14.5t-14.5 34.5z" />
    <glyph glyph-name="period" unicode="." horiz-adv-x="166" 
d="M83 0q-20 0 -35 15q-14 14 -14 35q0 19 14 35q16 14 35 14q21 0 35 -14q15 -15 15 -35q0 -22 -15 -35q-14 -15 -35 -15z" />
    <glyph glyph-name="slash" unicode="/" horiz-adv-x="503" 
d="M40 5q-18 10 -23 30.5t6 37.5l365 600q10 18 30.5 23t37.5 -6q18 -11 23 -31t-6 -38l-365 -600q-31 -39 -68 -16z" />
    <glyph glyph-name="zero" unicode="0" horiz-adv-x="465" 
d="M434 365v-162v-1q-1 -83 -60.5 -142t-142.5 -59t-142 59t-60 142v1v132v163v1q1 83 60 142t142 59t142.5 -59t60.5 -142v-1v-133zM231 100q43 0 73.5 30t30.5 74v131v162q0 43 -30.5 73.5t-73.5 30.5t-73 -30.5t-30 -73.5v-132v-161q0 -43 30 -73.5t73 -30.5z" />
    <glyph glyph-name="one" unicode="1" horiz-adv-x="193" 
d="M4 651q0 21 14.5 35t35.5 14h59q16 0 28 -14.5t13 -30.5v-606q0 -21 -14.5 -35.5t-34.5 -14.5q-21 0 -35.5 14.5t-14.5 35.5v553q-22 0 -36.5 14.5t-14.5 34.5z" />
    <glyph glyph-name="two" unicode="2" horiz-adv-x="467" 
d="M393 97q20 0 34 -14.5t14 -34.5t-14 -34t-34 -14h-318q-20 0 -34 14t-14 34q0 14 13 34l292 371q21 45 1 88t-61 56.5t-89 -8.5q-50 -30 -50 -87q0 -20 -14.5 -34.5t-35.5 -14.5q-20 0 -35 14.5t-15 34.5q0 80 58 138v1q46 46 109.5 57t119.5 -14q78 -35 107 -110
q18 -37 16 -87t-28 -83l-241 -307h219z" />
    <glyph glyph-name="three" unicode="3" horiz-adv-x="448" 
d="M352 349q70 -60 70 -154q0 -79 -59 -138t-138 -59t-136 50t-68 125q0 46 44 57q19 0 36.5 -13.5t17.5 -28.5q7 -42 36 -67t70 -25q42 0 70 28.5t28 70.5t-28 73.5t-70 31.5q-21 0 -34.5 14t-13.5 35t13.5 35.5t34.5 14.5q42 0 70 31t28 74q0 42 -28 70.5t-70 28.5
q-36 0 -67.5 -23.5t-38.5 -55.5q-5 -21 -20 -33.5t-34 -7.5q-44 9 -44 56q16 73 73 117t131 44q80 0 138.5 -56.5t58.5 -139.5q0 -97 -70 -155z" />
    <glyph glyph-name="four" unicode="4" horiz-adv-x="544" 
d="M392 0q-21 0 -35.5 15t-14.5 35v102h-276q-35 0 -46 31q-11 28 7 51l327 453l2 2q24 24 55 11q31 -11 31 -46v-402h35q21 0 35.5 -14.5t14.5 -35.5q0 -20 -14.5 -35t-35.5 -15h-35v-102q0 -20 -14.5 -35t-35.5 -15zM105 172v-1v1zM170 252h172v259z" />
    <glyph glyph-name="five" unicode="5" horiz-adv-x="529" 
d="M188 493q73 18 146 -8t121 -89.5t48 -145.5q0 -104 -73.5 -177.5t-177.5 -73.5v0v0q-73 0 -133.5 38t-92.5 103q-9 19 -2 38t25 28q19 9 38 2.5t28 -24.5q20 -40 56.5 -63t80.5 -23q63 0 107.5 44.5t44.5 107.5t-45 107.5t-107 44.5q-43 0 -79 -22q-24 -13 -34 -13
q-19 0 -33 12.5t-16 31.5v241v1q0 20 14.5 34.5t34.5 14.5h315q20 0 35 -14.5t15 -34.5t-15 -35t-35 -15h-266v-110z" />
    <glyph glyph-name="six" unicode="6" horiz-adv-x="540" 
d="M326 491q99 -23 154 -110t32 -187t-110 -155t-187 -32q-100 22 -155 109.5t-32 188.5q5 22 26.5 58.5t105.5 168.5q57 89 94 147q13 17 33 20.5t36 -8.5t19.5 -32t-7.5 -37l-81 -127q35 4 72 -4zM237 102q60 -14 113 19.5t67 94.5q13 61 -20 113.5t-93 66.5
q-61 13 -114 -19.5t-67 -93.5q-14 -62 19.5 -114.5t94.5 -66.5z" />
    <glyph glyph-name="seven" unicode="7" horiz-adv-x="535" 
d="M501 673q14 -26 -1 -52l-386 -593q-15 -23 -42 -23q-16 0 -27 8q-17 11 -21.5 31.5t6.5 37.5l336 516h-288q-21 0 -35.5 14.5t-14.5 35.5t14.5 35.5t35.5 14.5h380q28 0 43 -25z" />
    <glyph glyph-name="eight" unicode="8" horiz-adv-x="438" 
d="M422 506q0 -97 -70 -155q70 -60 70 -154q0 -80 -59.5 -137t-141.5 -60q-78 0 -139 58t-61 139q0 94 70 154q-70 58 -70 155q0 81 58 138.5t142 57.5t140 -55t61 -141zM221 98q40 2 71 30t31 69q0 42 -29 73t-73 32q-41 0 -71 -30.5t-30 -74.5q0 -40 29.5 -67.5
t71.5 -31.5zM221 605q-41 -2 -71 -30t-30 -69q0 -43 28 -74t70 -31h3h4q42 0 70 31t28 74q0 40 -29.5 68t-72.5 31z" />
    <glyph glyph-name="nine" unicode="9" horiz-adv-x="543" 
d="M214 208q-99 23 -154 110t-32 187t110 155t187 32q100 -22 155 -109.5t32 -188.5q-5 -22 -26.5 -58.5t-105.5 -168.5q-57 -89 -94 -147q-13 -17 -33 -20.5t-36 8.5t-19.5 32t7.5 37l81 127q-35 -4 -72 4zM303 597q-60 14 -113 -19.5t-67 -94.5q-13 -61 20 -113.5
t93 -66.5q61 -13 114 19.5t67 93.5q14 62 -19.5 114.5t-94.5 66.5z" />
    <glyph glyph-name="colon" unicode=":" horiz-adv-x="145" 
d="M22 342q0 20 15 35q14 14 35 14q19 0 35 -14q14 -16 14 -35q0 -21 -14 -35q-15 -15 -35 -15q-22 0 -35 15q-15 13 -15 35zM22 144q0 20 15 35q14 14 35 14q19 0 35 -14q14 -16 14 -35q0 -21 -14 -35q-15 -15 -35 -15q-22 0 -35 15q-15 13 -15 35z" />
    <glyph glyph-name="semicolon" unicode=";" horiz-adv-x="215" 
d="M94 342q0 20 15 35q14 14 35 14q19 0 35 -14q14 -16 14 -35q0 -21 -14 -35q-15 -15 -35 -15q-22 0 -35 15q-15 13 -15 35zM31 30q-15 15 -13.5 33.5t16.5 33.5l78 78q15 15 33.5 16t33.5 -13q14 -15 13 -34t-16 -34l-78 -78q-15 -15 -34 -16t-33 14z" />
    <glyph glyph-name="less" unicode="&#x3c;" horiz-adv-x="354" 
d="M314 14q-15 -14 -35.5 -14t-34.5 14q-21 20 -49 47.5t-54 52.5t-48.5 46.5t-36.5 35.5l-15 13q-15 15 -15 36q0 20 15 35l7 8l20.5 20.5l29 29t35 35.5t37.5 38l38 38l34 34q14 14 34.5 14t35.5 -14q14 -14 14 -35t-14 -35l-166 -168l168 -161q14 -14 14 -35t-14 -35z
" />
    <glyph glyph-name="equal" unicode="=" horiz-adv-x="548" 
d="M33 342q0 21 14.5 35.5t35.5 14.5h378q20 0 34.5 -14.5t14.5 -35.5q0 -20 -14.5 -34.5t-34.5 -14.5h-378q-21 0 -35.5 14.5t-14.5 34.5zM33 141q0 21 14.5 35.5t35.5 14.5h378q20 0 34.5 -14.5t14.5 -35.5q0 -20 -14.5 -34.5t-34.5 -14.5h-378q-21 0 -35.5 14.5
t-14.5 34.5z" />
    <glyph glyph-name="greater" unicode="&#x3e;" horiz-adv-x="367" 
d="M45 14q-14 14 -14 35t14 35l168 161l-166 168q-14 14 -14 35t14 35q15 14 35.5 14t34.5 -14l34 -34l38 -38t37.5 -38t35 -35.5l29 -29t19.5 -20.5l8 -8q15 -15 15 -35q0 -21 -15 -36l-14 -13q-15 -14 -37.5 -35.5t-48.5 -46.5t-54 -52.5t-49 -47.5q-14 -14 -34.5 -14
t-35.5 14z" />
    <glyph glyph-name="question" unicode="?" horiz-adv-x="449" 
d="M378 364l-81 -82q-29 -29 -32 -82q-4 -16 -18 -26.5t-31 -10.5t-30.5 10.5t-17.5 26.5q-3 83 48 142l86 88q24 27 24 65q0 42 -29.5 72t-71.5 30q-43 0 -72.5 -32t-31.5 -83q-4 -16 -17.5 -26t-30.5 -10q-20 0 -34.5 14.5t-14.5 34.5q0 84 59 143t142 59t142.5 -59
t59.5 -143q0 -73 -49 -131zM216 -1q22 0 35 15q15 13 15 35q0 20 -15 35q-14 14 -35 14q-19 0 -35 -14q-14 -16 -14 -35q0 -21 14 -35q15 -15 35 -15z" />
    <glyph glyph-name="at" unicode="@" horiz-adv-x="759" 
d="M700 485q28 -62 28 -135q0 -72 -28 -135q-25 -61 -74 -111q-3 -2 -5 -5q-8 -7 -17 -12.5t-14 -6.5l-6 -2q-8 -3 -17 -3q-20 0 -35.5 13t-18.5 32h-1v7v1v4v41v2v2q-62 -45 -132 -45q-89 0 -153.5 64.5t-64.5 153.5q0 90 64.5 154t153.5 64q90 0 154 -64t64 -154v-143
q43 63 43 143q0 108 -76.5 184.5t-184.5 76.5t-184.5 -76.5t-76.5 -184.5t76.5 -184.5t184.5 -76.5q18 0 31 -13t13 -31q0 -17 -13 -30t-31 -13q-73 0 -135 28q-62 25 -111 74q-47 47 -75 111q-27 61 -27 135q0 75 27 135q28 65 75 112q49 49 111 74q60 27 135 27
q74 0 135 -27q62 -25 111 -74q49 -51 74 -112zM380 218q55 0 93.5 39t38.5 93q0 55 -38.5 93.5t-93.5 38.5t-93.5 -38.5t-38.5 -93.5q0 -54 38.5 -93t93.5 -39z" />
    <glyph glyph-name="A" unicode="A" horiz-adv-x="567" 
d="M537 67q9 -18 0.5 -37t-30.5 -29q-19 -4 -38 5.5t-28 30.5l-36 102h-244l-42 -102q-8 -36 -48 -36h-11q-22 9 -31.5 28t-4.5 38l214 596q5 15 18 25.5t31 10.5q17 0 29.5 -10.5t17.5 -25.5zM197 240h178l-88 256z" />
    <glyph glyph-name="B" unicode="B" horiz-adv-x="558" 
d="M424 373q49 -26 78.5 -74t29.5 -103q-1 -78 -55 -134.5t-132 -62.5h-263h-2h-1q-21 0 -35.5 14.5t-14.5 35.5v598q0 20 15 35t36 15v0v0v0v0v0v0v0v0v0v0v0v0v0v0v0v0v0v0v0v0v0v0v0v0v0v0v0v0h1v0v0v0v0v0h1v0v0v0h1v0v0h1v0v0h1v0v0h1v0h1v0v0h1v0h1v0h1v0h1v0h1v0h1v0
h1v0h1v0h1v0h1v0h1h1v0h1h1v0h1h1v0h1h1h1h1v0h1h1h1h1h1h1h1h1h1h1h1h1h1h1h1h1h1h1h1h1h1h1h1h1h1h1h1h1h1h1h1h1h1h1h1h1h1h1h1h1h1h1h1h1h1h1h1h1h1h1h1h1h1h1h1h1h1h1h1h1h1h1h1h1h1h1h1h1h1h1h1h1h1h1h1h1h1h1h1h1h1h1h1h1h1h1h1h1h1h1h1h1h1h1h1h1h1h1h1h1h1h1h1h1h1
h1h1h1h1h1h1h1h1h1h1h1h1h1h1h1h1h1h1h1h1h1h1h1h1h1h1h1h1h1h1h1h1h1h1h1h1h1h1h1h1h1h1h1h1h1h1h1h1h1h1h1h10q80 -5 137.5 -62t57.5 -138q-1 -70 -44 -124zM369 498q-1 42 -31 70.5t-73 28.5h-136v-201h136q43 0 73 29.5t31 72.5zM338 99q37 0 66 28.5t29 68.5
q0 38 -29.5 68.5t-70.5 31.5h-204v-197h209z" />
    <glyph glyph-name="C" unicode="C" horiz-adv-x="722" 
d="M379 0q-144 0 -248.5 102t-104.5 246q0 147 104 249.5t249 102.5q95 0 174.5 -46t124.5 -127q13 -23 7 -43t-25 -29q-17 -9 -37 -4.5t-29 22.5q-35 59 -92 92t-123 33q-103 0 -177 -73.5t-74 -176.5t74 -174.5t177 -71.5q63 0 118.5 30t90.5 84q9 18 31 22t35 -10
q19 -9 25 -28.5t-7 -37.5q-50 -77 -126.5 -119.5t-166.5 -42.5z" />
    <glyph glyph-name="D" unicode="D" horiz-adv-x="611" 
d="M231 -1h-148q-20 0 -35 15t-15 35v601q0 21 15 36t35 15h145q77 0 150 -31q69 -31 117 -86q49 -55 71 -125q23 -73 14 -150q-15 -131 -115 -221q-100 -89 -234 -89zM133 99h98q95 0 166.5 63t82.5 158q14 116 -59 198q-75 83 -193 83h-95v-502z" />
    <glyph glyph-name="E" unicode="E" horiz-adv-x="510" 
d="M432 101q20 0 35 -14.5t15 -35.5t-15 -35.5t-35 -14.5h-345h-2h-2q-21 0 -35.5 14.5t-14.5 35.5v598q0 21 14.5 35.5t35.5 14.5h2h2h345q20 0 35 -14.5t15 -35.5t-15 -35.5t-35 -14.5h-299v-201h228q20 0 35 -14.5t15 -35.5t-15 -35.5t-35 -14.5h-228v-197h299z" />
    <glyph glyph-name="F" unicode="F" horiz-adv-x="487" 
d="M434 699q20 0 35 -14.5t15 -35.5t-15 -35.5t-35 -14.5h-298v-201h227q20 0 35 -14.5t15 -35.5t-15 -35.5t-35 -14.5h-227v-247q0 -21 -15 -35.5t-35 -14.5q-21 0 -35.5 14.5t-14.5 35.5v598q0 21 14.5 35.5t35.5 14.5h1h2h345z" />
    <glyph glyph-name="G" unicode="G" horiz-adv-x="752" 
d="M673 399q20 0 35 -14.5t15 -35.5q0 -71 -27 -135q-27 -62 -75 -110t-110 -75q-65 -27 -136 -27t-135 27q-62 27 -110 75t-75 110q-27 64 -27 135q0 72 27 136q27 62 75 110t110 75q64 27 134 27q177 5 289 -144q12 -18 6.5 -38t-24.5 -31q-37 -21 -70 18q-81 95 -201 95
q-102 -1 -174 -73t-72 -175q0 -102 72.5 -174.5t174.5 -72.5q89 0 157.5 56t85.5 141h-217q-21 0 -35.5 15t-14.5 35q0 21 14.5 35.5t35.5 14.5h272z" />
    <glyph glyph-name="H" unicode="H" horiz-adv-x="572" 
d="M491 698q20 0 35 -15t15 -35v-598q0 -21 -15 -35.5t-35 -14.5q-21 0 -35.5 14.5t-14.5 35.5v247h-309v-247q0 -21 -15 -35.5t-35 -14.5q-21 0 -35.5 14.5t-14.5 35.5v598q0 20 14.5 35t35.5 15q20 0 35 -15t15 -35v-251h309v251q0 20 14.5 35t35.5 15z" />
    <glyph glyph-name="I" unicode="I" horiz-adv-x="162" 
d="M81 -1q-21 0 -35.5 14.5t-14.5 35.5v604q0 20 14.5 34.5t35.5 14.5q20 0 34.5 -14.5t14.5 -34.5v-604q0 -21 -14.5 -35.5t-34.5 -14.5z" />
    <glyph glyph-name="J" unicode="J" horiz-adv-x="466" 
d="M382 702q21 0 35.5 -14.5t14.5 -34.5v-446v-1q-1 -83 -60.5 -142t-142.5 -59q-82 0 -141 58t-61 136q0 21 14 34.5t35 13.5t35.5 -13.5t14.5 -34.5q0 -37 30.5 -66t72.5 -29q43 0 73.5 30.5t30.5 73.5v445q0 20 14.5 34.5t34.5 14.5z" />
    <glyph glyph-name="K" unicode="K" horiz-adv-x="503" 
d="M492 78q14 -16 11.5 -36.5t-18.5 -33.5q-14 -11 -31 -11q-23 0 -38 18l-220 289l-62 -65v-192q0 -21 -14.5 -35.5t-35.5 -14.5q-20 0 -34.5 14.5t-14.5 35.5v605q0 21 14.5 35.5t34.5 14.5q21 0 35.5 -14.5t14.5 -35.5v-271l277 296q12 16 32.5 19t36.5 -10
q16 -12 19 -32.5t-10 -36.5l-224 -241z" />
    <glyph glyph-name="L" unicode="L" horiz-adv-x="477" 
d="M428 100q20 0 35 -14.5t15 -35.5t-15 -35.5t-35 -14.5h-345h-2h-1q-21 0 -35.5 14.5t-14.5 35.5v598q0 21 14.5 35.5t35.5 14.5q20 0 35 -14.5t15 -35.5v-548h298z" />
    <glyph glyph-name="M" unicode="M" horiz-adv-x="776" 
d="M712 1q-17 0 -31 11.5t-18 29.5l-85 417l-157 -422q-12 -35 -48 -35q-16 0 -29.5 10t-18.5 25l-139 407l-75 -402q-3 -20 -20 -32.5t-37 -8.5q-21 4 -33 20.5t-8 37.5l101 601q3 17 16.5 28.5t30.5 12.5t31.5 -8.5t19.5 -26.5l162 -455l168 456q5 16 19 26t31 9
t30.5 -12.5t16.5 -28.5l122 -600q4 -20 -7.5 -37.5t-31.5 -21.5q-2 0 -5 -0.5t-5 -0.5z" />
    <glyph glyph-name="N" unicode="N" horiz-adv-x="578" 
d="M548 55q5 -32 -22 -49q-11 -8 -27 -8q-27 0 -42 23l-327 470v-444q0 -20 -14.5 -34.5t-34.5 -14.5t-35 14.5t-15 34.5v601q-3 32 23 49q17 11 37.5 7t31.5 -22l326 -484v457q0 21 15 35.5t35 14.5t34.5 -14.5t14.5 -35.5v-600z" />
    <glyph glyph-name="O" unicode="O" horiz-adv-x="743" 
d="M372 1q-144 0 -245 103.5t-101 248.5q0 142 101 244t245 102t245 -102t101 -244q0 -145 -101 -248.5t-245 -103.5zM372 602q-103 0 -176 -73t-73 -176q0 -106 73 -180.5t176 -74.5t176.5 74.5t73.5 180.5q0 103 -73.5 176t-176.5 73z" />
    <glyph glyph-name="P" unicode="P" horiz-adv-x="491" 
d="M298 699q81 -3 138 -61t57 -138q0 -78 -54 -135t-137 -66q-3 -1 -171 -1v-247q0 -21 -15 -35.5t-35 -14.5q-21 0 -35.5 14.5t-14.5 35.5v598q0 21 14.5 35.5t35.5 14.5h217zM131 398h159q43 0 73 29.5t31 72.5q-1 42 -31 70.5t-73 28.5h-159v-201z" />
    <glyph glyph-name="Q" unicode="Q" horiz-adv-x="748" 
d="M372 1q-144 0 -245 103.5t-101 248.5q0 142 101 244t245 102t245 -102t101 -244q0 -110 -62 -202l72 -68q14 -14 14 -34.5t-15 -35.5q-14 -14 -34.5 -14t-34.5 14l-69 65q-95 -77 -217 -77zM447 283q14 15 34.5 15t35.5 -15l68 -65q37 63 37 135q0 103 -73.5 176
t-176.5 73t-176 -73t-73 -176q0 -106 73 -180.5t176 -74.5q80 0 146 48l-71 67q-15 15 -15 35.5t15 34.5z" />
    <glyph glyph-name="R" unicode="R" horiz-adv-x="519" 
d="M494 499q0 -66 -40.5 -118.5t-107.5 -76.5l140 -228q11 -17 6 -37.5t-23 -31.5q-11 -7 -26 -7q-27 0 -43 24l-166 272h-102v-247q0 -21 -14.5 -35t-35.5 -14t-35.5 14t-14.5 35v598q0 20 15 35t36 15h2h210q78 0 138 -58t61 -140zM291 396q43 0 73 29.5t31 72.5
q-1 42 -31 70.5t-73 28.5h-159v-201h159z" />
    <glyph glyph-name="S" unicode="S" horiz-adv-x="427" 
d="M213 400q83 0 141.5 -59t58.5 -141q0 -83 -58.5 -142t-141.5 -59t-141.5 59t-58.5 142q0 20 14.5 35t35.5 15t35.5 -15t14.5 -35q0 -42 29.5 -71.5t70.5 -29.5t70.5 29.5t29.5 71.5q0 41 -29.5 70.5t-70.5 29.5q-83 0 -141.5 58.5t-58.5 141.5q0 82 58.5 141t141.5 59
t141.5 -59t58.5 -141q0 -21 -14.5 -35.5t-35.5 -14.5q-20 0 -35 14.5t-15 35.5q0 41 -29.5 70.5t-70.5 29.5t-70.5 -29.5t-29.5 -70.5t29.5 -70.5t70.5 -29.5z" />
    <glyph glyph-name="T" unicode="T" horiz-adv-x="501" 
d="M-1 651q0 21 14.5 35.5t35.5 14.5h402q20 0 34.5 -14.5t14.5 -35.5q0 -20 -14.5 -34.5t-34.5 -14.5h-152v-553q0 -21 -14.5 -35.5t-34.5 -14.5q-21 0 -35.5 14.5t-14.5 35.5v553h-151q-21 0 -35.5 14.5t-14.5 34.5z" />
    <glyph glyph-name="U" unicode="U" horiz-adv-x="552" 
d="M277 0q-104 0 -177.5 73.5t-73.5 177.5v392q0 21 14.5 35.5t34.5 14.5q21 0 35.5 -14.5t14.5 -35.5v-392q0 -63 44.5 -107.5t107.5 -44.5t107.5 44.5t44.5 107.5v392q0 21 14.5 35.5t34.5 14.5q21 0 35.5 -14.5t14.5 -35.5v-392q0 -104 -73.5 -177.5t-177.5 -73.5z" />
    <glyph glyph-name="V" unicode="V" horiz-adv-x="588" 
d="M540 700q19 -7 28 -25.5t1 -38.5l-231 -603q-13 -33 -47 -33h-1q-16 0 -29 9.5t-18 23.5l-224 599q-8 20 1 38.5t28 25.5t37.5 -1t26.5 -28l179 -478l185 482q8 20 26.5 28t37.5 1z" />
    <glyph glyph-name="W" unicode="W" horiz-adv-x="871" 
d="M838 700q19 -7 28 -25.5t1 -38.5l-231 -603q-13 -33 -47 -33h-1q-16 0 -29 9.5t-18 23.5l-109 281l-111 -281q-13 -33 -47 -33h-1q-16 0 -29 9.5t-18 23.5l-224 599q-8 20 1 38.5t28 25.5t37.5 -1t26.5 -28l179 -478l111 281q6 15 19 24t28 8q35 2 47 -32l110 -281
l185 482q8 20 26.5 28t37.5 1z" />
    <glyph glyph-name="X" unicode="X" horiz-adv-x="611" 
d="M374 350l209 -267q13 -16 10 -36.5t-19 -32.5q-14 -11 -30 -11q-23 0 -39 19l-194 247l-203 -250q-16 -19 -39 -19q-16 0 -30 11q-16 12 -19 32.5t10 36.5l218 270l-216 268q-13 17 -10.5 37t19.5 33q16 13 36 10t33 -19l201 -248l197 248q13 16 33 19t36 -10
q17 -13 19.5 -33t-10.5 -37z" />
    <glyph glyph-name="Y" unicode="Y" horiz-adv-x="499" 
d="M450 704q20 0 35 -14.5t15 -34.5v-107q0 -90 -57.5 -159.5t-144.5 -86.5v-249q0 -21 -14.5 -35.5t-34.5 -14.5q-21 0 -35.5 14.5t-14.5 35.5v249q-87 17 -144 86.5t-57 159.5v107q0 20 14.5 34.5t34.5 14.5t35 -14.5t15 -34.5v-107q0 -62 44.5 -107t107.5 -45
q62 0 107 45t45 107v107q0 20 14.5 34.5t34.5 14.5z" />
    <glyph glyph-name="Z" unicode="Z" horiz-adv-x="602" 
d="M523 99q20 0 34.5 -14.5t14.5 -34.5t-14.5 -35t-34.5 -15h-453q-32 0 -45 28q-14 29 5 53l394 521h-351q-20 0 -34.5 15t-14.5 35t14.5 34.5t34.5 14.5h450q33 0 45 -28q15 -28 -5 -52l-394 -522h354z" />
    <glyph glyph-name="bracketleft" unicode="[" horiz-adv-x="265" 
d="M83 0h-2h-2q-20 1 -34 15t-14 35v650q0 20 14 34t34 15h4h2h101q20 0 34.5 -14.5t14.5 -35.5q0 -20 -14.5 -34.5t-34.5 -14.5h-56v-551h56q20 0 34.5 -14.5t14.5 -35.5q0 -20 -14.5 -34.5t-34.5 -14.5h-103z" />
    <glyph glyph-name="backslash" unicode="\" horiz-adv-x="503" 
d="M457 5q-37 -23 -68 16l-365 600q-11 18 -6 38t23 31q17 11 37.5 6t30.5 -23l365 -600q11 -17 6 -37.5t-23 -30.5z" />
    <glyph glyph-name="bracketright" unicode="]" horiz-adv-x="271" 
d="M185 0h-2h-103q-20 0 -34.5 14.5t-14.5 34.5q0 21 14.5 35.5t34.5 14.5h56v551h-56q-20 0 -34.5 14.5t-14.5 34.5q0 21 14.5 35.5t34.5 14.5h101h2h4q20 -1 34 -15t14 -34v-650q0 -21 -14 -35t-34 -15h-2z" />
    <glyph glyph-name="asciicircum" unicode="^" horiz-adv-x="558" 
d="M511 403q-14 -14 -35 -14t-35 14l-161 168l-168 -166q-14 -14 -35 -14t-35 14q-14 15 -14 35.5t14 34.5l34 34l38 38t38 37.5t35.5 35l29 29t20.5 19.5l8 8q15 15 35 15q21 0 36 -15l14 -14q13 -15 34.5 -37.5t46.5 -48.5t52.5 -54t47.5 -49q14 -14 14 -34.5t-14 -35.5z
" />
    <glyph glyph-name="underscore" unicode="_" horiz-adv-x="668" 
d="M33 51q0 21 14.5 35.5t35.5 14.5h500q20 0 34.5 -14.5t14.5 -35.5q0 -20 -14.5 -34.5t-34.5 -14.5h-500q-21 0 -35.5 14.5t-14.5 34.5z" />
    <glyph glyph-name="grave" unicode="`" horiz-adv-x="178" 
d="M160 614q-14 -15 -34.5 -15t-35.5 15l-78 78q-14 14 -14 34.5t14 35.5q14 14 35 14t35 -14l78 -78q15 -15 15 -35.5t-15 -34.5z" />
    <glyph glyph-name="a" unicode="a" horiz-adv-x="551" 
d="M278 500q105 0 175.5 -73.5t70.5 -179.5v-196q0 -22 -14 -36t-36 -14q-16 0 -32 15t-16 35q-60 -50 -148 -50q-106 0 -179.5 70.5t-73.5 175.5q0 106 73.5 179.5t179.5 73.5zM278 99q63 0 105.5 42.5t42.5 105.5q0 64 -43 109.5t-105 45.5q-63 0 -109 -46t-46 -109
q0 -62 45.5 -105t109.5 -43z" />
    <glyph glyph-name="b" unicode="b" horiz-adv-x="560" 
d="M282 504q104 0 177.5 -73.5t73.5 -177.5t-73.5 -177.5t-177.5 -73.5t-177.5 74t-73.5 177v1v448q0 20 14.5 34.5t35.5 14.5q20 0 34.5 -14.5t14.5 -34.5v-249q67 51 152 51zM282 101q63 0 107.5 45t44.5 107q0 63 -44.5 107.5t-107.5 44.5t-107.5 -44.5t-44.5 -106.5v-1
q0 -63 44.5 -107.5t107.5 -44.5z" />
    <glyph glyph-name="c" unicode="c" horiz-adv-x="531" 
d="M276 -1q-103 0 -176.5 73.5t-73.5 177.5t73 177.5t177 73.5q67 0 125.5 -33.5t92.5 -91.5q10 -18 4.5 -37.5t-22.5 -30.5q-18 -10 -37.5 -4.5t-30.5 22.5q-20 35 -55.5 55.5t-76.5 20.5q-62 0 -107 -44.5t-45 -107.5q0 -62 45 -107t107 -45q83 0 128 70q11 17 31.5 21.5
t37.5 -6.5t21 -31.5t-7 -37.5q-34 -54 -90 -84.5t-121 -30.5z" />
    <glyph glyph-name="d" unicode="d" horiz-adv-x="560" 
d="M278 504q85 0 152 -51v249q0 20 14.5 34.5t34.5 14.5q21 0 35.5 -14.5t14.5 -34.5v-448v-1q0 -103 -73.5 -177t-177.5 -74t-177.5 73.5t-73.5 177.5t73.5 177.5t177.5 73.5zM278 101q63 0 107.5 44.5t44.5 107.5v1q0 62 -44.5 106.5t-107.5 44.5t-107.5 -44.5
t-44.5 -107.5q0 -62 44.5 -107t107.5 -45z" />
    <glyph glyph-name="e" unicode="e" horiz-adv-x="513" 
d="M257 502q99 0 175 -68t76 -183q0 -20 -14.5 -34.5t-35.5 -14.5h-345q16 -46 55 -74.5t89 -28.5q61 0 112 33q18 11 37.5 3.5t28.5 -26.5q18 -38 -24 -66q-30 -20 -62.5 -30.5t-48.5 -11.5t-43 -1q-104 0 -177.5 73.5t-73.5 177.5t73.5 177.5t177.5 73.5zM257 403
q-49 0 -88.5 -28.5t-55.5 -73.5h289q-15 50 -55.5 76t-89.5 26z" />
    <glyph glyph-name="f" unicode="f" horiz-adv-x="354" 
d="M324 502q21 0 35.5 -14.5t14.5 -34.5q0 -21 -14.5 -35.5t-35.5 -14.5h-88v-353q0 -21 -14.5 -35.5t-35.5 -14.5q-20 0 -34.5 14.5t-14.5 35.5v353h-55q-20 0 -34.5 14.5t-14.5 35.5q0 20 14.5 34.5t34.5 14.5h55q-2 109 73 184q42 42 94 59q19 7 37.5 -1.5t25.5 -28.5
q7 -19 -2 -37.5t-28 -25.5q-31 -10 -57 -36q-44 -44 -44 -114h88z" />
    <glyph glyph-name="g" unicode="g" 
d="M528 251v-251q0 -104 -74 -177.5t-177 -73.5q-73 0 -133.5 38t-92.5 103q-9 19 -2.5 38t25.5 28q18 9 37.5 2.5t28.5 -24.5q20 -40 56.5 -63t80.5 -23q62 0 106 43.5t46 105.5v55q-70 -52 -152 -52q-104 0 -177.5 73.5t-73.5 177.5t73.5 177.5t177.5 73.5t177.5 -73.5
t73.5 -177.5zM277 99q62 0 107 45t45 107q0 63 -45 107.5t-107 44.5q-63 0 -107.5 -44.5t-44.5 -107.5q0 -62 44.5 -107t107.5 -45z" />
    <glyph glyph-name="h" unicode="h" horiz-adv-x="502" 
d="M251 502q91 0 156 -64.5t65 -155.5v-232q0 -21 -15 -35.5t-35 -14.5t-34.5 14.5t-14.5 35.5v232q0 50 -36 85.5t-86 35.5t-85.5 -35.5t-35.5 -85.5v-232q0 -21 -14.5 -35.5t-35.5 -14.5q-20 0 -34.5 14.5t-14.5 35.5v651q0 20 14.5 34.5t34.5 14.5q21 0 35.5 -14.5
t14.5 -34.5v-235q55 36 121 36z" />
    <glyph glyph-name="i" unicode="i" horiz-adv-x="161" 
d="M81 -1q-21 0 -35.5 14.5t-14.5 35.5v403q0 20 14.5 34.5t35.5 14.5q20 0 34.5 -14.5t14.5 -34.5v-403q0 -21 -14.5 -35.5t-34.5 -14.5zM81 601q-21 0 -35 14q-15 15 -15 35t15 35t35 15t35 -15q14 -14 14 -35t-14 -35t-35 -14z" />
    <glyph glyph-name="j" unicode="j" horiz-adv-x="161" 
d="M80 500q21 0 35.5 -14.5t14.5 -34.5v-461v-1q0 -106 -74 -180q-39 -39 -93 -59q-8 -3 -17 -3q-34 0 -46 33q-7 20 2 38t28 25q32 12 56 36q47 47 45 110v3v459q0 20 14.5 34.5t34.5 14.5zM80 600q-19 0 -35 14q-14 14 -14 35t14 35q17 15 35 15q20 0 35 -15
q15 -14 15 -35t-15 -35q-14 -14 -35 -14z" />
    <glyph glyph-name="k" unicode="k" horiz-adv-x="448" 
d="M431 83q13 -16 11 -36t-18 -33q-14 -12 -31 -12q-25 0 -38 18l-190 228l-31 -21v-175q0 -21 -15 -35.5t-35 -14.5t-34.5 14.5t-14.5 35.5v201v447q0 20 14.5 34.5t34.5 14.5t35 -14.5t15 -34.5v-356l227 149q16 13 36.5 11.5t33.5 -17.5t11 -36.5t-18 -33.5l-175 -115z
" />
    <glyph glyph-name="l" unicode="l" horiz-adv-x="161" 
d="M81 -1q-21 0 -35.5 14.5t-14.5 35.5v651q0 20 14.5 34.5t35.5 14.5q20 0 34.5 -14.5t14.5 -34.5v-651q0 -21 -14.5 -35.5t-34.5 -14.5z" />
    <glyph glyph-name="m" unicode="m" horiz-adv-x="765" 
d="M735 300q0 -3 -1 -4q1 -2 1 -5v-243q0 -21 -15 -35.5t-35 -14.5t-34.5 14.5t-14.5 35.5v243v5v4q0 42 -30 71.5t-72 29.5t-72 -29.5t-30 -71.5v-252q0 -21 -14.5 -35.5t-34.5 -14.5t-35 14.5t-15 35.5v252q0 42 -29.5 71.5t-71.5 29.5t-72 -29.5t-30 -71.5v-252
q0 -21 -14.5 -35.5t-34.5 -14.5q-21 0 -35.5 14.5t-14.5 35.5v252q0 83 59 141.5t142 58.5q92 0 151 -69q59 69 151 69q83 0 142 -58.5t59 -141.5z" />
    <glyph glyph-name="n" unicode="n" 
d="M277 502q104 0 177.5 -73.5t73.5 -177.5v-201q0 -21 -14.5 -35.5t-35.5 -14.5q-20 0 -34.5 14.5t-14.5 35.5v201q0 63 -44.5 107.5t-107.5 44.5t-107.5 -44.5t-44.5 -107.5v-201q0 -21 -14.5 -35.5t-35.5 -14.5q-20 0 -34.5 14.5t-14.5 35.5v201q0 104 73.5 177.5
t177.5 73.5z" />
    <glyph glyph-name="o" unicode="o" 
d="M277 0q-103 0 -177 74t-74 177q0 104 73.5 177.5t177.5 73.5t177.5 -73.5t73.5 -177.5t-73.5 -177.5t-177.5 -73.5zM277 403q-63 0 -107.5 -44.5t-44.5 -107.5q0 -62 44.5 -107t107.5 -45t107.5 45t44.5 107q0 63 -44.5 107.5t-107.5 44.5z" />
    <glyph glyph-name="p" unicode="p" horiz-adv-x="552" 
d="M276 -4q-85 0 -152 51v-249q0 -20 -14.5 -34.5t-34.5 -14.5q-21 0 -35.5 14.5t-14.5 34.5v448v1q0 103 73.5 177t177.5 74t177.5 -73.5t73.5 -177.5t-73.5 -177.5t-177.5 -73.5zM276 399q-63 0 -107.5 -44.5t-44.5 -107.5v-1q0 -62 44.5 -106.5t107.5 -44.5t107.5 44.5
t44.5 107.5q0 62 -44.5 107t-107.5 45z" />
    <glyph glyph-name="q" unicode="q" horiz-adv-x="552" 
d="M276 -4q-104 0 -177.5 73.5t-73.5 177.5t73.5 177.5t177.5 73.5t177.5 -74t73.5 -177v-1v-448q0 -20 -14.5 -34.5t-35.5 -14.5q-20 0 -34.5 14.5t-14.5 34.5v249q-67 -51 -152 -51zM276 399q-63 0 -107.5 -45t-44.5 -107q0 -63 44.5 -107.5t107.5 -44.5t107.5 44.5
t44.5 106.5v1q0 63 -44.5 107.5t-107.5 44.5z" />
    <glyph glyph-name="r" unicode="r" horiz-adv-x="291" 
d="M277 501q21 0 35.5 -14.5t14.5 -34.5t-14.5 -35t-35.5 -15q-63 0 -107.5 -44.5t-44.5 -107.5v-201q0 -20 -14.5 -35t-34.5 -15q-21 0 -35.5 15t-14.5 35v201q0 104 73.5 177.5t177.5 73.5z" />
    <glyph glyph-name="s" unicode="s" horiz-adv-x="346" 
d="M279 256q44 -44 44 -106t-44 -106.5t-106 -44.5q-51 0 -91.5 31.5t-55.5 77.5q-7 19 5.5 36.5t32.5 22.5q35 7 59 -39q10 -19 20.5 -24.5t29.5 -5.5q21 0 36 15t15 37q0 21 -15 36t-36 15q-62 0 -106 44q-44 42 -44 106q0 62 44 106t106 44q52 0 94 -31t50 -73
q4 -21 -7 -38t-31 -21t-36 6.5t-23 30.5q-10 27 -47 27q-21 0 -36 -15t-15 -36t15 -36t36 -15q62 0 106 -44z" />
    <glyph glyph-name="t" unicode="t" horiz-adv-x="343" 
d="M288 501q21 0 35.5 -14.5t14.5 -34.5t-14.5 -35t-35.5 -15h-71v-353q0 -20 -14.5 -35t-35.5 -15q-20 0 -34.5 15t-14.5 35v353h-72q-20 0 -34.5 15t-14.5 35t14.5 34.5t34.5 14.5h72v200q0 20 14.5 34.5t34.5 14.5q21 0 35.5 -14.5t14.5 -34.5v-200h71z" />
    <glyph glyph-name="u" unicode="u" horiz-adv-x="467" 
d="M387 501q20 0 34.5 -14.5t14.5 -34.5v-251v-1q-1 -83 -60 -142t-143 -59q-83 0 -142 59t-60 142v1v251q0 20 14.5 34.5t34.5 14.5q21 0 35.5 -14.5t14.5 -34.5v-250q0 -43 30 -73.5t73 -30.5t73.5 30.5t30.5 73.5v250q0 20 14.5 34.5t35.5 14.5z" />
    <glyph glyph-name="v" unicode="v" horiz-adv-x="403" 
d="M371 497q19 -7 28 -25.5t1 -38.5l-150 -400q-13 -33 -47 -33h-1q-16 0 -29 9.5t-18 23.5l-150 400q-8 20 1 38.5t28 25.5t37.5 -1t26.5 -28l105 -279l104 279q8 20 26.5 28t37.5 1z" />
    <glyph glyph-name="w" unicode="w" horiz-adv-x="707" 
d="M673 497q19 -7 27.5 -25.5t1.5 -38.5l-150 -400q-14 -33 -48 -33q-35 0 -47 33l-104 277l-103 -277q-14 -33 -48 -33q-35 0 -47 33l-150 400q-8 20 1 38.5t28 25.5q19 8 37.5 -1t25.5 -28l105 -279l104 277q9 24 30 31q8 3 15 3h2h1h2h1h1h1h1h2q0 -1 1 -1h1h1q1 0 2 -1
h2q1 -1 2 -1q22 -8 29 -31l104 -277l105 279q8 20 26.5 28t37.5 1z" />
    <glyph glyph-name="x" unicode="x" horiz-adv-x="412" 
d="M271 251l132 -171q13 -16 10 -36.5t-19 -32.5q-14 -11 -30 -11q-23 0 -39 19l-117 151l-117 -151q-16 -19 -39 -19q-16 0 -30 11q-16 12 -19 32.5t10 36.5l132 171l-132 171q-13 17 -10.5 37t19.5 33q16 13 36 10t33 -19l117 -151l117 151q13 16 33 19t36 -10
q17 -13 19.5 -33t-10.5 -37z" />
    <glyph glyph-name="y" unicode="y" horiz-adv-x="455" 
d="M379 498q21 0 35.5 -14.5t14.5 -34.5v-493q0 -85 -61 -145.5t-146 -60.5q-59 0 -109 31.5t-76 84.5q-9 18 -2.5 37.5t25.5 28.5q18 9 37.5 2t27.5 -25q31 -60 97 -60q45 0 76.5 31.5t31.5 75.5v72q-47 -28 -103 -28q-83 0 -141.5 58.5t-59.5 140.5v1v249q0 20 14.5 34.5
t34.5 14.5t34.5 -14.5t14.5 -34.5v-248q0 -43 30.5 -73t72.5 -30q43 0 73 30t30 73v248q0 20 14.5 34.5t34.5 14.5z" />
    <glyph glyph-name="z" unicode="z" horiz-adv-x="452" 
d="M383 99q20 0 34.5 -14.5t14.5 -34.5t-14.5 -35t-34.5 -15h-311q-32 0 -45 28q-14 29 5 53l250 322h-212q-20 0 -34.5 15t-14.5 35t14.5 34.5t34.5 14.5h311q33 0 45 -28q15 -28 -5 -52l-250 -323h212z" />
    <glyph glyph-name="braceleft" unicode="{" horiz-adv-x="410" 
d="M344 89q15 0 31 -12t16 -33q0 -19 -13.5 -32t-32.5 -13h-1q-76 0 -130 58.5t-54 140.5q0 41 -27.5 71.5t-64.5 30.5q-20 0 -34.5 14.5t-14.5 34.5t14.5 34.5t35.5 14.5q37 0 64 30t27 72q0 83 54.5 141.5t130.5 58.5q19 0 32.5 -13t13.5 -32t-13.5 -32.5t-32.5 -13.5h-1
q-36 0 -65 -32q-27 -33 -27 -77q0 -89 -65 -151q65 -60 65 -151q0 -44 27 -77q27 -32 65 -32z" />
    <glyph glyph-name="bar" unicode="|" horiz-adv-x="169" 
d="M81 -108q-21 0 -35.5 14.5t-14.5 35.5v758q0 20 14.5 34.5t35.5 14.5q20 0 34.5 -14.5t14.5 -34.5v-758q0 -21 -14.5 -35.5t-34.5 -14.5z" />
    <glyph glyph-name="braceright" unicode="}" horiz-adv-x="419" 
d="M72 89q38 0 65 32q27 33 27 77q0 91 65 151q-65 62 -65 151q0 44 -27 77q-29 32 -65 32h-1q-19 0 -32.5 13.5t-13.5 32.5t13.5 32t32.5 13q76 0 130.5 -58.5t54.5 -141.5q0 -42 27 -72t64 -30q21 0 35.5 -14.5t14.5 -34.5t-14.5 -34.5t-34.5 -14.5q-37 0 -64.5 -30.5
t-27.5 -71.5q0 -82 -54 -140.5t-130 -58.5h-1q-19 0 -32.5 13t-13.5 32q0 21 16 33t31 12z" />
    <glyph glyph-name="asciitilde" unicode="~" horiz-adv-x="482" 
d="M439 258q14 -15 14 -36t-14 -35q-13 -13 -31 -15t-33 8q-26 20 -51 20t-51 -20q-55 -40 -110 -40q-54 0 -111 40v1q-4 2 -7 6q-15 14 -15 35t15 36q14 14 35 14t36 -14q0 -1 1 -1q23 -17 46 -17q24 0 51 21q54 39 110 39q57 0 102 -33q7 -3 13 -9z" />
    <glyph glyph-name="exclamdown" unicode="&#xa1;" horiz-adv-x="160" 
d="M81 -1q-21 0 -35.5 14.5t-14.5 35.5v445q0 20 14.5 34.5t35.5 14.5q20 0 34.5 -14.5t14.5 -34.5v-445q0 -21 -14.5 -35.5t-34.5 -14.5zM81 601q-21 0 -35 14q-15 15 -15 35t15 35t35 15t35 -15q14 -14 14 -35t-14 -35t-35 -14z" />
    <glyph glyph-name="cent" unicode="&#xa2;" horiz-adv-x="531" 
d="M272 -92q-21 0 -35.5 14.5t-14.5 35.5v47q-85 19 -140.5 87.5t-55.5 157.5t55.5 157.5t140.5 87.5v47q0 20 14.5 34.5t35.5 14.5q20 0 34.5 -14.5t14.5 -34.5v-45q113 -20 173 -121q10 -18 4.5 -37.5t-22.5 -30.5q-18 -10 -37.5 -4.5t-30.5 22.5q-32 52 -87 69v-291
q53 17 83 64q11 17 31.5 21.5t37.5 -6.5t21 -31.5t-7 -37.5q-58 -92 -166 -111v-45q0 -21 -14.5 -35.5t-34.5 -14.5zM124 250q0 -47 27.5 -86t70.5 -56v284q-44 -17 -71 -55.5t-27 -86.5z" />
    <glyph glyph-name="sterling" unicode="&#xa3;" horiz-adv-x="599" 
d="M373 603q-43 0 -73.5 -30.5t-30.5 -73.5v-169h158q20 0 34.5 -14.5t14.5 -35.5q0 -20 -14.5 -34.5t-34.5 -14.5h-157v-31q0 -55 -27 -101h283q20 0 34.5 -14.5t14.5 -35.5q0 -20 -14.5 -34.5t-34.5 -14.5h-428h-29q-20 1 -34 15t-14 34q0 21 14.5 35.5t35.5 14.5h19
q34 8 58 36.5t22 64.5v31h-99q-21 0 -35.5 14.5t-14.5 34.5q0 21 14.5 35.5t35.5 14.5h99v170v1q1 83 60.5 142t142.5 59t141.5 -59.5t60.5 -142.5v-1q0 -20 -14.5 -34.5t-34.5 -14.5t-35 14.5t-15 34.5q0 43 -30 73.5t-73 30.5z" />
    <glyph glyph-name="yen" unicode="&#xa5;" horiz-adv-x="556" 
d="M527 543q0 -90 -57.5 -159.5t-144.5 -86.5v-35h100q17 0 28 -11.5t11 -28.5q0 -16 -11.5 -27.5t-27.5 -11.5h-100v-33h100q17 0 28 -11.5t11 -28.5q0 -16 -11.5 -27.5t-27.5 -11.5h-100v-23q0 -21 -14.5 -35.5t-34.5 -14.5q-21 0 -35.5 14.5t-14.5 35.5v23h-104
q-16 0 -28 11.5t-12 27.5q0 17 11.5 28.5t28.5 11.5h104v33h-104q-16 0 -28 11.5t-12 27.5q0 17 11.5 28.5t28.5 11.5h104v35q-87 17 -144 86.5t-57 159.5v107q0 20 14.5 34.5t34.5 14.5t35 -14.5t15 -34.5v-107q0 -62 44.5 -107t107.5 -45q62 0 107 45t45 107v107
q0 20 14.5 34.5t34.5 14.5t35 -14.5t15 -34.5v-107z" />
    <glyph glyph-name="dieresis" unicode="&#xa8;" horiz-adv-x="300" 
d="M50 602q-20 0 -35 15q-14 14 -14 35q0 19 14 35q16 14 35 14q21 0 35 -14q15 -15 15 -35q0 -22 -15 -35q-13 -15 -35 -15zM248 602q-20 0 -35 15q-14 14 -14 35q0 19 14 35q16 14 35 14q21 0 35 -14q15 -15 15 -35q0 -22 -15 -35q-13 -15 -35 -15z" />
    <glyph glyph-name="acute" unicode="&#xb4;" horiz-adv-x="175" 
d="M13 614q-15 14 -15 34.5t15 35.5l78 78q14 14 35 14t35 -14q14 -15 14 -35.5t-14 -34.5l-78 -78q-15 -15 -35.5 -15t-34.5 15z" />
    <glyph glyph-name="periodcentered" unicode="&#xb7;" horiz-adv-x="169" 
d="M83 0q-20 0 -35 15q-14 14 -14 35q0 19 14 35q16 14 35 14q21 0 35 -14q15 -15 15 -35q0 -22 -15 -35q-14 -15 -35 -15z" />
    <glyph glyph-name="questiondown" unicode="&#xbf;" horiz-adv-x="449" 
d="M73 332l81 82q29 29 32 82q4 16 18 26.5t31 10.5t30.5 -10.5t17.5 -26.5q3 -83 -48 -142l-86 -88q-24 -27 -24 -65q0 -42 29.5 -72t71.5 -30q43 0 72.5 32t31.5 83q4 16 17.5 26t30.5 10q20 0 34.5 -14.5t14.5 -34.5q0 -84 -59 -143t-142 -59t-142.5 59t-59.5 143
q0 73 49 131zM235 697q20 0 35 -15q14 -14 14 -35q0 -19 -14 -35q-16 -14 -35 -14q-21 0 -35 14q-15 15 -15 35q0 21 15 35q14 15 35 15z" />
    <glyph glyph-name="Agrave" unicode="&#xc0;" horiz-adv-x="567" 
d="M537 67q9 -18 0.5 -37t-30.5 -29q-19 -4 -38 5.5t-28 30.5l-36 102h-244l-42 -102q-8 -36 -48 -36h-11q-22 9 -31.5 28t-4.5 38l214 596q5 15 18 25.5t31 10.5q17 0 29.5 -10.5t17.5 -25.5zM197 240h178l-88 256zM357 814q-14 -15 -34.5 -15t-35.5 15l-78 78
q-14 14 -14 34.5t14 35.5q14 14 35 14t35 -14l78 -78q15 -15 15 -35.5t-15 -34.5z" />
    <glyph glyph-name="Aacute" unicode="&#xc1;" horiz-adv-x="567" 
d="M537 67q9 -18 0.5 -37t-30.5 -29q-19 -4 -38 5.5t-28 30.5l-36 102h-244l-42 -102q-8 -36 -48 -36h-11q-22 9 -31.5 28t-4.5 38l214 596q5 15 18 25.5t31 10.5q17 0 29.5 -10.5t17.5 -25.5zM197 240h178l-88 256zM210 814q-15 14 -15 34.5t15 35.5l78 78q14 14 35 14
t35 -14q14 -15 14 -35.5t-14 -34.5l-78 -78q-15 -15 -35.5 -15t-34.5 15z" />
    <glyph glyph-name="Acircumflex" unicode="&#xc2;" horiz-adv-x="567" 
d="M537 67q9 -18 0.5 -37t-30.5 -29q-19 -4 -38 5.5t-28 30.5l-36 102h-244l-42 -102q-8 -36 -48 -36h-11q-22 9 -31.5 28t-4.5 38l214 596q5 15 18 25.5t31 10.5q17 0 29.5 -10.5t17.5 -25.5zM197 240h178l-88 256zM396 801q-14 -14 -35 -14t-35 14l-43 43l-42 -43
q-14 -14 -35 -14t-35 14q-14 15 -14 35.5t14 34.5q73 74 77 78q15 15 35 15q21 0 36 -15q4 -4 77 -78q14 -14 14 -34.5t-14 -35.5z" />
    <glyph glyph-name="Atilde" unicode="&#xc3;" horiz-adv-x="567" 
d="M537 67q9 -18 0.5 -37t-30.5 -29q-19 -4 -38 5.5t-28 30.5l-36 102h-244l-42 -102q-8 -36 -48 -36h-11q-22 9 -31.5 28t-4.5 38l214 596q5 15 18 25.5t31 10.5q17 0 29.5 -10.5t17.5 -25.5zM197 240h178l-88 256zM429 888q14 -16 14 -34q0 -20 -14.5 -34.5t-34.5 -14.5
q-14 0 -26 7q-6 4 -8 6l-3 3q0 1 -1 1q-8 8 -11 12q-11 11 -15 11t-14 -11q-40 -43 -87 -43q-46 0 -86 43l-5 5l-2 2q-13 15 -13 33q0 20 14.5 34.5t34.5 14.5t34 -14q1 0 1 -1q1 -1 3 -2.5t3 -3t2 -2.5q11 -11 14 -11q4 0 15 11q40 43 86 43q47 0 87 -43z" />
    <glyph glyph-name="Adieresis" unicode="&#xc4;" horiz-adv-x="567" 
d="M537 67q9 -18 0.5 -37t-30.5 -29q-19 -4 -38 5.5t-28 30.5l-36 102h-244l-42 -102q-8 -36 -48 -36h-11q-22 9 -31.5 28t-4.5 38l214 596q5 15 18 25.5t31 10.5q17 0 29.5 -10.5t17.5 -25.5zM197 240h178l-88 256zM184 802q-20 0 -35 15q-14 14 -14 35q0 19 14 35
q16 14 35 14q21 0 35 -14q15 -15 15 -35q0 -22 -15 -35q-13 -15 -35 -15zM382 802q-20 0 -35 15q-14 14 -14 35q0 19 14 35q16 14 35 14q21 0 35 -14q15 -15 15 -35q0 -22 -15 -35q-13 -15 -35 -15z" />
    <glyph glyph-name="Ccedilla" unicode="&#xc7;" horiz-adv-x="722" 
d="M660 224q19 -9 25 -28.5t-7 -37.5q-50 -77 -127 -119.5t-168 -42.5l-1 -11q30 -1 51.5 -23.5t21.5 -54.5t-22.5 -53.5t-54.5 -21.5q-25 0 -54 21q-14 9 -14 24q0 11 7.5 18.5t18.5 7.5q9 0 18 -7q16 -15 24 -15q11 0 19 7.5t8 18.5t-8 19t-19 8q-5 0 -14 -4.5t-15 -4.5
q-11 0 -19 8t-8 19l7 47q-127 17 -212 115t-85 230q0 147 104 249.5t249 102.5q95 0 174.5 -46t124.5 -127q13 -23 7 -43t-25 -29q-17 -9 -37 -4.5t-29 22.5q-35 59 -92 92t-123 33q-103 0 -177 -73.5t-74 -176.5t74 -174.5t177 -71.5q63 0 118.5 30t90.5 84q9 18 31 22
t35 -10z" />
    <glyph glyph-name="Egrave" unicode="&#xc8;" horiz-adv-x="510" 
d="M432 101q20 0 35 -14.5t15 -35.5t-15 -35.5t-35 -14.5h-345h-2h-2q-21 0 -35.5 14.5t-14.5 35.5v598q0 21 14.5 35.5t35.5 14.5h2h2h345q20 0 35 -14.5t15 -35.5t-15 -35.5t-35 -14.5h-299v-201h228q20 0 35 -14.5t15 -35.5t-15 -35.5t-35 -14.5h-228v-197h299zM328 814
q-14 -15 -34.5 -15t-35.5 15l-78 78q-14 14 -14 34.5t14 35.5q14 14 35 14t35 -14l78 -78q15 -15 15 -35.5t-15 -34.5z" />
    <glyph glyph-name="Eacute" unicode="&#xc9;" horiz-adv-x="510" 
d="M432 101q20 0 35 -14.5t15 -35.5t-15 -35.5t-35 -14.5h-345h-2h-2q-21 0 -35.5 14.5t-14.5 35.5v598q0 21 14.5 35.5t35.5 14.5h2h2h345q20 0 35 -14.5t15 -35.5t-15 -35.5t-35 -14.5h-299v-201h228q20 0 35 -14.5t15 -35.5t-15 -35.5t-35 -14.5h-228v-197h299zM181 814
q-15 14 -15 34.5t15 35.5l78 78q14 14 35 14t35 -14q14 -15 14 -35.5t-14 -34.5l-78 -78q-15 -15 -35.5 -15t-34.5 15z" />
    <glyph glyph-name="Ecircumflex" unicode="&#xca;" horiz-adv-x="510" 
d="M432 101q20 0 35 -14.5t15 -35.5t-15 -35.5t-35 -14.5h-345h-2h-2q-21 0 -35.5 14.5t-14.5 35.5v598q0 21 14.5 35.5t35.5 14.5h2h2h345q20 0 35 -14.5t15 -35.5t-15 -35.5t-35 -14.5h-299v-201h228q20 0 35 -14.5t15 -35.5t-15 -35.5t-35 -14.5h-228v-197h299zM367 801
q-14 -14 -35 -14t-35 14l-43 43l-42 -43q-14 -14 -35 -14t-35 14q-14 15 -14 35.5t14 34.5q73 74 77 78q15 15 35 15q21 0 36 -15q4 -4 77 -78q14 -14 14 -34.5t-14 -35.5z" />
    <glyph glyph-name="Edieresis" unicode="&#xcb;" horiz-adv-x="510" 
d="M432 101q20 0 35 -14.5t15 -35.5t-15 -35.5t-35 -14.5h-345h-2h-2q-21 0 -35.5 14.5t-14.5 35.5v598q0 21 14.5 35.5t35.5 14.5h2h2h345q20 0 35 -14.5t15 -35.5t-15 -35.5t-35 -14.5h-299v-201h228q20 0 35 -14.5t15 -35.5t-15 -35.5t-35 -14.5h-228v-197h299zM155 802
q-20 0 -35 15q-14 14 -14 35q0 19 14 35q16 14 35 14q21 0 35 -14q15 -15 15 -35q0 -22 -15 -35q-14 -15 -35 -15zM353 802q-20 0 -35 15q-14 14 -14 35q0 19 14 35q16 14 35 14q21 0 35 -14q15 -15 15 -35q0 -22 -15 -35q-14 -15 -35 -15z" />
    <glyph glyph-name="Igrave" unicode="&#xcc;" horiz-adv-x="162" 
d="M81 -1q20 0 34.5 14.5t14.5 35.5v604q0 20 -14.5 34.5t-34.5 14.5q-21 0 -35.5 -14.5t-14.5 -34.5v-604q0 -21 14.5 -35.5t35.5 -14.5zM155 814q-14 -15 -34.5 -15t-35.5 15l-78 78q-14 14 -14 34.5t14 35.5q14 14 35 14t35 -14l78 -78q15 -15 15 -35.5t-15 -34.5z" />
    <glyph glyph-name="Iacute" unicode="&#xcd;" horiz-adv-x="162" 
d="M81 -1q-21 0 -35.5 14.5t-14.5 35.5v604q0 20 14.5 34.5t35.5 14.5q20 0 34.5 -14.5t14.5 -34.5v-604q0 -21 -14.5 -35.5t-34.5 -14.5zM8 814q-15 14 -15 34.5t15 35.5l78 78q14 14 35 14t35 -14q14 -15 14 -35.5t-14 -34.5l-78 -78q-15 -15 -35.5 -15t-34.5 15z" />
    <glyph glyph-name="Icircumflex" unicode="&#xce;" horiz-adv-x="162" 
d="M81 -1q-21 0 -35.5 14.5t-14.5 35.5v604q0 20 14.5 34.5t35.5 14.5q20 0 34.5 -14.5t14.5 -34.5v-604q0 -21 -14.5 -35.5t-34.5 -14.5zM194 801q-14 -14 -35 -14t-35 14l-43 43l-42 -43q-14 -14 -35 -14t-35 14q-14 15 -14 35.5t14 34.5q73 74 77 78q15 15 35 15
q21 0 36 -15q4 -4 77 -78q14 -14 14 -34.5t-14 -35.5z" />
    <glyph glyph-name="Idieresis" unicode="&#xcf;" horiz-adv-x="162" 
d="M81 -1q-21 0 -35.5 14.5t-14.5 35.5v604q0 20 14.5 34.5t35.5 14.5q20 0 34.5 -14.5t14.5 -34.5v-604q0 -21 -14.5 -35.5t-34.5 -14.5zM-18 802q-20 0 -35 15q-14 14 -14 35q0 19 14 35q16 14 35 14q21 0 35 -14q15 -15 15 -35q0 -22 -15 -35q-13 -15 -35 -15zM180 802
q-20 0 -35 15q-14 14 -14 35q0 19 14 35q16 14 35 14q21 0 35 -14q15 -15 15 -35q0 -22 -15 -35q-13 -15 -35 -15z" />
    <glyph glyph-name="Ntilde" unicode="&#xd1;" horiz-adv-x="578" 
d="M548 55q5 -32 -22 -49q-11 -8 -27 -8q-27 0 -42 23l-327 470v-444q0 -20 -14.5 -34.5t-34.5 -14.5t-35 14.5t-15 34.5v601q-3 32 23 49q17 11 37.5 7t31.5 -22l326 -484v457q0 21 15 35.5t35 14.5t34.5 -14.5t14.5 -35.5v-600zM435 888q14 -16 14 -34q0 -20 -14.5 -34.5
t-34.5 -14.5q-14 0 -26 7q-6 4 -8 6l-3 3q0 1 -1 1q-8 8 -11 12q-11 11 -15 11t-14 -11q-40 -43 -87 -43q-46 0 -86 43l-5 5l-2 2q-13 15 -13 33q0 20 14.5 34.5t34.5 14.5t34 -14q1 0 1 -1q1 -1 3 -2.5t3 -3t2 -2.5q11 -11 14 -11q4 0 15 11q40 43 86 43q47 0 87 -43z" />
    <glyph glyph-name="Ograve" unicode="&#xd2;" horiz-adv-x="743" 
d="M372 1q144 0 245 103.5t101 248.5q0 142 -101 244t-245 102t-245 -102t-101 -244q0 -145 101 -248.5t245 -103.5zM372 602q103 0 176.5 -73t73.5 -176q0 -106 -73.5 -180.5t-176.5 -74.5t-176 74.5t-73 180.5q0 103 73 176t176 73zM445 814q-14 -15 -34.5 -15t-35.5 15
l-78 78q-14 14 -14 34.5t14 35.5q14 14 35 14t35 -14l78 -78q15 -15 15 -35.5t-15 -34.5z" />
    <glyph glyph-name="Oacute" unicode="&#xd3;" horiz-adv-x="743" 
d="M372 1q-144 0 -245 103.5t-101 248.5q0 142 101 244t245 102t245 -102t101 -244q0 -145 -101 -248.5t-245 -103.5zM372 602q-103 0 -176 -73t-73 -176q0 -106 73 -180.5t176 -74.5t176.5 74.5t73.5 180.5q0 103 -73.5 176t-176.5 73zM298 814q-15 14 -15 34.5t15 35.5
l78 78q14 14 35 14t35 -14q14 -15 14 -35.5t-14 -34.5l-78 -78q-15 -15 -35.5 -15t-34.5 15z" />
    <glyph glyph-name="Ocircumflex" unicode="&#xd4;" horiz-adv-x="743" 
d="M372 1q-144 0 -245 103.5t-101 248.5q0 142 101 244t245 102t245 -102t101 -244q0 -145 -101 -248.5t-245 -103.5zM372 602q-103 0 -176 -73t-73 -176q0 -106 73 -180.5t176 -74.5t176.5 74.5t73.5 180.5q0 103 -73.5 176t-176.5 73zM484 801q-14 -14 -35 -14t-35 14
l-43 43l-42 -43q-14 -14 -35 -14t-35 14q-14 15 -14 35.5t14 34.5q73 74 77 78q15 15 35 15q21 0 36 -15q4 -4 77 -78q14 -14 14 -34.5t-14 -35.5z" />
    <glyph glyph-name="Otilde" unicode="&#xd5;" horiz-adv-x="743" 
d="M372 1q144 0 245 103.5t101 248.5q0 142 -101 244t-245 102t-245 -102t-101 -244q0 -145 101 -248.5t245 -103.5zM372 602q103 0 176.5 -73t73.5 -176q0 -106 -73.5 -180.5t-176.5 -74.5t-176 74.5t-73 180.5q0 103 73 176t176 73zM517 888q14 -16 14 -34
q0 -20 -14.5 -34.5t-34.5 -14.5q-14 0 -26 7q-6 4 -8 6l-3 3q0 1 -1 1q-8 8 -11 12q-11 11 -15 11t-14 -11q-40 -43 -87 -43q-46 0 -86 43l-5 5l-2 2q-13 15 -13 33q0 20 14.5 34.5t34.5 14.5t34 -14q1 0 1 -1q1 -1 3 -2.5t3 -3t2 -2.5q11 -11 14 -11q4 0 15 11q40 43 86 43
q47 0 87 -43z" />
    <glyph glyph-name="Odieresis" unicode="&#xd6;" horiz-adv-x="743" 
d="M372 1q-144 0 -245 103.5t-101 248.5q0 142 101 244t245 102t245 -102t101 -244q0 -145 -101 -248.5t-245 -103.5zM372 602q-103 0 -176 -73t-73 -176q0 -106 73 -180.5t176 -74.5t176.5 74.5t73.5 180.5q0 103 -73.5 176t-176.5 73zM272 802q-20 0 -35 15q-14 14 -14 35
q0 19 14 35q16 14 35 14q21 0 35 -14q15 -15 15 -35q0 -22 -15 -35q-13 -15 -35 -15zM470 802q-20 0 -35 15q-14 14 -14 35q0 19 14 35q16 14 35 14q21 0 35 -14q15 -15 15 -35q0 -22 -15 -35q-14 -15 -35 -15z" />
    <glyph glyph-name="Ugrave" unicode="&#xd9;" horiz-adv-x="552" 
d="M277 0q104 0 177.5 73.5t73.5 177.5v392q0 21 -14.5 35.5t-35.5 14.5q-20 0 -34.5 -14.5t-14.5 -35.5v-392q0 -63 -44.5 -107.5t-107.5 -44.5t-107.5 44.5t-44.5 107.5v392q0 21 -14.5 35.5t-35.5 14.5q-20 0 -34.5 -14.5t-14.5 -35.5v-392q0 -104 73.5 -177.5
t177.5 -73.5zM349 814q-14 -15 -34.5 -15t-35.5 15l-78 78q-14 14 -14 34.5t14 35.5q14 14 35 14t35 -14l78 -78q15 -15 15 -35.5t-15 -34.5z" />
    <glyph glyph-name="Uacute" unicode="&#xda;" horiz-adv-x="552" 
d="M277 0q-104 0 -177.5 73.5t-73.5 177.5v392q0 21 14.5 35.5t34.5 14.5q21 0 35.5 -14.5t14.5 -35.5v-392q0 -63 44.5 -107.5t107.5 -44.5t107.5 44.5t44.5 107.5v392q0 21 14.5 35.5t34.5 14.5q21 0 35.5 -14.5t14.5 -35.5v-392q0 -104 -73.5 -177.5t-177.5 -73.5z
M202 814q-15 14 -15 34.5t15 35.5l78 78q14 14 35 14t35 -14q14 -15 14 -35.5t-14 -34.5l-78 -78q-15 -15 -35.5 -15t-34.5 15z" />
    <glyph glyph-name="Ucircumflex" unicode="&#xdb;" horiz-adv-x="552" 
d="M277 0q-104 0 -177.5 73.5t-73.5 177.5v392q0 21 14.5 35.5t34.5 14.5q21 0 35.5 -14.5t14.5 -35.5v-392q0 -63 44.5 -107.5t107.5 -44.5t107.5 44.5t44.5 107.5v392q0 21 14.5 35.5t34.5 14.5q21 0 35.5 -14.5t14.5 -35.5v-392q0 -104 -73.5 -177.5t-177.5 -73.5z
M388 801q-14 -14 -35 -14t-35 14l-43 43l-42 -43q-14 -14 -35 -14t-35 14q-14 15 -14 35.5t14 34.5q73 74 77 78q15 15 35 15q21 0 36 -15q4 -4 77 -78q14 -14 14 -34.5t-14 -35.5z" />
    <glyph glyph-name="Udieresis" unicode="&#xdc;" horiz-adv-x="552" 
d="M277 0q-104 0 -177.5 73.5t-73.5 177.5v392q0 21 14.5 35.5t34.5 14.5q21 0 35.5 -14.5t14.5 -35.5v-392q0 -63 44.5 -107.5t107.5 -44.5t107.5 44.5t44.5 107.5v392q0 21 14.5 35.5t34.5 14.5q21 0 35.5 -14.5t14.5 -35.5v-392q0 -104 -73.5 -177.5t-177.5 -73.5z
M176 802q-20 0 -35 15q-14 14 -14 35q0 19 14 35q16 14 35 14q21 0 35 -14q15 -15 15 -35q0 -22 -15 -35q-13 -15 -35 -15zM374 802q-20 0 -35 15q-14 14 -14 35q0 19 14 35q16 14 35 14q21 0 35 -14q15 -15 15 -35q0 -22 -15 -35q-13 -15 -35 -15z" />
    <glyph glyph-name="Yacute" unicode="&#xdd;" horiz-adv-x="499" 
d="M450 704q20 0 35 -14.5t15 -34.5v-107q0 -90 -57.5 -159.5t-144.5 -86.5v-249q0 -21 -14.5 -35.5t-34.5 -14.5q-21 0 -35.5 14.5t-14.5 35.5v249q-87 17 -144 86.5t-57 159.5v107q0 20 14.5 34.5t34.5 14.5t35 -14.5t15 -34.5v-107q0 -62 44.5 -107t107.5 -45
q62 0 107 45t45 107v107q0 20 14.5 34.5t34.5 14.5zM176 814q-15 14 -15 34.5t15 35.5l78 78q14 14 35 14t35 -14q14 -15 14 -35.5t-14 -34.5l-78 -78q-15 -15 -35.5 -15t-34.5 15z" />
    <glyph glyph-name="agrave" unicode="&#xe0;" horiz-adv-x="551" 
d="M279 500q105 0 175.5 -73.5t70.5 -179.5v-196q0 -22 -14 -36t-36 -14q-16 0 -32 15t-16 35q-60 -50 -148 -50q-106 0 -179.5 70.5t-73.5 175.5q0 106 73.5 179.5t179.5 73.5zM279 99q63 0 105.5 42.5t42.5 105.5q0 64 -43 109.5t-105 45.5q-63 0 -109 -46t-46 -109
q0 -62 45.5 -105t109.5 -43zM349 614q-14 -15 -34.5 -15t-35.5 15l-78 78q-14 14 -14 34.5t14 35.5q14 14 35 14t35 -14l78 -78q15 -15 15 -35.5t-15 -34.5z" />
    <glyph glyph-name="aacute" unicode="&#xe1;" horiz-adv-x="551" 
d="M279 500q105 0 175.5 -73.5t70.5 -179.5v-196q0 -22 -14 -36t-36 -14q-16 0 -32 15t-16 35q-60 -50 -148 -50q-106 0 -179.5 70.5t-73.5 175.5q0 106 73.5 179.5t179.5 73.5zM279 99q63 0 105.5 42.5t42.5 105.5q0 64 -43 109.5t-105 45.5q-63 0 -109 -46t-46 -109
q0 -62 45.5 -105t109.5 -43zM202 614q-15 14 -15 34.5t15 35.5l78 78q14 14 35 14t35 -14q14 -15 14 -35.5t-14 -34.5l-78 -78q-15 -15 -35.5 -15t-34.5 15z" />
    <glyph glyph-name="acircumflex" unicode="&#xe2;" horiz-adv-x="551" 
d="M279 500q105 0 175.5 -73.5t70.5 -179.5v-196q0 -22 -14 -36t-36 -14q-16 0 -32 15t-16 35q-60 -50 -148 -50q-106 0 -179.5 70.5t-73.5 175.5q0 106 73.5 179.5t179.5 73.5zM279 99q63 0 105.5 42.5t42.5 105.5q0 64 -43 109.5t-105 45.5q-63 0 -109 -46t-46 -109
q0 -62 45.5 -105t109.5 -43zM388 601q-14 -14 -35 -14t-35 14l-43 43l-42 -43q-14 -14 -35 -14t-35 14q-14 15 -14 35.5t14 34.5q73 74 77 78q15 15 35 15q21 0 36 -15q4 -4 77 -78q14 -14 14 -34.5t-14 -35.5z" />
    <glyph glyph-name="atilde" unicode="&#xe3;" horiz-adv-x="551" 
d="M279 500q105 0 175.5 -73.5t70.5 -179.5v-196q0 -22 -14 -36t-36 -14q-16 0 -32 15t-16 35q-60 -50 -148 -50q-106 0 -179.5 70.5t-73.5 175.5q0 106 73.5 179.5t179.5 73.5zM279 99q63 0 105.5 42.5t42.5 105.5q0 64 -43 109.5t-105 45.5q-63 0 -109 -46t-46 -109
q0 -62 45.5 -105t109.5 -43zM421 688q14 -16 14 -34q0 -20 -14.5 -34.5t-34.5 -14.5q-14 0 -26 7q-6 4 -8 6l-3 3q0 1 -1 1q-8 8 -11 12q-11 11 -15 11t-14 -11q-40 -43 -87 -43q-46 0 -86 43l-5 5l-2 2q-13 15 -13 33q0 20 14.5 34.5t34.5 14.5t34 -14q1 0 1 -1l8 -8
q11 -11 14 -11q4 0 15 11q40 43 86 43q47 0 87 -43z" />
    <glyph glyph-name="adieresis" unicode="&#xe4;" horiz-adv-x="551" 
d="M279 500q105 0 175.5 -73.5t70.5 -179.5v-196q0 -22 -14 -36t-36 -14q-16 0 -32 15t-16 35q-60 -50 -148 -50q-106 0 -179.5 70.5t-73.5 175.5q0 106 73.5 179.5t179.5 73.5zM279 99q63 0 105.5 42.5t42.5 105.5q0 64 -43 109.5t-105 45.5q-63 0 -109 -46t-46 -109
q0 -62 45.5 -105t109.5 -43zM176 602q-20 0 -35 15q-14 14 -14 35q0 19 14 35q16 14 35 14q21 0 35 -14q15 -15 15 -35q0 -22 -15 -35q-13 -15 -35 -15zM374 602q-20 0 -35 15q-14 14 -14 35q0 19 14 35q16 14 35 14q21 0 35 -14q15 -15 15 -35q0 -22 -15 -35
q-13 -15 -35 -15z" />
    <glyph glyph-name="ccedilla" unicode="&#xe7;" horiz-adv-x="531" 
d="M471 184q17 -11 21 -31.5t-7 -37.5q-31 -51 -83 -81.5t-111 -33.5l-1 -10q30 -1 51.5 -23.5t21.5 -54.5t-22.5 -53.5t-54.5 -21.5q-25 0 -44 14q-24 16 -24 31q0 11 7.5 18.5t18.5 7.5q9 0 18 -7q16 -15 24 -15q11 0 19 7.5t8 18.5t-8 19t-19 8q-8 0 -13 -4q-8 -5 -16 -5
q-11 0 -19 8t-8 19l10 45q-92 13 -154 83.5t-62 165.5q0 104 73 177.5t177 73.5q67 0 125.5 -33.5t92.5 -91.5q10 -18 4.5 -37.5t-22.5 -30.5q-18 -10 -37.5 -4.5t-30.5 22.5q-20 35 -55.5 55.5t-76.5 20.5q-62 0 -107 -44.5t-45 -107.5q0 -62 45 -107t107 -45q83 0 128 70
q11 17 31.5 21.5t37.5 -6.5z" />
    <glyph glyph-name="egrave" unicode="&#xe8;" horiz-adv-x="555" 
d="M277 502q99 0 175 -68t76 -183q0 -20 -14.5 -34.5t-35.5 -14.5h-345q16 -46 55 -74.5t89 -28.5q61 0 112 33q18 11 37.5 3.5t28.5 -26.5q18 -38 -24 -66q-30 -20 -62.5 -30.5t-48.5 -11.5t-43 -1q-104 0 -177.5 73.5t-73.5 177.5t73.5 177.5t177.5 73.5zM277 403
q-49 0 -88.5 -28.5t-55.5 -73.5h289q-15 50 -55.5 76t-89.5 26zM351 614q-14 -15 -34.5 -15t-35.5 15l-78 78q-14 14 -14 34.5t14 35.5q14 14 35 14t35 -14l78 -78q15 -15 15 -35.5t-15 -34.5z" />
    <glyph glyph-name="eacute" unicode="&#xe9;" horiz-adv-x="555" 
d="M277 502q99 0 175 -68t76 -183q0 -20 -14.5 -34.5t-35.5 -14.5h-345q16 -46 55 -74.5t89 -28.5q61 0 112 33q18 11 37.5 3.5t28.5 -26.5q18 -38 -24 -66q-30 -20 -62.5 -30.5t-48.5 -11.5t-43 -1q-104 0 -177.5 73.5t-73.5 177.5t73.5 177.5t177.5 73.5zM277 403
q-49 0 -88.5 -28.5t-55.5 -73.5h289q-15 50 -55.5 76t-89.5 26zM204 614q-15 14 -15 34.5t15 35.5l78 78q14 14 35 14t35 -14q14 -15 14 -35.5t-14 -34.5l-78 -78q-15 -15 -35.5 -15t-34.5 15z" />
    <glyph glyph-name="ecircumflex" unicode="&#xea;" horiz-adv-x="555" 
d="M277 502q99 0 175 -68t76 -183q0 -20 -14.5 -34.5t-35.5 -14.5h-345q16 -46 55 -74.5t89 -28.5q61 0 112 33q18 11 37.5 3.5t28.5 -26.5q18 -38 -24 -66q-30 -20 -62.5 -30.5t-48.5 -11.5t-43 -1q-104 0 -177.5 73.5t-73.5 177.5t73.5 177.5t177.5 73.5zM277 403
q-49 0 -88.5 -28.5t-55.5 -73.5h289q-15 50 -55.5 76t-89.5 26zM390 601q-14 -14 -35 -14t-35 14l-43 43l-42 -43q-14 -14 -35 -14t-35 14q-14 15 -14 35.5t14 34.5q73 74 77 78q15 15 35 15q21 0 36 -15q4 -4 77 -78q14 -14 14 -34.5t-14 -35.5z" />
    <glyph glyph-name="edieresis" unicode="&#xeb;" horiz-adv-x="555" 
d="M277 502q99 0 175 -68t76 -183q0 -20 -14.5 -34.5t-35.5 -14.5h-345q16 -46 55 -74.5t89 -28.5q61 0 112 33q18 11 37.5 3.5t28.5 -26.5q18 -38 -24 -66q-30 -20 -62.5 -30.5t-48.5 -11.5t-43 -1q-104 0 -177.5 73.5t-73.5 177.5t73.5 177.5t177.5 73.5zM277 403
q-49 0 -88.5 -28.5t-55.5 -73.5h289q-15 50 -55.5 76t-89.5 26zM178 602q-20 0 -35 15q-14 14 -14 35q0 19 14 35q16 14 35 14q21 0 35 -14q15 -15 15 -35q0 -22 -15 -35q-13 -15 -35 -15zM376 602q-20 0 -35 15q-14 14 -14 35q0 19 14 35q16 14 35 14q21 0 35 -14
q15 -15 15 -35q0 -22 -15 -35q-13 -15 -35 -15z" />
    <glyph glyph-name="igrave" unicode="&#xec;" horiz-adv-x="161" 
d="M81 -1q20 0 34.5 14.5t14.5 35.5v403q0 20 -14.5 34.5t-34.5 14.5q-21 0 -35.5 -14.5t-14.5 -34.5v-403q0 -21 14.5 -35.5t35.5 -14.5zM154 614q-14 -15 -34.5 -15t-35.5 15l-78 78q-14 14 -14 34.5t14 35.5q14 14 35 14t35 -14l78 -78q15 -15 15 -35.5t-15 -34.5z" />
    <glyph glyph-name="iacute" unicode="&#xed;" horiz-adv-x="161" 
d="M81 -1q-21 0 -35.5 14.5t-14.5 35.5v403q0 20 14.5 34.5t35.5 14.5q20 0 34.5 -14.5t14.5 -34.5v-403q0 -21 -14.5 -35.5t-34.5 -14.5zM7 614q-15 14 -15 34.5t15 35.5l78 78q14 14 35 14t35 -14q14 -15 14 -35.5t-14 -34.5l-78 -78q-15 -15 -35.5 -15t-34.5 15z" />
    <glyph glyph-name="icircumflex" unicode="&#xee;" horiz-adv-x="161" 
d="M81 -1q-21 0 -35.5 14.5t-14.5 35.5v403q0 20 14.5 34.5t35.5 14.5q20 0 34.5 -14.5t14.5 -34.5v-403q0 -21 -14.5 -35.5t-34.5 -14.5zM193 601q-14 -14 -35 -14t-35 14l-43 43l-42 -43q-14 -14 -35 -14t-35 14q-14 15 -14 35.5t14 34.5q73 74 77 78q15 15 35 15
q21 0 36 -15q4 -4 77 -78q14 -14 14 -34.5t-14 -35.5z" />
    <glyph glyph-name="idieresis" unicode="&#xef;" horiz-adv-x="161" 
d="M81 -1q-21 0 -35.5 14.5t-14.5 35.5v403q0 20 14.5 34.5t35.5 14.5q20 0 34.5 -14.5t14.5 -34.5v-403q0 -21 -14.5 -35.5t-34.5 -14.5zM-19 602q-20 0 -35 15q-14 14 -14 35q0 19 14 35q16 14 35 14q21 0 35 -14q15 -15 15 -35q0 -22 -15 -35q-13 -15 -35 -15zM179 602
q-20 0 -35 15q-14 14 -14 35q0 19 14 35q16 14 35 14q21 0 35 -14q15 -15 15 -35q0 -22 -15 -35q-13 -15 -35 -15z" />
    <glyph glyph-name="ntilde" unicode="&#xf1;" 
d="M277 502q104 0 177.5 -73.5t73.5 -177.5v-201q0 -21 -14.5 -35.5t-35.5 -14.5q-20 0 -34.5 14.5t-14.5 35.5v201q0 63 -44.5 107.5t-107.5 44.5t-107.5 -44.5t-44.5 -107.5v-201q0 -21 -14.5 -35.5t-35.5 -14.5q-20 0 -34.5 14.5t-14.5 35.5v201q0 104 73.5 177.5
t177.5 73.5zM423 688q14 -16 14 -34q0 -20 -14.5 -34.5t-34.5 -14.5q-14 0 -26 7q-6 4 -8 6l-3 3q0 1 -1 1q-8 8 -11 12q-11 11 -15 11t-14 -11q-40 -43 -87 -43q-46 0 -86 43l-5 5l-2 2q-13 15 -13 33q0 20 14.5 34.5t34.5 14.5t34 -14q1 0 1 -1l8 -8q11 -11 14 -11
q4 0 15 11q40 43 86 43q47 0 87 -43z" />
    <glyph glyph-name="ograve" unicode="&#xf2;" 
d="M277 0q104 0 177.5 73.5t73.5 177.5t-73.5 177.5t-177.5 73.5t-177.5 -73.5t-73.5 -177.5q0 -103 74 -177t177 -74zM277 403q63 0 107.5 -44.5t44.5 -107.5q0 -62 -44.5 -107t-107.5 -45t-107.5 45t-44.5 107q0 63 44.5 107.5t107.5 44.5zM350 614q-14 -15 -34.5 -15
t-35.5 15l-78 78q-14 14 -14 34.5t14 35.5q14 14 35 14t35 -14l78 -78q15 -15 15 -35.5t-15 -34.5z" />
    <glyph glyph-name="oacute" unicode="&#xf3;" 
d="M277 0q-103 0 -177 74t-74 177q0 104 73.5 177.5t177.5 73.5t177.5 -73.5t73.5 -177.5t-73.5 -177.5t-177.5 -73.5zM277 403q-63 0 -107.5 -44.5t-44.5 -107.5q0 -62 44.5 -107t107.5 -45t107.5 45t44.5 107q0 63 -44.5 107.5t-107.5 44.5zM203 614q-15 14 -15 34.5
t15 35.5l78 78q14 14 35 14t35 -14q14 -15 14 -35.5t-14 -34.5l-78 -78q-15 -15 -35.5 -15t-34.5 15z" />
    <glyph glyph-name="ocircumflex" unicode="&#xf4;" 
d="M277 0q-103 0 -177 74t-74 177q0 104 73.5 177.5t177.5 73.5t177.5 -73.5t73.5 -177.5t-73.5 -177.5t-177.5 -73.5zM277 403q-63 0 -107.5 -44.5t-44.5 -107.5q0 -62 44.5 -107t107.5 -45t107.5 45t44.5 107q0 63 -44.5 107.5t-107.5 44.5zM389 601q-14 -14 -35 -14
t-35 14l-43 43l-42 -43q-14 -14 -35 -14t-35 14q-14 15 -14 35.5t14 34.5q73 74 77 78q15 15 35 15q21 0 36 -15q4 -4 77 -78q14 -14 14 -34.5t-14 -35.5z" />
    <glyph glyph-name="otilde" unicode="&#xf5;" 
d="M277 0q104 0 177.5 73.5t73.5 177.5t-73.5 177.5t-177.5 73.5t-177.5 -73.5t-73.5 -177.5q0 -103 74 -177t177 -74zM277 403q63 0 107.5 -44.5t44.5 -107.5q0 -62 -44.5 -107t-107.5 -45t-107.5 45t-44.5 107q0 63 44.5 107.5t107.5 44.5zM423 688q14 -16 14 -34
q0 -20 -14.5 -34.5t-34.5 -14.5q-14 0 -26 7q-6 4 -8 6l-3 3q0 1 -1 1q-8 8 -11 12q-11 11 -15 11t-14 -11q-40 -43 -87 -43q-46 0 -86 43l-5 5l-2 2q-13 15 -13 33q0 20 14.5 34.5t34.5 14.5t34 -14q1 0 1 -1l8 -8q11 -11 14 -11q4 0 15 11q40 43 86 43q47 0 87 -43z" />
    <glyph glyph-name="odieresis" unicode="&#xf6;" 
d="M277 0q-103 0 -177 74t-74 177q0 104 73.5 177.5t177.5 73.5t177.5 -73.5t73.5 -177.5t-73.5 -177.5t-177.5 -73.5zM277 403q-63 0 -107.5 -44.5t-44.5 -107.5q0 -62 44.5 -107t107.5 -45t107.5 45t44.5 107q0 63 -44.5 107.5t-107.5 44.5zM177 602q-20 0 -35 15
q-14 14 -14 35q0 19 14 35q16 14 35 14q21 0 35 -14q15 -15 15 -35q0 -22 -15 -35q-14 -15 -35 -15zM375 602q-20 0 -35 15q-14 14 -14 35q0 19 14 35q16 14 35 14q21 0 35 -14q15 -15 15 -35q0 -22 -15 -35q-14 -15 -35 -15z" />
    <glyph glyph-name="divide" unicode="&#xf7;" horiz-adv-x="145" 
d="M22 394q0 20 15 35q14 14 35 14q19 0 35 -14q14 -16 14 -35q0 -21 -14 -35q-15 -15 -35 -15q-22 0 -35 15q-15 13 -15 35zM22 97q0 20 15 35q14 14 35 14q19 0 35 -14q14 -16 14 -35q0 -21 -14 -35q-15 -15 -35 -15q-22 0 -35 15q-15 14 -15 35zM-166 242q0 21 14.5 35.5
t35.5 14.5h378q20 0 34.5 -14.5t14.5 -35.5q0 -20 -14.5 -34.5t-34.5 -14.5h-378q-21 0 -35.5 14.5t-14.5 34.5z" />
    <glyph glyph-name="ugrave" unicode="&#xf9;" horiz-adv-x="467" 
d="M387 501q20 0 34.5 -14.5t14.5 -34.5v-251v-1q-1 -83 -60 -142t-143 -59q-83 0 -142 59t-60 142v1v251q0 20 14.5 34.5t34.5 14.5q21 0 35.5 -14.5t14.5 -34.5v-250q0 -43 30 -73.5t73 -30.5t73.5 30.5t30.5 73.5v250q0 20 14.5 34.5t35.5 14.5zM307 614
q-14 -15 -34.5 -15t-35.5 15l-78 78q-14 14 -14 34.5t14 35.5q14 14 35 14t35 -14l78 -78q15 -15 15 -35.5t-15 -34.5z" />
    <glyph glyph-name="uacute" unicode="&#xfa;" horiz-adv-x="467" 
d="M387 501q20 0 34.5 -14.5t14.5 -34.5v-251v-1q-1 -83 -60 -142t-143 -59q-83 0 -142 59t-60 142v1v251q0 20 14.5 34.5t34.5 14.5q21 0 35.5 -14.5t14.5 -34.5v-250q0 -43 30 -73.5t73 -30.5t73.5 30.5t30.5 73.5v250q0 20 14.5 34.5t35.5 14.5zM160 614q-15 14 -15 34.5
t15 35.5l78 78q14 14 35 14t35 -14q14 -15 14 -35.5t-14 -34.5l-78 -78q-15 -15 -35.5 -15t-34.5 15z" />
    <glyph glyph-name="ucircumflex" unicode="&#xfb;" horiz-adv-x="467" 
d="M387 501q20 0 34.5 -14.5t14.5 -34.5v-251v-1q-1 -83 -60 -142t-143 -59q-83 0 -142 59t-60 142v1v251q0 20 14.5 34.5t34.5 14.5q21 0 35.5 -14.5t14.5 -34.5v-250q0 -43 30 -73.5t73 -30.5t73.5 30.5t30.5 73.5v250q0 20 14.5 34.5t35.5 14.5zM346 601q-14 -14 -35 -14
t-35 14l-43 43l-42 -43q-14 -14 -35 -14t-35 14q-14 15 -14 35.5t14 34.5q73 74 77 78q15 15 35 15q21 0 36 -15q4 -4 77 -78q14 -14 14 -34.5t-14 -35.5z" />
    <glyph glyph-name="udieresis" unicode="&#xfc;" horiz-adv-x="467" 
d="M387 501q20 0 34.5 -14.5t14.5 -34.5v-251v-1q-1 -83 -60 -142t-143 -59q-83 0 -142 59t-60 142v1v251q0 20 14.5 34.5t34.5 14.5q21 0 35.5 -14.5t14.5 -34.5v-250q0 -43 30 -73.5t73 -30.5t73.5 30.5t30.5 73.5v250q0 20 14.5 34.5t35.5 14.5zM134 602q-20 0 -35 15
q-14 14 -14 35q0 19 14 35q16 14 35 14q21 0 35 -14q15 -15 15 -35q0 -22 -15 -35q-13 -15 -35 -15zM332 602q-20 0 -35 15q-14 14 -14 35q0 19 14 35q16 14 35 14q21 0 35 -14q15 -15 15 -35q0 -22 -15 -35q-13 -15 -35 -15z" />
    <glyph glyph-name="yacute" unicode="&#xfd;" horiz-adv-x="455" 
d="M379 498q21 0 35.5 -14.5t14.5 -34.5v-493q0 -85 -61 -145.5t-146 -60.5q-59 0 -109 31.5t-76 84.5q-9 18 -2.5 37.5t25.5 28.5q18 9 37.5 2t27.5 -25q31 -60 97 -60q45 0 76.5 31.5t31.5 75.5v72q-47 -28 -103 -28q-83 0 -141.5 58.5t-59.5 140.5v1v249q0 20 14.5 34.5
t34.5 14.5t34.5 -14.5t14.5 -34.5v-248q0 -43 30.5 -73t72.5 -30q43 0 73 30t30 73v248q0 20 14.5 34.5t34.5 14.5zM154 614q-15 14 -15 34.5t15 35.5l78 78q14 14 35 14t35 -14q14 -15 14 -35.5t-14 -34.5l-78 -78q-15 -15 -35.5 -15t-34.5 15z" />
    <glyph glyph-name="ydieresis" unicode="&#xff;" horiz-adv-x="455" 
d="M379 498q21 0 35.5 -14.5t14.5 -34.5v-493q0 -85 -61 -145.5t-146 -60.5q-59 0 -109 31.5t-76 84.5q-9 18 -2.5 37.5t25.5 28.5q18 9 37.5 2t27.5 -25q31 -60 97 -60q45 0 76.5 31.5t31.5 75.5v72q-47 -28 -103 -28q-83 0 -141.5 58.5t-59.5 140.5v1v249q0 20 14.5 34.5
t34.5 14.5t34.5 -14.5t14.5 -34.5v-248q0 -43 30.5 -73t72.5 -30q43 0 73 30t30 73v248q0 20 14.5 34.5t34.5 14.5zM128 602q-20 0 -35 15q-14 14 -14 35q0 19 14 35q16 14 35 14q21 0 35 -14q15 -15 15 -35q0 -22 -15 -35q-14 -15 -35 -15zM326 602q-20 0 -35 15
q-14 14 -14 35q0 19 14 35q16 14 35 14q21 0 35 -14q15 -15 15 -35q0 -22 -15 -35q-13 -15 -35 -15z" />
    <glyph glyph-name="Scaron" unicode="&#x160;" horiz-adv-x="427" 
d="M213 400q83 0 141.5 -59t58.5 -141q0 -83 -58.5 -142t-141.5 -59t-141.5 59t-58.5 142q0 20 14.5 35t35.5 15t35.5 -15t14.5 -35q0 -42 29.5 -71.5t70.5 -29.5t70.5 29.5t29.5 71.5q0 41 -29.5 70.5t-70.5 29.5q-83 0 -141.5 58.5t-58.5 141.5q0 82 58.5 141t141.5 59
t141.5 -59t58.5 -141q0 -21 -14.5 -35.5t-35.5 -14.5q-20 0 -35 14.5t-15 35.5q0 41 -29.5 70.5t-70.5 29.5t-70.5 -29.5t-29.5 -70.5t29.5 -70.5t70.5 -29.5zM326 945q14 -15 14 -35.5t-14 -34.5q-73 -74 -77 -78q-15 -15 -36 -15q-20 0 -35 15q-4 4 -77 78
q-14 14 -14 34.5t14 35.5q14 14 35 14t35 -14l42 -43l43 43q14 14 35 14t35 -14z" />
    <glyph glyph-name="scaron" unicode="&#x161;" horiz-adv-x="346" 
d="M279 256q44 -44 44 -106t-44 -106.5t-106 -44.5q-51 0 -91.5 31.5t-55.5 77.5q-7 19 5.5 36.5t32.5 22.5q35 7 59 -39q10 -19 20.5 -24.5t29.5 -5.5q21 0 36 15t15 37q0 21 -15 36t-36 15q-62 0 -106 44q-44 42 -44 106q0 62 44 106t106 44q52 0 94 -31t50 -73
q4 -21 -7 -38t-31 -21t-36 6.5t-23 30.5q-10 27 -47 27q-21 0 -36 -15t-15 -36t15 -36t36 -15q62 0 106 -44zM285 745q14 -15 14 -35.5t-14 -34.5q-73 -74 -77 -78q-15 -15 -36 -15q-20 0 -35 15q-4 4 -77 78q-14 14 -14 34.5t14 35.5q14 14 35 14t35 -14l42 -43l43 43
q14 14 35 14t35 -14z" />
    <glyph glyph-name="Ydieresis" unicode="&#x178;" horiz-adv-x="499" 
d="M450 704q20 0 35 -14.5t15 -34.5v-107q0 -90 -57.5 -159.5t-144.5 -86.5v-249q0 -21 -14.5 -35.5t-34.5 -14.5q-21 0 -35.5 14.5t-14.5 35.5v249q-87 17 -144 86.5t-57 159.5v107q0 20 14.5 34.5t34.5 14.5t35 -14.5t15 -34.5v-107q0 -62 44.5 -107t107.5 -45
q62 0 107 45t45 107v107q0 20 14.5 34.5t34.5 14.5zM150 802q-20 0 -35 15q-14 14 -14 35q0 19 14 35q16 14 35 14q21 0 35 -14q15 -15 15 -35q0 -22 -15 -35q-14 -15 -35 -15zM348 802q-20 0 -35 15q-14 14 -14 35q0 19 14 35q16 14 35 14q21 0 35 -14q15 -15 15 -35
q0 -22 -15 -35q-13 -15 -35 -15z" />
    <glyph glyph-name="Zcaron" unicode="&#x17d;" horiz-adv-x="602" 
d="M523 99q20 0 34.5 -14.5t14.5 -34.5t-14.5 -35t-34.5 -15h-453q-32 0 -45 28q-14 29 5 53l394 521h-351q-20 0 -34.5 15t-14.5 35t14.5 34.5t34.5 14.5h450q33 0 45 -28q15 -28 -5 -52l-394 -522h354zM413 945q14 -15 14 -35.5t-14 -34.5q-73 -74 -77 -78
q-15 -15 -36 -15q-20 0 -35 15q-4 4 -77 78q-14 14 -14 34.5t14 35.5q14 14 35 14t35 -14l42 -43l43 43q14 14 35 14t35 -14z" />
    <glyph glyph-name="zcaron" unicode="&#x17e;" horiz-adv-x="452" 
d="M338 745q14 -15 14 -35.5t-14 -34.5q-73 -74 -77 -78q-15 -15 -36 -15q-20 0 -35 15q-4 4 -77 78q-14 14 -14 34.5t14 35.5q14 14 35 14t35 -14l42 -43l43 43q14 14 35 14t35 -14zM383 99q20 0 34.5 -14.5t14.5 -34.5t-14.5 -35t-34.5 -15h-311q-32 0 -45 28q-14 29 5 53
l250 322h-212q-20 0 -34.5 15t-14.5 35t14.5 34.5t34.5 14.5h311q33 0 45 -28q15 -28 -5 -52l-250 -323h212z" />
    <glyph glyph-name="circumflex" unicode="&#x2c6;" horiz-adv-x="260" 
d="M240 601q-14 -14 -35 -14t-35 14l-43 43l-42 -43q-14 -14 -35 -14t-35 14q-14 15 -14 35.5t14 34.5q73 74 77 78q15 15 35 15q21 0 36 -15q4 -4 77 -78q14 -14 14 -34.5t-14 -35.5z" />
    <glyph glyph-name="caron" unicode="&#x2c7;" horiz-adv-x="255" 
d="M240 745q14 -15 14 -35.5t-14 -34.5q-73 -74 -77 -78q-15 -15 -36 -15q-20 0 -35 15q-4 4 -77 78q-14 14 -14 34.5t14 35.5q14 14 35 14t35 -14l42 -43l43 43q14 14 35 14t35 -14z" />
    <glyph glyph-name="tilde" unicode="&#x2dc;" horiz-adv-x="324" 
d="M310 688q14 -16 14 -34q0 -20 -14.5 -34.5t-34.5 -14.5q-14 0 -26 7q-6 4 -8 6l-3 3q0 1 -1 1q-8 8 -11 12q-11 11 -15 11t-14 -11q-40 -43 -87 -43q-46 0 -86 43l-5 5l-2 2q-13 15 -13 33q0 20 14.5 34.5t34.5 14.5t34 -14q1 0 1 -1l8 -8q11 -11 14 -11q4 0 15 11
q40 43 86 43q47 0 87 -43z" />
    <glyph glyph-name="endash" unicode="&#x2013;" horiz-adv-x="655" 
d="M34 242q0 21 14.5 35.5t35.5 14.5h487q20 0 34.5 -14.5t14.5 -35.5q0 -20 -14.5 -34.5t-34.5 -14.5h-487q-21 0 -35.5 14.5t-14.5 34.5z" />
    <glyph glyph-name="emdash" unicode="&#x2014;" horiz-adv-x="673" 
d="M33 242q0 21 14.5 35.5t35.5 14.5h500q20 0 34.5 -14.5t14.5 -35.5q0 -20 -14.5 -34.5t-34.5 -14.5h-500q-21 0 -35.5 14.5t-14.5 34.5z" />
    <glyph glyph-name="quoteleft" unicode="&#x2018;" horiz-adv-x="129" 
d="M64 495q-20 0 -32.5 14.5t-12.5 35.5v110q0 21 13 35.5t32 14.5q21 -1 33.5 -15.5t12.5 -35.5v-110q0 -21 -12.5 -35t-33.5 -14z" />
    <glyph glyph-name="quoteright" unicode="&#x2019;" horiz-adv-x="126" 
d="M62 495q-20 0 -32.5 14.5t-12.5 35.5v110q0 21 13 35.5t32 14.5q21 -1 33.5 -15.5t12.5 -35.5v-110q0 -21 -12.5 -35t-33.5 -14z" />
    <glyph glyph-name="quotesinglbase" unicode="&#x201a;" horiz-adv-x="128" 
d="M62 -101q-20 0 -32.5 14.5t-12.5 35.5v110q0 21 13 35.5t32 14.5q21 -1 33.5 -15.5t12.5 -35.5v-110q0 -21 -12.5 -35t-33.5 -14z" />
    <glyph glyph-name="quotedblleft" unicode="&#x201c;" horiz-adv-x="290" 
d="M63 495q-20 0 -32.5 14.5t-12.5 35.5v110q0 21 13 35.5t32 14.5q21 -1 33.5 -15.5t12.5 -35.5v-110q0 -21 -12.5 -35t-33.5 -14zM218 495q-20 0 -32.5 14.5t-12.5 35.5v110q0 21 13 35.5t32 14.5q21 -1 33.5 -15.5t12.5 -35.5v-110q0 -21 -12.5 -35t-33.5 -14z" />
    <glyph glyph-name="quotedblright" unicode="&#x201d;" horiz-adv-x="296" 
d="M72 495q-20 0 -32.5 14.5t-12.5 35.5v110q0 21 13 35.5t32 14.5q21 -1 33.5 -15.5t12.5 -35.5v-110q0 -21 -12.5 -35t-33.5 -14zM227 495q-20 0 -32.5 14.5t-12.5 35.5v110q0 21 13 35.5t32 14.5q21 -1 33.5 -15.5t12.5 -35.5v-110q0 -21 -12.5 -35t-33.5 -14z" />
    <glyph glyph-name="quotedblbase" unicode="&#x201e;" horiz-adv-x="286" 
d="M63 -100q-20 0 -32.5 14.5t-12.5 35.5v110q0 21 13 35.5t32 14.5q21 -1 33.5 -15.5t12.5 -35.5v-110q0 -21 -12.5 -35t-33.5 -14zM218 -100q-20 0 -32.5 14.5t-12.5 35.5v110q0 21 13 35.5t32 14.5q21 -1 33.5 -15.5t12.5 -35.5v-110q0 -21 -12.5 -35t-33.5 -14z" />
    <glyph glyph-name="bullet" unicode="&#x2022;" horiz-adv-x="165" 
d="M83 196q-20 0 -35 15q-14 14 -14 35q0 19 14 35q16 14 35 14q21 0 35 -14q15 -15 15 -35q0 -22 -15 -35q-14 -15 -35 -15z" />
    <glyph glyph-name="ellipsis" unicode="&#x2026;" horiz-adv-x="542" 
d="M73 2q-20 0 -35 15q-14 14 -14 35q0 19 14 35q16 14 35 14q21 0 35 -14q15 -15 15 -35q0 -22 -15 -35q-14 -15 -35 -15zM271 2q-20 0 -35 15q-14 14 -14 35q0 19 14 35q16 14 35 14q21 0 35 -14q15 -15 15 -35q0 -22 -15 -35q-14 -15 -35 -15zM467 2q-20 0 -35 15
q-14 14 -14 35q0 19 14 35q16 14 35 14q21 0 35 -14q15 -15 15 -35q0 -22 -15 -35q-14 -15 -35 -15z" />
    <glyph glyph-name="Euro" unicode="&#x20ac;" horiz-adv-x="480" 
d="M416 100q20 0 35 -14.5t15 -35.5q0 -20 -15 -34.5t-35 -14.5h-99q-83 0 -142 59t-60 142v24h-49q-21 0 -35.5 14.5t-14.5 34.5q0 21 14.5 35.5t35.5 14.5h49v56h-49q-21 0 -35.5 14.5t-14.5 34.5q0 21 14.5 35.5t35.5 14.5h49v15v1q1 83 60 142t142 59h99q20 0 35 -14.5
t15 -34.5q0 -21 -15 -35.5t-35 -14.5h-99q-43 0 -73.5 -30.5t-30.5 -73.5v-14h203q20 0 34.5 -14.5t14.5 -35.5q0 -20 -14.5 -34.5t-34.5 -14.5h-203v-56h203q20 0 34.5 -14.5t14.5 -35.5q0 -20 -14.5 -34.5t-34.5 -14.5h-203v-23q0 -43 30.5 -73t73.5 -30h99z" />
    <glyph glyph-name="minus" unicode="&#x2212;" horiz-adv-x="543" 
d="M33 242q0 21 14.5 35.5t35.5 14.5h378q20 0 34.5 -14.5t14.5 -35.5q0 -20 -14.5 -34.5t-34.5 -14.5h-378q-21 0 -35.5 14.5t-14.5 34.5z" />
    <glyph glyph-name="fi" unicode="&#xfb01;" horiz-adv-x="410" 
d="M394 453v-403q0 -20 -14.5 -34.5t-35.5 -14.5q-20 0 -34.5 14.5t-14.5 34.5v354h-80v-354q0 -20 -14.5 -34.5t-35.5 -14.5q-20 0 -34.5 14.5t-14.5 34.5v354h-55q-20 0 -34.5 14.5t-14.5 34.5q0 21 14.5 35.5t34.5 14.5h55v53v4v3q-2 106 73 182q39 39 94 59
q19 7 37.5 -2t25.5 -28t-2 -37.5t-28 -25.5q-33 -12 -57 -36q-46 -46 -44 -110v-5v-4v-53h129v0q21 0 35.5 -14.5t14.5 -35.5z" />
    <glyph glyph-name="fl" unicode="&#xfb02;" horiz-adv-x="458" 
d="M382 748q20 -2 33 -16t13 -34v-651q0 -20 -14.5 -34.5t-34.5 -14.5q-21 0 -35.5 14.5t-14.5 34.5v604q-32 -13 -54 -35q-44 -44 -44 -116h30q21 0 35.5 -14.5t14.5 -35.5q0 -20 -14.5 -34.5t-35.5 -14.5h-30v-352q0 -20 -14.5 -34.5t-35.5 -14.5q-20 0 -34.5 14.5
t-14.5 34.5v352h-55q-20 0 -34.5 14.5t-14.5 34.5q0 21 14.5 35.5t34.5 14.5h55q0 110 73 186q37 37 84 55q24 9 93 7z" />
    <glyph glyph-name="percent" horiz-adv-x="1043" 
d="M432 497v-1v-1q-1 -83 -60.5 -142t-142.5 -59t-142.5 59t-60.5 142v1v1q1 83 60.5 142t142.5 59t142.5 -59t60.5 -142zM229 393q43 0 73 30t31 73q-1 43 -31 73t-73 30t-73 -30t-31 -73q1 -43 31 -73t73 -30zM1014 202v-1v-1q-1 -83 -60.5 -142t-142.5 -59t-142.5 59
t-60.5 142v1v1q1 83 60.5 142t142.5 59t142.5 -59t60.5 -142zM811 98q43 0 73 30t31 73q-1 43 -31 73t-73 30t-73 -30t-31 -73q1 -43 31 -73t73 -30zM317 5q-18 10 -23 30.5t6 37.5l365 600q10 18 30.5 23t37.5 -6q18 -11 23 -31t-6 -38l-365 -600q-31 -39 -68 -16z" />
    </font>
</defs>
</svg>
