<?xml version="1.0" standalone="no"?>
<!DOCTYPE svg PUBLIC "-//W3C//DTD SVG 1.1//EN" "http://www.w3.org/Graphics/SVG/1.1/DTD/svg11.dtd" >
<svg xmlns="http://www.w3.org/2000/svg" xmlns:xlink="http://www.w3.org/1999/xlink" version="1.1">
<metadata>
Created by FontForge 20200314 at Fri Nov  6 03:55:40 2015
 By www-data
Copyright (c) 2015 by Aleksei Kalinin &#38; Jovanny Lemonad. All rights reserved.
</metadata>
<defs>
<font id="Lumberjack" horiz-adv-x="589" >
  <font-face 
    font-family="Lumberjack"
    font-weight="400"
    font-stretch="normal"
    units-per-em="1000"
    panose-1="2 0 5 3 5 0 0 2 0 4"
    ascent="800"
    descent="-200"
    x-height="547"
    cap-height="700"
    bbox="-60.3333 -314.522 861 962.417"
    underline-thickness="50"
    underline-position="-100"
    unicode-range="U+000D-2212"
  />
<missing-glyph horiz-adv-x="0" 
 />
    <glyph glyph-name=".notdef" horiz-adv-x="0" 
 />
    <glyph glyph-name=".null" horiz-adv-x="0" 
 />
    <glyph glyph-name="nonmarkingreturn" horiz-adv-x="333" 
 />
    <glyph glyph-name="NULL" horiz-adv-x="0" 
 />
    <glyph glyph-name="NULL" horiz-adv-x="0" 
 />
    <glyph glyph-name="CR" unicode="&#xd;" horiz-adv-x="200" 
 />
    <glyph glyph-name="space" unicode=" " horiz-adv-x="200" 
 />
    <glyph glyph-name="exclam" unicode="!" horiz-adv-x="246" 
d="M177 233q0 -28 -13.5 -38.5t-44.5 -10.5t-42.5 9t-12.5 42q0 13 0.5 165.5t-0.5 220.5q0 66 47 66h11.5h14h11.5q29 -2 31 -59q1 -59 0.5 -129.5t-1.5 -162t-1 -103.5zM173 109q8 -7 11 -33t0 -41q-1 -13 -7 -21t-15.5 -10.5t-22 -3.5t-26.5 0q-53 0 -53 59q0 22 1.5 33
t11 22t28.5 12q52 4 72 -17z" />
    <glyph glyph-name="quotedbl" unicode="&#x22;" horiz-adv-x="293" 
d="M253 641q0 -34 -9 -52q-2 -3 -15 -30t-25 -49.5t-17 -28.5q-12 -15 -24 -5q-6 4 -6 21q-1 16 0 83.5t2 78.5q5 41 55 41q22 0 30.5 -12.5t8.5 -46.5zM134 641q0 -35 -10 -52q-47 -101 -53 -108q-13 -14 -24 -5q-5 3 -7 21q0 146 2 162q6 41 54 41q21 0 29.5 -12.5
t8.5 -46.5z" />
    <glyph glyph-name="numbersign" unicode="#" horiz-adv-x="553" 
d="M498 545q29 0 37 -4.5t7 -19.5q-5 -34 -9 -41q-2 -3 -5.5 -5.5t-9 -3.5t-10 -1t-11.5 -0.5t-10 -0.5h-43q-6 0 -7 -6q-1 -8 -13 -83t-19 -113q-2 -9 7 -9q27 0 39 -1q26 -1 34 -6.5t6 -20.5q-1 -7 -3 -17t-2 -14q-1 -7 -4 -12t-9 -7t-10 -2.5t-12 -0.5h-10h-45
q-6 0 -7 -6l-21 -121q-4 -19 -5.5 -26t-6.5 -15t-13 -10t-21 -1q-5 0 -13 0.5t-12 1t-8.5 2.5t-7.5 5q-10 12 -1 54q8 42 18 109q2 9 -6 9q-17 0 -50 0.5t-49 0.5q-7 0 -7 -6q-15 -91 -22 -124q-1 -6 -3 -17.5t-3 -14.5t-3.5 -9.5t-6 -7.5t-9.5 -2.5t-15 -0.5q-37 4 -47 15
q-9 10 -1 48l19 113q2 8 -6 8h-16t-12.5 0.5t-5.5 0.5q-27 1 -30 3q-20 13 -13 36q0 2 1.5 12t3.5 14q10 15 31 14q31 0 56 -1q7 0 7 6q13 76 32 194q2 9 -7 9q-36 0 -39 -1q-23 -2 -32 2t-10 20q-2 21 3 35q3 14 10 16q5 2 17 2h66q5 0 7 6l14 89q6 45 37 45h14h10.5h8h8.5
q21 -1 12 -50l-14 -82q-2 -8 7 -8h99q5 0 7 6l15 89q8 45 37 45h14h10.5h8h8.5q21 -1 12 -50l-14 -81q-2 -9 7 -9q28 0 39 1zM201 269q0 -8 7 -8q16 0 49 -0.5t50 -0.5q7 0 7 6q12 66 32 195q2 8 -7 8h-98q-7 2 -7 -5q-6 -35 -17.5 -103t-15.5 -92z" />
    <glyph glyph-name="dollar" unicode="$" horiz-adv-x="483" 
d="M451 207q7 -90 -19 -132.5t-96 -72.5q-28 -6 -67 -9l-5 -36v-10.5t-1 -13t-3 -10.5t-6.5 -9t-11.5 -3q-47 0 -57 2l-6 1.5t-4.5 1.5t-3.5 2.5t-2 2.5t-2 4.5t-1.5 5.5t-0.5 7v8.5t-0.5 10.5t-0.5 13q-1 12 -4 29q-66 12 -110 52q-17 15 -19 40q0 30 1 44q0 15 10.5 25.5
t25.5 11.5h26q15 1 26 -9.5t12 -25.5v-11q2 -18 15 -27q36 -28 94 -28q44 -1 75 26t29 87q-1 20 -9 35t-29 28.5t-34.5 20t-47.5 20.5q-71 31 -126 81.5t-64 113.5q-12 89 11.5 139.5t88.5 75.5q8 3 22 6q13 2 13 15v14t0.5 14t0.5 11.5t1 10.5t3 8t4.5 6t6.5 3q16 3 62 -1
q8 0 11.5 -6.5t4 -12.5t0.5 -19v-6q0 -6 2 -26q0 -9 9 -11q71 -14 129 -64q19 -15 21 -42q1 -14 1 -44q1 -16 -10.5 -27t-27.5 -11l-35 1q-27 0 -29 35v14q-2 16 -12 26q-33 34 -98 34q-44 0 -72 -39t-1 -94q19 -41 65 -69.5t72 -34.5q31 -12 46.5 -19t42.5 -23t41.5 -33
t27 -45t15.5 -62z" />
    <glyph glyph-name="percent" unicode="%" horiz-adv-x="584" 
d="M251 483q-5 -48 -40 -88q-41 -45 -111 -30q-16 4 -34 21.5t-29 38.5q-16 31 -17 97t11 92q17 40 42 56.5t63 17.5q81 3 104 -79q17 -62 11 -126zM131 422q23 -1 35 12.5t13 31.5q7 71 5 106q-3 44 -25 59q-13 9 -32 5t-28 -22q-14 -25 -15 -53q0 -78 3 -93q11 -45 44 -46
zM562 114q-6 -55 -40 -94q-22 -25 -60 -31t-51 1q-16 4 -34.5 21.5t-29.5 38.5q-15 31 -16 97.5t10 91.5q30 72 106 75q80 3 104 -80q17 -59 11 -120zM442 47q23 -1 35 13t13 32q9 79 5 105q-9 49 -25 59q-14 10 -32.5 6t-27.5 -23q-2 -3 -9 -28q-5 -23 -5 -42l2 -69
q0 -7 3 -13q17 -39 41 -40zM447 614q-5 -18 -128.5 -288.5t-124.5 -273.5q-22 -56 -55 -45q-39 12 -11 80q3 8 114 245t134 301q18 50 59 38q29 -7 12 -57z" />
    <glyph glyph-name="ampersand" unicode="&#x26;" horiz-adv-x="525" 
d="M508 35q10 -11 5.5 -24t-19.5 -12q-11 1 -30.5 0t-22.5 -1q-20 0 -32 17l-9 13q-8 12 -15 22q-6 10 -14 2q-54 -50 -111 -56q-53 -6 -111 6q-27 6 -56.5 26.5t-48.5 49.5q-11 16 -19 36.5t-13.5 52.5t4.5 73t37 83q25 40 80 79q14 9 5 24q-23 36 -24 39q-37 85 -8 149
q35 77 129 79q106 4 141 -99q7 -15 4 -49t-20 -62q-15 -24 -89 -78q-13 -10 -5 -25q92 -135 112 -164q1 -2 5 -2t5 3l24 52q10 20 30 20l44 -2q9 0 14 -9t0 -21l-12 -33q-17 -41 -45 -85q-6 -7 0 -15q36 -52 65 -89zM210 74q66 -4 113 47q9 9 2 19q-46 69 -129 195
q-2 5 -7.5 6t-9.5 -3q-33 -24 -47 -41q-24 -26 -30 -59t-0.5 -53.5t13.5 -37.5q12 -25 39.5 -48.5t55.5 -24.5zM188 505q2 -3 5.5 -9t9 -15.5t9.5 -16.5q6 -9 17 -4q56 35 59 66q5 37 -9 56t-35 24q-34 9 -56.5 -17.5t0.5 -83.5z" />
    <glyph glyph-name="quotesingle" unicode="'" horiz-adv-x="184" 
d="M144 623q0 -35 -10 -52q-6 -13 -30.5 -56t-32.5 -52q-12 -14 -25 -5q-6 5 -6 21q0 146 2 162q6 41 55 41q23 0 35 -13t12 -46z" />
    <glyph glyph-name="parenleft" unicode="(" horiz-adv-x="271" 
d="M220 768q9 -2 13 -10.5t1 -16.5l-18 -54q-14 -51 -23 -88q-26 -123 -34 -214q-4 -41 3 -184q7 -91 21 -160q7 -44 16 -76q5 -21 19.5 -59t19.5 -56q4 -14 -6 -24q-17 -15 -29 -7q-5 3 -28 36q-18 27 -33 57q-12 23 -43 118q-25 78 -31 128q-11 76 -6 168q4 97 37 205
q2 6 9 29.5t10 32.5t10 29.5t12 32t12 28t14.5 30t16.5 26.5l15 21q8 11 22 8z" />
    <glyph glyph-name="parenright" unicode=")" horiz-adv-x="270" 
d="M49 768h1q14 4 21 -10q64 -115 87 -188q39 -117 46 -187q9 -87 3 -175q-6 -101 -57 -249q-18 -48 -57 -107q-1 -2 -5 -7.5t-5.5 -7.5t-5.5 -6.5t-6 -6t-5.5 -4t-6.5 -2.5t-7 0.5t-8 3t-8 6.5q-8 4 -6 17t5 21.5t10 22.5t9 19q17 51 25 92q27 129 32 315q2 78 -21 217
q-17 105 -44 183q-2 6 -11 27q-3 8 1.5 16t12.5 10z" />
    <glyph glyph-name="asterisk" unicode="*" horiz-adv-x="323" 
d="M300 594q5 -15 -2 -29t-23 -18l-47 -12q-6 -2 -8 -8.5t2 -11.5l36 -43q8 -11 6.5 -25t-12.5 -22l-6 -4q-11 -8 -25.5 -5.5t-21.5 15.5l-27 45q-4 6 -10.5 6t-10.5 -6l-26 -42q-7 -12 -21.5 -14.5t-25.5 5.5l-5 4q-11 8 -12.5 22.5t7.5 24.5l33 39q4 5 2 11.5t-8 8.5
l-47 12q-16 4 -23 18t-2 29q6 14 20 20t28 -1l42 -19q6 -2 11.5 1.5t4.5 10.5l-4 45q-1 14 8 24.5t23 11.5h7q14 1 24.5 -10t8.5 -25l-4 -46q0 -7 5.5 -11t11.5 -1l43 19q14 7 28 1t20 -20z" />
    <glyph glyph-name="plus" unicode="+" horiz-adv-x="464" 
d="M443 341q1 -12 -1 -36q0 -9 -7.5 -16.5t-16.5 -7.5q-20 -1 -126 -1q-8 0 -8 -9q0 -133 -1 -143q-2 -21 -35 -25h-11h-16.5h-12.5q-10 1 -18 9t-8 17q0 10 -0.5 30.5t-1 54t-0.5 57.5q0 8 -8 8q-27 0 -55 0.5t-46 0.5h-21q-11 1 -16.5 2.5t-8.5 5.5t-3 10t-0.5 16t-0.5 24
q-1 12 0 18.5t8.5 11.5t22.5 5h120q8 0 8 8v61.5t0.5 52.5t0.5 24q1 10 2 15.5t4 9t7.5 4.5t11 1.5t16.5 0t23 0.5q14 1 20.5 -0.5t12 -9t5.5 -23.5v-136q0 -8 8 -8h46h39h28.5h14.5q20 -2 24 -32z" />
    <glyph glyph-name="comma" unicode="," horiz-adv-x="202" 
d="M162 63q0 -34 -9 -53q-14 -27 -43 -69q-19 -30 -27 -39q-11 -13 -24 -4q-11 9 -6 21q1 2 4.5 11.5l7 19t6.5 21t3 17t-3 8.5q-15 3 -22 14q-14 17 -7 74q3 25 19 31.5t49 5.5q52 0 52 -58z" />
    <glyph glyph-name="hyphen" unicode="-" horiz-adv-x="373" 
d="M352 296q1 -34 -31 -35q-20 -1 -130.5 -1t-132.5 1q-23 0 -29.5 8t-7.5 30q-1 15 0.5 23t9.5 14.5t24 6.5q11 0 134.5 -0.5t137.5 -0.5q23 0 25 -46z" />
    <glyph glyph-name="period" unicode="." horiz-adv-x="200" 
d="M48 20q-6 9 -7.5 29.5t1.5 32.5q8 41 66 39q22 0 37 -14.5t15 -43.5t-8.5 -45.5t-35.5 -19.5q-50 -5 -68 22z" />
    <glyph glyph-name="slash" unicode="/" horiz-adv-x="395" 
d="M361 540q-8 -12 -125 -213t-120 -206t-10 -14.5t-10 -14t-9 -11.5t-10 -9t-10 -4t-12.5 -0.5t-14.5 6.5q-16 10 -18 24.5t3.5 28.5t20.5 39q1 2 56.5 95.5t108.5 181t81 129.5q23 34 31 37q6 2 14 -2q18 -8 31 -18q16 -11 -7 -49z" />
    <glyph glyph-name="zero" unicode="0" horiz-adv-x="481" 
d="M416 181q-9 -89 -56 -141q-59 -67 -173 -42q-26 6 -55 31.5t-45 57.5q-24 48 -26 254.5t16 246.5q26 62 65.5 88.5t99.5 28.5q126 3 163 -125q14 -49 15.5 -208.5t-4.5 -190.5zM235 70q36 -2 58 20t24 50q1 19 2 169.5t-1 216.5q-5 71 -40 93q-20 15 -49.5 8.5
t-44.5 -35.5q-21 -39 -23 -83q-6 -256 5 -367q2 -26 21.5 -48t47.5 -24z" />
    <glyph glyph-name="one" unicode="1" horiz-adv-x="276" 
d="M187 679v-590q0 -17 13 -18q8 0 17 -1q7 0 12.5 -5t5.5 -13q0 -4 0.5 -13.5t0.5 -15.5q-1 -10 -8.5 -17t-17.5 -7q-47 1 -148 1q-9 0 -15 6t-6 15l-1 32q0 17 16 19h17q13 0 13 16q0 17 -0.5 197.5t-0.5 255.5q0 8 -8 8h-18q-11 1 -15.5 9.5t0.5 17.5q32 51 62 109
q8 15 27 15q4 0 15.5 -0.5t17.5 -0.5q21 0 21 -20z" />
    <glyph glyph-name="two" unicode="2" horiz-adv-x="445" 
d="M140 510q0 -8 -1 -11q0 -13 -9 -21t-21 -6l-43 5q-11 1 -18.5 10.5t-6.5 20.5q4 57 15 85q26 62 65.5 88.5t99.5 28.5q126 3 163 -125q9 -31 11 -77.5t-10 -100.5q-20 -67 -64 -119q-36 -43 -88.5 -109.5t-67.5 -83.5q-3 -4 -1 -8.5t7 -4.5h142q13 0 13 14v6l1 10
q0 20 20 20l38 -1q8 0 14 -6t6 -14v-42l-1 -44q0 -24 -21 -24h-334q-9 0 -9 9v42q0 31 18 52q145 175 216 281q26 40 22 142q-5 71 -39 92q-21 15 -50.5 9t-44.5 -35q-21 -48 -22 -83z" />
    <glyph glyph-name="three" unicode="3" horiz-adv-x="432" 
d="M375 316q24 -54 13 -140q-8 -78 -61 -136q-24 -28 -60.5 -41t-64 -11t-49.5 5q-28 6 -57 29t-45 54t-21 107q0 12 8.5 21t21.5 8q26 -2 38 -2q9 0 15.5 -6t7.5 -14q5 -41 6 -45q8 -26 27.5 -43.5t47.5 -19.5q36 -2 58 20t24 50q0 1 1.5 15t3 31t1 44.5t-4.5 53.5
q-3 16 -12.5 27.5t-29 17.5t-27.5 7.5t-30 4.5q-4 1 -6 1q-13 2 -13 26v22q0 19 23 19q19 0 43.5 9.5t33.5 21.5q23 27 23 79q0 38 -26.5 65.5t-59 27.5t-59.5 -30q-19 -28 -22 -49q-1 -10 -8 -16t-17 -5q-11 1 -32 1q-13 0 -21.5 9.5t-6.5 21.5q3 22 7 29q26 62 65.5 88.5
t99.5 28.5q126 3 163 -125q13 -44 -4 -115q-5 -20 -18.5 -39t-23.5 -25q-7 -7 -2 -14q2 -3 12.5 -13.5t20.5 -24.5t17 -30z" />
    <glyph glyph-name="four" unicode="4" horiz-adv-x="437" 
d="M387 54v-36q-1 -19 -19 -19q-22 1 -84 1h-74q-16 1 -18 19v39q0 18 19 18l16 1q10 0 10 10q0 7 -1 90q0 9 -9 9q-12 0 -72.5 0.5t-94.5 0.5q-21 0 -31 8.5t-8.5 19t4.5 19.5q7 14 110 225.5t110 222.5q14 20 29 21h41q23 -2 23 -25q3 -56 3 -413q0 -13 12 -13h25
q9 0 9 -13v-39q0 -13 -9 -13l-24 -1q-8 1 -11.5 -3.5t-3.5 -11.5v-81q0 -14 13 -14q11 0 21 -1q14 0 14 -21zM132 271q-2 -3 -4 -8q-4 -8 0 -9q2 -1 9 -1h2q44 -1 88 -1q9 0 9 10v227q0 18 -13 -10q-3 -6 -13.5 -30.5t-33 -76t-44.5 -101.5z" />
    <glyph glyph-name="five" unicode="5" horiz-adv-x="469" 
d="M152 190v-2q1 -40 20 -78q14 -29 42 -36.5t49 7.5q17 10 33.5 35.5t18.5 56.5q0 4 2 27t3 40.5t-1.5 38t-8.5 29.5q-12 17 -19.5 25t-27 14.5t-49.5 4.5q-19 -1 -38 -18q-16 -14 -38 -6l-65 29q-14 6 -14 22l6 295q2 23 23 26h285q11 0 18.5 -7t6.5 -18l1 -44
q0 -19 1 -34q0 -10 -6.5 -17t-16.5 -7h-29q-25 2 -25 21v9q0 5 -5 10t-13 5l-117 1q-29 0 -30 -25q-2 -65 -2 -185q0 -5 5 -3q39 22 74.5 27.5t61.5 -3.5t39 -17t23 -17q15 -13 24.5 -26t15 -28t7.5 -22.5t4.5 -25.5t3.5 -23q12 -71 -11 -156q-12 -40 -34.5 -67t-50.5 -37.5
t-49.5 -14t-43.5 -2.5q-60 2 -98.5 26.5t-64.5 86.5q-6 15 -11 78q-1 11 6 19t18 10q12 2 46 4q13 1 22 -7.5t9 -20.5z" />
    <glyph glyph-name="six" unicode="6" horiz-adv-x="448" 
d="M414 271q12 -69 -12 -156q-12 -40 -34.5 -67t-50 -37.5t-49 -14t-43.5 -2.5q-60 2 -98.5 26.5t-64.5 86.5q-7 16 -12 89v183l6 149q10 81 56.5 124.5t94.5 50.5q101 13 164 -34q18 -12 7 -32l-19 -31q-9 -16 -26 -8q-46 20 -63 21q-65 6 -92.5 -28.5t-28.5 -88.5v-95
q0 -4 3 -5.5t6 0.5q35 26 71 33t63 -3t42 -18.5t25 -17.5q14 -13 24 -26t15.5 -28t7.5 -22t4.5 -26.5t3.5 -22.5zM314 173q9 110 -8 134q-13 19 -18.5 26t-24.5 14t-49 5q-4 0 -7 -1q-25 -5 -41 -26t-16 -48q1 -30 1 -67q1 -11 1 -22q1 -42 19 -78q15 -29 43 -36.5t48 7.5
q17 10 33.5 35.5t18.5 56.5z" />
    <glyph glyph-name="seven" unicode="7" horiz-adv-x="396" 
d="M86 571l-34 1q-9 0 -15.5 6.5t-5.5 15.5q0 7 0.5 16.5t0.5 15.5v7l1 43q0 9 6.5 15.5t16.5 6.5q6 1 14 1h225l38 -1q13 0 23 -10t10 -23v-53q0 -8 -4 -15q-23 -52 -61 -152.5t-52 -166.5q-11 -50 -18 -109t-9 -93l-2 -34q1 -23 -5 -32t-22 -9h-52q-11 0 -17.5 6.5
t-6.5 17.5q2 126 46 288q15 55 57 160t47 124q4 14 0.5 18.5t-15.5 4.5h-127q-15 0 -17 -16v-12q0 -9 -6.5 -15t-15.5 -6z" />
    <glyph glyph-name="eight" unicode="8" horiz-adv-x="446" 
d="M401 175q-7 -109 -73 -156t-158 -26q-83 19 -115 113t1 204q8 28 41 66q10 12 0 25q-27 29 -38 63q-8 28 -6 67t9 55q26 62 65.5 88.5t99.5 28.5q126 3 163 -125q14 -48 0 -117q-8 -42 -39 -61q-9 -6 -1 -14q29 -27 42 -70q7 -26 10 -50.5t3 -35.5t-2 -32t-2 -23z
M220 436q31 3 52 20q15 11 25 32.5t10 37.5q0 61 -44 86q-20 15 -50.5 12t-49.5 -29q-4 -6 -7.5 -11t-5.5 -12l-3 -10.5t-1.5 -12.5t-0.5 -12v-15v-16q0 -10 2.5 -17.5t5.5 -11.5t9 -10.5t8 -9.5q19 -24 50 -21zM184 341q-40 -24 -49 -86.5t9 -108.5q8 -25 28 -43.5
t48 -20.5q35 -2 56.5 20t24.5 50q0 3 2 20t3 25t2 26t0 28.5t-3 26t-6 25.5t-11 19.5t-16 15.5q-20 12 -44 13t-44 -10z" />
    <glyph glyph-name="nine" unicode="9" horiz-adv-x="453" 
d="M35 414q-19 120 36 206.5t149 82.5q60 -2 98.5 -26.5t64.5 -86.5q34 -67 9 -420q-6 -80 -55.5 -123.5t-100.5 -50.5q-96 -13 -156 32q-19 14 -7 37l20 31q9 13 22 6q18 -18 58 -22q65 -6 92.5 28.5t28.5 88.5v53q0 12 -10 18t-20 0q-44 -25 -82 -25.5t-62 16.5t-43 46
t-28 56t-14 53zM137 524q-2 -26 -1.5 -49.5t4 -51t12.5 -45.5t24 -32.5t37.5 -13t54.5 13.5q23 11 28.5 61.5t-2.5 102t-20 76.5q-15 29 -43 37t-49 -7q-16 -10 -29.5 -35t-15.5 -57z" />
    <glyph glyph-name="colon" unicode=":" horiz-adv-x="201" 
d="M152 523q14 -21 7 -62q-9 -39 -67 -39q-22 0 -36.5 14.5t-15.5 44.5q0 29 8.5 45t35.5 19q51 7 68 -22zM152 107q6 -9 8 -30t-1 -32q-9 -41 -67 -39q-22 0 -36.5 14.5t-15.5 43.5q0 29 8.5 45.5t35.5 19.5q50 7 68 -22z" />
    <glyph glyph-name="semicolon" unicode=";" horiz-adv-x="203" 
d="M152 523q14 -21 7 -62q-9 -39 -66 -39q-23 0 -37.5 14.5t-15.5 44.5q0 29 8.5 45t35.5 19q51 7 68 -22zM163 71q0 -34 -10 -53q-6 -12 -42 -69q-19 -30 -27 -39q-13 -13 -25 -4q-11 9 -6 21q0 1 4.5 12t7.5 18.5t6.5 20.5t3 17.5t-3.5 8.5h1q-15 3 -23 14q-13 17 -6 74
q3 25 18.5 31.5t48.5 5.5q53 0 53 -58z" />
    <glyph glyph-name="less" unicode="&#x3c;" horiz-adv-x="450" 
d="M380 224q40 -14 25 -54q-11 -33 -52 -17q-57 22 -170.5 60t-117.5 40q-24 10 -25 31q0 21 1 38q2 21 10 27q7 6 20 12q6 3 71.5 35t129 63.5t74.5 35.5q37 16 48 -9q5 -8 9 -19q11 -23 -22 -39q-25 -12 -123 -54.5t-132 -58.5q-4 -1 -4 -5t4 -6q35 -11 95 -30t105.5 -33
t53.5 -17z" />
    <glyph glyph-name="equal" unicode="=" horiz-adv-x="442" 
d="M401 417v-37q0 -17 -27 -19h-69.5h-96.5h-92.5h-50.5q-14 0 -19 5t-4 17q1 7 -1 34q0 12 1 17.5t8.5 9.5t22.5 4q4 0 53 0.5t99 0.5h97t55 -1q13 -2 18.5 -8t5.5 -23zM41 189q-1 5 0 23t1 20q2 20 23 20q46 1 165 1t142 -1q22 0 26 -8.5t3 -44.5q0 -13 -1 -18.5t-8 -10.5
t-22 -5h-304q-22 1 -25 24z" />
    <glyph glyph-name="greater" unicode="&#x3e;" horiz-adv-x="451" 
d="M66 223q8 3 54.5 17.5t108 33t96.5 30.5q3 2 3.5 5.5t-3.5 5.5q-30 14 -130 57.5t-128 57.5q-11 6 -18 16t-2 21l9 19q13 24 45 10q57 -30 279 -135q9 -4 13.5 -6.5t7.5 -6.5t4 -5t2 -7.5t2 -9.5q3 -11 0 -47q-1 -11 -5.5 -15.5t-17.5 -10.5q-4 -2 -119.5 -41t-172.5 -61
q-37 -14 -49 24q-13 35 21 48z" />
    <glyph glyph-name="question" unicode="?" horiz-adv-x="444" 
d="M108 472h-32q-35 0 -35 37q-1 34 11 71q33 114 165 117q21 1 42.5 -2.5t48 -14.5t49 -36.5t36.5 -63.5q29 -73 -18 -160q-19 -34 -33 -51t-67 -73q-23 -23 -21 -84q1 -16 -8 -24t-25 -8h-34q-34 0 -34 36q0 45 6 75q3 13 31 49.5t40 45.5q69 50 62 129q-5 70 -39 92
q-21 15 -50.5 8.5t-43.5 -35.5q-4 -8 -8 -23t-6 -27l-2 -11q0 -47 -35 -47zM154 15q-7 7 -8.5 36t0.5 40q2 18 13 26t23 9.5t36 0.5q52 0 52 -59q0 -31 -10 -49t-38 -20q-50 -2 -68 16z" />
    <glyph glyph-name="at" unicode="@" horiz-adv-x="866" 
d="M822 285q14 -127 -28.5 -210t-125.5 -87q-62 -3 -95 16t-44 42q-1 3 -5 3t-6 -2q-11 -14 -27.5 -26.5t-52 -23t-76.5 -4.5q-55 9 -92 84q-25 48 -26.5 112.5t16.5 104.5q50 120 165 117q37 -1 80 -44q2 -2 5.5 -1t3.5 5v16q-2 27 38 30q22 1 32.5 -10.5t10.5 -30.5
q0 -26 0.5 -87t0.5 -100q-3 -50 21 -99q8 -14 24 -23t31 -8q46 5 49 78q6 81 0 140q-27 263 -271 263q-124 0 -199 -78q-105 -109 -105 -298q0 -174 111 -262q43 -34 78 -50.5t89.5 -15t114.5 34.5q38 22 57 -9q18 -32 -27 -57q-75 -42 -167.5 -41t-171.5 49
q-181 110 -189 344q-2 69 10.5 126.5t38 100.5t50 71t57.5 56q100 84 251 84t254 -80.5t120 -229.5zM497 143q0 2 2 16.5t1.5 38t-5.5 57.5q-6 49 -34 66q-20 15 -51 9t-43 -36q-29 -72 -12 -143q18 -81 64 -84q35 -2 55.5 22.5t22.5 53.5z" />
    <glyph glyph-name="A" unicode="A" 
d="M560 77q8 0 13.5 -6t5.5 -14v-39q0 -8 -6 -13.5t-14 -5.5l-162 1q-8 0 -13.5 5.5t-5.5 13.5v39q0 8 5.5 13.5t13.5 5.5h14q11 2 8 12q-5 13 -17.5 62.5t-19.5 70.5q-3 13 -22 11q-22 -1 -69 0t-57 1q-15 0 -18 -13q-13 -39 -27 -92q-2 -6 -7.5 -20.5t-6.5 -18.5t3.5 -8.5
t9.5 -4.5l17 -1q10 0 16.5 -7t6.5 -17l-1 -28q0 -10 -7 -17t-17 -7h-164q-12 0 -20.5 8.5t-8.5 20.5l1 22q2 25 27 27h7q14 0 19 14q27 67 196 590q5 13 16 21t24 7h14q31 -2 39 -30q148 -496 182 -589q5 -12 19 -14h6zM347 311q7 0 11 5t2 11q-7 33 -27 109.5t-21 79.5
q0 3 -4 3h-7q-4 0 -4 -4q-35 -118 -52 -187q-2 -6 2 -11t10 -5q12 0 45 -0.5t45 -0.5z" />
    <glyph glyph-name="B" unicode="B" horiz-adv-x="547" 
d="M72 80l18 1q9 1 15.5 7.5t6.5 15.5q4 192 4 219q0 28 2 146t-1 133q0 7 -5 12t-12 5q-3 0 -8 0.5t-7 0.5q-18 0 -18 17l-2 45q0 8 5.5 13t12.5 5q146 3 230 2q58 -1 98 -23.5t56 -54.5t21 -69.5t-1 -69t-17 -52.5q-11 -19 -29 -30q-6 -4 -6 -11t5 -11q38 -27 51.5 -64.5
t14.5 -108.5q1 -89 -41 -147.5t-133 -60.5q-88 -2 -258 1q-10 0 -16.5 7t-7.5 17v31q0 10 6.5 16.5t15.5 7.5zM219 331v-234q0 -16 18 -18q34 -1 60.5 -1.5t48 8.5t32.5 31q42 86 0 176q-9 20 -20 31.5t-28 16.5t-33 6.5t-45 1.5h-5h-5h-5q-7 0 -12.5 -5.5t-5.5 -12.5z
M222 603l1 -152q0 -7 5.5 -12t12.5 -5q126 0 134 34q9 22 5 75.5t-26 66.5q-24 14 -115 11q-7 0 -12 -5.5t-5 -12.5z" />
    <glyph glyph-name="C" unicode="C" horiz-adv-x="496" 
d="M445 219q13 0 21.5 -9t9.5 -22q0 -12 -0.5 -31t-0.5 -31q0 -10 -5 -22q-24 -68 -67 -90t-128 -22q-73 0 -123.5 36t-74 96.5t-31.5 121t-5 128.5q2 47 6.5 84t17.5 81t33 75t54.5 55.5t80.5 33.5q136 27 228 -77q12 -14 12 -32q0 -12 0.5 -23t0.5 -14q0 -15 -10 -25.5
t-25 -11.5h-19q-14 -1 -24.5 8.5t-12.5 23.5q-1 5 -1 14q-2 23 -14 35q-31 34 -89 33q-28 -3 -48.5 -14t-32.5 -29.5t-20 -36.5t-11.5 -46t-4.5 -47.5t-1.5 -50t-1.5 -45.5q1 -30 0 -60.5t1 -59.5t5.5 -55.5t13 -49t24 -39t38.5 -25.5t56 -9q63 0 91 83q0 11 -0.5 22.5
t-0.5 15.5q0 14 10 23.5t23 8.5q8 -1 25 -1z" />
    <glyph glyph-name="D" unicode="D" horiz-adv-x="532" 
d="M489 252q-4 -69 -14.5 -112.5t-34.5 -76t-64 -47t-103 -15.5h-204q-11 1 -18.5 8.5t-8.5 17.5q0 5 -0.5 15t-0.5 14q0 10 7 17t18 7q10 0 17.5 7t7.5 17q1 71 1 252t-2 240q0 10 -6.5 17t-16.5 7h-3q-10 0 -17 7t-6 17v30q0 10 6.5 17t16.5 7q113 6 203 1
q90 -4 153.5 -68.5t68.5 -154.5q0 -1 1 -25.5t1.5 -52.5t0 -69.5t-2.5 -76.5zM328 86q41 10 50 66q15 92 9.5 237t-25.5 188q-15 31 -51.5 38t-91.5 5q-10 0 -17 -7t-7 -17l-4 -489q0 -10 7 -17t17 -7q88 -3 113 3z" />
    <glyph glyph-name="E" unicode="E" horiz-adv-x="479" 
d="M412 565q-5 0 -15.5 -0.5t-16.5 -0.5q-9 0 -15.5 6t-6.5 15l-2 18q-4 18 -22 18q-15 0 -53 -0.5t-55 -0.5q-9 0 -15.5 -6.5t-6.5 -15.5q0 -22 -3 -157q0 -9 6.5 -15.5t16.5 -6.5h151q19 -2 21 -22q0 -24 -1 -35q-2 -12 -10.5 -20t-19.5 -7q-114 3 -140 3q-9 0 -15.5 -6.5
t-6.5 -15.5q0 -38 0.5 -106t0.5 -107q0 -21 21 -23q80 -2 129 0q4 0 4 26q0 8 5 14.5t13 6.5q24 0 36 -1q9 0 15.5 -6.5t6.5 -15.5q0 -31 -3 -85q-2 -20 -21 -20q-44 1 -157 1h-157h-27q-18 0 -18 21q-1 11 -1 38q0 20 18 20l6 1h6q9 -1 14.5 6.5t5.5 17.5q2 318 2 495
q0 10 -7.5 16.5t-17.5 5.5q-8 -1 -14.5 5t-7.5 15v39q0 8 6.5 14t14.5 6q47 0 167 -0.5t174 0.5q10 0 16 -7t6 -17q-2 -67 -5 -92q-3 -19 -22 -19z" />
    <glyph glyph-name="F" unicode="F" horiz-adv-x="466" 
d="M275 56l1 -33q1 -10 -5.5 -16.5t-16.5 -6.5l-182 1q-9 0 -15.5 6.5t-6.5 15.5v31q0 9 6 15.5t15 6.5l13 1q8 0 14.5 6.5t6.5 15.5l1 498q0 9 -6 15.5t-15 6.5h-3q-21 2 -21 22l-1 37q0 10 6.5 16.5t16.5 6.5l341 1q9 0 15.5 -6t6.5 -16v-86q0 -10 -6.5 -16.5t-16.5 -6.5
l-41 1q-20 2 -22 22v3q0 9 -6.5 15.5t-15.5 6.5l-112 1q-9 0 -15 -6.5t-6 -15.5v-68l1 -77q0 -9 6.5 -15t15.5 -6l129 -1q10 0 16.5 -6.5t6.5 -15.5v-45q0 -9 -6.5 -15.5t-16.5 -6.5h-126q-9 0 -15.5 -6.5t-6.5 -15.5l1 -220q0 -9 6 -15.5t15 -6.5l23 -1q9 0 15 -6.5
t6 -14.5z" />
    <glyph glyph-name="G" unicode="G" horiz-adv-x="542" 
d="M465 333q14 0 24 -9.5t10 -23.5q4 -109 1 -159q-2 -13 -7 -24q-31 -72 -82 -99.5t-141 -27.5q-59 0 -103.5 26.5t-68.5 67t-38 96t-17.5 103t-1.5 98.5q2 45 6.5 82.5t16.5 81.5t31 75t52 54t76 29q79 9 154 -8t112 -66q5 -8 7 -19v-63q0 -14 -10 -24t-24 -10
q-4 0 -14 0.5t-14 0.5q-13 0 -22.5 9.5t-9.5 22.5q0 3 -0.5 9t-0.5 8q-1 14 -13 24q-50 37 -91.5 39t-67 -22t-43.5 -65t-25.5 -84.5t-7.5 -85.5v-23q1 -127 18 -174q28 -78 119 -80q36 2 67 17.5t41 45.5q3 8 0 73q0 15 -15 15l-41 1q-13 0 -21.5 9t-9.5 22v24q0 14 10 24
t24 10h120z" />
    <glyph glyph-name="H" unicode="H" horiz-adv-x="606" 
d="M565 59l1 -38q0 -8 -6 -14t-14 -6l-155 -1q-8 0 -14 6t-6 14l-1 36q0 8 6 14t14 6h4q8 0 14 6t5 14v228q0 8 -6 14t-14 5l-195 -1q-8 0 -13.5 -5.5t-5.5 -13.5l-2 -229q-1 -7 4.5 -13t13.5 -7h6q8 0 13.5 -6t5.5 -14v-35q0 -8 -6 -14t-14 -5l-139 1q-8 0 -14 5.5t-6 13.5
l-1 34q0 8 6 14t14 6h3q8 -1 14 5t6 15l-1 513q0 8 -6 13.5t-14 5.5t-14 6t-6 14l1 33q0 8 6 14t14 6l134 -1q7 0 13 -6t6 -13l1 -35q1 -9 -5 -15t-15 -5h-2q-8 0 -14 -6t-6 -14l3 -165q0 -8 6 -13.5t14 -5.5l199 1q8 0 14 6t6 14l1 164q0 18 -18 20h-7q-8 1 -13.5 7
t-4.5 13v35q2 19 20 19l149 -1q8 0 14 -6t6 -14l-1 -33q0 -17 -18 -19l-15 -1q-20 -2 -18 -20l2 -508q2 -19 21 -19h10q8 1 14 -5t6 -14z" />
    <glyph glyph-name="I" unicode="I" horiz-adv-x="286" 
d="M222 75q8 -1 14 -7t5 -14l-2 -35q-2 -19 -21 -19l-142 2q-18 0 -20 19l-2 35q-1 8 4.5 14t13.5 7q18 2 18 21l-1 500q0 8 -5.5 14t-13.5 6l-10 1q-17 0 -19 19l-1 41q0 19 18 21h7q45 -2 161 -1q8 0 14 -6t6 -14v-41q0 -18 -19 -20l-13 -1q-18 -2 -18 -20v-301l1 -200
q0 -19 25 -21z" />
    <glyph glyph-name="J" unicode="J" horiz-adv-x="511" 
d="M446 699q10 0 17 -7.5t7 -17.5l1 -32q0 -10 -6.5 -17t-16.5 -8h-5q-22 -2 -22 -24q5 -386 -5 -428q-20 -82 -73.5 -127t-138.5 -45q-147 -1 -182 119q-1 2 -1 7q-1 30 0 61q0 11 7 18t17 7h43q11 -1 19 -9t9 -19q2 -36 3 -39q11 -33 28.5 -50.5t52.5 -17.5q33 0 57 23
t35.5 57t16.5 63t5 53v328q0 10 -7 16.5t-17 7.5h-2q-21 2 -23 23l-1 33q-1 10 5.5 17t15.5 8h161z" />
    <glyph glyph-name="K" unicode="K" horiz-adv-x="573" 
d="M511 85q6 -11 20 -11h11q20 -2 20 -21l1 -32q0 -9 -6 -15t-15 -6h-168q-9 0 -15 6.5t-6 14.5v32q0 19 21 21h17q9 2 5 10q-61 117 -170 297q-9 16 1 33q8 12 47.5 71t77 113.5t61.5 86.5q11 16 30 16h91q23 0 23 -20l-1 -44q0 -21 -23 -21h-48q-9 0 -16 -9
q-111 -163 -131 -195q-8 -13 0 -26q33 -58 86.5 -150t86.5 -151zM59 74q2 0 9.5 0.5t11.5 1.5q14 2 14 17q0 80 -1.5 250.5t-1.5 254.5q0 10 -5.5 15.5t-11.5 5.5h-5q-14 0 -15 14q-2 24 -2 47q-2 20 15 20q23 1 74 0.5t72 -0.5q18 0 19 -16q0 -8 -0.5 -26.5t-0.5 -27.5
q0 -11 -24 -11q-18 0 -18 -22q3 -75 6 -245.5t7 -259.5q0 -18 19 -18q3 1 11 1q16 0 18 -16q7 -53 -14 -58q-24 -5 -177 -2q-13 0 -17 14q-4 22 1 46q2 15 16 15z" />
    <glyph glyph-name="L" unicode="L" horiz-adv-x="469" 
d="M217 616q-22 -2 -22 -23l-2 -472q0 -9 6.5 -16t16.5 -7l144 -1q20 0 23 19l1 7q3 20 23 20h29q10 0 16.5 -7t6.5 -17l-2 -95q0 -10 -6.5 -16.5t-16.5 -6.5h-348l-23 1q-10 0 -16.5 6.5t-6.5 16.5v48q0 9 6.5 16t16.5 7h4q10 0 16.5 6.5t6.5 16.5l2 474q0 21 -20 23h-3
q-21 4 -21 24v36q0 9 6.5 16t16.5 6l144 2q10 0 17.5 -7.5t5.5 -17.5l1 -39q-1 -8 -7.5 -14t-14.5 -6z" />
    <glyph glyph-name="M" unicode="M" horiz-adv-x="810" 
d="M367 14l-168 457q-1 6 -6 1l-1 -3q-1 -55 0.5 -185.5t-0.5 -185.5q0 -9 6 -15t15 -7q13 0 21 -5q9 -5 7 -45q-1 -11 -8.5 -18.5t-18.5 -7.5q-25 -1 -80.5 -1.5t-68.5 -0.5q-21 0 -23 21q-2 20 -2 30t7.5 17.5t18.5 8.5h8q8 0 14 6t6 14q2 66 1.5 270.5t-0.5 229.5
q1 8 -5 14t-14 6q-1 0 -4.5 0.5t-5.5 0.5q-10 0 -17.5 7t-7.5 18q-1 10 -1 39q0 18 19 20q41 2 137 -1q12 0 17 -12q31 -76 92 -250t89 -243l1 -2q3 -6 9 -6t8 6q32 81 91 249t90 247q5 13 18 13h21.5h40.5h42.5h30.5q23 0 23 -20q0 -5 0.5 -22t0.5 -21q0 -21 -22 -23
q-4 0 -10.5 -0.5t-9.5 -0.5q-8 1 -14.5 -5t-5.5 -14q2 -230 2 -328q0 -101 1 -122v-49q0 -8 5.5 -14t13.5 -6q4 -1 11 -1q19 -2 19 -21v-27q-1 -11 -9 -19t-19 -8h-142q-10 -1 -17 6t-8 17q-1 13 -1 30q0 9 6.5 15.5t15.5 5.5h2q9 -1 16 5.5t7 15.5v372q0 8 -6 5
q-2 -1 -3 -4l-162 -456q-8 -16 -25 -16q-17 -2 -25 -1q-17 3 -23 19z" />
    <glyph glyph-name="N" unicode="N" horiz-adv-x="584" 
d="M405 239l3 360q0 7 -5 12.5t-13 5.5h-5q-7 0 -12.5 5.5t-5.5 12.5v47q0 8 5.5 13t12.5 5l142 -1q7 0 12 -5t5 -12v-46q0 -7 -5 -12.5t-12 -5.5h-10q-17 -2 -17 -18v-336l3 -246q1 -7 -4.5 -12.5t-13.5 -5.5h-42q-19 0 -26 15l-234 463q-4 4 -6 -1l1 -384q0 -7 6 -13
t13 -6h4q8 0 13.5 -6t5.5 -14l-1 -36q0 -19 -19 -19l-129 1q-19 0 -19 19l-1 35q0 8 5.5 13.5t13.5 5.5t13.5 5.5t5.5 13.5l-1 511q0 14 -15 14h-18q-15 0 -15 14v55q0 14 15 14h94q17 2 27 -16l221 -447q1 -3 4.5 -2.5t3.5 4.5z" />
    <glyph glyph-name="O" unicode="O" horiz-adv-x="561" 
d="M281 -9q-66 0 -114.5 31t-75.5 85.5t-39 117.5t-12 137q0 63 12.5 120t38.5 107t73 81.5t110 36.5q56 0 100 -20.5t71 -53.5t45 -78.5t24.5 -91.5t6.5 -97q0 -167 -60.5 -271t-179.5 -104zM274 629q-67 0 -101 -73.5t-34 -188.5q0 -134 37.5 -214t106.5 -80
q75 0 106.5 74.5t31.5 217.5q0 129 -32 196.5t-115 67.5z" />
    <glyph glyph-name="P" unicode="P" horiz-adv-x="512" 
d="M63 75l20 2q9 1 15.5 7.5t6.5 15.5l4 490q0 10 -7 16.5t-16 6.5h-8q-21 2 -23 23l-1 39q-1 10 5.5 17t16.5 8l46 1q133 5 188 -4q59 -9 109.5 -48.5t61.5 -121.5q4 -112 -34.5 -169.5t-125.5 -84.5q-17 -5 -97 -13q-7 0 -11.5 -5t-4.5 -12q0 -108 -1 -144q0 -9 6.5 -16
t16.5 -7l24 -1q10 0 16.5 -7t6.5 -17l-1 -30q0 -9 -6.5 -15.5t-16.5 -6.5h-189q-10 0 -17 7t-7 17l1 30q2 20 22 22zM209 593q0 -153 1 -232q0 -19 19 -19q50 3 95.5 34t46.5 79q0 9 0.5 25.5t0.5 27t-3 26t-10 29.5q-11 34 -48 48t-83 6q-19 -3 -19 -24z" />
    <glyph glyph-name="Q" unicode="Q" horiz-adv-x="570" 
d="M473 31q10 -7 24 -18.5t21 -16.5q11 -8 12 -21.5t-8 -23.5l-18 -19q-21 -23 -43 -8q-10 6 -33 24t-35 27q-7 7 -17 13q-8 5 -16 3q-36 -9 -94 -9q-46 0 -83 18t-60.5 50.5t-40 70t-25 83.5t-12 84t-4.5 78q-1 46 7 96t26 101t53.5 88.5t83.5 48.5q41 8 82 7t82.5 -20
t68.5 -53q40 -50 53 -120t13 -170q-6 -135 -25 -209q-8 -33 -33 -68q-9 -10 2 -21zM188 131q12 -25 44 -47.5t56 -18.5q22 0 39 8.5t29 25.5t20.5 36.5t13.5 48.5t7.5 53.5t3 59.5t0.5 58.5t-0.5 57.5t-0.5 51q0 87 -36.5 126.5t-97.5 39.5q-116 0 -119 -248
q-2 -182 41 -251z" />
    <glyph glyph-name="R" unicode="R" horiz-adv-x="572" 
d="M66 73q17 2 17 18q2 42 2 69q0 58 0.5 228t1.5 208q0 9 -6.5 15t-14.5 6h-5q-9 0 -15 6.5t-6 14.5l1 43q0 8 6 14t14 6q250 4 294 1q62 -2 110.5 -57.5t49.5 -134.5q3 -83 -21.5 -127t-90.5 -64q-2 -1 -2 -3.5t2 -3.5q32 -11 49 -44t19.5 -67.5t6.5 -65.5t14 -37
q20 -13 42 -21q19 -5 17 -26q0 -2 -6 -37q-2 -17 -20 -20q-103 -11 -133 16q-24 25 -24 156q-1 48 -30.5 82.5t-64.5 34.5q-9 1 -72 1q-6 0 -10.5 -4.5t-4.5 -10.5v-177q0 -18 24 -19q7 0 12 -5t5 -12l2 -38q1 -8 -4.5 -13.5t-13.5 -5.5q-119 -2 -149 -1q-7 0 -12.5 5.5
t-5.5 13.5l2 39q0 7 5.5 12t14.5 5zM292 374q28 0 53.5 11t45 41.5t17.5 74.5q-2 57 -21.5 79t-76.5 33q-28 4 -106 2q-8 0 -14.5 -6t-6.5 -14l-1 -202q0 -9 6.5 -15t15.5 -6q50 2 88 2z" />
    <glyph glyph-name="S" unicode="S" horiz-adv-x="485" 
d="M453 205q6 -79 -12 -116.5t-70 -69.5q-37 -22 -77 -26q-167 -21 -251 63q-9 9 -11 22l-2 59q0 13 9 22.5t23 10.5h38q13 1 22.5 -8t10.5 -22v-17q2 -17 15 -27q37 -27 94 -27q45 0 76 27t29 87q-1 26 -20 46.5t-38.5 30t-61.5 27.5q-46 19 -85 45t-70.5 66.5t-35.5 84.5
q-7 93 16.5 142.5t83.5 72.5q6 2 17 5t44 6t65 -1.5t75 -23t79 -52.5q10 -9 11 -23l2 -62q0 -13 -9.5 -22.5t-22.5 -8.5h-40q-12 0 -21 8.5t-9 21.5l-2 22q0 12 -10 19q-40 29 -97 29q-45 0 -74 -34.5t-2 -89.5q20 -41 66 -69.5t71 -34.5q39 -15 59.5 -25t50.5 -31.5
t45.5 -52.5t18.5 -74z" />
    <glyph glyph-name="T" unicode="T" horiz-adv-x="481" 
d="M288 604l5 -507q0 -8 6 -14t14 -6l18 -1q20 -2 20 -21l1 -33q0 -9 -6.5 -15t-14.5 -6l-171 -1q-19 0 -21 20l-1 33q-1 9 5 15t15 7l12 1q8 0 14 6.5t6 14.5l-2 505q0 8 -5 13.5t-13 5.5h-59q-17 0 -19 -17l-1 -9q0 -7 -5.5 -12t-13.5 -5l-43 1q-8 0 -13 5.5t-5 13.5
l-1 82q0 8 5.5 13.5t13.5 5.5l414 1q12 0 20 -6.5t7 -17.5l-2 -79q-1 -11 -9 -19t-19 -7h-28q-23 2 -26 24l-1 13q-2 15 -18 15h-60q-8 0 -13.5 -5.5t-5.5 -13.5z" />
    <glyph glyph-name="U" unicode="U" horiz-adv-x="606" 
d="M552 700q10 0 17 -7t7 -17v-32q0 -22 -27 -25q-22 -2 -22 -24v-294q0 -181 -47 -245.5t-179 -64.5q-64 0 -102.5 11t-67.5 44.5t-40.5 94.5t-11.5 161v294q0 10 -7 17t-18 7q-10 1 -16.5 7.5t-6.5 15.5l-1 31q0 23 22 26h159q10 0 17.5 -7t7.5 -17v-32q0 -10 -6.5 -16.5
t-15.5 -7.5q-28 -3 -28 -25q-4 -120 -4 -297q0 -45 1 -70t4.5 -55t11 -45.5t20 -30.5t32.5 -20.5t48 -5.5q33 0 56 11t35.5 28.5t19.5 49.5t8.5 62t1.5 79q0 234 -1 295q0 10 -7 17t-18 7q-21 2 -23 23l-1 30q-1 10 5 17t16 9h3z" />
    <glyph glyph-name="V" unicode="V" horiz-adv-x="568" 
d="M336 1l-117 1q-20 0 -27 20l-142 589q-3 10 -13 10h-4q-7 0 -13 5.5t-7 13.5l-2 36q-1 10 5.5 17t16.5 7l134 1q9 0 15.5 -6.5t6.5 -15.5v-37q0 -9 -6.5 -15t-14.5 -6h-5q-7 0 -11 -5t-2 -12l119 -481q1 -6 8 -6t8 6l117 479q1 7 -2.5 12t-10.5 6h-15q-20 2 -20 21v38
q-1 9 5.5 15.5t16.5 6.5h159q10 0 16.5 -6.5t5.5 -15.5l-1 -38q0 -9 -6 -15t-14 -6h-17q-11 0 -13 -9l-142 -590q-7 -20 -28 -20z" />
    <glyph glyph-name="W" unicode="W" horiz-adv-x="871" 
d="M457 680l144 -467q1 -3 4 -3t4 3l90 389q2 9 -3.5 16.5t-15.5 7.5h-2q-17 2 -19 20l-2 32q0 9 6 15.5t14 6.5l163 2q9 0 15 -6t6 -15l-1 -35q0 -8 -6 -14t-14 -6h-13q-17 0 -20 -15l-135 -593q-3 -15 -19 -15h-71q-16 0 -19 14l-137 490q-1 3 -3.5 3t-3.5 -3l-118 -491
q-4 -17 -20 -15h-64q-16 0 -19 15l-136 592q-3 14 -19 16h-13q-19 2 -19 20l-1 36q0 8 6 14t14 6l154 1q8 0 14 -5.5t6 -13.5l2 -34q1 -8 -4.5 -14.5t-14.5 -7.5h-3q-9 -1 -14.5 -8t-4.5 -16l82 -389q1 -3 4 -3.5t4 3.5l133 466q7 22 29 22h11q22 0 29 -21z" />
    <glyph glyph-name="X" unicode="X" horiz-adv-x="541" 
d="M175 73q11 -1 18 -8.5t7 -17.5l-1 -21q0 -11 -8 -19t-20 -8h-132q-11 1 -19 9t-8 19v23q0 10 6.5 17t16.5 8l16 1q6 2 7 5l145 258q13 23 1 45l-132 223q-9 14 -24 14l-15 1q-10 1 -16.5 8.5t-6.5 17.5v24q0 11 8.5 19t19.5 8h143q12 0 20.5 -8.5t7.5 -20.5l-2 -23
q0 -9 -6.5 -15.5t-15.5 -7.5q-11 -2 -7 -12l86 -152q3 -6 9.5 -6t9.5 5l94 147q3 4 0.5 9.5t-8.5 5.5q-22 2 -24 24v25q-1 12 7.5 20.5t20.5 8.5l129 1q11 0 19.5 -8t8.5 -19v-26q1 -11 -6.5 -18.5t-17.5 -7.5h-10q-18 0 -28 -16l-131 -225q-13 -22 0 -45l136 -253
q3 -5 8 -5h18q11 0 19 -8t8 -19v-24q-1 -11 -9 -19t-19 -8l-145 1q-11 0 -19.5 8t-8.5 20v22q2 23 25 25h7q5 0 8 4.5t0 9.5l-85 167q-4 6 -10.5 6t-9.5 -6l-93 -169q-2 -5 0.5 -9.5t7.5 -4.5z" />
    <glyph glyph-name="Y" unicode="Y" horiz-adv-x="541" 
d="M346 1h-166q-9 0 -15.5 6.5t-7.5 15.5v31q0 9 6.5 15.5t15.5 6.5h10q22 2 22 22v183q0 3 -2 11l-153 318q-5 9 -17 11h-7q-9 0 -15 6.5t-6 15.5l-1 34q0 10 6.5 16.5t15.5 6.5h137q9 0 15.5 -6.5t6.5 -15.5l1 -34q0 -9 -6.5 -15.5t-15.5 -6.5h-8q-4 0 -6 -3t0 -6
l103 -205q7 -9 12 0l121 203q4 8 -5 10h-19q-9 1 -15.5 7.5t-6.5 15.5l1 33q1 9 7 15.5t15 6.5h140q9 0 15.5 -6.5t6.5 -16.5v-34q0 -9 -6.5 -15t-14.5 -6q-13 -2 -19 -11l-178 -321q-3 -6 -3 -12l3 -178q0 -9 6 -15.5t15 -6.5l12 -1q9 0 15 -6t6 -15l1 -32q0 -9 -6 -15.5
t-16 -6.5z" />
    <glyph glyph-name="Z" unicode="Z" horiz-adv-x="516" 
d="M172 95l206 -1q18 0 20 19v2q0 8 6.5 14t14.5 5l42 -3q8 0 13.5 -6t5.5 -14l-2 -92q0 -8 -6 -13.5t-14 -5.5h-396q-12 0 -21 8.5t-10 21.5l-1 32q0 13 7 24l318 516q2 5 -0.5 9t-7.5 4l-214 -1q-18 0 -20 -19l-1 -23q-2 -19 -21 -19l-40 2q-8 0 -14 6t-5 14l1 106
q0 8 6 13.5t14 5.5h408q22 -2 24 -24v-31q1 -11 -6 -24l-313 -514q-2 -4 0 -7.5t6 -4.5z" />
    <glyph glyph-name="bracketleft" unicode="[" horiz-adv-x="301" 
d="M240 743q0 -3 -2 -25q0 -8 -6.5 -14t-15.5 -6h-16q-19 -2 -19 -20l-2 -759q0 -18 19 -20h4q26 -1 31.5 -10.5t4.5 -36.5q-2 -29 -46 -29h-75q-37 0 -37 42l2 872q0 15 8.5 24t22.5 9q70 0 95 1q13 0 20 -4.5t9 -9.5t3 -14z" />
    <glyph glyph-name="backslash" unicode="\" horiz-adv-x="422" 
d="M29 682q-21 52 2 53q18 3 43 3q12 0 20 -9.5t19 -35.5q20 -48 143.5 -329.5t132.5 -304.5q10 -26 12 -36t-3.5 -16.5t-24.5 -6.5q-35 0 -41 2q-4 1 -7.5 3t-6 5.5t-4.5 5.5t-4.5 7.5t-4 8t-4.5 9.5t-4 10q-7 14 -134.5 314t-133.5 317z" />
    <glyph glyph-name="bracketright" unicode="]" horiz-adv-x="301" 
d="M61 743q4 29 32 28l95 -1q14 0 22.5 -9t8.5 -24l2 -872q0 -42 -37 -42h-75q-44 0 -46 29q-1 12 -0.5 20.5t3.5 14t11 8.5t22 4h4q19 2 19 20l-2 759q0 18 -19 20h-16q-9 0 -15.5 6t-6.5 14q-2 22 -2 25z" />
    <glyph glyph-name="underscore" unicode="_" horiz-adv-x="474" 
d="M473 -30q2 -38 -30 -39q-19 -1 -200 -1t-203 1q-23 0 -30.5 7.5t-8.5 27.5q-1 21 6.5 31t31.5 10q11 0 200 0.5t203 0.5q31 0 31 -38z" />
    <glyph glyph-name="grave" unicode="`" horiz-adv-x="213" 
d="M175 652q16 -24 2 -36q-16 -12 -36 6q-52 46 -98 91q-14 14 -12.5 30t18.5 28q35 25 59 -10q19 -28 67 -109z" />
    <glyph glyph-name="a" unicode="a" horiz-adv-x="463" 
d="M399 74h13q21 0 21 -26v-26q0 -22 -26 -22h-85q-11 0 -18.5 8t-8.5 18q-2 22 -2 24v8q-2 8 -6 0q-11 -18 -24 -33q-28 -30 -92 -30q-37 0 -51 5q-10 4 -23 12q-14 9 -20 17q-30 28 -35.5 83.5t12.5 97.5q41 103 168 105q39 0 48 -1q6 -1 10.5 3.5t4.5 10.5q2 40 -3 69
q-5 37 -18.5 54.5t-48.5 18.5q-14 0 -25.5 -2.5t-19 -6.5t-14 -10t-9.5 -10t-6 -9t-4 -6q-3 -4 -3 -31q0 -18 -17 -18h-48q-20 0 -19 20v9q0 9 -0.5 20.5t-0.5 16.5q0 1 0.5 3l1 4t1.5 3q5 11 14 23t27.5 28.5t49.5 27.5t70 12q33 1 57 -5.5t41 -21.5t26.5 -27.5t22.5 -35.5
q17 -30 21 -95q5 -107 5 -262q0 -23 13 -23zM179 84q31 -4 68.5 17.5t39.5 47.5q1 23 -1 77q0 12 -13 14q-61 2 -91 -5q-48 -13 -51 -66v-25q0 -52 48 -60z" />
    <glyph glyph-name="b" unicode="b" horiz-adv-x="470" 
d="M57 735l98 1q11 0 19 -7.5t8 -18.5v-175q0 -5 4 -7t8 0q36 25 82 25q51 0 83 -36.5t55 -102.5q8 -24 12 -62t4 -58t-2 -75t-2 -56q-11 -86 -49 -126t-92 -42q-39 0 -58.5 6.5t-38.5 25.5q-2 4 -6 0q-1 -1 -1 -2v-4q-2 -21 -23 -21h-39q-13 0 -22 8.5t-9 21.5l-5 607
q0 24 -26 25q-26 2 -26 23v23q-1 11 7 19t19 8zM195 91q26 -25 67.5 -16t56.5 46q7 18 10.5 36t4 25.5t0 29.5t-0.5 24q0 157 -23 193q-39 60 -114 34q-13 -4 -13 -18q0 -238 -1 -327q0 -16 13 -27z" />
    <glyph glyph-name="c" unicode="c" horiz-adv-x="434" 
d="M340 153h43q15 0 24.5 -12t5.5 -26q-13 -59 -53 -92q-19 -15 -59 -24t-69 -6q-136 16 -172 127q-16 44 -20 158q1 47 8.5 89t23 83.5t45.5 69.5t71 36q29 8 68 4t73.5 -14.5t58.5 -36t24 -60.5v-33q0 -15 -11 -26t-26 -11q-6 0 -16.5 0.5t-15.5 0.5q-15 0 -25.5 10.5
t-10.5 25.5q0 69 -82 60q-25 -2 -41 -17t-23.5 -44t-10 -48t-4.5 -54q-3 -65 3 -116t31.5 -89.5t70.5 -38.5q17 0 25.5 4t11.5 8t8 21t10 28q8 23 34 23z" />
    <glyph glyph-name="d" unicode="d" horiz-adv-x="465" 
d="M404 76h8q10 0 16.5 -6.5t6.5 -16.5v-28q0 -10 -7 -16.5t-16 -6.5l-100 1q-8 0 -14.5 6t-7.5 15v3q-2 7 -8 3q-19 -19 -38 -25.5t-58 -6.5q-54 2 -92 41.5t-49 125.5q0 7 -2 58t-2 73.5t3.5 59.5t12.5 61q22 64 54 101t83 37q48 0 83 -24q4 -3 8 -1t4 7v98q1 9 -5.5 15.5
t-16.5 6.5l-16 1q-9 0 -15.5 6.5t-6.5 16.5l1 32q0 9 6.5 15.5t15.5 6.5h113q10 0 16.5 -6.5t6.5 -16.5l-6 -613q0 -10 6.5 -16.5t15.5 -6.5zM288 120q0 45 -0.5 163.5t-0.5 163.5q0 14 -13 19q-74 27 -113 -34q-7 -11 -12 -31t-7 -46t-3 -44.5t-1.5 -44.5t-0.5 -27
q2 -57 27 -112q11 -41 48.5 -50t63.5 16q12 11 12 27z" />
    <glyph glyph-name="e" unicode="e" horiz-adv-x="435" 
d="M326 176q27 2 42 1q9 0 15.5 -6.5t6.5 -15.5v-40q0 -20 -16 -44t-35 -41q-62 -49 -172 -25q-55 13 -86.5 66.5t-37 122t0 131.5t18.5 107q38 126 160 129q44 2 89 -29.5t70 -105.5q17 -51 13 -145q0 -15 -10.5 -25t-25.5 -11l-199 -2q-19 -2 -19 -22q0 -28 6 -59t25 -60
t47 -29q34 -1 50 10.5t26 33.5q3 8 5 32q2 25 27 27zM259 464q-21 15 -53 9t-47 -35q-10 -20 -16 -90q-1 -10 6 -17t17 -7h108q12 0 19 9.5t5 22.5q0 85 -39 108z" />
    <glyph glyph-name="f" unicode="f" horiz-adv-x="304" 
d="M258 54l1 -28q0 -10 -7 -17.5t-17 -7.5l-180 1q-10 0 -17 6.5t-7 16.5v27q0 10 6.5 17t16.5 7l9 1q10 0 16.5 7t6.5 16l2 360q0 7 -5 11.5t-11 4.5h-24q-11 0 -19 8.5t-9 19.5v17q0 12 8.5 20t19.5 8h27q6 0 10.5 4.5t4.5 10.5q1 17 1 50q0 5 1 18t1.5 17t1.5 14.5
t2.5 15.5t4.5 13t7 15.5t10 15.5q32 45 160 15q13 -3 20 -14.5t3 -24.5l-6 -23q-8 -26 -36 -23q-63 10 -68 -32q-3 -24 -3 -57q0 -14 15 -16h54q12 -1 20.5 -9.5t7.5 -20.5v-13q0 -11 -8.5 -19.5t-20.5 -8.5h-50q-16 -2 -16 -17l1 -359q0 -9 7 -16t17 -7l19 -1q9 0 16 -6.5
t7 -16.5z" />
    <glyph glyph-name="g" unicode="g" horiz-adv-x="485" 
d="M424 549q13 0 22 -8.5t9 -21.5v-14q0 -12 -8.5 -21t-21.5 -10h-7q-10 0 -17 -7t-7 -17v-187q-1 -101 5 -321q1 -50 -13 -97.5t-43 -66.5q-118 -77 -264 2l-6 4q-16 9 -9 26l15 40q9 23 33 16h2l2 -1q10 -3 31 -11t38 -12.5t34 -5.5q28 -1 54 19t28 58q3 42 1 125
q0 3 -3 4t-5 -1q-56 -61 -134 -44q-25 6 -50 33t-43 62q-24 48 -26 175.5t16 167.5q28 66 64 93.5t92 23.5q46 -3 77 -37q3 -3 6.5 -1.5t3.5 4.5v6q0 10 8 18t18 8h48t50 -1zM296 158q0 1 2 17q-2 72 -2 93v17t0.5 39t0.5 46q0 32 -3 40q-13 43 -41 58q-24 14 -52 5.5
t-43 -38.5q-16 -32 -20.5 -93t-0.5 -109t9 -67q5 -21 8 -30t10.5 -28.5t18.5 -29t25 -9.5q46 -1 66 27t22 62z" />
    <glyph glyph-name="h" unicode="h" horiz-adv-x="484" 
d="M406 423l7 -327q1 -8 7 -14t14 -5h8q8 0 14 -5.5t6 -13.5l1 -35q1 -8 -5 -14.5t-15 -6.5l-153 1q-8 0 -14 6t-6 14v35q2 18 20 20h5q8 0 14 6.5t5 14.5q0 5 -0.5 15t-0.5 13q0 234 -3 301q-1 32 -23.5 47t-52 13t-55.5 -17q-13 -8 -13 -23q0 -38 -0.5 -179t-0.5 -172
q0 -8 5.5 -14t13.5 -6h7q8 -1 13.5 -7t5.5 -14v-35q0 -8 -6 -14t-14 -6l-105 1h-32q-8 -1 -14 4.5t-7 13.5l-2 35q0 8 6 14.5t14 6.5h2q8 0 14 6t6 14l-2 537q0 9 -6.5 16t-16.5 7l-5 1q-9 0 -15.5 7t-6.5 16v31q0 11 7 17.5t17 6.5h94q23 -2 23 -24l3 -175q0 -4 3.5 -5.5
t5.5 0.5q34 31 83 31q147 0 150 -139z" />
    <glyph glyph-name="i" unicode="i" horiz-adv-x="239" 
d="M20 20l4 46q0 5 4.5 9t9.5 4h16q6 0 10.5 4.5t4.5 10.5v368q0 14 -14 14l-14 1q-14 0 -14 14l-2 46q0 15 14 15h115q15 0 15 -14l8 -444q2 -14 15 -14l12 -1q5 0 9.5 -4t4.5 -10l1 -46q0 -15 -15 -15h-153q-8 0 -19.5 5t-11.5 11zM168 658q-1 -39 -73 -35q-28 2 -39 13
t-13 36q-1 33 15 47t54 13q16 0 28 -5t17.5 -11t8.5 -16t3 -15.5t-0.5 -15.5t-0.5 -11z" />
    <glyph glyph-name="j" unicode="j" horiz-adv-x="251" 
d="M168 547q10 0 16.5 -7t6.5 -17q0 -34 -0.5 -258.5t-1.5 -267.5q2 -76 -26 -138q-38 -83 -99 -103t-115 24q-14 10 -7 25q2 3 5 10.5t5 10.5q13 22 31 13q58 -30 87 54q17 32 15 97q0 289 2 451q0 10 -7 17t-16 7h-4q-23 2 -23 24l-1 34q0 10 7 17t17 7h108zM185 653
q0 -39 -72 -35q-28 1 -39 12t-13 37q-1 33 15 47t53 12q32 -1 46 -16t11.5 -31t-1.5 -26z" />
    <glyph glyph-name="k" unicode="k" horiz-adv-x="536" 
d="M61 73l8 1q8 0 14 6.5t6 14.5l-4 545q0 19 -19 21q-20 2 -20 21l-1 31q0 9 6 15.5t15 6.5l100 1q8 0 14.5 -6t6.5 -15v-142l2 -478q0 -9 6 -15t15 -6h7q8 -1 14.5 -7t6.5 -14v-30q0 -9 -6 -15t-15 -6l-155 -1q-8 0 -14.5 6t-6.5 15l-1 30q0 8 6 14.5t15 6.5zM468 79
q3 -5 9 -5l21 -1q7 0 12 -5.5t5 -12.5l1 -32q0 -10 -6.5 -17t-16.5 -7l-152 1q-8 0 -13.5 5.5t-5.5 13.5l-2 32q0 9 6 15.5t14 6.5l5 1q24 -2 9 18l-137 195q-5 6 -1 13l101 155q11 16 10 17q-2 2 -5 3h-15q-12 0 -12 11v49q-1 5 2.5 8.5t8.5 3.5h172q4 0 8 -3.5t4 -8.5
l-1 -52q0 -11 -11 -11l-40 -1q-6 0 -9 -5l-106 -161q-10 -11 -1 -25z" />
    <glyph glyph-name="l" unicode="l" horiz-adv-x="272" 
d="M46 73l18 4q16 4 16 20l-4 543q0 18 -19 20q-18 2 -18 19l-3 33q-1 9 5.5 15.5t14.5 6.5l107 1q8 0 14.5 -6t6.5 -14v-144l4 -479q0 -18 19 -20l16 -1q8 0 13.5 -6t5.5 -14v-34q0 -8 -6 -14t-14 -6l-171 1q-8 0 -14 5.5t-6 14.5v35q-2 16 15 20z" />
    <glyph glyph-name="m" unicode="m" horiz-adv-x="759" 
d="M672 413q6 -303 7 -321q0 -8 5.5 -13t13.5 -5l12 -1q8 0 13 -5.5t5 -12.5l1 -36q0 -8 -5.5 -13.5t-13.5 -5.5h-160q-8 0 -13.5 5.5t-5.5 13.5v36q0 8 5.5 13.5t13.5 5.5h6q8 0 13.5 5.5t5.5 13.5l-6 326q-1 32 -24.5 47t-54 12t-57.5 -20q-8 -5 -8 -15v-351q0 -8 5.5 -13
t13.5 -5l13 -1q19 0 19 -19v-35q0 -8 -5.5 -13.5t-13.5 -5.5h-155q-8 0 -13.5 5.5t-5.5 13.5l1 36q0 7 5 12.5t13 5.5h5q8 0 13.5 5.5t5.5 13.5l-3 327q-1 32 -24.5 47t-54 12t-57.5 -20q-8 -5 -8 -15v-351q0 -8 5.5 -13t13.5 -5l13 -1q19 0 19 -19v-35q0 -8 -5.5 -13.5
t-13.5 -5.5h-155q-8 0 -13.5 5.5t-5.5 13.5l1 36q0 7 5 12.5t13 5.5h5q8 0 13.5 5.5t5.5 13.5l-3 361q0 20 -20 22h-6q-9 1 -15 7t-6 15v29q0 10 6.5 16t15.5 6h100q10 0 17 -7t8 -17v-6q0 -4 4 -2q35 36 88 36q90 0 127 -57q24 30 59.5 43.5t59.5 13.5q47 0 80 -14
t48.5 -37.5t21.5 -44t7 -43.5z" />
    <glyph glyph-name="n" unicode="n" horiz-adv-x="513" 
d="M426 413q6 -303 7 -321q0 -8 5.5 -13t13.5 -5l12 -1q8 0 13 -5.5t5 -12.5l1 -36q0 -8 -5.5 -13.5t-13.5 -5.5h-160q-8 0 -13.5 5.5t-5.5 13.5v36q0 8 5.5 13.5t13.5 5.5h6q8 0 13.5 5.5t5.5 13.5l-6 326q-1 32 -24.5 47t-54 12t-57.5 -20q-8 -5 -8 -15v-351q0 -8 5.5 -13
t13.5 -5l13 -1q19 0 19 -19v-35q0 -8 -5.5 -13.5t-13.5 -5.5h-155q-8 0 -13.5 5.5t-5.5 13.5l1 36q0 7 5 12.5t13 5.5h5q8 0 13.5 5.5t5.5 13.5l-3 361q0 20 -20 22h-6q-9 1 -15 7t-6 15v29q0 10 6.5 16t15.5 6h100q10 0 17 -7t8 -17v-6q0 -4 4 -2q35 36 88 36q47 0 80 -14
t48.5 -37.5t21.5 -44t7 -43.5z" />
    <glyph glyph-name="o" unicode="o" horiz-adv-x="468" 
d="M424 193q-14 -127 -84 -176.5t-161 -19.5q-48 16 -81.5 64.5t-46.5 110.5t-8.5 131t26 126t65.5 94t102 37q52 0 91 -26t58 -66.5t31.5 -90t11 -97t-3.5 -87.5zM233 69q55 0 76.5 55.5t21.5 174.5q0 93 -28.5 136t-69.5 43q-44 0 -71.5 -54.5t-27.5 -123.5
q0 -55 9.5 -105.5t33 -88t56.5 -37.5z" />
    <glyph glyph-name="p" unicode="p" horiz-adv-x="474" 
d="M428 379q15 -181 -12 -255q-19 -55 -58.5 -87.5t-89.5 -37.5q-50 -6 -83 29q-3 2 -6 1t-3 -5q0 -21 0.5 -86.5t0.5 -84.5q0 -22 23 -24h15q10 0 16.5 -7t6.5 -17l-1 -30q0 -10 -7 -16.5t-16 -6.5h-172q-9 0 -15.5 6.5t-6.5 16.5l1 34q0 9 6.5 15.5t14.5 6.5h17q9 1 16 8
t7 16v599q0 6 -4.5 10.5t-10.5 4.5h-24q-14 0 -14 15l-1 45q-1 7 4 12.5t13 5.5h115q18 0 18 -17v-14q0 -5 4 -1q15 23 36 32.5t60 5.5q56 -8 99.5 -49t50.5 -125zM190 88q88 -57 125 56q29 88 16 210q-6 50 -17 72q-21 42 -65 47t-68 -27q-2 -3 -2 -9v-331q0 -12 11 -18z
" />
    <glyph glyph-name="q" unicode="q" horiz-adv-x="489" 
d="M387 548q11 0 19.5 -8.5t8.5 -19.5q0 -27 -1 -94.5t-1.5 -114.5t-0.5 -49q-2 -124 5 -403q0 -13 9 -21.5t22 -9.5t22 -10.5t9 -22.5v-10q-1 -13 -10 -22.5t-22 -9.5l-167 -1q-13 0 -22 8.5t-10 21.5l-1 13q-1 13 8 23t22 11h1q13 1 21.5 10t8.5 21v53.5v73.5v50q0 3 -3 4
t-5 -1q-56 -61 -134 -44q-26 6 -54 33.5t-45 61.5q-24 48 -26 175.5t16 167.5q27 65 66 93t96 23q47 -3 80 -39q1 -2 4 -1t3 4v7q0 11 8.5 19t19.5 8h53zM302 157q0 1 0.5 3t1 6t0.5 8q-2 72 -2 92v19.5t0.5 43.5t0.5 51v7q-15 64 -44 80q-24 14 -52 5.5t-43 -38.5
q-16 -32 -20.5 -93t-0.5 -109t9 -67q5 -21 8 -30t10.5 -28.5t18.5 -29t25 -9.5q46 -1 66 27t22 62z" />
    <glyph glyph-name="r" unicode="r" horiz-adv-x="342" 
d="M341 532q-7 -50 -15 -84q-1 -6 -7 -8.5t-11 0.5q-56 34 -111 -2q-5 -5 -5 -11v-337q0 -6 4.5 -11t11.5 -5l15 -1q16 0 16 -14v-43q1 -7 -4 -12t-12 -5h-157q-7 0 -11.5 5t-4.5 12v42q0 15 16 15h10q16 0 16 17l-2 354q0 10 -7 17t-17 7h-3q-10 1 -16.5 8t-6.5 17v30
q0 10 7 17.5t17 7.5h106q18 0 20 -19v-3q0 -7 6 -3q36 35 93 35q11 0 41 -10q13 -5 11 -16z" />
    <glyph glyph-name="s" unicode="s" horiz-adv-x="428" 
d="M396 172q8 -76 -20 -114.5t-83 -57.5q-34 -12 -70.5 -14.5t-82 11t-84.5 45.5q-16 13 -18 36q0 35 1 50q0 13 9.5 22.5t23.5 9.5l36 -2q12 0 21 -9t10 -21q0 -11 1 -16q0 -14 11 -23q24 -23 72 -23q39 0 54 17t14 64q-1 30 -16.5 42.5t-66.5 32.5q-7 3 -27.5 10.5
t-27 10.5t-22.5 10.5t-23.5 14t-19.5 16t-20.5 22t-17.5 27.5q-33 69 -8.5 128t76.5 82q6 2 17.5 5.5t43 8t60.5 1t63.5 -21t58.5 -50.5q7 -10 9 -23q0 -6 0.5 -16t0.5 -15q1 -16 -10 -27t-27 -11h-25q-14 1 -24.5 11t-11.5 25v7q0 9 -6 16q-5 7 -10.5 12t-9 7.5t-10.5 3.5
t-9.5 1h-12.5h-14q-39 0 -61.5 -36.5t-3.5 -73.5q7 -14 16 -24t22 -17t21.5 -10t28 -8.5t27.5 -8.5q62 -21 101.5 -49.5t43.5 -77.5z" />
    <glyph glyph-name="t" unicode="t" horiz-adv-x="337" 
d="M87 642q0 9 6 15.5t16 6.5h58q21 -2 21 -22l-1 -72q0 -9 6.5 -15.5t14.5 -6.5h56q21 -2 21 -22l-1 -32q1 -8 -5.5 -14.5t-15.5 -6.5l-52 -1q-9 0 -15.5 -6.5t-6.5 -14.5q0 -312 4 -340q5 -46 76 -31q20 4 25 -15q8 -28 11 -38t-2 -19.5t-16 -12.5q-47 -14 -98.5 -12
t-68.5 26q-13 19 -19 38t-7 29t-2 42q0 7 -0.5 74t-1 148.5t-0.5 111.5q0 8 -6 14.5t-14 6.5l-28 1q-8 0 -14.5 6t-6.5 15l-1 31q0 9 6.5 15.5t15.5 6.5h24q9 0 15.5 6.5t6.5 15.5z" />
    <glyph glyph-name="u" unicode="u" horiz-adv-x="514" 
d="M70 130q-2 76 2 321q0 9 -6 15t-15 6h-10q-8 0 -14.5 6t-6.5 15v35q0 9 6.5 15t14.5 6l115 -1q9 0 15 -6t6 -15q0 -25 -0.5 -113t-1.5 -103q0 -13 -1.5 -87t-0.5 -99q1 -32 28 -47.5t61 -13t62 18.5q11 6 11 20v350q0 8 -6 14t-14 6h-1q-20 2 -20 21v34q0 9 6.5 15
t14.5 6h97q9 0 15 -6t6 -14l5 -433q0 -9 6.5 -15t15.5 -6h13q8 0 14.5 -6.5t6.5 -14.5v-31q0 -8 -6 -14.5t-15 -6.5l-114 -3q-9 -1 -15 5.5t-7 15.5v1q0 3 -2.5 4t-4.5 -1q-36 -31 -105 -31q-38 0 -67 9.5t-45 24t-26 34t-13.5 35.5t-3.5 34z" />
    <glyph glyph-name="v" unicode="v" horiz-adv-x="492" 
d="M163 25l-112 436q-2 10 -12 10h-6q-18 2 -20 20l-2 33q-1 9 6 16t16 7l142 1q9 0 16 -6.5t6 -15.5v-33q0 -19 -20 -21h-5q-7 0 -11 -5t-2 -11l75 -337q2 -7 9 -7t9 7l78 337q1 6 -3 11t-10 6h-9q-9 0 -15 6t-6 15l1 31q0 9 6.5 15.5t15.5 6.5l107 1l43 -1q9 0 15.5 -6.5
t6.5 -14.5v-32q0 -9 -6 -15t-15 -6h-11q-11 0 -13 -10l-111 -438q-7 -25 -32 -25l-100 1q-24 0 -31 24z" />
    <glyph glyph-name="w" unicode="w" horiz-adv-x="727" 
d="M391 526l102 -346q1 -3 4 -3t4 4l54 266q2 10 -4 17.5t-15 7.5q-18 0 -20 19l-2 33q-1 9 5 15.5t14 6.5l163 2q8 0 14.5 -6t6.5 -14l-1 -35q0 -8 -6 -14t-14 -6h-13q-16 0 -20 -16l-99 -441q-4 -16 -20 -16h-70q-15 0 -20 15l-91 347q-1 2 -4 2t-4 -2l-91 -349
q-3 -15 -20 -15h-64q-15 0 -19 16l-101 441q-4 15 -18 15l-13 1q-8 0 -13.5 6t-5.5 14v38q0 8 6.5 14t14.5 6l151 -2q18 0 20 -19l2 -34q0 -9 -5.5 -15t-14.5 -6h-2q-9 -1 -14.5 -8t-3.5 -16l47 -269q1 -3 3.5 -3.5t4.5 2.5l105 347q6 21 29 21h10q22 -2 28 -21z" />
    <glyph glyph-name="x" unicode="x" horiz-adv-x="512" 
d="M178 74q10 0 17.5 -7t7.5 -18v-21q0 -11 -8 -19.5t-20 -8.5l-126 1q-12 0 -20.5 9t-7.5 20l1 22q0 9 6.5 16t16.5 8l8 1q14 0 22 13l121 176q13 22 -1 41l-108 156q-7 12 -22 12l-12 1q-10 0 -17.5 7.5t-7.5 17.5l1 19q0 11 8 19t20 8h132q12 0 20 -8.5t8 -20.5l-2 -16
q0 -22 -23 -24q-4 -1 -5.5 -4.5t1.5 -6.5l60 -94q8 -10 17 -1l60 91q4 4 1.5 8.5t-7.5 5.5q-9 0 -16 7t-7 16l-2 21q0 12 8 20.5t20 8.5l130 -1q11 0 19 -7.5t9 -18.5l1 -21q0 -11 -7 -18.5t-17 -7.5l-8 -1q-14 0 -26 -12l-110 -162q-15 -17 -2 -35l118 -176q12 -15 29 -15
l9 -1q11 0 18 -7t7 -18v-21q-1 -12 -9 -20t-19 -8h-142q-11 0 -19.5 7.5t-8.5 18.5l-1 22q-1 11 6.5 18.5t18.5 7.5q5 1 8 6t0 10l-60 100q-3 5 -11 6t-12 -4l-71 -107q-2 -3 0 -7t6 -4z" />
    <glyph glyph-name="y" unicode="y" horiz-adv-x="495" 
d="M47 -248q-1 0 -5 2t-5.5 3t-4.5 3.5t-3.5 5.5t-1.5 7.5t0 11t3 15.5q9 38 38 26q42 -5 68.5 3.5t41.5 41.5q12 25 22 132q0 8 -2 11l-148 448q-3 10 -13 10q-11 1 -19 9.5t-8 19.5l1 21q0 10 7.5 17.5t17.5 7.5l114 -1q11 0 18.5 -8t6.5 -19l-3 -33q-1 -13 -24 -13
q-6 0 -4 -6q75 -279 102 -347q1 -3 4 -2.5t4 3.5q10 34 44.5 184.5t34.5 151.5q1 5 -1.5 9.5t-7.5 5.5l-9 1q-23 4 -23 27l-1 21q0 11 7.5 18.5t17.5 7.5h142q12 1 19.5 -7.5t6.5 -20.5l-3 -23q-3 -23 -27 -25h-7q-13 0 -17 -13l-50 -198q-16 -49 -52.5 -198.5t-59.5 -206.5
q-14 -39 -38.5 -64t-49 -35t-52.5 -12t-46.5 0.5t-34.5 7.5z" />
    <glyph glyph-name="z" unicode="z" horiz-adv-x="444" 
d="M166 96h140q8 0 14 5.5t6 13.5v1q2 19 21 19l42 -2q8 0 13.5 -6t5.5 -14l-1 -92q0 -8 -6 -14t-14 -6l-154 1h-179q-21 0 -23 22l-1 39q0 15 7 25l248 364q2 5 -0.5 9.5t-7.5 3.5l-148 -2q-17 0 -19 -17v-16q-2 -17 -20 -17l-39 1q-8 0 -14 6t-6 14l2 95q0 8 5.5 13.5
t13.5 5.5h338q9 0 16 -6.5t7 -15.5l1 -30q0 -15 -7 -25l-248 -363q-2 -4 0.5 -8t6.5 -4z" />
    <glyph glyph-name="braceleft" unicode="{" horiz-adv-x="290" 
d="M270 -144v-12.5v-9.5t-1.5 -6.5t-4.5 -3.5t-8 -2h-19q-64 13 -100.5 65.5t-36.5 109.5l1 126l-7 74q-6 40 -27 74l-22 23q-5 7 -5 28t5 28l27 28q27 39 27 93v126q0 57 36 109.5t100 65.5h20q5 -1 8 -2t4 -3.5t1 -6.5v-9.5v-12.5q0 -2 -6.5 -3.5t-17 -5t-20.5 -10.5
t-17 -23.5t-7 -39.5q0 -120 -13 -194.5t-45 -121.5l-8 -10q-8 -13 0 -24q63 -88 63 -168q0 -25 2.5 -87t2.5 -113q0 -38 17 -56t34 -21.5t17 -4.5z" />
    <glyph glyph-name="bar" unicode="|" horiz-adv-x="209" 
d="M82 726h37q28 0 28 -29l2 -664q0 -36 -30 -36q-13 -1 -28 -1q-13 0 -21 11t-8 28l-2 655q0 36 22 36z" />
    <glyph glyph-name="braceright" unicode="}" horiz-adv-x="291" 
d="M20 -144q0 1 17 4.5t34.5 21.5t17.5 56q0 51 2 113t2 87q0 80 63 168q9 12 0 24l-7 10q-59 87 -59 316q0 29 -10.5 47t-23.5 23t-23.5 7.5t-10.5 4.5v12.5v9.5t1.5 6.5t4.5 3.5t8 2h19q64 -13 100.5 -65.5t36.5 -109.5l-1 -126q0 -52 27 -93l27 -28q5 -7 5.5 -28
t-4.5 -28l-23 -23q-21 -34 -27 -74l-2 -12q-1 -12 -2.5 -31t-1.5 -31v-126q0 -57 -36 -109.5t-100 -65.5h-20q-5 1 -8 2t-4.5 3.5t-1.5 6.5v9.5v12.5z" />
    <glyph glyph-name="asciitilde" unicode="~" horiz-adv-x="569" 
d="M251 278q-22 21 -45 27.5t-41.5 0t-32.5 -18t-22 -26.5q-7 -14 -26 -11l-48 6q-10 1 -14 10t1 20q48 115 149 115q39 0 78 -15.5t63 -36.5q2 -2 11.5 -10.5t12 -10.5t10.5 -8.5t12 -8.5t10.5 -5.5t12 -5t11.5 -1.5q26 -1 40.5 8.5t24.5 37.5q3 9 7.5 11t18.5 2l46 -2
q9 0 14.5 -7t3.5 -16q-3 -12 -8 -28q-14 -39 -54 -67.5t-94 -27.5q-13 0 -24 1.5t-21.5 4.5t-18 5t-16.5 8t-14 8.5t-13.5 10t-11.5 9.5t-11.5 11t-10.5 10z" />
    <glyph glyph-name="nbspace" unicode="&#xa0;" horiz-adv-x="0" 
 />
    <glyph glyph-name="exclamdown" unicode="&#xa1;" horiz-adv-x="245" 
d="M69 226q0 28 13.5 39t43.5 11q31 0 42.5 -9t12.5 -43q1 -17 0 -182.5t0 -222.5q1 -35 -10 -51t-36 -15h-12h-14.5h-11.5q-28 1 -30 58q-1 60 -0.5 135t1.5 172t1 108zM72 350q-7 7 -10 33t-1 41q2 17 13 25t22.5 9.5t35.5 1.5q53 -2 53 -60q0 -22 -1.5 -33t-11 -22
t-28.5 -12q-51 -4 -72 17z" />
    <glyph glyph-name="cent" unicode="&#xa2;" horiz-adv-x="458" 
d="M408 143q14 0 23 -11.5t6 -25.5q-14 -61 -53 -91q-21 -17 -82 -26q-11 -2 -11 -13t-0.5 -36t-0.5 -37q0 -15 -11.5 -19.5t-33.5 -5.5q-34 0 -35 31q-1 19 -1 71q0 10 -9 12q-110 26 -141 119q-6 22 -8 33q-10 45 -11 122q2 73 10.5 108t33.5 73q19 29 50.5 53t60.5 30
q16 4 14 18v60q1 22 9 28.5t29 8.5q22 1 33 -5.5t11 -29.5q0 -38 -1 -60q0 -15 14 -17q58 -12 111 -61q19 -19 21 -47v-33q0 -15 -11 -25.5t-26 -10.5q-5 0 -15.5 0.5t-15.5 0.5q-15 0 -25 10t-11 25v1q0 3 0.5 9t0.5 9t-1.5 7t-5.5 7q-22 21 -41 26t-53 0q-79 -7 -88 -151
q-4 -67 1 -101.5t25 -76.5q12 -24 38 -44.5t49 -17.5q29 2 45 14t29 46q10 23 34 23h43z" />
    <glyph glyph-name="sterling" unicode="&#xa3;" horiz-adv-x="471" 
d="M428 144q10 0 16.5 -7t6.5 -17l-2 -95q0 -10 -6.5 -16.5t-16.5 -6.5h-344q-12 0 -20.5 9t-8.5 21l-1 58q0 6 3 14l4 9q38 82 50 170q2 7 -6 7h-65q-4 0 -7 1t-5 4t-3 6.5t-1 9.5v11.5t-0.5 15t-0.5 17.5v4q0 10 1 13t8 5.5t22 2.5h58q6 0 6 6q10 183 15 201
q17 60 44.5 82t72.5 27q89 11 151 -39q17 -13 4 -25l-33 -41q-12 -10 -20 1q-20 33 -68 29h-1q-11 -2 -20.5 -7t-15.5 -14.5t-11 -19.5t-7.5 -25.5t-4.5 -28t-2.5 -33t-1 -34t-0.5 -37v-36.5q0 -6 6 -6q23 0 55.5 -0.5t50.5 -1t23 -0.5q5 -1 8 -2t4 -4t1.5 -5.5t0.5 -7.5v-8
v-47q-1 -14 -23 -14h-131q-4 0 -6 -5q-22 -106 -67 -172q-3 -5 -0.5 -9t7.5 -5l208 -1q10 0 17 6.5t7 16.5q1 9 8 16t16 7h25z" />
    <glyph glyph-name="currency" unicode="&#xa4;" horiz-adv-x="529" 
d="M329 274q-24 -6 -105 -8q-8 0 -8 -7v-35q0 -7 8 -7q158 2 185 0q6 0 9.5 -3t3.5 -5.5v-9.5t1 -11q1 -9 -1 -30q0 -16 -22 -16q-29 -1 -177 -1q-7 -2 -7 -8q-1 -20 -1 -46q0 -10 10 -10l47 -1q10 0 10 -10l1 -57q0 -10 -9 -10h-217q-9 0 -9 10l-1 57q0 10 9 10l48 2
q9 2 9 10v43q0 8 -8 8h-43q-14 0 -17 5.5t-4 32.5v12q-1 10 -0.5 16t7 8.5t23.5 2.5h35q8 0 8 8v32q0 9 -8 9h-46q-15 1 -17 7t-2 44v12.5t3 7t9.5 5.5t19.5 0q20 0 34 -1q8 0 8 9q0 37 0.5 132t1.5 120q0 9 -6.5 15t-14.5 6l-20 1q-19 0 -21 21v33q-1 9 5.5 15.5t15.5 6.5
h54q17 0 57.5 0.5t73 0t56.5 -4.5q26 -4 50.5 -13.5t51 -28t45 -51t24.5 -76.5q4 -113 -34 -171t-125 -81zM366 562q-11 37 -52 53.5t-88 5.5q-9 -4 -9 -13q0 -174 1 -260q0 -10 10 -10q64 1 106.5 32t43.5 84q0 9 0.5 25.5t0.5 27t-3 26t-10 29.5z" />
    <glyph glyph-name="yen" unicode="&#xa5;" horiz-adv-x="521" 
d="M506 693q6 -1 10.5 -5.5t3.5 -10.5q0 -13 -2 -45q0 -15 -16 -15q-17 2 -18 -2q-67 -120 -96 -166q-9 -15 -54 -96q-1 -2 2 -5t6 -3q77 0 85 -1q6 0 9.5 -2.5t3.5 -5.5v-9t1 -10q1 -7 1 -27q-1 -15 -23 -15q-15 0 -113 -2q-8 0 -8 -7q0 -25 1 -39q0 -8 7 -8h122
q5 -1 8.5 -2t4.5 -4t1.5 -5.5t0.5 -7v-7.5v-27q0 -13 -22 -15q-7 0 -46 -0.5t-66 -0.5q-8 0 -8 -8q0 -11 0.5 -28t0.5 -21q2 -13 13 -13l34 -2q13 0 13 -12l1 -47q0 -16 -15 -16l-186 -1q-6 0 -10.5 4.5t-4.5 10.5l1 48q0 13 9 13h28q5 0 9.5 4.5t4.5 10.5v42v6q0 8 -8 8
q-54 -1 -111 -1q-13 0 -16 5t-4 29v11q-1 9 -0.5 14.5t7 7.5t23.5 2q2 0 17 0.5t38.5 0.5h46.5q8 0 8 8v38q0 8 -8 8h-73l-40 -1q-16 0 -18 8q-1 5 -3 39q-1 9 -0.5 14.5t7.5 8t23 2.5h69q10 0 6 11q-7 18 -22 49t-20 42q-66 136 -78 166q-3 5 -8 5q-9 0 -14 1q-8 0 -14 6
t-6 14q-1 12 -1 36q0 8 5.5 13t13.5 4q25 -1 81.5 0.5t63.5 1.5q8 0 13 -5t5 -13v-40q0 -7 -5.5 -12t-12.5 -5h-10q-5 0 -7.5 -4t-0.5 -8q49 -116 103 -192q2 -3 5 -3.5t5 2.5q3 5 21 29t26 38q55 91 74 126q2 4 0 8t-7 5h-22q-15 0 -17 15q0 3 -3 42q-1 7 3.5 12t11.5 5
q86 4 160 1z" />
    <glyph glyph-name="brokenbar" unicode="&#xa6;" horiz-adv-x="210" 
d="M101 728q13 0 17 -1h7q9 0 15.5 -5.5t6.5 -12.5l3 -290q0 -7 -6.5 -12.5t-15.5 -5.5h-5q-1 0 -1 -0.5t-1 -0.5q-9 -1 -35 1q-10 1 -17 7.5t-7 16.5l-2 286q0 13 13 15q22 2 28 2zM101 327q9 0 17 -2h7q9 0 15.5 -5.5t6.5 -12.5l3 -290q0 -7 -6.5 -12.5t-15.5 -5.5h-7
q-16 -1 -35 0q-10 1 -17 8t-7 17l-2 285q0 13 13 15q3 0 11.5 1.5t16.5 1.5z" />
    <glyph glyph-name="section" unicode="&#xa7;" horiz-adv-x="435" 
d="M413 -20q7 -78 -22 -130.5t-81 -70.5q-35 -12 -78.5 -14.5t-96.5 12.5t-93 50q-11 9 -11 23q0 10 -0.5 30t-0.5 28q-1 11 6.5 19t18.5 8h43q25 0 22 -26l1 -18q0 -9 7 -18q32 -30 84 -26t74.5 29.5t20.5 74.5q-1 30 -22.5 48.5t-72.5 38.5q-9 4 -38 14.5t-40.5 16t-32 17
t-34 27t-25.5 36.5q-32 58 -16.5 115.5t69.5 88.5q15 10 2 23q-30 24 -50 70q-22 53 -13.5 98t34 76.5t64.5 51.5q29 15 72.5 20t96 -13t81.5 -64q8 -14 10 -34v-12v-13.5v-8.5q0 -10 -7.5 -17t-21.5 -7l-41 1q-10 0 -17.5 6.5t-7.5 15.5l-1 17q0 5 -4 11q-32 39 -92 30
q-39 -6 -59.5 -49t-6.5 -82q5 -15 15.5 -26t26 -18.5t27.5 -12t33.5 -10t30.5 -8.5q56 -19 98.5 -57.5t46.5 -88.5q9 -94 -69 -148q-6 -4 -6 -12t7 -12q64 -41 69 -100zM127 183q6 -11 15 -19.5t16 -13.5t22 -10.5t21.5 -7.5t25.5 -6.5t23 -5.5q9 -2 17 3q42 32 40 92
q-2 70 -95 106l-23 9q-5 2 -9 0q-38 -13 -54.5 -63t1.5 -84z" />
    <glyph glyph-name="dieresis" unicode="&#xa8;" horiz-adv-x="323" 
d="M291 642q0 -31 -60 -29q-24 1 -33 10.5t-10 30.5q-1 28 12 39.5t45 9.5q26 0 37.5 -12.5t9.5 -26t-1 -22.5zM135 642q0 -31 -60 -29q-24 1 -33 10.5t-11 30.5q-1 28 12.5 39.5t44.5 9.5q14 0 23.5 -4t14.5 -8.5t7.5 -13t2.5 -13t-0.5 -13t-0.5 -9.5z" />
    <glyph glyph-name="copyright" unicode="&#xa9;" horiz-adv-x="545" 
d="M491 141q-23 -47 -58 -84q-26 -27 -72 -42.5t-94 -17.5q-40 0 -80 15.5t-66 39.5q-55 49 -76 108h-1q-24 66 -24 114q0 64 30 133q4 12 26 45q6 9 17 19t19 17l9 6q62 60 146 60q42 0 89.5 -17t76.5 -42q30 -26 63 -77q29 -46 29 -141q0 -66 -34 -136zM267 60
q80 4 132.5 69t52.5 147q0 85 -50.5 150.5t-134.5 64.5q-79 -1 -128.5 -66t-49.5 -149q0 -54 20.5 -103.5t62.5 -82t95 -30.5zM327 219h36q16 0 14 -16q-4 -27 -25 -46q-33 -33 -81 -31q-49 -1 -84 40q-21 25 -29 62q-8 42 -8 54q0 54 31 95q30 44 79 47q36 2 65 -9.5
t39 -24.5l11 -13l1 -34q0 -11 -11 -11l-30 -1q-11 -2 -13 11v15q-3 2 -8 5t-18.5 8t-24.5 5q-25 -2 -37 -25t-14 -53q0 -52 17 -87q6 -12 17.5 -20t23.5 -6q26 1 38 27q3 8 11 8z" />
    <glyph glyph-name="guillemotleft" unicode="&#xab;" horiz-adv-x="529" 
d="M280 158q2 -2 7.5 -8t7 -8.5t5 -7.5t4 -7.5t1 -7t-2 -8t-7 -8t-11.5 -8.5q-28 -16 -56 16q-70 73 -175 163q-12 11 -12.5 26t11.5 26q22 20 78.5 75.5t105.5 102.5q13 11 34 2.5t30 -25.5q5 -14 -12 -33q-65 -66 -121 -135q-7 -9 0 -18q25 -32 63 -77t50 -60zM465 177
q3 -5 10.5 -13.5t9.5 -13t3.5 -11t-4 -12.5t-16.5 -13q-19 -8 -29 -4.5t-27 19.5q-92 88 -157 146q-11 11 -11.5 25.5t11.5 25.5q28 25 166 159q12 11 33.5 2.5t29.5 -25.5q8 -13 -11 -32q-29 -29 -62.5 -63.5t-51.5 -51.5q-10 -10 -1 -21q19 -22 56 -59.5t51 -57.5z" />
    <glyph glyph-name="uni00AD" unicode="&#xad;" horiz-adv-x="359" 
d="M338 270q1 -34 -30 -35q-27 -1 -250 -1q-23 1 -29.5 9t-7.5 29q-1 23 5.5 34t29.5 11q11 0 127 -0.5t131 -0.5q24 0 24 -46z" />
    <glyph glyph-name="registered" unicode="&#xae;" horiz-adv-x="364" 
d="M323 494q3 -42 -12 -73t-40 -46t-46.5 -21.5t-40.5 -6.5q-22 0 -45 6.5t-46 22t-38 44.5t-15 68q0 64 43.5 98.5t96.5 36.5q13 0 33 -5t45 -17.5t43.5 -40.5t21.5 -66zM180 387q43 0 70 28.5t26 73.5q-2 43 -27.5 72.5t-69.5 28.5q-40 -1 -67.5 -28.5t-26.5 -69.5
q2 -43 29.5 -74t65.5 -31zM125 438h3q2 0 2 3l1 91q0 6 -6 6t-6 6l1 12q0 4 5 6q2 0 16.5 0.5t30.5 0.5t31 -1q32 -3 34 -39q1 -33 -26 -43q11 -1 15.5 -9.5t5 -19t1.5 -12.5q4 -4 8 -4q5 -2 5 -7l-3 -10q0 -5 -5 -5q-25 -2 -34 5q-8 10 -8 33q0 24 -17 24h-12v-34l5 -3
q5 0 5 -4l-1 -13q0 -6 -5 -6h-43q-6 0 -6 6v15q0 2 3 2zM203 521q0 10 -9 14t-18 3h-9l-1 -35q37 -6 37 18z" />
    <glyph glyph-name="macron" unicode="&#xaf;" horiz-adv-x="318" 
d="M287 652v-16q0 -22 -30 -22h-186q-24 0 -32.5 7t-8.5 24q0 33 39 33h54t80 0.5t55 0.5q16 0 23 -7.5t6 -19.5z" />
    <glyph glyph-name="degree" unicode="&#xb0;" horiz-adv-x="308" 
d="M285 590q-4 -44 -45 -86q-40 -42 -133 -22q-18 4 -39.5 20t-31.5 36q-15 31 -15.5 74t11.5 69q33 78 124 76q82 -3 121 -82q13 -28 8 -85zM148 530q48 1 68 51q8 24 4 57q-2 30 -20.5 49.5t-44.5 20.5q-30 1 -46 -22.5t-20 -49.5q-6 -27 3 -59q6 -21 22 -34t34 -13z" />
    <glyph glyph-name="plusminus" unicode="&#xb1;" horiz-adv-x="379" 
d="M348 407v-28q-1 -7 -6.5 -12.5t-12.5 -5.5q-4 0 -37 -0.5t-57 -0.5q-7 0 -7 -6v-107q-2 -17 -26 -19h-8.5h-12.5h-9q-7 0 -13.5 6t-6.5 13q-1 17 -1 107q0 6 -7 6q-83 0 -91 1t-12.5 1.5t-6.5 4.5t-2 7t-0.5 13t-0.5 17q-1 9 0 14t7 8.5t17 3.5h89q7 0 7 7q0 94 1 103
q0 7 1 11.5t3 7t5.5 3.5t8.5 1h12h17q15 1 22 -3t7 -22v-101q0 -6 7 -6q88 0 95 -1q16 -1 18 -23zM348 149v-27q-1 -7 -6.5 -12.5t-12.5 -5.5q-33 -1 -146 -1.5t-130 0.5q-8 1 -12.5 1.5t-6.5 4.5t-2 7t-0.5 13.5t-0.5 17.5q-1 9 0 14t7 8.5t17 3.5h46.5h90.5h89h49
q16 -2 18 -24z" />
    <glyph glyph-name="acute" unicode="&#xb4;" horiz-adv-x="213" 
d="M38 650q50 84 66 109q25 35 60 10q17 -12 18.5 -28t-12.5 -30q-46 -45 -98 -91q-20 -18 -36 -6q-14 12 2 36z" />
    <glyph glyph-name="paragraph" unicode="&#xb6;" horiz-adv-x="439" 
d="M236 258q-196 0 -196 226q0 54 18 95.5t47 65t60.5 35t63.5 11.5q143 0 158 -1q17 -2 17 -19v-42q-1 -8 -7 -14t-14 -5q-3 0 -8 0.5t-7 0.5q-7 1 -12.5 -4t-5.5 -13q0 -198 4 -498q0 -18 18 -20l26 -2q8 0 13.5 -6t5.5 -14l1 -36q1 -8 -5 -14t-14 -6h-198q-17 0 -19 18
q-1 12 -1 41q2 20 20 18q21 0 33 1q8 0 13 5t5 13l-1 149q0 6 -4.5 10.5t-10.5 4.5z" />
    <glyph glyph-name="cedilla" unicode="&#xb8;" horiz-adv-x="228" 
d="M105 -194q-22 0 -48 8q-9 4 -13 12t0 16l1 5q7 16 24 13q54 -15 69 6q9 16 5 29q-7 24 -33.5 29t-49.5 -2l-23 -7q-3 -1 -5 1t-1 5l4 31q1 1 1 3l15 45l56 -1l-12 -27q-2 -3 -1 -6t3 -3q82 13 98 -54q12 -48 -24 -81q-24 -22 -66 -22z" />
    <glyph glyph-name="guillemotright" unicode="&#xbb;" horiz-adv-x="531" 
d="M249 158q75 89 117 141q4 5 -1 10q-54 68 -123 139q-17 19 -12 33q9 17 30 25.5t33 -2.5q185 -178 186 -179q11 -10 11 -24.5t-11 -25.5q-29 -24 -91 -83.5t-86 -80.5q-17 -16 -26.5 -19.5t-29.5 3.5q-9 6 -14 12t-7 9.5t1.5 11t4.5 9t9 11t9 10.5zM65 177q17 20 52 57.5
t56 61.5q7 9 -1 17q-13 13 -48.5 49t-66.5 68q-18 18 -12 32q9 17 30.5 25.5t33.5 -2.5q125 -121 168 -161q11 -10 10.5 -24t-11.5 -24q-28 -25 -159 -147q-17 -16 -26.5 -19.5t-29.5 4.5q-8 5 -13 9.5t-6 9.5t-2 8t3 9t5.5 8t8 9.5t8.5 9.5z" />
    <glyph glyph-name="questiondown" unicode="&#xbf;" horiz-adv-x="403" 
d="M336 -33h32q35 0 35 -37q0 -23 -11 -71q-33 -114 -165 -117q-21 -1 -42.5 2.5t-48 14.5t-49.5 36.5t-37 63.5q-27 76 19 160q3 6 16 31t19 34t23 31.5t42 47.5q23 23 21 84q-1 16 8 24t25 8h33q35 0 35 -36q0 -37 -6 -75q-3 -13 -31 -49t-40 -45q-68 -50 -63 -149
q5 -71 40 -93q20 -15 50 -8.5t44 35.5q4 8 7.5 23.5t5.5 26.5t2 12q2 46 36 46zM289 444q7 -7 8.5 -36t-0.5 -40q-2 -17 -13 -25.5t-22.5 -9.5t-35.5 -1q-53 2 -53 59q0 65 49 69q47 4 67 -16z" />
    <glyph glyph-name="Agrave" unicode="&#xc0;" 
d="M560 77q8 0 13.5 -6t5.5 -14v-39q0 -8 -6 -13.5t-14 -5.5l-162 1q-8 0 -13.5 5.5t-5.5 13.5v39q0 8 5.5 13.5t13.5 5.5h14q11 2 8 12q-5 13 -17.5 62.5t-19.5 70.5q-3 13 -22 11q-22 -1 -69 0t-57 1q-15 0 -18 -13q-13 -39 -27 -92q-2 -6 -7.5 -20.5t-6.5 -18.5t3.5 -8.5
t9.5 -4.5l17 -1q10 0 16.5 -7t6.5 -17l-1 -28q0 -10 -7 -17t-17 -7h-164q-12 0 -20.5 8.5t-8.5 20.5l1 22q2 25 27 27h7q14 0 19 14q27 67 196 590q5 13 16 21t24 7h14q31 -2 39 -30q148 -496 182 -589q5 -12 19 -14h6zM347 311q7 0 11 5t2 11q-7 33 -27 109.5t-21 79.5
q0 3 -4 3h-7q-4 0 -4 -4q-35 -118 -52 -187q-2 -6 2 -11t10 -5q12 0 45 -0.5t45 -0.5zM323 808q16 -24 2 -36q-16 -12 -36 6q-52 46 -98 91q-14 14 -12.5 30t18.5 28q35 25 59 -10q19 -28 67 -109z" />
    <glyph glyph-name="Aacute" unicode="&#xc1;" 
d="M560 77q8 0 13.5 -6t5.5 -14v-39q0 -8 -6 -13.5t-14 -5.5l-162 1q-8 0 -13.5 5.5t-5.5 13.5v39q0 8 5.5 13.5t13.5 5.5h14q11 2 8 12q-5 13 -17.5 62.5t-19.5 70.5q-3 13 -22 11q-22 -1 -69 0t-57 1q-15 0 -18 -13q-13 -39 -27 -92q-2 -6 -7.5 -20.5t-6.5 -18.5t3.5 -8.5
t9.5 -4.5l17 -1q10 0 16.5 -7t6.5 -17l-1 -28q0 -10 -7 -17t-17 -7h-164q-12 0 -20.5 8.5t-8.5 20.5l1 22q2 25 27 27h7q14 0 19 14q27 67 196 590q5 13 16 21t24 7h14q31 -2 39 -30q148 -496 182 -589q5 -12 19 -14h6zM347 311q7 0 11 5t2 11q-7 33 -27 109.5t-21 79.5
q0 3 -4 3h-7q-4 0 -4 -4q-35 -118 -52 -187q-2 -6 2 -11t10 -5q12 0 45 -0.5t45 -0.5zM300 805q50 84 66 109q25 35 60 10q17 -12 18.5 -28t-12.5 -30q-46 -45 -98 -91q-20 -18 -36 -6q-14 12 2 36z" />
    <glyph glyph-name="Acircumflex" unicode="&#xc2;" 
d="M560 77q8 0 13.5 -6t5.5 -14v-39q0 -8 -6 -13.5t-14 -5.5l-162 1q-8 0 -13.5 5.5t-5.5 13.5v39q0 8 5.5 13.5t13.5 5.5h14q11 2 8 12q-5 13 -17.5 62.5t-19.5 70.5q-3 13 -22 11q-22 -1 -69 0t-57 1q-15 0 -18 -13q-13 -39 -27 -92q-2 -6 -7.5 -20.5t-6.5 -18.5t3.5 -8.5
t9.5 -4.5l17 -1q10 0 16.5 -7t6.5 -17l-1 -28q0 -10 -7 -17t-17 -7h-164q-12 0 -20.5 8.5t-8.5 20.5l1 22q2 25 27 27h7q14 0 19 14q27 67 196 590q5 13 16 21t24 7h14q31 -2 39 -30q148 -496 182 -589q5 -12 19 -14h6zM347 311q7 0 11 5t2 11q-7 33 -27 109.5t-21 79.5
q0 3 -4 3h-7q-4 0 -4 -4q-35 -118 -52 -187q-2 -6 2 -11t10 -5q12 0 45 -0.5t45 -0.5zM241 782q-5 -3 -13 -9.5t-11.5 -8t-9 -3.5t-10 -0.5t-9.5 6.5q-20 18 13 51q14 14 27.5 25.5t25.5 21.5t17 14q17 15 34 15t32 -15q14 -13 38 -33.5t43 -39.5q25 -24 4 -42
q-15 -14 -51 14q-16 13 -59 40q-7 3 -13 0q-26 -14 -58 -36z" />
    <glyph glyph-name="Atilde" unicode="&#xc3;" 
d="M560 77q8 0 13.5 -6t5.5 -14v-39q0 -8 -6 -13.5t-14 -5.5l-162 1q-8 0 -13.5 5.5t-5.5 13.5v39q0 8 5.5 13.5t13.5 5.5h14q11 2 8 12q-5 13 -17.5 62.5t-19.5 70.5q-3 13 -22 11q-22 -1 -69 0t-57 1q-15 0 -18 -13q-13 -39 -27 -92q-2 -6 -7.5 -20.5t-6.5 -18.5t3.5 -8.5
t9.5 -4.5l17 -1q10 0 16.5 -7t6.5 -17l-1 -28q0 -10 -7 -17t-17 -7h-164q-12 0 -20.5 8.5t-8.5 20.5l1 22q2 25 27 27h7q14 0 19 14q27 67 196 590q5 13 16 21t24 7h14q31 -2 39 -30q148 -496 182 -589q5 -12 19 -14h6zM347 311q7 0 11 5t2 11q-7 33 -27 109.5t-21 79.5
q0 3 -4 3h-7q-4 0 -4 -4q-35 -118 -52 -187q-2 -6 2 -11t10 -5q12 0 45 -0.5t45 -0.5zM358 769q-8 0 -16.5 2t-14 4t-14.5 7.5t-12 7.5t-13 9l-10 7q-20 14 -40 7t-29 -31q-6 -20 -36 -14q-15 3 -21 9t-4 15q8 48 35 66.5t57 18.5q29 1 70 -31q29 -22 44 -22q28 0 38 30
q7 24 36 21q16 -2 25 -10t6 -21q-7 -32 -25.5 -49.5t-35 -21.5t-40.5 -4z" />
    <glyph glyph-name="Adieresis" unicode="&#xc4;" 
d="M560 77q8 0 13.5 -6t5.5 -14v-39q0 -8 -6 -13.5t-14 -5.5l-162 1q-8 0 -13.5 5.5t-5.5 13.5v39q0 8 5.5 13.5t13.5 5.5h14q11 2 8 12q-5 13 -17.5 62.5t-19.5 70.5q-3 13 -22 11q-22 -1 -69 0t-57 1q-15 0 -18 -13q-13 -39 -27 -92q-2 -6 -7.5 -20.5t-6.5 -18.5t3.5 -8.5
t9.5 -4.5l17 -1q10 0 16.5 -7t6.5 -17l-1 -28q0 -10 -7 -17t-17 -7h-164q-12 0 -20.5 8.5t-8.5 20.5l1 22q2 25 27 27h7q14 0 19 14q27 67 196 590q5 13 16 21t24 7h14q31 -2 39 -30q148 -496 182 -589q5 -12 19 -14h6zM347 311q7 0 11 5t2 11q-7 33 -27 109.5t-21 79.5
q0 3 -4 3h-7q-4 0 -4 -4q-35 -118 -52 -187q-2 -6 2 -11t10 -5q12 0 45 -0.5t45 -0.5zM438 802q0 -31 -60 -29q-24 1 -33 10.5t-10 30.5q-1 28 12 39.5t45 9.5q26 0 37.5 -12.5t9.5 -26t-1 -22.5zM282 802q0 -31 -60 -29q-24 1 -33 10.5t-11 30.5q-1 28 12.5 39.5t44.5 9.5
q14 0 23.5 -4t14.5 -8.5t7.5 -13t2.5 -13t-0.5 -13t-0.5 -9.5z" />
    <glyph glyph-name="Aring" unicode="&#xc5;" 
d="M560 77q8 0 13.5 -6t5.5 -14v-39q0 -8 -6 -13.5t-14 -5.5l-162 1q-8 0 -13.5 5.5t-5.5 13.5v39q0 8 5.5 13.5t13.5 5.5h14q11 2 8 12q-5 13 -17.5 62.5t-19.5 70.5q-3 13 -22 11q-22 -1 -69 0t-57 1q-15 0 -18 -13q-13 -39 -27 -92q-2 -6 -7.5 -20.5t-6.5 -18.5t3.5 -8.5
t9.5 -4.5l17 -1q10 0 16.5 -7t6.5 -17l-1 -28q0 -10 -7 -17t-17 -7h-164q-12 0 -20.5 8.5t-8.5 20.5l1 22q2 25 27 27h7q14 0 19 14q27 67 196 590q5 13 16 21t24 7h14q31 -2 39 -30q148 -496 182 -589q5 -12 19 -14h6zM347 311q7 0 11 5t2 11q-7 33 -27 109.5t-21 79.5
q0 3 -4 3h-7q-4 0 -4 -4q-35 -118 -52 -187q-2 -6 2 -11t10 -5q12 0 45 -0.5t45 -0.5zM395 822q-4 -39 -35.5 -57t-70.5 -10q-38 8 -55 41.5t-6 68.5q21 63 99 56q36 -4 53.5 -32.5t14.5 -66.5zM312 798q34 0 34 39q2 43 -31 47q-25 3 -36.5 -18.5t-1.5 -44.5t35 -23z" />
    <glyph glyph-name="AE" unicode="&#xc6;" horiz-adv-x="650" 
d="M428 605q-9 0 -15.5 -6.5t-6.5 -15.5l-3 -148q0 -9 6.5 -15.5t15.5 -6.5q98 0 130 -2q8 0 14 -6.5t7 -14.5q0 -23 -1 -35q-1 -10 -8.5 -16.5t-17.5 -5.5q-37 1 -122 1q-9 0 -15.5 -6.5t-6.5 -15.5v-214q0 -9 6 -15.5t15 -6.5q57 -3 105 -1q5 0 6 22.5t5 22.5q17 2 54 0
q15 -1 15 -17v-87q-2 -17 -18 -17q-30 0 -139.5 -0.5t-135.5 1.5q-3 0 -12 0.5t-13 0.5q-9 -1 -14 4.5t-6 15.5v37q-1 9 5.5 14.5t16.5 4.5h3q9 -1 16 5.5t7 16.5q1 38 1 116q0 10 -11 10q-16 0 -58.5 0.5t-47.5 0.5q-12 0 -18 -13l-40 -126q-2 -5 1 -9t8 -4l16 -1
q9 1 12.5 -5t3.5 -15l-1 -33q1 -8 -3 -13.5t-14 -4.5l-150 -1q-10 0 -10 10l2 54q2 9 10 9l18 2q8 0 9 6q17 50 98.5 250.5t142.5 331.5q0 1 0.5 2.5t0.5 2.5l1 1q3 13 17 13h290q9 0 15 -7t6 -16q-2 -55 -6 -90q-3 -19 -22 -19q-4 0 -15 -0.5t-16 -0.5q-20 0 -22 21
q0 5 -2 17q-3 19 -22 19q-58 -2 -87 -2zM229 302h83q10 0 10 11l2 244q0 5 -3 5t-4 -3q-28 -61 -101 -240q-2 -6 2 -11t11 -6z" />
    <glyph glyph-name="Ccedilla" unicode="&#xc7;" horiz-adv-x="506" 
d="M314 -194q-22 0 -48 8q-9 4 -13 12t0 16l1 5q7 16 24 13q54 -15 69 6q9 16 5 29q-7 24 -33.5 29t-49.5 -2l-23 -7q-3 -1 -5 1t-1 5l4 31q1 1 1 3l12 38q-68 4 -114.5 41.5t-68 96.5t-29 118.5t-4.5 124.5q2 47 6.5 84t17.5 81t33 75t54.5 55.5t80.5 33.5q136 27 228 -77
q12 -14 12 -32q0 -12 0.5 -23t0.5 -14q0 -15 -10 -25.5t-25 -11.5h-19q-14 -1 -24.5 8.5t-12.5 23.5q-1 5 -1 14q-2 23 -14 35q-31 34 -89 33q-28 -3 -48.5 -14t-32.5 -29.5t-20 -36.5t-11.5 -46t-4.5 -47.5t-1.5 -50t-1.5 -45.5q1 -30 0 -60.5t1 -59.5t5.5 -55.5t13 -49
t24 -39t38.5 -25.5t56 -9q63 0 91 83q0 11 -0.5 22.5t-0.5 15.5q0 14 10 23.5t23 8.5q8 -1 25 -1q13 0 21.5 -9t9.5 -22q0 -12 -0.5 -31t-0.5 -31q0 -10 -5 -22q-22 -61 -57 -84t-100 -27l-9 -21q-4 -9 2 -9q82 13 98 -54q12 -48 -24 -81q-24 -22 -66 -22z" />
    <glyph glyph-name="Egrave" unicode="&#xc8;" horiz-adv-x="469" 
d="M402 565q-5 0 -15.5 -0.5t-16.5 -0.5q-9 0 -15.5 6t-6.5 15l-2 18q-4 18 -22 18q-15 0 -53 -0.5t-55 -0.5q-9 0 -15.5 -6.5t-6.5 -15.5q0 -22 -3 -157q0 -9 6.5 -15.5t16.5 -6.5h151q19 -2 21 -22q0 -24 -1 -35q-2 -12 -10.5 -20t-19.5 -7q-114 3 -140 3q-9 0 -15.5 -6.5
t-6.5 -15.5q0 -38 0.5 -106t0.5 -107q0 -21 21 -23q80 -2 129 0q4 0 4 26q0 8 5 14.5t13 6.5q24 0 36 -1q9 0 15.5 -6.5t6.5 -15.5q0 -31 -3 -85q-2 -20 -21 -20q-44 1 -157 1h-157h-27q-18 0 -18 21q-1 11 -1 38q0 20 18 20l6 1h6q9 -1 14.5 6.5t5.5 17.5q2 318 2 495
q0 10 -7.5 16.5t-17.5 5.5q-8 -1 -14.5 5t-7.5 15v39q0 8 6.5 14t14.5 6q47 0 167 -0.5t174 0.5q10 0 16 -7t6 -17q-2 -67 -5 -92q-3 -19 -22 -19zM271 808q16 -24 2 -36q-16 -12 -36 6q-52 46 -98 91q-14 14 -12.5 30t18.5 28q35 25 59 -10q19 -28 67 -109z" />
    <glyph glyph-name="Eacute" unicode="&#xc9;" horiz-adv-x="469" 
d="M402 565q-5 0 -15.5 -0.5t-16.5 -0.5q-9 0 -15.5 6t-6.5 15l-2 18q-4 18 -22 18q-15 0 -53 -0.5t-55 -0.5q-9 0 -15.5 -6.5t-6.5 -15.5q0 -22 -3 -157q0 -9 6.5 -15.5t16.5 -6.5h151q19 -2 21 -22q0 -24 -1 -35q-2 -12 -10.5 -20t-19.5 -7q-114 3 -140 3q-9 0 -15.5 -6.5
t-6.5 -15.5q0 -38 0.5 -106t0.5 -107q0 -21 21 -23q80 -2 129 0q4 0 4 26q0 8 5 14.5t13 6.5q24 0 36 -1q9 0 15.5 -6.5t6.5 -15.5q0 -31 -3 -85q-2 -20 -21 -20q-44 1 -157 1h-157h-27q-18 0 -18 21q-1 11 -1 38q0 20 18 20l6 1h6q9 -1 14.5 6.5t5.5 17.5q2 318 2 495
q0 10 -7.5 16.5t-17.5 5.5q-8 -1 -14.5 5t-7.5 15v39q0 8 6.5 14t14.5 6q47 0 167 -0.5t174 0.5q10 0 16 -7t6 -17q-2 -67 -5 -92q-3 -19 -22 -19zM231 803q50 84 66 109q25 35 60 10q17 -12 18.5 -28t-12.5 -30q-46 -45 -98 -91q-20 -18 -36 -6q-14 12 2 36z" />
    <glyph glyph-name="Ecircumflex" unicode="&#xca;" horiz-adv-x="469" 
d="M402 565q-5 0 -15.5 -0.5t-16.5 -0.5q-9 0 -15.5 6t-6.5 15l-2 18q-4 18 -22 18q-15 0 -53 -0.5t-55 -0.5q-9 0 -15.5 -6.5t-6.5 -15.5q0 -22 -3 -157q0 -9 6.5 -15.5t16.5 -6.5h151q19 -2 21 -22q0 -24 -1 -35q-2 -12 -10.5 -20t-19.5 -7q-114 3 -140 3q-9 0 -15.5 -6.5
t-6.5 -15.5q0 -38 0.5 -106t0.5 -107q0 -21 21 -23q80 -2 129 0q4 0 4 26q0 8 5 14.5t13 6.5q24 0 36 -1q9 0 15.5 -6.5t6.5 -15.5q0 -31 -3 -85q-2 -20 -21 -20q-44 1 -157 1h-157h-27q-18 0 -18 21q-1 11 -1 38q0 20 18 20l6 1h6q9 -1 14.5 6.5t5.5 17.5q2 318 2 495
q0 10 -7.5 16.5t-17.5 5.5q-8 -1 -14.5 5t-7.5 15v39q0 8 6.5 14t14.5 6q47 0 167 -0.5t174 0.5q10 0 16 -7t6 -17q-2 -67 -5 -92q-3 -19 -22 -19zM174 787q-5 -3 -13 -9.5t-11.5 -8t-9 -3.5t-10 -0.5t-9.5 6.5q-20 18 13 51q14 14 27.5 25.5t25.5 21.5t17 14q17 15 34 15
t32 -15q14 -13 38 -33.5t43 -39.5q25 -24 4 -42q-15 -14 -51 14q-16 13 -59 40q-7 3 -13 0q-26 -14 -58 -36z" />
    <glyph glyph-name="Edieresis" unicode="&#xcb;" horiz-adv-x="469" 
d="M402 565q-5 0 -15.5 -0.5t-16.5 -0.5q-9 0 -15.5 6t-6.5 15l-2 18q-4 18 -22 18q-15 0 -53 -0.5t-55 -0.5q-9 0 -15.5 -6.5t-6.5 -15.5q0 -22 -3 -157q0 -9 6.5 -15.5t16.5 -6.5h151q19 -2 21 -22q0 -24 -1 -35q-2 -12 -10.5 -20t-19.5 -7q-114 3 -140 3q-9 0 -15.5 -6.5
t-6.5 -15.5q0 -38 0.5 -106t0.5 -107q0 -21 21 -23q80 -2 129 0q4 0 4 26q0 8 5 14.5t13 6.5q24 0 36 -1q9 0 15.5 -6.5t6.5 -15.5q0 -31 -3 -85q-2 -20 -21 -20q-44 1 -157 1h-157h-27q-18 0 -18 21q-1 11 -1 38q0 20 18 20l6 1h6q9 -1 14.5 6.5t5.5 17.5q2 318 2 495
q0 10 -7.5 16.5t-17.5 5.5q-8 -1 -14.5 5t-7.5 15v39q0 8 6.5 14t14.5 6q47 0 167 -0.5t174 0.5q10 0 16 -7t6 -17q-2 -67 -5 -92q-3 -19 -22 -19zM370 795q0 -31 -60 -29q-24 1 -33 10.5t-10 30.5q-1 28 12 39.5t45 9.5q26 0 37.5 -12.5t9.5 -26t-1 -22.5zM214 795
q0 -31 -60 -29q-24 1 -33 10.5t-11 30.5q-1 28 12.5 39.5t44.5 9.5q14 0 23.5 -4t14.5 -8.5t7.5 -13t2.5 -13t-0.5 -13t-0.5 -9.5z" />
    <glyph glyph-name="Igrave" unicode="&#xcc;" horiz-adv-x="251" 
d="M207 75q8 -1 14 -7t5 -14l-2 -35q-2 -19 -21 -19l-142 2q-18 0 -20 19l-2 35q-1 8 4.5 14t13.5 7q18 2 18 21l-1 500q0 8 -5.5 14t-13.5 6l-10 1q-17 0 -19 19l-1 41q0 19 18 21h7q45 -2 161 -1q8 0 14 -6t6 -14v-41q0 -18 -19 -20l-13 -1q-18 -2 -18 -20v-301l1 -200
q0 -19 25 -21zM145 792q16 -24 2 -36q-16 -12 -36 6q-52 46 -98 91q-14 14 -12.5 30t18.5 28q35 25 59 -10q19 -28 67 -109z" />
    <glyph glyph-name="Iacute" unicode="&#xcd;" horiz-adv-x="244" 
d="M200 75q8 -1 14 -7t5 -14l-2 -35q-2 -19 -21 -19l-142 2q-18 0 -20 19l-2 35q-1 8 4.5 14t13.5 7q18 2 18 21l-1 500q0 8 -5.5 14t-13.5 6l-10 1q-17 0 -19 19l-1 41q0 19 18 21h7q45 -2 161 -1q8 0 14 -6t6 -14v-41q0 -18 -19 -20l-13 -1q-18 -2 -18 -20v-301l1 -200
q0 -19 25 -21zM98 802q50 84 66 109q25 35 60 10q17 -12 18.5 -28t-12.5 -30q-46 -45 -98 -91q-20 -18 -36 -6q-14 12 2 36z" />
    <glyph glyph-name="Icircumflex" unicode="&#xce;" horiz-adv-x="265" 
d="M221 75q8 -1 14 -7t5 -14l-2 -35q-2 -19 -21 -19l-142 2q-18 0 -20 19l-2 35q-1 8 4.5 14t13.5 7q18 2 18 21l-1 500q0 8 -5.5 14t-13.5 6l-10 1q-17 0 -19 19l-1 41q0 19 18 21h7q45 -2 161 -1q8 0 14 -6t6 -14v-41q0 -18 -19 -20l-13 -1q-18 -2 -18 -20v-301l1 -200
q0 -19 25 -21zM82 791q-5 -3 -13 -9.5t-11.5 -8t-9 -3.5t-10 -0.5t-9.5 6.5q-20 18 13 51q14 14 27.5 25.5t25.5 21.5t17 14q17 15 34 15t32 -15q14 -13 38 -33.5t43 -39.5q25 -24 4 -42q-15 -14 -51 14q-16 13 -59 40q-7 3 -13 0q-26 -14 -58 -36z" />
    <glyph glyph-name="Idieresis" unicode="&#xcf;" horiz-adv-x="256" 
d="M212 75q8 -1 14 -7t5 -14l-2 -35q-2 -19 -21 -19l-142 2q-18 0 -20 19l-2 35q-1 8 4.5 14t13.5 7q18 2 18 21l-1 500q0 8 -5.5 14t-13.5 6l-10 1q-17 0 -19 19l-1 41q0 19 18 21h7q45 -2 161 -1q8 0 14 -6t6 -14v-41q0 -18 -19 -20l-13 -1q-18 -2 -18 -20v-301l1 -200
q0 -19 25 -21zM261 804q0 -31 -60 -29q-24 1 -33 10.5t-10 30.5q-1 28 12 39.5t45 9.5q26 0 37.5 -12.5t9.5 -26t-1 -22.5zM105 804q0 -31 -60 -29q-24 1 -33 10.5t-11 30.5q-1 28 12.5 39.5t44.5 9.5q14 0 23.5 -4t14.5 -8.5t7.5 -13t2.5 -13t-0.5 -13t-0.5 -9.5z" />
    <glyph glyph-name="Eth" unicode="&#xd0;" horiz-adv-x="531" 
d="M488 469q8 -93 0 -221q-4 -68 -14 -111t-33.5 -75t-63.5 -46.5t-102 -15.5q-16 0 -92.5 0.5t-108.5 0.5q-11 0 -18.5 7.5t-7.5 17.5q-1 10 -1 29q0 10 7 17t17 6h1q10 0 17 7t7 17q0 8 0.5 79t0.5 123q0 8 -8 8h-28q-24 0 -32.5 5.5t-8.5 21.5q0 17 8.5 24t30.5 6h30
q8 0 8 8q0 182 -1 220q-1 10 -8.5 17t-17.5 7t-17 7t-7 17l1 29q0 22 23 24q98 5 200 1q87 -4 150.5 -72t67.5 -158zM379 149q15 91 9.5 234.5t-25.5 185.5q-28 55 -141 53q-10 0 -16.5 -7t-6.5 -17q0 -125 -1 -220q0 -8 8 -8q11 0 25.5 0.5t16.5 0.5q16 0 23 -8t6 -20v-9
q0 -22 -30 -22h-42q-8 0 -8 -8l-2 -199q0 -22 23 -24q87 -3 112 3q40 10 49 65z" />
    <glyph glyph-name="Ntilde" unicode="&#xd1;" horiz-adv-x="564" 
d="M395 239l3 360q0 7 -5 12.5t-13 5.5h-5q-7 0 -12.5 5.5t-5.5 12.5v47q0 8 5.5 13t12.5 5l142 -1q7 0 12 -5t5 -12v-46q0 -7 -5 -12.5t-12 -5.5h-10q-17 -2 -17 -18v-336l3 -246q1 -7 -4.5 -12.5t-13.5 -5.5h-42q-19 0 -26 15l-234 463q-4 4 -6 -1l1 -384q0 -7 6 -13
t13 -6h4q8 0 13.5 -6t5.5 -14l-1 -36q0 -19 -19 -19l-129 1q-19 0 -19 19l-1 35q0 8 5.5 13.5t13.5 5.5t13.5 5.5t5.5 13.5l-1 511q0 14 -15 14h-18q-15 0 -15 14v55q0 14 15 14h94q17 2 27 -16l221 -447q1 -3 4.5 -2.5t3.5 4.5zM337 768q-8 0 -16.5 2t-14 4t-14.5 7.5
t-12 7.5t-13 9l-10 7q-20 14 -40 7t-29 -31q-6 -20 -36 -14q-15 3 -21 9t-4 15q8 48 35 66.5t57 18.5q29 1 70 -31q29 -22 44 -22q28 0 38 30q7 24 36 21q16 -2 25 -10t6 -21q-7 -32 -25.5 -49.5t-35 -21.5t-40.5 -4z" />
    <glyph glyph-name="Ograve" unicode="&#xd2;" horiz-adv-x="561" 
d="M281 -9q-66 0 -114.5 31t-75.5 85.5t-39 117.5t-12 137q0 63 12.5 120t38.5 107t73 81.5t110 36.5q56 0 100 -20.5t71 -53.5t45 -78.5t24.5 -91.5t6.5 -97q0 -167 -60.5 -271t-179.5 -104zM274 629q-67 0 -101 -73.5t-34 -188.5q0 -134 37.5 -214t106.5 -80
q75 0 106.5 74.5t31.5 217.5q0 129 -32 196.5t-115 67.5zM289 806q16 -24 2 -36q-16 -12 -36 6q-52 46 -98 91q-14 14 -12.5 30t18.5 28q35 25 59 -10q19 -28 67 -109z" />
    <glyph glyph-name="Oacute" unicode="&#xd3;" horiz-adv-x="561" 
d="M281 -9q-66 0 -114.5 31t-75.5 85.5t-39 117.5t-12 137q0 63 12.5 120t38.5 107t73 81.5t110 36.5q56 0 100 -20.5t71 -53.5t45 -78.5t24.5 -91.5t6.5 -97q0 -167 -60.5 -271t-179.5 -104zM274 629q-67 0 -101 -73.5t-34 -188.5q0 -134 37.5 -214t106.5 -80
q75 0 106.5 74.5t31.5 217.5q0 129 -32 196.5t-115 67.5zM266 803q50 84 66 109q25 35 60 10q17 -12 18.5 -28t-12.5 -30q-46 -45 -98 -91q-20 -18 -36 -6q-14 12 2 36z" />
    <glyph glyph-name="Ocircumflex" unicode="&#xd4;" horiz-adv-x="561" 
d="M281 -9q-66 0 -114.5 31t-75.5 85.5t-39 117.5t-12 137q0 63 12.5 120t38.5 107t73 81.5t110 36.5q56 0 100 -20.5t71 -53.5t45 -78.5t24.5 -91.5t6.5 -97q0 -167 -60.5 -271t-179.5 -104zM274 629q-67 0 -101 -73.5t-34 -188.5q0 -134 37.5 -214t106.5 -80
q75 0 106.5 74.5t31.5 217.5q0 129 -32 196.5t-115 67.5zM216 789q-5 -3 -13 -9.5t-11.5 -8t-9 -3.5t-10 -0.5t-9.5 6.5q-20 18 13 51q14 14 27.5 25.5t25.5 21.5t17 14q17 15 34 15t32 -15q14 -13 38 -33.5t43 -39.5q25 -24 4 -42q-15 -14 -51 14q-16 13 -59 40q-7 3 -13 0
q-26 -14 -58 -36z" />
    <glyph glyph-name="Otilde" unicode="&#xd5;" horiz-adv-x="561" 
d="M281 -9q-66 0 -114.5 31t-75.5 85.5t-39 117.5t-12 137q0 63 12.5 120t38.5 107t73 81.5t110 36.5q56 0 100 -20.5t71 -53.5t45 -78.5t24.5 -91.5t6.5 -97q0 -167 -60.5 -271t-179.5 -104zM274 629q-67 0 -101 -73.5t-34 -188.5q0 -134 37.5 -214t106.5 -80
q75 0 106.5 74.5t31.5 217.5q0 129 -32 196.5t-115 67.5zM318 766q-8 0 -16.5 2t-14 4t-14.5 7.5t-12 7.5t-13 9l-10 7q-20 14 -40 7t-29 -31q-6 -20 -36 -14q-15 3 -21 9t-4 15q8 48 35 66.5t57 18.5q29 1 70 -31q29 -22 44 -22q28 0 38 30q7 24 36 21q16 -2 25 -10t6 -21
q-7 -32 -25.5 -49.5t-35 -21.5t-40.5 -4z" />
    <glyph glyph-name="Odieresis" unicode="&#xd6;" horiz-adv-x="561" 
d="M281 -9q-66 0 -114.5 31t-75.5 85.5t-39 117.5t-12 137q0 63 12.5 120t38.5 107t73 81.5t110 36.5q56 0 100 -20.5t71 -53.5t45 -78.5t24.5 -91.5t6.5 -97q0 -167 -60.5 -271t-179.5 -104zM274 629q-67 0 -101 -73.5t-34 -188.5q0 -134 37.5 -214t106.5 -80
q75 0 106.5 74.5t31.5 217.5q0 129 -32 196.5t-115 67.5zM403 796q0 -31 -60 -29q-24 1 -33 10.5t-10 30.5q-1 28 12 39.5t45 9.5q26 0 37.5 -12.5t9.5 -26t-1 -22.5zM247 796q0 -31 -60 -29q-24 1 -33 10.5t-11 30.5q-1 28 12.5 39.5t44.5 9.5q14 0 23.5 -4t14.5 -8.5
t7.5 -13t2.5 -13t-0.5 -13t-0.5 -9.5z" />
    <glyph glyph-name="multiply" unicode="&#xd7;" horiz-adv-x="360" 
d="M318 239q9 -12 10.5 -17.5t-5.5 -16.5q-6 -7 -25 -26q-12 -11 -35 11q-24 26 -77 77q-8 7 -15 0q-69 -67 -79 -75q-12 -9 -21.5 -9.5t-13.5 2.5t-15 14q-12 9 -11.5 18t16.5 24l74 75q7 9 0 16q-55 55 -71 73q-13 17 -12 26t18 27q11 10 19 9t24 -14q14 -12 73 -69
q9 -9 16 0q72 72 79 78q12 9 16.5 10t14.5 -5q7 -5 25 -26q10 -10 -9 -29q-13 -15 -75 -77q-9 -9 0 -16q72 -72 79 -80z" />
    <glyph glyph-name="Ugrave" unicode="&#xd9;" horiz-adv-x="626" 
d="M562 700q10 0 17 -7t7 -17v-32q0 -22 -27 -25q-22 -2 -22 -24v-294q0 -181 -47 -245.5t-179 -64.5q-64 0 -102.5 11t-67.5 44.5t-40.5 94.5t-11.5 161v294q0 10 -7 17t-18 7q-10 1 -16.5 7.5t-6.5 15.5l-1 31q0 23 22 26h159q10 0 17.5 -7t7.5 -17v-32q0 -10 -6.5 -16.5
t-15.5 -7.5q-28 -3 -28 -25q-4 -120 -4 -297q0 -45 1 -70t4.5 -55t11 -45.5t20 -30.5t32.5 -20.5t48 -5.5q33 0 56 11t35.5 28.5t19.5 49.5t8.5 62t1.5 79q0 234 -1 295q0 10 -7 17t-18 7q-21 2 -23 23l-1 30q-1 10 5 17t16 9h3zM326 800q16 -24 2 -36q-16 -12 -36 6
q-52 46 -98 91q-14 14 -12.5 30t18.5 28q35 25 59 -10q19 -28 67 -109z" />
    <glyph glyph-name="Uacute" unicode="&#xda;" horiz-adv-x="586" 
d="M542 700q10 0 17 -7t7 -17v-32q0 -22 -27 -25q-22 -2 -22 -24v-294q0 -181 -47 -245.5t-179 -64.5q-64 0 -102.5 11t-67.5 44.5t-40.5 94.5t-11.5 161v294q0 10 -7 17t-18 7q-10 1 -16.5 7.5t-6.5 15.5l-1 31q0 23 22 26h159q10 0 17.5 -7t7.5 -17v-32q0 -10 -6.5 -16.5
t-15.5 -7.5q-28 -3 -28 -25q-4 -120 -4 -297q0 -45 1 -70t4.5 -55t11 -45.5t20 -30.5t32.5 -20.5t48 -5.5q33 0 56 11t35.5 28.5t19.5 49.5t8.5 62t1.5 79q0 234 -1 295q0 10 -7 17t-18 7q-21 2 -23 23l-1 30q-1 10 5 17t16 9h3zM286 799q50 84 66 109q25 35 60 10
q17 -12 18.5 -28t-12.5 -30q-46 -45 -98 -91q-20 -18 -36 -6q-14 12 2 36z" />
    <glyph glyph-name="Ucircumflex" unicode="&#xdb;" horiz-adv-x="626" 
d="M562 700q10 0 17 -7t7 -17v-32q0 -22 -27 -25q-22 -2 -22 -24v-294q0 -181 -47 -245.5t-179 -64.5q-64 0 -102.5 11t-67.5 44.5t-40.5 94.5t-11.5 161v294q0 10 -7 17t-18 7q-10 1 -16.5 7.5t-6.5 15.5l-1 31q0 23 22 26h159q10 0 17.5 -7t7.5 -17v-32q0 -10 -6.5 -16.5
t-15.5 -7.5q-28 -3 -28 -25q-4 -120 -4 -297q0 -45 1 -70t4.5 -55t11 -45.5t20 -30.5t32.5 -20.5t48 -5.5q33 0 56 11t35.5 28.5t19.5 49.5t8.5 62t1.5 79q0 234 -1 295q0 10 -7 17t-18 7q-21 2 -23 23l-1 30q-1 10 5 17t16 9h3zM250 790q-5 -3 -13 -9.5t-11.5 -8t-9 -3.5
t-10 -0.5t-9.5 6.5q-20 18 13 51q14 14 27.5 25.5t25.5 21.5t17 14q17 15 34 15t32 -15q14 -13 38 -33.5t43 -39.5q25 -24 4 -42q-15 -14 -51 14q-16 13 -59 40q-7 3 -13 0q-26 -14 -58 -36z" />
    <glyph glyph-name="Udieresis" unicode="&#xdc;" horiz-adv-x="626" 
d="M562 700q10 0 17 -7t7 -17v-32q0 -22 -27 -25q-22 -2 -22 -24v-294q0 -181 -47 -245.5t-179 -64.5q-64 0 -102.5 11t-67.5 44.5t-40.5 94.5t-11.5 161v294q0 10 -7 17t-18 7q-10 1 -16.5 7.5t-6.5 15.5l-1 31q0 23 22 26h159q10 0 17.5 -7t7.5 -17v-32q0 -10 -6.5 -16.5
t-15.5 -7.5q-28 -3 -28 -25q-4 -120 -4 -297q0 -45 1 -70t4.5 -55t11 -45.5t20 -30.5t32.5 -20.5t48 -5.5q33 0 56 11t35.5 28.5t19.5 49.5t8.5 62t1.5 79q0 234 -1 295q0 10 -7 17t-18 7q-21 2 -23 23l-1 30q-1 10 5 17t16 9h3zM439 794q0 -31 -60 -29q-24 1 -33 10.5
t-10 30.5q-1 28 12 39.5t45 9.5q26 0 37.5 -12.5t9.5 -26t-1 -22.5zM283 794q0 -31 -60 -29q-24 1 -33 10.5t-11 30.5q-1 28 12.5 39.5t44.5 9.5q14 0 23.5 -4t14.5 -8.5t7.5 -13t2.5 -13t-0.5 -13t-0.5 -9.5z" />
    <glyph glyph-name="Yacute" unicode="&#xdd;" horiz-adv-x="521" 
d="M336 1h-166q-9 0 -15.5 6.5t-7.5 15.5v31q0 9 6.5 15.5t15.5 6.5h10q22 2 22 22v183q0 3 -2 11l-153 318q-5 9 -17 11h-7q-9 0 -15 6.5t-6 15.5l-1 34q0 10 6.5 16.5t15.5 6.5h137q9 0 15.5 -6.5t6.5 -15.5l1 -34q0 -9 -6.5 -15.5t-15.5 -6.5h-8q-4 0 -6 -3t0 -6
l103 -205q7 -9 12 0l121 203q4 8 -5 10h-19q-9 1 -15.5 7.5t-6.5 15.5l1 33q1 9 7 15.5t15 6.5h140q9 0 15.5 -6.5t6.5 -16.5v-34q0 -9 -6.5 -15t-14.5 -6q-13 -2 -19 -11l-178 -321q-3 -6 -3 -12l3 -178q0 -9 6 -15.5t15 -6.5l12 -1q9 0 15 -6t6 -15l1 -32q0 -9 -6 -15.5
t-16 -6.5zM244 799q50 84 66 109q25 35 60 10q17 -12 18.5 -28t-12.5 -30q-46 -45 -98 -91q-20 -18 -36 -6q-14 12 2 36z" />
    <glyph glyph-name="Thorn" unicode="&#xde;" horiz-adv-x="496" 
d="M61 75l20 1q20 2 22 23l3 498q0 10 -6.5 16.5t-15.5 6.5h-8q-22 2 -22 23l-2 32q0 9 6.5 16t16.5 8l45 1l119 -1q11 0 18 -7.5t7 -17.5v-31q0 -10 -6.5 -17t-16.5 -8l-28 -1q-11 -2 -11 -12v-36q0 -13 13 -13q70 -3 89 -6q27 -4 51 -13t51.5 -26.5t45.5 -49.5t22 -75
q9 -108 -30.5 -163.5t-128.5 -83.5q-22 -7 -95 -12q-15 -2 -15 -17l-1 -13v1q0 -21 22 -23h24q22 -2 22 -24v-29q-1 -10 -7.5 -16.5t-15.5 -6.5h-185q-10 0 -17 7t-6 17l-1 30q0 8 6 14.5t15 7.5zM205 455q0 -38 0.5 -114t0.5 -115q0 -8 6 -13.5t13 -4.5q49 3 94 33t46 78
q12 75 -24.5 124t-116.5 35q-19 -3 -19 -23z" />
    <glyph glyph-name="germandbls" unicode="&#xdf;" horiz-adv-x="601" 
d="M579 170q7 -75 -20 -112.5t-82 -56.5q-34 -12 -70 -14.5t-81 11t-83 45.5q-17 14 -17 35q-2 27 0 49q0 13 9.5 22.5t23.5 8.5l35 -1q12 -1 21 -9.5t9 -20.5q1 -5 1 -15q1 -14 11 -23q24 -23 72 -23q39 0 53.5 16.5t12.5 63.5q-1 29 -15.5 41.5t-65.5 32.5q-7 3 -24.5 9.5
t-23.5 8.5t-20 8.5t-20.5 11t-18 12t-18.5 15.5t-15.5 19.5t-15.5 24.5q-26 42 -15.5 88t33 79.5t52.5 58.5q16 13 31 22q12 7 12 22q-4 84 -77 84q-45 0 -68 -38.5t-25 -80.5q-3 -58 -3 -535q1 -13 -8 -21.5t-22 -8.5l-103 1q-22 0 -24 23v26q0 10 6.5 17t16.5 7h9
q23 2 23 24q5 343 5 439q0 219 197 224q91 2 137 -47.5t42 -121.5q-1 -11 -6.5 -21.5t-17 -20.5t-18 -15.5t-22 -15t-16.5 -10.5q-37 -25 -55 -67.5t0 -78.5q9 -17 23.5 -29t22.5 -15.5t35 -11.5t33 -10q62 -21 100.5 -49.5t43.5 -76.5z" />
    <glyph glyph-name="agrave" unicode="&#xe0;" horiz-adv-x="463" 
d="M399 74h13q21 0 21 -26v-26q0 -22 -26 -22h-85q-11 0 -18.5 8t-8.5 18q-2 22 -2 24v8q-2 8 -6 0q-11 -18 -24 -33q-28 -30 -92 -30q-37 0 -51 5q-10 4 -23 12q-14 9 -20 17q-30 28 -35.5 83.5t12.5 97.5q41 103 168 105q39 0 48 -1q6 -1 10.5 3.5t4.5 10.5q2 40 -3 69
q-5 37 -18.5 54.5t-48.5 18.5q-14 0 -25.5 -2.5t-19 -6.5t-14 -10t-9.5 -10t-6 -9t-4 -6q-3 -4 -3 -31q0 -18 -17 -18h-48q-20 0 -19 20v9q0 9 -0.5 20.5t-0.5 16.5q0 1 0.5 3l1 4t1.5 3q5 11 14 23t27.5 28.5t49.5 27.5t70 12q33 1 57 -5.5t41 -21.5t26.5 -27.5t22.5 -35.5
q17 -30 21 -95q5 -107 5 -262q0 -23 13 -23zM179 84q31 -4 68.5 17.5t39.5 47.5q1 23 -1 77q0 12 -13 14q-61 2 -91 -5q-48 -13 -51 -66v-25q0 -52 48 -60zM231 658q16 -24 2 -36q-16 -12 -36 6q-52 46 -98 91q-14 14 -12.5 30t18.5 28q35 25 59 -10q19 -28 67 -109z" />
    <glyph glyph-name="aacute" unicode="&#xe1;" horiz-adv-x="463" 
d="M399 74h13q21 0 21 -26v-26q0 -22 -26 -22h-85q-11 0 -18.5 8t-8.5 18q-2 22 -2 24v8q-2 8 -6 0q-11 -18 -24 -33q-28 -30 -92 -30q-37 0 -51 5q-10 4 -23 12q-14 9 -20 17q-30 28 -35.5 83.5t12.5 97.5q41 103 168 105q39 0 48 -1q6 -1 10.5 3.5t4.5 10.5q2 40 -3 69
q-5 37 -18.5 54.5t-48.5 18.5q-14 0 -25.5 -2.5t-19 -6.5t-14 -10t-9.5 -10t-6 -9t-4 -6q-3 -4 -3 -31q0 -18 -17 -18h-48q-20 0 -19 20v9q0 9 -0.5 20.5t-0.5 16.5q0 1 0.5 3l1 4t1.5 3q5 11 14 23t27.5 28.5t49.5 27.5t70 12q33 1 57 -5.5t41 -21.5t26.5 -27.5t22.5 -35.5
q17 -30 21 -95q5 -107 5 -262q0 -23 13 -23zM179 84q31 -4 68.5 17.5t39.5 47.5q1 23 -1 77q0 12 -13 14q-61 2 -91 -5q-48 -13 -51 -66v-25q0 -52 48 -60zM192 665q50 84 66 109q25 35 60 10q17 -12 18.5 -28t-12.5 -30q-46 -45 -98 -91q-20 -18 -36 -6q-14 12 2 36z" />
    <glyph glyph-name="acircumflex" unicode="&#xe2;" horiz-adv-x="463" 
d="M399 74h13q21 0 21 -26v-26q0 -22 -26 -22h-85q-11 0 -18.5 8t-8.5 18q-2 22 -2 24v8q-2 8 -6 0q-11 -18 -24 -33q-28 -30 -92 -30q-37 0 -51 5q-10 4 -23 12q-14 9 -20 17q-30 28 -35.5 83.5t12.5 97.5q41 103 168 105q39 0 48 -1q6 -1 10.5 3.5t4.5 10.5q2 40 -3 69
q-5 37 -18.5 54.5t-48.5 18.5q-14 0 -25.5 -2.5t-19 -6.5t-14 -10t-9.5 -10t-6 -9t-4 -6q-3 -4 -3 -31q0 -18 -17 -18h-48q-20 0 -19 20v9q0 9 -0.5 20.5t-0.5 16.5q0 1 0.5 3l1 4t1.5 3q5 11 14 23t27.5 28.5t49.5 27.5t70 12q33 1 57 -5.5t41 -21.5t26.5 -27.5t22.5 -35.5
q17 -30 21 -95q5 -107 5 -262q0 -23 13 -23zM179 84q31 -4 68.5 17.5t39.5 47.5q1 23 -1 77q0 12 -13 14q-61 2 -91 -5q-48 -13 -51 -66v-25q0 -52 48 -60zM163 640q-5 -3 -13 -9.5t-11.5 -8t-9 -3.5t-10 -0.5t-9.5 6.5q-20 18 13 51q14 14 27.5 25.5t25.5 21.5t17 14
q17 15 34 15t32 -15q14 -13 38 -33.5t43 -39.5q25 -24 4 -42q-15 -14 -51 14q-16 13 -59 40q-7 3 -13 0q-26 -14 -58 -36z" />
    <glyph glyph-name="atilde" unicode="&#xe3;" horiz-adv-x="463" 
d="M399 74h13q21 0 21 -26v-26q0 -22 -26 -22h-85q-11 0 -18.5 8t-8.5 18q-2 22 -2 24v8q-2 8 -6 0q-11 -18 -24 -33q-28 -30 -92 -30q-37 0 -51 5q-10 4 -23 12q-14 9 -20 17q-30 28 -35.5 83.5t12.5 97.5q41 103 168 105q39 0 48 -1q6 -1 10.5 3.5t4.5 10.5q2 40 -3 69
q-5 37 -18.5 54.5t-48.5 18.5q-14 0 -25.5 -2.5t-19 -6.5t-14 -10t-9.5 -10t-6 -9t-4 -6q-3 -4 -3 -31q0 -18 -17 -18h-48q-20 0 -19 20v9q0 9 -0.5 20.5t-0.5 16.5q0 1 0.5 3l1 4t1.5 3q5 11 14 23t27.5 28.5t49.5 27.5t70 12q33 1 57 -5.5t41 -21.5t26.5 -27.5t22.5 -35.5
q17 -30 21 -95q5 -107 5 -262q0 -23 13 -23zM179 84q31 -4 68.5 17.5t39.5 47.5q1 23 -1 77q0 12 -13 14q-61 2 -91 -5q-48 -13 -51 -66v-25q0 -52 48 -60zM268 619q-8 0 -16.5 2t-14 4t-14.5 7.5t-12 7.5t-13 9l-10 7q-20 14 -40 7t-29 -31q-6 -20 -36 -14q-15 3 -21 9
t-4 15q8 48 35 66.5t57 18.5q29 1 70 -31q29 -22 44 -22q28 0 38 30q7 24 36 21q16 -2 25 -10t6 -21q-7 -32 -25.5 -49.5t-35 -21.5t-40.5 -4z" />
    <glyph glyph-name="adieresis" unicode="&#xe4;" horiz-adv-x="463" 
d="M399 74h13q21 0 21 -26v-26q0 -22 -26 -22h-85q-11 0 -18.5 8t-8.5 18q-2 22 -2 24v8q-2 8 -6 0q-11 -18 -24 -33q-28 -30 -92 -30q-37 0 -51 5q-10 4 -23 12q-14 9 -20 17q-30 28 -35.5 83.5t12.5 97.5q41 103 168 105q39 0 48 -1q6 -1 10.5 3.5t4.5 10.5q2 40 -3 69
q-5 37 -18.5 54.5t-48.5 18.5q-14 0 -25.5 -2.5t-19 -6.5t-14 -10t-9.5 -10t-6 -9t-4 -6q-3 -4 -3 -31q0 -18 -17 -18h-48q-20 0 -19 20v9q0 9 -0.5 20.5t-0.5 16.5q0 1 0.5 3l1 4t1.5 3q5 11 14 23t27.5 28.5t49.5 27.5t70 12q33 1 57 -5.5t41 -21.5t26.5 -27.5t22.5 -35.5
q17 -30 21 -95q5 -107 5 -262q0 -23 13 -23zM179 84q31 -4 68.5 17.5t39.5 47.5q1 23 -1 77q0 12 -13 14q-61 2 -91 -5q-48 -13 -51 -66v-25q0 -52 48 -60zM351 650q0 -31 -60 -29q-24 1 -33 10.5t-10 30.5q-1 28 12 39.5t45 9.5q26 0 37.5 -12.5t9.5 -26t-1 -22.5zM195 650
q0 -31 -60 -29q-24 1 -33 10.5t-11 30.5q-1 28 12.5 39.5t44.5 9.5q14 0 23.5 -4t14.5 -8.5t7.5 -13t2.5 -13t-0.5 -13t-0.5 -9.5z" />
    <glyph glyph-name="aring" unicode="&#xe5;" horiz-adv-x="463" 
d="M399 74h13q21 0 21 -26v-26q0 -22 -26 -22h-85q-11 0 -18.5 8t-8.5 18q-2 22 -2 24v8q-2 8 -6 0q-11 -18 -24 -33q-28 -30 -92 -30q-37 0 -51 5q-10 4 -23 12q-14 9 -20 17q-30 28 -35.5 83.5t12.5 97.5q41 103 168 105q39 0 48 -1q6 -1 10.5 3.5t4.5 10.5q2 40 -3 69
q-5 37 -18.5 54.5t-48.5 18.5q-14 0 -25.5 -2.5t-19 -6.5t-14 -10t-9.5 -10t-6 -9t-4 -6q-3 -4 -3 -31q0 -18 -17 -18h-48q-20 0 -19 20v9q0 9 -0.5 20.5t-0.5 16.5q0 1 0.5 3l1 4t1.5 3q5 11 14 23t27.5 28.5t49.5 27.5t70 12q33 1 57 -5.5t41 -21.5t26.5 -27.5t22.5 -35.5
q17 -30 21 -95q5 -107 5 -262q0 -23 13 -23zM179 84q31 -4 68.5 17.5t39.5 47.5q1 23 -1 77q0 12 -13 14q-61 2 -91 -5q-48 -13 -51 -66v-25q0 -52 48 -60zM302 688q-4 -39 -35.5 -57t-70.5 -10q-38 8 -55 41.5t-6 68.5q21 63 99 56q36 -4 53.5 -32.5t14.5 -66.5zM219 664
q34 0 34 39q2 43 -31 47q-25 3 -36.5 -18.5t-1.5 -44.5t35 -23z" />
    <glyph glyph-name="ae" unicode="&#xe6;" horiz-adv-x="656" 
d="M392 233q-9 0 -15 -6.5t-6 -15.5q0 -119 70 -126q26 -2 51.5 7t32.5 25q3 5 5 33q1 10 8.5 17.5t18.5 8.5q27 2 41 1q9 0 15.5 -6.5t6.5 -15.5v-39q0 -5 -4 -17q-22 -46 -46 -67q-29 -24 -65.5 -34t-67 -6.5t-51.5 15.5q-34 20 -55 53q-2 4 -7 4t-8 -4q-16 -23 -35 -37
q-26 -20 -60 -25t-56 -2q-43 5 -73 31.5t-39.5 59t-12 66.5t8.5 55q41 101 166 103q26 1 48 -1q15 0 15 14q0 46 -3 68q-5 37 -18.5 54t-48.5 18q-14 0 -25.5 -2.5t-18.5 -6.5t-13.5 -9.5t-9.5 -9.5t-6.5 -9t-3.5 -6q-2 -4 -2 -31q0 -18 -17 -18h-47q-20 0 -19 20v9
q0 9 -0.5 20t-0.5 16q0 4 2 10q6 11 14.5 22.5t27 28.5t49 27.5t68.5 11.5q72 1 107 -41q10 -11 20 -1q39 40 115 43q117 2 161 -117q20 -49 16 -148q-1 -14 -11.5 -24t-24.5 -11zM279 148q5 30 0 76q-2 13 -14 13q-59 2 -89 -5q-9 -2 -16 -5t-12.5 -8.5t-9 -8.5t-6 -10.5
t-4 -10.5t-2 -12t-0.5 -11v-12v-11q0 -53 47 -59q32 -5 66.5 14t39.5 50zM371 346q-1 -10 5.5 -17t16.5 -7h103q12 0 20.5 9.5t7.5 21.5l-2 10q-12 75 -38 92q-21 15 -50 8.5t-44 -35.5q-14 -28 -19 -82z" />
    <glyph glyph-name="ccedilla" unicode="&#xe7;" horiz-adv-x="410" 
d="M317 153h43q26 0 26 -38q-1 -110 -132 -124l-5 -23q-2 -9 2 -9q82 13 98 -54q11 -44 -15.5 -73.5t-74.5 -29.5q-22 0 -48 8q-21 9 -12 33q7 16 24 13q54 -15 69 6q9 16 5 29q-7 24 -33.5 29t-49.5 -2l-23 -7q-3 -1 -5 1t-1 5q2 15 6.5 34.5t7.5 38.5q-58 6 -95.5 53.5
t-50.5 106.5t-13 128q0 241 136 267q29 8 66 4t70 -14t55.5 -35.5t22.5 -60.5v-36q0 -34 -31 -34q-6 0 -20.5 0.5t-19.5 0.5q-27 0 -27 36q0 35 -16 49.5t-66 14.5q-72 0 -72 -157v-46.5t1 -43t3.5 -42.5t7 -35.5t11.5 -32.5t16.5 -22.5t23.5 -16.5t31 -5q32 0 41.5 12.5
t13.5 48.5q3 23 30 23z" />
    <glyph glyph-name="egrave" unicode="&#xe8;" horiz-adv-x="435" 
d="M326 176q27 2 42 1q9 0 15.5 -6.5t6.5 -15.5v-40q0 -20 -16 -44t-35 -41q-62 -49 -172 -25q-55 13 -86.5 66.5t-37 122t0 131.5t18.5 107q38 126 160 129q44 2 89 -29.5t70 -105.5q17 -51 13 -145q0 -15 -10.5 -25t-25.5 -11l-199 -2q-19 -2 -19 -22q0 -28 6 -59t25 -60
t47 -29q34 -1 50 10.5t26 33.5q3 8 5 32q2 25 27 27zM259 464q-21 15 -53 9t-47 -35q-10 -20 -16 -90q-1 -10 6 -17t17 -7h108q12 0 19 9.5t5 22.5q0 85 -39 108zM226 662q16 -24 2 -36q-16 -12 -36 6q-52 46 -98 91q-14 14 -12.5 30t18.5 28q35 25 59 -10q19 -28 67 -109z
" />
    <glyph glyph-name="eacute" unicode="&#xe9;" horiz-adv-x="435" 
d="M326 176q27 2 42 1q9 0 15.5 -6.5t6.5 -15.5v-40q0 -20 -16 -44t-35 -41q-62 -49 -172 -25q-55 13 -86.5 66.5t-37 122t0 131.5t18.5 107q38 126 160 129q44 2 89 -29.5t70 -105.5q17 -51 13 -145q0 -15 -10.5 -25t-25.5 -11l-199 -2q-19 -2 -19 -22q0 -28 6 -59t25 -60
t47 -29q34 -1 50 10.5t26 33.5q3 8 5 32q2 25 27 27zM259 464q-21 15 -53 9t-47 -35q-10 -20 -16 -90q-1 -10 6 -17t17 -7h108q12 0 19 9.5t5 22.5q0 85 -39 108zM205 657q50 84 66 109q25 35 60 10q17 -12 18.5 -28t-12.5 -30q-46 -45 -98 -91q-20 -18 -36 -6q-14 12 2 36z
" />
    <glyph glyph-name="ecircumflex" unicode="&#xea;" horiz-adv-x="435" 
d="M326 176q27 2 42 1q9 0 15.5 -6.5t6.5 -15.5v-40q0 -20 -16 -44t-35 -41q-62 -49 -172 -25q-55 13 -86.5 66.5t-37 122t0 131.5t18.5 107q38 126 160 129q44 2 89 -29.5t70 -105.5q17 -51 13 -145q0 -15 -10.5 -25t-25.5 -11l-199 -2q-19 -2 -19 -22q0 -28 6 -59t25 -60
t47 -29q34 -1 50 10.5t26 33.5q3 8 5 32q2 25 27 27zM259 464q-21 15 -53 9t-47 -35q-10 -20 -16 -90q-1 -10 6 -17t17 -7h108q12 0 19 9.5t5 22.5q0 85 -39 108zM157 641q-5 -3 -13 -9.5t-11.5 -8t-9 -3.5t-10 -0.5t-9.5 6.5q-20 18 13 51q14 14 27.5 25.5t25.5 21.5t17 14
q17 15 34 15t32 -15q14 -13 38 -33.5t43 -39.5q25 -24 4 -42q-15 -14 -51 14q-16 13 -59 40q-7 3 -13 0q-26 -14 -58 -36z" />
    <glyph glyph-name="edieresis" unicode="&#xeb;" horiz-adv-x="435" 
d="M326 176q27 2 42 1q9 0 15.5 -6.5t6.5 -15.5v-40q0 -20 -16 -44t-35 -41q-62 -49 -172 -25q-55 13 -86.5 66.5t-37 122t0 131.5t18.5 107q38 126 160 129q44 2 89 -29.5t70 -105.5q17 -51 13 -145q0 -15 -10.5 -25t-25.5 -11l-199 -2q-19 -2 -19 -22q0 -28 6 -59t25 -60
t47 -29q34 -1 50 10.5t26 33.5q3 8 5 32q2 25 27 27zM259 464q-21 15 -53 9t-47 -35q-10 -20 -16 -90q-1 -10 6 -17t17 -7h108q12 0 19 9.5t5 22.5q0 85 -39 108zM345 656q0 -31 -60 -29q-24 1 -33 10.5t-10 30.5q-1 28 12 39.5t45 9.5q26 0 37.5 -12.5t9.5 -26t-1 -22.5z
M189 656q0 -31 -60 -29q-24 1 -33 10.5t-11 30.5q-1 28 12.5 39.5t44.5 9.5q14 0 23.5 -4t14.5 -8.5t7.5 -13t2.5 -13t-0.5 -13t-0.5 -9.5z" />
    <glyph glyph-name="igrave" unicode="&#xec;" horiz-adv-x="266" 
d="M37 20l4 46q0 5 4.5 9t9.5 4h16q6 0 10.5 4.5t4.5 10.5v368q0 14 -14 14l-14 1q-14 0 -14 14l-2 46q0 15 14 15h115q15 0 15 -14l8 -444q2 -14 15 -14l12 -1q5 0 9.5 -4t4.5 -10l1 -46q0 -15 -15 -15h-153q-8 0 -19.5 5t-11.5 11zM135 661q16 -24 2 -36q-16 -12 -36 6
q-52 46 -98 91q-14 14 -12.5 30t18.5 28q35 25 59 -10q19 -28 67 -109z" />
    <glyph glyph-name="iacute" unicode="&#xed;" horiz-adv-x="259" 
d="M30 20l4 46q0 5 4.5 9t9.5 4h16q6 0 10.5 4.5t4.5 10.5v368q0 14 -14 14l-14 1q-14 0 -14 14l-2 46q0 15 14 15h115q15 0 15 -14l8 -444q2 -14 15 -14l12 -1q5 0 9.5 -4t4.5 -10l1 -46q0 -15 -15 -15h-153q-8 0 -19.5 5t-11.5 11zM111 663q50 84 66 109q25 35 60 10
q17 -12 18.5 -28t-12.5 -30q-46 -45 -98 -91q-20 -18 -36 -6q-14 12 2 36z" />
    <glyph glyph-name="icircumflex" unicode="&#xee;" horiz-adv-x="313" 
d="M70 20l4 46q0 5 4.5 9t9.5 4h16q6 0 10.5 4.5t4.5 10.5v368q0 14 -14 14l-14 1q-14 0 -14 14l-2 46q0 15 14 15h115q15 0 15 -14l8 -444q2 -14 15 -14l12 -1q5 0 9.5 -4t4.5 -10l1 -46q0 -15 -15 -15h-153q-8 0 -19.5 5t-11.5 11zM92 647q-5 -3 -13 -9.5t-11.5 -8
t-9 -3.5t-10 -0.5t-9.5 6.5q-20 18 13 51q14 14 27.5 25.5t25.5 21.5t17 14q17 15 34 15t32 -15q14 -13 38 -33.5t43 -39.5q25 -24 4 -42q-15 -14 -51 14q-16 13 -59 40q-7 3 -13 0q-26 -14 -58 -36z" />
    <glyph glyph-name="idieresis" unicode="&#xef;" horiz-adv-x="323" 
d="M79 20l4 46q0 5 4.5 9t9.5 4h16q6 0 10.5 4.5t4.5 10.5v368q0 14 -14 14l-14 1q-14 0 -14 14l-2 46q0 15 14 15h115q15 0 15 -14l8 -444q2 -14 15 -14l12 -1q5 0 9.5 -4t4.5 -10l1 -46q0 -15 -15 -15h-153q-8 0 -19.5 5t-11.5 11zM291 659q0 -31 -60 -29q-24 1 -33 10.5
t-10 30.5q-1 28 12 39.5t45 9.5q26 0 37.5 -12.5t9.5 -26t-1 -22.5zM135 659q0 -31 -60 -29q-24 1 -33 10.5t-11 30.5q-1 28 12.5 39.5t44.5 9.5q14 0 23.5 -4t14.5 -8.5t7.5 -13t2.5 -13t-0.5 -13t-0.5 -9.5z" />
    <glyph glyph-name="eth" unicode="&#xf0;" horiz-adv-x="438" 
d="M397 288v-29v-28.5t-0.5 -24.5t-1 -25.5t-2 -22.5t-4 -24t-5.5 -21.5t-7.5 -23.5t-10 -21t-12.5 -23q-27 -45 -107 -54q-17 -2 -41 -0.5t-60 15.5t-55 41q-23 33 -29.5 45.5t-14.5 43.5q-6 26 -6 56q0 112 10 144q22 70 66 104q28 25 96 22q56 -1 87 -26q1 -1 2 0t1 2
q-4 65 -89 129q-8 6 -13 -3q-3 -4 -19 -28q-11 -17 -18.5 -20t-19.5 4q-22 14 -3 41l19 29q7 9 -3 13q-22 12 -43 20q-47 19 -36 41q2 3 4.5 5t6 3t7 1t9 -1t9.5 -2.5t12 -3.5t13 -3q3 -1 20 -5.5t31 -9.5q7 -2 11 4q5 7 10.5 16.5t9 15t5.5 7.5q14 21 32 8l7 -5
q16 -10 1 -30l-18 -28q-5 -9 3 -14q20 -9 45 -26t42.5 -37t28.5 -47.5t17 -48t9 -58t3.5 -55.5t0.5 -62zM291 137q20 84 6 168q-7 38 -30 68q-15 18 -49 20t-50 -18q-24 -34 -29 -82q-4 -32 -3.5 -60t2.5 -43t4.5 -28.5t2.5 -16.5q1 -28 20.5 -53t51.5 -25q18 0 31.5 6
t22 18t12.5 21.5t8 24.5z" />
    <glyph glyph-name="ntilde" unicode="&#xf1;" horiz-adv-x="513" 
d="M426 413q6 -303 7 -321q0 -8 5.5 -13t13.5 -5l12 -1q8 0 13 -5.5t5 -12.5l1 -36q0 -8 -5.5 -13.5t-13.5 -5.5h-160q-8 0 -13.5 5.5t-5.5 13.5v36q0 8 5.5 13.5t13.5 5.5h6q8 0 13.5 5.5t5.5 13.5l-6 326q-1 32 -24.5 47t-54 12t-57.5 -20q-8 -5 -8 -15v-351q0 -8 5.5 -13
t13.5 -5l13 -1q19 0 19 -19v-35q0 -8 -5.5 -13.5t-13.5 -5.5h-155q-8 0 -13.5 5.5t-5.5 13.5l1 36q0 7 5 12.5t13 5.5h5q8 0 13.5 5.5t5.5 13.5l-3 361q0 20 -20 22h-6q-9 1 -15 7t-6 15v29q0 10 6.5 16t15.5 6h100q10 0 17 -7t8 -17v-6q0 -4 4 -2q35 36 88 36q47 0 80 -14
t48.5 -37.5t21.5 -44t7 -43.5zM286 629q-8 0 -16.5 2t-14 4t-14.5 7.5t-12 7.5t-13 9l-10 7q-20 14 -40 7t-29 -31q-6 -20 -36 -14q-15 3 -21 9t-4 15q8 48 35 66.5t57 18.5q29 1 70 -31q29 -22 44 -22q28 0 38 30q7 24 36 21q16 -2 25 -10t6 -21q-7 -32 -25.5 -49.5
t-35 -21.5t-40.5 -4z" />
    <glyph glyph-name="ograve" unicode="&#xf2;" horiz-adv-x="468" 
d="M424 193q-14 -127 -84 -176.5t-161 -19.5q-48 16 -81.5 64.5t-46.5 110.5t-8.5 131t26 126t65.5 94t102 37q52 0 91 -26t58 -66.5t31.5 -90t11 -97t-3.5 -87.5zM233 69q55 0 76.5 55.5t21.5 174.5q0 93 -28.5 136t-69.5 43q-44 0 -71.5 -54.5t-27.5 -123.5
q0 -55 9.5 -105.5t33 -88t56.5 -37.5zM256 669q16 -24 2 -36q-16 -12 -36 6q-52 46 -98 91q-14 14 -12.5 30t18.5 28q35 25 59 -10q19 -28 67 -109z" />
    <glyph glyph-name="oacute" unicode="&#xf3;" horiz-adv-x="468" 
d="M424 193q-14 -127 -84 -176.5t-161 -19.5q-48 16 -81.5 64.5t-46.5 110.5t-8.5 131t26 126t65.5 94t102 37q52 0 91 -26t58 -66.5t31.5 -90t11 -97t-3.5 -87.5zM233 69q55 0 76.5 55.5t21.5 174.5q0 93 -28.5 136t-69.5 43q-44 0 -71.5 -54.5t-27.5 -123.5
q0 -55 9.5 -105.5t33 -88t56.5 -37.5zM230 667q50 84 66 109q25 35 60 10q17 -12 18.5 -28t-12.5 -30q-46 -45 -98 -91q-20 -18 -36 -6q-14 12 2 36z" />
    <glyph glyph-name="ocircumflex" unicode="&#xf4;" horiz-adv-x="468" 
d="M424 193q-14 -127 -84 -176.5t-161 -19.5q-48 16 -81.5 64.5t-46.5 110.5t-8.5 131t26 126t65.5 94t102 37q52 0 91 -26t58 -66.5t31.5 -90t11 -97t-3.5 -87.5zM233 69q55 0 76.5 55.5t21.5 174.5q0 93 -28.5 136t-69.5 43q-44 0 -71.5 -54.5t-27.5 -123.5
q0 -55 9.5 -105.5t33 -88t56.5 -37.5zM164 650q-5 -3 -13 -9.5t-11.5 -8t-9 -3.5t-10 -0.5t-9.5 6.5q-20 18 13 51q14 14 27.5 25.5t25.5 21.5t17 14q17 15 34 15t32 -15q14 -13 38 -33.5t43 -39.5q25 -24 4 -42q-15 -14 -51 14q-16 13 -59 40q-7 3 -13 0q-26 -14 -58 -36z
" />
    <glyph glyph-name="otilde" unicode="&#xf5;" horiz-adv-x="468" 
d="M424 197q-14 -127 -84 -176.5t-161 -19.5q-48 16 -81.5 64.5t-46.5 110.5t-8.5 131t26 126t65.5 94t102 37q52 0 91 -26t58 -66.5t31.5 -90t11 -97t-3.5 -87.5zM233 73q55 0 76.5 55.5t21.5 174.5q0 93 -28.5 136t-69.5 43q-44 0 -71.5 -54.5t-27.5 -123.5
q0 -55 9.5 -105.5t33 -88t56.5 -37.5zM295 624q-8 0 -16.5 2t-14 4t-14.5 7.5t-12 7.5t-13 9l-10 7q-20 14 -40 7t-29 -31q-6 -20 -36 -14q-15 3 -21 9t-4 15q8 48 35 66.5t57 18.5q29 1 70 -31q29 -22 44 -22q28 0 38 30q7 24 36 21q16 -2 25 -10t6 -21q-7 -32 -25.5 -49.5
t-35 -21.5t-40.5 -4z" />
    <glyph glyph-name="odieresis" unicode="&#xf6;" horiz-adv-x="468" 
d="M424 193q-14 -127 -84 -176.5t-161 -19.5q-48 16 -81.5 64.5t-46.5 110.5t-8.5 131t26 126t65.5 94t102 37q52 0 91 -26t58 -66.5t31.5 -90t11 -97t-3.5 -87.5zM233 69q55 0 76.5 55.5t21.5 174.5q0 93 -28.5 136t-69.5 43q-44 0 -71.5 -54.5t-27.5 -123.5
q0 -55 9.5 -105.5t33 -88t56.5 -37.5zM361 657q0 -31 -60 -29q-24 1 -33 10.5t-10 30.5q-1 28 12 39.5t45 9.5q26 0 37.5 -12.5t9.5 -26t-1 -22.5zM205 657q0 -31 -60 -29q-24 1 -33 10.5t-11 30.5q-1 28 12.5 39.5t44.5 9.5q14 0 23.5 -4t14.5 -8.5t7.5 -13t2.5 -13
t-0.5 -13t-0.5 -9.5z" />
    <glyph glyph-name="divide" unicode="&#xf7;" horiz-adv-x="404" 
d="M248 469q-2 -29 -42 -29q-23 0 -33 7t-11 26q-3 37 26 37q8 0 18.5 -0.5t19.5 -0.5q24 -1 22 -40zM249 173q0 -3 -0.5 -10t-0.5 -11q0 -9 -6.5 -15.5t-15.5 -7.5h-33q-30 0 -30 34q0 35 25 35q24 2 38 0q20 -2 23 -25zM374 319q0 -30 -32 -31q-18 -1 -136 -1.5t-139 0.5
q-23 1 -30 8t-6 23q0 14 1 20.5t9 12.5t24 6q11 0 140 -0.5t143 -0.5q26 0 26 -37z" />
    <glyph glyph-name="ugrave" unicode="&#xf9;" horiz-adv-x="534" 
d="M80 130q-2 76 2 321q0 9 -6 15t-15 6h-10q-8 0 -14.5 6t-6.5 15v35q0 9 6.5 15t14.5 6l115 -1q9 0 15 -6t6 -15q0 -25 -0.5 -113t-1.5 -103q0 -13 -1.5 -87t-0.5 -99q1 -32 28 -47.5t61 -13t62 18.5q11 6 11 20v350q0 8 -6 14t-14 6h-1q-20 2 -20 21v34q0 9 6.5 15
t14.5 6h97q9 0 15 -6t6 -14l5 -433q0 -9 6.5 -15t15.5 -6h13q8 0 14.5 -6.5t6.5 -14.5v-31q0 -8 -6 -14.5t-15 -6.5l-114 -3q-9 -1 -15 5.5t-7 15.5v1q0 3 -2.5 4t-4.5 -1q-36 -31 -105 -31q-38 0 -67 9.5t-45 24t-26 34t-13.5 35.5t-3.5 34zM270 662q16 -24 2 -36
q-16 -12 -36 6q-52 46 -98 91q-14 14 -12.5 30t18.5 28q35 25 59 -10q19 -28 67 -109z" />
    <glyph glyph-name="uacute" unicode="&#xfa;" horiz-adv-x="534" 
d="M80 130q-2 76 2 321q0 9 -6 15t-15 6h-10q-8 0 -14.5 6t-6.5 15v35q0 9 6.5 15t14.5 6l115 -1q9 0 15 -6t6 -15q0 -25 -0.5 -113t-1.5 -103q0 -13 -1.5 -87t-0.5 -99q1 -32 28 -47.5t61 -13t62 18.5q11 6 11 20v350q0 8 -6 14t-14 6h-1q-20 2 -20 21v34q0 9 6.5 15
t14.5 6h97q9 0 15 -6t6 -14l5 -433q0 -9 6.5 -15t15.5 -6h13q8 0 14.5 -6.5t6.5 -14.5v-31q0 -8 -6 -14.5t-15 -6.5l-114 -3q-9 -1 -15 5.5t-7 15.5v1q0 3 -2.5 4t-4.5 -1q-36 -31 -105 -31q-38 0 -67 9.5t-45 24t-26 34t-13.5 35.5t-3.5 34zM206 627q50 84 66 109
q25 35 60 10q17 -12 18.5 -28t-12.5 -30q-46 -45 -98 -91q-20 -18 -36 -6q-14 12 2 36z" />
    <glyph glyph-name="ucircumflex" unicode="&#xfb;" horiz-adv-x="534" 
d="M80 130q-2 76 2 321q0 9 -6 15t-15 6h-10q-8 0 -14.5 6t-6.5 15v35q0 9 6.5 15t14.5 6l115 -1q9 0 15 -6t6 -15q0 -25 -0.5 -113t-1.5 -103q0 -13 -1.5 -87t-0.5 -99q1 -32 28 -47.5t61 -13t62 18.5q11 6 11 20v350q0 8 -6 14t-14 6h-1q-20 2 -20 21v34q0 9 6.5 15
t14.5 6h97q9 0 15 -6t6 -14l5 -433q0 -9 6.5 -15t15.5 -6h13q8 0 14.5 -6.5t6.5 -14.5v-31q0 -8 -6 -14.5t-15 -6.5l-114 -3q-9 -1 -15 5.5t-7 15.5v1q0 3 -2.5 4t-4.5 -1q-36 -31 -105 -31q-38 0 -67 9.5t-45 24t-26 34t-13.5 35.5t-3.5 34zM178 603q-5 -3 -13 -9.5
t-11.5 -8t-9 -3.5t-10 -0.5t-9.5 6.5q-20 18 13 51q14 14 27.5 25.5t25.5 21.5t17 14q17 15 34 15t32 -15q14 -13 38 -33.5t43 -39.5q25 -24 4 -42q-15 -14 -51 14q-16 13 -59 40q-7 3 -13 0q-26 -14 -58 -36z" />
    <glyph glyph-name="udieresis" unicode="&#xfc;" horiz-adv-x="534" 
d="M80 130q-2 76 2 321q0 9 -6 15t-15 6h-10q-8 0 -14.5 6t-6.5 15v35q0 9 6.5 15t14.5 6l115 -1q9 0 15 -6t6 -15q0 -25 -0.5 -113t-1.5 -103q0 -13 -1.5 -87t-0.5 -99q1 -32 28 -47.5t61 -13t62 18.5q11 6 11 20v350q0 8 -6 14t-14 6h-1q-20 2 -20 21v34q0 9 6.5 15
t14.5 6h97q9 0 15 -6t6 -14l5 -433q0 -9 6.5 -15t15.5 -6h13q8 0 14.5 -6.5t6.5 -14.5v-31q0 -8 -6 -14.5t-15 -6.5l-114 -3q-9 -1 -15 5.5t-7 15.5v1q0 3 -2.5 4t-4.5 -1q-36 -31 -105 -31q-38 0 -67 9.5t-45 24t-26 34t-13.5 35.5t-3.5 34zM386 653q0 -31 -60 -29
q-24 1 -33 10.5t-10 30.5q-1 28 12 39.5t45 9.5q26 0 37.5 -12.5t9.5 -26t-1 -22.5zM230 653q0 -31 -60 -29q-24 1 -33 10.5t-11 30.5q-1 28 12.5 39.5t44.5 9.5q14 0 23.5 -4t14.5 -8.5t7.5 -13t2.5 -13t-0.5 -13t-0.5 -9.5z" />
    <glyph glyph-name="yacute" unicode="&#xfd;" horiz-adv-x="495" 
d="M47 -248q-1 0 -5 2t-5.5 3t-4.5 3.5t-3.5 5.5t-1.5 7.5t0 11t3 15.5q9 38 38 26q42 -5 68.5 3.5t41.5 41.5q12 25 22 132q0 8 -2 11l-148 448q-3 10 -13 10q-11 1 -19 9.5t-8 19.5l1 21q0 10 7.5 17.5t17.5 7.5l114 -1q11 0 18.5 -8t6.5 -19l-3 -33q-1 -13 -24 -13
q-6 0 -4 -6q75 -279 102 -347q1 -3 4 -2.5t4 3.5q10 34 44.5 184.5t34.5 151.5q1 5 -1.5 9.5t-7.5 5.5l-9 1q-23 4 -23 27l-1 21q0 11 7.5 18.5t17.5 7.5h142q12 1 19.5 -7.5t6.5 -20.5l-3 -23q-3 -23 -27 -25h-7q-13 0 -17 -13l-50 -198q-16 -49 -52.5 -198.5t-59.5 -206.5
q-14 -39 -38.5 -64t-49 -35t-52.5 -12t-46.5 0.5t-34.5 7.5zM228 665q50 84 66 109q25 35 60 10q17 -12 18.5 -28t-12.5 -30q-46 -45 -98 -91q-20 -18 -36 -6q-14 12 2 36z" />
    <glyph glyph-name="thorn" unicode="&#xfe;" horiz-adv-x="466" 
d="M423 361q4 -139 -2 -187q-20 -169 -155 -184q-50 -6 -83 28q-2 2 -5.5 1t-2.5 -4v-164q0 -10 6.5 -16.5t16.5 -6.5h15q9 0 16 -7t6 -17v-30q-1 -10 -7.5 -16.5t-15.5 -6.5h-170q-9 0 -15.5 6.5t-6.5 15.5l1 34q0 20 21 22h16q9 0 16 6.5t7 16.5l4 791q0 14 -15 14l-23 1
q-15 0 -15 14l-1 45q0 7 5 12t12 5l111 1q7 0 12 -5t5 -12v-222q0 -2 1.5 -2.5t2.5 1.5q23 34 64 39t80 -14.5t68.5 -62.5t30.5 -96zM303 106q7 11 11 27t5.5 38t1.5 38t-0.5 43t-0.5 37q0 76 -35 132q-40 62 -88 20q-8 -8 -17 -19q-3 -3 -3 -8q0 -42 0.5 -155.5t0.5 -159.5
q0 -12 10 -19q24 -18 58.5 -13.5t56.5 39.5z" />
    <glyph glyph-name="ydieresis" unicode="&#xff;" horiz-adv-x="495" 
d="M47 -248q-1 0 -5 2t-5.5 3t-4.5 3.5t-3.5 5.5t-1.5 7.5t0 11t3 15.5q9 38 38 26q42 -5 68.5 3.5t41.5 41.5q12 25 22 132q0 8 -2 11l-148 448q-3 10 -13 10q-11 1 -19 9.5t-8 19.5l1 21q0 10 7.5 17.5t17.5 7.5l114 -1q11 0 18.5 -8t6.5 -19l-3 -33q-1 -13 -24 -13
q-6 0 -4 -6q75 -279 102 -347q1 -3 4 -2.5t4 3.5q10 34 44.5 184.5t34.5 151.5q1 5 -1.5 9.5t-7.5 5.5l-9 1q-23 4 -23 27l-1 21q0 11 7.5 18.5t17.5 7.5h142q12 1 19.5 -7.5t6.5 -20.5l-3 -23q-3 -23 -27 -25h-7q-13 0 -17 -13l-50 -198q-16 -49 -52.5 -198.5t-59.5 -206.5
q-14 -39 -38.5 -64t-49 -35t-52.5 -12t-46.5 0.5t-34.5 7.5zM371 651q0 -31 -60 -29q-24 1 -33 10.5t-10 30.5q-1 28 12 39.5t45 9.5q26 0 37.5 -12.5t9.5 -26t-1 -22.5zM215 651q0 -31 -60 -29q-24 1 -33 10.5t-11 30.5q-1 28 12.5 39.5t44.5 9.5q14 0 23.5 -4t14.5 -8.5
t7.5 -13t2.5 -13t-0.5 -13t-0.5 -9.5z" />
    <glyph glyph-name="Amacron" unicode="&#x100;" 
d="M560 77q8 0 13.5 -6t5.5 -14v-39q0 -8 -6 -13.5t-14 -5.5l-162 1q-8 0 -13.5 5.5t-5.5 13.5v39q0 8 5.5 13.5t13.5 5.5h14q11 2 8 12q-5 13 -17.5 62.5t-19.5 70.5q-3 13 -22 11q-22 -1 -69 0t-57 1q-15 0 -18 -13q-13 -39 -27 -92q-2 -6 -7.5 -20.5t-6.5 -18.5t3.5 -8.5
t9.5 -4.5l17 -1q10 0 16.5 -7t6.5 -17l-1 -28q0 -10 -7 -17t-17 -7h-164q-12 0 -20.5 8.5t-8.5 20.5l1 22q2 25 27 27h7q14 0 19 14q27 67 196 590q5 13 16 21t24 7h14q31 -2 39 -30q148 -496 182 -589q5 -12 19 -14h6zM347 311q7 0 11 5t2 11q-7 33 -27 109.5t-21 79.5
q0 3 -4 3h-7q-4 0 -4 -4q-35 -118 -52 -187q-2 -6 2 -11t10 -5q12 0 45 -0.5t45 -0.5zM436 827v-16q0 -22 -30 -22h-186q-24 0 -32.5 7t-8.5 24q0 33 39 33h54t80 0.5t55 0.5q16 0 23 -7.5t6 -19.5z" />
    <glyph glyph-name="amacron" unicode="&#x101;" horiz-adv-x="463" 
d="M399 74h13q21 0 21 -26v-26q0 -22 -26 -22h-85q-11 0 -18.5 8t-8.5 18q-2 22 -2 24v8q-2 8 -6 0q-11 -18 -24 -33q-28 -30 -92 -30q-37 0 -51 5q-10 4 -23 12q-14 9 -20 17q-30 28 -35.5 83.5t12.5 97.5q41 103 168 105q39 0 48 -1q6 -1 10.5 3.5t4.5 10.5q2 40 -3 69
q-5 37 -18.5 54.5t-48.5 18.5q-14 0 -25.5 -2.5t-19 -6.5t-14 -10t-9.5 -10t-6 -9t-4 -6q-3 -4 -3 -31q0 -18 -17 -18h-48q-20 0 -19 20v9q0 9 -0.5 20.5t-0.5 16.5q0 1 0.5 3l1 4t1.5 3q5 11 14 23t27.5 28.5t49.5 27.5t70 12q33 1 57 -5.5t41 -21.5t26.5 -27.5t22.5 -35.5
q17 -30 21 -95q5 -107 5 -262q0 -23 13 -23zM179 84q31 -4 68.5 17.5t39.5 47.5q1 23 -1 77q0 12 -13 14q-61 2 -91 -5q-48 -13 -51 -66v-25q0 -52 48 -60zM349 670v-16q0 -22 -30 -22h-186q-24 0 -32.5 7t-8.5 24q0 33 39 33h54t80 0.5t55 0.5q16 0 23 -7.5t6 -19.5z" />
    <glyph glyph-name="Abreve" unicode="&#x102;" 
d="M560 77q8 0 13.5 -6t5.5 -14v-39q0 -8 -6 -13.5t-14 -5.5l-162 1q-8 0 -13.5 5.5t-5.5 13.5v39q0 8 5.5 13.5t13.5 5.5h14q11 2 8 12q-5 13 -17.5 62.5t-19.5 70.5q-3 13 -22 11q-22 -1 -69 0t-57 1q-15 0 -18 -13q-13 -39 -27 -92q-2 -6 -7.5 -20.5t-6.5 -18.5t3.5 -8.5
t9.5 -4.5l17 -1q10 0 16.5 -7t6.5 -17l-1 -28q0 -10 -7 -17t-17 -7h-164q-12 0 -20.5 8.5t-8.5 20.5l1 22q2 25 27 27h7q14 0 19 14q27 67 196 590q5 13 16 21t24 7h14q31 -2 39 -30q148 -496 182 -589q5 -12 19 -14h6zM347 311q7 0 11 5t2 11q-7 33 -27 109.5t-21 79.5
q0 3 -4 3h-7q-4 0 -4 -4q-35 -118 -52 -187q-2 -6 2 -11t10 -5q12 0 45 -0.5t45 -0.5zM188 869h21q11 0 15 -9l7 -14q0 -2 6 -8.5t21.5 -13t34.5 -6.5h10.5h10.5h8.5t8 1t6.5 2t6.5 2.5t5.5 4.5q17 16 22 32q1 10 15 12h17q8 0 12.5 -6t3.5 -13q-5 -35 -23 -53
q-23 -24 -40.5 -30.5t-56.5 -6.5q-54 0 -89 23q-31 21 -37 64q-1 7 3.5 13t11.5 6z" />
    <glyph glyph-name="abreve" unicode="&#x103;" horiz-adv-x="463" 
d="M399 74h13q21 0 21 -26v-26q0 -22 -26 -22h-85q-11 0 -18.5 8t-8.5 18q-2 22 -2 24v8q-2 8 -6 0q-11 -18 -24 -33q-28 -30 -92 -30q-37 0 -51 5q-10 4 -23 12q-14 9 -20 17q-30 28 -35.5 83.5t12.5 97.5q41 103 168 105q39 0 48 -1q6 -1 10.5 3.5t4.5 10.5q2 40 -3 69
q-5 37 -18.5 54.5t-48.5 18.5q-14 0 -25.5 -2.5t-19 -6.5t-14 -10t-9.5 -10t-6 -9t-4 -6q-3 -4 -3 -31q0 -18 -17 -18h-48q-20 0 -19 20v9q0 9 -0.5 20.5t-0.5 16.5q0 1 0.5 3l1 4t1.5 3q5 11 14 23t27.5 28.5t49.5 27.5t70 12q33 1 57 -5.5t41 -21.5t26.5 -27.5t22.5 -35.5
q17 -30 21 -95q5 -107 5 -262q0 -23 13 -23zM179 84q31 -4 68.5 17.5t39.5 47.5q1 23 -1 77q0 12 -13 14q-61 2 -91 -5q-48 -13 -51 -66v-25q0 -52 48 -60zM105 727h21q11 0 15 -9l7 -14q0 -2 6 -8.5t21.5 -13t34.5 -6.5h10.5h10.5h8.5t8 1t6.5 2t6.5 2.5t5.5 4.5
q17 16 22 32q1 10 15 12h17q8 0 12.5 -6t3.5 -13q-5 -35 -23 -53q-23 -24 -40.5 -30.5t-56.5 -6.5q-54 0 -89 23q-31 21 -37 64q-1 7 3.5 13t11.5 6z" />
    <glyph glyph-name="Aogonek" unicode="&#x104;" 
d="M560 77q8 0 13.5 -6t5.5 -14v-39q0 -8 -6 -13.5t-14 -5.5h-13q-34 -30 -34 -74q0 -22 15 -38.5t36 -15.5q8 0 20 4q18 7 27 -11l3 -7q4 -8 0.5 -17t-11.5 -13q-15 -5 -39 -9q-43 -5 -82.5 19.5t-39.5 77.5q0 59 55 85h-99q-8 0 -13.5 5.5t-5.5 13.5v39q0 8 5.5 13.5
t13.5 5.5h14q11 2 8 12q-5 13 -17.5 62.5t-19.5 70.5q-3 13 -22 11q-22 -1 -69 0t-57 1q-15 0 -18 -13q-13 -39 -27 -92q-2 -6 -7.5 -20.5t-6.5 -18.5t3.5 -8.5t9.5 -4.5l17 -1q10 0 16.5 -7t6.5 -17l-1 -28q0 -10 -7 -17t-17 -7h-164q-12 0 -20.5 8.5t-8.5 20.5l1 22
q2 25 27 27h7q14 0 19 14q27 67 196 590q5 13 16 21t24 7h14q31 -2 39 -30q148 -496 182 -589q5 -12 19 -14h6zM347 311q7 0 11 5t2 11q-7 33 -27 109.5t-21 79.5q0 3 -4 3h-7q-4 0 -4 -4q-35 -118 -52 -187q-2 -6 2 -11t10 -5q12 0 45 -0.5t45 -0.5z" />
    <glyph glyph-name="aogonek" unicode="&#x105;" horiz-adv-x="463" 
d="M399 74h13q21 0 21 -26v-26q0 -16 -14 -21q-35 -31 -35 -74q0 -22 15 -38.5t36 -15.5q8 0 20 4q18 7 27 -11l3 -7q4 -8 0.5 -17t-11.5 -13q-15 -5 -39 -9q-43 -5 -82.5 19.5t-39.5 77.5q0 58 52 83h-43q-11 0 -18.5 8t-8.5 18q-2 22 -2 24v8q-2 8 -6 0q-11 -18 -24 -33
q-28 -30 -92 -30q-37 0 -51 5q-10 4 -23 12q-14 9 -20 17q-30 28 -35.5 83.5t12.5 97.5q41 103 168 105q39 0 48 -1q6 -1 10.5 3.5t4.5 10.5q2 40 -3 69q-5 37 -18.5 54.5t-48.5 18.5q-14 0 -25.5 -2.5t-19 -6.5t-14 -10t-9.5 -10t-6 -9t-4 -6q-3 -4 -3 -31q0 -18 -17 -18
h-48q-20 0 -19 20v9q0 9 -0.5 20.5t-0.5 16.5q0 1 0.5 3l1 4t1.5 3q5 11 14 23t27.5 28.5t49.5 27.5t70 12q33 1 57 -5.5t41 -21.5t26.5 -27.5t22.5 -35.5q17 -30 21 -95q5 -107 5 -262q0 -23 13 -23zM179 84q31 -4 68.5 17.5t39.5 47.5q1 23 -1 77q0 12 -13 14
q-61 2 -91 -5q-48 -13 -51 -66v-25q0 -52 48 -60z" />
    <glyph glyph-name="Cacute" unicode="&#x106;" horiz-adv-x="506" 
d="M445 219q13 0 21.5 -9t9.5 -22q0 -12 -0.5 -31t-0.5 -31q0 -10 -5 -22q-24 -68 -67 -90t-128 -22q-73 0 -123.5 36t-74 96.5t-31.5 121t-5 128.5q2 47 6.5 84t17.5 81t33 75t54.5 55.5t80.5 33.5q136 27 228 -77q12 -14 12 -32q0 -12 0.5 -23t0.5 -14q0 -15 -10 -25.5
t-25 -11.5h-19q-14 -1 -24.5 8.5t-12.5 23.5q-1 5 -1 14q-2 23 -14 35q-31 34 -89 33q-28 -3 -48.5 -14t-32.5 -29.5t-20 -36.5t-11.5 -46t-4.5 -47.5t-1.5 -50t-1.5 -45.5q1 -30 0 -60.5t1 -59.5t5.5 -55.5t13 -49t24 -39t38.5 -25.5t56 -9q63 0 91 83q0 11 -0.5 22.5
t-0.5 15.5q0 14 10 23.5t23 8.5q8 -1 25 -1zM253 805q50 84 66 109q25 35 60 10q17 -12 18.5 -28t-12.5 -30q-46 -45 -98 -91q-20 -18 -36 -6q-14 12 2 36z" />
    <glyph glyph-name="cacute" unicode="&#x107;" horiz-adv-x="434" 
d="M340 153h43q15 0 24.5 -12t5.5 -26q-13 -59 -53 -92q-19 -15 -59 -24t-69 -6q-136 16 -172 127q-16 44 -20 158q1 47 8.5 89t23 83.5t45.5 69.5t71 36q29 8 68 4t73.5 -14.5t58.5 -36t24 -60.5v-33q0 -15 -11 -26t-26 -11q-6 0 -16.5 0.5t-15.5 0.5q-15 0 -25.5 10.5
t-10.5 25.5q0 69 -82 60q-25 -2 -41 -17t-23.5 -44t-10 -48t-4.5 -54q-3 -65 3 -116t31.5 -89.5t70.5 -38.5q17 0 25.5 4t11.5 8t8 21t10 28q8 23 34 23zM218 658q50 84 66 109q25 35 60 10q17 -12 18.5 -28t-12.5 -30q-46 -45 -98 -91q-20 -18 -36 -6q-14 12 2 36z" />
    <glyph glyph-name="Ccircumflex" unicode="&#x108;" horiz-adv-x="506" 
d="M212 781q-5 -3 -13 -9.5t-11.5 -8t-9 -3.5t-10 -0.5t-9.5 6.5q-20 18 13 51q14 14 27.5 25.5t25.5 21.5t17 14q17 15 34 15t32 -15q14 -13 38 -33.5t43 -39.5q25 -24 4 -42q-15 -14 -51 14q-16 13 -59 40q-7 3 -13 0q-26 -14 -58 -36zM445 219q13 0 21.5 -9t9.5 -22
q0 -12 -0.5 -31t-0.5 -31q0 -10 -5 -22q-24 -68 -67 -90t-128 -22q-73 0 -123.5 36t-74 96.5t-31.5 121t-5 128.5q2 47 6.5 84t17.5 81t33 75t54.5 55.5t80.5 33.5q136 27 228 -77q12 -14 12 -32q0 -12 0.5 -23t0.5 -14q0 -15 -10 -25.5t-25 -11.5h-19q-14 -1 -24.5 8.5
t-12.5 23.5q-1 5 -1 14q-2 23 -14 35q-31 34 -89 33q-28 -3 -48.5 -14t-32.5 -29.5t-20 -36.5t-11.5 -46t-4.5 -47.5t-1.5 -50t-1.5 -45.5q1 -30 0 -60.5t1 -59.5t5.5 -55.5t13 -49t24 -39t38.5 -25.5t56 -9q63 0 91 83q0 11 -0.5 22.5t-0.5 15.5q0 14 10 23.5t23 8.5
q8 -1 25 -1z" />
    <glyph glyph-name="ccircumflex" unicode="&#x109;" horiz-adv-x="434" 
d="M177 641q-5 -3 -13 -9.5t-11.5 -8t-9 -3.5t-10 -0.5t-9.5 6.5q-20 18 13 51q14 14 27.5 25.5t25.5 21.5t17 14q17 15 34 15t32 -15q14 -13 38 -33.5t43 -39.5q25 -24 4 -42q-15 -14 -51 14q-16 13 -59 40q-7 3 -13 0q-26 -14 -58 -36zM340 153h43q15 0 24.5 -12t5.5 -26
q-13 -59 -53 -92q-19 -15 -59 -24t-69 -6q-136 16 -172 127q-16 44 -20 158q1 47 8.5 89t23 83.5t45.5 69.5t71 36q29 8 68 4t73.5 -14.5t58.5 -36t24 -60.5v-33q0 -15 -11 -26t-26 -11q-6 0 -16.5 0.5t-15.5 0.5q-15 0 -25.5 10.5t-10.5 25.5q0 69 -82 60q-25 -2 -41 -17
t-23.5 -44t-10 -48t-4.5 -54q-3 -65 3 -116t31.5 -89.5t70.5 -38.5q17 0 25.5 4t11.5 8t8 21t10 28q8 23 34 23z" />
    <glyph glyph-name="Ccaron" unicode="&#x10c;" horiz-adv-x="506" 
d="M445 219q13 0 21.5 -9t9.5 -22q0 -12 -0.5 -31t-0.5 -31q0 -10 -5 -22q-24 -68 -67 -90t-128 -22q-73 0 -123.5 36t-74 96.5t-31.5 121t-5 128.5q2 47 6.5 84t17.5 81t33 75t54.5 55.5t80.5 33.5q136 27 228 -77q12 -14 12 -32q0 -12 0.5 -23t0.5 -14q0 -15 -10 -25.5
t-25 -11.5h-19q-14 -1 -24.5 8.5t-12.5 23.5q-1 5 -1 14q-2 23 -14 35q-31 34 -89 33q-28 -3 -48.5 -14t-32.5 -29.5t-20 -36.5t-11.5 -46t-4.5 -47.5t-1.5 -50t-1.5 -45.5q1 -30 0 -60.5t1 -59.5t5.5 -55.5t13 -49t24 -39t38.5 -25.5t56 -9q63 0 91 83q0 11 -0.5 22.5
t-0.5 15.5q0 14 10 23.5t23 8.5q8 -1 25 -1zM202 878q32 -23 58 -36q6 -4 13 0q32 19 59 40q36 27 51 14q21 -19 -4 -43q-19 -19 -43 -39.5t-38 -33.5q-16 -14 -32 -15q-14 0 -34 15q-5 4 -17 14t-25.5 22t-27.5 25q-34 34 -13 52q4 4 8.5 5.5t7.5 1.5t8 -2.5t8 -4.5t10 -7
t11 -8z" />
    <glyph glyph-name="ccaron" unicode="&#x10d;" horiz-adv-x="439" 
d="M345 153h43q15 0 24.5 -12t5.5 -26q-13 -59 -53 -92q-19 -15 -59 -24t-69 -6q-136 16 -172 127q-16 44 -20 158q1 47 8.5 89t23 83.5t45.5 69.5t71 36q29 8 68 4t73.5 -14.5t58.5 -36t24 -60.5v-33q0 -15 -11 -26t-26 -11q-6 0 -16.5 0.5t-15.5 0.5q-15 0 -25.5 10.5
t-10.5 25.5q0 69 -82 60q-25 -2 -41 -17t-23.5 -44t-10 -48t-4.5 -54q-3 -65 3 -116t31.5 -89.5t70.5 -38.5q17 0 25.5 4t11.5 8t8 21t10 28q8 23 34 23zM172 738q32 -23 58 -36q6 -4 13 0q32 19 59 40q36 27 51 14q21 -19 -4 -43q-19 -19 -43 -39.5t-38 -33.5
q-16 -14 -32 -15q-14 0 -34 15q-5 4 -17 14t-25.5 22t-27.5 25q-34 34 -13 52q4 4 8.5 5.5t7.5 1.5t8 -2.5t8 -4.5t10 -7t11 -8z" />
    <glyph glyph-name="Dcaron" unicode="&#x10e;" horiz-adv-x="522" 
d="M479 252q-4 -69 -14.5 -112.5t-34.5 -76t-64 -47t-103 -15.5h-204q-11 1 -18.5 8.5t-8.5 17.5q0 5 -0.5 15t-0.5 14q0 10 7 17t18 7q10 0 17.5 7t7.5 17q1 71 1 252t-2 240q0 10 -6.5 17t-16.5 7h-3q-10 0 -17 7t-6 17v30q0 10 6.5 17t16.5 7q113 6 203 1
q90 -4 153.5 -68.5t68.5 -154.5q0 -1 1 -25.5t1.5 -52.5t0 -69.5t-2.5 -76.5zM318 86q41 10 50 66q15 92 9.5 237t-25.5 188q-15 31 -51.5 38t-91.5 5q-10 0 -17 -7t-7 -17l-4 -489q0 -10 7 -17t17 -7q88 -3 113 3zM185 872q32 -23 58 -36q6 -4 13 0q32 19 59 40
q36 27 51 14q21 -19 -4 -43q-19 -19 -43 -39.5t-38 -33.5q-16 -14 -32 -15q-14 0 -34 15q-5 4 -17 14t-25.5 22t-27.5 25q-34 34 -13 52q4 4 8.5 5.5t7.5 1.5t8 -2.5t8 -4.5t10 -7t11 -8z" />
    <glyph glyph-name="dcaron" unicode="&#x10f;" horiz-adv-x="538" 
d="M553 663q-19 -77 -83 -153q-11 -13 -24 -4q-9 8 -6 21q10 34 13 67t2.5 57.5t-0.5 27.5q4 28 21.5 44.5t44.5 11.5q47 -10 32 -72zM404 76h8q10 0 16.5 -6.5t6.5 -16.5v-28q0 -10 -7 -16.5t-16 -6.5l-100 1q-8 0 -14.5 6t-7.5 15v3q-2 7 -8 3q-19 -19 -38 -25.5t-58 -6.5
q-54 2 -92 41.5t-49 125.5q0 7 -2 58t-2 73.5t3.5 59.5t12.5 61q22 64 54 101t83 37q48 0 83 -24q4 -3 8 -1t4 7v98q1 9 -5.5 15.5t-16.5 6.5l-16 1q-9 0 -15.5 6.5t-6.5 16.5l1 32q0 9 6.5 15.5t15.5 6.5h113q10 0 16.5 -6.5t6.5 -16.5l-6 -613q0 -10 6.5 -16.5t15.5 -6.5z
M288 120q0 45 -0.5 163.5t-0.5 163.5q0 14 -13 19q-74 27 -113 -34q-7 -11 -12 -31t-7 -46t-3 -44.5t-1.5 -44.5t-0.5 -27q2 -57 27 -112q11 -41 48.5 -50t63.5 16q12 11 12 27z" />
    <glyph glyph-name="Dcroat" unicode="&#x110;" horiz-adv-x="531" 
d="M488 471q8 -93 0 -221q-8 -136 -51 -192t-162 -59q-16 0 -92.5 0.5t-108.5 0.5q-11 0 -18.5 7.5t-7.5 17.5q-1 10 -1 32q0 10 7 17t17 6h1q10 0 17 7t7 17q0 8 0.5 79t0.5 123q0 8 -8 8h-28q-24 0 -32.5 5.5t-8.5 21.5q0 17 8.5 24t30.5 6h30q8 0 8 8v83v85v50
q-1 10 -8.5 17t-17.5 7t-17 7t-7 17v29q0 22 23 24q98 5 200 1q88 -4 151 -71t67 -157zM379 151q15 91 9.5 240.5t-25.5 191.5q-11 21 -37.5 31.5t-46 11.5t-57.5 0q-10 0 -16.5 -7t-6.5 -17q0 -127 -1 -222q0 -8 8 -8q11 0 25.5 0.5t16.5 0.5q16 0 23 -8t6 -20v-9
q0 -22 -30 -22h-42q-8 0 -8 -8l-2 -200q0 -22 23 -24q83 -3 112 4q40 10 49 65z" />
    <glyph glyph-name="dcroat" unicode="&#x111;" horiz-adv-x="459" 
d="M407 71q9 0 15.5 -6.5t6.5 -15.5v-28q0 -9 -6.5 -15.5t-16.5 -6.5l-98 1q-20 0 -22 20v3q-1 3 -3 4t-4 -1q-19 -19 -38 -25.5t-58 -6.5q-118 6 -139 166q0 11 -1.5 45.5t-2 54.5t0 50t4.5 54t11 44q22 64 53.5 100t81.5 36q49 0 82 -24q4 -3 8 -1t4 7v28q0 8 -9 8h-72
q-24 1 -32.5 6t-8.5 22t9 24t30 6h77q6 0 6 7v1q0 17 -22 17h-15q-10 0 -16 6.5t-6 16.5l1 31q0 10 6.5 16t15.5 6h111q10 0 16.5 -6.5t6.5 -15.5l-1 -69q0 -9 9 -9h1q15 0 22 -8t6 -19v-10q0 -21 -30 -21q-9 0 -9 -9l-4 -460q0 -21 22 -23h8zM272 89q12 9 12 26
q0 44 -0.5 161t-0.5 162q0 13 -13 18q-72 27 -112 -34q-7 -11 -11.5 -30.5t-6.5 -45t-3 -44t-1.5 -44t-0.5 -26.5q2 -56 27 -111q11 -40 47.5 -48.5t62.5 16.5z" />
    <glyph glyph-name="Emacron" unicode="&#x112;" horiz-adv-x="469" 
d="M402 565q-5 0 -15.5 -0.5t-16.5 -0.5q-9 0 -15.5 6t-6.5 15l-2 18q-4 18 -22 18q-15 0 -53 -0.5t-55 -0.5q-9 0 -15.5 -6.5t-6.5 -15.5q0 -22 -3 -157q0 -9 6.5 -15.5t16.5 -6.5h151q19 -2 21 -22q0 -24 -1 -35q-2 -12 -10.5 -20t-19.5 -7q-114 3 -140 3q-9 0 -15.5 -6.5
t-6.5 -15.5q0 -38 0.5 -106t0.5 -107q0 -21 21 -23q80 -2 129 0q4 0 4 26q0 8 5 14.5t13 6.5q24 0 36 -1q9 0 15.5 -6.5t6.5 -15.5q0 -31 -3 -85q-2 -20 -21 -20q-44 1 -157 1h-157h-27q-18 0 -18 21q-1 11 -1 38q0 20 18 20l6 1h6q9 -1 14.5 6.5t5.5 17.5q2 318 2 495
q0 10 -7.5 16.5t-17.5 5.5q-8 -1 -14.5 5t-7.5 15v39q0 8 6.5 14t14.5 6q47 0 167 -0.5t174 0.5q10 0 16 -7t6 -17q-2 -67 -5 -92q-3 -19 -22 -19zM362 825v-16q0 -22 -30 -22h-186q-24 0 -32.5 7t-8.5 24q0 33 39 33h54t80 0.5t55 0.5q16 0 23 -7.5t6 -19.5z" />
    <glyph glyph-name="emacron" unicode="&#x113;" horiz-adv-x="435" 
d="M326 176q27 2 42 1q9 0 15.5 -6.5t6.5 -15.5v-40q0 -20 -16 -44t-35 -41q-62 -49 -172 -25q-55 13 -86.5 66.5t-37 122t0 131.5t18.5 107q38 126 160 129q44 2 89 -29.5t70 -105.5q17 -51 13 -145q0 -15 -10.5 -25t-25.5 -11l-199 -2q-19 -2 -19 -22q0 -28 6 -59t25 -60
t47 -29q34 -1 50 10.5t26 33.5q3 8 5 32q2 25 27 27zM259 464q-21 15 -53 9t-47 -35q-10 -20 -16 -90q-1 -10 6 -17t17 -7h108q12 0 19 9.5t5 22.5q0 85 -39 108zM348 672v-16q0 -22 -30 -22h-186q-24 0 -32.5 7t-8.5 24q0 33 39 33h54t80 0.5t55 0.5q16 0 23 -7.5t6 -19.5z
" />
    <glyph glyph-name="Edotaccent" unicode="&#x116;" horiz-adv-x="469" 
d="M402 565q-5 0 -15.5 -0.5t-16.5 -0.5q-9 0 -15.5 6t-6.5 15l-2 18q-4 18 -22 18q-15 0 -53 -0.5t-55 -0.5q-9 0 -15.5 -6.5t-6.5 -15.5q0 -22 -3 -157q0 -9 6.5 -15.5t16.5 -6.5h151q19 -2 21 -22q0 -24 -1 -35q-2 -12 -10.5 -20t-19.5 -7q-114 3 -140 3q-9 0 -15.5 -6.5
t-6.5 -15.5q0 -38 0.5 -106t0.5 -107q0 -21 21 -23q80 -2 129 0q4 0 4 26q0 8 5 14.5t13 6.5q24 0 36 -1q9 0 15.5 -6.5t6.5 -15.5q0 -31 -3 -85q-2 -20 -21 -20q-44 1 -157 1h-157h-27q-18 0 -18 21q-1 11 -1 38q0 20 18 20l6 1h6q9 -1 14.5 6.5t5.5 17.5q2 318 2 495
q0 10 -7.5 16.5t-17.5 5.5q-8 -1 -14.5 5t-7.5 15v39q0 8 6.5 14t14.5 6q47 0 167 -0.5t174 0.5q10 0 16 -7t6 -17q-2 -67 -5 -92q-3 -19 -22 -19zM305 803q-1 -38 -72 -34q-27 1 -38 12t-13 36q-1 33 14.5 46.5t52.5 12.5q16 0 28 -5t17.5 -10.5t8.5 -15.5t3 -15.5
t-0.5 -15.5t-0.5 -11z" />
    <glyph glyph-name="edotaccent" unicode="&#x117;" horiz-adv-x="435" 
d="M326 176q27 2 42 1q9 0 15.5 -6.5t6.5 -15.5v-40q0 -20 -16 -44t-35 -41q-62 -49 -172 -25q-55 13 -86.5 66.5t-37 122t0 131.5t18.5 107q38 126 160 129q44 2 89 -29.5t70 -105.5q17 -51 13 -145q0 -15 -10.5 -25t-25.5 -11l-199 -2q-19 -2 -19 -22q0 -28 6 -59t25 -60
t47 -29q34 -1 50 10.5t26 33.5q3 8 5 32q2 25 27 27zM259 464q-21 15 -53 9t-47 -35q-10 -20 -16 -90q-1 -10 6 -17t17 -7h108q12 0 19 9.5t5 22.5q0 85 -39 108zM276 654q-1 -38 -72 -34q-27 1 -38 12t-13 36q-1 33 14.5 46.5t52.5 12.5q16 0 28 -5t17.5 -10.5t8.5 -15.5
t3 -15.5t-0.5 -15.5t-0.5 -11z" />
    <glyph glyph-name="Eogonek" unicode="&#x118;" horiz-adv-x="469" 
d="M402 565q-5 0 -15.5 -0.5t-16.5 -0.5q-9 0 -15.5 6t-6.5 15l-2 18q-4 18 -22 18q-15 0 -53 -0.5t-55 -0.5q-9 0 -15.5 -6.5t-6.5 -15.5q0 -22 -3 -157q0 -9 6.5 -15.5t16.5 -6.5h151q19 -2 21 -22q0 -24 -1 -35q-2 -12 -10.5 -20t-19.5 -7q-114 3 -140 3q-9 0 -15.5 -6.5
t-6.5 -15.5q0 -38 0.5 -106t0.5 -107q0 -21 21 -23q80 -2 129 0q4 0 4 26q0 8 5 14.5t13 6.5q24 0 36 -1q9 0 15.5 -6.5t6.5 -15.5q0 -31 -3 -85q-2 -20 -21 -20h-100h4q-39 -32 -39 -78q0 -22 15 -38.5t36 -15.5q8 0 20 4q18 7 27 -11l3 -7q4 -8 0.5 -17t-11.5 -13
q-15 -5 -39 -9q-43 -5 -82.5 19.5t-39.5 77.5q0 66 65 89h-173h-27q-18 0 -18 21q-1 11 -1 38q0 20 18 20l6 1h6q9 -1 14.5 6.5t5.5 17.5q2 318 2 495q0 10 -7.5 16.5t-17.5 5.5q-8 -1 -14.5 5t-7.5 15v39q0 8 6.5 14t14.5 6q47 0 167 -0.5t174 0.5q10 0 16 -7t6 -17
q-2 -67 -5 -92q-3 -19 -22 -19z" />
    <glyph glyph-name="eogonek" unicode="&#x119;" horiz-adv-x="435" 
d="M326 176q27 2 42 1q9 0 15.5 -6.5t6.5 -15.5v-40q0 -20 -16 -44t-35 -41q-35 -28 -87 -33q-36 -30 -36 -76q0 -22 15 -38.5t36 -15.5q8 0 20 4q18 7 27 -11l3 -7q4 -8 0.5 -17t-11.5 -13q-15 -5 -39 -9q-43 -5 -82.5 19.5t-39.5 77.5q0 64 62 87q-29 4 -40 7
q-55 13 -86.5 66.5t-37 122t0 131.5t18.5 107q38 126 160 129q44 2 89 -29.5t70 -105.5q17 -51 13 -145q0 -15 -10.5 -25t-25.5 -11l-199 -2q-19 -2 -19 -22q0 -28 6 -59t25 -60t47 -29q34 -1 50 10.5t26 33.5q3 8 5 32q2 25 27 27zM259 464q-21 15 -53 9t-47 -35
q-10 -20 -16 -90q-1 -10 6 -17t17 -7h108q12 0 19 9.5t5 22.5q0 85 -39 108z" />
    <glyph glyph-name="Ecaron" unicode="&#x11a;" horiz-adv-x="469" 
d="M402 565q-5 0 -15.5 -0.5t-16.5 -0.5q-9 0 -15.5 6t-6.5 15l-2 18q-4 18 -22 18q-15 0 -53 -0.5t-55 -0.5q-9 0 -15.5 -6.5t-6.5 -15.5q0 -22 -3 -157q0 -9 6.5 -15.5t16.5 -6.5h151q19 -2 21 -22q0 -24 -1 -35q-2 -12 -10.5 -20t-19.5 -7q-114 3 -140 3q-9 0 -15.5 -6.5
t-6.5 -15.5q0 -38 0.5 -106t0.5 -107q0 -21 21 -23q80 -2 129 0q4 0 4 26q0 8 5 14.5t13 6.5q24 0 36 -1q9 0 15.5 -6.5t6.5 -15.5q0 -31 -3 -85q-2 -20 -21 -20q-44 1 -157 1h-157h-27q-18 0 -18 21q-1 11 -1 38q0 20 18 20l6 1h6q9 -1 14.5 6.5t5.5 17.5q2 318 2 495
q0 10 -7.5 16.5t-17.5 5.5q-8 -1 -14.5 5t-7.5 15v39q0 8 6.5 14t14.5 6q47 0 167 -0.5t174 0.5q10 0 16 -7t6 -17q-2 -67 -5 -92q-3 -19 -22 -19zM182 875q32 -23 58 -36q6 -4 13 0q32 19 59 40q36 27 51 14q21 -19 -4 -43q-19 -19 -43 -39.5t-38 -33.5q-16 -14 -32 -15
q-14 0 -34 15q-5 4 -17 14t-25.5 22t-27.5 25q-34 34 -13 52q4 4 8.5 5.5t7.5 1.5t8 -2.5t8 -4.5t10 -7t11 -8z" />
    <glyph glyph-name="ecaron" unicode="&#x11b;" horiz-adv-x="435" 
d="M326 176q27 2 42 1q9 0 15.5 -6.5t6.5 -15.5v-40q0 -20 -16 -44t-35 -41q-62 -49 -172 -25q-55 13 -86.5 66.5t-37 122t0 131.5t18.5 107q38 126 160 129q44 2 89 -29.5t70 -105.5q17 -51 13 -145q0 -15 -10.5 -25t-25.5 -11l-199 -2q-19 -2 -19 -22q0 -28 6 -59t25 -60
t47 -29q34 -1 50 10.5t26 33.5q3 8 5 32q2 25 27 27zM259 464q-21 15 -53 9t-47 -35q-10 -20 -16 -90q-1 -10 6 -17t17 -7h108q12 0 19 9.5t5 22.5q0 85 -39 108zM154 729q32 -23 58 -36q6 -4 13 0q32 19 59 40q36 27 51 14q21 -19 -4 -43q-19 -19 -43 -39.5t-38 -33.5
q-16 -14 -32 -15q-14 0 -34 15q-5 4 -17 14t-25.5 22t-27.5 25q-34 34 -13 52q4 4 8.5 5.5t7.5 1.5t8 -2.5t8 -4.5t10 -7t11 -8z" />
    <glyph glyph-name="Gbreve" unicode="&#x11e;" horiz-adv-x="541" 
d="M464 333q14 0 24 -9.5t10 -23.5q4 -109 1 -159q-2 -13 -7 -24q-11 -33 -29 -53.5t-49 -45.5q-39 -32 -145 -28q-81 -3 -135.5 46.5t-76.5 130.5q0 3 -1 4q-12 82 -16 210q2 83 12 128.5t39 98.5q17 31 57.5 61t73.5 34q79 9 154 -8t112 -66q5 -8 7 -19v-63q0 -14 -10 -24
t-24 -10q-5 0 -14.5 0.5t-13.5 0.5q-13 0 -22.5 9.5t-9.5 22.5q0 3 -0.5 9t-0.5 8q-1 14 -13 24q-43 32 -113 30h-4q-49 -5 -81.5 -48t-34.5 -95q-2 -44 -2 -105q2 -165 34 -234q10 -22 43 -34.5t60 -8.5q44 2 85 29l7 6q12 15 16 28q3 8 0 73q0 15 -15 15l-41 1
q-13 0 -21.5 9t-9.5 22v24q0 14 10 24t24 10h120zM156 879h21q11 0 15 -9l7 -14q0 -2 6 -8.5t21.5 -13t34.5 -6.5h10.5h10.5h8.5t8 1t6.5 2t6.5 2.5t5.5 4.5q17 16 22 32q1 10 15 12h17q8 0 12.5 -6t3.5 -13q-5 -35 -23 -53q-23 -24 -40.5 -30.5t-56.5 -6.5q-54 0 -89 23
q-31 21 -37 64q-1 7 3.5 13t11.5 6z" />
    <glyph glyph-name="gbreve" unicode="&#x11f;" horiz-adv-x="475" 
d="M424 549q13 0 22 -8.5t9 -21.5v-14q0 -12 -8.5 -21t-21.5 -10h-7q-10 0 -17 -7t-7 -17v-187q-1 -101 5 -321q1 -50 -13 -97.5t-43 -66.5q-118 -77 -264 2l-6 4q-16 9 -9 26l15 40q9 23 33 16h2l2 -1q10 -3 31 -11t38 -12.5t34 -5.5q28 -1 54 19t28 58q3 42 1 125
q0 3 -3 4t-5 -1q-56 -61 -134 -44q-25 6 -50 33t-43 62q-24 48 -26 175.5t16 167.5q28 66 64 93.5t92 23.5q46 -3 77 -37q3 -3 6.5 -1.5t3.5 4.5v6q0 10 8 18t18 8h48t50 -1zM296 158q0 1 2 17q-2 72 -2 93v17t0.5 39t0.5 46q0 32 -3 40q-13 43 -41 58q-24 14 -52 5.5
t-43 -38.5q-16 -32 -20.5 -93t-0.5 -109t9 -67q5 -21 8 -30t10.5 -28.5t18.5 -29t25 -9.5q46 -1 66 27t22 62zM115 727h21q11 0 15 -9l7 -14q0 -2 6 -8.5t21.5 -13t34.5 -6.5h10.5h10.5h8.5t8 1t6.5 2t6.5 2.5t5.5 4.5q17 16 22 32q1 10 15 12h17q8 0 12.5 -6t3.5 -13
q-5 -35 -23 -53q-23 -24 -40.5 -30.5t-56.5 -6.5q-54 0 -89 23q-31 21 -37 64q-1 7 3.5 13t11.5 6z" />
    <glyph glyph-name="Gcommaaccent" unicode="&#x122;" horiz-adv-x="541" 
d="M464 333q14 0 24 -9.5t10 -23.5q4 -109 1 -159q-2 -13 -7 -24q-11 -33 -29 -53.5t-49 -45.5q-39 -32 -145 -28q-81 -3 -135.5 46.5t-76.5 130.5q0 3 -1 4q-12 82 -16 210q2 83 12 128.5t39 98.5q17 31 57.5 61t73.5 34q79 9 154 -8t112 -66q5 -8 7 -19v-63q0 -14 -10 -24
t-24 -10q-5 0 -14.5 0.5t-13.5 0.5q-13 0 -22.5 9.5t-9.5 22.5q0 3 -0.5 9t-0.5 8q-1 14 -13 24q-43 32 -113 30h-4q-49 -5 -81.5 -48t-34.5 -95q-2 -44 -2 -105q2 -165 34 -234q10 -22 43 -34.5t60 -8.5q44 2 85 29l7 6q12 15 16 28q3 8 0 73q0 15 -15 15l-41 1
q-13 0 -21.5 9t-9.5 22v24q0 14 10 24t24 10h120zM350 -112q0 -34 -9 -53q-12 -23 -43 -69q-19 -30 -27 -39q-12 -14 -24 -4q-10 7 -7 21q1 1 5 11.5t7 19t7 20.5t3.5 17t-3.5 9q-15 3 -23 14q-13 17 -6 74q3 25 19 31.5t49 5.5q52 0 52 -58z" />
    <glyph glyph-name="gcommaaccent" unicode="&#x123;" horiz-adv-x="475" 
d="M424 549q13 0 22 -8.5t9 -21.5v-14q0 -12 -8.5 -21t-21.5 -10h-7q-10 0 -17 -7t-7 -17v-187q-1 -101 5 -321q1 -50 -13 -97.5t-43 -66.5q-118 -77 -264 2l-6 4q-16 9 -9 26l15 40q9 23 33 16h2l2 -1q10 -3 31 -11t38 -12.5t34 -5.5q28 -1 54 19t28 58q3 42 1 125
q0 3 -3 4t-5 -1q-56 -61 -134 -44q-25 6 -50 33t-43 62q-24 48 -26 175.5t16 167.5q28 66 64 93.5t92 23.5q46 -3 77 -37q3 -3 6.5 -1.5t3.5 4.5v6q0 10 8 18t18 8h48t50 -1zM296 158q0 1 2 17q-2 72 -2 93v17t0.5 39t0.5 46q0 32 -3 40q-13 43 -41 58q-24 14 -52 5.5
t-43 -38.5q-16 -32 -20.5 -93t-0.5 -109t9 -67q5 -21 8 -30t10.5 -28.5t18.5 -29t25 -9.5q46 -1 66 27t22 62zM173 684q0 34 9 52q12 23 43 69q15 24 27 39q13 14 24 5q10 -7 7 -22q-1 -1 -5 -11.5t-7 -19t-7 -20.5t-3.5 -17t3.5 -9q15 -3 23 -13q13 -19 6 -75
q-3 -25 -18.5 -31t-49.5 -6q-52 0 -52 59z" />
    <glyph glyph-name="Imacron" unicode="&#x12a;" horiz-adv-x="249" 
d="M205 75q8 -1 14 -7t5 -14l-2 -35q-2 -19 -21 -19l-142 2q-18 0 -20 19l-2 35q-1 8 4.5 14t13.5 7q18 2 18 21l-1 500q0 8 -5.5 14t-13.5 6l-10 1q-17 0 -19 19l-1 41q0 19 18 21h7q45 -2 161 -1q8 0 14 -6t6 -14v-41q0 -18 -19 -20l-13 -1q-18 -2 -18 -20v-301l1 -200
q0 -19 25 -21zM247 809v-16q0 -22 -30 -22h-186q-24 0 -32.5 7t-8.5 24q0 33 39 33h54t80 0.5t55 0.5q16 0 23 -7.5t6 -19.5z" />
    <glyph glyph-name="imacron" unicode="&#x12b;" horiz-adv-x="278" 
d="M54 20l4 46q0 5 4.5 9t9.5 4h16q6 0 10.5 4.5t4.5 10.5v368q0 14 -14 14l-14 1q-14 0 -14 14l-2 46q0 15 14 15h115q15 0 15 -14l8 -444q2 -14 15 -14l12 -1q5 0 9.5 -4t4.5 -10l1 -46q0 -15 -15 -15h-153q-8 0 -19.5 5t-11.5 11zM267 671v-16q0 -22 -30 -22h-186
q-24 0 -32.5 7t-8.5 24q0 33 39 33h54t80 0.5t55 0.5q16 0 23 -7.5t6 -19.5z" />
    <glyph glyph-name="Iogonek" unicode="&#x12e;" horiz-adv-x="255" 
d="M211 75q8 -1 14 -7t5 -14l-2 -35q-2 -19 -21 -19h-21q-35 -28 -35 -75q0 -22 15 -38.5t36 -15.5q8 0 20 4q18 7 27 -11l3 -7q4 -8 0.5 -17t-11.5 -13q-15 -5 -39 -9q-43 -5 -82.5 19.5t-39.5 77.5q0 62 59 86l-74 1q-18 0 -20 19l-2 35q-1 8 4.5 14t13.5 7q18 2 18 21
l-1 500q0 8 -5.5 14t-13.5 6l-10 1q-17 0 -19 19l-1 41q0 19 18 21h7q45 -2 161 -1q8 0 14 -6t6 -14v-41q0 -18 -19 -20l-13 -1q-18 -2 -18 -20v-301l1 -200q0 -19 25 -21z" />
    <glyph glyph-name="iogonek" unicode="&#x12f;" horiz-adv-x="239" 
d="M20 20l4 46q0 5 4.5 9t9.5 4h16q6 0 10.5 4.5t4.5 10.5v368q0 14 -14 14l-14 1q-14 0 -14 14l-2 46q0 15 14 15h115q15 0 15 -14l8 -444q2 -14 15 -14l12 -1q5 0 9.5 -4t4.5 -10l1 -46q0 -15 -15 -15h-33q-32 -28 -32 -72q0 -22 15 -38.5t36 -15.5q8 0 20 4q18 7 27 -11
l3 -7q4 -8 0.5 -17t-11.5 -13q-15 -5 -39 -9q-43 -5 -82.5 19.5t-39.5 77.5q0 56 50 82h-67q-8 0 -19.5 5t-11.5 11zM168 658q-1 -39 -73 -35q-28 2 -39 13t-13 36q-1 33 15 47t54 13q16 0 28 -5t17.5 -11t8.5 -16t3 -15.5t-0.5 -15.5t-0.5 -11z" />
    <glyph glyph-name="Idotaccent" unicode="&#x130;" horiz-adv-x="246" 
d="M202 75q8 -1 14 -7t5 -14l-2 -35q-2 -19 -21 -19l-142 2q-18 0 -20 19l-2 35q-1 8 4.5 14t13.5 7q18 2 18 21l-1 500q0 8 -5.5 14t-13.5 6l-10 1q-17 0 -19 19l-1 41q0 19 18 21h7q45 -2 161 -1q8 0 14 -6t6 -14v-41q0 -18 -19 -20l-13 -1q-18 -2 -18 -20v-301l1 -200
q0 -19 25 -21zM179 811q-1 -38 -72 -34q-27 1 -38 12t-13 36q-1 33 14.5 46.5t52.5 12.5q16 0 28 -5t17.5 -10.5t8.5 -15.5t3 -15.5t-0.5 -15.5t-0.5 -11z" />
    <glyph glyph-name="dotlessi" unicode="&#x131;" horiz-adv-x="259" 
d="M30 20l4 46q0 5 4.5 9t9.5 4h16q6 0 10.5 4.5t4.5 10.5v368q0 14 -14 14l-14 1q-14 0 -14 14l-2 46q0 15 14 15h115q15 0 15 -14l8 -444q2 -14 15 -14l12 -1q5 0 9.5 -4t4.5 -10l1 -46q0 -15 -15 -15h-153q-8 0 -19.5 5t-11.5 11z" />
    <glyph glyph-name="Kcommaaccent" unicode="&#x136;" horiz-adv-x="583" 
d="M511 85q6 -11 20 -11h11q20 -2 20 -21l1 -32q0 -9 -6 -15t-15 -6h-168q-9 0 -15 6.5t-6 14.5v32q0 19 21 21h17q9 2 5 10q-61 117 -170 297q-9 16 1 33q141 206 185 263q11 16 30 16h91q23 0 23 -20v-36q0 -21 -23 -21h-48q-9 0 -16 -9q-111 -163 -131 -195q-8 -13 0 -26
q33 -58 86.5 -150t86.5 -151zM59 74q2 0 9.5 0.5t11.5 1.5q14 2 14 17q0 80 -2 249t-2 253q0 10 -5.5 15.5t-10.5 5.5h-6q-14 0 -15 14q-2 24 -2 42q-2 20 15 20q23 1 74 0.5t72 -0.5q18 0 19 -16q0 -8 -0.5 -24t-0.5 -25q0 -13 -19 -11h-5q-18 0 -18 -22q3 -74 6.5 -243.5
t7.5 -258.5q0 -18 19 -18q3 1 11 1q16 0 18 -16q7 -53 -14 -58q-24 -5 -177 -2q-13 0 -17 14q-4 22 1 46q2 15 16 15zM366 -112q0 -34 -9 -53q-12 -23 -43 -69q-19 -30 -27 -39q-12 -14 -24 -4q-10 7 -7 21q1 1 5 11.5t7 19t7 20.5t3.5 17t-3.5 9q-15 3 -23 14q-13 17 -6 74
q3 25 19 31.5t49 5.5q52 0 52 -58z" />
    <glyph glyph-name="kcommaaccent" unicode="&#x137;" horiz-adv-x="516" 
d="M61 73l8 1q8 0 14 6.5t6 14.5l-4 545q0 19 -19 21q-20 2 -20 21l-1 31q0 9 6 15.5t15 6.5l100 1q8 0 14.5 -6t6.5 -15v-142l2 -478q0 -9 6 -15t15 -6h7q8 -1 14.5 -7t6.5 -14v-30q0 -9 -6 -15t-15 -6l-155 -1q-8 0 -14.5 6t-6.5 15l-1 30q0 8 6 14.5t15 6.5zM468 79
q3 -5 9 -5l21 -1q7 0 12 -5.5t5 -12.5l1 -32q0 -10 -6.5 -17t-16.5 -7l-152 1q-8 0 -13.5 5.5t-5.5 13.5l-2 32q0 9 6 15.5t14 6.5l5 1q24 -2 9 18l-137 195q-5 6 -1 13l101 155q11 16 10 17q-2 2 -5 3h-15q-12 0 -12 11v49q-1 5 2.5 8.5t8.5 3.5h172q4 0 8 -3.5t4 -8.5
l-1 -52q0 -11 -11 -11l-40 -1q-6 0 -9 -5l-106 -161q-10 -11 -1 -25zM338 -126q0 -34 -9 -52q-12 -22 -43 -69q-15 -24 -27 -39q-13 -14 -24 -5q-10 7 -7 22q1 1 5 11.5t7 19t7 20.5t3.5 17t-3.5 9q-15 3 -23 13q-13 19 -6 75q3 25 18.5 31t49.5 6q52 0 52 -59z" />
    <glyph glyph-name="Lacute" unicode="&#x139;" horiz-adv-x="459" 
d="M217 616q-22 -2 -22 -23l-2 -472q0 -9 6.5 -16t16.5 -7l144 -1q20 0 23 19l1 7q3 20 23 20h29q10 0 16.5 -7t6.5 -17l-2 -95q0 -10 -6.5 -16.5t-16.5 -6.5h-348l-23 1q-10 0 -16.5 6.5t-6.5 16.5v48q0 9 6.5 16t16.5 7h4q10 0 16.5 6.5t6.5 16.5l2 474q0 21 -20 23h-3
q-21 4 -21 24v36q0 9 6.5 16t16.5 6l144 2q10 0 17.5 -7.5t5.5 -17.5l1 -39q-1 -8 -7.5 -14t-14.5 -6zM135 799q50 84 66 109q25 35 60 10q17 -12 18.5 -28t-12.5 -30q-46 -45 -98 -91q-20 -18 -36 -6q-14 12 2 36z" />
    <glyph glyph-name="lacute" unicode="&#x13a;" horiz-adv-x="272" 
d="M46 73l18 4q16 4 16 20l-4 543q0 18 -19 20q-18 2 -18 19l-3 33q-1 9 5.5 15.5t14.5 6.5l107 1q8 0 14.5 -6t6.5 -14v-144l4 -479q0 -18 19 -20l16 -1q8 0 13.5 -6t5.5 -14v-34q0 -8 -6 -14t-14 -6l-171 1q-8 0 -14 5.5t-6 14.5v35q-2 16 15 20zM117 833q50 84 66 109
q25 35 60 10q17 -12 18.5 -28t-12.5 -30q-46 -45 -98 -91q-20 -18 -36 -6q-14 12 2 36z" />
    <glyph glyph-name="Lcommaaccent" unicode="&#x13b;" horiz-adv-x="459" 
d="M217 616q-22 -2 -22 -23l-2 -471q0 -9 6.5 -16t16.5 -7l144 -1q20 0 23 19l1 7q3 20 23 20h29q10 0 16.5 -7t6.5 -17l-2 -96q0 -10 -6.5 -16.5t-16.5 -6.5h-348l-23 1q-10 0 -16.5 6.5t-6.5 16.5v49q0 9 6.5 16t16.5 7h4q10 0 16.5 6.5t6.5 16.5l2 473q0 21 -20 23h-3
q-21 4 -21 24l1 32q0 9 6.5 16t16.5 6l147 -1q10 0 17.5 -7.5t5.5 -17.5l-3 -32q-1 -8 -7.5 -14t-14.5 -6zM317 -112q0 -34 -9 -53q-12 -23 -43 -69q-19 -30 -27 -39q-12 -14 -24 -4q-10 7 -7 21q1 1 5 11.5t7 19t7 20.5t3.5 17t-3.5 9q-15 3 -23 14q-13 17 -6 74
q3 25 19 31.5t49 5.5q52 0 52 -58z" />
    <glyph glyph-name="lcommaaccent" unicode="&#x13c;" horiz-adv-x="272" 
d="M46 73l18 4q16 4 16 20l-4 543q0 18 -19 20q-18 2 -18 19l-3 33q-1 9 5.5 15.5t14.5 6.5l107 1q8 0 14.5 -6t6.5 -14v-144l4 -479q0 -18 19 -20l16 -1q8 0 13.5 -6t5.5 -14v-34q0 -8 -6 -14t-14 -6l-171 1q-8 0 -14 5.5t-6 14.5v35q-2 16 15 20zM198 -146q0 -34 -9 -52
q-12 -22 -43 -69q-15 -24 -27 -39q-13 -14 -24 -5q-10 7 -7 22q1 1 5 11.5t7 19t7 20.5t3.5 17t-3.5 9q-15 3 -23 13q-13 19 -6 75q3 25 18.5 31t49.5 6q52 0 52 -59z" />
    <glyph glyph-name="Lcaron" unicode="&#x13d;" horiz-adv-x="479" 
d="M217 616q-22 -2 -22 -23l-2 -472q0 -9 6.5 -16t16.5 -7l144 -1q20 0 23 19l1 7q3 20 23 20h29q10 0 16.5 -7t6.5 -17l-2 -95q0 -10 -6.5 -16.5t-16.5 -6.5h-348l-23 1q-10 0 -16.5 6.5t-6.5 16.5v48q0 9 6.5 16t16.5 7h4q10 0 16.5 6.5t6.5 16.5l2 474q0 21 -20 23h-3
q-21 4 -21 24v36q0 9 6.5 16t16.5 6l144 2q10 0 17.5 -7.5t5.5 -17.5l1 -39q-1 -8 -7.5 -14t-14.5 -6zM392 643q0 -34 -9 -52q-12 -22 -43 -69q-15 -24 -27 -39q-13 -14 -24 -5q-10 7 -7 22q1 1 5 11.5t7 19t7 20.5t3.5 17t-3.5 9q-15 3 -23 13q-13 19 -6 75q3 25 18.5 31
t49.5 6q52 0 52 -59z" />
    <glyph glyph-name="lcaron" unicode="&#x13e;" horiz-adv-x="346" 
d="M46 73l18 4q16 4 16 20l-4 543q0 18 -19 20q-18 2 -18 19l-3 33q-1 9 5.5 15.5t14.5 6.5l107 1q8 0 14.5 -6t6.5 -14v-144l4 -479q0 -18 19 -20l16 -1q8 0 13.5 -6t5.5 -14v-34q0 -8 -6 -14t-14 -6l-171 1q-8 0 -14 5.5t-6 14.5v35q-2 16 15 20zM366 674q0 -34 -9 -52
q-12 -23 -43 -69q-15 -24 -27 -39q-13 -14 -24 -5q-10 7 -7 22q1 1 5 11.5t7 19t7 20.5t3.5 17t-3.5 9q-15 3 -23 13q-13 19 -6 75q3 25 18.5 31t49.5 6q52 0 52 -59z" />
    <glyph glyph-name="Lslash" unicode="&#x141;" horiz-adv-x="457" 
d="M435 134q9 0 15.5 -6.5t6.5 -16.5l-2 -89q0 -9 -6.5 -15.5t-15.5 -6.5h-366q-22 2 -22 23v42q0 10 6.5 16.5t15.5 6.5h4q10 0 16.5 6.5t6.5 16.5v152q0 4 -3 5.5t-7 -0.5l-11 -8q-34 -22 -45 -24.5t-23 10.5q-8 11 0.5 21.5t38.5 30.5q12 9 36 25q15 10 15 27l1 250
q0 9 -6 15.5t-14 7.5h-4q-8 2 -14 8.5t-5 14.5v32q0 9 6.5 15.5t16.5 6.5l145 -1q10 0 17 -7.5t6 -17.5l-4 -32q-2 -19 -21 -19q-22 -2 -22 -23l-1 -187q0 -4 3.5 -5.5t6.5 0.5q4 3 11.5 8t14.5 9.5t13 8.5q18 12 26 16.5t17.5 5t16.5 -7.5q16 -20 -18 -43l-80 -55
q-11 -6 -11 -20l-1 -217q0 -9 6.5 -15.5t16.5 -7.5l142 -1q19 0 22 19l2 7q2 19 22 19h29z" />
    <glyph glyph-name="lslash" unicode="&#x142;" horiz-adv-x="311" 
d="M304 459q6 -7 7 -13.5t-5 -13t-8 -8.5t-11 -8l-65 -44q-15 -12 -15 -29l2 -248q0 -8 5.5 -14t13.5 -6l16 -1q19 -2 19 -20v-33q0 -9 -6 -15t-14 -6l-168 1q-8 0 -14 6t-6 14l-1 34q0 16 16 20l17 4q16 4 16 20l-2 174q0 6 -4.5 8.5t-9.5 -0.5l-15 -9q-27 -20 -41.5 -23.5
t-25.5 9.5q-8 10 0 20.5t38 31.5l47 31q11 6 11 20l-2 283q0 7 -5.5 12.5t-13.5 5.5q-16 0 -18 17l-2 35q-1 9 5 15t15 7h105q8 0 14 -6t6 -14l1 -281q0 -5 5 -7.5t9 0.5l24 17q37 24 47 23q8 -3 13 -9z" />
    <glyph glyph-name="Nacute" unicode="&#x143;" horiz-adv-x="564" 
d="M395 239l3 360q0 7 -5 12.5t-13 5.5h-5q-7 0 -12.5 5.5t-5.5 12.5v47q0 8 5.5 13t12.5 5l142 -1q7 0 12 -5t5 -12v-46q0 -7 -5 -12.5t-12 -5.5h-10q-17 -2 -17 -18v-336l3 -246q1 -7 -4.5 -12.5t-13.5 -5.5h-42q-19 0 -26 15l-234 463q-4 4 -6 -1l1 -384q0 -7 6 -13
t13 -6h4q8 0 13.5 -6t5.5 -14l-1 -36q0 -19 -19 -19l-129 1q-19 0 -19 19l-1 35q0 8 5.5 13.5t13.5 5.5t13.5 5.5t5.5 13.5l-1 511q0 14 -15 14h-18q-15 0 -15 14v55q0 14 15 14h94q17 2 27 -16l221 -447q1 -3 4.5 -2.5t3.5 4.5zM253 803q50 84 66 109q25 35 60 10
q17 -12 18.5 -28t-12.5 -30q-46 -45 -98 -91q-20 -18 -36 -6q-14 12 2 36z" />
    <glyph glyph-name="nacute" unicode="&#x144;" horiz-adv-x="513" 
d="M426 413q6 -303 7 -321q0 -8 5.5 -13t13.5 -5l12 -1q8 0 13 -5.5t5 -12.5l1 -36q0 -8 -5.5 -13.5t-13.5 -5.5h-160q-8 0 -13.5 5.5t-5.5 13.5v36q0 8 5.5 13.5t13.5 5.5h6q8 0 13.5 5.5t5.5 13.5l-6 326q-1 32 -24.5 47t-54 12t-57.5 -20q-8 -5 -8 -15v-351q0 -8 5.5 -13
t13.5 -5l13 -1q19 0 19 -19v-35q0 -8 -5.5 -13.5t-13.5 -5.5h-155q-8 0 -13.5 5.5t-5.5 13.5l1 36q0 7 5 12.5t13 5.5h5q8 0 13.5 5.5t5.5 13.5l-3 361q0 20 -20 22h-6q-9 1 -15 7t-6 15v29q0 10 6.5 16t15.5 6h100q10 0 17 -7t8 -17v-6q0 -4 4 -2q35 36 88 36q47 0 80 -14
t48.5 -37.5t21.5 -44t7 -43.5zM225 659q50 84 66 109q25 35 60 10q17 -12 18.5 -28t-12.5 -30q-46 -45 -98 -91q-20 -18 -36 -6q-14 12 2 36z" />
    <glyph glyph-name="Ncommaaccent" unicode="&#x145;" 
d="M412 252l3 347q0 7 -5.5 12.5t-12.5 5.5h-5q-8 0 -13 5.5t-5 12.5v39q0 8 5 13t13 5l150 -1q7 0 12 -5t5 -12v-38q0 -7 -5 -12.5t-12 -5.5h-10q-17 -2 -17 -18v-336l3 -246q1 -7 -4.5 -12.5t-13.5 -5.5h-50q-18 0 -26 15l-234 441q-4 4 -6 -1l1 -362q0 -7 5.5 -13
t13.5 -6h4q8 0 13.5 -6t5.5 -14l-1 -36q0 -19 -19 -19l-146 1q-19 0 -19 19l-1 35q0 8 5.5 13.5t13.5 5.5t13.5 5.5t5.5 13.5l-1 511q0 14 -15 14h-18q-15 0 -15 14v47q0 14 15 14h111q16 2 27 -16l221 -426q2 -3 5 -2.5t3 4.5zM372 -102q0 -34 -9 -53q-12 -22 -43 -69
q-19 -30 -27 -39q-12 -14 -24 -4q-10 7 -7 21q1 1 5 11.5t7 19t7 20.5t3.5 17t-3.5 9q-15 3 -23 14q-13 17 -6 74q3 25 19 31.5t49 5.5q52 0 52 -58z" />
    <glyph glyph-name="ncommaaccent" unicode="&#x146;" horiz-adv-x="514" 
d="M427 420q7 -326 7 -328q0 -8 5.5 -13t13.5 -5l12 -1q7 0 12.5 -5.5t5.5 -12.5l1 -36q0 -8 -5.5 -13.5t-13.5 -5.5h-160q-8 0 -13.5 5.5t-5.5 13.5v36q0 8 5.5 13.5t13.5 5.5h6q8 0 13.5 5.5t5.5 13.5l-6 333q-1 32 -24.5 47t-54 12t-57.5 -20q-8 -5 -8 -15v-358
q0 -8 5.5 -13t13.5 -5l13 -1q19 0 19 -19v-35q0 -8 -5.5 -13.5t-13.5 -5.5h-156q-8 0 -13.5 5.5t-5.5 13.5l1 36q0 7 5 12.5t13 5.5h5q8 0 13.5 5.5t5.5 13.5l-3 368q0 20 -20 22h-6q-9 1 -15 7t-6 15v29q0 10 6.5 16t15.5 6h101q10 0 17 -7t8 -17v-6q0 -4 4 -2q35 36 88 36
q47 0 80 -14t48.5 -37.5t21.5 -44t7 -43.5zM322 -112q0 -34 -9 -53q-12 -23 -43 -69q-19 -30 -27 -39q-12 -14 -24 -4q-10 7 -7 21q1 1 5 11.5t7 19t7 20.5t3.5 17t-3.5 9q-15 3 -23 14q-13 17 -6 74q3 25 19 31.5t49 5.5q52 0 52 -58z" />
    <glyph glyph-name="Ncaron" unicode="&#x147;" horiz-adv-x="564" 
d="M395 239l3 360q0 7 -5 12.5t-13 5.5h-5q-7 0 -12.5 5.5t-5.5 12.5v47q0 8 5.5 13t12.5 5l142 -1q7 0 12 -5t5 -12v-46q0 -7 -5 -12.5t-12 -5.5h-10q-17 -2 -17 -18v-336l3 -246q1 -7 -4.5 -12.5t-13.5 -5.5h-42q-19 0 -26 15l-234 463q-4 4 -6 -1l1 -384q0 -7 6 -13
t13 -6h4q8 0 13.5 -6t5.5 -14l-1 -36q0 -19 -19 -19l-129 1q-19 0 -19 19l-1 35q0 8 5.5 13.5t13.5 5.5t13.5 5.5t5.5 13.5l-1 511q0 14 -15 14h-18q-15 0 -15 14v55q0 14 15 14h94q17 2 27 -16l221 -447q1 -3 4.5 -2.5t3.5 4.5zM215 874q32 -23 58 -36q6 -4 13 0
q32 19 59 40q36 27 51 14q21 -19 -4 -43q-19 -19 -43 -39.5t-38 -33.5q-16 -14 -32 -15q-14 0 -34 15q-5 4 -17 14t-25.5 22t-27.5 25q-34 34 -13 52q4 4 8.5 5.5t7.5 1.5t8 -2.5t8 -4.5t10 -7t11 -8z" />
    <glyph glyph-name="ncaron" unicode="&#x148;" horiz-adv-x="513" 
d="M426 413q6 -303 7 -321q0 -8 5.5 -13t13.5 -5l12 -1q8 0 13 -5.5t5 -12.5l1 -36q0 -8 -5.5 -13.5t-13.5 -5.5h-160q-8 0 -13.5 5.5t-5.5 13.5v36q0 8 5.5 13.5t13.5 5.5h6q8 0 13.5 5.5t5.5 13.5l-6 326q-1 32 -24.5 47t-54 12t-57.5 -20q-8 -5 -8 -15v-351q0 -8 5.5 -13
t13.5 -5l13 -1q19 0 19 -19v-35q0 -8 -5.5 -13.5t-13.5 -5.5h-155q-8 0 -13.5 5.5t-5.5 13.5l1 36q0 7 5 12.5t13 5.5h5q8 0 13.5 5.5t5.5 13.5l-3 361q0 20 -20 22h-6q-9 1 -15 7t-6 15v29q0 10 6.5 16t15.5 6h100q10 0 17 -7t8 -17v-6q0 -4 4 -2q35 36 88 36q47 0 80 -14
t48.5 -37.5t21.5 -44t7 -43.5zM176 739q32 -23 58 -36q6 -4 13 0q32 19 59 40q36 27 51 14q21 -19 -4 -43q-19 -19 -43 -39.5t-38 -33.5q-16 -14 -32 -15q-14 0 -34 15q-5 4 -17 14t-25.5 22t-27.5 25q-34 34 -13 52q4 4 8.5 5.5t7.5 1.5t8 -2.5t8 -4.5t10 -7t11 -8z" />
    <glyph glyph-name="Omacron" unicode="&#x14c;" horiz-adv-x="561" 
d="M281 -9q-66 0 -114.5 31t-75.5 85.5t-39 117.5t-12 137q0 63 12.5 120t38.5 107t73 81.5t110 36.5q56 0 100 -20.5t71 -53.5t45 -78.5t24.5 -91.5t6.5 -97q0 -167 -60.5 -271t-179.5 -104zM274 629q-67 0 -101 -73.5t-34 -188.5q0 -134 37.5 -214t106.5 -80
q75 0 106.5 74.5t31.5 217.5q0 129 -32 196.5t-115 67.5zM398 811v-16q0 -22 -30 -22h-186q-24 0 -32.5 7t-8.5 24q0 33 39 33h54t80 0.5t55 0.5q16 0 23 -7.5t6 -19.5z" />
    <glyph glyph-name="omacron" unicode="&#x14d;" horiz-adv-x="468" 
d="M424 193q-14 -127 -84 -176.5t-161 -19.5q-48 16 -81.5 64.5t-46.5 110.5t-8.5 131t26 126t65.5 94t102 37q52 0 91 -26t58 -66.5t31.5 -90t11 -97t-3.5 -87.5zM233 69q55 0 76.5 55.5t21.5 174.5q0 93 -28.5 136t-69.5 43q-44 0 -71.5 -54.5t-27.5 -123.5
q0 -55 9.5 -105.5t33 -88t56.5 -37.5zM363 673v-16q0 -22 -30 -22h-186q-24 0 -32.5 7t-8.5 24q0 33 39 33h54t80 0.5t55 0.5q16 0 23 -7.5t6 -19.5z" />
    <glyph glyph-name="Ohungarumlaut" unicode="&#x150;" horiz-adv-x="561" 
d="M281 -9q-66 0 -114.5 31t-75.5 85.5t-39 117.5t-12 137q0 63 12.5 120t38.5 107t73 81.5t110 36.5q56 0 100 -20.5t71 -53.5t45 -78.5t24.5 -91.5t6.5 -97q0 -167 -60.5 -271t-179.5 -104zM274 629q-67 0 -101 -73.5t-34 -188.5q0 -134 37.5 -214t106.5 -80
q75 0 106.5 74.5t31.5 217.5q0 129 -32 196.5t-115 67.5zM209 811q10 17 26 47.5t34 61.5q23 40 60 14q26 -19 -3 -50q-15 -17 -29.5 -35t-26.5 -31.5t-29 -31.5t-31 -7q-15 11 -1 32zM300 815q6 8 91 109q30 36 59 8q32 -29 0 -56q-77 -63 -116 -91q-23 -17 -36 -5
q-8 8 -6 19t8 16z" />
    <glyph glyph-name="ohungarumlaut" unicode="&#x151;" horiz-adv-x="468" 
d="M424 193q-14 -127 -84 -176.5t-161 -19.5q-48 16 -81.5 64.5t-46.5 110.5t-8.5 131t26 126t65.5 94t102 37q52 0 91 -26t58 -66.5t31.5 -90t11 -97t-3.5 -87.5zM233 69q55 0 76.5 55.5t21.5 174.5q0 93 -28.5 136t-69.5 43q-44 0 -71.5 -54.5t-27.5 -123.5
q0 -55 9.5 -105.5t33 -88t56.5 -37.5zM176 659q10 17 26 47.5t34 61.5q23 40 60 14q26 -19 -3 -50q-15 -17 -29.5 -35t-26.5 -31.5t-29 -31.5t-31 -7q-15 11 -1 32zM267 663q6 8 91 109q30 36 59 8q32 -29 0 -56q-77 -63 -116 -91q-23 -17 -36 -5q-8 8 -5.5 19t7.5 16z" />
    <glyph glyph-name="Racute" unicode="&#x154;" horiz-adv-x="552" 
d="M46 73q17 2 17 18q2 42 2 69q0 58 0.5 228t1.5 208q0 9 -6.5 15t-14.5 6h-5q-9 0 -15 6.5t-6 14.5l1 43q0 8 6 14t14 6q250 4 294 1q62 -2 110.5 -57.5t49.5 -134.5q3 -83 -21.5 -127t-90.5 -64q-2 -1 -2 -3.5t2 -3.5q32 -11 49 -44t19.5 -67.5t6.5 -65.5t14 -37
q20 -13 42 -21q19 -5 17 -26q0 -2 -6 -37q-2 -17 -20 -20q-103 -11 -133 16q-24 25 -24 156q-1 48 -30.5 82.5t-64.5 34.5q-9 1 -72 1q-6 0 -10.5 -4.5t-4.5 -10.5v-177q0 -18 24 -19q7 0 12 -5t5 -12l2 -38q1 -8 -4.5 -13.5t-13.5 -5.5q-119 -2 -149 -1q-7 0 -12.5 5.5
t-5.5 13.5l2 39q0 7 5.5 12t14.5 5zM272 374q28 0 53.5 11t45 41.5t17.5 74.5q-2 57 -21.5 79t-76.5 33q-28 4 -106 2q-8 0 -14.5 -6t-6.5 -14l-1 -202q0 -9 6.5 -15t15.5 -6q50 2 88 2zM227 810q50 84 66 109q25 35 60 10q17 -12 18.5 -28t-12.5 -30q-46 -45 -98 -91
q-20 -18 -36 -6q-14 12 2 36z" />
    <glyph glyph-name="racute" unicode="&#x155;" horiz-adv-x="332" 
d="M331 532q-7 -50 -15 -84q-2 -6 -7.5 -8.5t-10.5 0.5q-56 34 -111 -2q-5 -5 -5 -11v-337q0 -6 4.5 -11t11.5 -5l15 -1q16 0 16 -14v-43q1 -7 -4 -12t-12 -5h-157q-7 0 -11.5 5t-4.5 12v42q0 15 16 15h10q16 0 16 17l-2 354q0 10 -7 17t-17 7h-3q-10 1 -16.5 8t-6.5 17v30
q0 10 7 17.5t17 7.5h106q18 0 20 -19v-3q0 -7 6 -3q36 35 93 35q11 0 41 -10q13 -5 11 -16zM152 661q50 84 66 109q25 35 60 10q17 -12 18.5 -28t-12.5 -30q-46 -45 -98 -91q-20 -18 -36 -6q-14 12 2 36z" />
    <glyph glyph-name="Rcommaaccent" unicode="&#x156;" horiz-adv-x="572" 
d="M63 73h3q17 2 17 18q2 42 2 69q0 58 0.5 228t1.5 208q0 9 -6.5 15t-14.5 6h-5q-9 0 -15 6.5t-6 14.5l1 34q0 8 6 14t14 6q250 4 294 1q63 -2 111 -53.5t49 -129.5q3 -83 -21.5 -127t-90.5 -64q-2 -1 -2 -3.5t2 -3.5q32 -11 49 -44t19.5 -67.5t6.5 -65.5t14 -37
q20 -13 42 -21q19 -5 17 -26q0 -2 -6 -37q-2 -17 -20 -20q-103 -11 -133 16q-24 25 -24 156q-1 47 -30.5 81t-64.5 34q-28 3 -72 3q-6 0 -10.5 -4.5t-4.5 -10.5v-177q0 -17 18 -19h6q7 0 12 -5t5 -12l2 -38q1 -8 -4.5 -13.5t-13.5 -5.5l-43 -1l-75 -1h-1l-30 1
q-7 0 -12.5 5.5t-5.5 13.5l2 39q0 7 5 12t12 5zM292 374q46 0 83 31.5t33 95.5q-1 57 -21 79t-77 33q-28 4 -106 2q-8 0 -14.5 -6t-6.5 -14l-1 -202q0 -9 6.5 -15t15.5 -6q50 2 88 2zM351 -102q0 -34 -9 -53q-12 -22 -43 -69q-19 -30 -27 -39q-12 -14 -24 -4q-10 7 -7 21
q1 1 5 11.5t7 19t7 20.5t3.5 17t-3.5 9q-15 3 -23 14q-13 17 -6 74q3 25 19 31.5t49 5.5q52 0 52 -58z" />
    <glyph glyph-name="rcommaaccent" unicode="&#x157;" horiz-adv-x="332" 
d="M331 528q-7 -50 -15 -84q-2 -6 -7.5 -8.5t-10.5 0.5q-56 34 -111 -2q-5 -5 -5 -11v-333q0 -6 4.5 -11t11.5 -5l15 -1q16 0 16 -14v-43q1 -7 -4 -12t-12 -5h-157q-7 0 -11.5 5t-4.5 12v42q0 15 16 15h10q16 0 16 17l-2 350q0 10 -7 17t-17 7h-3q-10 1 -16.5 8t-6.5 17v30
q0 10 7 17.5t17 7.5h106q18 0 20 -19v-3q0 -7 6 -3q36 35 93 35q11 0 41 -10q13 -5 11 -16zM197 -132q0 -34 -9 -53q-12 -22 -43 -69q-19 -30 -27 -39q-12 -14 -24 -4q-10 7 -7 21q1 1 5 11.5t7 19t7 20.5t3.5 17t-3.5 9q-15 3 -23 14q-13 17 -6 74q3 25 19 31.5t49 5.5
q52 0 52 -58z" />
    <glyph glyph-name="Rcaron" unicode="&#x158;" horiz-adv-x="572" 
d="M66 73q17 2 17 18q2 42 2 69q0 58 0.5 228t1.5 208q0 9 -6.5 15t-14.5 6h-5q-9 0 -15 6.5t-6 14.5l1 43q0 8 6 14t14 6q250 4 294 1q62 -2 110.5 -57.5t49.5 -134.5q3 -83 -21.5 -127t-90.5 -64q-2 -1 -2 -3.5t2 -3.5q32 -11 49 -44t19.5 -67.5t6.5 -65.5t14 -37
q20 -13 42 -21q19 -5 17 -26q0 -2 -6 -37q-2 -17 -20 -20q-103 -11 -133 16q-24 25 -24 156q-1 48 -30.5 82.5t-64.5 34.5q-9 1 -72 1q-6 0 -10.5 -4.5t-4.5 -10.5v-177q0 -18 24 -19q7 0 12 -5t5 -12l2 -38q1 -8 -4.5 -13.5t-13.5 -5.5q-119 -2 -149 -1q-7 0 -12.5 5.5
t-5.5 13.5l2 39q0 7 5.5 12t14.5 5zM292 374q28 0 53.5 11t45 41.5t17.5 74.5q-2 57 -21.5 79t-76.5 33q-28 4 -106 2q-8 0 -14.5 -6t-6.5 -14l-1 -202q0 -9 6.5 -15t15.5 -6q50 2 88 2zM205 878q32 -23 58 -36q6 -4 13 0q32 19 59 40q36 27 51 14q21 -19 -4 -43
q-19 -19 -43 -39.5t-38 -33.5q-16 -14 -32 -15q-14 0 -34 15q-5 4 -17 14t-25.5 22t-27.5 25q-34 34 -13 52q4 4 8.5 5.5t7.5 1.5t8 -2.5t8 -4.5t10 -7t11 -8z" />
    <glyph glyph-name="rcaron" unicode="&#x159;" horiz-adv-x="332" 
d="M331 532q-7 -50 -15 -84q-2 -6 -7.5 -8.5t-10.5 0.5q-56 34 -111 -2q-5 -5 -5 -11v-337q0 -6 4.5 -11t11.5 -5l15 -1q16 0 16 -14v-43q1 -7 -4 -12t-12 -5h-157q-7 0 -11.5 5t-4.5 12v42q0 15 16 15h10q16 0 16 17l-2 354q0 10 -7 17t-17 7h-3q-10 1 -16.5 8t-6.5 17v30
q0 10 7 17.5t17 7.5h106q18 0 20 -19v-3q0 -7 6 -3q36 35 93 35q11 0 41 -10q13 -5 11 -16zM118 737q32 -23 58 -36q6 -4 13 0q32 19 59 40q36 27 51 14q21 -19 -4 -43q-19 -19 -43 -39.5t-38 -33.5q-16 -14 -32 -15q-14 0 -34 15q-5 4 -17 14t-25.5 22t-27.5 25
q-34 34 -13 52q4 4 8.5 5.5t7.5 1.5t8 -2.5t8 -4.5t10 -7t11 -8z" />
    <glyph glyph-name="Sacute" unicode="&#x15a;" horiz-adv-x="505" 
d="M463 205q6 -79 -12 -116.5t-70 -69.5q-37 -22 -77 -26q-167 -21 -251 63q-9 9 -11 22l-2 59q0 13 9 22.5t23 10.5h38q13 1 22.5 -8t10.5 -22v-17q2 -17 15 -27q37 -27 94 -27q45 0 76 27t29 87q-1 26 -20 46.5t-38.5 30t-61.5 27.5q-46 19 -85 45t-70.5 66.5t-35.5 84.5
q-7 93 16.5 142.5t83.5 72.5q6 2 17 5t44 6t65 -1.5t75 -23t79 -52.5q10 -9 11 -23l2 -62q0 -13 -9.5 -22.5t-22.5 -8.5h-40q-12 0 -21 8.5t-9 21.5l-2 22q0 12 -10 19q-40 29 -97 29q-45 0 -74 -34.5t-2 -89.5q20 -41 66 -69.5t71 -34.5q39 -15 59.5 -25t50.5 -31.5
t45.5 -52.5t18.5 -74zM234 808q50 84 66 109q25 35 60 10q17 -12 18.5 -28t-12.5 -30q-46 -45 -98 -91q-20 -18 -36 -6q-14 12 2 36z" />
    <glyph glyph-name="sacute" unicode="&#x15b;" horiz-adv-x="448" 
d="M406 172q8 -76 -20 -114.5t-83 -57.5q-34 -12 -70.5 -14.5t-82 11t-84.5 45.5q-16 13 -18 36q0 35 1 50q0 13 9.5 22.5t23.5 9.5l36 -2q12 0 21 -9t10 -21q0 -11 1 -16q0 -14 11 -23q24 -23 72 -23q39 0 54 17t14 64q-1 30 -16.5 42.5t-66.5 32.5q-7 3 -27.5 10.5
t-27 10.5t-22.5 10.5t-23.5 14t-19.5 16t-20.5 22t-17.5 27.5q-33 69 -8.5 128t76.5 82q6 2 17.5 5.5t43 8t60.5 1t63.5 -21t58.5 -50.5q7 -10 9 -23q0 -6 0.5 -16t0.5 -15q1 -16 -10 -27t-27 -11h-25q-14 1 -24.5 11t-11.5 25v7q0 9 -6 16q-5 7 -10.5 12t-9 7.5t-10.5 3.5
t-9.5 1h-12.5h-14q-39 0 -61.5 -36.5t-3.5 -73.5q7 -14 16 -24t22 -17t21.5 -10t28 -8.5t27.5 -8.5q62 -21 101.5 -49.5t43.5 -77.5zM200 659q50 84 66 109q25 35 60 10q17 -12 18.5 -28t-12.5 -30q-46 -45 -98 -91q-20 -18 -36 -6q-14 12 2 36z" />
    <glyph glyph-name="Scedilla" unicode="&#x15e;" horiz-adv-x="505" 
d="M271 -197q-22 0 -48 8q-9 4 -13 12t0 16l1 5q7 16 24 13q54 -15 69 6q9 16 5 29q-7 24 -33.5 29t-49.5 -2l-23 -7q-3 -1 -5 1t-1 5l4 31q1 1 1 3l12 38q-102 7 -161 66q-9 9 -11 22l-2 59q0 13 9 22.5t23 10.5h38q13 1 22.5 -8t10.5 -22v-17q2 -17 15 -27q37 -27 94 -27
q45 0 76 27t29 87q-1 26 -20 46.5t-38.5 30t-61.5 27.5q-46 19 -85 45t-70.5 66.5t-35.5 84.5q-7 93 16.5 142.5t83.5 72.5q6 2 17 5t44 6t65 -1.5t75 -23t79 -52.5q10 -9 11 -23l2 -62q0 -13 -9.5 -22.5t-22.5 -8.5h-40q-12 0 -21 8.5t-9 21.5l-2 22q0 12 -10 19
q-40 29 -97 29q-45 0 -74 -34.5t-2 -89.5q20 -41 66 -69.5t71 -34.5q39 -15 59.5 -25t50.5 -31.5t45.5 -52.5t18.5 -74q6 -79 -12 -116.5t-70 -69.5q-37 -22 -77 -26l-34 -3l-9 -21q-2 -3 -1 -6t3 -3q82 13 98 -54q12 -48 -24 -81q-24 -22 -66 -22z" />
    <glyph glyph-name="scedilla" unicode="&#x15f;" horiz-adv-x="448" 
d="M249 -195q-22 0 -48 8q-9 4 -13 12t0 16l1 5q7 16 24 13q54 -15 69 6q9 16 5 29q-7 24 -33.5 29t-49.5 -2l-23 -7q-3 -1 -5 1t-1 5l4 31q1 1 1 3l11 33q-70 9 -125 55q-16 13 -18 36q0 35 1 50q0 13 9.5 22.5t23.5 9.5l36 -2q12 0 21 -9t10 -21q0 -11 1 -16q0 -14 11 -23
q24 -23 72 -23q39 0 54 17t14 64q-1 30 -16.5 42.5t-66.5 32.5q-7 3 -27.5 10.5t-27 10.5t-22.5 10.5t-23.5 14t-19.5 16t-20.5 22t-17.5 27.5q-33 69 -8.5 128t76.5 82q6 2 17.5 5.5t43 8t60.5 1t63.5 -21t58.5 -50.5q7 -10 9 -23q0 -6 0.5 -16t0.5 -15q1 -16 -10 -27
t-27 -11h-25q-14 1 -24.5 11t-11.5 25v7q0 9 -6 16q-5 7 -10.5 12t-9 7.5t-10.5 3.5t-9.5 1h-12.5h-14q-39 0 -61.5 -36.5t-3.5 -73.5q7 -14 16 -24t22 -17t21.5 -10t28 -8.5t27.5 -8.5q62 -21 101.5 -49.5t43.5 -77.5q8 -76 -20 -114.5t-83 -57.5q-23 -8 -57 -13l-7 -16
q-2 -3 -1 -6t3 -3q82 13 98 -54q12 -48 -24 -81q-24 -22 -66 -22z" />
    <glyph glyph-name="Scaron" unicode="&#x160;" horiz-adv-x="505" 
d="M463 205q6 -79 -12 -116.5t-70 -69.5q-37 -22 -77 -26q-167 -21 -251 63q-9 9 -11 22l-2 59q0 13 9 22.5t23 10.5h38q13 1 22.5 -8t10.5 -22v-17q2 -17 15 -27q37 -27 94 -27q45 0 76 27t29 87q-1 26 -20 46.5t-38.5 30t-61.5 27.5q-46 19 -85 45t-70.5 66.5t-35.5 84.5
q-7 93 16.5 142.5t83.5 72.5q6 2 17 5t44 6t65 -1.5t75 -23t79 -52.5q10 -9 11 -23l2 -62q0 -13 -9.5 -22.5t-22.5 -8.5h-40q-12 0 -21 8.5t-9 21.5l-2 22q0 12 -10 19q-40 29 -97 29q-45 0 -74 -34.5t-2 -89.5q20 -41 66 -69.5t71 -34.5q39 -15 59.5 -25t50.5 -31.5
t45.5 -52.5t18.5 -74zM180 877q32 -23 58 -36q6 -4 13 0q32 19 59 40q36 27 51 14q21 -19 -4 -43q-19 -19 -43 -39.5t-38 -33.5q-16 -14 -32 -15q-14 0 -34 15q-5 4 -17 14t-25.5 22t-27.5 25q-34 34 -13 52q4 4 8.5 5.5t7.5 1.5t8 -2.5t8 -4.5t10 -7t11 -8z" />
    <glyph glyph-name="scaron" unicode="&#x161;" horiz-adv-x="448" 
d="M406 172q8 -76 -20 -114.5t-83 -57.5q-34 -12 -70.5 -14.5t-82 11t-84.5 45.5q-16 13 -18 36q0 35 1 50q0 13 9.5 22.5t23.5 9.5l36 -2q12 0 21 -9t10 -21q0 -11 1 -16q0 -14 11 -23q24 -23 72 -23q39 0 54 17t14 64q-1 30 -16.5 42.5t-66.5 32.5q-7 3 -27.5 10.5
t-27 10.5t-22.5 10.5t-23.5 14t-19.5 16t-20.5 22t-17.5 27.5q-33 69 -8.5 128t76.5 82q6 2 17.5 5.5t43 8t60.5 1t63.5 -21t58.5 -50.5q7 -10 9 -23q0 -6 0.5 -16t0.5 -15q1 -16 -10 -27t-27 -11h-25q-14 1 -24.5 11t-11.5 25v7q0 9 -6 16q-5 7 -10.5 12t-9 7.5t-10.5 3.5
t-9.5 1h-12.5h-14q-39 0 -61.5 -36.5t-3.5 -73.5q7 -14 16 -24t22 -17t21.5 -10t28 -8.5t27.5 -8.5q62 -21 101.5 -49.5t43.5 -77.5zM161 733q32 -23 58 -36q6 -4 13 0q32 19 59 40q36 27 51 14q21 -19 -4 -43q-19 -19 -43 -39.5t-38 -33.5q-16 -14 -32 -15q-14 0 -34 15
q-5 4 -17 14t-25.5 22t-27.5 25q-34 34 -13 52q4 4 8.5 5.5t7.5 1.5t8 -2.5t8 -4.5t10 -7t11 -8z" />
    <glyph glyph-name="Tcommaaccent" unicode="&#x162;" horiz-adv-x="474" 
d="M437 683q11 0 19 -8.5t8 -19.5l-3 -73q0 -11 -8 -18.5t-19 -7.5l-28 1q-23 2 -25 24l-2 12q-2 15 -17 15h-59q-8 0 -13.5 -5.5t-4.5 -12.5l4 -494q0 -19 20 -21l18 -1q8 0 13.5 -6t5.5 -14l1 -33q0 -8 -6 -14.5t-15 -6.5h-168q-8 0 -14 6t-6 14l-2 32q0 20 20 22h11
q20 2 20 21l-1 493q0 8 -5.5 13t-13.5 5h-57q-17 0 -19 -17l-1 -9q-1 -7 -6.5 -12t-12.5 -4l-42 1q-7 0 -12.5 5.5t-5.5 12.5l-1 77q0 19 19 19l209 4h199zM301 -132q0 -34 -9 -53q-12 -22 -43 -69q-19 -30 -27 -39q-12 -14 -24 -4q-10 7 -7 21q1 1 5 11.5t7 19t7 20.5
t3.5 17t-3.5 9q-15 3 -23 14q-13 17 -6 74q3 25 19 31.5t49 5.5q52 0 52 -58z" />
    <glyph glyph-name="tcommaaccent" unicode="&#x163;" horiz-adv-x="303" 
d="M264 -3q-73 0 -109.5 2t-44.5 4.5t-11 6.5q-5 7 -9 14t-6.5 12.5t-4.5 13.5t-3 11.5t-2 13t-1 13t-0.5 15t-0.5 15.5q-2 34 -2 326q0 8 -6 14.5t-15 6.5l-27 1q-19 0 -21 21v30q-1 9 5.5 15.5t15.5 6.5h24q9 0 15 6.5t6 15.5l-1 71q0 9 6.5 15t15.5 6h57q9 0 15 -6.5
t6 -15.5l-1 -70q0 -9 6 -15.5t15 -6.5h55q20 -2 20 -21v-32q0 -9 -6 -15t-15 -6l-52 -1q-8 0 -14.5 -6t-6.5 -15q0 -304 4 -332q5 -45 75 -30q19 4 25 -15l10 -38q3 -10 -2 -19t-15 -12zM227 -122q0 -34 -9 -53q-12 -23 -43 -69q-19 -30 -27 -39q-12 -14 -24 -4q-10 7 -7 21
q1 1 5 11.5t7 19t7 20.5t3.5 17t-3.5 9q-15 3 -23 14q-13 17 -6 74q3 25 19 31.5t49 5.5q52 0 52 -58z" />
    <glyph glyph-name="Tcaron" unicode="&#x164;" horiz-adv-x="481" 
d="M288 604l5 -507q0 -8 6 -14t14 -6l18 -1q20 -2 20 -21l1 -33q0 -9 -6.5 -15t-14.5 -6l-171 -1q-19 0 -21 20l-1 33q-1 9 5 15t15 7l12 1q8 0 14 6.5t6 14.5l-2 505q0 8 -5 13.5t-13 5.5h-59q-17 0 -19 -17l-1 -9q0 -7 -5.5 -12t-13.5 -5l-43 1q-8 0 -13 5.5t-5 13.5
l-1 82q0 8 5.5 13.5t13.5 5.5l414 1q12 0 20 -6.5t7 -17.5l-2 -79q-1 -11 -9 -19t-19 -7h-28q-23 2 -26 24l-1 13q-2 15 -18 15h-60q-8 0 -13.5 -5.5t-5.5 -13.5zM176 879q32 -23 58 -36q6 -4 13 0q32 19 59 40q36 27 51 14q21 -19 -4 -43q-19 -19 -43 -39.5t-38 -33.5
q-16 -14 -32 -15q-14 0 -34 15q-5 4 -17 14t-25.5 22t-27.5 25q-34 34 -13 52q4 4 8.5 5.5t7.5 1.5t8 -2.5t8 -4.5t10 -7t11 -8z" />
    <glyph glyph-name="tcaron" unicode="&#x165;" horiz-adv-x="447" 
d="M87 642q0 9 6 15.5t16 6.5h58q21 -2 21 -22l-1 -72q0 -9 6.5 -15.5t14.5 -6.5h56q21 -2 21 -22l-1 -32q1 -8 -5.5 -14.5t-15.5 -6.5l-52 -1q-9 0 -15.5 -6.5t-6.5 -14.5q0 -312 4 -340q5 -46 76 -31q20 4 25 -15q8 -28 11 -38t-2 -19.5t-16 -12.5q-47 -14 -98.5 -12
t-68.5 26q-13 19 -19 38t-7 29t-2 42q0 7 -0.5 74t-1 148.5t-0.5 111.5q0 8 -6 14.5t-14 6.5l-28 1q-8 0 -14.5 6t-6.5 15l-1 31q0 9 6.5 15.5t15.5 6.5h24q9 0 15.5 6.5t6.5 15.5zM447 636q0 -34 -9 -52q-12 -22 -43 -69q-15 -24 -27 -39q-13 -14 -24 -5q-10 7 -7 22
q1 1 5 11.5t7 19t7 20.5t3.5 17t-3.5 9q-15 3 -23 13q-13 19 -6 75q3 25 18.5 31t49.5 6q52 0 52 -59z" />
    <glyph glyph-name="Umacron" unicode="&#x16a;" horiz-adv-x="626" 
d="M562 700q10 0 17 -7t7 -17v-32q0 -22 -27 -25q-22 -2 -22 -24v-294q0 -181 -47 -245.5t-179 -64.5q-64 0 -102.5 11t-67.5 44.5t-40.5 94.5t-11.5 161v294q0 10 -7 17t-18 7q-10 1 -16.5 7.5t-6.5 15.5l-1 31q0 23 22 26h159q10 0 17.5 -7t7.5 -17v-32q0 -10 -6.5 -16.5
t-15.5 -7.5q-28 -3 -28 -25q-4 -120 -4 -297q0 -45 1 -70t4.5 -55t11 -45.5t20 -30.5t32.5 -20.5t48 -5.5q33 0 56 11t35.5 28.5t19.5 49.5t8.5 62t1.5 79q0 234 -1 295q0 10 -7 17t-18 7q-21 2 -23 23l-1 30q-1 10 5 17t16 9h3zM440 818v-16q0 -22 -30 -22h-186
q-24 0 -32.5 7t-8.5 24q0 33 39 33h54t80 0.5t55 0.5q16 0 23 -7.5t6 -19.5z" />
    <glyph glyph-name="umacron" unicode="&#x16b;" horiz-adv-x="534" 
d="M80 130q-2 76 2 321q0 9 -6 15t-15 6h-10q-8 0 -14.5 6t-6.5 15v35q0 9 6.5 15t14.5 6l115 -1q9 0 15 -6t6 -15q0 -25 -0.5 -113t-1.5 -103q0 -13 -1.5 -87t-0.5 -99q1 -32 28 -47.5t61 -13t62 18.5q11 6 11 20v350q0 8 -6 14t-14 6h-1q-20 2 -20 21v34q0 9 6.5 15
t14.5 6h97q9 0 15 -6t6 -14l5 -433q0 -9 6.5 -15t15.5 -6h13q8 0 14.5 -6.5t6.5 -14.5v-31q0 -8 -6 -14.5t-15 -6.5l-114 -3q-9 -1 -15 5.5t-7 15.5v1q0 3 -2.5 4t-4.5 -1q-36 -31 -105 -31q-38 0 -67 9.5t-45 24t-26 34t-13.5 35.5t-3.5 34zM380 682v-16q0 -22 -30 -22
h-186q-24 0 -32.5 7t-8.5 24q0 33 39 33h54t80 0.5t55 0.5q16 0 23 -7.5t6 -19.5z" />
    <glyph glyph-name="Uring" unicode="&#x16e;" horiz-adv-x="626" 
d="M562 700q10 0 17 -7t7 -17v-32q0 -22 -27 -25q-22 -2 -22 -24v-294q0 -181 -47 -245.5t-179 -64.5q-64 0 -102.5 11t-67.5 44.5t-40.5 94.5t-11.5 161v294q0 10 -7 17t-18 7q-10 1 -16.5 7.5t-6.5 15.5l-1 31q0 23 22 26h159q10 0 17.5 -7t7.5 -17v-32q0 -10 -6.5 -16.5
t-15.5 -7.5q-28 -3 -28 -25q-4 -120 -4 -297q0 -45 1 -70t4.5 -55t11 -45.5t20 -30.5t32.5 -20.5t48 -5.5q33 0 56 11t35.5 28.5t19.5 49.5t8.5 62t1.5 79q0 234 -1 295q0 10 -7 17t-18 7q-21 2 -23 23l-1 30q-1 10 5 17t16 9h3zM382 822q-4 -39 -35.5 -57t-70.5 -10
q-38 8 -55 41.5t-6 68.5q21 63 99 56q36 -4 53.5 -32.5t14.5 -66.5zM299 798q34 0 34 39q2 43 -31 47q-25 3 -36.5 -18.5t-1.5 -44.5t35 -23z" />
    <glyph glyph-name="uring" unicode="&#x16f;" horiz-adv-x="534" 
d="M80 130q-2 76 2 321q0 9 -6 15t-15 6h-10q-8 0 -14.5 6t-6.5 15v35q0 9 6.5 15t14.5 6l115 -1q9 0 15 -6t6 -15q0 -25 -0.5 -113t-1.5 -103q0 -13 -1.5 -87t-0.5 -99q1 -32 28 -47.5t61 -13t62 18.5q11 6 11 20v350q0 8 -6 14t-14 6h-1q-20 2 -20 21v34q0 9 6.5 15
t14.5 6h97q9 0 15 -6t6 -14l5 -433q0 -9 6.5 -15t15.5 -6h13q8 0 14.5 -6.5t6.5 -14.5v-31q0 -8 -6 -14.5t-15 -6.5l-114 -3q-9 -1 -15 5.5t-7 15.5v1q0 3 -2.5 4t-4.5 -1q-36 -31 -105 -31q-38 0 -67 9.5t-45 24t-26 34t-13.5 35.5t-3.5 34zM332 691q-4 -39 -35.5 -57
t-70.5 -10q-38 8 -55 41.5t-6 68.5q21 63 99 56q36 -4 53.5 -32.5t14.5 -66.5zM249 667q34 0 34 39q2 43 -31 47q-25 3 -36.5 -18.5t-1.5 -44.5t35 -23z" />
    <glyph glyph-name="Uhungarumlaut" unicode="&#x170;" horiz-adv-x="626" 
d="M562 700q10 0 17 -7t7 -17v-32q0 -22 -27 -25q-22 -2 -22 -24v-294q0 -181 -47 -245.5t-179 -64.5q-64 0 -102.5 11t-67.5 44.5t-40.5 94.5t-11.5 161v294q0 10 -7 17t-18 7q-10 1 -16.5 7.5t-6.5 15.5l-1 31q0 23 22 26h159q10 0 17.5 -7t7.5 -17v-32q0 -10 -6.5 -16.5
t-15.5 -7.5q-28 -3 -28 -25q-4 -120 -4 -297q0 -45 1 -70t4.5 -55t11 -45.5t20 -30.5t32.5 -20.5t48 -5.5q33 0 56 11t35.5 28.5t19.5 49.5t8.5 62t1.5 79q0 234 -1 295q0 10 -7 17t-18 7q-21 2 -23 23l-1 30q-1 10 5 17t16 9h3zM248 804q10 17 26 47.5t34 61.5q23 40 60 14
q26 -19 -3 -50q-15 -17 -29.5 -35t-26.5 -31.5t-29 -31.5t-31 -7q-15 11 -1 32zM339 808q6 8 91 109q30 36 59 8q32 -29 0 -56q-77 -63 -116 -91q-23 -17 -36 -5q-8 8 -5.5 19t7.5 16z" />
    <glyph glyph-name="uhungarumlaut" unicode="&#x171;" horiz-adv-x="534" 
d="M80 130q-2 76 2 321q0 9 -6 15t-15 6h-10q-8 0 -14.5 6t-6.5 15v35q0 9 6.5 15t14.5 6l115 -1q9 0 15 -6t6 -15q0 -25 -0.5 -113t-1.5 -103q0 -13 -1.5 -87t-0.5 -99q1 -32 28 -47.5t61 -13t62 18.5q11 6 11 20v350q0 8 -6 14t-14 6h-1q-20 2 -20 21v34q0 9 6.5 15
t14.5 6h97q9 0 15 -6t6 -14l5 -433q0 -9 6.5 -15t15.5 -6h13q8 0 14.5 -6.5t6.5 -14.5v-31q0 -8 -6 -14.5t-15 -6.5l-114 -3q-9 -1 -15 5.5t-7 15.5v1q0 3 -2.5 4t-4.5 -1q-36 -31 -105 -31q-38 0 -67 9.5t-45 24t-26 34t-13.5 35.5t-3.5 34zM181 661q10 17 26 47.5t34 61.5
q23 40 60 14q26 -19 -3 -50q-15 -17 -29.5 -35t-26.5 -31.5t-29 -31.5t-31 -7q-15 11 -1 32zM272 665q6 8 91 109q30 36 59 8q32 -29 0 -56q-77 -63 -116 -91q-23 -17 -36 -5q-8 8 -6 19t8 16z" />
    <glyph glyph-name="Uogonek" unicode="&#x172;" horiz-adv-x="626" 
d="M562 700q10 0 17 -7t7 -17v-32q0 -22 -27 -25q-22 -2 -22 -24v-294q0 -162 -36.5 -229t-133.5 -78q-33 -29 -33 -73q0 -22 15 -38.5t36 -15.5q8 0 20 4q18 7 27 -11l3 -7q4 -8 0.5 -17t-11.5 -13q-15 -5 -39 -9q-43 -5 -82.5 19.5t-39.5 77.5q0 55 47 80q-64 0 -102.5 11
t-67 44.5t-40 94.5t-11.5 161v294q0 10 -7 17t-18 7q-10 1 -16.5 7.5t-6.5 15.5l-1 31q0 23 22 26h159q10 0 17.5 -7t7.5 -17v-32q0 -10 -6.5 -16.5t-15.5 -7.5q-28 -3 -28 -25q-4 -120 -4 -297q0 -45 1 -70t4.5 -55t11 -45.5t20 -30.5t32.5 -20.5t48 -5.5q33 0 56 11
t35.5 28.5t19.5 49.5t8.5 62t1.5 79q0 234 -1 295q0 10 -7 17t-18 7q-21 2 -23 23l-1 30q-1 10 5 17t16 9h3z" />
    <glyph glyph-name="uogonek" unicode="&#x173;" horiz-adv-x="547" 
d="M80 130q-2 76 2 321q0 9 -6 15t-15 6h-10q-8 0 -14.5 6t-6.5 15v35q0 9 6.5 15t14.5 6l115 -1q9 0 15 -6t6 -15q0 -25 -0.5 -113t-1.5 -103q0 -13 -1.5 -87t-0.5 -99q1 -32 28 -47.5t61 -13t62 18.5q11 6 11 20v350q0 8 -6 14t-14 6h-1q-20 2 -20 21v34q0 9 6.5 15
t14.5 6h97q9 0 15 -6t6 -14l5 -433q0 -9 6.5 -15t15.5 -6h13q8 0 14.5 -6.5t6.5 -14.5v-31q0 -8 -6 -14.5t-15 -6.5h-4q-36 -32 -36 -76q0 -22 15 -38.5t36 -15.5q8 0 20 4q18 7 27 -11l3 -7q4 -8 0.5 -17t-11.5 -13q-15 -5 -39 -9q-43 -5 -82.5 19.5t-39.5 77.5q0 60 55 84
l-58 -1q-9 -1 -15 5.5t-7 15.5v1q0 3 -2.5 4t-4.5 -1q-36 -31 -105 -31q-38 0 -67 9.5t-45 24t-26 34t-13.5 35.5t-3.5 34z" />
    <glyph glyph-name="Ydieresis" unicode="&#x178;" horiz-adv-x="542" 
d="M357 1h-166q-9 0 -15.5 6.5t-7.5 15.5v31q0 9 6.5 15.5t15.5 6.5h10q22 2 22 22v183q0 3 -2 11l-153 318q-5 9 -17 11h-7q-9 0 -15 6.5t-6 15.5l-1 34q0 10 6.5 16.5t15.5 6.5h137q9 0 15.5 -6.5t6.5 -15.5l1 -34q0 -9 -6.5 -15.5t-15.5 -6.5h-8q-4 0 -6 -3t0 -6
l103 -205q7 -9 12 0l121 203q4 8 -5 10h-19q-9 1 -15.5 7.5t-6.5 15.5l1 33q1 9 7 15.5t15 6.5h140q9 0 15.5 -6.5t6.5 -16.5v-34q0 -9 -6.5 -15t-14.5 -6q-13 -2 -19 -11l-178 -321q-3 -6 -3 -12l3 -178q0 -9 6 -15.5t15 -6.5l12 -1q9 0 15 -6t6 -15l1 -32q0 -9 -6 -15.5
t-16 -6.5zM411 801q0 -31 -60 -29q-24 1 -33 10.5t-10 30.5q-1 28 12 39.5t45 9.5q26 0 37.5 -12.5t9.5 -26t-1 -22.5zM255 801q0 -31 -60 -29q-24 1 -33 10.5t-11 30.5q-1 28 12.5 39.5t44.5 9.5q14 0 23.5 -4t14.5 -8.5t7.5 -13t2.5 -13t-0.5 -13t-0.5 -9.5z" />
    <glyph glyph-name="Zacute" unicode="&#x179;" horiz-adv-x="496" 
d="M162 95l206 -1q18 0 20 19v2q0 8 6.5 14t14.5 5l42 -3q8 0 13.5 -6t5.5 -14l-2 -92q0 -8 -6 -13.5t-14 -5.5h-396q-12 0 -21 8.5t-10 21.5l-1 32q0 13 7 24l318 516q2 5 -0.5 9t-7.5 4l-214 -1q-18 0 -20 -19l-1 -23q-2 -19 -21 -19l-40 2q-8 0 -14 6t-5 14l1 106
q0 8 6 13.5t14 5.5h408q22 -2 24 -24v-31q1 -11 -6 -24l-313 -514q-2 -4 0 -7.5t6 -4.5zM226 798q50 84 66 109q25 35 60 10q17 -12 18.5 -28t-12.5 -30q-46 -45 -98 -91q-20 -18 -36 -6q-14 12 2 36z" />
    <glyph glyph-name="zacute" unicode="&#x17a;" horiz-adv-x="464" 
d="M176 96h140q8 0 14 5.5t6 13.5v1q2 19 21 19l42 -2q8 0 13.5 -6t5.5 -14l-1 -92q0 -8 -6 -14t-14 -6l-154 1h-179q-21 0 -23 22l-1 39q0 15 7 25l248 364q2 5 -0.5 9.5t-7.5 3.5l-148 -2q-17 0 -19 -17v-16q-2 -17 -20 -17l-39 1q-8 0 -14 6t-6 14l2 95q0 8 5.5 13.5
t13.5 5.5h338q9 0 16 -6.5t7 -15.5l1 -30q0 -15 -7 -25l-248 -363q-2 -4 0.5 -8t6.5 -4zM205 659q50 84 66 109q25 35 60 10q17 -12 18.5 -28t-12.5 -30q-46 -45 -98 -91q-20 -18 -36 -6q-14 12 2 36z" />
    <glyph glyph-name="Zdotaccent" unicode="&#x17b;" horiz-adv-x="496" 
d="M162 95l206 -1q18 0 20 19v2q0 8 6.5 14t14.5 5l42 -3q8 0 13.5 -6t5.5 -14l-2 -92q0 -8 -6 -13.5t-14 -5.5h-396q-12 0 -21 8.5t-10 21.5l-1 32q0 13 7 24l318 516q2 5 -0.5 9t-7.5 4l-214 -1q-18 0 -20 -19l-1 -23q-2 -19 -21 -19l-40 2q-8 0 -14 6t-5 14l1 106
q0 8 6 13.5t14 5.5h408q22 -2 24 -24v-31q1 -11 -6 -24l-313 -514q-2 -4 0 -7.5t6 -4.5zM307 805q-1 -38 -72 -34q-27 1 -38 12t-13 36q-1 33 14.5 46.5t52.5 12.5q16 0 28 -5t17.5 -10.5t8.5 -15.5t3 -15.5t-0.5 -15.5t-0.5 -11z" />
    <glyph glyph-name="zdotaccent" unicode="&#x17c;" horiz-adv-x="464" 
d="M176 96h140q8 0 14 5.5t6 13.5v1q2 19 21 19l42 -2q8 0 13.5 -6t5.5 -14l-1 -92q0 -8 -6 -14t-14 -6l-154 1h-179q-21 0 -23 22l-1 39q0 15 7 25l248 364q2 5 -0.5 9.5t-7.5 3.5l-148 -2q-17 0 -19 -17v-16q-2 -17 -20 -17l-39 1q-8 0 -14 6t-6 14l2 95q0 8 5.5 13.5
t13.5 5.5h338q9 0 16 -6.5t7 -15.5l1 -30q0 -15 -7 -25l-248 -363q-2 -4 0.5 -8t6.5 -4zM299 651q-1 -38 -72 -34q-27 1 -38 12t-13 36q-1 33 14.5 46.5t52.5 12.5q16 0 28 -5t17.5 -10.5t8.5 -15.5t3 -15.5t-0.5 -15.5t-0.5 -11z" />
    <glyph glyph-name="Zcaron" unicode="&#x17d;" horiz-adv-x="496" 
d="M162 95l206 -1q18 0 20 19v2q0 8 6.5 14t14.5 5l42 -3q8 0 13.5 -6t5.5 -14l-2 -92q0 -8 -6 -13.5t-14 -5.5h-396q-12 0 -21 8.5t-10 21.5l-1 32q0 13 7 24l318 516q2 5 -0.5 9t-7.5 4l-214 -1q-18 0 -20 -19l-1 -23q-2 -19 -21 -19l-40 2q-8 0 -14 6t-5 14l1 106
q0 8 6 13.5t14 5.5h408q22 -2 24 -24v-31q1 -11 -6 -24l-313 -514q-2 -4 0 -7.5t6 -4.5zM185 874q32 -23 58 -36q6 -4 13 0q32 19 59 40q36 27 51 14q21 -19 -4 -43q-19 -19 -43 -39.5t-38 -33.5q-16 -14 -32 -15q-14 0 -34 15q-5 4 -17 14t-25.5 22t-27.5 25q-34 34 -13 52
q4 4 8.5 5.5t7.5 1.5t8 -2.5t8 -4.5t10 -7t11 -8z" />
    <glyph glyph-name="zcaron" unicode="&#x17e;" horiz-adv-x="464" 
d="M176 96h140q8 0 14 5.5t6 13.5v1q2 19 21 19l42 -2q8 0 13.5 -6t5.5 -14l-1 -92q0 -8 -6 -14t-14 -6l-154 1h-179q-21 0 -23 22l-1 39q0 15 7 25l248 364q2 5 -0.5 9.5t-7.5 3.5l-148 -2q-17 0 -19 -17v-16q-2 -17 -20 -17l-39 1q-8 0 -14 6t-6 14l2 95q0 8 5.5 13.5
t13.5 5.5h338q9 0 16 -6.5t7 -15.5l1 -30q0 -15 -7 -25l-248 -363q-2 -4 0.5 -8t6.5 -4zM169 735q32 -23 58 -36q6 -4 13 0q32 19 59 40q36 27 51 14q21 -19 -4 -43q-19 -19 -43 -39.5t-38 -33.5q-16 -14 -32 -15q-14 0 -34 15q-5 4 -17 14t-25.5 22t-27.5 25q-34 34 -13 52
q4 4 8.5 5.5t7.5 1.5t8 -2.5t8 -4.5t10 -7t11 -8z" />
    <glyph glyph-name="Scommaaccent" unicode="&#x218;" horiz-adv-x="505" 
d="M463 205q6 -79 -12 -116.5t-70 -69.5q-37 -22 -77 -26q-167 -21 -251 63q-9 9 -11 22l-2 59q0 13 9 22.5t23 10.5h38q13 1 22.5 -8t10.5 -22v-17q2 -17 15 -27q37 -27 94 -27q45 0 76 27t29 87q-1 26 -20 46.5t-38.5 30t-61.5 27.5q-46 19 -85 45t-70.5 66.5t-35.5 84.5
q-7 93 16.5 142.5t83.5 72.5q6 2 17 5t44 6t65 -1.5t75 -23t79 -52.5q10 -9 11 -23l2 -62q0 -13 -9.5 -22.5t-22.5 -8.5h-40q-12 0 -21 8.5t-9 21.5l-2 22q0 12 -10 19q-40 29 -97 29q-45 0 -74 -34.5t-2 -89.5q20 -41 66 -69.5t71 -34.5q39 -15 59.5 -25t50.5 -31.5
t45.5 -52.5t18.5 -74zM321 -132q0 -34 -9 -53q-12 -22 -43 -69q-19 -30 -27 -39q-12 -14 -24 -4q-10 7 -7 21q1 1 5 11.5t7 19t7 20.5t3.5 17t-3.5 9q-15 3 -23 14q-13 17 -6 74q3 25 19 31.5t49 5.5q52 0 52 -58z" />
    <glyph glyph-name="scommaaccent" unicode="&#x219;" horiz-adv-x="448" 
d="M287 -122q0 -34 -9 -53q-12 -23 -43 -69q-19 -30 -27 -39q-12 -14 -24 -4q-10 7 -7 21q1 1 5 11.5t7 19t7 20.5t3.5 17t-3.5 9q-15 3 -23 14q-13 17 -6 74q3 25 19 31.5t49 5.5q52 0 52 -58zM406 172q8 -76 -20 -114.5t-83 -57.5q-34 -12 -70.5 -14.5t-82 11t-84.5 45.5
q-16 13 -18 36q0 35 1 50q0 13 9.5 22.5t23.5 9.5l36 -2q12 0 21 -9t10 -21q0 -11 1 -16q0 -14 11 -23q24 -23 72 -23q39 0 54 17t14 64q-1 30 -16.5 42.5t-66.5 32.5q-7 3 -27.5 10.5t-27 10.5t-22.5 10.5t-23.5 14t-19.5 16t-20.5 22t-17.5 27.5q-33 69 -8.5 128t76.5 82
q6 2 17.5 5.5t43 8t60.5 1t63.5 -21t58.5 -50.5q7 -10 9 -23q0 -6 0.5 -16t0.5 -15q1 -16 -10 -27t-27 -11h-25q-14 1 -24.5 11t-11.5 25v7q0 9 -6 16q-5 7 -10.5 12t-9 7.5t-10.5 3.5t-9.5 1h-12.5h-14q-39 0 -61.5 -36.5t-3.5 -73.5q7 -14 16 -24t22 -17t21.5 -10t28 -8.5
t27.5 -8.5q62 -21 101.5 -49.5t43.5 -77.5z" />
    <glyph glyph-name="circumflex" unicode="&#x2c6;" horiz-adv-x="313" 
d="M92 631q-5 -3 -13 -9.5t-11.5 -8t-9 -3.5t-10 -0.5t-9.5 6.5q-20 18 13 51q14 14 27.5 25.5t25.5 21.5t17 14q17 15 34 15t32 -15q14 -13 38 -33.5t43 -39.5q25 -24 4 -42q-15 -14 -51 14q-16 13 -59 40q-7 3 -13 0q-26 -14 -58 -36z" />
    <glyph glyph-name="caron" unicode="&#x2c7;" horiz-adv-x="313" 
d="M92 726q32 -23 58 -36q6 -4 13 0q32 19 59 40q36 27 51 14q21 -19 -4 -43q-19 -19 -43 -39.5t-38 -33.5q-16 -14 -32 -15q-14 0 -34 15q-5 4 -17 14t-25.5 22t-27.5 25q-34 34 -13 52q4 4 8.5 5.5t7.5 1.5t8 -2.5t8 -4.5t10 -7t11 -8z" />
    <glyph glyph-name="breve" unicode="&#x2d8;" horiz-adv-x="308" 
d="M46 649h21q11 0 15 -9l7 -14q0 -2 6 -8.5t21.5 -13t34.5 -6.5h10.5h10.5h8.5t8 1t6.5 2t6.5 2.5t5.5 4.5q17 16 22 32q1 10 15 12h17q8 0 12.5 -6t3.5 -13q-5 -35 -23 -53q-23 -24 -40.5 -30.5t-56.5 -6.5q-54 0 -89 23q-31 21 -37 64q-1 7 3.5 13t11.5 6z" />
    <glyph glyph-name="dotaccent" unicode="&#x2d9;" horiz-adv-x="185" 
d="M154 647q-1 -38 -72 -34q-27 1 -38 12t-13 36q-1 33 14.5 46.5t52.5 12.5q16 0 28 -5t17.5 -10.5t8.5 -15.5t3 -15.5t-0.5 -15.5t-0.5 -11z" />
    <glyph glyph-name="ring" unicode="&#x2da;" horiz-adv-x="233" 
d="M202 674q-4 -39 -35.5 -57t-70.5 -10q-38 8 -55 41.5t-6 68.5q21 63 99 56q36 -4 53.5 -32.5t14.5 -66.5zM119 650q34 0 34 39q2 43 -31 47q-25 3 -36.5 -18.5t-1.5 -44.5t35 -23z" />
    <glyph glyph-name="ogonek" unicode="&#x2db;" horiz-adv-x="235" 
d="M101 1q21 -2 39 -2q-39 -32 -39 -78q0 -22 15 -38.5t36 -15.5q8 0 20 4q18 7 27 -11l3 -7q4 -8 0.5 -17t-11.5 -13q-15 -5 -39 -9q-43 -5 -82.5 19.5t-39.5 77.5q0 21 7.5 38t18 26t20.5 15.5t18 8.5z" />
    <glyph glyph-name="tilde" unicode="&#x2dc;" horiz-adv-x="373" 
d="M241 617q-8 0 -16.5 2t-14 4t-14.5 7.5t-12 7.5t-13 9l-10 7q-20 14 -40 7t-29 -31q-6 -20 -36 -14q-15 3 -21 9t-4 15q8 48 35 66.5t57 18.5q29 1 70 -31q29 -22 44 -22q28 0 38 30q7 24 36 21q16 -2 25 -10t6 -21q-7 -32 -25.5 -49.5t-35 -21.5t-40.5 -4z" />
    <glyph glyph-name="hungarumlaut" unicode="&#x2dd;" horiz-adv-x="324" 
d="M37 644q10 17 26 47.5t34 61.5q23 40 60 14q26 -19 -3 -50q-15 -17 -29.5 -35t-26.5 -31.5t-29 -31.5t-31 -7q-15 11 -1 32zM128 648q6 8 91 109q30 36 59 8q32 -29 0 -56q-77 -63 -116 -91q-23 -17 -36 -5q-8 9 -5.5 19t7.5 16z" />
    <glyph glyph-name="afii10023" unicode="&#x401;" horiz-adv-x="471" 
d="M403 562q-5 0 -15.5 -0.5t-16.5 -0.5q-9 0 -15 6.5t-7 15.5q0 5 -2 17q-3 18 -22 18q-15 0 -53 -0.5t-55 -0.5q-9 0 -15.5 -6.5t-6.5 -15.5q0 -21 -1 -75.5t-1 -77.5q-1 -10 5.5 -16.5t16.5 -6.5h151q8 0 14.5 -6.5t6.5 -15.5q0 -24 -1 -35q-2 -11 -10.5 -19t-19.5 -8
q-5 0 -62 2t-77 2q-10 0 -16.5 -6.5t-6.5 -16.5v-217q0 -9 6 -15.5t15 -6.5q27 -1 70 -1.5t59 0.5q5 1 4.5 23t3.5 23q7 1 51 1q9 -1 15 -7t6 -15q0 -45 -2 -82q0 -8 -6 -14.5t-14 -6.5h-144.5t-170.5 2q-3 0 -10.5 -0.5t-11.5 -0.5q-9 0 -16 6.5t-7 15.5q0 14 -2 34
q0 10 7 17t17 6h3q10 -1 17 6t7 16q0 79 1 246.5t1 249.5q0 10 -7 17t-18 6q-8 -1 -14.5 5t-7.5 14q0 26 1 38q2 21 22 21q223 5 341 -1q21 -2 21 -23q-2 -56 -6 -92q-3 -19 -22 -19zM216 806q0 -33 -61 -29q-24 1 -33 10.5t-11 30.5q-1 28 12.5 40t45.5 10q27 0 39 -13
t9.5 -26.5t-1.5 -22.5zM375 806q0 -33 -61 -29q-24 1 -33.5 10.5t-10.5 30.5q-1 28 12.5 40t45.5 10q14 0 23.5 -4t14.5 -9t7.5 -13t2.5 -13t-0.5 -13.5t-0.5 -9.5z" />
    <glyph glyph-name="afii10051" unicode="&#x402;" horiz-adv-x="643" 
d="M614 277q10 -22 8 -59.5t-11.5 -75t-37 -74t-68.5 -56.5q-27 -13 -77 -15q-9 -1 -15.5 5t-6.5 14l-2 31q-2 17 14 20q33 8 60.5 28t37.5 50q25 78 -2.5 139t-103.5 68q-78 9 -122 -16q-11 -6 -11 -20l2 -219q0 -19 20 -21l17 -1q8 0 14 -6t6 -14l1 -33q0 -8 -6.5 -14.5
t-14.5 -6.5h-168q-19 0 -21 20l-1 32q-1 8 5 14.5t14 7.5h12q20 2 20 21l-1 512q-2 18 -19 18h-58q-16 0 -18 -17l-1 -9q-2 -17 -19 -17l-42 2q-7 0 -12.5 5.5t-5.5 12.5l-1 77q0 8 5 13.5t13 5.5h409q11 0 19 -8.5t7 -19.5l-2 -69q0 -11 -8 -18.5t-19 -7.5l-28 1
q-23 2 -25 24l-2 12q-2 15 -17 15h-59q-8 0 -13.5 -5t-5.5 -13l1 -202q-1 -14 3 -15q1 0 5 2q17 16 56 24t69 6q158 -5 206 -148z" />
    <glyph glyph-name="afii10052" unicode="&#x403;" horiz-adv-x="450" 
d="M101 588q0 18 -17 18q-10 0 -22 2q-18 2 -20 21q-2 33 -1 52q0 7 5 11.5t12 4.5q132 4 354 -1q7 0 12 -5t5 -12v-99v-5q-1 -11 -9.5 -18.5t-19.5 -7.5h-25q-12 0 -20 8t-9 19q-1 5 -1 16q0 7 -5 12t-12 5q-17 0 -53.5 -0.5t-55.5 0.5q-7 0 -12 -5.5t-5 -12.5
q-3 -90 -1 -250t0 -248q-1 -7 4 -12.5t13 -5.5q4 0 12.5 -0.5t12.5 -0.5q15 0 17 -16q1 -8 -2 -43q0 -7 -4.5 -12t-11.5 -5q-5 0 -19 0.5t-24 -0.5q-39 -3 -126 0q-9 0 -15.5 6.5t-7.5 15.5v38q0 14 15 16q7 1 22 1q17 2 17 18q0 74 -0.5 156t-1.5 181.5t-1 157.5zM209 802
q50 84 66 109q25 35 60 10q17 -12 18.5 -28t-12.5 -30q-46 -45 -98 -91q-20 -18 -36 -6q-14 12 2 36z" />
    <glyph glyph-name="afii10053" unicode="&#x404;" horiz-adv-x="515" 
d="M41 362q1 69 10 120.5t21 82t33.5 52.5t38 32t43.5 21q75 27 147.5 12t122.5 -60q18 -16 18 -40v-59q-1 -11 -8.5 -18t-18.5 -7h-37q-10 0 -17.5 7t-8.5 18q0 4 -0.5 11.5t-0.5 12.5q0 11 -9 22q-2 2 -10.5 10t-12 11t-12 8.5t-16.5 8t-21 5t-29 2.5q-63 2 -95 -48.5
t-31 -112.5q0 -3 0.5 -20.5t0.5 -25.5q2 -14 15 -14l163 -2q12 0 20 -8t8 -20l-1 -30q0 -11 -8 -19t-19 -9l-162 -2q-5 0 -9 -4t-3 -9v-20t0.5 -20t0.5 -18t0.5 -18.5t1.5 -16.5t2 -17.5t2.5 -15t3.5 -15.5l4.5 -13.5t5.5 -14.5q12 -25 41 -41t72 -14q34 0 64.5 22t37.5 54
v3q0 13 -0.5 22t-0.5 15q0 8 6 14t15 5h47q8 0 13 -5.5t5 -12.5q0 -15 -1 -30t-1 -26q0 -12 -5 -24q-25 -67 -71.5 -92.5t-128.5 -22.5q-58 -4 -102 20.5t-68 63.5t-37.5 93t-17 101t-1.5 96z" />
    <glyph glyph-name="afii10054" unicode="&#x405;" horiz-adv-x="505" 
d="M463 205q6 -79 -12 -116.5t-70 -69.5q-37 -22 -77 -26q-167 -21 -251 63q-9 9 -11 22l-2 59q0 13 9 22.5t23 10.5h38q13 1 22.5 -8t10.5 -22v-17q2 -17 15 -27q37 -27 94 -27q45 0 76 27t29 87q-1 26 -20 46.5t-38.5 30t-61.5 27.5q-46 19 -85 45t-70.5 66.5t-35.5 84.5
q-7 93 16.5 142.5t83.5 72.5q6 2 17 5t44 6t65 -1.5t75 -23t79 -52.5q10 -9 11 -23l2 -62q0 -13 -9.5 -22.5t-22.5 -8.5h-40q-12 0 -21 8.5t-9 21.5l-2 22q0 12 -10 19q-40 29 -97 29q-45 0 -74 -34.5t-2 -89.5q20 -41 66 -69.5t71 -34.5q39 -15 59.5 -25t50.5 -31.5
t45.5 -52.5t18.5 -74z" />
    <glyph glyph-name="afii10055" unicode="&#x406;" horiz-adv-x="286" 
d="M222 75q8 -1 14 -7t5 -14l-2 -35q-2 -19 -21 -19l-142 2q-18 0 -20 19l-2 35q-1 8 4.5 14t13.5 7q18 2 18 21l-1 500q0 8 -5.5 14t-13.5 6l-10 1q-17 0 -19 19l-1 41q0 19 18 21h7q45 -2 161 -1q8 0 14 -6t6 -14v-41q0 -18 -19 -20l-13 -1q-18 -2 -18 -20v-301l1 -200
q0 -19 25 -21z" />
    <glyph glyph-name="afii10056" unicode="&#x407;" horiz-adv-x="283" 
d="M213 76l6 -1q8 -1 14 -7t5 -14l-2 -35q-2 -19 -21 -19l-142 2q-18 0 -20 19l-2 35q-1 8 4.5 14t13.5 7q18 2 18 21l-1 500q0 8 -5.5 14t-13.5 6l-10 1q-17 0 -19 19l-2 34q0 19 18 21l5 1h2l162 1q8 0 14 -6t6 -14v-37q0 -18 -19 -20l-13 -1q-18 -2 -18 -20v-301l1 -200
q0 -8 5.5 -14t13.5 -6zM271 792q0 -31 -60 -29q-24 1 -33 10.5t-10 30.5q-1 28 12 39.5t45 9.5q26 0 37.5 -12.5t9.5 -26t-1 -22.5zM115 792q0 -31 -60 -29q-24 1 -33 10.5t-11 30.5q-1 28 12.5 39.5t44.5 9.5q14 0 23.5 -4t14.5 -8.5t7.5 -13t2.5 -13t-0.5 -13t-0.5 -9.5z
" />
    <glyph glyph-name="afii10057" unicode="&#x408;" horiz-adv-x="491" 
d="M426 699q10 0 17 -7.5t7 -17.5l1 -32q0 -10 -6.5 -17t-16.5 -8h-5q-22 -2 -22 -24q5 -386 -5 -428q-20 -82 -73.5 -127t-138.5 -45q-147 -1 -182 119q-1 2 -1 7q-1 30 0 61q0 11 7 18t17 7h13.5h16.5h13q11 -1 19 -9t9 -19q2 -36 3 -39q11 -33 28.5 -50.5t52.5 -17.5
q33 0 57 23t35.5 57t16.5 63t5 53v328q0 10 -7 16.5t-17 7.5h-2q-21 2 -23 23l-1 33q-1 10 5.5 17t15.5 8h161z" />
    <glyph glyph-name="afii10058" unicode="&#x409;" horiz-adv-x="826" 
d="M784 307q25 -87 -5 -173.5t-115 -115.5q-24 -10 -80 -13.5t-204 -5.5q-9 0 -16 6t-7 15l-2 29q-1 10 5.5 17t16.5 7h1q10 0 16.5 7t6.5 16q-1 45 -2 247t-1 252q0 10 -7 17.5t-17 7.5q-19 0 -60.5 -0.5t-59.5 -0.5q-10 0 -17.5 -7t-8.5 -18q-6 -104 -2.5 -185.5
t-7.5 -170t-44 -156.5v-1q-28 -44 -49.5 -64t-50.5 -19q-25 -2 -47 4q-8 2 -6 50q2 18 19 25q34 13 55.5 65t26.5 122q6 30 3 170.5t-3 159.5q0 10 -7 17t-17 8t-17 8.5t-7 17.5l1 31q0 10 7.5 17.5t17.5 7.5l424 -2q10 0 17.5 -7.5t7.5 -17.5v-28q0 -10 -7 -17t-17 -8h-10
q-20 -2 -20 -21q0 -69 1 -115q0 -7 5.5 -12.5t13.5 -5.5h36q5 0 14 -0.5t16.5 -1t14.5 -1.5q73 -9 115.5 -44t72.5 -113zM676 166q31 94 -16.5 155.5t-143.5 61.5q-8 0 -13 -5.5t-5 -12.5l5 -268v-3q3 -18 23 -18q48 0 91.5 22t58.5 68z" />
    <glyph glyph-name="afii10059" unicode="&#x40a;" horiz-adv-x="823" 
d="M794 307q21 -63 -6.5 -154.5t-113.5 -134.5q-38 -18 -137 -18l-155 -1q-14 0 -19 13l-3 39q0 18 17 20l22 2q18 3 18 20l-2 228q0 7 -6 12.5t-14 5.5h-198q-7 0 -13 -5.5t-6 -13.5l-2 -226q0 -18 18 -20h7q17 -2 17 -20v-33q0 -8 -5.5 -13.5t-12.5 -5.5l-48 -2h-91
q-7 0 -13 6t-6 13l-2 36q0 8 6 14.5t14 5.5h4q8 0 14 6t6 14l-2 510q0 7 -6 13t-13 6q-8 0 -14 6t-6 14l1 38q0 8 6 13.5t13 4.5h132q18 0 20 -19l1 -38q0 -8 -6 -14t-14 -5h-2q-8 0 -14 -6t-6 -14l3 -173q0 -8 6 -13.5t14 -5.5l196 1q8 0 14 5.5t5 13.5l1 172q0 17 -18 19
h-7q-18 2 -18 20l1 38q0 8 5.5 13.5t13.5 5.5l150 -1q8 0 13.5 -6t5.5 -14l-1 -36q0 -16 -17 -18l-16 -2q-17 -2 -17 -20l1 -122q0 -12 10 -14q2 -1 5 -1h37q5 0 14 -0.5t16.5 -1t14.5 -1.5q75 -9 118.5 -43.5t69.5 -112.5zM686 166q29 86 -2 147t-124 70h-34q-7 0 -11.5 -5
t-4.5 -12l3 -272v-1q3 -17 23 -17h24q39 4 76.5 27.5t49.5 62.5z" />
    <glyph glyph-name="afii10060" unicode="&#x40b;" horiz-adv-x="662" 
d="M631 56l1 -35q0 -8 -6 -14t-14 -6h-151q-8 0 -14 6t-6 14l1 35q0 8 5.5 13.5t13.5 5.5l5 1q8 0 13.5 6t5.5 14q-1 12 -0.5 43.5t0.5 79t-1 66.5q-1 23 -24.5 39t-55.5 22t-64.5 3.5t-51.5 -13.5q-11 -8 -11 -22l2 -217q0 -19 19 -21l18 -1q18 0 20 -20v-33
q1 -8 -5.5 -14.5t-14.5 -6.5h-168q-19 0 -21 20l-1 32q-1 8 5 14.5t14 7.5h12q8 1 14 7t5 14l-1 512q0 8 -5.5 13t-12.5 5h-58q-18 0 -18 -17l-1 -9q-2 -17 -19 -17l-42 2q-8 0 -13.5 5.5t-5.5 12.5v77q0 8 5 13.5t13 5.5l409 1q11 0 19 -8.5t7 -19.5l-2 -70
q-1 -11 -9 -18.5t-19 -7.5l-27 1q-23 2 -26 24l-1 12q-2 15 -17 15h-60q-8 0 -13 -5t-5 -13l1 -202q-1 -14 3 -15q1 0 5 2q33 30 125 30q91 0 133 -46.5t42 -108.5q0 -10 -1 -74t0 -103q2 -19 21 -19l7 1q8 0 14.5 -5.5t6.5 -13.5z" />
    <glyph glyph-name="afii10061" unicode="&#x40c;" horiz-adv-x="563" 
d="M511 85q7 -12 20 -12h11q8 0 14 -6t6 -14l1 -32q0 -9 -6 -15.5t-15 -6.5l-168 1q-9 0 -15 6t-6 15v31q0 9 6 15t15 6q2 0 8 0.5t9 0.5q9 0 5 10q-61 117 -170 297q-10 16 1 32q163 242 185 271q10 14 30 16h91q22 -2 22 -21v-35q0 -21 -22 -21h-48q-10 -1 -16 -9
q-75 -109 -131 -203q-7 -12 -1 -25q34 -60 87.5 -151.5t86.5 -149.5zM59 74q14 0 21 1q14 3 14 18q0 80 -2 252.5t-2 256.5q0 21 -23 21q-14 -2 -14 13l-3 43q0 20 16 20h146q18 0 19 -16q0 -9 -0.5 -24.5t-0.5 -24.5q0 -12 -19 -12h-6q-8 1 -12.5 -4.5t-4.5 -17.5
q3 -75 6 -247.5t7 -261.5q1 -8 6.5 -13t12.5 -4h12q15 0 18 -15q7 -53 -14 -58q-16 -5 -177 -1q-15 0 -17 13q-4 22 1 46q2 13 16 15zM270 797q50 84 66 109q25 35 60 10q17 -12 18.5 -28t-12.5 -30q-46 -45 -98 -91q-20 -18 -36 -6q-14 12 2 36z" />
    <glyph glyph-name="afii10062" unicode="&#x40e;" horiz-adv-x="530" 
d="M71 2q-8 4 -11 7.5t-6 13t2 24.5q9 38 30 29q41 -6 68 3t42 42q2 4 27 78q3 7 -1 14q-37 77 -170 399q-5 9 -13 10l-5 1q-10 1 -17 9t-7 19l1 23q0 10 7.5 17.5t17.5 7.5h109q11 0 18 -7.5t7 -17.5v-20q1 -10 -5 -17.5t-15 -9.5q-1 -1 -3 -1q-5 0 -3 -5q0 -1 2 -3
q77 -202 116 -290q2 -2 4.5 -2t3.5 2l102 294l-18 2q-24 2 -26 26l-1 23q0 11 7.5 19t17.5 8h142q11 0 18.5 -8.5t6.5 -19.5l-3 -24q-1 -10 -8.5 -17t-17.5 -7h-9q-12 -2 -15 -12q-50 -163 -68 -209q-24 -57 -59.5 -156t-52.5 -142q-14 -39 -38 -64t-47.5 -35t-51 -12
t-44.5 0.5t-34 7.5zM161 868h5q16 2 23 -14l3 -8q2 -3 7 -9t21 -13t35 -7h12.5t11.5 0.5t9.5 1t9 1.5t7 2.5t6.5 4.5q16 16 20 28q6 16 23 16q12 1 20 -8.5t5 -21.5q-6 -27 -21 -42q-23 -23 -40.5 -29.5t-56.5 -7.5q-54 0 -89 23q-27 19 -35 53q-3 11 4.5 20.5t19.5 9.5z
" />
    <glyph glyph-name="afii10145" unicode="&#x40f;" horiz-adv-x="626" 
d="M421 98l-3 505q0 17 -17 19h-2q-16 2 -16 19v40q0 7 5.5 12.5t13.5 5.5h139q8 0 13.5 -5.5t5.5 -13.5l-2 -40q0 -16 -18 -18t-18 -19l2 -506q0 -7 5.5 -12.5t13.5 -5.5l24 -1q8 0 13.5 -5.5t5.5 -13.5v-34q0 -10 -7 -17t-17 -7l-183 -1q-14 0 -14 -14v-73
q0 -8 -5.5 -13.5t-13.5 -5.5l-54 1q-8 0 -13.5 5.5t-5.5 12.5l-1 69q0 8 -5.5 13t-13.5 5h-193q-8 0 -13 5.5t-5 13.5l-1 39q-1 7 4.5 13t13.5 6h14q8 1 13.5 6.5t4.5 13.5l-1 507q0 8 -6 13.5t-14 4.5h-5q-8 0 -13.5 5.5t-5.5 12.5l1 39q-1 8 5 14t14 6l142 1
q8 0 13.5 -5.5t5.5 -13.5v-37q0 -17 -18 -19h-5q-18 -2 -18 -19l5 -508q0 -19 19 -19h192q8 0 13.5 5.5t5.5 13.5z" />
    <glyph glyph-name="afii10017" unicode="&#x410;" 
d="M300 716h14q31 -2 39 -30q165 -552 182 -598q5 -13 19 -13h6q19 -2 19 -20v-35q0 -8 -6 -13.5t-14 -5.5h-162q-8 0 -13.5 6t-5.5 14v34q-1 8 5 14t14 6h14q5 0 7 3.5t1 8.5q-5 13 -17.5 64.5t-19.5 72.5q-5 11 -22 11h-127q-14 0 -17 -12q-15 -45 -27 -92q-2 -6 -7 -22
t-7 -21q-1 -4 3.5 -8t9.5 -5h16q10 -1 17 -8t6 -17v-24q0 -10 -7 -17t-17 -7l-164 -1q-12 0 -20.5 9t-8.5 21l1 18q1 11 8.5 19t18.5 8l7 1q14 0 19 13q11 27 196 597q8 29 40 29zM360 329q-7 32 -27 108.5t-21 80.5q0 3 -4 3l-7 -1q-3 0 -5 -3q-1 -5 -22 -80.5t-29 -106.5
q-2 -7 2 -12t10 -5h90q7 0 10.5 4.5t2.5 11.5z" />
    <glyph glyph-name="afii10018" unicode="&#x411;" horiz-adv-x="500" 
d="M439 682l-2 -75q0 -7 -5 -12.5t-12 -5.5h-37q-7 0 -12.5 5t-5.5 12q0 8 -5.5 13t-12.5 5l-131 -3q-7 0 -12.5 -5t-5.5 -12q0 -10 -1 -50t-1 -60q0 -8 5.5 -14t13.5 -6q4 0 14 0.5t15 0.5q62 3 112.5 -19t75.5 -71q29 -57 27 -116q0 -12 0.5 -50.5t-1 -64.5t-7.5 -49
q-13 -47 -54 -73t-94 -32q-42 -5 -244 -1q-18 2 -18 15v46q-1 7 3.5 11t12.5 4l16 1q17 2 17 18q0 21 -0.5 129t-0.5 195v187q0 16 -17 18h-9q-7 0 -12 5t-5 12l-2 40q0 8 5.5 13.5t12.5 5.5l359 1q7 0 12.5 -5t5.5 -13zM354 147q0 65 -1 100q-1 28 -2 41t-7 34.5t-19 35.5
q-18 19 -55.5 26t-62.5 -3q-13 -5 -13 -17q-2 -60 -1.5 -89.5t2.5 -87.5t2 -87q2 -15 16 -17q134 -9 141 64z" />
    <glyph glyph-name="afii10019" unicode="&#x412;" horiz-adv-x="537" 
d="M62 75l18 1q9 1 15.5 7.5t6.5 16.5q4 192 4 223q0 30 1.5 147t-0.5 134q0 16 -17 18h-15q-7 0 -12.5 5t-5.5 13l-2 39q0 8 5.5 13.5t12.5 5.5q150 3 229 1q72 -1 115.5 -33.5t54 -77.5t6.5 -86.5t-19 -67.5q-10 -20 -28 -31q-6 -4 -6.5 -10.5t5.5 -10.5q38 -27 51 -64.5
t15 -109.5q1 -89 -41 -147t-134 -61q-91 -1 -257 2q-10 0 -17 6.5t-7 16.5v27q0 9 6.5 16t15.5 7zM209 331v-237q0 -7 5 -12.5t12 -5.5q47 -6 87 -0.5t55 35.5q44 88 0 182q-4 9 -9 16t-8.5 12.5t-10.5 10t-11 7t-13.5 4.5t-13.5 3t-16.5 1.5t-17 1t-20.5 0.5h-21
q-7 0 -12.5 -5.5t-5.5 -12.5zM212 605l1 -153q0 -8 5.5 -13t12.5 -5q127 3 134 34q9 22 5 76.5t-26 67.5q-17 11 -115 11q-17 -2 -17 -18z" />
    <glyph glyph-name="afii10020" unicode="&#x413;" horiz-adv-x="430" 
d="M101 588q0 18 -17 18q-10 0 -22 2q-18 2 -20 21q-2 33 -1 52q0 7 5 11.5t12 4.5q132 4 354 -1q7 0 12 -5t5 -12v-99v-5q-1 -11 -9.5 -18.5t-19.5 -7.5h-25q-12 0 -20 8t-9 19q-1 5 -1 16q0 7 -5 12t-12 5q-17 0 -53.5 -0.5t-55.5 0.5q-7 0 -12 -5.5t-5 -12.5
q-3 -90 -1 -250t0 -248q-1 -7 4 -12.5t13 -5.5q4 0 12.5 -0.5t12.5 -0.5q15 0 17 -16q1 -8 -2 -43q0 -7 -4.5 -12t-11.5 -5q-5 0 -19 0.5t-24 -0.5q-39 -3 -126 0q-9 0 -15.5 6.5t-7.5 15.5v38q0 14 15 16q7 1 22 1q17 2 17 18q0 74 -0.5 156t-1.5 181.5t-1 157.5z" />
    <glyph glyph-name="afii10021" unicode="&#x414;" horiz-adv-x="588" 
d="M525 636q0 -10 -6.5 -16.5t-15.5 -5.5h-2q-11 0 -19.5 -8t-8.5 -19q1 -81 3 -244t2 -241q0 -9 6.5 -16t15.5 -7h23q21 0 23 -21t-1 -112q-2 -20 -22 -22h-37q-18 2 -22 21l-2 35q-4 20 -24 20q-53 0 -160.5 1t-162.5 1q-10 0 -16.5 -6.5t-6.5 -15.5q0 -22 -1 -31
q-2 -20 -21 -20q-13 -1 -29 -1q-13 0 -18 1q-20 0 -22 21q0 10 -0.5 49.5t-0.5 55.5q0 9 6.5 16t15.5 8q3 1 8 1q16 1 29.5 8t23 22t17 28t13 37t9 37t6.5 41t3.5 35.5t2.5 32.5q5 55 12 272q1 10 -6 17t-17 7h-1q-21 0 -23 21q-3 26 -2 34q0 19 19 22q52 7 117.5 8t150 -2
t119.5 -3q9 0 15.5 -8t6.5 -17q2 -14 0 -36zM255 616q-8 0 -14.5 -6.5t-6.5 -14.5q-3 -43 -2.5 -113.5t-0.5 -110.5q-1 -69 -8 -111.5t-21.5 -85.5t-18.5 -57q-3 -10 3.5 -21t19.5 -11q49 -1 149 1q10 0 17 7t7 17q1 2 0.5 240.5t-0.5 244.5q0 9 -6.5 15.5t-16.5 6.5
q-59 2 -101 -1z" />
    <glyph glyph-name="afii10022" unicode="&#x415;" horiz-adv-x="471" 
d="M403 562q-5 0 -15.5 -0.5t-16.5 -0.5q-9 0 -15 6.5t-7 15.5q0 5 -2 17q-3 18 -22 18q-15 0 -53 -0.5t-55 -0.5q-9 0 -15.5 -6.5t-6.5 -15.5q0 -21 -1 -75.5t-1 -77.5q-1 -10 5.5 -16.5t16.5 -6.5h151q8 0 14.5 -6.5t6.5 -15.5q0 -24 -1 -35q-2 -11 -10.5 -19t-19.5 -8
q-5 0 -62 2t-77 2q-10 0 -16.5 -6.5t-6.5 -16.5v-217q0 -9 6 -15.5t15 -6.5q27 -1 70 -1.5t59 0.5q5 1 4.5 23t3.5 23q7 1 51 1q9 -1 15 -7t6 -15q0 -45 -2 -82q0 -8 -6 -14.5t-14 -6.5h-144.5t-170.5 2q-3 0 -10.5 -0.5t-11.5 -0.5q-9 0 -16 6.5t-7 15.5q0 14 -2 34
q0 10 7 17t17 6h3q10 -1 17 6t7 16q0 79 1 246.5t1 249.5q0 10 -7 17t-18 6q-8 -1 -14.5 5t-7.5 14q0 26 1 38q2 21 22 21q223 5 341 -1q21 -2 21 -23q-2 -56 -6 -92q-3 -19 -22 -19z" />
    <glyph glyph-name="afii10024" unicode="&#x416;" horiz-adv-x="790" 
d="M475 74q24 -2 25 -22l2 -28q0 -23 -19 -24q-101 -2 -182 0q-19 2 -21 10q-2 6 -2 24v21q0 18 22 20q8 0 11 1q21 2 21 23l-2 507q0 8 -5.5 12t-12.5 3q-18 0 -20 14v20t-2 26q-1 7 3.5 12t11.5 6q80 4 134 0l20 -3q14 -2 14 -15q0 -32 -3 -46q-2 -13 -15 -13l-10 1
q-7 0 -11.5 -5t-3.5 -12q6 -103 6 -288t1 -217q0 -10 7 -17.5t17 -8.5zM214 393q7 12 -1 24q-21 31 -60 95t-63 99q-8 10 -19 10l-26 1q-24 0 -24 18l-2 44q0 16 16 16q17 -1 50 -1q21 -2 44 0q6 0 11 -5q33 -35 63 -86q28 -34 102 -178q10 -21 1 -43q-78 -176 -139 -283
q-5 -10 0 -19.5t16 -9.5q9 -1 15 -7.5t5 -15.5l-1 -31q0 -9 -6.5 -15.5t-16.5 -6.5q-121 0 -159 1q-19 0 -19 19q0 6 -0.5 18.5t-0.5 19.5q0 8 5.5 13.5t12.5 5.5l24 3q12 0 17 10q26 50 71.5 141t83.5 163zM740 82q4 -6 11 -6h25q12 0 12 -12l2 -51q0 -13 -13 -13l-178 1
q-13 2 -13 13l-1 49q0 12 12 12l15 2q7 1 10 6.5t0 11.5q-131 237 -161 289q-11 18 0 37l12 21q114 178 165 241q10 15 32 15q43 0 67 1q11 0 19 -8t9 -19v-18q0 -11 -7.5 -19.5t-18.5 -8.5l-34 -2q-13 -2 -21 -12q-56 -80 -125 -196q-6 -13 0 -24q37 -65 181 -310z" />
    <glyph glyph-name="afii10025" unicode="&#x417;" horiz-adv-x="478" 
d="M437 238q2 -137 -63.5 -199t-193.5 -48q-50 5 -92 44t-59 91q-5 13 -9 30v45q0 12 8.5 20t20.5 8h36q11 0 19.5 -8.5t8.5 -20.5v-26q-4 -33 33.5 -68t73.5 -36q42 -1 63 15t35 54q6 17 9 36t3.5 26.5t-1.5 33t-2 26.5q-2 40 -17 69q-3 5 -9 9t-14.5 6.5t-14 4t-15.5 3
t-12 1.5q-7 2 -26 0q-11 0 -19 7.5t-10 18.5q-1 9 -1 23q-1 11 7 19.5t19 9.5q55 4 78 38q14 24 14 60q-2 75 -74 88q-58 11 -102 -48q-3 -3 -3 -9l-2 -28q0 -10 -7 -17t-17 -7h-32q-11 0 -19 8t-9 19q-1 17 -1 49q0 7 2 11q27 77 98.5 100t161.5 3q69 -16 97.5 -75.5
t15.5 -136.5q-13 -65 -37 -83q-8 -7 -1 -14q23 -19 36 -46.5t16 -46t7 -59.5z" />
    <glyph glyph-name="afii10026" unicode="&#x418;" horiz-adv-x="618" 
d="M209 310q145 139 205 213q12 16 12 27q1 14 1 54q0 17 -17 19l-8 1q-17 2 -17 18v35q-1 8 5 14t14 6l146 2q8 0 13.5 -5.5t5.5 -12.5l1 -36q1 -8 -4.5 -13.5t-13.5 -6.5l-7 -1q-7 0 -12 -5.5t-5 -13.5v-342q0 -12 4 -168q2 -18 19 -20h7q19 -2 19 -21l1 -33
q0 -9 -6 -15.5t-15 -6.5h-148q-21 2 -21 21v33q0 17 18 21q18 2 18 20q0 172 -4 285q0 5 -5 7t-9 -1q-173 -173 -210 -221q-10 -12 -10 -25v-49q-1 -7 4 -12t12 -5h23q16 0 16 -16v-41q0 -15 -17 -17h-152q-7 0 -12 5t-5 12l1 41q0 16 16 16h3q16 0 16 16q0 433 -1 518
q0 8 -5.5 13.5t-12.5 5.5l-11 1q-17 0 -19 18l-2 34q0 19 19 21h172q8 0 13.5 -5.5t5.5 -13.5q0 -6 -0.5 -20t-0.5 -20q-2 -16 -18 -18l-16 -1q-18 -2 -18 -19v-288q0 -5 4 -6.5t8 1.5z" />
    <glyph glyph-name="afii10027" unicode="&#x419;" horiz-adv-x="618" 
d="M196 872h21q11 0 15 -9l7 -14q0 -2 6 -8.5t21.5 -13t34.5 -6.5h10.5h10.5h8.5t8 1t6.5 2t6.5 2.5t5.5 4.5q17 15 22 32q1 10 15 12h17q8 0 12.5 -6t3.5 -13q-5 -35 -23 -53q-23 -24 -40.5 -30.5t-56.5 -6.5q-54 0 -89 23q-31 21 -37 64q-1 7 3.5 13t11.5 6zM209 310
q145 139 205 213q12 16 12 27q1 14 1 54q0 17 -17 19l-8 1q-17 2 -17 18v35q-1 8 5 14t14 6l146 2q8 0 13.5 -5.5t5.5 -12.5l1 -36q1 -8 -4.5 -13.5t-13.5 -6.5l-7 -1q-7 0 -12 -5.5t-5 -13.5v-342q0 -12 4 -168q2 -18 19 -20h7q19 -2 19 -21l1 -33q0 -9 -6 -15.5t-15 -6.5
h-148q-21 2 -21 21v33q0 17 18 21q18 2 18 20q0 172 -4 285q0 5 -5 7t-9 -1q-173 -173 -210 -221q-10 -12 -10 -25v-49q-1 -7 4 -12t12 -5h23q16 0 16 -16v-41q0 -15 -17 -17h-152q-7 0 -12 5t-5 12l1 41q0 16 16 16h3q16 0 16 16q0 433 -1 518q0 8 -5.5 13.5t-12.5 5.5
l-11 1q-17 0 -19 18l-2 34q0 19 19 21h172q8 0 13.5 -5.5t5.5 -13.5q0 -6 -0.5 -20t-0.5 -20q-2 -16 -18 -18l-16 -1q-18 -2 -18 -19v-288q0 -5 4 -6.5t8 1.5z" />
    <glyph glyph-name="afii10028" unicode="&#x41a;" horiz-adv-x="563" 
d="M511 85q7 -12 20 -12h11q8 0 14 -6t6 -14l1 -32q0 -9 -6 -15.5t-15 -6.5l-168 1q-9 0 -15 6t-6 15v31q0 9 6 15t15 6q2 0 8 0.5t9 0.5q9 0 5 10q-61 117 -170 297q-10 16 1 32q163 242 185 271q10 14 30 16h91q22 -2 22 -21v-35q0 -21 -22 -21h-48q-10 -1 -16 -9
q-75 -109 -131 -203q-7 -12 -1 -25q34 -60 87.5 -151.5t86.5 -149.5zM59 74q14 0 21 1q14 3 14 18q0 80 -2 252.5t-2 256.5q0 21 -23 21q-14 -2 -14 13l-3 43q0 20 16 20h146q18 0 19 -16q0 -9 -0.5 -24.5t-0.5 -24.5q0 -12 -19 -12h-6q-8 1 -12.5 -4.5t-4.5 -17.5
q3 -75 6 -247.5t7 -261.5q1 -8 6.5 -13t12.5 -4h12q15 0 18 -15q7 -53 -14 -58q-16 -5 -177 -1q-15 0 -17 13q-4 22 1 46q2 13 16 15z" />
    <glyph glyph-name="afii10029" unicode="&#x41b;" horiz-adv-x="578" 
d="M84 621h-1q-24 2 -24 26l1 27q0 10 7 17.5t18 7.5l426 -2q11 0 18.5 -7t7.5 -18v-29q0 -11 -7.5 -18.5t-17.5 -8.5h-10q-20 -2 -20 -21q0 -38 4 -251t4 -246q2 -21 22 -23h4q9 -1 15.5 -7.5t6.5 -16.5v-28q0 -10 -6.5 -16.5t-16.5 -6.5l-150 -1q-9 -1 -15.5 5.5
t-7.5 15.5l-2 29q-1 10 6 17.5t17 7.5h1q10 0 16.5 7t6.5 16q-3 240 -3 497q0 10 -7 17.5t-18 7.5h-37h-46.5h-37.5q-11 0 -18.5 -7.5t-7.5 -17.5l-6 -281q-1 -76 -11.5 -120.5t-37.5 -109.5v-1q-29 -45 -50.5 -65.5t-51.5 -19.5q-25 -2 -47 5q-11 3 -6 50q2 20 19 26
q34 13 56 65.5t27 123.5q4 53 4.5 108.5t0 121t-0.5 98.5q0 10 -7 17.5t-17 8.5z" />
    <glyph glyph-name="afii10030" unicode="&#x41c;" horiz-adv-x="811" 
d="M368 16l-168 454q-1 3 -4 2.5t-3 -3.5q-2 -58 0 -189t1 -182q-1 -9 5.5 -15.5t15.5 -6.5q15 -2 20 -5q9 -5 7 -45q0 -10 -8 -18t-18 -8q-26 -1 -81.5 -1.5t-68.5 -0.5q-10 -1 -16.5 5.5t-7.5 15.5q-2 20 -2 30t7.5 17.5t18.5 7.5q1 0 3.5 0.5t4.5 0.5q8 0 14 6t6 14
q2 78 1.5 275t0.5 233q0 8 -6 14t-14 6h-9q-11 1 -18.5 8.5t-7.5 17.5q-1 10 -1 31q0 19 19 19q54 3 138 0q12 0 17 -12q31 -75 92 -249.5t89 -243.5q1 -1 1 -3q3 -5 9.5 -5t7.5 6q32 82 91 250t90 246q4 12 18 12h77h58q23 2 23 -19q0 -5 0.5 -18t0.5 -17q0 -21 -22 -23
q-7 -1 -20 -1q-8 1 -14 -5t-6 -15q2 -230 2 -335q0 -101 1 -122v-48q2 -18 20 -20q7 0 10 -1q8 0 14 -6.5t6 -14.5l-1 -26q0 -11 -8 -19t-19 -8l-143 -1q-10 0 -17 7t-8 17q0 7 -0.5 18t-0.5 12q0 9 7 15.5t16 5.5h2q9 -1 15.5 5t6.5 16v370q0 5 -4 5t-5 -4
q-13 -36 -55.5 -157t-73.5 -208.5t-33 -91.5q-7 -13 -24 -15q-18 0 -26 2q-16 3 -23 18z" />
    <glyph glyph-name="afii10031" unicode="&#x41d;" horiz-adv-x="613" 
d="M573 58l-1 -41q-1 -7 -6.5 -12t-12.5 -5l-167 -2q-13 0 -18 13l-4 40q0 18 18 20l22 3q18 2 18 20l-8 226q0 8 -6 13.5t-14 5.5h-195q-7 0 -13 -5.5t-6 -13.5l-2 -226q0 -18 18 -20h7q18 -2 18 -20v-33q0 -8 -5.5 -14t-13.5 -6l-48 -2h-93q-7 0 -13 5.5t-6 13.5l-2 37
q0 8 6 14.5t14 6.5l4 -1q8 0 14 6t6 14l-2 513q0 8 -5.5 14t-13.5 6q-9 0 -14.5 6t-5.5 14l1 33q0 8 6 13.5t14 5.5l134 -1q8 0 13.5 -5.5t5.5 -13.5l1 -34q0 -9 -6 -15t-14 -6h-2q-8 1 -14 -5.5t-6 -14.5l3 -169q0 -8 6 -13.5t14 -5.5l199 1q8 0 14 5.5t6 13.5l-2 169
q0 18 -18 20h-7q-19 2 -19 20l1 34q0 8 6 14t14 6l154 -1q8 0 14 -6t5 -14v-34q-2 -17 -18 -19l-16 -1q-18 -4 -18 -20l6 -511q0 -8 6 -14t14 -5h13q18 0 20 -17z" />
    <glyph glyph-name="afii10032" unicode="&#x41e;" horiz-adv-x="561" 
d="M281 -9q-66 0 -114.5 31t-75.5 85.5t-39 117.5t-12 137q0 63 12.5 120t38.5 107t73 81.5t110 36.5q56 0 100 -20.5t71 -53.5t45 -78.5t24.5 -91.5t6.5 -97q0 -167 -60.5 -271t-179.5 -104zM274 629q-67 0 -101 -73.5t-34 -188.5q0 -134 37.5 -214t106.5 -80
q75 0 106.5 74.5t31.5 217.5q0 129 -32 196.5t-115 67.5z" />
    <glyph glyph-name="afii10033" unicode="&#x41f;" horiz-adv-x="623" 
d="M383 73l23 1q16 2 16 20l3 511q0 19 -19 19l-194 -2q-19 -2 -19 -19l3 -510q0 -8 5.5 -13.5t13.5 -5.5q7 0 12.5 -5.5t5.5 -13.5l-1 -38q0 -7 -5 -12.5t-13 -5.5l-152 -2q-8 0 -13.5 6t-5.5 14v39q0 16 17 18h16q16 2 16 19l-1 289l3 221q1 7 -4 12.5t-13 6.5l-16 1
q-16 2 -18 18l-2 38q-1 8 5 14t14 6h39l339 1l126 -1q19 0 19 -19l-1 -36q0 -18 -17 -18l-17 -1q-17 -2 -17 -19l-3 -515q0 -19 19 -19h4q7 0 12.5 -5t5.5 -13l1 -35q0 -8 -5.5 -13.5t-13.5 -5.5h-164q-8 0 -13.5 5.5t-5.5 12.5v36q0 17 15 19z" />
    <glyph glyph-name="afii10034" unicode="&#x420;" horiz-adv-x="513" 
d="M63 77l21 1q21 2 21 23l4 499q0 22 -23 24h-7q-10 0 -16.5 6.5t-6.5 15.5l-2 32q0 10 6.5 17t16.5 7l46 2q132 4 187 -4q36 -6 68.5 -21.5t64.5 -55t39 -96.5q4 -112 -35 -169.5t-126 -85.5q-22 -7 -96 -12q-16 -2 -16 -17q0 -21 -0.5 -73t-0.5 -69q0 -22 23 -24l24 -1
q10 0 16.5 -7t5.5 -16v-30q0 -10 -7 -16.5t-17 -6.5h-189q-10 0 -17 7t-6 17l1 30q0 21 21 23zM209 604q0 -39 0.5 -121.5t0.5 -122.5q0 -8 6 -13.5t14 -4.5q49 3 95 33.5t47 78.5q14 73 -25 129.5t-118 43.5q-20 -4 -20 -23z" />
    <glyph glyph-name="afii10035" unicode="&#x421;" horiz-adv-x="498" 
d="M445 218q13 0 22 -9t9 -22q0 -55 -1 -61q-13 -68 -70.5 -106t-129.5 -29q-62 -3 -107 22.5t-68.5 63t-37.5 94.5t-17.5 101.5t-3.5 100.5q-1 55 7.5 105.5t29 100t60.5 84t96 45.5q138 26 228 -78q12 -12 12 -31q1 -21 1 -37q1 -15 -9.5 -26t-25.5 -11q-3 0 -9.5 -0.5
t-9.5 -0.5q-14 0 -24.5 9t-12.5 23q-1 5 -1 14q-2 22 -14 36q-31 33 -89 32q-25 0 -45 -10.5t-32.5 -24.5t-21.5 -41t-13 -46t-6.5 -53.5t-2.5 -49.5v-48q1 -143 15 -195q28 -103 123 -103q63 0 91 82q0 12 -0.5 23t-0.5 15q0 14 10 23.5t23 8.5q4 0 12 -0.5t13 -0.5z" />
    <glyph glyph-name="afii10036" unicode="&#x422;" horiz-adv-x="480" 
d="M288 602l5 -506q0 -19 20 -21l13 -1q8 -1 13.5 -7t5.5 -14l1 -33q0 -9 -6 -15t-15 -6l-165 -1q-8 0 -14.5 6t-6.5 15l-1 31q0 9 5.5 16t13.5 7l12 1q20 2 20 21l-1 507q0 7 -5.5 12.5t-13.5 5.5h-59q-7 0 -12.5 -5t-5.5 -12l-1 -5q-2 -17 -19 -17l-43 1q-7 0 -13 6t-6 13
v81q0 8 5 13.5t13 5.5h415q11 0 19 -8.5t8 -19.5l-3 -77q0 -11 -8.5 -19t-19.5 -7l-27 -1q-10 0 -17.5 6.5t-8.5 16.5l-2 13q-2 15 -18 15h-60q-8 0 -13 -5t-5 -13z" />
    <glyph glyph-name="afii10037" unicode="&#x423;" horiz-adv-x="530" 
d="M71 2q-8 4 -11 7.5t-6 13t2 24.5q9 38 30 29q41 -6 68 3t42 42q2 4 27 78q3 7 -1 14q-37 77 -170 399q-5 9 -13 10l-5 1q-10 1 -17 9t-7 19l1 23q0 10 7.5 17.5t17.5 7.5h109q11 0 18 -7.5t7 -17.5v-20q1 -10 -5 -17.5t-15 -9.5q-1 -1 -3 -1q-5 0 -3 -5q0 -1 2 -3
q77 -202 116 -290q2 -2 4.5 -2t3.5 2l102 294l-18 2q-24 2 -26 26l-1 23q0 11 7.5 19t17.5 8h142q11 0 18.5 -8.5t6.5 -19.5l-3 -24q-1 -10 -8.5 -17t-17.5 -7h-9q-12 -2 -15 -12q-50 -163 -68 -209q-24 -57 -59.5 -156t-52.5 -142q-14 -39 -38 -64t-47.5 -35t-51 -12
t-44.5 0.5t-34 7.5z" />
    <glyph glyph-name="afii10038" unicode="&#x424;" horiz-adv-x="620" 
d="M354 76v-19q2 -21 24 -23h6q10 0 16.5 -7t7.5 -16v-27q0 -10 -7 -17.5t-17 -6.5h-136q-10 0 -17 6.5t-7 16.5l-1 26q0 10 6 17t16 7q10 1 17 8.5t6 17.5l-2 16q0 11 -12 13q-49 4 -84 18.5t-57 35t-48 56.5q-42 69 -33 239q15 75 71 122.5t147 56.5q5 0 8.5 4t3.5 9v14
q0 17 -16 19l-10 1q-16 2 -16 18l-1 37q-1 7 4.5 12.5t13.5 5.5h132q8 0 13 -5.5t5 -13.5l-2 -39q0 -7 -5.5 -12t-12.5 -5q-8 0 -13 -6t-4 -14v-8q2 -11 11 -13q2 0 4.5 -0.5t3.5 -0.5q19 -3 41 -9q76 -23 109 -54t56 -94q0 -1 3 -14t5.5 -27t5 -35t1 -43.5t-5 -47.5
t-13.5 -52t-25 -52q-39 -59 -117 -85q-23 -11 -63 -17q-12 0 -12 -13zM262 173q-3 14 -2.5 184t0.5 181q0 12 -12 12q-125 -3 -126 -159q-3 -83 33 -153t93 -78q6 -1 10.5 3t3.5 10zM355 541q1 -47 1 -366q0 -6 4.5 -9.5t10.5 -2.5q49 10 82 86t25 156q0 135 -109 149
q-14 0 -14 -13z" />
    <glyph glyph-name="afii10039" unicode="&#x425;" horiz-adv-x="539" 
d="M173 73q11 -1 18 -8.5t7 -17.5l-1 -21q0 -11 -8.5 -19t-19.5 -8h-132q-11 0 -19 8.5t-8 19.5v23q0 23 22 25l17 1q6 2 7 5l112 198l33 52q13 23 1 45l-35 64l-94 167q-9 14 -24 14l-15 1q-24 2 -24 26l1 24q0 11 8.5 19t19.5 8h143q12 0 20 -8.5t7 -20.5l-1 -23
q0 -9 -6.5 -15.5t-16.5 -7.5q-4 -1 -6 -4.5t0 -7.5l83 -160q3 -6 9.5 -6t9.5 5l94 156q3 5 0.5 10t-8.5 5q-22 2 -24 24l-1 21q-1 12 7.5 20.5t20.5 8.5h9l120 1q11 0 19.5 -8t8.5 -19l1 -22q1 -11 -6.5 -18.5t-17.5 -7.5h-10q-18 0 -28 -16l-30 -51l-101 -183
q-13 -22 0 -45l22 -46l114 -201q3 -5 8 -5h18q11 0 19 -8t8 -19l-1 -19q0 -11 -8 -19t-20 -8l-144 1q-11 0 -19.5 8t-8.5 20v17q0 10 7.5 17t17.5 8h7q5 0 7.5 4.5t0.5 9.5l-86 161q-3 6 -9.5 6t-9.5 -6l-93 -161q-2 -5 0.5 -9.5t7.5 -4.5z" />
    <glyph glyph-name="afii10040" unicode="&#x426;" horiz-adv-x="625" 
d="M425 97l-6 509q0 16 -17 19h-2q-7 1 -12 6.5t-4 12.5v37q0 8 5.5 13.5t13.5 5.5h141q8 0 14 -6t5 -14l-1 -37q-2 -18 -19 -18q-18 -2 -18 -20l5 -508q0 -18 19 -20h37q8 0 13.5 -5.5t5.5 -13.5v-127q0 -8 -5.5 -14t-13.5 -6l-55 1q-8 0 -13.5 5.5t-5.5 13.5l-1 50
q0 19 -19 19l-431 1q-19 0 -19 19l-2 37q0 8 5.5 14t13.5 6h14q19 2 19 20l-4 504q0 8 -5.5 13.5t-13.5 5.5h-6q-19 0 -19 18l-1 40q-1 8 5 14t14 6l149 1q8 0 14 -6t6 -14v-37q0 -8 -5.5 -13.5t-12.5 -5.5h-6q-18 -2 -18 -20l3 -506q0 -8 5.5 -13.5t13.5 -5.5h195
q19 0 19 19z" />
    <glyph glyph-name="afii10041" unicode="&#x427;" horiz-adv-x="577" 
d="M389 97l-2 159q0 8 -5.5 13t-12.5 4q-8 -1 -39 -3.5t-56 -4t-39 -0.5q-42 5 -81.5 28t-59.5 61q-3 4 -5 13q-1 4 -5 17t-5 16.5t-3.5 13.5l-3.5 14t-2.5 13t-2 15.5t-1.5 16t-1 19.5v1q-2 16 -2 115q0 13 -13 13h-5q-12 0 -12 12l-3 53q0 5 4 9.5t9 4.5h133q13 0 13 -14
v-51q0 -11 -12 -13h-3q-12 -2 -12 -13q4 -163 23 -202q10 -15 11 -16q43 -49 171 -26q17 3 17 21v222q0 11 -12 13l-16 1q-12 0 -12 13l-1 51q0 6 4 10t9 3l143 -1q13 0 13 -13l1 -50q0 -14 -13 -14h-4q-13 0 -13 -13l5 -509q0 -8 6 -14t14 -6l9 -1q19 -2 19 -20v-37
q1 -9 -5.5 -15t-14.5 -6l-150 1q-9 0 -15 6t-6 14l-1 34q0 9 6 15.5t15 6.5h3q9 0 15 6t6 14z" />
    <glyph glyph-name="afii10042" unicode="&#x428;" horiz-adv-x="807" 
d="M356 91l-2 518q0 14 -13 14h-4q-13 0 -13 14l-1 48q0 14 14 14h124q13 0 13 -14v-48q0 -13 -12 -13q-13 -2 -13 -14l5 -519q0 -13 14 -13l134 -1q13 0 13 14l1 519q0 5 -4 9.5t-10 4.5h-5q-13 0 -13 13l-1 49q0 5 4 9.5t10 4.5l137 -2q13 0 13 -14l1 -46q0 -13 -13 -15
h-7q-13 0 -13 -14v-519q0 -12 13 -14h25q14 0 14 -14v-48q0 -14 -14 -14h-683q-5 0 -9.5 4t-4.5 10l-1 51q0 12 13 14h10q13 0 13 14l-3 516q0 14 -14 14h-18q-14 0 -14 13l-2 49q0 5 4 9.5t10 4.5l150 -1q14 0 14 -14v-46q0 -6 -4.5 -10t-9.5 -4h-6q-14 0 -14 -14l5 -519
q0 -13 13 -13l140 -1q5 0 9.5 4t4.5 10z" />
    <glyph glyph-name="afii10043" unicode="&#x429;" horiz-adv-x="824" 
d="M733 626q-14 -2 -14 -16l6 -517q0 -6 4.5 -10.5t9.5 -4.5l31 -2q14 -2 14 -16l-3 -132q0 -6 -4.5 -10.5t-11.5 -4.5l-55 1q-6 0 -10.5 4.5t-4.5 10.5l-1 56q0 15 -15 15h-616q-6 0 -10.5 4.5t-4.5 11.5l-2 44q-2 14 14 16h10q6 0 10.5 4.5t3.5 11.5l-2 518q0 13 -14 15
l-13 1q-12 2 -14 15l-1 44q0 6 4.5 10.5t10.5 4.5l147 2q6 0 10.5 -4.5t4.5 -11.5v-44q0 -6 -4.5 -10.5t-10.5 -4.5h-6q-13 0 -15 -15v-50l4 -470q0 -6 4.5 -10.5t10.5 -4.5h140q16 0 16 16l-5 519q-2 13 -15 13l-3 1q-5 0 -9.5 4t-4.5 10l-1 43q0 17 15 17l135 2
q6 0 10.5 -4.5t4.5 -10.5l1 -45q0 -14 -14 -16h-5q-14 -2 -14 -16l1 -518q0 -6 4.5 -10.5t11.5 -4.5l136 1q6 0 10.5 4.5t4.5 10.5l2 516q0 13 -13 15l-11 2q-13 2 -13 14l-1 43q0 7 4.5 11.5t10.5 4.5l132 2q15 0 15 -14l3 -45q0 -16 -15 -16z" />
    <glyph glyph-name="afii10044" unicode="&#x42a;" horiz-adv-x="569" 
d="M20 700q9 -2 114 -0.5t117 1.5q7 0 12 -5.5t5 -12.5q0 -20 -1.5 -98.5t1.5 -95.5q2 -14 16 -16q51 -2 85.5 -8.5t68.5 -23.5t58 -50t39 -84q28 -85 0 -162.5t-106 -118.5q-28 -14 -69 -21t-68 -7.5t-80 1t-67 1.5q-7 0 -13 6t-6 13v40q0 8 6 14t13 5q10 0 18 1
q-1 78 0 260.5t-1 263.5q0 7 -5 12.5t-13 5.5q-7 0 -22 0.5t-21 0.5q-17 0 -19 -17q-2 -28 -2 -37q0 -7 -5.5 -12.5t-13.5 -5.5l-39 2q-8 0 -13 5t-5 13q0 13 -1 35t-1.5 40.5t-0.5 36.5q0 8 5.5 13.5t13.5 4.5zM269 373q1 -47 0 -139t0 -138q0 -8 6.5 -14t14.5 -6
q46 0 87 24.5t54 64.5q29 88 -12 154t-133 71q-7 0 -12 -5t-5 -12z" />
    <glyph glyph-name="afii10045" unicode="&#x42b;" horiz-adv-x="713" 
d="M59 699q95 0 158 1q15 0 17 -17q0 -24 1 -37q0 -22 -22 -24h-10q-17 0 -19 -17q0 -87 1 -115q2 -17 17 -17q155 0 226 -100t18 -253q-10 -31 -30 -53.5t-48.5 -35t-56.5 -20.5t-66.5 -9.5t-65 -2t-66 1t-55.5 1.5q-15 0 -17 15q-1 16 -1 46q0 7 5.5 12t13.5 4h2
q8 -1 14 4t6 13q-1 75 -0.5 253t-1.5 256q0 7 -5 12t-12 5q-1 0 -2 1q-7 0 -12 5t-5 12q0 25 -1 39q-2 18 17 20zM489 14q0 5 -0.5 25.5t1.5 26.5q2 9 15 9h6q12 2 12 13q-1 84 1 255.5t0 266.5q0 13 -14 13h-16q-13 0 -13 13q0 7 -0.5 24.5t-0.5 24.5q0 5 4 9.5t9 4.5h14
q5 0 59 -0.5t57 0.5h10h8.5h4.5q13 0 13 -12q2 -20 0 -51q0 -13 -14 -13h-3q-14 0 -14 -14q3 -87 1.5 -261.5t1.5 -258.5q2 -12 13 -12q3 0 10 -0.5t10 -0.5q8 0 8 -8q0 -6 0.5 -26.5t0.5 -28.5q0 -13 -12 -13q-114 0 -159 1q-13 0 -13 13zM186 371q1 -47 0 -138t0 -138
q0 -17 18 -17q45 0 87.5 22t56.5 65q29 87 -11.5 152.5t-131.5 71.5q-8 1 -13.5 -4.5t-5.5 -13.5z" />
    <glyph glyph-name="afii10046" unicode="&#x42c;" horiz-adv-x="490" 
d="M59 699q95 0 158 1q7 0 12 -5t5 -12q0 -5 0.5 -19.5t0.5 -21.5t-4.5 -12t-11.5 -5l-18 -1q-16 -2 -16 -17q-2 -55 0 -117q2 -15 17 -17q54 -2 66 -4q75 -9 128 -66.5t68.5 -127.5t-13 -141t-102.5 -106q-23 -11 -51 -17t-62.5 -8.5t-58 -3t-64 0.5t-54.5 1q-16 0 -18 16
q-1 15 -1 44q1 8 7 13t13 4h1q7 -1 13.5 4t6.5 13q-1 71 0 254t-2 256q0 7 -5 12t-12 5q-1 0 -2 1q-7 0 -12 5t-5 12q0 25 -1 39q-2 18 17 20zM186 371q2 -43 0.5 -140.5t-0.5 -140.5q0 -17 18 -17q47 0 89 25.5t56 66.5q28 88 -12.5 153t-131.5 71q-7 1 -13 -4.5t-6 -13.5z
" />
    <glyph glyph-name="afii10047" unicode="&#x42d;" horiz-adv-x="489" 
d="M305 691q32 -13 54 -30.5t43.5 -52t33 -95.5t12.5 -148q2 -50 -1.5 -95.5t-17 -98.5t-38 -90.5t-68.5 -63t-104 -24.5q-76 1 -136.5 37t-60.5 98q0 12 -0.5 27t-0.5 29q0 18 17 18q34 0 48 1q9 0 15 -6t6 -14q0 -7 -0.5 -16t-0.5 -21q0 -31 27.5 -53.5t68.5 -22.5
q27 0 47.5 5.5t34.5 12.5t23.5 23.5t14.5 26.5t8 35t3.5 36t1 41.5t0.5 41.5q0 12 -13 14l-164 2q-11 0 -19 8.5t-8 19.5l-1 31q0 12 8 20t20 9l166 1q13 0 15 14q0 9 0.5 26.5t0.5 20.5q1 39 -11 76t-42 64.5t-74 26.5q-24 -1 -40.5 -5.5t-21 -6.5t-17 -15.5t-13.5 -14.5
q-6 -5 -9 -30q0 -16 -1 -24q0 -10 -7.5 -17.5t-18.5 -8.5h-38q-11 0 -18.5 7.5t-7.5 18.5q-1 19 -1 60q29 71 117 103t168 -1z" />
    <glyph glyph-name="afii10048" unicode="&#x42e;" horiz-adv-x="764" 
d="M723 342q1 -45 0 -75.5t-5 -70t-12.5 -66t-24 -54.5t-37.5 -44.5t-55.5 -27t-76.5 -10.5q-160 0 -205 167q-12 75 -16 134q-1 10 -8 18t-17 8l-61 -1q-7 1 -11.5 -3.5t-4.5 -11.5q0 -31 -0.5 -107.5t0.5 -107.5q0 -14 15 -14q21 0 24 -5.5t3 -35.5v-21q0 -6 -4.5 -10.5
t-10.5 -4.5q-105 0 -149 1q-6 0 -10.5 4.5t-4.5 10.5v46q2 13 16 13h1q6 0 11.5 4.5t5.5 11.5q-1 88 -0.5 259t-0.5 260q0 15 -15 15h-13q-15 0 -15 15q-1 13 -1 45q-1 7 3.5 11.5t10.5 4.5h12q5 0 59.5 -0.5t57.5 0.5h21q15 0 15 -14q2 -26 0 -48q-2 -14 -16 -14
q-7 0 -11.5 -4.5t-4.5 -10.5q-2 -128 -1 -186q2 -15 15 -15l67 -1q7 0 12 4.5t5 11.5q2 42 12 84t28 84t49.5 72t72.5 40q39 11 71 8.5t58 -9t46.5 -24.5t35.5 -37.5t26 -48t18 -56t11.5 -62t6.5 -65.5t2 -67zM526 70q60 0 73.5 71.5t12.5 254.5v67q0 79 -25.5 127t-83.5 44
q-23 -2 -40.5 -13.5t-28.5 -26t-19 -40t-11.5 -43.5t-5.5 -49.5t-2 -44.5v-41v-28v-58t2.5 -54.5t7 -53.5t14 -43.5t23 -37.5t35 -22t48.5 -9z" />
    <glyph glyph-name="afii10049" unicode="&#x42f;" horiz-adv-x="571" 
d="M518 17q0 -17 -16 -17h-138q-7 -1 -12 4.5t-5 12.5q0 4 -1 19t0 22q0 8 5.5 13.5t13.5 5.5q7 0 12 4.5t5 11.5q1 67 -5 171q-2 20 -22 20q-54 3 -55 3q-14 0 -18 -12t-16 -51.5t-18.5 -57t-20.5 -51t-29 -51t-37 -38t-50.5 -29.5t-63.5 -10q-27 0 -35 25q-6 17 -11 38
q-3 17 15 23q78 23 121.5 71.5t55.5 144.5q2 16 -11 22q-72 41 -105.5 83.5t-30.5 115.5q1 76 53 130t108 57q9 3 120.5 2.5t120.5 -0.5q24 2 60 0q10 0 16.5 -6.5t6.5 -16.5v-33q0 -10 -7 -16.5t-17 -6.5h-9q-10 0 -16.5 -7t-6.5 -17q0 -31 0.5 -200t0.5 -236q0 -43 -1 -66
q0 -7 4.5 -12t11.5 -5h10q15 0 17 -16v-16v-16v-12zM379 386l-1 209q0 7 -5 12.5t-13 5.5q-37 4 -75 1.5t-69 -10t-48.5 -34t-14.5 -70.5q0 -21 4.5 -38.5t10 -30t16.5 -22.5t19 -16.5t24 -11t25 -6.5t28.5 -3t27.5 -1h29h27q15 2 15 15z" />
    <glyph glyph-name="afii10065" unicode="&#x430;" horiz-adv-x="470" 
d="M407 76h13q20 0 20 -27v-28q0 -22 -25 -22q-4 0 -43.5 0.5t-41.5 0.5q-11 0 -18.5 7.5t-8.5 18.5q-2 11 -2 24q0 5 -1 8q0 6 -4 1q0 -1 -1 -2q-9 -15 -24 -32q-29 -30 -92 -30q-58 -3 -94 33q-35 35 -43 88.5t11 94.5q41 102 177 104q38 0 48 -1q6 -1 10.5 3t4.5 10
q3 54 -1 84q-5 37 -18.5 54.5t-49.5 18.5q-14 0 -25.5 -2.5t-18.5 -6.5t-13.5 -10t-9.5 -10t-6 -9t-4 -6q-3 -4 -3 -32q0 -18 -17 -18h-48q-20 2 -19 21q-1 34 -1 45q0 5 3 11q5 11 14 23t27.5 28.5t49.5 27.5t70 12q48 1 81.5 -15t50.5 -46.5t24 -62.5t10 -75
q5 -107 5 -260q0 -23 13 -23zM187 84q31 -5 68.5 16.5t38.5 48.5q2 32 0 77q0 13 -13 13q-74 3 -91 -5q-51 -25 -49 -87q1 -23 12.5 -41.5t33.5 -21.5z" />
    <glyph glyph-name="afii10066" unicode="&#x431;" horiz-adv-x="438" 
d="M387 391q10 -33 10 -190q0 -100 -43 -152t-150 -52q-42 0 -72.5 16t-47 42.5t-27.5 62t-13 74t-3.5 78t0.5 74.5v45.5v48t2 43.5t5.5 44t11 38t17.5 37t26 29t36 25q29 15 63.5 19t55 8t29.5 23q2 6 4 18q2 14 16 14h55q17 0 17 -18q0 -24 -6 -46q-18 -63 -109 -70
q-116 -7 -132 -97q-1 -4 3 -6t8 0q28 19 91 18.5t87 -20.5l5 -5q6 -5 7.5 -6.5t7 -6.5t8 -8.5t7 -10t8 -13t8 -15t8 -19zM292 153q0 1 2 23t3.5 44.5t1.5 55t-2.5 60t-9.5 54t-18 41.5q-17 21 -52 18t-49 -21q-24 -30 -30 -69q-8 -67 -4.5 -126.5t10.5 -87.5q5 -20 11 -33.5
t22.5 -25.5t41.5 -12q32 0 51.5 25t21.5 54z" />
    <glyph glyph-name="afii10067" unicode="&#x432;" horiz-adv-x="458" 
d="M45 78h19q6 0 10.5 4.5t4.5 9.5q13 154 3 358q0 7 -4.5 11.5t-10.5 4.5h-18q-6 0 -10.5 4.5t-4.5 11.5l-2 48q0 16 15 16q203 8 271 -15q40 -16 62.5 -52.5t21 -72.5t-20.5 -67q-17 -24 -36 -34q-3 -2 -2.5 -5t3.5 -4q39 -18 55.5 -50t15.5 -91q-1 -43 -18 -75t-43 -48.5
t-51 -24t-47 -7.5q-11 0 -97.5 -0.5t-113.5 -0.5q-16 0 -16 16l-1 47q0 14 15 16zM184 236v-142q0 -14 14 -16q76 -5 96 28q15 23 15 59.5t-21 61.5q-20 25 -88 25q-16 0 -16 -16zM188 450v-96q2 -15 17 -15q75 3 86 30q23 59 -25 88q-21 12 -63 10q-7 0 -11.5 -5t-3.5 -12z
" />
    <glyph glyph-name="afii10068" unicode="&#x433;" horiz-adv-x="378" 
d="M91 446q0 7 -5.5 12t-12.5 5q-3 0 -8 0.5t-8 0.5q-10 1 -17.5 9t-8.5 19q-1 15 -1 38q2 15 17 17q114 2 304 -2q7 0 12 -5t5 -12v-92q0 -3 -1 -4q0 -12 -8.5 -20t-20.5 -8h-24q-12 0 -20.5 8t-9.5 19q0 11 -1 16q0 7 -5 12t-12 5q-52 2 -64 2q-7 0 -12 -5t-5 -12
q-3 -85 -1 -178t0 -175q0 -18 17 -18q8 -1 25 -1q15 0 17 -16q1 -9 0 -24t-1 -19q-2 -17 -17 -17h-37h-75h-51q-23 2 -23 21v12v15v12q2 14 16 16q6 1 21 1q17 2 17 18q0 77 -1 173t-1 177z" />
    <glyph glyph-name="afii10069" unicode="&#x434;" horiz-adv-x="516" 
d="M474 470q-1 -7 -23 -7q-12 0 -20.5 -8.5t-8.5 -20.5q0 -60 2 -156.5t2 -172.5q0 -13 9 -21.5t21 -8.5h9q12 0 20.5 -8t9.5 -20q2 -34 -2 -100q0 -12 -9 -20t-21 -8q-10 0 -24 2q-11 2 -18 9.5t-8 17.5l-2 25q-2 11 -10 18.5t-20 7.5q-188 2 -255 2q-13 0 -22 -9t-10 -22
v-13q-1 -12 -9.5 -20.5t-20.5 -9.5h-31q-16 1 -22 7t-8 24q-4 29 -2 85q1 13 9.5 22t20.5 11h2q31 -1 46 14t33 62q10 27 17 56t10.5 63t4.5 56t2 62.5t2 55.5q1 9 -5.5 15.5t-15.5 5.5h-5q-18 0 -20 18q-1 11 -1 44q0 8 5 14t12 6h333q20 0 23.5 -22t-0.5 -56zM262 466
q-11 -1 -18.5 -8.5t-7.5 -17.5q-3 -39 -5 -121t-5 -99q-5 -44 -13 -67t-25 -51q-8 -10 -6 -17.5t24 -7.5h94q11 0 19.5 10.5t8.5 22.5q2 190 -1 329q0 11 -8 19t-20 8q-1 0 -19 0.5t-18 -0.5z" />
    </font>
</defs>
</svg>
