<?xml version="1.0" standalone="no"?>
<!DOCTYPE svg PUBLIC "-//W3C//DTD SVG 1.1//EN" "http://www.w3.org/Graphics/SVG/1.1/DTD/svg11.dtd" >
<svg xmlns="http://www.w3.org/2000/svg" xmlns:xlink="http://www.w3.org/1999/xlink" version="1.1">
<metadata>
Created by FontForge 20200314 at Thu Oct  9 06:55:24 2014
 By www-data
Copyright (c) Quentin Gre'beude, 2014. All rights reserved.
</metadata>
<defs>
<font id="Pirou-Regular" horiz-adv-x="0" >
  <font-face 
    font-family="Pirou"
    font-weight="400"
    font-stretch="normal"
    units-per-em="1000"
    panose-1="0 0 5 0 0 0 0 0 0 0"
    ascent="800"
    descent="-200"
    x-height="436"
    cap-height="720"
    bbox="-324.154 -301 1422 944.125"
    underline-thickness="50"
    underline-position="-100"
    unicode-range="U+0020-FB02"
  />
<missing-glyph horiz-adv-x="500" 
d="M0 0v700h500v-700h-500zM250 395l170 255h-340zM280 350l170 -255v510zM80 50h340l-170 255zM50 605v-510l170 255z" />
    <glyph glyph-name=".notdef" horiz-adv-x="500" 
d="M0 0v700h500v-700h-500zM250 395l170 255h-340zM280 350l170 -255v510zM80 50h340l-170 255zM50 605v-510l170 255z" />
    <glyph glyph-name=".null" 
 />
    <glyph glyph-name="nonmarkingreturn" horiz-adv-x="333" 
 />
    <glyph glyph-name="space" unicode=" " horiz-adv-x="320" 
 />
    <glyph glyph-name="exclam" unicode="!" horiz-adv-x="311" 
d="M229 687q26 -30 21 -64q-6 -58 -73 -413q-4 -18 -22 -18t-22 18q-63 335 -72 413q-5 34 21 64q31 34 73 34q45 0 74 -34zM206 629q2 14 -11 28q-16 19 -40 19q-22 0 -39 -19q-13 -14 -11 -28q3 -23 50 -287q45 240 51 287zM155 143q30 0 51 -21t21 -50q0 -30 -21 -51
t-51 -21q-29 0 -50 21t-21 51q0 29 21 50t50 21zM155 42q13 0 21.5 8.5t8.5 21.5q0 12 -8.5 20.5t-21.5 8.5q-12 0 -20.5 -8.5t-8.5 -20.5q0 -13 8.5 -21.5t20.5 -8.5z" />
    <glyph glyph-name="quotedbl" unicode="&#x22;" horiz-adv-x="451" 
d="M134 697l10 -138q0 -8 6 -13.5t14 -5.5q18 0 20 19l10 138q1 10 -7.5 20t-22.5 10q-13 0 -22 -10.5t-8 -19.5zM257 697l10 -138q0 -8 6 -13.5t14 -5.5q18 0 20 19l10 138q1 10 -7.5 20t-22.5 10q-13 0 -22 -10.5t-8 -19.5z" />
    <glyph glyph-name="numbersign" unicode="#" horiz-adv-x="556" 
d="M482 479h85q9 0 15.5 -6t6.5 -16q0 -9 -6.5 -15.5t-15.5 -6.5h-103l-78 -187h87q9 0 15.5 -6t6.5 -16q0 -9 -6.5 -15.5t-15.5 -6.5h-105l-45 -107q-5 -14 -20 -14q-4 0 -8 2q-21 9 -12 29l37 90h-183l-45 -107q-5 -14 -20 -14q-4 0 -8 2q-21 9 -12 29l37 90h-89
q-9 0 -15.5 6.5t-6.5 15.5q0 10 6.5 16t15.5 6h107l78 187h-91q-9 0 -15.5 6.5t-6.5 15.5q0 10 6.5 16t15.5 6h109l45 108q3 8 11.5 11.5t16.5 0.5q21 -9 12 -29l-37 -91h183l45 108q3 8 11.5 11.5t16.5 0.5q21 -9 12 -29zM416 435h-183l-78 -187h183z" />
    <glyph glyph-name="dollar" unicode="$" horiz-adv-x="711" 
d="M486 415h1q65 -24 104 -60q43 -40 45 -91v-80q0 -22 -6 -43q-22 -64 -101 -105q-26 -18 -68 -27q-32 -8 -83 -14v-65q0 -9 -6.5 -15.5t-15.5 -6.5q-10 0 -16 6.5t-6 15.5v64q-97 3 -168 43q-24 13 -44 31v-48q0 -10 -7 -17t-16 -7q-10 0 -17 7t-7 17v188q0 10 7 16.5
t17 6.5q9 0 16 -6.5t7 -16.5v-50q8 -50 70 -84q58 -33 142 -36v225l-80 24q-53 15 -94 61q-43 49 -43 102v75q-2 39 18 77q18 34 53 63q63 50 146 59v80q0 9 6 15.5t16 6.5q9 0 15.5 -6.5t6.5 -15.5v-78q106 0 178 -58v30q0 10 7 16.5t17 6.5q9 0 16 -6.5t7 -16.5v-159
q0 -10 -7 -17t-16 -7q-10 0 -17 7t-7 17v62q-25 36 -74 57q-47 20 -104 22v-232zM334 462v215q-38 -6 -73 -21q-79 -44 -74 -90q3 -28 33 -54t67 -36zM334 416l-63 19q-47 12 -85 46q-9 7 -23 23v-53q2 -39 32 -72q33 -36 72 -48q4 0 67 -19v104zM586 183v80q0 33 -31 62
q-30 29 -86 49l-91 28v-103q44 -14 68 -21q60 -18 99 -62q28 -32 34 -71l3 8q4 13 4 30zM473 60l13 6q46 20 48 60q2 30 -24 60q-30 33 -77 47q-7 2 -55 17v-210q33 3 73 13q4 1 11.5 3.5z" />
    <glyph glyph-name="percent" unicode="%" horiz-adv-x="768" 
d="M199 48l330 647q10 21 30 10q8 -4 11 -13t-1 -16l-330 -647q-4 -9 -13 -12t-16 2q-4 1 -7 4q-10 12 -4 25zM343 562q0 -61 -42.5 -104t-103.5 -43t-103.5 43t-42.5 104q0 60 42.5 103t103.5 43t103.5 -43t42.5 -103zM157 622v-157q19 -8 40 -8h4q15 3 25 15t10 28l2 157
q-20 9 -41 9h-4q-15 -3 -25.5 -15.5t-10.5 -28.5zM115 497v129q-22 -27 -22 -64t22 -65zM280 625v-125l-2 -2q23 26 23 64q0 34 -21 63zM571 309q61 0 103.5 -43t42.5 -104q0 -60 -42.5 -103t-103.5 -43q-60 0 -103 43t-43 103q0 61 43 104t103 43zM611 101v157q-15 8 -40 8
h-2q-15 -2 -26 -14.5t-12 -28.5v-157q21 -8 40 -8h4q15 3 25.5 15t10.5 28zM490 98v129q-23 -30 -23 -65q0 -36 23 -64zM653 226v-128q22 27 22 64q0 36 -22 64z" />
    <glyph glyph-name="ampersand" unicode="&#x26;" horiz-adv-x="840" 
d="M765 218v-44q2 -62 -42 -107t-108 -46h-4q-44 0 -79 22q-1 0 -5 2.5t-6 4.5q-53 -34 -132 -46q-27 -4 -58 -4q-86 0 -148 37q-43 26 -68 62q-28 38 -37 89q-13 73 22.5 136.5t110.5 101.5l41 21l-31 50q-1 0 -1 1q-26 46 -18 104q8 60 51 100q45 41 100 33
q32 -6 49.5 -18.5t33.5 -36.5q26 -44 17 -105q-4 -34 -25 -64l164 -260q1 10 1 32v180h-51q-9 0 -15.5 6.5t-6.5 15.5t6.5 15.5t15.5 6.5h151q10 0 16 -6.5t6 -15.5t-6 -15.5t-16 -6.5h-56v-180q0 -49 -10 -88v-1q13 -25 45 -25q20 0 35 15q13 15 13 33q-1 9 5.5 15.5
t16.5 6.5t16 -6.5t7 -14.5zM374 515l-52 82q-13 24 -10 51q4 25 20 44q-28 -3 -49 -23q-32 -29 -38 -73q-5 -43 13 -76l34 -53l8 4l59 33q5 3 15 11zM360 619l42 -66q4 10 8 28q6 46 -12 77q-6 12 -15 12q-9 2 -17.5 -6.5t-9.5 -21.5q-2 -13 4 -23zM315 430l196 -306
q3 -4 13 -17q5 4 15 14q27 30 40 68l-182 288l-13 -10q-2 -1 -69 -37zM474 100l-195 306q-24 -20 -39 -48q-26 -47 -17 -103q7 -46 43 -92.5t85 -73.5q70 -38 127 -13q1 1 4.5 2.5t5.5 2.5q-3 4 -14 19zM343 44l-13 7q-58 31 -100 86t-51 111q-9 63 15 116q-37 -27 -54 -60
q-29 -50 -18 -109q14 -80 84 -120q59 -34 137 -31zM673 125h-3q-34 0 -61 22q-13 -28 -38 -56q-4 -5 -12 -13q27 -14 55 -13q35 1 62.5 21t38.5 50q-20 -11 -42 -11z" />
    <glyph glyph-name="quotesingle" unicode="'" horiz-adv-x="288" 
d="M114 697l10 -138q0 -8 6 -13.5t14 -5.5q18 0 20 19l10 138q1 10 -7.5 20t-22.5 10q-13 0 -22 -10.5t-8 -19.5z" />
    <glyph glyph-name="parenleft" unicode="(" horiz-adv-x="311" 
d="M79 435v-439q0 -86 49 -155q48 -68 127 -97q2 -1 7 -1q16 0 21 15q3 8 -1 16.5t-12 11.5q-64 22 -106 80q-41 58 -41 130v439q0 72 41 128q40 57 104 81q8 3 12 11.5t1 16.5q-9 21 -29 13q-77 -29 -124 -96q-49 -69 -49 -154z" />
    <glyph glyph-name="parenright" unicode=")" horiz-adv-x="311" 
d="M232 433v-439q0 -86 -49 -155q-48 -68 -127 -97q-2 -1 -7 -1q-16 0 -21 15q-3 8 1 16.5t12 11.5q64 22 106 80q41 58 41 130v439q0 72 -41 128q-40 57 -104 81q-8 3 -12 11.5t-1 16.5q9 21 29 13q77 -29 124 -96q49 -69 49 -154z" />
    <glyph glyph-name="asterisk" unicode="*" horiz-adv-x="348" 
d="M216 532l78 -49q8 -4 10 -13.5t-3 -16.5q-6 -10 -18 -10q-6 0 -12 3l-75 47v-88q0 -9 -6.5 -15.5t-15.5 -6.5t-15.5 6.5t-6.5 15.5v88l-75 -47q-6 -3 -12 -3q-12 0 -18 10q-5 7 -3 16.5t10 13.5l78 49l-78 49q-19 12 -7 31q11 18 30 7l75 -47v91q0 9 6.5 15.5t15.5 6.5
t15.5 -6.5t6.5 -15.5v-91l75 47q19 11 30 -7q12 -19 -7 -31z" />
    <glyph glyph-name="plus" unicode="+" horiz-adv-x="534" 
d="M289 317h167q9 0 15.5 -6.5t6.5 -15.5t-6.5 -15.5t-15.5 -6.5h-167v-167q0 -9 -6.5 -15.5t-15.5 -6.5t-15.5 6.5t-6.5 15.5v167h-167q-9 0 -15.5 6.5t-6.5 15.5t6.5 15.5t15.5 6.5h167v167q0 9 6.5 15.5t15.5 6.5t15.5 -6.5t6.5 -15.5v-167z" />
    <glyph glyph-name="comma" unicode="," horiz-adv-x="245" 
d="M86 -69l26 58q-8 2 -12 4q-22 10 -30.5 31.5t1.5 43.5q9 21 30.5 29.5t44.5 -1.5q21 -9 29 -29.5t-1 -43.5l-48 -110q-6 -13 -20 -13q-3 0 -9 2q-20 9 -11 29zM123 32q13 0 13 13t-13 13t-13 -13t13 -13z" />
    <glyph glyph-name="hyphen" unicode="-" horiz-adv-x="374" 
d="M115 274h145q9 0 15.5 6.5t6.5 16.5q0 9 -6.5 15.5t-15.5 6.5h-145q-10 0 -16.5 -6.5t-6.5 -15.5q0 -10 6.5 -16.5t16.5 -6.5z" />
    <glyph glyph-name="period" unicode="." horiz-adv-x="285" 
d="M143 -11q23 0 39.5 16.5t16.5 40.5q0 23 -16.5 39.5t-39.5 16.5q-24 0 -40.5 -16.5t-16.5 -39.5q0 -24 16.5 -40.5t40.5 -16.5zM143 59q13 0 13 -13t-13 -13t-13 13t13 13z" />
    <glyph glyph-name="slash" unicode="/" horiz-adv-x="309" 
d="M266 707l-264 -676q-4 -9 0 -17.5t12 -11.5q3 -2 8 -2q16 0 21 14l264 676q4 9 0 17.5t-12 11.5q-9 4 -17.5 0t-11.5 -12z" />
    <glyph glyph-name="zero" unicode="0" horiz-adv-x="522" 
d="M260 652h1q97 0 166 -69t69 -165v-191q0 -96 -69 -165t-166 -69h-1q-96 0 -165 69t-69 165v191q0 96 69 165t165 69zM336 129v459q-31 13 -62 14q-33 3 -59 -18q-29 -29 -29 -68l1 -12v-447q30 -14 61 -15q33 -3 58 20q30 25 30 67zM73 418v-191q0 -85 66 -141v430
q0 28 8 48q-74 -56 -74 -146zM448 227v191q0 84 -65 140v-429q0 -25 -9 -49q74 58 74 147z" />
    <glyph glyph-name="one" unicode="1" horiz-adv-x="527" 
d="M365 50h49q10 0 17.5 -7t7.5 -18t-7.5 -18t-17.5 -7h-266q-10 0 -17.5 7t-7.5 18t7.5 18t17.5 7h46v485q-58 -21 -90 -21q-23 0 -26 21q-1 10 5.5 18t16.5 10q55 7 121.5 39t100.5 69q13 11 27 5q16 -7 16 -23v-603zM315 50v549l-11 -7q-11 -8 -28.5 -18.5t-31.5 -17.5
v-506h71z" />
    <glyph glyph-name="two" unicode="2" horiz-adv-x="557" 
d="M456 166v41q0 11 7.5 18.5t17.5 7.5t17.5 -7.5t7.5 -18.5v-182q0 -10 -6.5 -17.5t-18.5 -7.5h-444q-22 0 -26 19q-2 16 10 26q2 1 38 30t94.5 78t104.5 89q52 53 67 84.5t15 73.5v162q0 57 -67 64q-4 0 -13.5 0.5t-14.5 0.5h-43q-15 0 -26 -11t-10 -26v-99
q0 -32 -22 -54.5t-54 -22.5q-31 0 -52.5 21t-23.5 49q-2 14 -2 22q0 66 52 118t123 52h68h3h1q133 -4 195 -86q35 -47 35 -89v-9q0 -59 -23.5 -102.5t-93.5 -110.5q-37 -37 -126 -113h210zM116 491v99q0 5 2 15q-55 -36 -57 -103v-11q0 -11 9 -19t20 -8t18.5 8t7.5 19z
M439 492v8q0 6 -3 17t-15.5 32.5t-33.5 37.5q2 -16 2 -25v-162q0 -14 -2 -34q32 37 42 63.5t10 62.5zM188 117l-81 -68h349v68h-268z" />
    <glyph glyph-name="three" unicode="3" horiz-adv-x="558" 
d="M396 547l-104 -104q94 -9 153 -70.5t59 -149.5v-8q0 -98 -68 -160t-174 -62q-81 0 -144.5 40t-88.5 106q-7 20 16 30q11 5 21 0.5t13 -13.5q19 -53 68 -83t115 -30q38 0 72 13v250q0 37 -30 67q-30 20 -50 20h-17q-17 0 -25 13q-9 15 5 29l108 112l76 75h-289v-41
q0 -9 -7.5 -17t-17.5 -8q-9 0 -17 8t-8 17v66q0 10 8 17.5t17 7.5h371q20 0 27 -15q6 -14 -6 -26zM454 215v8q0 46 -22.5 85t-60.5 60q13 -32 13 -62v-230q70 53 70 139z" />
    <glyph glyph-name="four" unicode="4" horiz-adv-x="560" 
d="M459 47h47q10 0 17 -7t7 -16q0 -10 -7 -17t-17 -7h-252q-10 0 -17 7t-7 17q0 9 7 16t17 7h44v122h-244q-14 0 -21 14q-8 12 2 24l349 451q8 11 21 11q15 0 22 -15l45 -126q3 -9 -1 -19q-4 -9 -13 -11l-2 -1q-149 -52 -239 -140l-29 -32l-6 -6l-80 -103h196v72
q0 34 16 57.5t51 23.5h70q10 0 17 -6.5t7 -16.5v-130h47q10 0 17 -6.5t7 -16.5t-7 -17t-17 -7h-47v-122zM397 597l-89 -116q53 32 112 53zM345 216h66v107h-46q-20 0 -20 -35v-72zM411 47v122h-66v-122h66z" />
    <glyph glyph-name="five" unicode="5" horiz-adv-x="568" 
d="M271 443h1q104 0 172 -61.5t68 -156.5v-6q0 -95 -68 -157t-172 -62h-1q-79 0 -140.5 39t-86.5 104q-7 24 15 31q10 4 19 0t12 -14q20 -51 68.5 -80.5t112.5 -29.5h1q41 0 71 10v247q0 41 -30 68q-24 20 -49 20q-91 -3 -142 -60q-14 -12 -29 -5q-16 7 -14 25l38 293
q3 21 25 21h304q10 0 17.5 -7t7.5 -16v-116q0 -10 -7.5 -17t-17.5 -7h-298l-12 -97q51 30 125 34h10zM421 621h-258l-8 -66h266v66zM462 219v6q0 47 -22.5 85t-61.5 59q14 -30 14 -62v-223q70 47 70 135z" />
    <glyph glyph-name="six" unicode="6" horiz-adv-x="538" 
d="M264 431h5q93 0 164.5 -63.5t71.5 -144.5v-23q0 -47 -34 -98.5t-82 -77.5q-68 -31 -120 -31h-1q-92 0 -160 60.5t-75 146.5l-1 52v169q0 98 69.5 167.5t166.5 69.5h1q55 0 105.5 -25.5t84.5 -70.5q6 -7 4.5 -17.5t-9.5 -16.5t-18.5 -4.5t-16.5 9.5q-53 71 -142 76
q-27 -1 -48 -20q-30 -25 -30 -66v-102q35 10 65 10zM151 400v123q0 28 10 52q-37 -26 -58.5 -67t-21.5 -87v-79q25 33 70 58zM340 54v242q0 39 -30 66q-21 19 -49 20q-34 -2 -63 -13v-241q0 -40 29 -67q27 -23 62 -19q27 3 51 12zM388 284v-202q67 50 70 129q-5 90 -81 139
q12 -29 12 -54zM151 139v203q-68 -48 -70 -130q1 -41 22.5 -77.5t56.5 -61.5q-10 26 -10 55z" />
    <glyph glyph-name="seven" unicode="7" horiz-adv-x="615" 
d="M475 511l-99 -162q-72 -119 -72 -322q0 -27 -24 -27h-139q-17 0 -23 16q-4 13 4 24l289 460h-294v-40q0 -10 -7.5 -17t-16.5 -7q-11 0 -18 6.5t-7 17.5v178q0 11 7 18t18 7h436q16 0 20.5 -14.5t-2.5 -22.5zM442 549l40 64h-365v-64h325zM185 49h70q0 62 10 128z" />
    <glyph glyph-name="eight" unicode="8" horiz-adv-x="575" 
d="M239 672h97q68 0 117 -50t49 -120q0 -86 -72 -138q48 -24 77.5 -70.5t29.5 -101.5q0 -80 -57 -136t-138 -56h-109q-81 0 -138 56t-57 136q0 55 29.5 101.5t77.5 70.5q-76 55 -76 138q0 70 49.5 120t120.5 50zM323 621h-84q-19 0 -28 -3v-229q9 -3 28 -3h97q19 0 28 3v182
q0 28 -13 40q-13 10 -28 10zM160 414v179q-41 -36 -41 -91q0 -52 41 -88zM414 571v-157q42 37 42 88q0 56 -44 91q2 -6 2 -22zM364 50v283q-6 2 -22 2h-109q-16 0 -22 -2v-211q0 -35 18 -53q25 -19 57 -19h78zM160 122v195q-33 -20 -53.5 -53t-20.5 -72q0 -44 25 -80t65 -53
q-16 36 -16 63zM412 317v-251q35 19 55 52.5t20 73.5q0 39 -20 72t-55 53z" />
    <glyph glyph-name="nine" unicode="9" horiz-adv-x="552" 
d="M511 448v-214q0 -99 -70.5 -169.5t-170.5 -70.5h-1q-63 0 -120.5 26t-88.5 69q-16 18 4 33q8 7 18.5 5.5t17.5 -9.5q24 -33 71.5 -54t97.5 -21q25 4 41 20q31 26 31 67v104q-40 -5 -49 -5h-50q-90 0 -154 64t-64 155q0 90 64 154.5t154 64.5h50q91 0 155 -64.5t64 -154.5
zM264 278h28q22 0 50 7v243q0 42 -27 66q-20 20 -54 23h-19q-24 0 -53 -8v-240q0 -44 26 -67q21 -21 49 -24zM391 528v-217q71 51 71 137q0 46 -24 85.5t-63 61.5q16 -32 16 -67zM140 369v213q-67 -52 -67 -134q0 -45 22 -83t58 -61q-13 29 -13 65zM462 234v76
q-27 -35 -72 -57v-123q0 -24 -10 -51q37 25 59.5 66.5t22.5 88.5z" />
    <glyph glyph-name="colon" unicode=":" horiz-adv-x="285" 
d="M143 329q23 0 39.5 16.5t16.5 40.5q0 23 -16.5 39.5t-39.5 16.5q-24 0 -40.5 -16.5t-16.5 -39.5q0 -24 16.5 -40.5t40.5 -16.5zM143 399q13 0 13 -13t-13 -13t-13 13t13 13zM143 -11q23 0 39.5 16.5t16.5 40.5q0 23 -16.5 39.5t-39.5 16.5q-24 0 -40.5 -16.5t-16.5 -39.5
q0 -24 16.5 -40.5t40.5 -16.5zM143 59q13 0 13 -13t-13 -13t-13 13t13 13z" />
    <glyph glyph-name="semicolon" unicode=";" horiz-adv-x="278" 
d="M143 329q23 0 39.5 16.5t16.5 40.5q0 23 -16.5 39.5t-39.5 16.5q-24 0 -40.5 -16.5t-16.5 -39.5q0 -24 16.5 -40.5t40.5 -16.5zM143 399q13 0 13 -13t-13 -13t-13 13t13 13zM106 -69l26 58q-8 2 -12 4q-22 10 -30.5 31.5t1.5 43.5q9 21 30.5 29.5t44.5 -1.5
q21 -9 29 -29.5t-1 -43.5l-48 -110q-6 -13 -20 -13q-3 0 -9 2q-20 9 -11 29zM143 32q13 0 13 13t-13 13t-13 -13t13 -13z" />
    <glyph glyph-name="less" unicode="&#x3c;" horiz-adv-x="381" 
d="M22 249l301 -243q7 -6 17 -6q14 0 22 10q7 9 6 20.5t-10 18.5l-274 222l274 223q9 7 10 18.5t-6 20.5q-8 9 -19 10t-20 -6l-301 -245q-10 -8 -10 -21q0 -14 10 -22z" />
    <glyph glyph-name="equal" unicode="=" horiz-adv-x="548" 
d="M78 347h378q9 0 15.5 6.5t6.5 16.5q0 9 -6.5 15.5t-15.5 6.5h-378q-10 0 -16.5 -6.5t-6.5 -15.5q0 -10 6.5 -16.5t16.5 -6.5zM78 148h378q9 0 15.5 6.5t6.5 16.5q0 9 -6.5 15.5t-15.5 6.5h-378q-10 0 -16.5 -6.5t-6.5 -15.5q0 -10 6.5 -16.5t16.5 -6.5z" />
    <glyph glyph-name="greater" unicode="&#x3e;" horiz-adv-x="381" 
d="M358 249l-301 -243q-7 -6 -17 -6q-12 0 -22 10q-7 9 -6 20.5t10 18.5l274 222l-274 223q-9 7 -10 18.5t6 20.5q8 9 19 10t20 -6l301 -245q10 -8 10 -21q0 -14 -10 -22z" />
    <glyph glyph-name="question" unicode="?" horiz-adv-x="455" 
d="M204 718h38q67 0 113 -41q48 -43 48 -103q0 -74 -62 -125q-26 -22 -33.5 -41t-7.5 -51v-139q0 -9 -6.5 -15.5t-15.5 -6.5h-94q-9 0 -15.5 6.5t-6.5 15.5v139q0 40 32 67q19 17 61 37q33 17 42 22q63 41 63 91q0 42 -34.5 71.5t-83.5 29.5h-6q-17 -1 -26 -13.5t-9 -29.5
l2 -38v-1q0 -25 -19 -43t-46 -18q-26 0 -45 18t-19 43q0 52 38 88q39 37 92 37zM160 592l-2 39q0 19 6 34q-47 -23 -47 -72q0 -7 6.5 -12.5t14.5 -5.5q20 0 22 17zM257 239v118q0 40 8 61q-32 -16 -46 -29t-14 -32v-118h52zM230 143q30 0 51 -21t21 -50q0 -30 -21 -51
t-51 -21q-29 0 -50 21t-21 51q0 29 21 50t50 21zM230 42q13 0 21.5 8.5t8.5 21.5q0 12 -8.5 20.5t-21.5 8.5q-12 0 -20.5 -8.5t-8.5 -20.5q0 -13 8.5 -21.5t20.5 -8.5z" />
    <glyph glyph-name="at" unicode="@" horiz-adv-x="781" 
d="M577 217h23q49 0 72 19q28 22 43 92q4 17 2.5 57.5t-9.5 66.5q-16 51 -46 95q-28 39 -72 75q-87 66 -198 66q-135 0 -233 -96q-96 -98 -96 -233q0 -137 96 -233q97 -97 233 -97q88 0 163 43q19 10 29 -8q11 -19 -8 -29q-84 -49 -184 -49q-76 0 -145 30q-66 27 -118 79
q-51 53 -80 118q-29 70 -29 146q0 75 29 145q29 67 80 118t118 80q70 29 145 29q125 0 224 -75q49 -38 81 -85q33 -45 52 -105q10 -31 12 -76.5t-4 -69.5q-18 -85 -58 -118q-35 -28 -98 -28h-121q-19 0 -22 19l-1 -1q-29 -22 -76 -22q-76 0 -130.5 54.5t-54.5 131.5
q0 76 54.5 130.5t130.5 54.5q44 0 75 -20l2 -2q2 20 22 20h76q9 0 15 -6.5t6 -15.5v-300zM315 436v-206q32 -17 66 -17q56 0 77 45v196q-21 44 -77 44h-2q-26 0 -44.5 -18t-19.5 -44zM534 496h-33v-279h33v279zM273 264v172q0 8 1 13q-35 -42 -35 -93q0 -52 34 -92z" />
    <glyph glyph-name="A" unicode="A" horiz-adv-x="855" 
d="M741 44h91q9 0 15.5 -6.5t6.5 -15.5t-6.5 -15.5t-15.5 -6.5h-368q-9 0 -15.5 6.5t-6.5 15.5t6.5 15.5t15.5 6.5h68l-69 161h-236l-69 -161h70q9 0 15.5 -6.5t6.5 -15.5t-6.5 -15.5t-15.5 -6.5h-205q-9 0 -15.5 6.5t-6.5 15.5t6.5 15.5t15.5 6.5h87l292 680q7 15 24 15
q16 0 23 -15zM369 535l123 -286h113l-179 418zM444 249l-99 230l-99 -230h198zM580 44h113l-69 161h-113z" />
    <glyph glyph-name="B" unicode="B" horiz-adv-x="838" 
d="M709 566v-41q0 -77 -60 -122q38 -13 69 -44q54 -52 54 -129v-49q0 -75 -53.5 -128t-129.5 -53h-537q-9 0 -15.5 6.5t-6.5 15.5t6.5 15.5t15.5 6.5h75v636h-75q-9 0 -15.5 6.5t-6.5 15.5t6.5 15.5t15.5 6.5h500q64 0 111 -47q46 -46 46 -111zM171 680v-267h103v267h-103z
M318 680v-267h84q47 0 82 33t35 79v41q0 47 -35 80q-34 34 -82 34h-84zM665 525v41q0 47 -33 80q-34 34 -80 34h-40q51 -48 51 -114v-41q0 -65 -48 -111q-1 0 -1 -0.5t-1 -0.5h39q47 0 80 33t33 79zM274 44v325h-103v-325h103zM318 44h124q58 0 98.5 40.5t40.5 96.5v49
q0 57 -41 98q-39 41 -98 41h-124v-325zM728 181v49q0 57 -41 98q-39 41 -98 41h-28l10 -10q54 -52 54 -129v-49q0 -83 -64 -137h28q57 0 98 40.5t41 96.5z" />
    <glyph glyph-name="C" unicode="C" horiz-adv-x="737" 
d="M696 701v-166q0 -9 -6 -15.5t-16 -6.5q-9 0 -15.5 6.5t-6.5 15.5v58q-11 11 -35 29q-81 55 -180 55h-1q-62 0 -106 -44.5t-43 -107.5v-443q71 -37 150 -37q99 0 180 55q9 7 34 27q0 1 0.5 1t0.5 1v59q0 9 6.5 15.5t15.5 6.5q10 0 16 -6.5t6 -15.5v-166q0 -9 -6 -15.5
t-16 -6.5q-9 0 -15.5 6.5t-6.5 15.5v50q-2 -2 -5 -4.5t-5 -3.5q-94 -63 -205 -63q-74 0 -140 28q-64 27 -114 77q-50 49 -78 115q-28 68 -28 140t28 140q28 66 78 115q50 50 114 77q65 28 140 28q113 0 205 -63q6 -4 10 -8v51q0 9 6.5 15.5t15.5 6.5q10 0 16 -6.5t6 -15.5z
M243 111v414q-1 58 30 107q-31 -20 -59 -47q-93 -93 -93 -224t93 -224q14 -14 29 -26z" />
    <glyph glyph-name="D" unicode="D" horiz-adv-x="800" 
d="M430 722h111q75 0 128.5 -53.5t53.5 -129.5v-356q0 -76 -53.5 -129.5t-128.5 -53.5h-120h-2h-367q-9 0 -15.5 6.5t-6.5 15.5t6.5 15.5t15.5 6.5h73v634h-73q-9 0 -15.5 6.5t-6.5 15.5t6.5 15.5t15.5 6.5h369h9zM169 44h104v634h-104v-634zM317 44h108q45 1 76 33.5
t31 77.5v412q0 44 -29.5 76t-73.5 35h-112v-634zM680 183v356q0 58 -41 98.5t-98 40.5h-12q47 -45 47 -111v-412q0 -66 -47 -111h12q57 0 98 40.5t41 98.5z" />
    <glyph glyph-name="E" unicode="E" horiz-adv-x="734" 
d="M670 700v-91q0 -9 -6.5 -15.5t-15.5 -6.5t-15.5 6.5t-6.5 15.5v69h-309v-373h144v71q0 9 6.5 15.5t15.5 6.5t15.5 -6.5t6.5 -15.5v-184q0 -9 -6.5 -15.5t-15.5 -6.5t-15.5 6.5t-6.5 15.5v69h-144v-217h309v69q0 9 6.5 15.5t15.5 6.5t15.5 -6.5t6.5 -15.5v-91
q0 -9 -6.5 -15.5t-15.5 -6.5h-596q-9 0 -15.5 6.5t-6.5 15.5t6.5 15.5t15.5 6.5h73v634h-73q-9 0 -15.5 6.5t-6.5 15.5t6.5 15.5t15.5 6.5h596q9 0 15.5 -6.5t6.5 -15.5zM273 678h-104v-373h104v373zM273 261h-104v-217h104v217z" />
    <glyph glyph-name="F" unicode="F" horiz-adv-x="735" 
d="M52 722h596q9 0 15.5 -6.5t6.5 -15.5v-91q0 -9 -6.5 -15.5t-15.5 -6.5t-15.5 6.5t-6.5 15.5v69h-309v-373h144v71q0 9 6.5 15.5t15.5 6.5t15.5 -6.5t6.5 -15.5v-184q0 -9 -6.5 -15.5t-15.5 -6.5t-15.5 6.5t-6.5 15.5v69h-144v-217h74q9 0 15.5 -6.5t6.5 -15.5t-6.5 -15.5
t-15.5 -6.5h-335q-9 0 -15.5 6.5t-6.5 15.5t6.5 15.5t15.5 6.5h69v634h-73q-9 0 -15.5 6.5t-6.5 15.5t6.5 15.5t15.5 6.5zM273 678h-104v-373h104v373zM273 261h-104v-217h104v217z" />
    <glyph glyph-name="G" unicode="G" horiz-adv-x="835" 
d="M592 243h199q22 0 22 -22q0 -9 -6 -15.5t-16 -6.5h-74v-177q0 -9 -6 -15.5t-16 -6.5q-9 0 -15.5 6.5t-6.5 15.5v66q-102 -88 -236 -88q-70 0 -140 28q-65 27 -114 78q-51 50 -78 114q-28 70 -28 140q0 71 28 141q27 65 78 114q49 49 114 78q68 28 140 28q134 0 236 -88
v67q0 10 6.5 16t15.5 6q22 0 22 -22v-199q0 -9 -6 -15.5t-16 -6.5q-9 0 -15.5 6.5t-6.5 15.5v70q-95 106 -236 106h-1q-62 -1 -106 -45.5t-43 -107.5v-442q70 -38 150 -38q142 0 236 106v49h-81q-9 0 -15.5 6.5t-6.5 15.5q0 10 6.5 16t15.5 6zM242 111v413q0 59 31 107
q-31 -19 -59 -47q-93 -93 -93 -224q0 -132 93 -223q5 -6 28 -26z" />
    <glyph glyph-name="H" unicode="H" horiz-adv-x="911" 
d="M787 45h72q9 0 15.5 -6.5t6.5 -15.5q0 -10 -6.5 -16.5t-15.5 -6.5h-338q-10 0 -16.5 6.5t-6.5 16.5q0 9 6.5 15.5t16.5 6.5h75v217h-277v-217h71q9 0 15.5 -6.5t6.5 -15.5q0 -10 -6.5 -16.5t-15.5 -6.5h-337q-10 0 -16.5 6.5t-6.5 16.5q0 9 6.5 15.5t16.5 6.5h75v629h-75
q-10 0 -16.5 6.5t-6.5 16.5q0 9 6.5 15.5t16.5 6.5h337q9 0 15.5 -6.5t6.5 -15.5q0 -10 -6.5 -16.5t-15.5 -6.5h-71v-367h277v367h-75q-10 0 -16.5 6.5t-6.5 16.5q0 9 6.5 15.5t16.5 6.5h338q9 0 15.5 -6.5t6.5 -15.5q0 -10 -6.5 -16.5t-15.5 -6.5h-72v-629zM173 674v-367
h101v367h-101zM641 307h101v367h-101v-367zM274 262h-101v-217h101v217zM742 45v217h-101v-217h101z" />
    <glyph glyph-name="I" unicode="I" horiz-adv-x="447" 
d="M320 45h72q9 0 15.5 -6.5t6.5 -15.5q0 -10 -6.5 -16.5t-15.5 -6.5h-336q-10 0 -16.5 6.5t-6.5 16.5q0 9 6.5 15.5t16.5 6.5h75v630h-75q-10 0 -16.5 6.5t-6.5 16.5q0 9 6.5 15.5t16.5 6.5h336q9 0 15.5 -6.5t6.5 -15.5q0 -10 -6.5 -16.5t-15.5 -6.5h-72v-630zM275 45v630
h-99v-630h99z" />
    <glyph glyph-name="J" unicode="J" horiz-adv-x="562" 
d="M183 720h334q9 0 15.5 -6.5t6.5 -15.5t-6.5 -15.5t-15.5 -6.5h-70v-498q0 -74 -54 -126t-128 -52h-71q-73 0 -127 52q-52 52 -52 127v12q0 31 22.5 53.5t53.5 22.5t55 -22q22 -22 25 -55v-100q0 -19 11.5 -30.5t28.5 -11.5h2q19 0 31 12q13 13 13 30v586h-74
q-10 0 -16 6.5t-6 15.5t6 15.5t16 6.5zM403 676h-102v-586q0 -22 -12 -44q49 8 81.5 45.5t32.5 86.5v498zM59 189v-10q0 -57 39 -96q15 -15 34 -24q-5 11 -5 31l-1 18v82q0 13 -10.5 23t-24.5 10q-13 0 -22.5 -10t-9.5 -24z" />
    <glyph glyph-name="K" unicode="K" horiz-adv-x="810" 
d="M750 44h38q9 0 15.5 -6.5t6.5 -15.5t-6.5 -15.5t-15.5 -6.5h-236q-10 0 -18 8l-212 263l-3 -4v-223h70q9 0 15.5 -6.5t6.5 -15.5t-6.5 -15.5t-15.5 -6.5h-337q-9 0 -15.5 6.5t-6.5 15.5t6.5 15.5t15.5 6.5h75v633h-75q-9 0 -15.5 6.5t-6.5 15.5t6.5 15.5t15.5 6.5h337
q9 0 15.5 -6.5t6.5 -15.5t-6.5 -15.5t-15.5 -6.5h-70v-345l343 345h-60q-9 0 -15.5 6.5t-6.5 15.5t6.5 15.5t15.5 6.5h186q9 0 15.5 -6.5t6.5 -15.5t-6.5 -15.5t-15.5 -6.5h-64l-267 -270zM275 44v633h-104v-633h104zM426 375l-72 -73l208 -258h131z" />
    <glyph glyph-name="L" unicode="L" horiz-adv-x="658" 
d="M570 44v72q0 9 6.5 15.5t15.5 6.5t15.5 -6.5t6.5 -15.5v-94q0 -9 -6.5 -15.5t-15.5 -6.5h-540q-9 0 -15.5 6.5t-6.5 15.5t6.5 15.5t15.5 6.5h76v632h-76q-9 0 -15.5 6.5t-6.5 15.5t6.5 15.5t15.5 6.5h337q9 0 15.5 -6.5t6.5 -15.5t-6.5 -15.5t-15.5 -6.5h-72v-632h253z
M273 44v632h-101v-632h101z" />
    <glyph glyph-name="M" unicode="M" horiz-adv-x="986" 
d="M861 44h77q9 0 15.5 -6.5t6.5 -15.5t-6.5 -15.5t-15.5 -6.5h-336q-9 0 -15.5 6.5t-6.5 15.5t6.5 15.5t15.5 6.5h69v547l-162 -398q-1 -1 -1 -3l-73 -178q-5 -13 -20 -13q-14 0 -20 12l-232 459v-426h71q9 0 15.5 -6.5t6.5 -15.5t-6.5 -15.5t-15.5 -6.5h-186
q-9 0 -15.5 6.5t-6.5 15.5t6.5 15.5t15.5 6.5h71v633h-71q-9 0 -15.5 6.5t-6.5 15.5t6.5 15.5t15.5 6.5h186q13 0 20 -13l231 -456l186 454q3 6 10 12q6 3 12 3h245q9 0 15.5 -6.5t6.5 -15.5t-6.5 -15.5t-15.5 -6.5h-77v-633zM163 568l249 -494l51 124l-242 479h-58v-109z
M817 44v633h-102v-633h102z" />
    <glyph glyph-name="N" unicode="N" horiz-adv-x="803" 
d="M615 721h186q9 0 15.5 -6.5t6.5 -15.5q0 -10 -6.5 -16t-15.5 -6h-79v-660q0 -15 -14 -20q-4 -2 -8 -2q-9 0 -16 7l-527 531v-489h72q9 0 15.5 -6.5t6.5 -15.5q0 -10 -6.5 -16t-15.5 -6h-186q-9 0 -15.5 6t-6.5 16q0 9 6.5 15.5t15.5 6.5h70v633h-70q-9 0 -15.5 6t-6.5 16
q0 9 6.5 15.5t15.5 6.5h185q12 0 24 -12l426 -427v395h-63q-9 0 -15.5 6t-6.5 16q0 9 6.5 15.5t15.5 6.5zM157 596l521 -526v149l-456 458h-65v-81z" />
    <glyph glyph-name="O" unicode="O" horiz-adv-x="883" 
d="M785 504q30 -69 30 -146q0 -76 -30 -145q-27 -66 -80 -119q-51 -51 -118 -80q-70 -29 -146 -29q-75 0 -145 29q-66 28 -119 80q-52 53 -80 119q-29 70 -29 145q0 76 29 146q29 67 80 118q53 53 119 80q69 30 146 30q76 0 145 -30q67 -27 118 -80q53 -51 80 -118zM283 528
v-459q72 -39 154 -40q64 0 111 45q46 46 46 111v466q-72 37 -153 37q-65 0 -111.5 -47t-46.5 -113zM239 98v430q0 63 35 114q-36 -21 -66 -51q-96 -96 -96 -233q0 -135 96 -233zM638 623v-438q0 -62 -36 -114q39 21 72 54q97 99 97 233q0 136 -97 233q-8 8 -36 32z" />
    <glyph glyph-name="P" unicode="P" horiz-adv-x="785" 
d="M52 722h496q77 0 129 -54q54 -52 54 -129v-97q0 -76 -54 -128q-53 -53 -129 -53h-194v-217h76q9 0 15.5 -6.5t6.5 -15.5t-6.5 -15.5t-15.5 -6.5h-337q-9 0 -15.5 6.5t-6.5 15.5t6.5 15.5t15.5 6.5h71v217h-71q-9 0 -15.5 6.5t-6.5 15.5t6.5 15.5t15.5 6.5h71v373h-90v-69
q0 -9 -6.5 -15.5t-15.5 -6.5t-15.5 6.5t-6.5 15.5v91q0 9 6.5 15.5t15.5 6.5zM208 305h102v373h-102v-373zM354 305h48q56 0 98 40q40 40 40 97v97q0 59 -41 98q-39 41 -97 41h-48v-373zM687 442v97q0 59 -41 98q-39 41 -98 41h-28q64 -56 64 -139v-97q0 -76 -54 -128l-9 -9
h27q58 0 98.5 40t40.5 97zM310 261h-102v-217h102v217z" />
    <glyph glyph-name="Q" unicode="Q" horiz-adv-x="883" 
d="M587 16q-69 -30 -146 -30q-76 0 -145 30t-119 80q-51 51 -80 118q-29 70 -29 146q0 75 29 145q27 65 80 119q53 52 119 80q70 29 146 29q75 0 145 -29q67 -29 118 -80q54 -54 80 -119q30 -69 30 -145q0 -77 -30 -146q-27 -67 -80 -118q-49 -50 -118 -80zM283 530v-459
q71 -39 154 -41q63 0 111 46q46 46 46 110v466q-72 37 -153 37q-65 0 -111.5 -46.5t-46.5 -112.5zM239 100v430q0 62 35 113q-35 -20 -66 -50q-96 -98 -96 -233q0 -137 96 -233q11 -11 31 -27zM638 624v-438q0 -62 -36 -114q43 25 72 55q97 97 97 233q0 134 -97 233
q-16 16 -36 31zM587 -103l-1 1q-49 17 -76 18q-38 2 -58 -23q-13 -17 -31 -3q-7 5 -8 14t5 16q32 42 94 40q31 -1 89 -21q54 -18 77 -18q28 0 54 14.5t41 38.5q11 18 30 7q8 -5 10 -13.5t-3 -16.5q-20 -34 -56 -54t-76 -20h-2q-31 0 -89 20z" />
    <glyph glyph-name="R" unicode="R" horiz-adv-x="862" 
d="M731 541v-97q0 -75 -53 -128q-10 -11 -27 -23q35 -12 55 -38q28 -38 28 -120q0 -50 10 -69q11 -22 46 -22q9 0 15.5 -6.5t6.5 -15.5t-6.5 -15.5t-15.5 -6.5h-151q-61 0 -86 46q-14 28 -14 89q0 68 -19 93q-27 35 -109 35h-5h-51v-219h73q9 0 15.5 -6.5t6.5 -15.5
t-6.5 -15.5t-15.5 -6.5h-338q-9 0 -15.5 6.5t-6.5 15.5t6.5 15.5t15.5 6.5h75v219h-71q-9 0 -15.5 6.5t-6.5 15.5t6.5 15.5t15.5 6.5h71v373h-91v-69q0 -9 -6.5 -15.5t-15.5 -6.5t-15.5 6.5t-6.5 15.5v91q0 9 6.5 15.5t15.5 6.5h498q76 0 128 -54q53 -53 53 -129zM311 680
h-102v-373h102v373zM355 307h49q56 0 98 40q40 40 40 97v97q0 58 -40.5 98.5t-97.5 40.5h-49v-373zM523 307h27q59 0 97 40q40 38 40 97v97q0 58 -40 98q-39 41 -97 41h-28q64 -56 64 -139v-97q0 -76 -54 -128zM311 263h-102v-219h102v219zM639 44h67l-2 2q-14 28 -14 89
q0 68 -19 93q-27 35 -109 35h-5h-9q5 -5 7 -8q28 -38 28 -120q0 -50 10 -69q11 -22 46 -22z" />
    <glyph glyph-name="S" unicode="S" horiz-adv-x="711" 
d="M636 269v-79q0 -22 -6 -43q-22 -64 -101 -105q-28 -19 -68 -28v1q-46 -12 -98 -15h-18q-104 0 -179 43q-24 13 -44 31v-48q0 -10 -7 -17t-16 -7q-10 0 -17 7t-7 17v188q0 10 7 16.5t17 6.5q9 0 16 -6.5t7 -16.5v-50q8 -50 70 -84q68 -39 169 -36q48 3 90 15v1l22 6l13 6
q46 20 48 60q2 30 -24 60q-30 33 -77 47l-179 54q-53 15 -94 61q-43 49 -43 102v75q-2 39 18 77q18 34 53 63q72 58 173 61q116 5 195 -58v30q0 10 7 16.5t17 6.5q9 0 16 -6.5t7 -16.5v-159q0 -10 -7 -17t-16 -7q-10 0 -17 7t-7 17v62q-25 36 -74 57q-53 24 -119 22
q-56 -3 -102 -24q-79 -44 -74 -90q3 -28 33 -54t67 -36l200 -61q65 -24 104 -60q43 -40 45 -92zM586 190v79q0 33 -31 62q-30 29 -86 49l-198 61q-47 12 -85 46q-9 7 -23 23v-53q2 -39 32 -72q33 -37 72 -48q4 -1 14 -4t51 -15t114 -34q60 -18 99 -62q28 -32 34 -71l3 8
q5 17 4 31z" />
    <glyph glyph-name="T" unicode="T" horiz-adv-x="764" 
d="M60 723h644q9 0 15.5 -6.5t6.5 -15.5v-91q0 -9 -6.5 -15.5t-15.5 -6.5t-15.5 6.5t-6.5 15.5v69h-208v-635h71q9 0 15.5 -6.5t6.5 -15.5t-6.5 -15.5t-15.5 -6.5h-337q-9 0 -15.5 6.5t-6.5 15.5t6.5 15.5t15.5 6.5h75v635h-201v-61q0 -9 -6.5 -15.5t-15.5 -6.5t-15.5 6.5
t-6.5 15.5v83q0 9 6.5 15.5t15.5 6.5zM430 679h-103v-635h103v635z" />
    <glyph glyph-name="U" unicode="U" horiz-adv-x="828" 
d="M599 723h186q9 0 15.5 -6.5t6.5 -15.5q0 -10 -6.5 -16.5t-15.5 -6.5h-71v-443q0 -97 -69 -166q-67 -69 -166 -69h-130q-98 0 -167 69q-68 68 -68 166v443h-70q-10 0 -16.5 6.5t-6.5 16.5q0 9 6.5 15.5t16.5 6.5h337q9 0 15.5 -6.5t6.5 -15.5q0 -10 -6.5 -16.5t-15.5 -6.5
h-77v-443q0 -80 56 -134q57 -55 136 -55q70 6 117 55q56 56 56 134v443h-70q-10 0 -16.5 6.5t-6.5 16.5q0 9 6.5 15.5t16.5 6.5zM159 678v-443q0 -79 55 -134q56 -56 135 -56h8q-17 12 -29 24q-69 67 -69 166v443h-100z" />
    <glyph glyph-name="V" unicode="V" horiz-adv-x="875" 
d="M636 723h205q9 0 15.5 -6.5t6.5 -15.5t-6.5 -15.5t-15.5 -6.5h-89l-293 -681q-5 -13 -20 -13h-3h-3q-15 0 -20 13l-293 681h-86q-9 0 -15.5 6.5t-6.5 15.5t6.5 15.5t15.5 6.5h367q9 0 15.5 -6.5t6.5 -15.5t-6.5 -15.5t-15.5 -6.5h-72l187 -437l188 437h-68
q-9 0 -15.5 6.5t-6.5 15.5t6.5 15.5t15.5 6.5zM436 55l57 133q-2 1 -4 5l-208 486h-113z" />
    <glyph glyph-name="W" unicode="W" horiz-adv-x="1302" 
d="M1067 721h203q9 0 15.5 -6.5t6.5 -15.5t-6.5 -15.5t-15.5 -6.5h-86l-292 -678q-5 -13 -20 -13h-3h-3q-14 0 -21 13l-193 450l-194 -450q-5 -13 -20 -13h-3h-3q-14 0 -21 13l-291 678h-88q-10 0 -16 6.5t-6 15.5t6 15.5t16 6.5h258q20 0 28 -20l197 -458l113 262l-74 172
h-70q-10 0 -16 6.5t-6 15.5t6 15.5t16 6.5h353q9 0 15.5 -6.5t6.5 -15.5t-6.5 -15.5t-15.5 -6.5h-75l187 -434l186 434h-68q-10 0 -16 6.5t-6 15.5t6 15.5t16 6.5zM491 188l-3 5l-208 484h-112l267 -620zM925 188l-3 5l-208 484h-112l267 -620z" />
    <glyph glyph-name="X" unicode="X" horiz-adv-x="890" 
d="M767 45h73q9 0 15.5 -6.5t6.5 -15.5q0 -10 -6.5 -16.5t-15.5 -6.5h-391q-10 0 -16.5 6.5t-6.5 16.5q0 9 6.5 15.5t16.5 6.5h81l-152 235l-204 -235h76q9 0 15.5 -6.5t6.5 -15.5q0 -10 -6.5 -16.5t-15.5 -6.5h-199q-10 0 -16.5 6.5t-6.5 16.5q0 9 6.5 15.5t16.5 6.5h64
l238 273l-233 359h-69q-10 0 -16.5 6.5t-6.5 16.5q0 9 6.5 15.5t16.5 6.5h390q9 0 15.5 -6.5t6.5 -15.5q0 -10 -6.5 -16.5t-15.5 -6.5h-85l132 -203l177 203h-74q-10 0 -16.5 6.5t-6.5 16.5q0 9 6.5 15.5t16.5 6.5h200q9 0 15.5 -6.5t6.5 -15.5q0 -10 -6.5 -16.5t-15.5 -6.5
h-68l-210 -242zM383 354l74 85l-154 238h-130zM713 45l-230 355l-74 -85l175 -270h129z" />
    <glyph glyph-name="Y" unicode="Y" horiz-adv-x="839" 
d="M619 722h200q9 0 15.5 -6.5t6.5 -15.5t-6.5 -15.5t-15.5 -6.5h-75l-232 -287v-7v-340h72q9 0 15.5 -6.5t6.5 -15.5t-6.5 -15.5t-15.5 -6.5h-337q-9 0 -15.5 6.5t-6.5 15.5t6.5 15.5t15.5 6.5h74v276l-231 358h-70q-9 0 -15.5 6.5t-6.5 15.5t6.5 15.5t15.5 6.5h390
q9 0 15.5 -6.5t6.5 -15.5t-6.5 -15.5t-15.5 -6.5h-85l162 -249l200 249h-68q-9 0 -15.5 6.5t-6.5 15.5t6.5 15.5t15.5 6.5zM468 44v333l-195 301h-131l219 -340q4 -4 4 -12v-282h103z" />
    <glyph glyph-name="Z" unicode="Z" horiz-adv-x="761" 
d="M667 44v72q0 9 6.5 15.5t15.5 6.5t15.5 -6.5t6.5 -15.5v-94q0 -9 -6.5 -15.5t-15.5 -6.5h-622q-13 0 -19 11q-6 13 1 23l417 643h-323v-69q0 -9 -6.5 -15.5t-15.5 -6.5t-15.5 6.5t-6.5 15.5v91q0 9 6.5 15.5t15.5 6.5h568q13 0 19 -11q6 -13 -1 -23l-417 -643h377z
M238 44l410 633h-130l-411 -633h131z" />
    <glyph glyph-name="bracketleft" unicode="[" horiz-adv-x="325" 
d="M144 -270h128q9 0 15.5 6.5t6.5 15.5t-6.5 15.5t-15.5 6.5h-106v888h106q9 0 15.5 6.5t6.5 15.5t-6.5 15.5t-15.5 6.5h-128q-9 0 -15.5 -6.5t-6.5 -15.5v-932q0 -9 6.5 -15.5t15.5 -6.5z" />
    <glyph glyph-name="backslash" unicode="\" horiz-adv-x="296" 
d="M37 707l264 -676q4 -9 0 -17.5t-12 -11.5q-3 -2 -8 -2q-16 0 -21 14l-264 676q-4 9 0 17.5t12 11.5q9 4 17.5 0t11.5 -12z" />
    <glyph glyph-name="bracketright" unicode="]" horiz-adv-x="325" 
d="M181 -272h-128q-9 0 -15.5 6.5t-6.5 15.5t6.5 15.5t15.5 6.5h106v888h-106q-9 0 -15.5 6.5t-6.5 15.5t6.5 15.5t15.5 6.5h128q9 0 15.5 -6.5t6.5 -15.5v-932q0 -9 -6.5 -15.5t-15.5 -6.5z" />
    <glyph glyph-name="asciicircum" unicode="^" horiz-adv-x="651" 
d="M326 657l164 -270q6 -11 19 -11q7 0 12 4q18 11 7 30l-184 300q-6 11 -18 11q-13 0 -19 -11l-184 -300q-5 -7 -2.5 -16.5t10.5 -13.5q17 -12 30 7z" />
    <glyph glyph-name="underscore" unicode="_" horiz-adv-x="500" 
d="M24 -112h453q9 0 15.5 6.5t6.5 16.5q0 9 -6.5 15.5t-15.5 6.5h-453q-10 0 -16.5 -6.5t-6.5 -15.5q0 -10 6.5 -16.5t16.5 -6.5z" />
    <glyph glyph-name="grave" unicode="`" horiz-adv-x="292" 
d="M17 637l175 -81q7 -3 14.5 -0.5t10.5 9.5q9 15 -7 25l-167 99q-5 5 -18.5 2t-19.5 -15q-5 -13 -0.5 -24t12.5 -15z" />
    <glyph glyph-name="a" unicode="a" horiz-adv-x="546" 
d="M493 42h29q21 0 21 -20q0 -22 -21 -22h-143q-7 0 -14 6.5t-7 15.5v6q-36 -28 -94 -28q-93 0 -158 64.5t-65 154.5q0 92 65 157t158 65q61 0 94 -32v3q0 10 6.5 16t14.5 6h93q21 0 21 -22v-370zM175 314v-250q39 -22 89 -22q71 0 94 57v239q-25 61 -94 61h-7
q-33 0 -57.5 -25.5t-24.5 -59.5zM451 392h-50v-350h50v350zM133 96v218q0 16 7 34q-56 -54 -56 -129q0 -77 49 -123z" />
    <glyph glyph-name="b" unicode="b" horiz-adv-x="591" 
d="M215 700v-286q36 32 97 32q94 0 160.5 -65.5t66.5 -157.5q0 -94 -66 -160t-161 -66q-61 0 -97 32v-7q0 -8 -6.5 -15t-14.5 -7h-144q-8 0 -15 7t-7 15t7 14.5t15 6.5h29v636h-29q-8 0 -15 6.5t-7 14.5t7 15t15 7h144q8 0 14.5 -7t6.5 -15zM172 679h-50v-636h50v636z
M215 346v-249q26 -57 97 -57q52 0 90 21l-3 260q0 35 -24 58.5t-59 23.5h-4q-71 0 -97 -57zM442 321l4 -227q50 57 50 129q0 76 -58 134q4 -11 4 -36z" />
    <glyph glyph-name="c" unicode="c" horiz-adv-x="484" 
d="M193 317v-258q41 -22 87 -22q39 0 75.5 17.5t55.5 47.5q13 17 31 5q17 -13 6 -31q-28 -37 -74 -59.5t-94 -22.5q-93 0 -159 66t-66 159q0 91 64 157.5t159 66.5q59 0 106 -29t62 -69q16 -47 -5 -89q-12 -22 -35.5 -29t-45.5 4q-24 12 -31 35q-8 25 4 44l17 33q9 11 4 27
t-27 24q-33 10 -61 7q-30 -5 -51.5 -29t-21.5 -55zM150 93v224q0 11 4 33q-55 -52 -55 -131q0 -75 51 -126zM388 322l-17 -31q-5 -11 8 -20q15 -8 22 4q14 27 3 56l-7 17q-4 -16 -9 -26z" />
    <glyph glyph-name="d" unicode="d" horiz-adv-x="552" 
d="M515 44h29q21 0 21 -22t-21 -22h-145q-22 0 -22 22v7q-36 -32 -97 -32q-95 0 -161.5 65.5t-66.5 158.5q0 95 66.5 161t161.5 66q59 0 97 -32v262h-29q-8 0 -14.5 5.5t-6.5 16.5q0 8 6.5 14.5t14.5 6.5h145q10 0 16 -6t6 -15v-656zM471 678h-50v-634h50v634zM189 322v-260
q38 -22 91 -22q71 0 97 58v245q-25 62 -97 62h-7q-33 0 -58.5 -25.5t-25.5 -57.5zM146 94v228q0 6 7 32q-58 -52 -58 -133q0 -74 51 -127z" />
    <glyph glyph-name="e" unicode="e" horiz-adv-x="523" 
d="M295 -5h-25q-91 0 -158 66.5t-67 159.5q0 91 67 156t158 65q73 0 132 -44t83 -116q8 -34 -7 -58q-15 -18 -54 -18h-240v-147q37 -20 86 -20h25q84 0 140 64q5 8 14.5 9t14.5 -5q7 -6 8 -15.5t-5 -14.5q-67 -82 -172 -82zM184 249h168l-3 68q0 35 -23 59t-56 24h-3
q-33 0 -58 -24t-25 -59v-68zM396 249h32q14 0 18 4q0 3 -4 15q-15 52 -53 85q4 -10 4 -36zM142 92v225q0 22 4 33q-58 -52 -58 -129t54 -129z" />
    <glyph glyph-name="f" unicode="f" horiz-adv-x="357" 
d="M223 721h88q56 0 95.5 -37t39.5 -90q0 -27 -18.5 -45.5t-45.5 -18.5q-29 0 -48 18.5t-19 45.5l4 39q0 15 -9.5 27.5t-22.5 14.5q-7 2 -17 2q-5 0 -15 -2q-43 -10 -43 -78v-161h68q8 0 14.5 -7t6.5 -14q0 -8 -6.5 -15t-14.5 -7h-68v-350h29q8 0 14.5 -7t6.5 -15
q0 -7 -7 -14t-14 -7h-192q-7 0 -14 7t-7 14q0 8 6.5 15t14.5 7h29v350h-29q-8 0 -14.5 7t-6.5 15q0 7 7 14t14 7h29v115q0 80 38 125t107 45zM170 436v161q0 42 17 78q-67 -20 -67 -124v-115h50zM358 633v-39q0 -9 7 -15.5t17 -6.5q8 0 15 7t7 15q0 24 -15 45.5t-39 32.5
q8 -11 8 -39zM120 393v-350h50v350h-50z" />
    <glyph glyph-name="g" unicode="g" horiz-adv-x="547" 
d="M119 129l3 3q-78 54 -78 135q0 71 60.5 121t147.5 50q90 0 147 -48q8 20 28 34t42 14q33 0 55.5 -23t22.5 -54t-22.5 -53t-55.5 -22h-4v-19q0 -47 -21.5 -82.5t-55.5 -53.5t-67 -26.5t-65 -8.5h-4q-58 0 -88 15q-11 -11 -11 -26q0 -21 13 -35t31 -14h122q60 0 103 -42.5
t43 -102.5v-42q0 -61 -43 -104.5t-103 -43.5h-107q-62 0 -104 41.5t-44 103.5v3q0 9 6 16.5t15 7.5t15.5 -7.5t6.5 -16.5v-3q0 -42 30.5 -71t74.5 -29h74q27 0 46.5 21t19.5 49v11q0 30 -19 48.5t-47 18.5h-89q-53 0 -93 37.5t-40 84.5q0 46 55 113zM179 338l-5 -183
q35 -13 78 -13h23q25 2 40.5 16t15.5 34l3 182q-34 20 -82 20h-3q-28 0 -49 -17t-21 -39zM469 330q14 0 24 9t10 22t-10 23t-24 10q-11 0 -20.5 -10t-9.5 -23t9 -22t21 -9zM132 338v14q-43 -38 -43 -85q0 -50 40 -85zM375 192v-15q46 39 46 90q0 46 -41 82zM319 -8h-122
q-26 0 -49 14.5t-34 39.5q-7 -23 -7 -30q0 -29 26.5 -53.5t63.5 -24.5h89q45 0 79 -32t34 -79v-11q0 -26 -9 -37q31 29 31 70v42q0 42 -30 71.5t-72 29.5z" />
    <glyph glyph-name="h" unicode="h" horiz-adv-x="571" 
d="M493 43h31q8 0 15 -6.5t7 -14.5t-7 -15t-15 -7h-192q-8 0 -14.5 7t-6.5 15t6.5 14.5t14.5 6.5h25v299q0 22 -14.5 38t-35.5 16q-40 0 -68 -30t-28 -70v-253h28q8 0 14.5 -6.5t6.5 -14.5t-6.5 -15t-14.5 -7h-192q-8 0 -15 7t-7 15t7 14.5t15 6.5h28v636h-28q-8 0 -15 6.5
t-7 14.5t7 14.5t15 6.5h142q8 0 15 -6.5t7 -14.5v-301q44 40 96 40h43q62 0 102.5 -40.5t40.5 -102.5v-253zM168 43v636h-50v-636h50zM450 43v253q0 31 -17 56.5t-44 36.5q10 -21 10 -47v-299h51z" />
    <glyph glyph-name="i" unicode="i" horiz-adv-x="291" 
d="M145 575q-30 0 -51 21.5t-21 53.5q0 29 21.5 50t50.5 21t50 -21t21 -50q0 -32 -20.5 -53.5t-50.5 -21.5zM145 679q-13 0 -21 -9t-8 -20q0 -14 8 -23t21 -9q28 0 28 32q0 11 -7.5 20t-20.5 9zM213 43h29q8 0 14.5 -7t6.5 -15t-6.5 -14.5t-14.5 -6.5h-192q-8 0 -15 6.5
t-7 14.5t7 15t15 7h28v352h-28q-8 0 -15 7t-7 15t7 14.5t15 6.5h142q8 0 14.5 -6.5t6.5 -14.5v-374zM171 43v352h-50v-352h50z" />
    <glyph glyph-name="j" unicode="j" horiz-adv-x="346" 
d="M192 569q-32 0 -53.5 22t-21.5 55q0 32 21.5 53.5t53.5 21.5q30 0 51.5 -22t21.5 -53q0 -33 -21.5 -55t-51.5 -22zM192 676q-14 0 -22 -9t-8 -21q0 -14 8 -23t22 -9q28 0 28 32q0 12 -7.5 21t-20.5 9zM95 436h148q8 0 15.5 -6.5t7.5 -14.5v-535q0 -84 -40 -131.5
t-113 -47.5h-32h-15h-34q-58 0 -99.5 39t-41.5 95q0 29 20 48t50 19q28 0 47.5 -19.5t19.5 -47.5v-41q0 -43 34 -48h15q24 3 35.5 21.5t11.5 63.5v562h-29q-8 0 -15 7t-7 15t7 14.5t15 6.5zM169 393v-562q0 -55 -15 -77q68 21 68 126v513h-53zM-17 -206v41q0 8 -7 15.5
t-15 7.5q-10 0 -17.5 -7t-7.5 -16q0 -25 15 -45.5t40 -31.5q-8 10 -8 36z" />
    <glyph glyph-name="k" unicode="k" horiz-adv-x="537" 
d="M484 43h28q8 0 14.5 -6.5t6.5 -14.5t-6.5 -14.5t-14.5 -6.5h-155q-11 0 -18 7l-127 153v-118h28q8 0 14.5 -6.5t6.5 -14.5t-6.5 -14.5t-14.5 -6.5h-191q-7 0 -14 6.5t-7 14.5t6.5 14.5t14.5 6.5h28v635h-28q-8 0 -14.5 7t-6.5 15t7 14.5t14 6.5h142q7 0 14 -6.5t7 -14.5
v-479l173 173h-31q-8 0 -15 6.5t-7 14.5t7 14.5t15 6.5h120q8 0 14.5 -6.5t6.5 -14.5q0 -7 -6.5 -14t-14.5 -7h-32l-134 -138zM169 43v635h-50v-635h50zM279 228l-36 -36l124 -149h64z" />
    <glyph glyph-name="l" unicode="l" horiz-adv-x="289" 
d="M212 44h28q8 0 14.5 -7t6.5 -15t-6.5 -14.5t-14.5 -6.5h-191q-8 0 -14.5 6.5t-6.5 14.5t6.5 15t14.5 7h28v634h-28q-8 0 -14.5 7t-6.5 15t6.5 14.5t14.5 6.5h142q7 0 14 -6.5t7 -14.5v-656zM169 44v634h-49v-634h49z" />
    <glyph glyph-name="m" unicode="m" horiz-adv-x="810" 
d="M740 44h28q8 0 15 -7t7 -15t-7 -14.5t-15 -6.5h-183q-8 0 -14.5 6.5t-6.5 14.5t6.5 15t14.5 7h24v296q0 21 -13.5 37t-31.5 16q-38 -2 -63.5 -30.5t-25.5 -68.5v-250h21q8 0 15 -7t7 -15t-7 -14.5t-15 -6.5h-183q-8 0 -14.5 6.5t-6.5 14.5t6.5 15t14.5 7h25v296
q0 21 -13.5 37t-29.5 16q-40 -2 -66 -30.5t-26 -68.5v-250h29q8 0 14.5 -7t6.5 -15t-6.5 -14.5t-14.5 -6.5h-191q-8 0 -14.5 6.5t-6.5 14.5t6.5 15t14.5 7h28v349h-28q-8 0 -14.5 6.5t-6.5 14.5t6.5 15t14.5 7h141q8 0 14.5 -7t6.5 -15v-17q46 39 89 39h3h4h35q36 0 68 -19
t49 -49q38 61 113 68h42q55 0 94.5 -41.5t39.5 -100.5v-250zM161 44v349h-50v-349h50zM429 44v250q0 32 -16.5 56.5t-43.5 35.5q11 -22 11 -46v-296h49zM698 44v250q0 31 -16 56t-41 36q11 -22 11 -46v-296h46z" />
    <glyph glyph-name="n" unicode="n" horiz-adv-x="565" 
d="M483 43h36q21 0 21 -21q0 -8 -5.5 -14.5t-15.5 -6.5h-191q-8 0 -14.5 6.5t-6.5 14.5t6.5 14.5t14.5 6.5h21v297q0 21 -13.5 37t-32.5 16q-38 0 -66.5 -29t-28.5 -66v-255h28q22 0 22 -21q0 -8 -5.5 -14.5t-16.5 -6.5h-190q-8 0 -14.5 6.5t-6.5 14.5t6.5 14.5t14.5 6.5h28
v350h-28q-8 0 -14.5 6.5t-6.5 14.5t6.5 14.5t14.5 6.5h141q21 0 21 -21v-18q39 39 92 39h3h4h39q56 0 96.5 -40.5t40.5 -96.5v-255zM166 43v350h-50v-350h50zM441 43v255q0 28 -17 52.5t-43 35.5q11 -22 11 -46v-297h49z" />
    <glyph glyph-name="o" unicode="o" horiz-adv-x="541" 
d="M251 442h18q94 0 160.5 -65.5t66.5 -157.5q0 -95 -66 -161t-161 -66q-92 0 -158 66.5t-66 160.5q0 86 59.5 150.5t146.5 72.5zM182 316v-259q39 -22 87 -22h3q38 0 64 25t26 58l-3 260q-38 21 -90 21h-11q-30 -2 -53 -26.5t-23 -56.5zM140 89v227q0 6 1.5 16.5t1.5 15.5
q-54 -52 -54 -129q0 -81 51 -130zM402 341l4 -223q0 -18 -4 -25q50 52 50 126q0 72 -50 122z" />
    <glyph glyph-name="p" unicode="p" horiz-adv-x="589" 
d="M210 415v-32q60 53 127 53q83 0 141.5 -65t58.5 -156q0 -89 -59 -153.5t-141 -64.5q-78 5 -127 57v-309h29q8 0 14 -6.5t6 -14.5q0 -9 -6 -16t-14 -7h-190q-10 0 -15.5 7t-5.5 16q0 21 21 21h28v647h-28q-10 0 -15.5 7.5t-5.5 15.5q0 21 21 21h141q8 0 14 -6t6 -15z
M167 -255v647h-50v-647h50zM210 315v-194q44 -77 127 -80q29 2 48 24t19 56v256q-27 15 -67 15q-37 0 -71.5 -20.5t-55.5 -56.5zM447 341v-220q0 -8 -1 -19t-1 -16q49 54 49 129q0 71 -47 126z" />
    <glyph glyph-name="q" unicode="q" horiz-adv-x="592" 
d="M516 -257h26q22 0 22 -22q0 -20 -22 -20h-190q-21 0 -21 20q0 8 6.5 15t14.5 7h28v315q-57 -57 -131 -57q-82 0 -139.5 64.5t-57.5 155.5q0 90 57.5 152.5t139.5 62.5q78 0 131 -53v35q0 8 7 15t15 7h140q22 0 22 -22q0 -20 -22 -20h-26v-655zM472 -257v655h-49v-655h49z
M182 376v-255q0 -32 20 -54.5t47 -22.5q86 0 131 81v191q-21 37 -55.5 57t-75.5 20q-40 0 -67 -17zM140 121v223q-46 -51 -46 -123q0 -81 53 -131q-7 18 -7 31z" />
    <glyph glyph-name="r" unicode="r" horiz-adv-x="437" 
d="M274 436h35q54 0 93 -38.5t39 -89.5q0 -27 -18.5 -45.5t-45.5 -18.5t-45.5 18.5t-18.5 45.5v36q0 21 -12.5 34.5t-30.5 13.5q-60 -4 -60 -80v-271h28q20 0 20 -20q0 -7 -6 -13.5t-14 -6.5h-191q-6 0 -13 7t-7 13q0 8 6.5 14t13.5 6h27v351h-27q-6 0 -13 7t-7 13
q0 9 7 16.5t13 7.5h143q7 0 13.5 -6t6.5 -14q27 20 64 20zM166 392h-48v-351h48v351zM353 344v-36q0 -9 7.5 -16.5t16.5 -7.5t16.5 7.5t7.5 16.5q0 24 -16 45.5t-40 30.5q8 -12 8 -40z" />
    <glyph glyph-name="s" unicode="s" horiz-adv-x="451" 
d="M413 161v-46q0 -17 -5 -29q-13 -36 -59.5 -61t-106.5 -27h-11q-77 0 -133 36v-15q0 -8 -6 -14.5t-15 -6.5q-7 0 -14 7t-7 14v104q0 7 7 14t14 7q9 0 15 -6.5t6 -14.5v-25q10 -25 48 -42t91 -15q33 0 62 11q38 22 38 38q0 12 -16.5 25.5t-40.5 17.5q-16 4 -30.5 8t-24.5 7
t-18.5 5.5t-13.5 4.5t-9.5 3t-6.5 2t-3.5 1.5t-2.5 0.5h-2q-34 10 -60 40.5t-28 62.5v43q0 51 44.5 86t111.5 39q63 4 112 -26v4q0 8 6.5 15t14.5 7q7 0 14 -7t7 -15v-85q0 -9 -7 -15t-14 -6q-8 0 -14.5 6t-6.5 15v29q-40 40 -107 35q-25 0 -58 -12q-46 -21 -46 -42
q3 -11 20 -24.5t37 -17.5l121 -36q46 -16 71.5 -42t25.5 -58zM124 287v-19q2 -19 19 -37.5t41 -26.5q7 0 110 -28q60 -23 76 -53v38q0 17 -17.5 34t-47.5 28l-121 31q-34 11 -60 33z" />
    <glyph glyph-name="t" unicode="t" horiz-adv-x="390" 
d="M281 38h11q52 6 73 48q2 8 11.5 10.5t18.5 0.5q16 -10 11 -29q-17 -33 -48 -53t-66 -20h-95q-55 0 -92 37.5t-37 90.5v268h-29q-8 0 -15 7t-7 15q0 22 22 22h29v151h-29q-8 0 -15 7t-7 15q0 22 22 22h147q22 0 22 -22v-173h113q22 0 22 -22q0 -8 -7 -15t-15 -7h-113v-268
q0 -32 20.5 -55.5t52.5 -29.5zM112 435h52v151h-52v-151zM112 391v-268q0 -33 24 -57.5t57 -27.5q-29 35 -29 85v268h-52z" />
    <glyph glyph-name="u" unicode="u" horiz-adv-x="557" 
d="M483 44h28q8 0 15 -7t7 -15t-7 -14.5t-15 -6.5h-141q-8 0 -14.5 6.5t-6.5 14.5v18q-46 -39 -92 -39h-4h-3h-35q-59 0 -100.5 41.5t-41.5 100.5v250h-28q-8 0 -14.5 7t-6.5 15t6.5 14.5t14.5 6.5h141q8 0 14.5 -6.5t6.5 -14.5v-318q0 -22 14 -37.5t32 -15.5q40 0 68 29
t28 70v250h-28q-8 0 -15 7t-7 15t7 14.5t15 6.5h141q8 0 14.5 -6.5t6.5 -14.5v-371zM116 393v-250q0 -32 16.5 -56.5t43.5 -35.5q-11 22 -11 46v296h-49zM441 393h-50v-349h50v349z" />
    <glyph glyph-name="v" unicode="v" horiz-adv-x="531" 
d="M416 436h104q8 0 14.5 -6.5t6.5 -14.5q0 -22 -21 -22h-28l-155 -387q-4 -10 -18 -10h-107q-14 0 -18 10l-157 387h-26q-21 0 -21 22q0 8 6.5 14.5t14.5 6.5h204q8 0 15 -6.5t7 -14.5q0 -22 -22 -22h-32l133 -326l129 326h-29q-21 0 -21 22q0 8 6.5 14.5t14.5 6.5zM284 39
l-147 354h-54l147 -354h54z" />
    <glyph glyph-name="w" unicode="w" horiz-adv-x="814" 
d="M692 436h104q8 0 15 -7t7 -15t-7 -14.5t-15 -6.5h-29l-139 -383q-2 -5 -9.5 -9.5t-12.5 -4.5h-103q-10 0 -18 14l-79 211l-75 -211q-8 -14 -21 -14h-104q-11 0 -17 14l-143 383h-29q-8 0 -14.5 6.5t-6.5 14.5t6.5 15t14.5 7h203q8 0 15.5 -7t7.5 -15t-7.5 -14.5
t-15.5 -6.5h-28l114 -318l79 207l-42 111h-30q-8 0 -14.5 6.5t-6.5 14.5t7 15t14 7h204q8 0 15 -7t7 -15t-7 -14.5t-15 -6.5h-28l114 -318l118 318h-29q-8 0 -14.5 6.5t-6.5 14.5t6.5 15t14.5 7zM274 39l-128 354h-54l132 -354h50zM571 39l-128 354h-54l131 -354h51z" />
    <glyph glyph-name="x" unicode="x" horiz-adv-x="510" 
d="M466 44h28q9 0 15 -6t6 -16q0 -8 -6.5 -14.5t-14.5 -6.5h-219q-7 0 -14 6.5t-7 14.5q0 10 6.5 16t14.5 6h28l-84 116l-99 -116h28q9 0 15 -6t6 -16q0 -8 -6.5 -14.5t-14.5 -6.5h-113q-8 0 -14.5 6.5t-6.5 14.5q0 10 6 16t15 6h28l131 151l-145 198h-28q-8 0 -14.5 6.5
t-6.5 14.5q0 10 6 16t15 6h215q9 0 15 -6t6 -16q0 -8 -6.5 -14.5t-14.5 -6.5h-21l71 -95l81 95h-28q-8 0 -15 6.5t-7 14.5q0 10 6.5 16t15.5 6h113q8 0 14.5 -6t6.5 -16q0 -8 -6.5 -14.5t-14.5 -6.5h-29l-113 -131zM222 227l32 35l-92 131h-60zM413 44l-131 183l-35 -35
l109 -148h57z" />
    <glyph glyph-name="y" unicode="y" horiz-adv-x="543" 
d="M422 436h107q23 0 23 -22q0 -8 -7 -15t-16 -7h-28l-240 -597q-17 -41 -52.5 -65t-77.5 -24q-14 0 -21 1q-26 3 -44 22.5t-18 46.5q0 29 21 49.5t50 20.5q14 0 21 -3l36 -18q16 -9 32 -2.5t26 26.5l8 17l-215 526h-27q-8 0 -15 7t-7 15q0 22 22 22h214q20 0 20 -22
q0 -8 -6 -15t-14 -7h-34l137 -334l133 334h-28q-10 0 -16.5 7t-6.5 15q0 22 23 22zM296 0l-165 392h-56l190 -465zM141 -250q32 5 53 27q-16 0 -33 6q-6 3 -12.5 6.5t-10.5 5.5l-7 3.5l-5 2.5t-3 1q-6 3 -11 3q-11 0 -18.5 -7.5t-7.5 -18.5q0 -12 7 -18l13 -8q10 -5 35 -3z
" />
    <glyph glyph-name="z" unicode="z" horiz-adv-x="490" 
d="M418 44v27q0 8 7 14.5t15 6.5t14.5 -6.5t6.5 -14.5v-48q0 -8 -6.5 -15.5t-14.5 -7.5h-384q-13 0 -18 12q-2 4 -2 11t2 10l252 361h-209v-29q0 -8 -6.5 -14.5t-14.5 -6.5q-7 0 -14 6.5t-7 14.5v50q0 8 7 14.5t14 6.5h381q13 0 17.5 -10.5t-3.5 -21.5l-247 -360h210z
M155 44l244 350h-61l-244 -350h61z" />
    <glyph glyph-name="braceleft" unicode="{" horiz-adv-x="296" 
d="M175 115v-205q0 -84 27 -109q17 -17 62 -17q10 0 16 -6.5t6 -15.5t-6 -15.5t-16 -6.5q-63 0 -93 30q-40 39 -40 140q0 36 0.5 73.5t0.5 58v41.5t-0.5 31t-1 20.5t-3 16t-5.5 10t-8 10.5q-20 20 -58 20q-9 0 -15.5 6.5t-6.5 15.5t6.5 15.5t15.5 6.5q38 0 58 20q5 5 8 10
t5.5 10.5t3 16l1 21t0.5 31.5v41t-0.5 57t-0.5 73q0 101 40 141q30 30 93 30q10 0 16 -6.5t6 -15.5t-6 -15.5t-16 -6.5q-45 0 -62 -17q-27 -27 -27 -110v-205q1 -6 0 -17.5t-8 -32t-21 -35.5q-4 -4 -14 -12q10 -8 14 -13q14 -14 21 -34.5t8 -32t0 -18.5z" />
    <glyph glyph-name="bar" unicode="|" horiz-adv-x="247" 
d="M101 728v-956q0 -10 6.5 -16.5t16.5 -6.5q9 0 15.5 6.5t6.5 16.5v956q0 9 -6.5 15.5t-15.5 6.5q-10 0 -16.5 -6.5t-6.5 -15.5z" />
    <glyph glyph-name="braceright" unicode="}" horiz-adv-x="296" 
d="M121 115v-205q0 -83 -27 -110q-17 -17 -62 -17q-9 0 -15.5 -6t-6.5 -16q0 -9 6.5 -15.5t15.5 -6.5q63 0 93 30q40 40 40 141v207q0 35 18 53q17 20 57 20q10 0 16 6.5t6 15.5t-6 15.5t-16 6.5q-39 0 -57 20q-18 19 -18 53v208q0 101 -40 141q-29 29 -93 29
q-9 0 -15.5 -6.5t-6.5 -15.5t6.5 -15.5t15.5 -6.5q45 0 62 -17q27 -26 27 -109v-205q0 -53 29 -85q4 -5 14 -13q-5 -3 -14 -12q-29 -32 -29 -85z" />
    <glyph glyph-name="asciitilde" unicode="~" horiz-adv-x="629" 
d="M319 202l6 -2q96 -40 147 -40q11 0 17 1q39 3 72 24q29 18 49 46q11 18 -6 30q-18 13 -31 -5q-30 -46 -88 -51q-43 -5 -143 35l-7 3q-1 0 -1 1q-5 1 -23 8q-97 35 -148 30q-74 -6 -141 -78q-15 -17 1 -31q16 -16 31 1q54 59 113 65q44 3 129 -29q5 -1 23 -8z" />
    <glyph glyph-name="uni00A0" unicode="&#xa0;" horiz-adv-x="278" 
 />
    <glyph glyph-name="exclamdown" unicode="&#xa1;" horiz-adv-x="399" 
d="M200 293q-30 0 -51 21t-21 50q0 30 21 51t51 21q29 0 50 -21t21 -51q0 -29 -21 -50t-50 -21zM200 394q-13 0 -21.5 -8.5t-8.5 -21.5q0 -12 8.5 -20.5t21.5 -8.5q12 0 20.5 8.5t8.5 20.5q0 13 -8.5 21.5t-20.5 8.5zM126 -251q-26 30 -21 64q6 58 73 413q4 18 22 18t22 -18
q63 -335 72 -413q5 -34 -21 -64q-31 -34 -73 -34q-45 0 -74 34zM149 -193q-2 -14 11 -28q16 -19 40 -19q22 0 39 19q13 14 11 28q-3 23 -50 287q-45 -240 -51 -287z" />
    <glyph glyph-name="cent" unicode="&#xa2;" horiz-adv-x="524" 
d="M287 36h6q39 0 75.5 17.5t55.5 47.5q13 17 31 5q15 -15 6 -31q-28 -37 -74 -59.5t-94 -22.5h-6q-84 2 -146 60l-43 -51q-8 -8 -17 -8q-7 0 -14 5q-17 15 -3 31l47 56q-43 59 -43 132q0 81 50.5 142t127.5 78q41 11 85 0q27 -4 59 -20l35 41q15 17 31 3t3 -31l-31 -37
q22 -19 33 -34q9 -16 -6 -31q-18 -12 -31 5q-7 12 -24 27l-194 -231v-72q38 -21 81 -22zM362 384l-24 9q-53 16 -84 -1q-48 -25 -48 -76v-117zM163 148v168q0 11 4 33q-55 -52 -55 -131q0 -54 28 -98z" />
    <glyph glyph-name="sterling" unicode="&#xa3;" horiz-adv-x="609" 
d="M442 47h3q19 0 33 13.5t14 32.5q0 18 -14 31.5t-33 13.5q-9 0 -15.5 6.5t-6.5 15.5q0 8 6.5 14.5t15.5 6.5q36 0 64 -26q27 -27 27 -62q0 -37 -26.5 -63t-64.5 -26h-3q-24 0 -47 10.5t-36 20t-35 29.5q-43 37 -65 48q1 -8 1 -24q0 -33 -26 -59q-27 -29 -65 -29
q-37 0 -64 26t-27 62q0 37 28 63t63 26q21 0 37 -3q-12 59 -44 173l-9 33h-58q-9 0 -15.5 6.5t-6.5 14.5q0 9 6.5 15.5t15.5 6.5h46q-22 83 -22 119q0 74 55 129q56 54 133 54q78 0 133.5 -53.5t55.5 -129.5v-34q0 -9 -6.5 -15t-15.5 -6t-15.5 6t-6.5 15v34q0 58 -42.5 99
t-102.5 41q-58 0 -102 -41q-42 -42 -42 -99q0 -31 23 -119h135q9 0 15.5 -6.5t6.5 -15.5q0 -8 -6.5 -14.5t-15.5 -6.5h-123l6 -22q35 -117 49 -196q43 -16 101 -67q19 -17 29.5 -25.5t26.5 -15.5t32 -7zM169 43q18 0 32.5 14.5t14.5 30.5q0 20 -3 41q-22 5 -44 5
q-19 0 -33 -13.5t-14 -32.5t13.5 -32t33.5 -13z" />
    <glyph glyph-name="yen" unicode="&#xa5;" horiz-adv-x="833" 
d="M616 722h200q9 0 15.5 -6.5t6.5 -15.5t-6.5 -15.5t-15.5 -6.5h-75l-200 -248h108q9 0 15.5 -6.5t6.5 -15.5t-6.5 -15.5t-15.5 -6.5h-140v-79h140q9 0 15.5 -6.5t6.5 -15.5t-6.5 -15.5t-15.5 -6.5h-140v-219h72q9 0 15.5 -6.5t6.5 -15.5t-6.5 -15.5t-15.5 -6.5h-337
q-9 0 -15.5 6.5t-6.5 15.5t6.5 15.5t15.5 6.5h74v219h-134q-9 0 -15.5 6.5t-6.5 15.5t6.5 15.5t15.5 6.5h134v13l-43 66h-91q-9 0 -15.5 6.5t-6.5 15.5t6.5 15.5t15.5 6.5h63l-160 248h-70q-9 0 -15.5 6.5t-6.5 15.5t6.5 15.5t15.5 6.5h390q9 0 15.5 -6.5t6.5 -15.5
t-6.5 -15.5t-15.5 -6.5h-85l161 -248h2l199 248h-68q-9 0 -15.5 6.5t-6.5 15.5t6.5 15.5t15.5 6.5zM299 430h132l-161 248h-131zM459 386h-132l31 -48q4 -4 4 -12v-19h103v70zM465 263h-103v-219h103v219z" />
    <glyph glyph-name="brokenbar" unicode="&#xa6;" horiz-adv-x="222" 
d="M91 652v-305q0 -9 6.5 -15.5t15.5 -6.5t15.5 6.5t6.5 15.5v305q0 9 -6.5 15.5t-15.5 6.5t-15.5 -6.5t-6.5 -15.5zM91 152v-305q0 -9 6.5 -15.5t15.5 -6.5t15.5 6.5t6.5 15.5v305q0 9 -6.5 15.5t-15.5 6.5t-15.5 -6.5t-6.5 -15.5z" />
    <glyph glyph-name="section" unicode="&#xa7;" horiz-adv-x="465" 
d="M409 163v-45q0 -14 -5 -29q-14 -38 -60 -62.5t-107 -26.5h-11q-80 0 -129 36v-14q0 -8 -6 -14t-15 -6q-8 0 -14 6t-6 14v103q0 9 6 15t14 6q9 0 15 -6t6 -15v-28q9 -23 47.5 -39.5t90.5 -14.5q29 0 58 9q42 21 40 39q-1 11 -17.5 24t-38.5 19l-109 31q-36 11 -61.5 41
t-26.5 63v53q0 62 56 95q-54 36 -56 89v43q-1 50 44 85.5t111 37.5q62 3 110 -26v5q0 9 6 15t14 6q9 0 15 -6t6 -15v-84q0 -8 -6 -14t-15 -6q-8 0 -14 6t-6 14v25q-36 41 -108 38q-31 -2 -55 -12q-48 -22 -46 -42q1 -11 17.5 -24t37.5 -18l1 -1l120 -35h1q43 -14 68.5 -40.5
t26.5 -57.5v-61q0 -62 -56 -95q55 -33 57 -81zM122 522v-15q1 -19 18.5 -38.5t39.5 -25.5l186 -54v10q-1 17 -19 33t-47 26l-120 35q-33 8 -58 29zM366 345l-175 50q-69 -15 -69 -73v-8l174 -48q70 16 70 73v6zM300 221l-178 49q1 -19 18.5 -38.5t39.5 -25.5l5 -2
q5 -1 33 -9t71 -20q54 -15 77 -52v39q-1 17 -19 33t-47 26z" />
    <glyph glyph-name="dieresis" unicode="&#xa8;" horiz-adv-x="301" 
d="M57 593q23 0 39.5 16.5t16.5 40.5q0 23 -16.5 39.5t-39.5 16.5q-24 0 -40.5 -16.5t-16.5 -39.5q0 -24 16.5 -40.5t40.5 -16.5zM244 593q23 0 39.5 16.5t16.5 40.5q0 23 -16.5 39.5t-39.5 16.5q-24 0 -40.5 -16.5t-16.5 -39.5q0 -24 16.5 -40.5t40.5 -16.5zM57 663
q13 0 13 -13t-13 -13t-13 13t13 13zM244 663q13 0 13 -13t-13 -13t-13 13t13 13z" />
    <glyph glyph-name="copyright" unicode="&#xa9;" horiz-adv-x="860" 
d="M785 512q30 -72 30 -150t-30 -150q-31 -72 -83 -122q-50 -52 -122 -83q-72 -30 -150 -30t-150 30q-72 31 -122 83q-52 50 -83 122q-30 72 -30 150t30 150q31 72 83 122q50 52 122 83q72 30 150 30t150 -30q72 -31 122 -83q52 -50 83 -122zM671 121q100 98 100 241
t-100 241q-98 100 -241 100t-241 -100q-100 -98 -100 -241t100 -241q98 -100 241 -100t241 100zM550 557v10q0 9 6.5 15.5t15.5 6.5t15.5 -6.5t6.5 -15.5v-101q0 -9 -6.5 -15.5t-15.5 -6.5t-15.5 6.5t-6.5 15.5v37q-10 8 -15 11q-46 32 -103 32q-35 0 -59 -24.5t-23 -58.5
v-262q38 -20 82 -20q57 0 103 32l15 12v32q0 9 6.5 15.5t15.5 6.5t15.5 -6.5t6.5 -15.5v-101q0 -9 -6.5 -15.5t-15.5 -6.5t-15.5 6.5t-6.5 15.5v15q-54 -34 -118 -34q-93 0 -160 67q-67 65 -67 160q0 93 67 160q66 66 160 66q66 0 118 -33zM305 232v231q0 19 6 37
q-62 -54 -62 -136q0 -78 56 -132z" />
    <glyph glyph-name="guillemotleft" unicode="&#xab;" horiz-adv-x="389" 
d="M112 216l74 -100q9 -13 -3 -23t-23 1l-94 100q-11 11 -11 23q0 11 10 21l95 101q12 12 23 1q12 -10 3 -23zM252 216l74 -100q9 -13 -3 -23t-23 1l-94 100q-11 11 -11 23q0 11 10 21l95 101q12 12 23 1q12 -10 3 -23z" />
    <glyph glyph-name="FL00ADh" unicode="&#xad;" horiz-adv-x="352" 
d="M102 197h148q9 0 15.5 6.5t6.5 15.5t-6.5 15.5t-15.5 6.5h-148q-9 0 -15.5 -6.5t-6.5 -15.5t6.5 -15.5t15.5 -6.5z" />
    <glyph glyph-name="registered" unicode="&#xae;" horiz-adv-x="575" 
d="M455 651q70 -70 70 -168q0 -99 -70 -167q-70 -70 -168 -70q-99 0 -167 70q-70 68 -70 167q0 98 70 168q68 70 167 70q98 0 168 -70zM287 290q80 0 137 56.5t57 136.5t-57 137t-137 57t-136.5 -57t-56.5 -137q0 -79 57 -136t136 -57zM355 454l41 -68q4 -8 2 -16.5
t-10 -13.5q-6 -3 -11 -3q-13 0 -19 11l-47 79h-45v-48h15q9 0 15.5 -6.5t6.5 -15.5t-6.5 -15.5t-15.5 -6.5h-75q-9 0 -15.5 6.5t-6.5 15.5t6.5 15.5t15.5 6.5h16v48h-16q-9 0 -15.5 6.5t-6.5 15.5t6.5 15.5t15.5 6.5h16v80h-16q-9 0 -15.5 6.5t-6.5 15.5t6.5 15.5t15.5 6.5
h111q31 0 50 -21q21 -20 21 -50v-26q0 -31 -21 -50q-4 -5 -12 -10zM266 487h51q11 0 19 8t8 19v26q0 11 -8 19t-19 8h-51v-80z" />
    <glyph glyph-name="macron" unicode="&#xaf;" horiz-adv-x="261" 
d="M22 596h217q9 0 15.5 6.5t6.5 15.5t-6.5 15.5t-15.5 6.5h-217q-9 0 -15.5 -6.5t-6.5 -15.5t6.5 -15.5t15.5 -6.5z" />
    <glyph glyph-name="degree" unicode="&#xb0;" horiz-adv-x="421" 
d="M211 430q60 0 102.5 42.5t42.5 103.5q0 60 -42.5 102.5t-102.5 42.5q-61 0 -103.5 -42.5t-42.5 -102.5q0 -61 42.5 -103.5t103.5 -42.5zM211 677q41 0 71 -29.5t30 -71.5t-30 -72t-71 -30q-42 0 -72 30t-30 72t30 71.5t72 29.5z" />
    <glyph glyph-name="plusminus" unicode="&#xb1;" horiz-adv-x="533" 
d="M289 317h167q9 0 15.5 -6.5t6.5 -15.5t-6.5 -15.5t-15.5 -6.5h-167v-167q0 -9 -6.5 -15.5t-15.5 -6.5t-15.5 6.5t-6.5 15.5v167h-167q-9 0 -15.5 6.5t-6.5 15.5t6.5 15.5t15.5 6.5h167v167q0 9 6.5 15.5t15.5 6.5t15.5 -6.5t6.5 -15.5v-167zM78 0h378q9 0 15.5 6.5
t6.5 16.5q0 9 -6.5 15.5t-15.5 6.5h-378q-10 0 -16.5 -6.5t-6.5 -15.5q0 -10 6.5 -16.5t16.5 -6.5z" />
    <glyph glyph-name="acute" unicode="&#xb4;" horiz-adv-x="299" 
d="M298 631l-175 -81q-16 -7 -25 9q-7 16 7 25l167 99q5 5 18.5 2t19.5 -15q6 -13 1.5 -24.5t-13.5 -14.5z" />
    <glyph glyph-name="mu" unicode="&#xb5;" horiz-adv-x="559" 
d="M485 44h28q8 0 15 -7t7 -15t-7 -14.5t-15 -6.5h-141q-8 0 -14.5 6.5t-6.5 14.5v18q-46 -39 -92 -39h-1q-23 0 -49 12v-268h30q9 0 15.5 -6.5t6.5 -15.5t-6.5 -15.5t-15.5 -6.5h-142q-9 0 -15.5 6.5t-6.5 15.5v669h-29q-9 0 -15.5 6.5t-6.5 15.5t6.5 15.5t15.5 6.5h141
q9 0 15 -6q7 -7 7 -16v-353q22 -15 49 -17h1q39 1 65.5 30.5t26.5 68.5v250h-28q-8 0 -15 7t-7 15t7 14.5t15 6.5h141q8 0 14.5 -6.5t6.5 -14.5v-371zM443 393h-50v-349h50v349zM165 -255v647h-46v-647h46z" />
    <glyph glyph-name="paragraph" unicode="&#xb6;" horiz-adv-x="730" 
d="M436 724h248q9 0 15.5 -6.5t6.5 -15.5q0 -10 -6.5 -16t-15.5 -6h-66v-880q0 -10 -6.5 -16t-15.5 -6t-15.5 6t-6.5 16v880h-116v-880q0 -10 -6.5 -16t-15.5 -6t-15.5 6t-6.5 16v483q-17 -19 -44 -38q-54 -34 -116 -34q-95 0 -164 75q-66 74 -66 180q0 105 66 179
q67 75 164 75q94 0 160 -71v53q0 9 6.5 15.5t15.5 6.5zM173 654v-303q0 -41 25 -69q24 -27 58 -27q47 0 90 27q42 27 67 74l1 1v1v219q-3 2 -5 5q-26 44 -67 69t-88 25q-45 0 -81 -22zM127 351v269q-59 -64 -59 -154q0 -102 69 -164q-7 20 -10 49z" />
    <glyph glyph-name="periodcentered" unicode="&#xb7;" horiz-adv-x="275" 
d="M138 207q23 0 39.5 16.5t16.5 40.5q0 23 -16.5 39.5t-39.5 16.5q-24 0 -40.5 -16.5t-16.5 -39.5q0 -24 16.5 -40.5t40.5 -16.5zM138 277q13 0 13 -13t-13 -13t-13 13t13 13z" />
    <glyph glyph-name="cedilla" unicode="&#xb8;" horiz-adv-x="199" 
d="M134 0l-20 -43q-5 -11 2 -21t18 -10q13 0 13 -13q0 -12 -13 -12q-4 0 -9 3q-15 16 -31 0q-6 -6 -6 -15t6 -16q16 -16 40 -16t40.5 16.5t16.5 39.5q0 32 -26 48l9 21q9 20 -11 29t-29 -11z" />
    <glyph glyph-name="guillemotright" unicode="&#xbb;" horiz-adv-x="394" 
d="M137 217l-74 101q-9 13 3 23q11 11 23 -1l95 -101q10 -10 10 -21q0 -12 -11 -23l-94 -100q-11 -11 -23 -1t-3 23zM277 217l-74 101q-9 13 3 23q11 11 23 -1l95 -101q10 -10 10 -21q0 -12 -11 -23l-94 -100q-11 -11 -23 -1t-3 23z" />
    <glyph glyph-name="questiondown" unicode="&#xbf;" horiz-adv-x="455" 
d="M225 293q-30 0 -51 21t-21 50q0 30 21 51t51 21q29 0 50 -21t21 -51q0 -29 -21 -50t-50 -21zM225 394q-13 0 -21.5 -8.5t-8.5 -21.5q0 -12 8.5 -20.5t21.5 -8.5q12 0 20.5 8.5t8.5 20.5q0 13 -8.5 21.5t-20.5 8.5zM250 -299h-38q-66 0 -113 41q-48 43 -48 104
q0 72 62 125q26 22 34 40.5t8 50.5v140q0 9 6 15t15 6h94q9 0 15.5 -6t6.5 -15v-140q0 -40 -32 -67q-17 -15 -61 -36q-14 -7 -42 -23q-63 -39 -63 -90q0 -42 34.5 -72t83.5 -30h6q17 1 26 14t8 29v40q0 25 18.5 42.5t45.5 17.5q26 0 45 -18t19 -43q0 -50 -38 -88
q-40 -37 -92 -37zM198 180v-118q0 -37 -9 -61q33 17 46.5 29.5t13.5 31.5v118h-51zM296 -173v-39q0 -18 -6 -34q47 24 47 72q0 8 -6 13t-15 5t-15 -5t-5 -12z" />
    <glyph glyph-name="Agrave" unicode="&#xc0;" horiz-adv-x="855" 
d="M336 861l175 -81q7 -3 14.5 -0.5t10.5 9.5q9 15 -7 25l-167 99q-5 5 -18.5 2t-19.5 -15q-5 -13 -0.5 -24t12.5 -15zM741 44h91q9 0 15.5 -6.5t6.5 -15.5t-6.5 -15.5t-15.5 -6.5h-368q-9 0 -15.5 6.5t-6.5 15.5t6.5 15.5t15.5 6.5h68l-69 161h-236l-69 -161h70
q9 0 15.5 -6.5t6.5 -15.5t-6.5 -15.5t-15.5 -6.5h-205q-9 0 -15.5 6.5t-6.5 15.5t6.5 15.5t15.5 6.5h87l292 680q7 15 24 15q16 0 23 -15zM369 535l123 -286h113l-179 418zM444 249l-99 230l-99 -230h198zM580 44h113l-69 161h-113z" />
    <glyph glyph-name="Aacute" unicode="&#xc1;" horiz-adv-x="855" 
d="M519 889l-175 -81q-16 -7 -25 9q-7 16 7 25l167 99q5 5 18.5 2t19.5 -15q6 -13 1.5 -24.5t-13.5 -14.5zM741 44h91q9 0 15.5 -6.5t6.5 -15.5t-6.5 -15.5t-15.5 -6.5h-368q-9 0 -15.5 6.5t-6.5 15.5t6.5 15.5t15.5 6.5h68l-69 161h-236l-69 -161h70q9 0 15.5 -6.5
t6.5 -15.5t-6.5 -15.5t-15.5 -6.5h-205q-9 0 -15.5 6.5t-6.5 15.5t6.5 15.5t15.5 6.5h87l292 680q7 15 24 15q16 0 23 -15zM369 535l123 -286h113l-179 418zM444 249l-99 230l-99 -230h198zM580 44h113l-69 161h-113z" />
    <glyph glyph-name="Acircumflex" unicode="&#xc2;" horiz-adv-x="855" 
d="M445 901l104 -98q12 -12 1 -23q-10 -12 -23 -3l-101 74l-100 -74q-13 -9 -23 3t1 23l106 100q9 9 26 4l6 -4h1q0 -2 2 -2zM741 44h91q9 0 15.5 -6.5t6.5 -15.5t-6.5 -15.5t-15.5 -6.5h-368q-9 0 -15.5 6.5t-6.5 15.5t6.5 15.5t15.5 6.5h68l-69 161h-236l-69 -161h70
q9 0 15.5 -6.5t6.5 -15.5t-6.5 -15.5t-15.5 -6.5h-205q-9 0 -15.5 6.5t-6.5 15.5t6.5 15.5t15.5 6.5h87l292 680q7 15 24 15q16 0 23 -15zM369 535l123 -286h113l-179 418zM444 249l-99 230l-99 -230h198zM580 44h113l-69 161h-113z" />
    <glyph glyph-name="Atilde" unicode="&#xc3;" horiz-adv-x="855" 
d="M497 797h8q40 5 62 36q5 8 3.5 17t-9.5 14q-17 12 -30 -6q-15 -15 -30 -17q-15 -1 -57 15l-3 1l-1 1l-9 3q-48 17 -71 14q-37 -3 -69 -38q-15 -17 1 -31q17 -15 31 1q23 23 41 24q15 2 52 -11q2 0 5 -2t4 -2l3 -1q44 -18 69 -18zM741 44h91q9 0 15.5 -6.5t6.5 -15.5
t-6.5 -15.5t-15.5 -6.5h-368q-9 0 -15.5 6.5t-6.5 15.5t6.5 15.5t15.5 6.5h68l-69 161h-236l-69 -161h70q9 0 15.5 -6.5t6.5 -15.5t-6.5 -15.5t-15.5 -6.5h-205q-9 0 -15.5 6.5t-6.5 15.5t6.5 15.5t15.5 6.5h87l292 680q7 15 24 15q16 0 23 -15zM369 535l123 -286h113
l-179 418zM444 249l-99 230l-99 -230h198zM580 44h113l-69 161h-113z" />
    <glyph glyph-name="Adieresis" unicode="&#xc4;" horiz-adv-x="855" 
d="M327 790q23 0 39.5 16.5t16.5 40.5q0 23 -16.5 39.5t-39.5 16.5q-24 0 -40.5 -16.5t-16.5 -39.5q0 -24 16.5 -40.5t40.5 -16.5zM514 790q23 0 39.5 16.5t16.5 40.5q0 23 -16.5 39.5t-39.5 16.5q-24 0 -40.5 -16.5t-16.5 -39.5q0 -24 16.5 -40.5t40.5 -16.5zM327 860
q13 0 13 -13t-13 -13t-13 13t13 13zM514 860q13 0 13 -13t-13 -13t-13 13t13 13zM741 44h91q9 0 15.5 -6.5t6.5 -15.5t-6.5 -15.5t-15.5 -6.5h-368q-9 0 -15.5 6.5t-6.5 15.5t6.5 15.5t15.5 6.5h68l-69 161h-236l-69 -161h70q9 0 15.5 -6.5t6.5 -15.5t-6.5 -15.5t-15.5 -6.5
h-205q-9 0 -15.5 6.5t-6.5 15.5t6.5 15.5t15.5 6.5h87l292 680q7 15 24 15q16 0 23 -15zM369 535l123 -286h113l-179 418zM444 249l-99 230l-99 -230h198zM580 44h113l-69 161h-113z" />
    <glyph glyph-name="Aring" unicode="&#xc5;" horiz-adv-x="855" 
d="M425 778q34 0 58 24t24 58t-24 58t-58 24t-58 -24t-24 -58t24 -58t58 -24zM425 898q16 0 27 -11t11 -27t-11 -27t-27 -11t-27 11t-11 27t11 27t27 11zM741 44h91q9 0 15.5 -6.5t6.5 -15.5t-6.5 -15.5t-15.5 -6.5h-368q-9 0 -15.5 6.5t-6.5 15.5t6.5 15.5t15.5 6.5h68
l-69 161h-236l-69 -161h70q9 0 15.5 -6.5t6.5 -15.5t-6.5 -15.5t-15.5 -6.5h-205q-9 0 -15.5 6.5t-6.5 15.5t6.5 15.5t15.5 6.5h87l292 680q7 15 24 15q16 0 23 -15zM369 535l123 -286h113l-179 418zM444 249l-99 230l-99 -230h198zM580 44h113l-69 161h-113z" />
    <glyph glyph-name="AE" unicode="&#xc6;" horiz-adv-x="1113" 
d="M1046 700v-91q0 -9 -6.5 -15.5t-15.5 -6.5t-15.5 6.5t-6.5 15.5v69h-249v-373h104v71q0 9 6.5 15.5t15.5 6.5t15.5 -6.5t6.5 -15.5v-184q0 -9 -6.5 -15.5t-15.5 -6.5t-15.5 6.5t-6.5 15.5v69h-104v-217h249v69q0 9 6.5 15.5t15.5 6.5t15.5 -6.5t6.5 -15.5v-91
q0 -9 -6.5 -15.5t-15.5 -6.5h-536q-9 0 -15.5 6.5t-6.5 15.5t6.5 15.5t15.5 6.5h73v218h-269l-158 -218h84q9 0 15.5 -6.5t6.5 -15.5t-6.5 -15.5t-15.5 -6.5h-205q-9 0 -15.5 6.5t-6.5 15.5t6.5 15.5t15.5 6.5h66l461 634h-52q-9 0 -15.5 6.5t-6.5 15.5t6.5 15.5t15.5 6.5
h536q9 0 15.5 -6.5t6.5 -15.5zM709 678h-104v-372h39v-1h65v373zM561 306v326l-237 -326h237zM709 261h-104v-217h104v217z" />
    <glyph glyph-name="Ccedilla" unicode="&#xc7;" horiz-adv-x="737" 
d="M696 701v-166q0 -9 -6 -15.5t-16 -6.5q-9 0 -15.5 6.5t-6.5 15.5v58q-11 11 -35 29q-81 55 -180 55h-1q-62 0 -106 -44.5t-43 -107.5v-443q71 -37 150 -37q99 0 180 55q9 7 34 27q0 1 0.5 1t0.5 1v59q0 9 6.5 15.5t15.5 6.5q10 0 16 -6.5t6 -15.5v-166q0 -9 -6 -15.5
t-16 -6.5q-9 0 -15.5 6.5t-6.5 15.5v50q-2 -2 -5 -4.5t-5 -3.5q-85 -57 -183 -63h-1l-9 -20q26 -16 26 -48q0 -24 -16.5 -40.5t-39.5 -16.5q-24 0 -41 17q-6 6 -6 15t6 16q16 14 32 0q3 -4 9 -4q12 0 12 13t-12 13q-13 0 -19 10q-7 10 -1 21l12 25q-59 3 -114 27
q-64 27 -114 77q-50 49 -78 115q-28 68 -28 140t28 140q28 66 78 115q50 50 114 77q65 28 139 28h1q113 0 205 -63q6 -4 10 -8v51q0 9 6.5 15.5t15.5 6.5q10 0 16 -6.5t6 -15.5zM243 111v414q-1 58 30 107q-31 -20 -59 -47q-93 -93 -93 -224t93 -224q14 -14 29 -26z" />
    <glyph glyph-name="Egrave" unicode="&#xc8;" horiz-adv-x="734" 
d="M277 889l175 -81q16 -7 25 9q7 16 -7 25l-167 99q-5 5 -18.5 2t-19.5 -15q-6 -13 -1.5 -24.5t13.5 -14.5zM670 700v-91q0 -9 -6.5 -15.5t-15.5 -6.5t-15.5 6.5t-6.5 15.5v69h-309v-373h144v71q0 9 6.5 15.5t15.5 6.5t15.5 -6.5t6.5 -15.5v-184q0 -9 -6.5 -15.5
t-15.5 -6.5t-15.5 6.5t-6.5 15.5v69h-144v-217h309v69q0 9 6.5 15.5t15.5 6.5t15.5 -6.5t6.5 -15.5v-91q0 -9 -6.5 -15.5t-15.5 -6.5h-596q-9 0 -15.5 6.5t-6.5 15.5t6.5 15.5t15.5 6.5h73v634h-73q-9 0 -15.5 6.5t-6.5 15.5t6.5 15.5t15.5 6.5h596q9 0 15.5 -6.5t6.5 -15.5
zM273 678h-104v-373h104v373zM273 261h-104v-217h104v217z" />
    <glyph glyph-name="Eacute" unicode="&#xc9;" horiz-adv-x="734" 
d="M464 854l-175 -81q-16 -7 -25 9q-7 16 7 25l167 99q5 5 18.5 2t19.5 -15q6 -13 1.5 -24.5t-13.5 -14.5zM670 700v-91q0 -9 -6.5 -15.5t-15.5 -6.5t-15.5 6.5t-6.5 15.5v69h-309v-295h144v71q0 9 6.5 15.5t15.5 6.5t15.5 -6.5t6.5 -15.5v-86q1 -3 1 -7t-1 -7v-84
q0 -9 -6.5 -15.5t-15.5 -6.5t-15.5 6.5t-6.5 15.5v69h-144v-295h309v69q0 9 6.5 15.5t15.5 6.5t15.5 -6.5t6.5 -15.5v-91q0 -9 -6.5 -15.5t-15.5 -6.5h-596q-9 0 -15.5 6.5t-6.5 15.5t6.5 15.5t15.5 6.5h73v634h-73q-9 0 -15.5 6.5t-6.5 15.5t6.5 15.5t15.5 6.5h596
q9 0 15.5 -6.5t6.5 -15.5zM273 678h-104v-295h104v295zM273 339h-104v-295h104v295z" />
    <glyph glyph-name="Ecircumflex" unicode="&#xca;" horiz-adv-x="734" 
d="M393 901l104 -98q12 -12 1 -23q-10 -12 -23 -3l-101 74l-100 -74q-13 -9 -23 3t1 23l106 100q9 9 26 4l6 -4h1q0 -2 2 -2zM670 700v-91q0 -9 -6.5 -15.5t-15.5 -6.5t-15.5 6.5t-6.5 15.5v69h-309v-373h144v71q0 9 6.5 15.5t15.5 6.5t15.5 -6.5t6.5 -15.5v-184
q0 -9 -6.5 -15.5t-15.5 -6.5t-15.5 6.5t-6.5 15.5v69h-144v-217h309v69q0 9 6.5 15.5t15.5 6.5t15.5 -6.5t6.5 -15.5v-91q0 -9 -6.5 -15.5t-15.5 -6.5h-596q-9 0 -15.5 6.5t-6.5 15.5t6.5 15.5t15.5 6.5h73v634h-73q-9 0 -15.5 6.5t-6.5 15.5t6.5 15.5t15.5 6.5h596
q9 0 15.5 -6.5t6.5 -15.5zM273 678h-104v-373h104v373zM273 261h-104v-217h104v217z" />
    <glyph glyph-name="Edieresis" unicode="&#xcb;" horiz-adv-x="734" 
d="M276 790q23 0 39.5 16.5t16.5 40.5q0 23 -16.5 39.5t-39.5 16.5q-24 0 -40.5 -16.5t-16.5 -39.5q0 -24 16.5 -40.5t40.5 -16.5zM463 790q23 0 39.5 16.5t16.5 40.5q0 23 -16.5 39.5t-39.5 16.5q-24 0 -40.5 -16.5t-16.5 -39.5q0 -24 16.5 -40.5t40.5 -16.5zM276 860
q13 0 13 -13t-13 -13t-13 13t13 13zM463 860q13 0 13 -13t-13 -13t-13 13t13 13zM670 700v-91q0 -9 -6.5 -15.5t-15.5 -6.5t-15.5 6.5t-6.5 15.5v69h-309v-373h144v71q0 9 6.5 15.5t15.5 6.5t15.5 -6.5t6.5 -15.5v-184q0 -9 -6.5 -15.5t-15.5 -6.5t-15.5 6.5t-6.5 15.5v69
h-144v-217h309v69q0 9 6.5 15.5t15.5 6.5t15.5 -6.5t6.5 -15.5v-91q0 -9 -6.5 -15.5t-15.5 -6.5h-596q-9 0 -15.5 6.5t-6.5 15.5t6.5 15.5t15.5 6.5h73v634h-73q-9 0 -15.5 6.5t-6.5 15.5t6.5 15.5t15.5 6.5h596q9 0 15.5 -6.5t6.5 -15.5zM273 678h-104v-373h104v373z
M273 261h-104v-217h104v217z" />
    <glyph glyph-name="Igrave" unicode="&#xcc;" horiz-adv-x="447" 
d="M133 861l175 -81q7 -3 14.5 -0.5t10.5 9.5q9 15 -7 25l-167 99q-5 5 -18.5 2t-19.5 -15q-5 -13 -0.5 -24t12.5 -15zM320 45h72q9 0 15.5 -6.5t6.5 -15.5q0 -10 -6.5 -16.5t-15.5 -6.5h-336q-10 0 -16.5 6.5t-6.5 16.5q0 9 6.5 15.5t16.5 6.5h75v630h-75q-10 0 -16.5 6.5
t-6.5 16.5q0 9 6.5 15.5t16.5 6.5h336q9 0 15.5 -6.5t6.5 -15.5q0 -10 -6.5 -16.5t-15.5 -6.5h-72v-630zM275 45v630h-99v-630h99z" />
    <glyph glyph-name="Iacute" unicode="&#xcd;" horiz-adv-x="447" 
d="M318 854l-175 -81q-16 -7 -25 9q-7 16 7 25l167 99q5 5 18.5 2t19.5 -15q6 -13 1.5 -24.5t-13.5 -14.5zM320 45h72q9 0 15.5 -6.5t6.5 -15.5q0 -10 -6.5 -16.5t-15.5 -6.5h-336q-10 0 -16.5 6.5t-6.5 16.5q0 9 6.5 15.5t16.5 6.5h75v630h-75q-10 0 -16.5 6.5t-6.5 16.5
q0 9 6.5 15.5t16.5 6.5h336q9 0 15.5 -6.5t6.5 -15.5q0 -10 -6.5 -16.5t-15.5 -6.5h-72v-630zM275 45v630h-99v-630h99z" />
    <glyph glyph-name="Icircumflex" unicode="&#xce;" horiz-adv-x="447" 
d="M248 901l104 -98q12 -12 1 -23q-10 -12 -23 -3l-101 74l-100 -74q-13 -9 -23 3t1 23l106 100q9 9 26 4l6 -4h1q0 -2 2 -2zM320 45h72q9 0 15.5 -6.5t6.5 -15.5q0 -10 -6.5 -16.5t-15.5 -6.5h-336q-10 0 -16.5 6.5t-6.5 16.5q0 9 6.5 15.5t16.5 6.5h75v630h-75
q-10 0 -16.5 6.5t-6.5 16.5q0 9 6.5 15.5t16.5 6.5h336q9 0 15.5 -6.5t6.5 -15.5q0 -10 -6.5 -16.5t-15.5 -6.5h-72v-630zM275 45v630h-99v-630h99z" />
    <glyph glyph-name="Idieresis" unicode="&#xcf;" horiz-adv-x="447" 
d="M130 790q23 0 39.5 16.5t16.5 40.5q0 23 -16.5 39.5t-39.5 16.5q-24 0 -40.5 -16.5t-16.5 -39.5q0 -24 16.5 -40.5t40.5 -16.5zM317 790q23 0 39.5 16.5t16.5 40.5q0 23 -16.5 39.5t-39.5 16.5q-24 0 -40.5 -16.5t-16.5 -39.5q0 -24 16.5 -40.5t40.5 -16.5zM130 860
q13 0 13 -13t-13 -13t-13 13t13 13zM317 860q13 0 13 -13t-13 -13t-13 13t13 13zM320 45h72q9 0 15.5 -6.5t6.5 -15.5q0 -10 -6.5 -16.5t-15.5 -6.5h-336q-10 0 -16.5 6.5t-6.5 16.5q0 9 6.5 15.5t16.5 6.5h75v630h-75q-10 0 -16.5 6.5t-6.5 16.5q0 9 6.5 15.5t16.5 6.5h336
q9 0 15.5 -6.5t6.5 -15.5q0 -10 -6.5 -16.5t-15.5 -6.5h-72v-630zM275 45v630h-99v-630h99z" />
    <glyph glyph-name="Eth" unicode="&#xd0;" horiz-adv-x="800" 
d="M430 722h111q75 0 128.5 -53.5t53.5 -129.5v-356q0 -76 -53.5 -129.5t-128.5 -53.5h-120h-2h-367q-9 0 -15.5 6.5t-6.5 15.5t6.5 15.5t15.5 6.5h73v218h-71q-10 0 -17 7t-7 17t7 17t17 7h71v368h-73q-9 0 -15.5 6.5t-6.5 15.5t6.5 15.5t15.5 6.5h369h9zM169 310h104v368
h-104v-368zM317 44h108q45 1 76 33.5t31 77.5v412q0 44 -29.5 76t-73.5 35h-112v-368h71q10 0 17 -7t7 -17t-7 -17t-17 -7h-71v-218zM680 183v356q0 58 -41 98.5t-98 40.5h-12q47 -45 47 -111v-412q0 -66 -47 -111h12q57 0 98 40.5t41 98.5zM273 44v218h-104v-218h104z" />
    <glyph glyph-name="Ntilde" unicode="&#xd1;" horiz-adv-x="844" 
d="M498 797h8q40 5 62 36q5 8 3.5 17t-9.5 14q-17 12 -30 -6q-15 -15 -30 -17q-15 -1 -57 15l-3 1l-1 1l-9 3q-48 17 -71 14q-37 -3 -69 -38q-15 -17 1 -31q17 -15 31 1q23 23 41 24q15 2 52 -11q1 0 4 -2t5 -2l3 -1q44 -18 69 -18zM615 726h186q9 0 15.5 -6.5t6.5 -15.5
q0 -10 -6.5 -16t-15.5 -6h-79v-660q0 -15 -14 -20q-4 -2 -8 -2q-9 0 -16 7l-527 531v-490h72q9 0 15.5 -6.5t6.5 -15.5q0 -10 -6.5 -16t-15.5 -6h-186q-9 0 -15.5 6t-6.5 16q0 9 6.5 15.5t15.5 6.5h70v634h-70q-9 0 -15.5 6t-6.5 16q0 9 6.5 15.5t15.5 6.5h191q15 0 21 -15
l423 -424v395h-63q-9 0 -15.5 6t-6.5 16q0 9 6.5 15.5t15.5 6.5zM157 601l521 -526v149l-456 458h-65v-81z" />
    <glyph glyph-name="Ograve" unicode="&#xd2;" horiz-adv-x="883" 
d="M346 861l175 -81q7 -3 14.5 -0.5t10.5 9.5q9 15 -7 25l-167 99q-5 5 -18.5 2t-19.5 -15q-5 -13 -0.5 -24t12.5 -15zM785 504q30 -69 30 -146q0 -76 -30 -145q-27 -66 -80 -119q-51 -51 -118 -80q-70 -29 -146 -29q-75 0 -145 29q-66 28 -119 80q-52 53 -80 119
q-29 70 -29 145q0 76 29 146q29 67 80 118q53 53 119 80q69 30 146 30q76 0 145 -30q67 -27 118 -80q53 -51 80 -118zM283 528v-459q72 -39 154 -40q64 0 111 45q46 46 46 111v466q-72 37 -153 37q-65 0 -111.5 -47t-46.5 -113zM239 98v430q0 63 35 114q-36 -21 -66 -51
q-96 -96 -96 -233q0 -135 96 -233zM638 623v-438q0 -62 -36 -114q39 21 72 54q97 99 97 233q0 136 -97 233q-8 8 -36 32z" />
    <glyph glyph-name="Oacute" unicode="&#xd3;" horiz-adv-x="883" 
d="M521 854l-175 -81q-16 -7 -25 9q-7 16 7 25l167 99q5 5 18.5 2t19.5 -15q6 -13 1.5 -24.5t-13.5 -14.5zM785 504q30 -69 30 -146q0 -76 -30 -145q-27 -66 -80 -119q-51 -51 -118 -80q-70 -29 -146 -29q-75 0 -145 29q-66 28 -119 80q-52 53 -80 119q-29 70 -29 145
q0 76 29 146q29 67 80 118q53 53 119 80q69 30 146 30q76 0 145 -30q67 -27 118 -80q53 -51 80 -118zM283 528v-459q72 -39 154 -40q64 0 111 45q46 46 46 111v466q-72 37 -153 37q-65 0 -111.5 -47t-46.5 -113zM239 98v430q0 63 35 114q-36 -21 -66 -51q-96 -96 -96 -233
q0 -135 96 -233zM638 623v-438q0 -62 -36 -114q39 21 72 54q97 99 97 233q0 136 -97 233q-8 8 -36 32z" />
    <glyph glyph-name="Ocircumflex" unicode="&#xd4;" horiz-adv-x="883" 
d="M458 901l104 -98q12 -12 1 -23q-10 -12 -23 -3l-101 74l-100 -74q-13 -9 -23 3t1 23l106 100q9 9 26 4l6 -4h1q0 -2 2 -2zM785 504q30 -69 30 -146q0 -76 -30 -145q-27 -66 -80 -119q-51 -51 -118 -80q-70 -29 -146 -29q-75 0 -145 29q-66 28 -119 80q-52 53 -80 119
q-29 70 -29 145q0 76 29 146q29 67 80 118q53 53 119 80q69 30 146 30q76 0 145 -30q67 -27 118 -80q53 -51 80 -118zM283 528v-459q72 -39 154 -40q64 0 111 45q46 46 46 111v466q-72 37 -153 37q-65 0 -111.5 -47t-46.5 -113zM239 98v430q0 63 35 114q-36 -21 -66 -51
q-96 -96 -96 -233q0 -135 96 -233zM638 623v-438q0 -62 -36 -114q39 21 72 54q97 99 97 233q0 136 -97 233q-8 8 -36 32z" />
    <glyph glyph-name="Otilde" unicode="&#xd5;" horiz-adv-x="883" 
d="M506 797h8q40 5 62 36q5 8 3.5 17t-9.5 14q-17 12 -30 -6q-15 -15 -30 -17q-15 -1 -57 15l-3 1l-1 1l-9 3q-48 17 -71 14q-37 -3 -69 -38q-15 -17 1 -31q17 -15 31 1q23 23 41 24q15 2 52 -11q2 0 5 -2t4 -2l3 -1q44 -18 69 -18zM785 505q30 -69 30 -146q0 -76 -30 -145
q-27 -66 -80 -119q-51 -51 -118 -80q-70 -29 -146 -29q-75 0 -145 29q-66 28 -119 80q-52 53 -80 119q-29 70 -29 145q0 76 29 146q29 67 80 118q53 53 119 80q69 30 146 30q76 0 145 -30q67 -27 118 -80q53 -51 80 -118zM283 529v-459q72 -39 154 -40q64 0 111 45
q46 46 46 111v466q-72 37 -153 37q-65 0 -111.5 -47t-46.5 -113zM239 99v430q0 63 35 114q-36 -21 -66 -51q-96 -96 -96 -233q0 -135 96 -233zM638 624v-438q0 -62 -36 -114q39 21 72 54q97 99 97 233q0 136 -97 233q-8 8 -36 32z" />
    <glyph glyph-name="Odieresis" unicode="&#xd6;" horiz-adv-x="883" 
d="M346 790q23 0 39.5 16.5t16.5 40.5q0 23 -16.5 39.5t-39.5 16.5q-24 0 -40.5 -16.5t-16.5 -39.5q0 -24 16.5 -40.5t40.5 -16.5zM533 790q23 0 39.5 16.5t16.5 40.5q0 23 -16.5 39.5t-39.5 16.5q-24 0 -40.5 -16.5t-16.5 -39.5q0 -24 16.5 -40.5t40.5 -16.5zM346 860
q13 0 13 -13t-13 -13t-13 13t13 13zM533 860q13 0 13 -13t-13 -13t-13 13t13 13zM785 519q30 -69 30 -146q0 -76 -30 -145q-27 -66 -80 -119q-51 -51 -118 -80q-70 -29 -146 -29q-75 0 -145 29q-66 28 -119 80q-52 53 -80 119q-29 70 -29 145q0 76 29 146q29 67 80 118
q53 53 119 80q69 30 146 30q76 0 145 -30q67 -27 118 -80q53 -51 80 -118zM283 543v-459q72 -39 154 -40q64 0 111 45q46 46 46 111v466q-72 37 -153 37q-65 0 -111.5 -47t-46.5 -113zM239 113v430q0 63 35 114q-36 -21 -66 -51q-96 -96 -96 -233q0 -135 96 -233zM638 638
v-438q0 -62 -36 -114q39 21 72 54q97 99 97 233q0 136 -97 233q-8 8 -36 32z" />
    <glyph glyph-name="multiply" unicode="&#xd7;" horiz-adv-x="461" 
d="M261 296l118 -118q16 -15 0 -31q-6 -6 -15 -6t-16 6l-118 118l-118 -118q-6 -6 -15.5 -6t-15.5 6q-6 7 -6 16t6 15l118 118l-118 118q-14 16 0 32q6 6 15.5 6t15.5 -6l118 -119l118 119q7 6 16 6t15 -6q16 -16 0 -32z" />
    <glyph glyph-name="Oslash" unicode="&#xd8;" horiz-adv-x="883" 
d="M718 766l-62 -100q30 -23 49 -42q53 -51 80 -118q30 -69 30 -146q0 -76 -30 -145q-27 -66 -80 -119q-51 -51 -118 -80q-70 -29 -146 -29q-75 0 -145 29q-13 5 -32 15l-62 -101q-7 -10 -19 -10q-5 0 -11 3q-18 13 -7 31l62 100q-29 21 -50 42q-52 53 -80 119
q-29 70 -29 145q0 76 29 146q29 67 80 118q53 53 119 80q69 30 145 30h1q76 0 145 -30l32 -15l62 101q11 18 30 7q18 -13 7 -31zM283 145l311 504v4q-72 37 -153 37q-65 0 -111.5 -47t-46.5 -113v-385zM239 100v430q0 63 35 114q-36 -21 -66 -51q-96 -96 -96 -233
q0 -135 96 -233zM638 625v-438q0 -62 -36 -114q39 21 72 54q97 99 97 233q0 136 -97 233q-8 8 -36 32zM594 565l-307 -497q74 -37 150 -37q64 0 111 45q46 46 46 111v378z" />
    <glyph glyph-name="Ugrave" unicode="&#xd9;" horiz-adv-x="828" 
d="M302 861l175 -81q7 -3 14.5 -0.5t10.5 9.5q9 15 -7 25l-167 99q-5 5 -18.5 2t-19.5 -15q-5 -13 -0.5 -24t12.5 -15zM599 723h186q9 0 15.5 -6.5t6.5 -15.5q0 -10 -6.5 -16.5t-15.5 -6.5h-71v-443q0 -97 -69 -166q-67 -69 -166 -69h-130q-98 0 -167 69q-68 68 -68 166v443
h-70q-10 0 -16.5 6.5t-6.5 16.5q0 9 6.5 15.5t16.5 6.5h337q9 0 15.5 -6.5t6.5 -15.5q0 -10 -6.5 -16.5t-15.5 -6.5h-77v-443q0 -80 56 -134q57 -55 136 -55q70 6 117 55q56 56 56 134v443h-70q-10 0 -16.5 6.5t-6.5 16.5q0 9 6.5 15.5t16.5 6.5zM159 678v-443
q0 -79 55 -134q56 -56 135 -56h8q-17 12 -29 24q-69 67 -69 166v443h-100z" />
    <glyph glyph-name="Uacute" unicode="&#xda;" horiz-adv-x="828" 
d="M521 854l-175 -81q-16 -7 -25 9q-7 16 7 25l167 99q5 5 18.5 2t19.5 -15q6 -13 1.5 -24.5t-13.5 -14.5zM599 723h186q9 0 15.5 -6.5t6.5 -15.5q0 -10 -6.5 -16.5t-15.5 -6.5h-71v-443q0 -97 -69 -166q-67 -69 -166 -69h-130q-98 0 -167 69q-68 68 -68 166v443h-70
q-10 0 -16.5 6.5t-6.5 16.5q0 9 6.5 15.5t16.5 6.5h337q9 0 15.5 -6.5t6.5 -15.5q0 -10 -6.5 -16.5t-15.5 -6.5h-77v-443q0 -80 56 -134q57 -55 136 -55q70 6 117 55q56 56 56 134v443h-70q-10 0 -16.5 6.5t-6.5 16.5q0 9 6.5 15.5t16.5 6.5zM159 678v-443q0 -79 55 -134
q56 -56 135 -56h8q-17 12 -29 24q-69 67 -69 166v443h-100z" />
    <glyph glyph-name="Ucircumflex" unicode="&#xdb;" horiz-adv-x="828" 
d="M431 901l104 -98q12 -12 1 -23q-10 -12 -23 -3l-101 74l-100 -74q-13 -9 -23 3t1 23l106 100q9 9 26 4l6 -4h1q0 -2 2 -2zM599 723h186q9 0 15.5 -6.5t6.5 -15.5q0 -10 -6.5 -16.5t-15.5 -6.5h-71v-443q0 -97 -69 -166q-67 -69 -166 -69h-130q-98 0 -167 69
q-68 68 -68 166v443h-70q-10 0 -16.5 6.5t-6.5 16.5q0 9 6.5 15.5t16.5 6.5h337q9 0 15.5 -6.5t6.5 -15.5q0 -10 -6.5 -16.5t-15.5 -6.5h-77v-443q0 -80 56 -134q57 -55 136 -55q70 6 117 55q56 56 56 134v443h-70q-10 0 -16.5 6.5t-6.5 16.5q0 9 6.5 15.5t16.5 6.5z
M159 678v-443q0 -79 55 -134q56 -56 135 -56h8q-17 12 -29 24q-69 67 -69 166v443h-100z" />
    <glyph glyph-name="Udieresis" unicode="&#xdc;" horiz-adv-x="828" 
d="M327 790q23 0 39.5 16.5t16.5 40.5q0 23 -16.5 39.5t-39.5 16.5q-24 0 -40.5 -16.5t-16.5 -39.5q0 -24 16.5 -40.5t40.5 -16.5zM514 790q23 0 39.5 16.5t16.5 40.5q0 23 -16.5 39.5t-39.5 16.5q-24 0 -40.5 -16.5t-16.5 -39.5q0 -24 16.5 -40.5t40.5 -16.5zM327 860
q13 0 13 -13t-13 -13t-13 13t13 13zM514 860q13 0 13 -13t-13 -13t-13 13t13 13zM599 723h186q9 0 15.5 -6.5t6.5 -15.5q0 -10 -6.5 -16.5t-15.5 -6.5h-71v-443q0 -97 -69 -166q-67 -69 -166 -69h-130q-98 0 -167 69q-68 68 -68 166v443h-70q-10 0 -16.5 6.5t-6.5 16.5
q0 9 6.5 15.5t16.5 6.5h337q9 0 15.5 -6.5t6.5 -15.5q0 -10 -6.5 -16.5t-15.5 -6.5h-77v-443q0 -80 56 -134q57 -55 136 -55q70 6 117 55q56 56 56 134v443h-70q-10 0 -16.5 6.5t-6.5 16.5q0 9 6.5 15.5t16.5 6.5zM159 678v-443q0 -79 55 -134q56 -56 135 -56h8
q-17 12 -29 24q-69 67 -69 166v443h-100z" />
    <glyph glyph-name="Yacute" unicode="&#xdd;" horiz-adv-x="704" 
d="M509 854l-175 -81q-16 -7 -25 9q-7 16 7 25l167 99q5 5 18.5 2t19.5 -15q6 -13 1.5 -24.5t-13.5 -14.5zM619 722h200q9 0 15.5 -6.5t6.5 -15.5t-6.5 -15.5t-15.5 -6.5h-75l-233 -289q1 -2 1 -5v-340h72q9 0 15.5 -6.5t6.5 -15.5t-6.5 -15.5t-15.5 -6.5h-337
q-9 0 -15.5 6.5t-6.5 15.5t6.5 15.5t15.5 6.5h74v276l-231 358h-70q-9 0 -15.5 6.5t-6.5 15.5t6.5 15.5t15.5 6.5h390q9 0 15.5 -6.5t6.5 -15.5t-6.5 -15.5t-15.5 -6.5h-85l162 -249l200 249h-68q-9 0 -15.5 6.5t-6.5 15.5t6.5 15.5t15.5 6.5zM468 44v333l-195 301h-131
l219 -340q4 -4 4 -12v-282h103z" />
    <glyph glyph-name="Thorn" unicode="&#xde;" horiz-adv-x="593" 
d="M212 700v-140q60 53 127 53q83 0 141.5 -65t58.5 -156q0 -89 -59 -153.5t-141 -64.5q-78 5 -127 57v-187h29q8 0 14 -6.5t6 -14.5q0 -9 -6 -16t-14 -7h-190q-10 0 -15.5 7t-5.5 16q0 21 21 21h28v633h-28q-10 0 -15.5 7.5t-5.5 15.5q0 21 21 21h141q8 0 14 -6t6 -15z
M169 44v633h-50v-633h50zM212 492v-194q44 -77 127 -80q29 2 48 24t19 56v256q-27 15 -67 15q-37 0 -71.5 -20.5t-55.5 -56.5zM449 518v-220q0 -8 -1 -19t-1 -16q49 54 49 129q0 71 -47 126z" />
    <glyph glyph-name="germandbls" unicode="&#xdf;" horiz-adv-x="550" 
d="M399 302l93 -84q0 -1 1 -1q36 -38 36 -88q0 -51 -36.5 -87.5t-87.5 -36.5q-45 0 -80 29v1q-7 4 -12 11l-1 1l-1 1q-30 35 -30 81q0 9 6.5 15.5t15.5 6.5t15.5 -6.5t6.5 -15.5q0 -31 20 -53q12 -14 21 -14q13 0 25 10q10 10 10 25q0 16 -10 25l-95 93q-21 21 -21 49
q0 19 14 41q22 35 64 94q4 6 6 10q0 1 3 4.5t4 5.5l2 2q19 28 19 48q0 72 -29 115q-31 46 -87 46h-37v-606v-2q0 -9 -6.5 -15.5t-15.5 -6.5h-157q-9 0 -15.5 6.5t-6.5 15.5t6.5 15.5t15.5 6.5h39v511q0 77 52 134t128 64q2 0 6.5 0.5t7.5 0.5h4q82 0 140.5 -58t58.5 -141
q0 -21 -12 -48t-23.5 -43t-33.5 -45l-18 -23l-1 -2q-1 -2 -6 -8.5t-8 -10.5q-9 -18 -9 -31q0 -23 19 -42zM237 674h34q80 0 123 -65q27 -40 35 -104q18 29 18 50q0 64 -45.5 109.5t-109.5 45.5q-9 0 -13 -1q-32 -5 -42 -35zM138 44h52v613q0 3 0.5 8t0.5 7q-53 -46 -53 -117
v-511zM327 247l95 -93q23 -23 23 -57q0 -24 -13 -43q23 8 38 29t15 46q0 33 -23 56l-92 84l-1 1q-16 15 -26 38q-12 -17 -17 -27q-7 -8 -7 -17q0 -8 7 -17h1z" />
    <glyph glyph-name="agrave" unicode="&#xe0;" horiz-adv-x="546" 
d="M195 610l175 -81q7 -3 14.5 -0.5t10.5 9.5q9 15 -7 25l-167 99q-5 5 -18.5 2t-19.5 -15q-5 -13 -0.5 -24t12.5 -15zM493 42h29q21 0 21 -20q0 -22 -21 -22h-143q-7 0 -14 6.5t-7 15.5v6q-36 -28 -94 -28q-93 0 -158 64.5t-65 154.5q0 92 65 157t158 65q61 0 94 -32v3
q0 10 6.5 16t14.5 6h93q21 0 21 -22v-370zM175 314v-250q39 -22 89 -22q71 0 94 57v239q-25 61 -94 61h-7q-33 0 -57.5 -25.5t-24.5 -59.5zM451 392h-50v-350h50v350zM133 96v218q0 22 7 34q-56 -54 -56 -129q0 -77 49 -123z" />
    <glyph glyph-name="aacute" unicode="&#xe1;" horiz-adv-x="546" 
d="M364 613l-175 -81q-16 -7 -25 9q-7 16 7 25l167 99q5 5 18.5 2t19.5 -15q6 -13 1.5 -24.5t-13.5 -14.5zM493 42h29q21 0 21 -20q0 -22 -21 -22h-143q-7 0 -14 6.5t-7 15.5v6q-36 -28 -94 -28q-93 0 -158 64.5t-65 154.5q0 92 65 157t158 65q61 0 94 -32v3q0 10 6.5 16
t14.5 6h93q21 0 21 -22v-370zM175 314v-250q39 -22 89 -22q71 0 94 57v239q-25 61 -94 61h-7q-33 0 -57.5 -25.5t-24.5 -59.5zM451 392h-50v-350h50v350zM133 96v218q0 22 7 34q-56 -54 -56 -129q0 -77 49 -123z" />
    <glyph glyph-name="acircumflex" unicode="&#xe2;" horiz-adv-x="546" 
d="M297 659l104 -98q12 -12 1 -23q-10 -12 -23 -3l-101 74l-100 -74q-13 -9 -23 3t1 23l106 100q9 9 26 4l6 -4h1q0 -2 2 -2zM493 42h29q21 0 21 -20q0 -22 -21 -22h-143q-7 0 -14 6.5t-7 15.5v6q-36 -28 -94 -28q-93 0 -158 64.5t-65 154.5q0 92 65 157t158 65q61 0 94 -32
v3q0 10 6.5 16t14.5 6h93q21 0 21 -22v-370zM175 314v-250q39 -22 89 -22q71 0 94 57v239q-25 61 -94 61h-7q-33 0 -57.5 -25.5t-24.5 -59.5zM451 392h-50v-350h50v350zM133 96v218q0 22 7 34q-56 -54 -56 -129q0 -77 49 -123z" />
    <glyph glyph-name="atilde" unicode="&#xe3;" horiz-adv-x="546" 
d="M349 547h8q40 5 62 36q5 8 3.5 17t-9.5 14q-17 12 -30 -6q-15 -15 -30 -17q-15 -1 -57 15l-3 1l-1 1l-9 3q-48 17 -71 14q-37 -3 -69 -38q-15 -17 1 -31q17 -15 31 1q23 23 41 24q15 2 52 -11q1 0 4 -2t5 -2l3 -1q44 -18 69 -18zM493 42h29q21 0 21 -20q0 -22 -21 -22
h-143q-7 0 -14 6.5t-7 15.5v6q-36 -28 -94 -28q-93 0 -158 64.5t-65 154.5q0 92 65 157t158 65q61 0 94 -32v3q0 10 6.5 16t14.5 6h93q21 0 21 -22v-370zM175 314v-250q39 -22 89 -22q71 0 94 57v239q-25 61 -94 61h-7q-33 0 -57.5 -25.5t-24.5 -59.5zM451 392h-50v-350h50
v350zM133 96v218q0 22 7 34q-56 -54 -56 -129q0 -77 49 -123z" />
    <glyph glyph-name="adieresis" unicode="&#xe4;" horiz-adv-x="546" 
d="M188 532q23 0 39.5 16.5t16.5 40.5q0 23 -16.5 39.5t-39.5 16.5q-24 0 -40.5 -16.5t-16.5 -39.5q0 -24 16.5 -40.5t40.5 -16.5zM375 532q23 0 39.5 16.5t16.5 40.5q0 23 -16.5 39.5t-39.5 16.5q-24 0 -40.5 -16.5t-16.5 -39.5q0 -24 16.5 -40.5t40.5 -16.5zM188 602
q13 0 13 -13t-13 -13t-13 13t13 13zM375 602q13 0 13 -13t-13 -13t-13 13t13 13zM493 42h29q21 0 21 -20q0 -22 -21 -22h-143q-7 0 -14 6.5t-7 15.5v6q-36 -28 -94 -28q-93 0 -158 64.5t-65 154.5q0 92 65 157t158 65q61 0 94 -32v3q0 10 6.5 16t14.5 6h93q21 0 21 -22v-370
zM175 314v-250q39 -22 89 -22q71 0 94 57v239q-25 61 -94 61h-7q-33 0 -57.5 -25.5t-24.5 -59.5zM451 392h-50v-350h50v350zM133 96v218q0 22 7 34q-56 -54 -56 -129q0 -77 49 -123z" />
    <glyph glyph-name="aring" unicode="&#xe5;" horiz-adv-x="546" 
d="M273 527q34 0 58 24t24 58t-24 58t-58 24t-58 -24t-24 -58t24 -58t58 -24zM273 647q16 0 27 -11t11 -27t-11 -27t-27 -11t-27 11t-11 27t11 27t27 11zM493 42h29q21 0 21 -20q0 -22 -21 -22h-143q-7 0 -14 6.5t-7 15.5v6q-36 -28 -94 -28q-93 0 -158 64.5t-65 154.5
q0 92 65 157t158 65q61 0 94 -32v3q0 10 6.5 16t14.5 6h93q21 0 21 -22v-370zM175 314v-250q39 -22 89 -22q71 0 94 57v239q-25 61 -94 61h-7q-33 0 -57.5 -25.5t-24.5 -59.5zM451 392h-50v-350h50v350zM133 96v218q0 22 7 34q-56 -54 -56 -129q0 -77 49 -123z" />
    <glyph glyph-name="ae" unicode="&#xe6;" horiz-adv-x="835" 
d="M373 435h93q12 0 18 -8q44 18 87 18q73 0 132 -44t83 -116q8 -34 -7 -58q-15 -18 -54 -18h-238v-148q34 -19 84 -19h25q84 0 140 64q5 8 14.5 9t14.5 -5q7 -6 8 -15.5t-5 -14.5q-65 -80 -172 -80h-25l-11 1h-187q-7 0 -14 6.5t-7 15.5v6q-36 -28 -94 -28q-93 0 -158 64.5
t-65 154.5q0 92 65 157t158 65q61 0 94 -32v3q0 10 6.5 16t14.5 6zM653 252l-3 68q0 35 -23 59t-56 24h-3q-28 0 -51 -18.5t-30 -46.5v-86h166zM352 100v239q-25 61 -94 61h-7q-33 0 -57.5 -25.5t-24.5 -59.5v-250q39 -22 89 -22q71 0 94 57zM445 393h-50v-350h50v350z
M697 252h32q14 0 18 4q0 3 -4 15q-15 52 -53 85q4 -10 4 -36zM127 97v218q0 22 7 34q-56 -54 -56 -129q0 -77 49 -123z" />
    <glyph glyph-name="ccedilla" unicode="&#xe7;" horiz-adv-x="476" 
d="M183 318v-258q41 -22 87 -22q39 0 75.5 17.5t55.5 47.5q13 17 31 5q15 -15 6 -31q-52 -67 -143 -82l-9 -20q26 -16 26 -48q0 -24 -16.5 -40.5t-39.5 -16.5q-24 0 -41 17q-6 6 -6 15t6 16q16 14 32 0q3 -4 9 -4q12 0 12 13t-12 13q-13 0 -19 10q-7 11 -1 21l11 25
q-86 8 -144 72.5t-58 151.5q0 88 60 152t146 72h14h5q32 0 58 -9q6 0 15 -5q2 0 4 -1l29 -14q44 -24 60 -69q16 -47 -5 -89q-12 -22 -35.5 -29t-45.5 4q-24 12 -31 35q-8 25 4 44v2l17 31q7 11 2 28q-3 14 -18 19q0 1 -2.5 2t-2.5 2h-2q-22 7 -47 7h-14q-30 -5 -51.5 -29
t-21.5 -55zM140 94v224q0 11 4 33q-55 -52 -55 -131q0 -75 51 -126zM378 323l-17 -31q-3 -8 0 -10q1 -5 8 -10q15 -8 22 4q14 27 3 56q-1 4 -4 10l-3 7q-4 -16 -9 -26z" />
    <glyph glyph-name="egrave" unicode="&#xe8;" horiz-adv-x="523" 
d="M179 637l175 -81q7 -3 14.5 -0.5t10.5 9.5q9 15 -7 25l-167 99q-5 5 -18.5 2t-19.5 -15q-5 -13 -0.5 -24t12.5 -15zM295 -5h-25q-91 0 -158 66.5t-67 159.5q0 91 67 156t158 65q73 0 132 -44t83 -116q8 -34 -7 -58q-15 -18 -54 -18h-240v-147q37 -20 86 -20h25
q84 0 140 64q5 8 14.5 9t14.5 -5q7 -6 8 -15.5t-5 -14.5q-67 -82 -172 -82zM184 249h168l-3 68q0 35 -23 59t-56 24h-3q-33 0 -58 -24t-25 -59v-68zM396 249h32q14 0 18 4q0 3 -4 15q-15 52 -53 85q4 -10 4 -36zM142 92v225q0 22 4 33q-58 -52 -58 -129t54 -129z" />
    <glyph glyph-name="eacute" unicode="&#xe9;" horiz-adv-x="523" 
d="M358 613l-175 -81q-16 -7 -25 9q-7 16 7 25l167 99q5 5 18.5 2t19.5 -15q6 -13 1.5 -24.5t-13.5 -14.5zM295 -5h-25q-91 0 -158 66.5t-67 159.5q0 91 67 156t158 65q73 0 132 -44t83 -116q8 -34 -7 -58q-15 -18 -54 -18h-240v-147q37 -20 86 -20h25q84 0 140 64
q5 8 14.5 9t14.5 -5q7 -6 8 -15.5t-5 -14.5q-67 -82 -172 -82zM184 249h168l-3 68q0 35 -23 59t-56 24h-3q-33 0 -58 -24t-25 -59v-68zM396 249h32q14 0 18 4q0 3 -4 15q-15 52 -53 85q4 -10 4 -36zM142 92v225q0 22 4 33q-58 -52 -58 -129t54 -129z" />
    <glyph glyph-name="ecircumflex" unicode="&#xea;" horiz-adv-x="523" 
d="M291 659l104 -98q12 -12 1 -23q-10 -12 -23 -3l-101 74l-100 -74q-13 -9 -23 3t1 23l106 100q9 9 26 4l6 -4h1q0 -2 2 -2zM295 -5h-25q-91 0 -158 66.5t-67 159.5q0 91 67 156t158 65q73 0 132 -44t83 -116q8 -34 -7 -58q-15 -18 -54 -18h-240v-147q37 -20 86 -20h25
q84 0 140 64q5 8 14.5 9t14.5 -5q7 -6 8 -15.5t-5 -14.5q-67 -82 -172 -82zM184 249h168l-3 68q0 35 -23 59t-56 24h-3q-33 0 -58 -24t-25 -59v-68zM396 249h32q14 0 18 4q0 3 -4 15q-15 52 -53 85q4 -10 4 -36zM142 92v225q0 22 4 33q-58 -52 -58 -129t54 -129z" />
    <glyph glyph-name="edieresis" unicode="&#xeb;" horiz-adv-x="523" 
d="M178 532q23 0 39.5 16.5t16.5 40.5q0 23 -16.5 39.5t-39.5 16.5q-24 0 -40.5 -16.5t-16.5 -39.5q0 -24 16.5 -40.5t40.5 -16.5zM365 532q23 0 39.5 16.5t16.5 40.5q0 23 -16.5 39.5t-39.5 16.5q-24 0 -40.5 -16.5t-16.5 -39.5q0 -24 16.5 -40.5t40.5 -16.5zM178 602
q13 0 13 -13t-13 -13t-13 13t13 13zM365 602q13 0 13 -13t-13 -13t-13 13t13 13zM295 -5h-25q-91 0 -158 66.5t-67 159.5q0 91 67 156t158 65q73 0 132 -44t83 -116q8 -34 -7 -58q-15 -18 -54 -18h-240v-147q37 -20 86 -20h25q84 0 140 64q5 8 14.5 9t14.5 -5q7 -6 8 -15.5
t-5 -14.5q-67 -82 -172 -82zM184 249h168l-3 68q0 35 -23 59t-56 24h-3q-33 0 -58 -24t-25 -59v-68zM396 249h32q14 0 18 4q0 3 -4 15q-15 52 -53 85q4 -10 4 -36zM142 92v225q0 22 4 33q-58 -52 -58 -129t54 -129z" />
    <glyph glyph-name="igrave" unicode="&#xec;" horiz-adv-x="296" 
d="M36 637l175 -81q7 -3 14.5 -0.5t10.5 9.5q9 15 -7 25l-167 99q-5 5 -18.5 2t-19.5 -15q-5 -13 -0.5 -24t12.5 -15zM213 43h29q8 0 14.5 -7t6.5 -15t-6.5 -14.5t-14.5 -6.5h-192q-8 0 -15 6.5t-7 14.5t7 15t15 7h28v352h-28q-8 0 -15 7t-7 15t7 14.5t15 6.5h142
q8 0 14.5 -6.5t6.5 -14.5v-374zM171 43v352h-50v-352h50z" />
    <glyph glyph-name="iacute" unicode="&#xed;" horiz-adv-x="296" 
d="M217 613l-175 -81q-16 -7 -25 9q-7 16 7 25l167 99q5 5 18.5 2t19.5 -15q6 -13 1.5 -24.5t-13.5 -14.5zM213 43h29q8 0 14.5 -7t6.5 -15t-6.5 -14.5t-14.5 -6.5h-192q-8 0 -15 6.5t-7 14.5t7 15t15 7h28v352h-28q-8 0 -15 7t-7 15t7 14.5t15 6.5h142q8 0 14.5 -6.5
t6.5 -14.5v-374zM171 43v352h-50v-352h50z" />
    <glyph glyph-name="icircumflex" unicode="&#xee;" horiz-adv-x="296" 
d="M146 659l104 -98q12 -12 1 -23q-10 -12 -23 -3l-101 74l-100 -74q-13 -9 -23 3t1 23l106 100q9 9 26 4l6 -4h1q0 -2 2 -2zM213 43h29q8 0 14.5 -7t6.5 -15t-6.5 -14.5t-14.5 -6.5h-192q-8 0 -15 6.5t-7 14.5t7 15t15 7h28v352h-28q-8 0 -15 7t-7 15t7 14.5t15 6.5h142
q8 0 14.5 -6.5t6.5 -14.5v-374zM171 43v352h-50v-352h50z" />
    <glyph glyph-name="idieresis" unicode="&#xef;" horiz-adv-x="296" 
d="M41 532q23 0 39.5 16.5t16.5 40.5q0 23 -16.5 39.5t-39.5 16.5q-24 0 -40.5 -16.5t-16.5 -39.5q0 -24 16.5 -40.5t40.5 -16.5zM228 532q23 0 39.5 16.5t16.5 40.5q0 23 -16.5 39.5t-39.5 16.5q-24 0 -40.5 -16.5t-16.5 -39.5q0 -24 16.5 -40.5t40.5 -16.5zM41 602
q13 0 13 -13t-13 -13t-13 13t13 13zM228 602q13 0 13 -13t-13 -13t-13 13t13 13zM213 43h29q8 0 14.5 -7t6.5 -15t-6.5 -14.5t-14.5 -6.5h-192q-8 0 -15 6.5t-7 14.5t7 15t15 7h28v352h-28q-8 0 -15 7t-7 15t7 14.5t15 6.5h142q8 0 14.5 -6.5t6.5 -14.5v-374zM171 43v352
h-50v-352h50z" />
    <glyph glyph-name="eth" unicode="&#xf0;" horiz-adv-x="541" 
d="M496 220v-2v-1q-2 -94 -67.5 -159t-159.5 -65q-92 0 -158 66.5t-66 160.5q0 86 59.5 150.5t146.5 72.5h18q89 0 154 -60q-10 28 -17 43q-49 110 -146 204l-100 -58q-3 -2 -11 -2q-13 0 -19 11q-4 8 -2 16.5t10 13.5l88 50q-6 6 -20 18q-64 52 -84 68q-17 15 -3 31
q13 16 31 4l84 -69l33 -29l91 53q19 11 30 -9q10 -17 -8 -30l-80 -46q95 -95 147 -208q47 -106 49 -219v-3v-2zM269 36h3q38 0 64 25t26 58l-3 260q-38 21 -90 21h-11q-30 -2 -53 -26.5t-23 -56.5v-259q39 -22 87 -22zM140 90v227q0 6 1.5 16.5t1.5 15.5q-54 -52 -54 -129
q0 -80 51 -130zM402 342l4 -223q0 -18 -4 -25q50 52 50 126q0 72 -50 122z" />
    <glyph glyph-name="ntilde" unicode="&#xf1;" horiz-adv-x="565" 
d="M341 547h8q40 5 62 36q5 8 3.5 17t-9.5 14q-17 12 -30 -6q-15 -15 -30 -17q-15 -1 -57 15l-3 1l-1 1l-9 3q-48 17 -71 14q-37 -3 -69 -38q-15 -17 1 -31q17 -15 31 1q23 23 41 24q15 2 52 -11q2 0 5 -2t4 -2l3 -1q44 -18 69 -18zM483 43h36q21 0 21 -21q0 -8 -5.5 -14.5
t-15.5 -6.5h-191q-8 0 -14.5 6.5t-6.5 14.5t6.5 14.5t14.5 6.5h21v297q0 21 -13.5 37t-32.5 16q-38 0 -66.5 -29t-28.5 -66v-255h28q22 0 22 -21q0 -8 -5.5 -14.5t-16.5 -6.5h-190q-8 0 -14.5 6.5t-6.5 14.5t6.5 14.5t14.5 6.5h28v350h-28q-8 0 -14.5 6.5t-6.5 14.5
t6.5 14.5t14.5 6.5h141q21 0 21 -21v-18q39 39 92 39h3h4h39q56 0 96.5 -40.5t40.5 -96.5v-255zM166 43v350h-50v-350h50zM441 43v255q0 28 -17 52.5t-43 35.5q11 -22 11 -46v-297h49z" />
    <glyph glyph-name="ograve" unicode="&#xf2;" horiz-adv-x="541" 
d="M180 637l175 -81q7 -3 14.5 -0.5t10.5 9.5q9 15 -7 25l-167 99q-5 5 -18.5 2t-19.5 -15q-5 -13 -0.5 -24t12.5 -15zM251 442h18q94 0 160.5 -65.5t66.5 -157.5q0 -95 -66 -161t-161 -66q-92 0 -158 66.5t-66 160.5q0 86 59.5 150.5t146.5 72.5zM182 316v-259
q39 -22 87 -22h3q38 0 64 25t26 58l-3 260q-38 21 -90 21h-11q-30 -2 -53 -26.5t-23 -56.5zM140 89v227q0 6 1.5 16.5t1.5 15.5q-54 -52 -54 -129q0 -81 51 -130zM402 341l4 -223q0 -18 -4 -25q50 52 50 126q0 72 -50 122z" />
    <glyph glyph-name="oacute" unicode="&#xf3;" horiz-adv-x="541" 
d="M362 613l-175 -81q-16 -7 -25 9q-7 16 7 25l167 99q5 5 18.5 2t19.5 -15q6 -13 1.5 -24.5t-13.5 -14.5zM251 442h18q94 0 160.5 -65.5t66.5 -157.5q0 -95 -66 -161t-161 -66q-92 0 -158 66.5t-66 160.5q0 86 59.5 150.5t146.5 72.5zM182 316v-259q39 -22 87 -22h3
q38 0 64 25t26 58l-3 260q-38 21 -90 21h-11q-30 -2 -53 -26.5t-23 -56.5zM140 89v227q0 6 1.5 16.5t1.5 15.5q-54 -52 -54 -129q0 -81 51 -130zM402 341l4 -223q0 -18 -4 -25q50 52 50 126q0 72 -50 122z" />
    <glyph glyph-name="ocircumflex" unicode="&#xf4;" horiz-adv-x="541" 
d="M286 659l104 -98q12 -12 1 -23q-10 -12 -23 -3l-101 74l-100 -74q-13 -9 -23 3t1 23l106 100q9 9 26 4l6 -4h1q0 -2 2 -2zM251 442h18q94 0 160.5 -65.5t66.5 -157.5q0 -95 -66 -161t-161 -66q-92 0 -158 66.5t-66 160.5q0 86 59.5 150.5t146.5 72.5zM182 316v-259
q39 -22 87 -22h3q38 0 64 25t26 58l-3 260q-38 21 -90 21h-11q-30 -2 -53 -26.5t-23 -56.5zM140 89v227q0 6 1.5 16.5t1.5 15.5q-54 -52 -54 -129q0 -81 51 -130zM402 341l4 -223q0 -18 -4 -25q50 52 50 126q0 72 -50 122z" />
    <glyph glyph-name="otilde" unicode="&#xf5;" horiz-adv-x="541" 
d="M341 547h8q40 5 62 36q5 8 3.5 17t-9.5 14q-17 12 -30 -6q-15 -15 -30 -17q-15 -1 -57 15l-3 1l-1 1l-9 3q-48 17 -71 14q-37 -3 -69 -38q-15 -17 1 -31q17 -15 31 1q23 23 41 24q15 2 52 -11q2 0 5 -2t4 -2l3 -1q44 -18 69 -18zM251 442h18q94 0 160.5 -65.5
t66.5 -157.5q0 -95 -66 -161t-161 -66q-92 0 -158 66.5t-66 160.5q0 86 59.5 150.5t146.5 72.5zM182 316v-259q39 -22 87 -22h3q38 0 64 25t26 58l-3 260q-38 21 -90 21h-11q-30 -2 -53 -26.5t-23 -56.5zM140 89v227q0 6 1.5 16.5t1.5 15.5q-54 -52 -54 -129q0 -81 51 -130z
M402 341l4 -223q0 -18 -4 -25q50 52 50 126q0 72 -50 122z" />
    <glyph glyph-name="odieresis" unicode="&#xf6;" horiz-adv-x="541" 
d="M178 532q23 0 39.5 16.5t16.5 40.5q0 23 -16.5 39.5t-39.5 16.5q-24 0 -40.5 -16.5t-16.5 -39.5q0 -24 16.5 -40.5t40.5 -16.5zM365 532q23 0 39.5 16.5t16.5 40.5q0 23 -16.5 39.5t-39.5 16.5q-24 0 -40.5 -16.5t-16.5 -39.5q0 -24 16.5 -40.5t40.5 -16.5zM178 602
q13 0 13 -13t-13 -13t-13 13t13 13zM365 602q13 0 13 -13t-13 -13t-13 13t13 13zM251 442h18q94 0 160.5 -65.5t66.5 -157.5q0 -95 -66 -161t-161 -66q-92 0 -158 66.5t-66 160.5q0 86 59.5 150.5t146.5 72.5zM182 316v-259q39 -22 87 -22h3q38 0 64 25t26 58l-3 260
q-38 21 -90 21h-11q-30 -2 -53 -26.5t-23 -56.5zM140 89v227q0 6 1.5 16.5t1.5 15.5q-54 -52 -54 -129q0 -81 51 -130zM402 341l4 -223q0 -18 -4 -25q50 52 50 126q0 72 -50 122z" />
    <glyph glyph-name="divide" unicode="&#xf7;" horiz-adv-x="593" 
d="M298 393q23 0 39.5 16.5t16.5 40.5q0 23 -16.5 39.5t-39.5 16.5q-24 0 -40.5 -16.5t-16.5 -39.5q0 -24 16.5 -40.5t40.5 -16.5zM298 463q13 0 13 -13t-13 -13t-13 13t13 13zM75 272h435q9 0 15.5 6.5t6.5 16.5q0 9 -6.5 15.5t-15.5 6.5h-435q-10 0 -16.5 -6.5t-6.5 -15.5
q0 -10 6.5 -16.5t16.5 -6.5zM298 81q23 0 39.5 16.5t16.5 40.5q0 23 -16.5 39.5t-39.5 16.5q-24 0 -40.5 -16.5t-16.5 -39.5q0 -24 16.5 -40.5t40.5 -16.5zM298 151q13 0 13 -13t-13 -13t-13 13t13 13z" />
    <glyph glyph-name="oslash" unicode="&#xf8;" horiz-adv-x="541" 
d="M461 423l-35 -43q70 -67 70 -161q0 -95 -66 -161t-161 -66q-65 0 -119 35l-35 -44q-6 -8 -17 -8q-7 0 -14 5t-8 14t4 17l35 44q-70 67 -70 164q0 86 59.5 150.5t146.5 72.5h18q66 0 122 -35l35 43q13 18 31 4q7 -5 8 -14t-4 -17zM182 140l177 225v13q-38 21 -90 21h-11
q-30 -2 -53 -26.5t-23 -56.5v-176zM140 89v227q0 6 1.5 16.5t1.5 15.5q-54 -52 -54 -129q0 -81 51 -130zM402 341l4 -223q0 -18 -4 -25q50 52 50 126q0 72 -50 122zM269 35h3q38 0 64 25t26 58l-2 177l-178 -226v-12q39 -22 87 -22z" />
    <glyph glyph-name="ugrave" unicode="&#xf9;" horiz-adv-x="593" 
d="M178 637l175 -81q7 -3 14.5 -0.5t10.5 9.5q9 15 -7 25l-167 99q-5 5 -18.5 2t-19.5 -15q-5 -13 -0.5 -24t12.5 -15zM483 44h28q8 0 15 -7t7 -15t-7 -14.5t-15 -6.5h-141q-8 0 -14.5 6.5t-6.5 14.5v18q-46 -39 -92 -39h-4h-3h-35q-59 0 -100.5 41.5t-41.5 100.5v250h-28
q-8 0 -14.5 7t-6.5 15t6.5 14.5t14.5 6.5h141q8 0 14.5 -6.5t6.5 -14.5v-318q0 -22 14 -37.5t32 -15.5q40 0 68 29t28 70v250h-28q-8 0 -15 7t-7 15t7 14.5t15 6.5h141q8 0 14.5 -6.5t6.5 -14.5v-371zM116 393v-250q0 -32 16.5 -56.5t43.5 -35.5q-11 22 -11 46v296h-49z
M441 393h-50v-349h50v349z" />
    <glyph glyph-name="uacute" unicode="&#xfa;" horiz-adv-x="593" 
d="M360 613l-175 -81q-16 -7 -25 9q-7 16 7 25l167 99q5 5 18.5 2t19.5 -15q6 -13 1.5 -24.5t-13.5 -14.5zM483 44h28q8 0 15 -7t7 -15t-7 -14.5t-15 -6.5h-141q-8 0 -14.5 6.5t-6.5 14.5v18q-46 -39 -92 -39h-4h-3h-35q-59 0 -100.5 41.5t-41.5 100.5v250h-28q-8 0 -14.5 7
t-6.5 15t6.5 14.5t14.5 6.5h141q8 0 14.5 -6.5t6.5 -14.5v-318q0 -22 14 -37.5t32 -15.5q40 0 68 29t28 70v250h-28q-8 0 -15 7t-7 15t7 14.5t15 6.5h141q8 0 14.5 -6.5t6.5 -14.5v-371zM116 393v-250q0 -32 16.5 -56.5t43.5 -35.5q-11 22 -11 46v296h-49zM441 393h-50v-349
h50v349z" />
    <glyph glyph-name="ucircumflex" unicode="&#xfb;" horiz-adv-x="593" 
d="M281 659l104 -98q12 -12 1 -23q-10 -12 -23 -3l-101 74l-100 -74q-13 -9 -23 3t1 23l106 100q9 9 26 4l6 -4h1q0 -2 2 -2zM483 44h28q8 0 15 -7t7 -15t-7 -14.5t-15 -6.5h-141q-8 0 -14.5 6.5t-6.5 14.5v18q-46 -39 -92 -39h-4h-3h-35q-59 0 -100.5 41.5t-41.5 100.5v250
h-28q-8 0 -14.5 7t-6.5 15t6.5 14.5t14.5 6.5h141q8 0 14.5 -6.5t6.5 -14.5v-318q0 -22 14 -37.5t32 -15.5q40 0 68 29t28 70v250h-28q-8 0 -15 7t-7 15t7 14.5t15 6.5h141q8 0 14.5 -6.5t6.5 -14.5v-371zM116 393v-250q0 -32 16.5 -56.5t43.5 -35.5q-11 22 -11 46v296h-49z
M441 393h-50v-349h50v349z" />
    <glyph glyph-name="udieresis" unicode="&#xfc;" horiz-adv-x="593" 
d="M166 532q23 0 39.5 16.5t16.5 40.5q0 23 -16.5 39.5t-39.5 16.5q-24 0 -40.5 -16.5t-16.5 -39.5q0 -24 16.5 -40.5t40.5 -16.5zM353 532q23 0 39.5 16.5t16.5 40.5q0 23 -16.5 39.5t-39.5 16.5q-24 0 -40.5 -16.5t-16.5 -39.5q0 -24 16.5 -40.5t40.5 -16.5zM166 602
q13 0 13 -13t-13 -13t-13 13t13 13zM353 602q13 0 13 -13t-13 -13t-13 13t13 13zM483 44h28q8 0 15 -7t7 -15t-7 -14.5t-15 -6.5h-141q-8 0 -14.5 6.5t-6.5 14.5v18q-46 -39 -92 -39h-4h-3h-35q-59 0 -100.5 41.5t-41.5 100.5v250h-28q-8 0 -14.5 7t-6.5 15t6.5 14.5
t14.5 6.5h141q8 0 14.5 -6.5t6.5 -14.5v-318q0 -22 14 -37.5t32 -15.5q40 0 68 29t28 70v250h-28q-8 0 -15 7t-7 15t7 14.5t15 6.5h141q8 0 14.5 -6.5t6.5 -14.5v-371zM116 393v-250q0 -32 16.5 -56.5t43.5 -35.5q-11 22 -11 46v296h-49zM441 393h-50v-349h50v349z" />
    <glyph glyph-name="yacute" unicode="&#xfd;" horiz-adv-x="543" 
d="M361 622l-175 -81q-16 -7 -25 9q-7 16 7 25l167 99q5 5 18.5 2t19.5 -15q6 -13 1.5 -24.5t-13.5 -14.5zM422 436h107q23 0 23 -22q0 -8 -7 -15t-16 -7h-28l-240 -597q-17 -41 -52.5 -65t-77.5 -24q-14 0 -21 1q-26 3 -44 22.5t-18 46.5q0 29 21 49.5t50 20.5q14 0 21 -3
l36 -18q16 -9 32 -2.5t26 26.5l8 17l-215 526h-27q-8 0 -15 7t-7 15q0 22 22 22h214q20 0 20 -22q0 -8 -6 -15t-14 -7h-34l137 -334l133 334h-28q-10 0 -16.5 7t-6.5 15q0 22 23 22zM296 0l-165 392h-56l190 -465zM141 -250q32 5 53 27q-16 0 -33 6q-6 3 -12.5 6.5
t-10.5 5.5l-7 3.5l-5 2.5t-3 1q-6 3 -11 3q-11 0 -18.5 -7.5t-7.5 -18.5q0 -12 7 -18l13 -8q10 -5 35 -3z" />
    <glyph glyph-name="thorn" unicode="&#xfe;" horiz-adv-x="589" 
d="M210 700v-311q60 53 127 53q83 0 141.5 -65t58.5 -156q0 -89 -59 -153.5t-141 -64.5q-78 5 -127 57v-315h29q8 0 14 -6.5t6 -14.5q0 -9 -6 -16t-14 -7h-190q-10 0 -15.5 7t-5.5 16q0 21 21 21h28v932h-28q-10 0 -15.5 7.5t-5.5 15.5q0 21 21 21h141q8 0 14 -6t6 -15z
M167 -255v932h-50v-932h50zM210 321v-194q44 -77 127 -80q29 2 48 24t19 56v256q-27 15 -67 15q-37 0 -71.5 -20.5t-55.5 -56.5zM447 347v-220q0 -8 -1 -19t-1 -16q49 54 49 129q0 71 -47 126z" />
    <glyph glyph-name="ydieresis" unicode="&#xff;" horiz-adv-x="543" 
d="M180 532q23 0 39.5 16.5t16.5 40.5q0 23 -16.5 39.5t-39.5 16.5q-24 0 -40.5 -16.5t-16.5 -39.5q0 -24 16.5 -40.5t40.5 -16.5zM367 532q23 0 39.5 16.5t16.5 40.5q0 23 -16.5 39.5t-39.5 16.5q-24 0 -40.5 -16.5t-16.5 -39.5q0 -24 16.5 -40.5t40.5 -16.5zM180 602
q13 0 13 -13t-13 -13t-13 13t13 13zM367 602q13 0 13 -13t-13 -13t-13 13t13 13zM430 436h107q23 0 23 -22q0 -8 -7 -15t-16 -7h-28l-240 -597q-17 -41 -52.5 -65t-77.5 -24q-14 0 -21 1q-26 3 -44 22.5t-18 46.5q0 29 21 49.5t50 20.5q14 0 21 -3l36 -18q16 -9 32 -2.5
t26 26.5l8 17l-215 526h-27q-8 0 -15 7t-7 15q0 22 22 22h214q20 0 20 -22q0 -8 -6 -15t-14 -7h-34l137 -334l133 334h-28q-10 0 -16.5 7t-6.5 15q0 22 23 22zM304 0l-165 392h-56l190 -465zM149 -250q32 5 53 27q-16 0 -33 6l-38 19q-6 3 -11 3q-11 0 -18.5 -7.5
t-7.5 -18.5q0 -12 7 -18l13 -8q10 -5 35 -3z" />
    <glyph glyph-name="Amacron" unicode="&#x100;" horiz-adv-x="855" 
d="M315 810h217q9 0 15.5 6.5t6.5 15.5t-6.5 15.5t-15.5 6.5h-217q-9 0 -15.5 -6.5t-6.5 -15.5t6.5 -15.5t15.5 -6.5zM741 44h91q9 0 15.5 -6.5t6.5 -15.5t-6.5 -15.5t-15.5 -6.5h-368q-9 0 -15.5 6.5t-6.5 15.5t6.5 15.5t15.5 6.5h68l-69 161h-236l-69 -161h70
q9 0 15.5 -6.5t6.5 -15.5t-6.5 -15.5t-15.5 -6.5h-205q-9 0 -15.5 6.5t-6.5 15.5t6.5 15.5t15.5 6.5h87l292 680q7 15 24 15q16 0 23 -15zM369 535l123 -286h113l-179 418zM444 249l-99 230l-99 -230h198zM580 44h113l-69 161h-113z" />
    <glyph glyph-name="amacron" unicode="&#x101;" horiz-adv-x="546" 
d="M158 546h217q9 0 15.5 6.5t6.5 15.5t-6.5 15.5t-15.5 6.5h-217q-9 0 -15.5 -6.5t-6.5 -15.5t6.5 -15.5t15.5 -6.5zM493 42h29q21 0 21 -20q0 -22 -21 -22h-143q-7 0 -14 6.5t-7 15.5v6q-36 -28 -94 -28q-93 0 -158 64.5t-65 154.5q0 92 65 157t158 65q61 0 94 -32v3
q0 10 6.5 16t14.5 6h93q21 0 21 -22v-370zM175 314v-250q39 -22 89 -22q71 0 94 57v239q-25 61 -94 61h-7q-33 0 -57.5 -25.5t-24.5 -59.5zM451 392h-50v-350h50v350zM133 96v218q0 16 7 34q-56 -54 -56 -129q0 -77 49 -123z" />
    <glyph glyph-name="Abreve" unicode="&#x102;" horiz-adv-x="855" 
d="M428 781q61 0 106 25q48 26 56 70q1 9 -4.5 16.5t-14.5 8.5t-16 -4.5t-9 -14.5q-3 -21 -33 -38q-36 -19 -85 -19q-48 0 -84 19q-30 17 -33 38q-2 9 -9 14.5t-16 4.5q-9 -2 -14.5 -9t-4.5 -16q6 -44 56 -70q45 -25 105 -25zM741 44h91q9 0 15.5 -6.5t6.5 -15.5t-6.5 -15.5
t-15.5 -6.5h-368q-9 0 -15.5 6.5t-6.5 15.5t6.5 15.5t15.5 6.5h68l-69 161h-236l-69 -161h70q9 0 15.5 -6.5t6.5 -15.5t-6.5 -15.5t-15.5 -6.5h-205q-9 0 -15.5 6.5t-6.5 15.5t6.5 15.5t15.5 6.5h87l292 680q7 15 24 15q16 0 23 -15zM369 535l123 -286h113l-179 418z
M444 249l-99 230l-99 -230h198zM580 44h113l-69 161h-113z" />
    <glyph glyph-name="abreve" unicode="&#x103;" horiz-adv-x="546" 
d="M265 520q61 0 106 25q48 26 56 70q1 9 -4.5 16.5t-14.5 8.5t-16 -4.5t-9 -14.5q-3 -21 -33 -38q-36 -19 -85 -19q-48 0 -84 19q-30 17 -33 38q-2 9 -9 14.5t-16 4.5q-9 -2 -14.5 -9t-4.5 -16q6 -44 56 -70q45 -25 105 -25zM493 42h29q21 0 21 -20q0 -22 -21 -22h-143
q-7 0 -14 6.5t-7 15.5v6q-36 -28 -94 -28q-93 0 -158 64.5t-65 154.5q0 92 65 157t158 65q61 0 94 -32v3q0 10 6.5 16t14.5 6h93q21 0 21 -22v-370zM175 314v-250q39 -22 89 -22q71 0 94 57v239q-25 61 -94 61h-7q-33 0 -57.5 -25.5t-24.5 -59.5zM451 392h-50v-350h50v350z
M133 96v218q0 16 7 34q-56 -54 -56 -129q0 -77 49 -123z" />
    <glyph glyph-name="Aogonek" unicode="&#x104;" horiz-adv-x="855" 
d="M741 44h91q9 0 15.5 -6.5t6.5 -15.5t-6.5 -15.5t-15.5 -6.5h-255l-68 -68q-10 -10 -10 -24t10 -24t24 -10q12 0 24 10q15 16 31 0t0 -31q-23 -23 -55 -23t-55 23t-23 55t23 55l37 37h-51q-9 0 -15.5 6.5t-6.5 15.5t6.5 15.5t15.5 6.5h68l-69 161h-236l-69 -161h70
q9 0 15.5 -6.5t6.5 -15.5t-6.5 -15.5t-15.5 -6.5h-205q-9 0 -15.5 6.5t-6.5 15.5t6.5 15.5t15.5 6.5h87l292 680q7 15 24 15q16 0 23 -15zM492 249h113l-179 418l-57 -132zM444 249l-99 230l-99 -230h198zM693 44l-69 161h-113l69 -161h113z" />
    <glyph glyph-name="aogonek" unicode="&#x105;" horiz-adv-x="546" 
d="M493 42h29q21 0 21 -20q0 -22 -21 -22h-143q-7 0 -14 6.5t-7 15.5v3l-60 -60q-10 -10 -10 -24t10 -24t24 -10q12 0 24 10q15 16 31 0t0 -31q-23 -23 -55 -23t-55 23q-23 22 -23 55t23 55l4 4h-7q-93 0 -158 64.5t-65 154.5q0 92 65 157t158 65q61 0 94 -32v3q0 10 6.5 16
t14.5 6h93q21 0 21 -22v-370zM175 314v-250q39 -22 89 -22q71 0 94 57v239q-25 61 -94 61h-7q-33 0 -57.5 -25.5t-24.5 -59.5zM451 392h-50v-350h50v350zM133 96v218q0 16 7 34q-56 -54 -56 -129q0 -77 49 -123z" />
    <glyph glyph-name="Cacute" unicode="&#x106;" horiz-adv-x="737" 
d="M515 854l-175 -81q-16 -7 -25 9q-7 16 7 25l167 99q5 5 18.5 2t19.5 -15q6 -13 1.5 -24.5t-13.5 -14.5zM696 701v-166q0 -9 -6 -15.5t-16 -6.5q-9 0 -15.5 6.5t-6.5 15.5v58q-11 11 -35 29q-81 55 -180 55h-1q-62 0 -106 -44.5t-43 -107.5v-443q71 -37 150 -37
q99 0 180 55q9 7 34 27q0 1 0.5 1t0.5 1v59q0 9 6.5 15.5t15.5 6.5q10 0 16 -6.5t6 -15.5v-166q0 -9 -6 -15.5t-16 -6.5q-9 0 -15.5 6.5t-6.5 15.5v50q-2 -2 -5 -4.5t-5 -3.5q-94 -63 -205 -63q-74 0 -140 28q-64 27 -114 77q-50 49 -78 115q-28 68 -28 140t28 140
q28 66 78 115q50 50 114 77q65 28 140 28q113 0 205 -63q6 -4 10 -8v51q0 9 6.5 15.5t15.5 6.5q10 0 16 -6.5t6 -15.5zM243 111v414q-1 58 30 107q-31 -20 -59 -47q-93 -93 -93 -224t93 -224q14 -14 29 -26z" />
    <glyph glyph-name="cacute" unicode="&#x107;" horiz-adv-x="483" 
d="M359 622l-175 -81q-16 -7 -25 9q-7 16 7 25l167 99q5 5 18.5 2t19.5 -15q6 -13 1.5 -24.5t-13.5 -14.5zM193 317v-258q41 -22 87 -22q39 0 75.5 17.5t55.5 47.5q13 17 31 5q15 -15 6 -31q-28 -37 -74 -59.5t-94 -22.5q-93 0 -159 66t-66 159q0 88 60 152t146 72h14h5
q32 0 58 -9q6 0 15 -5q2 0 4 -1l29 -14q44 -24 60 -69q16 -47 -5 -89q-12 -22 -35.5 -29t-45.5 4q-24 12 -31 35q-8 25 4 44v2l17 31q7 11 2 28q-3 14 -18 19q0 1 -2.5 2t-2.5 2h-2q-22 7 -47 7h-14q-30 -5 -51.5 -29t-21.5 -55zM150 93v224q0 11 4 33q-55 -52 -55 -131
q0 -75 51 -126zM388 322l-17 -31q-3 -8 0 -10q1 -5 8 -10q15 -8 22 4q14 27 3 56q-1 4 -4 11l-3 6q-4 -16 -9 -26z" />
    <glyph glyph-name="Ccircumflex" unicode="&#x108;" horiz-adv-x="737" 
d="M454 901l104 -98q12 -12 1 -23q-10 -12 -23 -3l-101 74l-100 -74q-13 -9 -23 3t1 23l106 100q9 9 26 4l6 -4h1q0 -2 2 -2zM696 701v-166q0 -9 -6 -15.5t-16 -6.5q-9 0 -15.5 6.5t-6.5 15.5v58q-11 11 -35 29q-81 55 -180 55h-1q-62 0 -106 -44.5t-43 -107.5v-443
q71 -37 150 -37q99 0 180 55q9 7 34 27q0 1 0.5 1t0.5 1v59q0 9 6.5 15.5t15.5 6.5q10 0 16 -6.5t6 -15.5v-166q0 -9 -6 -15.5t-16 -6.5q-9 0 -15.5 6.5t-6.5 15.5v50q-2 -2 -5 -4.5t-5 -3.5q-94 -63 -205 -63q-74 0 -140 28q-64 27 -114 77q-50 49 -78 115q-28 68 -28 140
t28 140q28 66 78 115q50 50 114 77q65 28 140 28q113 0 205 -63q6 -4 10 -8v51q0 9 6.5 15.5t15.5 6.5q10 0 16 -6.5t6 -15.5zM243 111v414q-1 58 30 107q-31 -20 -59 -47q-93 -93 -93 -224t93 -224q14 -14 29 -26z" />
    <glyph glyph-name="ccircumflex" unicode="&#x109;" horiz-adv-x="483" 
d="M293 668l104 -98q12 -12 1 -23q-10 -12 -23 -3l-101 74l-100 -74q-13 -9 -23 3t1 23l106 100q9 9 26 4l6 -4h1q0 -2 2 -2zM193 317v-258q41 -22 87 -22q39 0 75.5 17.5t55.5 47.5q13 17 31 5q15 -15 6 -31q-28 -37 -74 -59.5t-94 -22.5q-93 0 -159 66t-66 159
q0 88 60 152t146 72h14h5q32 0 58 -9q6 0 15 -5q2 0 4 -1l29 -14q44 -24 60 -69q16 -47 -5 -89q-12 -22 -35.5 -29t-45.5 4q-24 12 -31 35q-8 25 4 44v2l17 31q7 11 2 28q-3 14 -18 19q0 1 -2.5 2t-2.5 2h-2q-22 7 -47 7h-14q-30 -5 -51.5 -29t-21.5 -55zM150 93v224
q0 11 4 33q-55 -52 -55 -131q0 -75 51 -126zM388 322l-17 -31q-3 -8 0 -10q1 -5 8 -10q15 -8 22 4q14 27 3 56q-1 4 -4 11l-3 6q-4 -16 -9 -26z" />
    <glyph glyph-name="Cdotaccent" unicode="&#x10a;" horiz-adv-x="737" 
d="M434 790q23 0 39.5 16.5t16.5 40.5q0 23 -16.5 39.5t-39.5 16.5q-24 0 -40.5 -16.5t-16.5 -39.5q0 -24 16.5 -40.5t40.5 -16.5zM434 860q13 0 13 -13t-13 -13t-13 13t13 13zM696 701v-166q0 -9 -6 -15.5t-16 -6.5q-9 0 -15.5 6.5t-6.5 15.5v58q-11 11 -35 29
q-81 55 -180 55h-1q-62 0 -106 -44.5t-43 -107.5v-443q71 -37 150 -37q99 0 180 55q9 7 34 27q0 1 0.5 1t0.5 1v59q0 9 6.5 15.5t15.5 6.5q10 0 16 -6.5t6 -15.5v-166q0 -9 -6 -15.5t-16 -6.5q-9 0 -15.5 6.5t-6.5 15.5v50q-2 -2 -5 -4.5t-5 -3.5q-94 -63 -205 -63
q-74 0 -140 28q-64 27 -114 77q-50 49 -78 115q-28 68 -28 140t28 140q28 66 78 115q50 50 114 77q65 28 140 28q113 0 205 -63q6 -4 10 -8v51q0 9 6.5 15.5t15.5 6.5q10 0 16 -6.5t6 -15.5zM243 111v414q-1 58 30 107q-31 -20 -59 -47q-93 -93 -93 -224t93 -224
q14 -14 29 -26z" />
    <glyph glyph-name="cdotaccent" unicode="&#x10b;" horiz-adv-x="483" 
d="M276 560q23 0 39.5 16.5t16.5 40.5q0 23 -16.5 39.5t-39.5 16.5q-24 0 -40.5 -16.5t-16.5 -39.5q0 -24 16.5 -40.5t40.5 -16.5zM276 630q13 0 13 -13t-13 -13t-13 13t13 13zM193 317v-258q41 -22 87 -22q39 0 75.5 17.5t55.5 47.5q13 17 31 5q15 -15 6 -31
q-28 -37 -74 -59.5t-94 -22.5q-93 0 -159 66t-66 159q0 88 60 152t146 72h14h5q32 0 58 -9q6 0 15 -5q2 0 4 -1l29 -14q44 -24 60 -69q16 -47 -5 -89q-12 -22 -35.5 -29t-45.5 4q-24 12 -31 35q-8 25 4 44v2l17 31q7 11 2 28q-3 14 -18 19q0 1 -2.5 2t-2.5 2h-2q-22 7 -47 7
h-14q-30 -5 -51.5 -29t-21.5 -55zM150 93v224q0 11 4 33q-55 -52 -55 -131q0 -75 51 -126zM388 322l-17 -31q-3 -8 0 -10q1 -5 8 -10q15 -8 22 4q14 27 3 56q-1 4 -4 11l-3 6q-4 -16 -9 -26z" />
    <glyph glyph-name="Ccaron" unicode="&#x10c;" horiz-adv-x="737" 
d="M414 777l-104 98q-12 12 -1 23q10 12 23 3l101 -74l100 74q13 9 23 -3t-1 -23l-106 -100q-9 -9 -26 -4l-6 4h-1q0 2 -2 2zM696 701v-166q0 -9 -6 -15.5t-16 -6.5q-9 0 -15.5 6.5t-6.5 15.5v58q-11 11 -35 29q-81 55 -180 55h-1q-62 0 -106 -44.5t-43 -107.5v-443
q71 -37 150 -37q99 0 180 55q9 7 34 27q0 1 0.5 1t0.5 1v59q0 9 6.5 15.5t15.5 6.5q10 0 16 -6.5t6 -15.5v-166q0 -9 -6 -15.5t-16 -6.5q-9 0 -15.5 6.5t-6.5 15.5v50q-2 -2 -5 -4.5t-5 -3.5q-94 -63 -205 -63q-74 0 -140 28q-64 27 -114 77q-50 49 -78 115q-28 68 -28 140
t28 140q28 66 78 115q50 50 114 77q65 28 140 28q113 0 205 -63q6 -4 10 -8v51q0 9 6.5 15.5t15.5 6.5q10 0 16 -6.5t6 -15.5zM243 111v414q-1 58 30 107q-31 -20 -59 -47q-93 -93 -93 -224t93 -224q14 -14 29 -26z" />
    <glyph glyph-name="ccaron" unicode="&#x10d;" horiz-adv-x="483" 
d="M259 537l-104 98q-12 12 -1 23q10 12 23 3l101 -74l100 74q13 9 23 -3t-1 -23l-106 -100q-9 -9 -26 -4l-6 4h-1q0 2 -2 2zM193 317v-258q41 -22 87 -22q39 0 75.5 17.5t55.5 47.5q13 17 31 5q15 -15 6 -31q-28 -37 -74 -59.5t-94 -22.5q-93 0 -159 66t-66 159
q0 88 60 152t146 72h14h5q32 0 58 -9q6 0 15 -5q2 0 4 -1l29 -14q44 -24 60 -69q16 -47 -5 -89q-12 -22 -35.5 -29t-45.5 4q-24 12 -31 35q-8 25 4 44v2l17 31q7 11 2 28q-3 14 -18 19q0 1 -2.5 2t-2.5 2h-2q-22 7 -47 7h-14q-30 -5 -51.5 -29t-21.5 -55zM150 93v224
q0 11 4 33q-55 -52 -55 -131q0 -75 51 -126zM388 322l-17 -31q-3 -8 0 -10q1 -5 8 -10q15 -8 22 4q14 27 3 56q-1 4 -4 11l-3 6q-4 -16 -9 -26z" />
    <glyph glyph-name="Dcaron" unicode="&#x10e;" horiz-adv-x="800" 
d="M358 777l-104 98q-12 12 -1 23q10 12 23 3l101 -74l100 74q13 9 23 -3t-1 -23l-106 -100q-9 -9 -26 -4l-6 4h-1q0 2 -2 2zM430 722h111q75 0 128.5 -53.5t53.5 -129.5v-356q0 -76 -53.5 -129.5t-128.5 -53.5h-120h-2h-367q-9 0 -15.5 6.5t-6.5 15.5t6.5 15.5t15.5 6.5h73
v634h-73q-9 0 -15.5 6.5t-6.5 15.5t6.5 15.5t15.5 6.5h369h9zM169 44h104v634h-104v-634zM317 44h108q45 1 76 33.5t31 77.5v412q0 44 -29.5 76t-73.5 35h-112v-634zM680 183v356q0 58 -41 98.5t-98 40.5h-12q47 -45 47 -111v-412q0 -66 -47 -111h12q57 0 98 40.5t41 98.5z
" />
    <glyph glyph-name="dcaron" unicode="&#x10f;" horiz-adv-x="750" 
d="M627 550l26 58q-8 2 -12 4q-22 10 -30.5 31.5t1.5 43.5q9 21 30.5 29.5t44.5 -1.5q21 -9 29 -29.5t-1 -43.5l-48 -110q-7 -13 -20 -13q-3 0 -9 2q-20 9 -11 29zM515 44h29q21 0 21 -22t-21 -22h-145q-22 0 -22 22v7q-36 -32 -97 -32q-95 0 -161.5 65.5t-66.5 158.5
q0 95 66.5 161t161.5 66q59 0 97 -32v262h-29q-8 0 -14.5 5.5t-6.5 16.5q0 8 6.5 14.5t14.5 6.5h145q10 0 16 -6t6 -15v-656zM471 678h-50v-634h50v634zM664 651q13 0 13 13t-13 13t-13 -13t13 -13zM189 322v-260q38 -22 91 -22q71 0 97 58v245q-25 62 -97 62h-7
q-33 0 -58.5 -25.5t-25.5 -57.5zM146 94v228q0 6 7 32q-58 -52 -58 -133q0 -74 51 -127z" />
    <glyph glyph-name="Dcroat" unicode="&#x110;" horiz-adv-x="800" 
d="M430 722h111q75 0 128.5 -53.5t53.5 -129.5v-356q0 -76 -53.5 -129.5t-128.5 -53.5h-120h-2h-367q-9 0 -15.5 6.5t-6.5 15.5t6.5 15.5t15.5 6.5h73v218h-71q-10 0 -17 7t-7 17t7 17t17 7h71v368h-73q-9 0 -15.5 6.5t-6.5 15.5t6.5 15.5t15.5 6.5h369h9zM169 310h104v368
h-104v-368zM317 44h108q45 1 76 33.5t31 77.5v412q0 44 -29.5 76t-73.5 35h-112v-368h71q10 0 17 -7t7 -17t-7 -17t-17 -7h-71v-218zM680 183v356q0 58 -41 98.5t-98 40.5h-12q47 -45 47 -111v-412q0 -66 -47 -111h12q57 0 98 40.5t41 98.5zM273 44v218h-104v-218h104z" />
    <glyph glyph-name="dcroat" unicode="&#x111;" horiz-adv-x="568" 
d="M516 538v-491h29q21 0 21 -22t-21 -22h-145q-22 0 -22 22v7q-36 -32 -97 -32q-95 0 -161.5 65.5t-66.5 158.5q0 95 66.5 161t161.5 66q59 0 97 -32v119h-136q-9 0 -15.5 6.5t-6.5 15.5q0 10 6.5 16t15.5 6h136v99h-29q-8 0 -14.5 5.5t-6.5 16.5q0 8 6.5 14.5t14.5 6.5
h145q10 0 16 -6t6 -15v-121h43q9 0 15.5 -6t6.5 -16q0 -9 -6.5 -15.5t-15.5 -6.5h-43zM422 582h50v99h-50v-99zM472 538h-50v-491h50v491zM378 101v245q-25 62 -97 62h-7q-33 0 -58.5 -25.5t-25.5 -57.5v-260q38 -22 91 -22q71 0 97 58zM147 97v228q0 6 7 32
q-58 -52 -58 -133q0 -74 51 -127z" />
    <glyph glyph-name="Emacron" unicode="&#x112;" horiz-adv-x="734" 
d="M267 810h217q9 0 15.5 6.5t6.5 15.5t-6.5 15.5t-15.5 6.5h-217q-9 0 -15.5 -6.5t-6.5 -15.5t6.5 -15.5t15.5 -6.5zM670 700v-91q0 -9 -6.5 -15.5t-15.5 -6.5t-15.5 6.5t-6.5 15.5v69h-309v-373h144v71q0 9 6.5 15.5t15.5 6.5t15.5 -6.5t6.5 -15.5v-184q0 -9 -6.5 -15.5
t-15.5 -6.5t-15.5 6.5t-6.5 15.5v69h-144v-217h309v69q0 9 6.5 15.5t15.5 6.5t15.5 -6.5t6.5 -15.5v-91q0 -9 -6.5 -15.5t-15.5 -6.5h-596q-9 0 -15.5 6.5t-6.5 15.5t6.5 15.5t15.5 6.5h73v634h-73q-9 0 -15.5 6.5t-6.5 15.5t6.5 15.5t15.5 6.5h596q9 0 15.5 -6.5t6.5 -15.5
zM273 678h-104v-373h104v373zM273 261h-104v-217h104v217z" />
    <glyph glyph-name="emacron" unicode="&#x113;" horiz-adv-x="533" 
d="M165 564h217q9 0 15.5 6.5t6.5 15.5t-6.5 15.5t-15.5 6.5h-217q-9 0 -15.5 -6.5t-6.5 -15.5t6.5 -15.5t15.5 -6.5zM295 -5h-25q-91 0 -158 66.5t-67 159.5q0 91 67 156t158 65q73 0 132 -44t83 -116q8 -34 -7 -58q-15 -18 -54 -18h-240v-147q37 -20 86 -20h25
q84 0 140 64q5 8 14.5 9t14.5 -5q7 -6 8 -15.5t-5 -14.5q-67 -82 -172 -82zM184 249h168l-3 68q0 35 -23 59t-56 24h-3q-33 0 -58 -24t-25 -59v-68zM396 249h32q14 0 18 4q0 3 -4 15q-15 52 -53 85q4 -10 4 -36zM142 92v225q0 22 4 33q-58 -52 -58 -129t54 -129z" />
    <glyph glyph-name="Ebreve" unicode="&#x114;" horiz-adv-x="734" 
d="M372 781q61 0 106 25q48 26 56 70q1 9 -4.5 16.5t-14.5 8.5t-16 -4.5t-9 -14.5q-3 -21 -33 -38q-36 -19 -85 -19q-48 0 -84 19q-30 17 -33 38q-2 9 -9 14.5t-16 4.5q-9 -2 -14.5 -9t-4.5 -16q6 -44 56 -70q45 -25 105 -25zM670 700v-91q0 -9 -6.5 -15.5t-15.5 -6.5
t-15.5 6.5t-6.5 15.5v69h-309v-373h144v71q0 9 6.5 15.5t15.5 6.5t15.5 -6.5t6.5 -15.5v-184q0 -9 -6.5 -15.5t-15.5 -6.5t-15.5 6.5t-6.5 15.5v69h-144v-217h309v69q0 9 6.5 15.5t15.5 6.5t15.5 -6.5t6.5 -15.5v-91q0 -9 -6.5 -15.5t-15.5 -6.5h-596q-9 0 -15.5 6.5
t-6.5 15.5t6.5 15.5t15.5 6.5h73v634h-73q-9 0 -15.5 6.5t-6.5 15.5t6.5 15.5t15.5 6.5h596q9 0 15.5 -6.5t6.5 -15.5zM273 678h-104v-373h104v373zM273 261h-104v-217h104v217z" />
    <glyph glyph-name="ebreve" unicode="&#x115;" horiz-adv-x="533" 
d="M266 535q61 0 106 25q48 26 56 70q1 9 -4.5 16.5t-14.5 8.5t-16 -4.5t-9 -14.5q-3 -21 -33 -38q-36 -19 -85 -19q-48 0 -84 19q-30 17 -33 38q-2 9 -9 14.5t-16 4.5q-9 -2 -14.5 -9t-4.5 -16q6 -44 56 -70q45 -25 105 -25zM295 -5h-25q-91 0 -158 66.5t-67 159.5
q0 91 67 156t158 65q73 0 132 -44t83 -116q8 -34 -7 -58q-15 -18 -54 -18h-240v-147q37 -20 86 -20h25q84 0 140 64q5 8 14.5 9t14.5 -5q7 -6 8 -15.5t-5 -14.5q-67 -82 -172 -82zM184 249h168l-3 68q0 35 -23 59t-56 24h-3q-33 0 -58 -24t-25 -59v-68zM396 249h32
q14 0 18 4q0 3 -4 15q-15 52 -53 85q4 -10 4 -36zM142 92v225q0 22 4 33q-58 -52 -58 -129t54 -129z" />
    <glyph glyph-name="Edotaccent" unicode="&#x116;" horiz-adv-x="734" 
d="M363 790q23 0 39.5 16.5t16.5 40.5q0 23 -16.5 39.5t-39.5 16.5q-24 0 -40.5 -16.5t-16.5 -39.5q0 -24 16.5 -40.5t40.5 -16.5zM363 860q13 0 13 -13t-13 -13t-13 13t13 13zM670 700v-91q0 -9 -6.5 -15.5t-15.5 -6.5t-15.5 6.5t-6.5 15.5v69h-309v-373h144v71
q0 9 6.5 15.5t15.5 6.5t15.5 -6.5t6.5 -15.5v-184q0 -9 -6.5 -15.5t-15.5 -6.5t-15.5 6.5t-6.5 15.5v69h-144v-217h309v69q0 9 6.5 15.5t15.5 6.5t15.5 -6.5t6.5 -15.5v-91q0 -9 -6.5 -15.5t-15.5 -6.5h-596q-9 0 -15.5 6.5t-6.5 15.5t6.5 15.5t15.5 6.5h73v634h-73
q-9 0 -15.5 6.5t-6.5 15.5t6.5 15.5t15.5 6.5h596q9 0 15.5 -6.5t6.5 -15.5zM273 678h-104v-373h104v373zM273 261h-104v-217h104v217z" />
    <glyph glyph-name="edotaccent" unicode="&#x117;" horiz-adv-x="523" 
d="M268 532q23 0 39.5 16.5t16.5 40.5q0 23 -16.5 39.5t-39.5 16.5q-24 0 -40.5 -16.5t-16.5 -39.5q0 -24 16.5 -40.5t40.5 -16.5zM268 602q13 0 13 -13t-13 -13t-13 13t13 13zM295 -5h-25q-91 0 -158 66.5t-67 159.5q0 91 67 156t158 65q73 0 132 -44t83 -116q8 -34 -7 -58
q-15 -18 -54 -18h-240v-147q37 -20 86 -20h25q84 0 140 64q5 8 14.5 9t14.5 -5q7 -6 8 -15.5t-5 -14.5q-67 -82 -172 -82zM184 249h168l-3 68q0 35 -23 59t-56 24h-3q-33 0 -58 -24t-25 -59v-68zM396 249h32q14 0 18 4q0 3 -4 15q-15 52 -53 85q4 -10 4 -36zM142 92v225
q0 22 4 33q-58 -52 -58 -129t54 -129z" />
    <glyph glyph-name="Eogonek" unicode="&#x118;" horiz-adv-x="743" 
d="M660 4l-67 -67q-10 -10 -10 -24t10 -24t24 -10q12 0 24 10q15 16 31 0t0 -31q-23 -23 -55 -23t-55 23q-23 22 -23 54.5t23 55.5l32 32h-542q-9 0 -15.5 6.5t-6.5 15.5t6.5 15.5t15.5 6.5h73v634h-73q-9 0 -15.5 6.5t-6.5 15.5t6.5 15.5t15.5 6.5h596q9 0 15.5 -6.5
t6.5 -15.5v-91q0 -9 -6.5 -15.5t-15.5 -6.5t-15.5 6.5t-6.5 15.5v69h-309v-373h144v71q0 9 6.5 15.5t15.5 6.5t15.5 -6.5t6.5 -15.5v-184q0 -9 -6.5 -15.5t-15.5 -6.5t-15.5 6.5t-6.5 15.5v69h-144v-217h309v69q0 9 6.5 15.5t15.5 6.5t15.5 -6.5t6.5 -15.5v-91
q0 -11 -10 -18zM273 678h-104v-373h104v373zM273 261h-104v-217h104v217z" />
    <glyph glyph-name="eogonek" unicode="&#x119;" horiz-adv-x="523" 
d="M295 -4h-25q-91 0 -158 66.5t-67 159.5q0 91 67 156t158 65q73 0 132 -44t83 -116q8 -34 -7 -58q-15 -18 -54 -18h-240v-147q37 -20 86 -20h25q84 0 140 64q5 8 14.5 9t14.5 -5q7 -6 8 -15.5t-5 -14.5q-13 -16 -30 -30q-7 -7 -32.5 -28.5t-35.5 -31.5l-32 -32
q-10 -10 -10 -24t10 -24t24 -10q12 0 24 10q15 16 31 0t0 -31q-23 -23 -55 -23t-55 23q-23 22 -23 54.5t23 55.5l10 10q-7 -1 -21 -1zM352 250l-3 68q0 35 -23 59t-56 24h-3q-33 0 -58 -24t-25 -59v-68h168zM396 250h32q14 0 18 4q0 3 -4 15q-15 52 -53 85q4 -10 4 -36z
M142 93v225q0 22 4 33q-58 -52 -58 -129t54 -129z" />
    <glyph glyph-name="Ecaron" unicode="&#x11a;" horiz-adv-x="734" 
d="M354 777l-104 98q-12 12 -1 23q10 12 23 3l101 -74l100 74q13 9 23 -3t-1 -23l-106 -100q-9 -9 -26 -4l-6 4h-1q0 2 -2 2zM670 700v-91q0 -9 -6.5 -15.5t-15.5 -6.5t-15.5 6.5t-6.5 15.5v69h-309v-373h144v71q0 9 6.5 15.5t15.5 6.5t15.5 -6.5t6.5 -15.5v-184
q0 -9 -6.5 -15.5t-15.5 -6.5t-15.5 6.5t-6.5 15.5v69h-144v-217h309v69q0 9 6.5 15.5t15.5 6.5t15.5 -6.5t6.5 -15.5v-91q0 -9 -6.5 -15.5t-15.5 -6.5h-596q-9 0 -15.5 6.5t-6.5 15.5t6.5 15.5t15.5 6.5h73v634h-73q-9 0 -15.5 6.5t-6.5 15.5t6.5 15.5t15.5 6.5h596
q9 0 15.5 -6.5t6.5 -15.5zM273 678h-104v-373h104v373zM273 261h-104v-217h104v217z" />
    <glyph glyph-name="ecaron" unicode="&#x11b;" horiz-adv-x="523" 
d="M253 535l-104 98q-12 12 -1 23q10 12 23 3l101 -74l100 74q13 9 23 -3t-1 -23l-106 -100q-9 -9 -26 -4l-6 4h-1q0 2 -2 2zM295 -5h-25q-91 0 -158 66.5t-67 159.5q0 91 67 156t158 65q73 0 132 -44t83 -116q8 -34 -7 -58q-15 -18 -54 -18h-240v-147q37 -20 86 -20h25
q84 0 140 64q5 8 14.5 9t14.5 -5q7 -6 8 -15.5t-5 -14.5q-67 -82 -172 -82zM184 249h168l-3 68q0 35 -23 59t-56 24h-3q-33 0 -58 -24t-25 -59v-68zM396 249h32q14 0 18 4q0 3 -4 15q-15 52 -53 85q4 -10 4 -36zM142 92v225q0 22 4 33q-58 -52 -58 -129t54 -129z" />
    <glyph glyph-name="Gcircumflex" unicode="&#x11c;" horiz-adv-x="835" 
d="M453 901l104 -98q12 -12 1 -23q-10 -12 -23 -3l-101 74l-100 -74q-13 -9 -23 3t1 23l106 100q9 9 26 4l6 -4h1q0 -2 2 -2zM592 243h199q22 0 22 -22q0 -9 -6 -15.5t-16 -6.5h-74v-177q0 -9 -6 -15.5t-16 -6.5q-9 0 -15.5 6.5t-6.5 15.5v66q-102 -88 -236 -88
q-70 0 -140 28q-65 27 -114 78q-51 50 -78 114q-28 70 -28 140q0 71 28 141q27 65 78 114q49 49 114 78q68 28 140 28q134 0 236 -88v67q0 10 6.5 16t15.5 6q22 0 22 -22v-199q0 -9 -6 -15.5t-16 -6.5q-9 0 -15.5 6.5t-6.5 15.5v70q-95 106 -236 106h-1q-62 -1 -106 -45.5
t-43 -107.5v-442q70 -38 150 -38q142 0 236 106v49h-81q-9 0 -15.5 6.5t-6.5 15.5q0 10 6.5 16t15.5 6zM242 111v413q0 59 31 107q-31 -19 -59 -47q-93 -93 -93 -224q0 -132 93 -223q5 -6 28 -26z" />
    <glyph glyph-name="gcircumflex" unicode="&#x11d;" horiz-adv-x="547" 
d="M279 659l104 -98q12 -12 1 -23q-10 -12 -23 -3l-101 74l-100 -74q-13 -9 -23 3t1 23l106 100q9 9 26 4l6 -4h1q0 -2 2 -2zM119 129l3 3q-78 54 -78 135q0 71 60.5 121t147.5 50q90 0 147 -48q8 20 28 34t42 14q33 0 55.5 -23t22.5 -54t-22.5 -53t-55.5 -22h-4v-19
q0 -47 -21.5 -82.5t-55.5 -53.5t-67 -26.5t-65 -8.5h-4q-58 0 -88 15q-11 -11 -11 -26q0 -21 13 -35t31 -14h122q60 0 103 -42.5t43 -102.5v-42q0 -61 -43 -104.5t-103 -43.5h-107q-62 0 -104 41.5t-44 103.5v3q0 9 6 16.5t15 7.5t15.5 -7.5t6.5 -16.5v-3q0 -42 30.5 -71
t74.5 -29h74q27 0 46.5 21t19.5 49v11q0 30 -19 48.5t-47 18.5h-89q-53 0 -93 37.5t-40 84.5q0 46 55 113zM179 338l-5 -183q35 -13 78 -13h23q25 2 40.5 16t15.5 34l3 182q-34 20 -82 20h-3q-28 0 -49 -17t-21 -39zM469 330q14 0 24 9t10 22t-10 23t-24 10q-11 0 -20.5 -10
t-9.5 -23t9 -22t21 -9zM132 338v14q-43 -38 -43 -85q0 -50 40 -85zM375 192v-15q46 39 46 90q0 46 -41 82zM319 -8h-122q-26 0 -49 14.5t-34 39.5q-7 -23 -7 -30q0 -29 26.5 -53.5t63.5 -24.5h89q45 0 79 -32t34 -79v-11q0 -26 -9 -37q31 29 31 70v42q0 42 -30 71.5
t-72 29.5z" />
    <glyph glyph-name="Gbreve" unicode="&#x11e;" horiz-adv-x="835" 
d="M437 781q61 0 106 25q48 26 56 70q1 9 -4.5 16.5t-14.5 8.5t-16 -4.5t-9 -14.5q-3 -21 -33 -38q-36 -19 -85 -19q-48 0 -84 19q-30 17 -33 38q-2 9 -9 14.5t-16 4.5q-9 -2 -14.5 -9t-4.5 -16q6 -44 56 -70q45 -25 105 -25zM592 243h199q22 0 22 -22q0 -9 -6 -15.5
t-16 -6.5h-74v-177q0 -9 -6 -15.5t-16 -6.5q-9 0 -15.5 6.5t-6.5 15.5v66q-102 -88 -236 -88q-70 0 -140 28q-65 27 -114 78q-51 50 -78 114q-28 70 -28 140q0 71 28 141q27 65 78 114q49 49 114 78q68 28 140 28q134 0 236 -88v67q0 10 6.5 16t15.5 6q22 0 22 -22v-199
q0 -9 -6 -15.5t-16 -6.5q-9 0 -15.5 6.5t-6.5 15.5v70q-95 106 -236 106h-1q-62 -1 -106 -45.5t-43 -107.5v-442q70 -38 150 -38q142 0 236 106v49h-81q-9 0 -15.5 6.5t-6.5 15.5q0 10 6.5 16t15.5 6zM242 111v413q0 59 31 107q-31 -19 -59 -47q-93 -93 -93 -224
q0 -132 93 -223q5 -6 28 -26z" />
    <glyph glyph-name="gbreve" unicode="&#x11f;" horiz-adv-x="547" 
d="M264 534q61 0 106 25q48 26 56 70q1 9 -4.5 16.5t-14.5 8.5t-16 -4.5t-9 -14.5q-3 -21 -33 -38q-36 -19 -85 -19q-48 0 -84 19q-30 17 -33 38q-2 9 -9 14.5t-16 4.5q-9 -2 -14.5 -9t-4.5 -16q6 -44 56 -70q45 -25 105 -25zM119 129l3 3q-78 54 -78 135q0 71 60.5 121
t147.5 50q90 0 147 -48q8 20 28 34t42 14q33 0 55.5 -23t22.5 -54t-22.5 -53t-55.5 -22h-4v-19q0 -47 -21.5 -82.5t-55.5 -53.5t-67 -26.5t-65 -8.5h-4q-58 0 -88 15q-11 -11 -11 -26q0 -21 13 -35t31 -14h122q60 0 103 -42.5t43 -102.5v-42q0 -61 -43 -104.5t-103 -43.5
h-107q-62 0 -104 41.5t-44 103.5v3q0 9 6 16.5t15 7.5t15.5 -7.5t6.5 -16.5v-3q0 -42 30.5 -71t74.5 -29h74q27 0 46.5 21t19.5 49v11q0 30 -19 48.5t-47 18.5h-89q-53 0 -93 37.5t-40 84.5q0 46 55 113zM179 338l-5 -183q35 -13 78 -13h23q25 2 40.5 16t15.5 34l3 182
q-34 20 -82 20h-3q-28 0 -49 -17t-21 -39zM469 330q14 0 24 9t10 22t-10 23t-24 10q-11 0 -20.5 -10t-9.5 -23t9 -22t21 -9zM132 338v14q-43 -38 -43 -85q0 -50 40 -85zM375 192v-15q46 39 46 90q0 46 -41 82zM319 -8h-122q-26 0 -49 14.5t-34 39.5q-7 -23 -7 -30
q0 -29 26.5 -53.5t63.5 -24.5h89q45 0 79 -32t34 -79v-11q0 -26 -9 -37q31 29 31 70v42q0 42 -30 71.5t-72 29.5z" />
    <glyph glyph-name="Gdotaccent" unicode="&#x120;" horiz-adv-x="835" 
d="M436 790q23 0 39.5 16.5t16.5 40.5q0 23 -16.5 39.5t-39.5 16.5q-24 0 -40.5 -16.5t-16.5 -39.5q0 -24 16.5 -40.5t40.5 -16.5zM436 860q13 0 13 -13t-13 -13t-13 13t13 13zM592 243h199q22 0 22 -22q0 -9 -6 -15.5t-16 -6.5h-74v-177q0 -9 -6 -15.5t-16 -6.5
q-9 0 -15.5 6.5t-6.5 15.5v66q-102 -88 -236 -88q-70 0 -140 28q-65 27 -114 78q-51 50 -78 114q-28 70 -28 140q0 71 28 141q27 65 78 114q49 49 114 78q68 28 140 28q134 0 236 -88v67q0 10 6.5 16t15.5 6q22 0 22 -22v-199q0 -9 -6 -15.5t-16 -6.5q-9 0 -15.5 6.5
t-6.5 15.5v70q-95 106 -236 106h-1q-62 -1 -106 -45.5t-43 -107.5v-442q70 -38 150 -38q142 0 236 106v49h-81q-9 0 -15.5 6.5t-6.5 15.5q0 10 6.5 16t15.5 6zM242 111v413q0 59 31 107q-31 -19 -59 -47q-93 -93 -93 -224q0 -132 93 -223q5 -6 28 -26z" />
    <glyph glyph-name="gdotaccent" unicode="&#x121;" horiz-adv-x="547" 
d="M258 532q23 0 39.5 16.5t16.5 40.5q0 23 -16.5 39.5t-39.5 16.5q-24 0 -40.5 -16.5t-16.5 -39.5q0 -24 16.5 -40.5t40.5 -16.5zM258 602q13 0 13 -13t-13 -13t-13 13t13 13zM119 129l3 3q-78 54 -78 135q0 71 60.5 121t147.5 50q90 0 147 -48q8 20 28 34t42 14
q33 0 55.5 -23t22.5 -54t-22.5 -53t-55.5 -22h-4v-19q0 -47 -21.5 -82.5t-55.5 -53.5t-67 -26.5t-65 -8.5h-4q-58 0 -88 15q-11 -11 -11 -26q0 -21 13 -35t31 -14h122q60 0 103 -42.5t43 -102.5v-42q0 -61 -43 -104.5t-103 -43.5h-107q-62 0 -104 41.5t-44 103.5v3
q0 9 6 16.5t15 7.5t15.5 -7.5t6.5 -16.5v-3q0 -42 30.5 -71t74.5 -29h74q27 0 46.5 21t19.5 49v11q0 30 -19 48.5t-47 18.5h-89q-53 0 -93 37.5t-40 84.5q0 46 55 113zM179 338l-5 -183q35 -13 78 -13h23q25 2 40.5 16t15.5 34l3 182q-34 20 -82 20h-3q-28 0 -49 -17
t-21 -39zM469 330q14 0 24 9t10 22t-10 23t-24 10q-11 0 -20.5 -10t-9.5 -23t9 -22t21 -9zM132 338v14q-43 -38 -43 -85q0 -50 40 -85zM375 192v-15q46 39 46 90q0 46 -41 82zM319 -8h-122q-26 0 -49 14.5t-34 39.5q-7 -23 -7 -30q0 -29 26.5 -53.5t63.5 -24.5h89
q45 0 79 -32t34 -79v-11q0 -26 -9 -37q31 29 31 70v42q0 42 -30 71.5t-72 29.5z" />
    <glyph glyph-name="Gcedilla" unicode="&#x122;" horiz-adv-x="835" 
d="M592 244h199q22 0 22 -22q0 -9 -6 -15.5t-16 -6.5h-74v-177q0 -9 -6 -15.5t-16 -6.5q-9 0 -15.5 6.5t-6.5 15.5v66q-85 -73 -195 -85l-7 -18q26 -16 26 -48q0 -24 -16.5 -40.5t-39.5 -16.5q-24 0 -41 17q-6 6 -6 15t6 16q16 14 32 0q3 -4 9 -4q12 0 12 13t-12 13
q-13 0 -19 10q-7 11 -1 21l8 19q-65 1 -132 28q-65 27 -114 78q-51 49 -78 114q-28 70 -28 140q0 71 28 141q27 64 78 114q49 50 114 78q68 28 139 28h1q134 0 236 -88v67q0 10 6.5 16t15.5 6q22 0 22 -22v-199q0 -9 -6 -15.5t-16 -6.5q-9 0 -15.5 6.5t-6.5 15.5v70
q-95 106 -236 106h-1q-62 -1 -106 -45.5t-43 -107.5v-442q70 -38 150 -38q142 0 236 106v49h-81q-9 0 -15.5 6.5t-6.5 15.5q0 10 6.5 16t15.5 6zM243 112v413q-1 58 30 107q-31 -20 -59 -47q-93 -93 -93 -224q0 -132 93 -223q9 -10 29 -26z" />
    <glyph glyph-name="gcedilla" unicode="&#x123;" horiz-adv-x="547" 
d="M296 702l-26 -58q8 -2 12 -4q22 -10 30.5 -31.5t-1.5 -43.5q-9 -21 -30.5 -29.5t-44.5 1.5q-21 9 -29 29.5t1 43.5l48 110q6 13 20 13q3 0 9 -2q20 -9 11 -29zM259 601q-13 0 -13 -13t13 -13t13 13t-13 13zM119 129l3 3q-78 54 -78 135q0 71 60.5 121t147.5 50
q90 0 147 -48q8 20 28 34t42 14q33 0 55.5 -23t22.5 -54t-22.5 -53t-55.5 -22h-4v-19q0 -47 -21.5 -82.5t-55.5 -53.5t-67 -26.5t-65 -8.5h-4q-58 0 -88 15q-11 -11 -11 -26q0 -21 13 -35t31 -14h122q60 0 103 -42.5t43 -102.5v-42q0 -61 -43 -104.5t-103 -43.5h-107
q-62 0 -104 41.5t-44 103.5v3q0 9 6 16.5t15 7.5t15.5 -7.5t6.5 -16.5v-3q0 -42 30.5 -71t74.5 -29h74q27 0 46.5 21t19.5 49v11q0 30 -19 48.5t-47 18.5h-89q-53 0 -93 37.5t-40 84.5q0 46 55 113zM179 338l-5 -183q35 -13 78 -13h23q25 2 40.5 16t15.5 34l3 182
q-34 20 -82 20h-3q-28 0 -49 -17t-21 -39zM469 330q14 0 24 9t10 22t-10 23t-24 10q-11 0 -20.5 -10t-9.5 -23t9 -22t21 -9zM132 338v14q-43 -38 -43 -85q0 -50 40 -85zM375 192v-15q46 39 46 90q0 46 -41 82zM319 -8h-122q-26 0 -49 14.5t-34 39.5q-7 -23 -7 -30
q0 -29 26.5 -53.5t63.5 -24.5h89q45 0 79 -32t34 -79v-11q0 -26 -9 -37q31 29 31 70v42q0 42 -30 71.5t-72 29.5z" />
    <glyph glyph-name="Hcircumflex" unicode="&#x124;" horiz-adv-x="911" 
d="M474 901l104 -98q12 -12 1 -23q-10 -12 -23 -3l-101 74l-100 -74q-13 -9 -23 3t1 23l106 100q9 9 26 4l6 -4h1q0 -2 2 -2zM787 45h72q9 0 15.5 -6.5t6.5 -15.5q0 -10 -6.5 -16.5t-15.5 -6.5h-338q-10 0 -16.5 6.5t-6.5 16.5q0 9 6.5 15.5t16.5 6.5h75v217h-277v-217h71
q9 0 15.5 -6.5t6.5 -15.5q0 -10 -6.5 -16.5t-15.5 -6.5h-337q-10 0 -16.5 6.5t-6.5 16.5q0 9 6.5 15.5t16.5 6.5h75v629h-75q-10 0 -16.5 6.5t-6.5 16.5q0 9 6.5 15.5t16.5 6.5h337q9 0 15.5 -6.5t6.5 -15.5q0 -10 -6.5 -16.5t-15.5 -6.5h-71v-367h277v367h-75
q-10 0 -16.5 6.5t-6.5 16.5q0 9 6.5 15.5t16.5 6.5h338q9 0 15.5 -6.5t6.5 -15.5q0 -10 -6.5 -16.5t-15.5 -6.5h-72v-629zM173 674v-367h101v367h-101zM641 307h101v367h-101v-367zM274 262h-101v-217h101v217zM742 45v217h-101v-217h101z" />
    <glyph glyph-name="hcircumflex" unicode="&#x125;" horiz-adv-x="571" 
d="M147 901l104 -98q12 -12 1 -23q-10 -12 -23 -3l-101 74l-100 -74q-13 -9 -23 3t1 23l106 100q9 9 26 4l6 -4h1q0 -2 2 -2zM493 43h31q8 0 15 -6.5t7 -14.5t-7 -15t-15 -7h-192q-8 0 -14.5 7t-6.5 15t6.5 14.5t14.5 6.5h25v299q0 22 -14.5 38t-35.5 16q-40 0 -68 -30
t-28 -70v-253h28q8 0 14.5 -6.5t6.5 -14.5t-6.5 -15t-14.5 -7h-192q-8 0 -15 7t-7 15t7 14.5t15 6.5h28v636h-28q-8 0 -15 6.5t-7 14.5t7 14.5t15 6.5h142q8 0 15 -6.5t7 -14.5v-301q44 40 96 40h43q62 0 102.5 -40.5t40.5 -102.5v-253zM168 43v636h-50v-636h50zM450 43v253
q0 31 -17 56.5t-44 36.5q10 -21 10 -47v-299h51z" />
    <glyph glyph-name="Hbar" unicode="&#x126;" horiz-adv-x="893" 
d="M778 578h107q9 0 15.5 -6.5t6.5 -15.5t-6.5 -15.5t-15.5 -6.5h-107v-489h72q9 0 15.5 -6.5t6.5 -15.5q0 -10 -6.5 -16.5t-15.5 -6.5h-338q-10 0 -16.5 6.5t-6.5 16.5q0 9 6.5 15.5t16.5 6.5h75v217h-277v-217h71q9 0 15.5 -6.5t6.5 -15.5q0 -10 -6.5 -16.5t-15.5 -6.5
h-337q-10 0 -16.5 6.5t-6.5 16.5q0 9 6.5 15.5t16.5 6.5h75v489h-111q-9 0 -15.5 6.5t-6.5 15.5t6.5 15.5t15.5 6.5h111v96h-75q-10 0 -16.5 6.5t-6.5 16.5q0 9 6.5 15.5t16.5 6.5h337q9 0 15.5 -6.5t6.5 -15.5q0 -10 -6.5 -16.5t-15.5 -6.5h-71v-96h277v96h-75
q-10 0 -16.5 6.5t-6.5 16.5q0 9 6.5 15.5t16.5 6.5h338q9 0 15.5 -6.5t6.5 -15.5q0 -10 -6.5 -16.5t-15.5 -6.5h-72v-96zM164 578h101v96h-101v-96zM632 578h101v96h-101v-96zM265 307v227h-101v-227h101zM587 307v227h-277v-227h277zM733 534h-101v-227h101v227zM265 262
h-101v-217h101v217zM733 262h-101v-217h101v217z" />
    <glyph glyph-name="hbar" unicode="&#x127;" horiz-adv-x="576" 
d="M493 43h31q8 0 15 -6.5t7 -14.5t-7 -15t-15 -7h-192q-8 0 -14.5 7t-6.5 15t6.5 14.5t14.5 6.5h25v299q0 22 -14.5 38t-35.5 16q-40 0 -68 -30t-28 -70v-253h28q8 0 14.5 -6.5t6.5 -14.5t-6.5 -15t-14.5 -7h-192q-8 0 -15 7t-7 15t7 14.5t15 6.5h28v494h-66
q-9 0 -15.5 6.5t-6.5 15.5t6.5 15.5t15.5 6.5h66v98h-28q-8 0 -15 6.5t-7 14.5t7 14.5t15 6.5h142q8 0 15 -6.5t7 -14.5v-119h115q9 0 15.5 -6.5t6.5 -15.5t-6.5 -15.5t-15.5 -6.5h-115v-138q44 40 96 40h43q62 0 102.5 -40.5t40.5 -102.5v-253zM118 581h50v98h-50v-98z
M168 537h-50v-494h50v494zM450 43v253q0 31 -17 56.5t-44 36.5q10 -21 10 -47v-299h51z" />
    <glyph glyph-name="Itilde" unicode="&#x128;" horiz-adv-x="447" 
d="M294 797h8q40 5 62 36q5 8 3.5 17t-9.5 14q-17 12 -30 -6q-15 -15 -30 -17q-15 -1 -57 15l-3 1l-1 1l-9 3q-48 17 -71 14q-37 -3 -69 -38q-15 -17 1 -31q17 -15 31 1q23 23 41 24q15 2 52 -11q1 0 4 -2t5 -2l3 -1q44 -18 69 -18zM320 45h72q9 0 15.5 -6.5t6.5 -15.5
q0 -10 -6.5 -16.5t-15.5 -6.5h-336q-10 0 -16.5 6.5t-6.5 16.5q0 9 6.5 15.5t16.5 6.5h75v630h-75q-10 0 -16.5 6.5t-6.5 16.5q0 9 6.5 15.5t16.5 6.5h336q9 0 15.5 -6.5t6.5 -15.5q0 -10 -6.5 -16.5t-15.5 -6.5h-72v-630zM275 45v630h-99v-630h99z" />
    <glyph glyph-name="itilde" unicode="&#x129;" horiz-adv-x="286" 
d="M212 547h8q40 5 62 36q5 8 3.5 17t-9.5 14q-17 12 -30 -6q-15 -15 -30 -17q-15 -1 -57 15l-3 1l-1 1l-9 3q-48 17 -71 14q-37 -3 -69 -38q-15 -17 1 -31q17 -15 31 1q23 23 41 24q15 2 52 -11q2 0 5 -2t4 -2l3 -1q44 -18 69 -18zM224 43h29q8 0 14.5 -7t6.5 -15
t-6.5 -14.5t-14.5 -6.5h-192q-8 0 -15 6.5t-7 14.5t7 15t15 7h28v352h-28q-8 0 -15 7t-7 15t7 14.5t15 6.5h142q8 0 14.5 -6.5t6.5 -14.5v-374zM182 43v352h-50v-352h50z" />
    <glyph glyph-name="Imacron" unicode="&#x12a;" horiz-adv-x="447" 
d="M115 810h217q9 0 15.5 6.5t6.5 15.5t-6.5 15.5t-15.5 6.5h-217q-9 0 -15.5 -6.5t-6.5 -15.5t6.5 -15.5t15.5 -6.5zM320 45h72q9 0 15.5 -6.5t6.5 -15.5q0 -10 -6.5 -16.5t-15.5 -6.5h-336q-10 0 -16.5 6.5t-6.5 16.5q0 9 6.5 15.5t16.5 6.5h75v630h-75q-10 0 -16.5 6.5
t-6.5 16.5q0 9 6.5 15.5t16.5 6.5h336q9 0 15.5 -6.5t6.5 -15.5q0 -10 -6.5 -16.5t-15.5 -6.5h-72v-630zM275 45v630h-99v-630h99z" />
    <glyph glyph-name="imacron" unicode="&#x12b;" horiz-adv-x="261" 
d="M22 559h217q9 0 15.5 6.5t6.5 15.5t-6.5 15.5t-15.5 6.5h-217q-9 0 -15.5 -6.5t-6.5 -15.5t6.5 -15.5t15.5 -6.5zM209 43h29q8 0 14.5 -7t6.5 -15t-6.5 -14.5t-14.5 -6.5h-192q-8 0 -15 6.5t-7 14.5t7 15t15 7h28v352h-28q-8 0 -15 7t-7 15t7 14.5t15 6.5h142
q8 0 14.5 -6.5t6.5 -14.5v-374zM167 43v352h-50v-352h50z" />
    <glyph glyph-name="Ibreve" unicode="&#x12c;" horiz-adv-x="447" 
d="M225 781q61 0 106 25q48 26 56 70q1 9 -4.5 16.5t-14.5 8.5t-16 -4.5t-9 -14.5q-3 -21 -33 -38q-36 -19 -85 -19q-48 0 -84 19q-30 17 -33 38q-2 9 -9 14.5t-16 4.5q-9 -2 -14.5 -9t-4.5 -16q6 -44 56 -70q45 -25 105 -25zM320 45h72q9 0 15.5 -6.5t6.5 -15.5
q0 -10 -6.5 -16.5t-15.5 -6.5h-336q-10 0 -16.5 6.5t-6.5 16.5q0 9 6.5 15.5t16.5 6.5h75v630h-75q-10 0 -16.5 6.5t-6.5 16.5q0 9 6.5 15.5t16.5 6.5h336q9 0 15.5 -6.5t6.5 -15.5q0 -10 -6.5 -16.5t-15.5 -6.5h-72v-630zM275 45v630h-99v-630h99z" />
    <glyph glyph-name="ibreve" unicode="&#x12d;" horiz-adv-x="323" 
d="M161 524q61 0 106 25q48 26 56 70q1 9 -4.5 16.5t-14.5 8.5t-16 -4.5t-9 -14.5q-3 -21 -33 -38q-36 -19 -85 -19q-48 0 -84 19q-30 17 -33 38q-2 9 -9 14.5t-16 4.5q-9 -2 -14.5 -9t-4.5 -16q6 -44 56 -70q45 -25 105 -25zM236 43h29q8 0 14.5 -7t6.5 -15t-6.5 -14.5
t-14.5 -6.5h-192q-8 0 -15 6.5t-7 14.5t7 15t15 7h28v352h-28q-8 0 -15 7t-7 15t7 14.5t15 6.5h142q8 0 14.5 -6.5t6.5 -14.5v-374zM194 43v352h-50v-352h50z" />
    <glyph glyph-name="Iogonek" unicode="&#x12e;" horiz-adv-x="447" 
d="M320 45h72q9 0 15.5 -6.5t6.5 -15.5q0 -10 -6.5 -16.5t-15.5 -6.5h-81l-63 -63q-10 -10 -10 -24t10 -24t24 -10q12 0 24 10q15 16 31 0t0 -31q-23 -23 -55 -23t-55 23q-23 22 -23 55t23 55l32 32h-193q-10 0 -16.5 6.5t-6.5 16.5q0 9 6.5 15.5t16.5 6.5h75v630h-75
q-10 0 -16.5 6.5t-6.5 16.5q0 9 6.5 15.5t16.5 6.5h336q9 0 15.5 -6.5t6.5 -15.5q0 -10 -6.5 -16.5t-15.5 -6.5h-72v-630zM176 45h99v630h-99v-630z" />
    <glyph glyph-name="iogonek" unicode="&#x12f;" horiz-adv-x="291" 
d="M145 577q-30 0 -51 21.5t-21 53.5q0 29 21.5 50t50.5 21t50 -21t21 -50q0 -32 -20.5 -53.5t-50.5 -21.5zM145 681q-13 0 -21 -9t-8 -20q0 -14 8 -23t21 -9q28 0 28 32q0 11 -7.5 20t-20.5 9zM213 45h29q8 0 14.5 -7t6.5 -15t-6.5 -14.5t-14.5 -6.5h-30l-59 -59
q-10 -10 -10 -24t10 -24t24 -10q12 0 24 10q15 16 31 0t0 -31q-23 -23 -55 -23t-55 23q-23 22 -23 55t23 55l28 28h-100q-8 0 -15 6.5t-7 14.5t7 15t15 7h28v352h-28q-8 0 -15 7t-7 15t7 14.5t15 6.5h142q8 0 14.5 -6.5t6.5 -14.5v-374zM121 45h50v352h-50v-352z" />
    <glyph glyph-name="Idotaccent" unicode="&#x130;" horiz-adv-x="447" 
d="M225 790q23 0 39.5 16.5t16.5 40.5q0 23 -16.5 39.5t-39.5 16.5q-24 0 -40.5 -16.5t-16.5 -39.5q0 -24 16.5 -40.5t40.5 -16.5zM225 860q13 0 13 -13t-13 -13t-13 13t13 13zM320 45h72q9 0 15.5 -6.5t6.5 -15.5q0 -10 -6.5 -16.5t-15.5 -6.5h-336q-10 0 -16.5 6.5
t-6.5 16.5q0 9 6.5 15.5t16.5 6.5h75v630h-75q-10 0 -16.5 6.5t-6.5 16.5q0 9 6.5 15.5t16.5 6.5h336q9 0 15.5 -6.5t6.5 -15.5q0 -10 -6.5 -16.5t-15.5 -6.5h-72v-630zM275 45v630h-99v-630h99z" />
    <glyph glyph-name="dotlessi" unicode="&#x131;" horiz-adv-x="296" 
d="M213 43h29q8 0 14.5 -7t6.5 -15t-6.5 -14.5t-14.5 -6.5h-192q-8 0 -15 6.5t-7 14.5t7 15t15 7h28v352h-28q-8 0 -15 7t-7 15t7 14.5t15 6.5h142q8 0 14.5 -6.5t6.5 -14.5v-374zM171 43v352h-50v-352h50z" />
    <glyph glyph-name="IJ" unicode="&#x132;" horiz-adv-x="939" 
d="M320 45h72q9 0 15.5 -6.5t6.5 -15.5q0 -10 -6.5 -16.5t-15.5 -6.5h-336q-10 0 -16.5 6.5t-6.5 16.5q0 9 6.5 15.5t16.5 6.5h75v630h-75q-10 0 -16.5 6.5t-6.5 16.5q0 9 6.5 15.5t16.5 6.5h336q9 0 15.5 -6.5t6.5 -15.5q0 -10 -6.5 -16.5t-15.5 -6.5h-72v-630zM555 720
h334q9 0 15.5 -6.5t6.5 -15.5t-6.5 -15.5t-15.5 -6.5h-70v-498q0 -74 -54 -126t-128 -52h-71q-73 0 -127 52q-53 53 -53 127v1l1 11q0 31 22.5 53.5t53.5 22.5t55 -22q22 -22 25 -55v-100q0 -19 11.5 -30.5t28.5 -11.5h2q19 0 31 12q13 13 13 30v586h-74q-10 0 -16 6.5
t-6 15.5t6 15.5t16 6.5zM775 676h-102v-586q0 -22 -12 -44q49 8 81.5 45.5t32.5 86.5v498zM275 45v630h-99v-630h99zM431 189l-1 -10q0 -56 40 -96q15 -15 34 -24q-5 11 -5 31l-1 18v82q0 13 -10.5 23t-24.5 10q-13 0 -22.5 -10t-9.5 -24z" />
    <glyph glyph-name="ij" unicode="&#x133;" horiz-adv-x="561" 
d="M142 575q-30 0 -51 21.5t-21 53.5q0 29 21.5 50t50.5 21t50 -21t21 -50q0 -32 -20.5 -53.5t-50.5 -21.5zM407 569q-32 0 -53.5 22t-21.5 55q0 32 22 53.5t53 21.5q30 0 51.5 -22t21.5 -53q0 -33 -21.5 -55t-51.5 -22zM142 679q-13 0 -21 -9t-8 -20q0 -14 8 -23t21 -9
q28 0 28 32q0 11 -7.5 20t-20.5 9zM407 676q-14 0 -22 -9t-8 -21q0 -14 8 -23t22 -9q28 0 28 32q0 12 -7.5 21t-20.5 9zM213 43h29q8 0 14.5 -7t6.5 -15t-6.5 -14.5t-14.5 -6.5h-192q-8 0 -15 6.5t-7 14.5t7 15t15 7h28v352h-28q-8 0 -15 7t-7 15t7 14.5t15 6.5h142
q8 0 14.5 -6.5t6.5 -14.5v-374zM310 436h148q8 0 15.5 -6.5t7.5 -14.5v-535q0 -84 -40 -131.5t-113 -47.5h-32h-15h-34q-58 0 -99.5 39t-41.5 95q0 29 20 48t50 19q28 0 47.5 -19.5t19.5 -47.5v-41q0 -43 34 -48h15q24 3 35.5 21.5t11.5 63.5v562h-29q-8 0 -15 7t-7 15
t7 14.5t15 6.5zM171 43v352h-50v-352h50zM384 393v-562q0 -55 -15 -77q68 21 68 126v513h-53zM198 -206v41q0 8 -7 15.5t-15 7.5q-10 0 -17.5 -7t-7.5 -16q0 -25 15 -45.5t40 -31.5q-8 10 -8 36z" />
    <glyph glyph-name="Jcircumflex" unicode="&#x134;" horiz-adv-x="562" 
d="M364 901l104 -98q12 -12 1 -23q-10 -12 -23 -3l-101 74l-100 -74q-13 -9 -23 3t1 23l106 100q9 9 26 4l6 -4h1q0 -2 2 -2zM183 720h334q9 0 15.5 -6.5t6.5 -15.5t-6.5 -15.5t-15.5 -6.5h-70v-498q0 -74 -54 -126t-128 -52h-71q-73 0 -127 52q-53 53 -53 127v1l1 11
q0 31 22.5 53.5t53.5 22.5t55 -22q22 -22 25 -55v-100q0 -19 11.5 -30.5t28.5 -11.5h2q19 0 31 12q13 13 13 30v586h-74q-10 0 -16 6.5t-6 15.5t6 15.5t16 6.5zM403 676h-102v-586q0 -22 -12 -44q49 8 81.5 45.5t32.5 86.5v498zM59 189l-1 -10q0 -56 40 -96q15 -15 34 -24
q-5 11 -5 31l-1 18v82q0 13 -10.5 23t-24.5 10q-13 0 -22.5 -10t-9.5 -24z" />
    <glyph glyph-name="jcircumflex" unicode="&#x135;" horiz-adv-x="360" 
d="M200 662l104 -98q12 -12 1 -23q-10 -12 -23 -3l-101 74l-100 -74q-13 -9 -23 3t1 23l106 100q9 9 26 4l6 -4h1q0 -2 2 -2zM95 436h148q8 0 15.5 -6.5t7.5 -14.5v-535q0 -84 -40 -131.5t-113 -47.5h-32h-15h-34q-58 0 -99.5 39t-41.5 95q0 29 20 48t50 19q28 0 47.5 -19.5
t19.5 -47.5v-41q0 -43 34 -48h15q24 3 35.5 21.5t11.5 63.5v562h-29q-8 0 -15 7t-7 15t7 14.5t15 6.5zM169 393v-562q0 -55 -15 -77q68 21 68 126v513h-53zM-17 -206v41q0 8 -7 15.5t-15 7.5q-10 0 -17.5 -7t-7.5 -16q0 -25 15 -45.5t40 -31.5q-8 10 -8 36z" />
    <glyph glyph-name="Kcedilla" unicode="&#x136;" horiz-adv-x="800" 
d="M740 44h38q9 0 15.5 -6.5t6.5 -15.5t-6.5 -15.5t-15.5 -6.5h-45l-12 -24q26 -16 26 -48q0 -24 -16.5 -40.5t-39.5 -16.5q-24 0 -41 17q-6 6 -6 15t6 16q16 14 32 0q3 -4 9 -4q12 0 12 13t-12 13q-13 0 -19 10q-7 11 -1 21l13 28h-142q-10 0 -18 8l-212 263l-3 -4v-223h70
q9 0 15.5 -6.5t6.5 -15.5t-6.5 -15.5t-15.5 -6.5h-337q-9 0 -15.5 6.5t-6.5 15.5t6.5 15.5t15.5 6.5h75v633h-75q-9 0 -15.5 6.5t-6.5 15.5t6.5 15.5t15.5 6.5h337q9 0 15.5 -6.5t6.5 -15.5t-6.5 -15.5t-15.5 -6.5h-70v-345l343 345h-60q-9 0 -15.5 6.5t-6.5 15.5t6.5 15.5
t15.5 6.5h186q9 0 15.5 -6.5t6.5 -15.5t-6.5 -15.5t-15.5 -6.5h-64l-267 -270zM265 677h-104v-633h104v633zM683 44l-267 331l-72 -73l208 -258h131z" />
    <glyph glyph-name="kcedilla" unicode="&#x137;" horiz-adv-x="535" 
d="M484 42h28q8 0 14.5 -6.5t6.5 -14.5t-6.5 -14.5t-14.5 -6.5h-26l-11 -23q26 -16 26 -48q0 -24 -16.5 -40.5t-39.5 -16.5q-24 0 -41 17q-6 6 -6 15t6 16q16 14 32 0q3 -4 9 -4q12 0 12 13t-12 13q-13 0 -19 10q-7 10 -1 21l13 27h-81q-11 0 -18 7l-127 153v-118h28
q8 0 14.5 -6.5t6.5 -14.5t-6.5 -14.5t-14.5 -6.5h-191q-7 0 -14 7t-7 14q0 8 6.5 14.5t14.5 6.5h28v635h-28q-8 0 -14.5 7t-6.5 15q0 7 7 14t14 7h142q7 0 14 -7t7 -14v-479l173 173h-31q-8 0 -15 6.5t-7 14.5t7 14.5t15 6.5h120q8 0 14.5 -6.5t6.5 -14.5t-6.5 -14.5
t-14.5 -6.5h-32l-134 -138zM169 677h-50v-635h50v635zM431 42l-152 185l-36 -36l124 -149h64z" />
    <glyph glyph-name="kgreenlandic" unicode="&#x138;" horiz-adv-x="493" 
d="M445 45h18q9 0 15.5 -6.5t6.5 -15.5q0 -10 -6.5 -16.5t-15.5 -6.5h-137q-11 0 -17 8l-108 134v-97h32q9 0 15.5 -6.5t6.5 -15.5q0 -10 -6.5 -16.5t-15.5 -6.5h-195q-9 0 -15.5 6.5t-6.5 16.5q0 9 6.5 15.5t15.5 6.5h33v346h-33q-9 0 -15.5 6.5t-6.5 15.5t6.5 16t15.5 7
h195q9 0 15.5 -7t6.5 -16t-6.5 -15.5t-15.5 -6.5h-32v-167l164 167h-10q-9 0 -15.5 6.5t-6.5 15.5t6.5 16t15.5 7h108q9 0 15.5 -7t6.5 -16t-6.5 -15.5t-15.5 -6.5h-34l-144 -146zM156 45v346h-41v-346h41zM253 213l-29 -29l113 -139h50z" />
    <glyph glyph-name="Lacute" unicode="&#x139;" horiz-adv-x="658" 
d="M309 854l-175 -81q-16 -7 -25 9q-7 16 7 25l167 99q5 5 18.5 2t19.5 -15q6 -13 1.5 -24.5t-13.5 -14.5zM570 44v72q0 9 6.5 15.5t15.5 6.5t15.5 -6.5t6.5 -15.5v-94q0 -9 -6.5 -15.5t-15.5 -6.5h-540q-9 0 -15.5 6.5t-6.5 15.5t6.5 15.5t15.5 6.5h76v632h-76
q-9 0 -15.5 6.5t-6.5 15.5t6.5 15.5t15.5 6.5h337q9 0 15.5 -6.5t6.5 -15.5t-6.5 -15.5t-15.5 -6.5h-72v-632h253zM273 44v632h-101v-632h101z" />
    <glyph glyph-name="lacute" unicode="&#x13a;" horiz-adv-x="300" 
d="M230 854l-175 -81q-16 -7 -25 9q-7 16 7 25l167 99q5 5 18.5 2t19.5 -15q6 -13 1.5 -24.5t-13.5 -14.5zM223 43h28q8 0 14.5 -7t6.5 -15t-6.5 -14.5t-14.5 -6.5h-191q-8 0 -14.5 6.5t-6.5 14.5t6.5 15t14.5 7h28v634h-28q-8 0 -14.5 7t-6.5 15t6.5 14.5t14.5 6.5h142
q8 0 14.5 -7t6.5 -14v-656zM180 43v634h-49v-634h49z" />
    <glyph glyph-name="Lcedilla" unicode="&#x13b;" horiz-adv-x="658" 
d="M570 44v72q0 9 6.5 15.5t15.5 6.5t15.5 -6.5t6.5 -15.5v-94q0 -9 -6.5 -15.5t-15.5 -6.5h-276l-9 -20q26 -16 26 -48q0 -24 -16.5 -40.5t-39.5 -16.5q-24 0 -41 17q-6 6 -6 15t6 16q16 14 32 0q3 -4 9 -4q12 0 12 13t-12 13q-13 0 -19 10q-7 10 -1 21l11 24h-216
q-9 0 -15.5 6.5t-6.5 15.5t6.5 15.5t15.5 6.5h76v632h-76q-9 0 -15.5 6.5t-6.5 15.5t6.5 15.5t15.5 6.5h337q9 0 15.5 -6.5t6.5 -15.5t-6.5 -15.5t-15.5 -6.5h-72v-632h253zM172 44h101v632h-101v-632z" />
    <glyph glyph-name="lcedilla" unicode="&#x13c;" horiz-adv-x="289" 
d="M212 43h28q8 0 14.5 -7t6.5 -15t-6.5 -14.5t-14.5 -6.5h-70l-9 -20q26 -16 26 -48q0 -24 -16.5 -40.5t-39.5 -16.5q-24 0 -41 17q-6 6 -6 15t6 16q16 14 32 0q3 -4 9 -4q12 0 12 13t-12 13q-13 0 -19 10q-7 11 -1 21l11 24h-73q-8 0 -14.5 6.5t-6.5 14.5t6.5 15t14.5 7
h28v634h-28q-8 0 -14.5 7t-6.5 15t6.5 14.5t14.5 6.5h142q7 0 14 -7t7 -14v-656zM120 43h49v634h-49v-634z" />
    <glyph glyph-name="Lcaron" unicode="&#x13d;" horiz-adv-x="658" 
d="M516 551l26 58q-8 2 -12 4q-22 10 -30.5 31.5t1.5 43.5q9 21 30.5 29.5t44.5 -1.5q21 -9 29 -29.5t-1 -43.5l-48 -110q-6 -13 -20 -13q-3 0 -9 2q-20 9 -11 29zM570 44v72q0 9 6.5 15.5t15.5 6.5t15.5 -6.5t6.5 -15.5v-94q0 -9 -6.5 -15.5t-15.5 -6.5h-540
q-9 0 -15.5 6.5t-6.5 15.5t6.5 15.5t15.5 6.5h76v632h-76q-9 0 -15.5 6.5t-6.5 15.5t6.5 15.5t15.5 6.5h337q9 0 15.5 -6.5t6.5 -15.5t-6.5 -15.5t-15.5 -6.5h-72v-632h253zM553 652q13 0 13 13t-13 13t-13 -13t13 -13zM273 44v632h-101v-632h101z" />
    <glyph glyph-name="lcaron" unicode="&#x13e;" horiz-adv-x="414" 
d="M295 551l26 58q-8 2 -12 4q-22 10 -30.5 31.5t1.5 43.5q9 21 30.5 29.5t44.5 -1.5q21 -9 29 -29.5t-1 -43.5l-48 -110q-7 -13 -20 -13q-3 0 -9 2q-20 9 -11 29zM212 44h28q8 0 14.5 -7t6.5 -15t-6.5 -14.5t-14.5 -6.5h-191q-8 0 -14.5 6.5t-6.5 14.5t6.5 15t14.5 7h28
v634h-28q-8 0 -14.5 7t-6.5 15t6.5 14.5t14.5 6.5h142q7 0 14 -6.5t7 -14.5v-656zM169 44v634h-49v-634h49zM332 652q13 0 13 13t-13 13t-13 -13t13 -13z" />
    <glyph glyph-name="Ldotaccent" unicode="&#x13f;" horiz-adv-x="658" 
d="M570 44v72q0 9 6.5 15.5t15.5 6.5t15.5 -6.5t6.5 -15.5v-94q0 -9 -6.5 -15.5t-15.5 -6.5h-540q-9 0 -15.5 6.5t-6.5 15.5t6.5 15.5t15.5 6.5h76v632h-76q-9 0 -15.5 6.5t-6.5 15.5t6.5 15.5t15.5 6.5h337q9 0 15.5 -6.5t6.5 -15.5t-6.5 -15.5t-15.5 -6.5h-72v-632h253z
M273 44v632h-101v-632h101zM510 436q23 0 39.5 16.5t16.5 40.5q0 23 -16.5 39.5t-39.5 16.5q-24 0 -40.5 -16.5t-16.5 -39.5q0 -24 16.5 -40.5t40.5 -16.5zM510 506q13 0 13 -13t-13 -13t-13 13t13 13z" />
    <glyph glyph-name="ldotaccent" unicode="&#x140;" horiz-adv-x="408" 
d="M212 43h28q8 0 14.5 -7t6.5 -15t-6.5 -14.5t-14.5 -6.5h-191q-8 0 -14.5 6.5t-6.5 14.5t6.5 15t14.5 7h28v634h-28q-8 0 -14.5 7t-6.5 15t6.5 14.5t14.5 6.5h142q7 0 14 -7t7 -14v-656zM169 43v634h-49v-634h49zM326 436q23 0 39.5 16.5t16.5 40.5q0 23 -16.5 39.5
t-39.5 16.5q-24 0 -40.5 -16.5t-16.5 -39.5q0 -24 16.5 -40.5t40.5 -16.5zM326 506q13 0 13 -13t-13 -13t-13 13t13 13z" />
    <glyph glyph-name="Lslash" unicode="&#x141;" horiz-adv-x="658" 
d="M570 44v72q0 9 6.5 15.5t15.5 6.5t15.5 -6.5t6.5 -15.5v-94q0 -9 -6.5 -15.5t-15.5 -6.5h-540q-9 0 -15.5 6.5t-6.5 15.5t6.5 15.5t15.5 6.5h76v242l-63 -34q-5 -4 -13 -4q-12 0 -18 9q-12 17 5 31l89 47v341h-76q-9 0 -15.5 6.5t-6.5 15.5t6.5 15.5t15.5 6.5h337
q9 0 15.5 -6.5t6.5 -15.5t-6.5 -15.5t-15.5 -6.5h-72v-240l59 32q18 13 31 -5q12 -17 -5 -31l-85 -45v-343h253zM172 359l101 54v263h-101v-317zM273 44v319l-101 -54v-265h101z" />
    <glyph glyph-name="lslash" unicode="&#x142;" horiz-adv-x="313" 
d="M224 421l26 14q18 13 31 -5q12 -18 -5 -30l-52 -28v-329h28q8 0 14.5 -7t6.5 -15t-6.5 -14.5t-14.5 -6.5h-191q-8 0 -14.5 6.5t-6.5 14.5t6.5 15t14.5 7h28v256l-26 -14q-5 -4 -13 -4q-12 0 -18 9q-12 18 5 30l52 28v329h-28q-8 0 -14.5 7t-6.5 15t6.5 14.5t14.5 6.5h142
q7 0 14 -7t7 -14v-278zM132 372l49 26v279h-49v-305zM181 348l-49 -26v-279h49v305z" />
    <glyph glyph-name="Nacute" unicode="&#x143;" horiz-adv-x="844" 
d="M514 854l-175 -81q-16 -7 -25 9q-7 16 7 25l167 99q5 5 18.5 2t19.5 -15q6 -13 1.5 -24.5t-13.5 -14.5zM615 726h186q9 0 15.5 -6.5t6.5 -15.5q0 -10 -6.5 -16t-15.5 -6h-79v-660q0 -15 -14 -20q-4 -2 -8 -2q-9 0 -16 7l-527 531v-490h72q9 0 15.5 -6.5t6.5 -15.5
q0 -10 -6.5 -16t-15.5 -6h-186q-9 0 -15.5 6t-6.5 16q0 9 6.5 15.5t15.5 6.5h70v634h-70q-9 0 -15.5 6t-6.5 16q0 9 6.5 15.5t15.5 6.5h191q15 0 21 -15l423 -424v395h-63q-9 0 -15.5 6t-6.5 16q0 9 6.5 15.5t15.5 6.5zM157 601l521 -526v149l-456 458h-65v-81z" />
    <glyph glyph-name="nacute" unicode="&#x144;" horiz-adv-x="565" 
d="M372 613l-175 -81q-16 -7 -25 9q-7 16 7 25l167 99q5 5 18.5 2t19.5 -15q6 -13 1.5 -24.5t-13.5 -14.5zM483 43h36q21 0 21 -21q0 -8 -5.5 -14.5t-15.5 -6.5h-191q-8 0 -14.5 6.5t-6.5 14.5t6.5 14.5t14.5 6.5h21v297q0 21 -13.5 37t-32.5 16q-38 0 -66.5 -29t-28.5 -66
v-255h28q22 0 22 -21q0 -8 -5.5 -14.5t-16.5 -6.5h-190q-8 0 -14.5 6.5t-6.5 14.5t6.5 14.5t14.5 6.5h28v350h-28q-8 0 -14.5 6.5t-6.5 14.5t6.5 14.5t14.5 6.5h141q21 0 21 -21v-18q39 39 92 39h3h4h39q56 0 96.5 -40.5t40.5 -96.5v-255zM166 43v350h-50v-350h50zM441 43
v255q0 28 -17 52.5t-43 35.5q11 -22 11 -46v-297h49z" />
    <glyph glyph-name="Ncedilla" unicode="&#x145;" horiz-adv-x="844" 
d="M615 721h186q9 0 15.5 -6.5t6.5 -15.5q0 -10 -6.5 -16t-15.5 -6h-79v-660q0 -15 -14 -20q-4 -2 -8 -2q-9 0 -16 7l-527 531v-490h72q9 0 15.5 -6.5t6.5 -15.5q0 -10 -6.5 -16t-15.5 -6h-74l-6 -15q26 -16 26 -48q0 -24 -16.5 -40.5t-39.5 -16.5q-24 0 -41 17q-6 6 -6 15
t6 16q16 14 32 0q3 -4 9 -4q12 0 12 13t-12 13q-13 0 -19 10q-7 11 -1 21l8 19h-64q-9 0 -15.5 6t-6.5 16q0 9 6.5 15.5t15.5 6.5h70v634h-70q-9 0 -15.5 6t-6.5 16q0 9 6.5 15.5t15.5 6.5h191q15 0 21 -15l423 -424v395h-63q-9 0 -15.5 6t-6.5 16q0 9 6.5 15.5t15.5 6.5z
M678 219l-456 458h-65v-81l521 -526v149z" />
    <glyph glyph-name="ncedilla" unicode="&#x146;" horiz-adv-x="565" 
d="M483 44h36q21 0 21 -21q0 -8 -5.5 -14.5t-15.5 -6.5h-34l-5 -11q23 -14 23 -43q0 -21 -14.5 -36t-34.5 -15q-21 0 -37 16q-13 13 0 27q15 13 29 0q3 -4 8 -4q10 0 10 12t-10 12q-13 0 -17 8q-7 10 -1 19l7 15h-115q-8 0 -14.5 7t-6.5 14q0 8 6.5 14.5t14.5 6.5h21v297
q0 21 -13.5 37t-32.5 16q-38 0 -66.5 -29t-28.5 -66v-255h28q22 0 22 -21q0 -8 -5.5 -14.5t-16.5 -6.5h-190q-8 0 -14.5 6.5t-6.5 14.5t6.5 14.5t14.5 6.5h28v350h-28q-8 0 -14.5 6.5t-6.5 14.5t6.5 14.5t14.5 6.5h141q21 0 21 -21v-18q39 39 92 39h46q56 0 96.5 -41
t40.5 -96v-255zM116 394v-350h50v350h-50zM441 44v255q0 28 -17 52.5t-43 35.5q11 -22 11 -46v-297h49z" />
    <glyph glyph-name="Ncaron" unicode="&#x147;" horiz-adv-x="844" 
d="M403 780l-104 98q-12 12 -1 23q10 12 23 3l101 -74l100 74q13 9 23 -3t-1 -23l-106 -100q-9 -9 -26 -4l-6 4h-1q0 2 -2 2zM615 726h186q9 0 15.5 -6.5t6.5 -15.5q0 -10 -6.5 -16t-15.5 -6h-79v-660q0 -15 -14 -20q-4 -2 -8 -2q-9 0 -16 7l-527 531v-490h72q9 0 15.5 -6.5
t6.5 -15.5q0 -10 -6.5 -16t-15.5 -6h-186q-9 0 -15.5 6t-6.5 16q0 9 6.5 15.5t15.5 6.5h70v634h-70q-9 0 -15.5 6t-6.5 16q0 9 6.5 15.5t15.5 6.5h191q15 0 21 -15l423 -424v395h-63q-9 0 -15.5 6t-6.5 16q0 9 6.5 15.5t15.5 6.5zM157 601l521 -526v149l-456 458h-65v-81z
" />
    <glyph glyph-name="ncaron" unicode="&#x148;" horiz-adv-x="565" 
d="M269 539l-104 98q-12 12 -1 23q10 12 23 3l101 -74l100 74q13 9 23 -3t-1 -23l-106 -100q-9 -9 -26 -4l-6 4h-1q0 2 -2 2zM483 43h36q21 0 21 -21q0 -8 -5.5 -14.5t-15.5 -6.5h-191q-8 0 -14.5 6.5t-6.5 14.5t6.5 14.5t14.5 6.5h21v297q0 21 -13.5 37t-32.5 16
q-38 0 -66.5 -29t-28.5 -66v-255h28q22 0 22 -21q0 -8 -5.5 -14.5t-16.5 -6.5h-190q-8 0 -14.5 6.5t-6.5 14.5t6.5 14.5t14.5 6.5h28v350h-28q-8 0 -14.5 6.5t-6.5 14.5t6.5 14.5t14.5 6.5h141q21 0 21 -21v-18q39 39 92 39h3h4h39q56 0 96.5 -40.5t40.5 -96.5v-255zM166 43
v350h-50v-350h50zM441 43v255q0 28 -17 52.5t-43 35.5q11 -22 11 -46v-297h49z" />
    <glyph glyph-name="quoterightn" unicode="&#x149;" horiz-adv-x="565" 
d="M270 553l26 58q-8 2 -12 4q-22 10 -30.5 31.5t1.5 43.5q9 21 30.5 29.5t44.5 -1.5q21 -9 29 -29.5t-1 -43.5l-48 -110q-6 -13 -20 -13q-3 0 -9 2q-20 9 -11 29zM307 654q13 0 13 13t-13 13t-13 -13t13 -13zM483 43h36q21 0 21 -21q0 -8 -5.5 -14.5t-15.5 -6.5h-191
q-8 0 -14.5 6.5t-6.5 14.5t6.5 14.5t14.5 6.5h21v297q0 21 -13.5 37t-32.5 16q-38 0 -66.5 -29t-28.5 -66v-255h28q22 0 22 -21q0 -8 -5.5 -14.5t-16.5 -6.5h-190q-8 0 -14.5 6.5t-6.5 14.5t6.5 14.5t14.5 6.5h28v350h-28q-8 0 -14.5 6.5t-6.5 14.5t6.5 14.5t14.5 6.5h141
q21 0 21 -21v-18q39 39 92 39h3h4h39q56 0 96.5 -40.5t40.5 -96.5v-255zM166 43v350h-50v-350h50zM441 43v255q0 28 -17 52.5t-43 35.5q11 -22 11 -46v-297h49z" />
    <glyph glyph-name="Omacron" unicode="&#x14c;" horiz-adv-x="883" 
d="M331 810h217q9 0 15.5 6.5t6.5 15.5t-6.5 15.5t-15.5 6.5h-217q-9 0 -15.5 -6.5t-6.5 -15.5t6.5 -15.5t15.5 -6.5zM785 504q30 -69 30 -146q0 -76 -30 -145q-27 -66 -80 -119q-51 -51 -118 -80q-70 -29 -146 -29q-75 0 -145 29q-66 28 -119 80q-52 53 -80 119
q-29 70 -29 145q0 76 29 146q29 67 80 118q53 53 119 80q69 30 146 30q76 0 145 -30q67 -27 118 -80q53 -51 80 -118zM283 528v-459q72 -39 154 -40q64 0 111 45q46 46 46 111v466q-72 37 -153 37q-65 0 -111.5 -47t-46.5 -113zM239 98v430q0 63 35 114q-36 -21 -66 -51
q-96 -96 -96 -233q0 -135 96 -233zM638 623v-438q0 -62 -36 -114q39 21 72 54q97 99 97 233q0 136 -97 233q-8 8 -36 32z" />
    <glyph glyph-name="omacron" unicode="&#x14d;" horiz-adv-x="541" 
d="M167 564h217q9 0 15.5 6.5t6.5 15.5t-6.5 15.5t-15.5 6.5h-217q-9 0 -15.5 -6.5t-6.5 -15.5t6.5 -15.5t15.5 -6.5zM251 442h18q94 0 160.5 -65.5t66.5 -157.5q0 -95 -66 -161t-161 -66q-92 0 -158 66.5t-66 160.5q0 86 59.5 150.5t146.5 72.5zM182 316v-259
q39 -22 87 -22h3q38 0 64 25t26 58l-3 260q-38 21 -90 21h-11q-30 -2 -53 -26.5t-23 -56.5zM140 89v227q0 6 1.5 16.5t1.5 15.5q-54 -52 -54 -129q0 -81 51 -130zM402 341l4 -223q0 -18 -4 -25q50 52 50 126q0 72 -50 122z" />
    <glyph glyph-name="Obreve" unicode="&#x14e;" horiz-adv-x="883" 
d="M441 781q61 0 106 25q48 26 56 70q1 9 -4.5 16.5t-14.5 8.5t-16 -4.5t-9 -14.5q-3 -21 -33 -38q-36 -19 -85 -19q-48 0 -84 19q-30 17 -33 38q-2 9 -9 14.5t-16 4.5q-9 -2 -14.5 -9t-4.5 -16q6 -44 56 -70q45 -25 105 -25zM785 504q30 -69 30 -146q0 -76 -30 -145
q-27 -66 -80 -119q-51 -51 -118 -80q-70 -29 -146 -29q-75 0 -145 29q-66 28 -119 80q-52 53 -80 119q-29 70 -29 145q0 76 29 146q29 67 80 118q53 53 119 80q69 30 146 30q76 0 145 -30q67 -27 118 -80q53 -51 80 -118zM283 528v-459q72 -39 154 -40q64 0 111 45
q46 46 46 111v466q-72 37 -153 37q-65 0 -111.5 -47t-46.5 -113zM239 98v430q0 63 35 114q-36 -21 -66 -51q-96 -96 -96 -233q0 -135 96 -233zM638 623v-438q0 -62 -36 -114q39 21 72 54q97 99 97 233q0 136 -97 233q-8 8 -36 32z" />
    <glyph glyph-name="obreve" unicode="&#x14f;" horiz-adv-x="541" 
d="M266 535q61 0 106 25q48 26 56 70q1 9 -4.5 16.5t-14.5 8.5t-16 -4.5t-9 -14.5q-3 -21 -33 -38q-36 -19 -85 -19q-48 0 -84 19q-30 17 -33 38q-2 9 -9 14.5t-16 4.5q-9 -2 -14.5 -9t-4.5 -16q6 -44 56 -70q45 -25 105 -25zM251 442h18q94 0 160.5 -65.5t66.5 -157.5
q0 -95 -66 -161t-161 -66q-92 0 -158 66.5t-66 160.5q0 86 59.5 150.5t146.5 72.5zM182 316v-259q39 -22 87 -22h3q38 0 64 25t26 58l-3 260q-38 21 -90 21h-11q-30 -2 -53 -26.5t-23 -56.5zM140 89v227q0 6 1.5 16.5t1.5 15.5q-54 -52 -54 -129q0 -81 51 -130zM402 341
l4 -223q0 -18 -4 -25q50 52 50 126q0 72 -50 122z" />
    <glyph glyph-name="Ohungarumlaut" unicode="&#x150;" horiz-adv-x="883" 
d="M458 854l-175 -81q-16 -7 -25 9q-7 16 7 25l167 99q5 5 18.5 2t19.5 -15q6 -13 1.5 -24.5t-13.5 -14.5zM658 854l-175 -81q-16 -7 -25 9q-7 16 7 25l167 99q5 5 18.5 2t19.5 -15q6 -13 1.5 -24.5t-13.5 -14.5zM785 504q30 -69 30 -146q0 -76 -30 -145q-27 -66 -80 -119
q-51 -51 -118 -80q-70 -29 -146 -29q-75 0 -145 29q-66 28 -119 80q-52 53 -80 119q-29 70 -29 145q0 76 29 146q29 67 80 118q53 53 119 80q69 30 146 30q76 0 145 -30q67 -27 118 -80q53 -51 80 -118zM283 528v-459q72 -39 154 -40q64 0 111 45q46 46 46 111v466
q-72 37 -153 37q-65 0 -111.5 -47t-46.5 -113zM239 98v430q0 63 35 114q-36 -21 -66 -51q-96 -96 -96 -233q0 -135 96 -233zM638 623v-438q0 -62 -36 -114q39 21 72 54q97 99 97 233q0 136 -97 233q-8 8 -36 32z" />
    <glyph glyph-name="ohungarumlaut" unicode="&#x151;" horiz-adv-x="541" 
d="M284 613l-175 -81q-16 -7 -25 9q-7 16 7 25l167 99q5 5 18.5 2t19.5 -15q6 -13 1.5 -24.5t-13.5 -14.5zM454 613l-175 -81q-16 -7 -25 9q-7 16 7 25l167 99q5 5 18.5 2t19.5 -15q6 -13 1.5 -24.5t-13.5 -14.5zM251 442h18q94 0 160.5 -65.5t66.5 -157.5q0 -95 -66 -161
t-161 -66q-92 0 -158 66.5t-66 160.5q0 86 59.5 150.5t146.5 72.5zM182 316v-259q39 -22 87 -22h3q38 0 64 25t26 58l-3 260q-38 21 -90 21h-11q-30 -2 -53 -26.5t-23 -56.5zM140 89v227q0 6 1.5 16.5t1.5 15.5q-54 -52 -54 -129q0 -81 51 -130zM402 341l4 -223
q0 -18 -4 -25q50 52 50 126q0 72 -50 122z" />
    <glyph glyph-name="OE" unicode="&#x152;" horiz-adv-x="1131" 
d="M1056 700v-91q0 -9 -6.5 -15.5t-15.5 -6.5t-15.5 6.5t-6.5 15.5v69h-249v-373h104v71q0 9 6.5 15.5t15.5 6.5t15.5 -6.5t6.5 -15.5v-184q0 -9 -6.5 -15.5t-15.5 -6.5t-15.5 6.5t-6.5 15.5v69h-104v-217h249v69q0 9 6.5 15.5t15.5 6.5t15.5 -6.5t6.5 -15.5v-91
q0 -9 -6.5 -15.5t-15.5 -6.5h-606q-71 0 -140 29q-64 27 -114 77q-50 48 -78 114q-28 70 -28 141q0 72 28 140q27 65 78 114q50 51 114 78q73 29 140 29h606q9 0 15.5 -6.5t6.5 -15.5zM571 44v634h-143h-3q-61 -2 -104.5 -46.5t-42.5 -106.5v-443q70 -38 150 -38h143z
M719 678h-104v-373h104v373zM233 111v414q0 59 31 106q-32 -19 -59 -47q-93 -91 -93 -223q0 -131 93 -224q5 -6 28 -26zM719 261h-104v-217h104v217z" />
    <glyph glyph-name="oe" unicode="&#x153;" horiz-adv-x="752" 
d="M252 443h18q59 0 112 -29q51 27 107 27q73 1 132 -43t83 -116q8 -33 -6 -58q-6 -7 -15 -11.5t-15 -5.5t-15 -1l-9 -1h-240l2 -85v-1q0 -13 4 -24q3 -10 9 -19q25 -38 77 -38h3l16 1q84 0 140 64q5 8 14.5 9t14.5 -5q7 -6 8 -15.5t-5 -14.5q-60 -75 -160 -82
q-18 -2 -28 -2q-23 0 -50 5q-37 8 -67 25q-54 -30 -114 -30q-92 1 -158 67.5t-65 160.5q1 86 61 150t146 72zM268 36h3q50 0 77 40q5 8 10 19q4 16 2 24v260l-17 8q-36 13 -73 13h-11q-30 -2 -53.5 -26.5t-24.5 -56.5v-259q39 -22 87 -22zM571 248l-3 69q0 35 -23 59t-56 23
h-3q-32 0 -56 -22q-18 -16 -24 -39q-3 -12 -2 -22v-68h167zM615 249h32q14 0 18 4q0 3 -4 15q-15 52 -53 85q4 -10 4 -36zM140 91v227q0 6 2 16.5t2 15.5q-55 -52 -55 -129q0 -81 51 -130z" />
    <glyph glyph-name="Racute" unicode="&#x154;" horiz-adv-x="862" 
d="M473 854l-175 -81q-16 -7 -25 9q-7 16 7 25l167 99q5 5 18.5 2t19.5 -15q6 -13 1.5 -24.5t-13.5 -14.5zM731 541v-97q0 -75 -53 -128q-10 -11 -27 -23q35 -12 55 -38q28 -38 28 -120q0 -50 10 -69q11 -22 46 -22q9 0 15.5 -6.5t6.5 -15.5t-6.5 -15.5t-15.5 -6.5h-151
q-61 0 -86 46q-14 28 -14 89q0 68 -19 93q-27 35 -109 35h-5h-51v-219h73q9 0 15.5 -6.5t6.5 -15.5t-6.5 -15.5t-15.5 -6.5h-338q-9 0 -15.5 6.5t-6.5 15.5t6.5 15.5t15.5 6.5h75v219h-71q-9 0 -15.5 6.5t-6.5 15.5t6.5 15.5t15.5 6.5h71v373h-91v-69q0 -9 -6.5 -15.5
t-15.5 -6.5t-15.5 6.5t-6.5 15.5v91q0 9 6.5 15.5t15.5 6.5h498q76 0 128 -54q53 -53 53 -129zM311 680h-102v-373h102v373zM355 307h49q56 0 98 40q40 40 40 97v97q0 58 -40.5 98.5t-97.5 40.5h-49v-373zM523 307h27q59 0 97 40q40 38 40 97v97q0 58 -40 98q-39 41 -97 41
h-28q64 -56 64 -139v-97q0 -76 -54 -128zM311 263h-102v-219h102v219zM639 44h67l-2 2q-14 28 -14 89q0 68 -19 93q-27 35 -109 35h-5h-9q5 -5 7 -8q28 -38 28 -120q0 -50 10 -69q11 -22 46 -22z" />
    <glyph glyph-name="racute" unicode="&#x155;" horiz-adv-x="438" 
d="M311 613l-175 -81q-16 -7 -25 9q-7 16 7 25l167 99q5 5 18.5 2t19.5 -15q6 -13 1.5 -24.5t-13.5 -14.5zM274 436h35q54 0 93 -38.5t39 -89.5q0 -27 -18.5 -45.5t-45.5 -18.5t-45.5 18.5t-18.5 45.5v36q0 21 -12.5 34.5t-30.5 13.5q-60 -4 -60 -80v-271h28q20 0 20 -20
q0 -7 -6 -13.5t-14 -6.5h-191q-6 0 -13 7t-7 13q0 8 6.5 14t13.5 6h27v351h-27q-6 0 -13 7t-7 13q0 9 7 16.5t13 7.5h143q7 0 13.5 -6t6.5 -14q27 20 64 20zM166 392h-48v-351h48v351zM353 344v-36q0 -9 7.5 -16.5t16.5 -7.5t16.5 7.5t7.5 16.5q0 24 -16 45.5t-40 30.5
q8 -12 8 -40z" />
    <glyph glyph-name="Rcedilla" unicode="&#x156;" horiz-adv-x="862" 
d="M731 541v-97q0 -75 -53 -128q-10 -11 -27 -23q35 -12 55 -38q28 -38 28 -120q0 -50 10 -69q11 -22 46 -22q9 0 15.5 -6.5t6.5 -15.5t-6.5 -15.5t-15.5 -6.5h-18v-1l-12 -24q26 -16 26 -48q0 -24 -16.5 -40.5t-39.5 -16.5q-24 0 -41 17q-6 6 -6 15t6 16q16 14 32 0
q3 -4 9 -4q12 0 12 13t-12 13q-13 0 -19 10q-7 11 -1 21l14 29h-85q-61 0 -86 46q-14 28 -14 89q0 68 -19 93q-27 35 -109 35h-5h-51v-219h73q9 0 15.5 -6.5t6.5 -15.5t-6.5 -15.5t-15.5 -6.5h-338q-9 0 -15.5 6.5t-6.5 15.5t6.5 15.5t15.5 6.5h75v219h-71q-9 0 -15.5 6.5
t-6.5 15.5t6.5 15.5t15.5 6.5h71v373h-91v-69q0 -9 -6.5 -15.5t-15.5 -6.5t-15.5 6.5t-6.5 15.5v91q0 9 6.5 15.5t15.5 6.5h498q76 0 128 -54q53 -53 53 -129zM311 680h-102v-373h102v373zM355 307h49q56 0 98 40q40 40 40 97v97q0 58 -40.5 98.5t-97.5 40.5h-49v-373z
M523 307h27q59 0 97 40q40 38 40 97v97q0 58 -40 98q-39 41 -97 41h-28q64 -56 64 -139v-97q0 -76 -54 -128zM311 263h-102v-219h102v219zM557 263h-9q5 -5 7 -8q28 -38 28 -120q0 -50 10 -69q11 -22 46 -22h67l-2 2q-14 28 -14 89q0 68 -19 93q-27 35 -109 35h-5z" />
    <glyph glyph-name="rcedilla" unicode="&#x157;" horiz-adv-x="438" 
d="M274 435h35q54 0 93 -38.5t39 -89.5q0 -27 -18.5 -45.5t-45.5 -18.5t-45.5 18.5t-18.5 45.5v36q0 21 -12.5 34.5t-30.5 13.5q-60 -4 -60 -80v-271h28q20 0 20 -20q0 -7 -6 -13.5t-14 -6.5h-71l-12 -24q26 -16 26 -48q0 -24 -16.5 -40.5t-39.5 -16.5q-24 0 -41 17
q-6 6 -6 15t6 16q16 14 32 0q3 -4 9 -4q12 0 12 13t-12 13q-13 0 -19 10q-7 11 -1 21l13 28h-71q-6 0 -13 7t-7 13q0 8 6.5 14t13.5 6h27v351h-27q-6 0 -13 7t-7 13q0 9 7 16.5t13 7.5h143q7 0 13.5 -6t6.5 -14q27 20 64 20zM118 40h48v351h-48v-351zM353 343v-36
q0 -9 7.5 -16.5t16.5 -7.5t16.5 7.5t7.5 16.5q0 24 -16 45.5t-40 30.5q8 -12 8 -40z" />
    <glyph glyph-name="Rcaron" unicode="&#x158;" horiz-adv-x="862" 
d="M363 779l-104 98q-12 12 -1 23q10 12 23 3l101 -74l100 74q13 9 23 -3t-1 -23l-106 -100q-9 -9 -26 -4l-6 4h-1q0 2 -2 2zM731 541v-97q0 -75 -53 -128q-10 -11 -27 -23q35 -12 55 -38q28 -38 28 -120q0 -50 10 -69q11 -22 46 -22q9 0 15.5 -6.5t6.5 -15.5t-6.5 -15.5
t-15.5 -6.5h-151q-61 0 -86 46q-14 28 -14 89q0 68 -19 93q-27 35 -109 35h-5h-51v-219h73q9 0 15.5 -6.5t6.5 -15.5t-6.5 -15.5t-15.5 -6.5h-338q-9 0 -15.5 6.5t-6.5 15.5t6.5 15.5t15.5 6.5h75v219h-71q-9 0 -15.5 6.5t-6.5 15.5t6.5 15.5t15.5 6.5h71v373h-91v-69
q0 -9 -6.5 -15.5t-15.5 -6.5t-15.5 6.5t-6.5 15.5v91q0 9 6.5 15.5t15.5 6.5h498q76 0 128 -54q53 -53 53 -129zM311 680h-102v-373h102v373zM355 307h49q56 0 98 40q40 40 40 97v97q0 58 -40.5 98.5t-97.5 40.5h-49v-373zM523 307h27q59 0 97 40q40 38 40 97v97
q0 58 -40 98q-39 41 -97 41h-28q64 -56 64 -139v-97q0 -76 -54 -128zM311 263h-102v-219h102v219zM639 44h67l-2 2q-14 28 -14 89q0 68 -19 93q-27 35 -109 35h-5h-9q1 -1 3.5 -4t3.5 -4q28 -38 28 -120q0 -50 10 -69q11 -22 46 -22z" />
    <glyph glyph-name="rcaron" unicode="&#x159;" horiz-adv-x="438" 
d="M185 536l-104 98q-12 12 -1 23q10 12 23 3l101 -74l100 74q13 9 23 -3t-1 -23l-106 -100q-9 -9 -26 -4l-6 4h-1q0 2 -2 2zM274 436h35q54 0 93 -38.5t39 -89.5q0 -27 -18.5 -45.5t-45.5 -18.5t-45.5 18.5t-18.5 45.5v36q0 21 -12.5 34.5t-30.5 13.5q-60 -4 -60 -80v-271
h28q20 0 20 -20q0 -7 -6 -13.5t-14 -6.5h-191q-6 0 -13 7t-7 13q0 8 6.5 14t13.5 6h27v351h-27q-6 0 -13 7t-7 13q0 9 7 16.5t13 7.5h143q7 0 13.5 -6t6.5 -14q27 20 64 20zM166 392h-48v-351h48v351zM353 344v-36q0 -9 7.5 -16.5t16.5 -7.5t16.5 7.5t7.5 16.5
q0 24 -16 45.5t-40 30.5q8 -12 8 -40z" />
    <glyph glyph-name="Sacute" unicode="&#x15a;" horiz-adv-x="711" 
d="M453 854l-175 -81q-16 -7 -25 9q-7 16 7 25l167 99q5 5 18.5 2t19.5 -15q6 -13 1.5 -24.5t-13.5 -14.5zM636 263v-79q0 -22 -6 -43q-22 -64 -101 -105q-28 -19 -68 -28v1q-46 -12 -98 -15h-18q-104 0 -179 43q-24 13 -44 31v-48q0 -10 -7 -17t-16 -7q-10 0 -17 7t-7 17
v188q0 10 7 16.5t17 6.5q9 0 16 -6.5t7 -16.5v-50q8 -50 70 -84q68 -39 169 -36q48 3 90 15v1l22 6l13 6q46 20 48 60q2 30 -24 60q-30 33 -77 47l-179 54q-53 15 -94 61q-43 49 -43 102v75q-2 39 18 77q18 34 53 63q72 58 173 61q116 5 195 -58v30q0 10 7 16.5t17 6.5
q9 0 16 -6.5t7 -16.5v-159q0 -10 -7 -17t-16 -7q-10 0 -17 7t-7 17v62q-25 36 -74 57q-53 24 -119 22q-56 -3 -102 -24q-79 -44 -74 -90q3 -28 33 -54t67 -36l200 -61q65 -24 104 -60q43 -40 45 -92zM586 184v79q0 33 -31 62q-30 29 -86 49l-198 61q-47 12 -85 46
q-9 7 -23 23v-53q2 -39 32 -72q33 -36 72 -48q129 -38 179 -53q60 -18 99 -62q28 -32 34 -71l3 8q5 17 4 31z" />
    <glyph glyph-name="sacute" unicode="&#x15b;" horiz-adv-x="462" 
d="M335 613l-175 -81q-16 -7 -25 9q-7 16 7 25l167 99q5 5 18.5 2t19.5 -15q6 -13 1.5 -24.5t-13.5 -14.5zM413 161v-46q0 -17 -5 -29q-13 -36 -59.5 -61t-106.5 -27h-11q-77 0 -133 36v-15q0 -8 -6 -14.5t-15 -6.5q-7 0 -14 7t-7 14v104q0 7 7 14t14 7q9 0 15 -6.5t6 -14.5
v-25q10 -25 48 -42t91 -15q33 0 62 11q38 22 38 38q0 12 -16.5 25.5t-40.5 17.5q-16 4 -30.5 8t-24.5 7t-18.5 5.5t-13.5 4.5t-9.5 3t-6.5 2t-3.5 1.5t-2.5 0.5h-2q-34 10 -60 40.5t-28 62.5v43q0 51 44.5 86t111.5 39q63 4 112 -26v4q0 8 6.5 15t14.5 7q7 0 14 -7t7 -15
v-85q0 -9 -7 -15t-14 -6q-8 0 -14.5 6t-6.5 15v29q-40 40 -107 35q-25 0 -58 -12q-46 -21 -46 -42q3 -11 20 -24.5t37 -17.5l121 -36q46 -16 71.5 -42t25.5 -58zM124 287v-19q2 -19 19 -37.5t41 -26.5q7 0 110 -28q60 -23 76 -53v38q0 17 -17.5 34t-47.5 28l-121 31
q-34 11 -60 33z" />
    <glyph glyph-name="Scircumflex" unicode="&#x15c;" horiz-adv-x="711" 
d="M385 901l104 -98q12 -12 1 -23q-10 -12 -23 -3l-101 74l-100 -74q-13 -9 -23 3t1 23l106 100q9 9 26 4l6 -4h1q0 -2 2 -2zM636 263v-79q0 -22 -6 -43q-22 -64 -101 -105q-28 -19 -68 -28v1q-46 -12 -98 -15h-18q-104 0 -179 43q-24 13 -44 31v-48q0 -10 -7 -17t-16 -7
q-10 0 -17 7t-7 17v188q0 10 7 16.5t17 6.5q9 0 16 -6.5t7 -16.5v-50q8 -50 70 -84q68 -39 169 -36q48 3 90 15v1l22 6l13 6q46 20 48 60q2 30 -24 60q-30 33 -77 47l-179 54q-53 15 -94 61q-43 49 -43 102v75q-2 39 18 77q18 34 53 63q72 58 173 61q116 5 195 -58v30
q0 10 7 16.5t17 6.5q9 0 16 -6.5t7 -16.5v-159q0 -10 -7 -17t-16 -7q-10 0 -17 7t-7 17v62q-25 36 -74 57q-53 24 -119 22q-56 -3 -102 -24q-79 -44 -74 -90q3 -28 33 -54t67 -36l200 -61q65 -24 104 -60q43 -40 45 -92zM586 184v79q0 33 -31 62q-30 29 -86 49l-198 61
q-47 12 -85 46q-9 7 -23 23v-53q2 -39 32 -72q33 -37 72 -48q129 -38 179 -53q60 -18 99 -62q28 -32 34 -71l3 8q5 17 4 31z" />
    <glyph glyph-name="scircumflex" unicode="&#x15d;" horiz-adv-x="462" 
d="M261 659l104 -98q12 -12 1 -23q-10 -12 -23 -3l-101 74l-100 -74q-13 -9 -23 3t1 23l106 100q9 9 26 4l6 -4h1q0 -2 2 -2zM413 161v-46q0 -17 -5 -29q-13 -36 -59.5 -61t-106.5 -27h-11q-77 0 -133 36v-15q0 -8 -6 -14.5t-15 -6.5q-7 0 -14 7t-7 14v104q0 7 7 14t14 7
q9 0 15 -6.5t6 -14.5v-25q10 -25 48 -42t91 -15q33 0 62 11q38 22 38 38q0 12 -16.5 25.5t-40.5 17.5q-16 4 -30.5 8t-24.5 7t-18.5 5.5t-13.5 4.5t-9.5 3t-6.5 2t-3.5 1.5t-2.5 0.5h-2q-34 10 -60 40.5t-28 62.5v43q0 51 44.5 86t111.5 39q63 4 112 -26v4q0 8 6.5 15
t14.5 7q7 0 14 -7t7 -15v-85q0 -9 -7 -15t-14 -6q-8 0 -14.5 6t-6.5 15v29q-40 40 -107 35q-25 0 -58 -12q-46 -21 -46 -42q3 -11 20 -24.5t37 -17.5l121 -36q46 -16 71.5 -42t25.5 -58zM124 287v-19q2 -19 19 -37.5t41 -26.5q7 0 110 -28q60 -23 76 -53v38q0 17 -17.5 34
t-47.5 28l-121 31q-34 11 -60 33z" />
    <glyph glyph-name="Scedilla" unicode="&#x15e;" horiz-adv-x="711" 
d="M486 416h1q65 -24 104 -60q43 -40 45 -91v-80q0 -22 -6 -43q-22 -64 -101 -105q-28 -19 -68 -28v1q-46 -12 -98 -15h-18q-48 0 -95 11l-9 -19q26 -16 26 -48q0 -24 -16.5 -40.5t-39.5 -16.5q-24 0 -41 17q-6 6 -6 15t6 16q16 14 32 0q3 -4 9 -4q12 0 12 13t-12 13
q-13 0 -19 10q-7 10 -1 21l16 36q-22 9 -41 19q-24 13 -44 31v-48q0 -10 -7 -17t-16 -7q-10 0 -17 7t-7 17v188q0 10 7 16.5t17 6.5q9 0 16 -6.5t7 -16.5v-50q8 -50 70 -84q68 -39 169 -36q48 3 90 15v1l22 6l13 6q46 20 48 60q2 30 -24 60q-30 33 -77 47l-179 54
q-53 15 -94 61q-43 49 -43 102v75q-2 39 18 77q18 34 53 63q72 58 173 61q116 5 195 -58v30q0 10 7 16.5t17 6.5q9 0 16 -6.5t7 -16.5v-159q0 -10 -7 -17t-16 -7q-10 0 -17 7t-7 17v62q-25 36 -74 57q-53 24 -119 22q-56 -3 -102 -24q-79 -44 -74 -90q3 -28 33 -54t67 -36z
M579 146l3 8q5 17 4 30l1 1v79q-2 33 -32 62t-86 49l-198 61q-47 12 -85 46q-9 7 -23 23v-53q2 -39 32 -72q33 -36 72 -48q3 -1 7 -2t14 -4t26.5 -8t51 -15t80.5 -24q60 -18 99 -62q28 -32 34 -71z" />
    <glyph glyph-name="scedilla" unicode="&#x15f;" horiz-adv-x="462" 
d="M195 298l121 -36q46 -16 71.5 -42t25.5 -58v-46q0 -17 -5 -29q-11 -32 -50.5 -56t-91.5 -30h-2v-1l-12 -24q26 -16 26 -48q0 -24 -16.5 -40.5t-39.5 -16.5q-24 0 -41 17q-6 6 -6 15t6 16q16 14 32 0q3 -4 9 -4q12 0 12 13t-12 13q-13 0 -19 10q-7 11 -1 21l13 27
q-68 4 -117 36v-15q0 -8 -6 -14.5t-15 -6.5q-7 0 -14 6.5t-7 14.5v104q0 8 7 14.5t14 6.5q9 0 15 -6.5t6 -14.5v-25q10 -25 48 -42t91 -15q33 0 62 11q38 22 38 38q0 12 -16.5 25.5t-40.5 17.5q-16 4 -30.5 8t-24.5 7t-18.5 5.5t-13.5 4.5t-9.5 3t-6.5 2t-3.5 1.5t-2.5 0.5
h-2q-34 10 -60 40.5t-28 62.5v43q0 51 44.5 86t111.5 39q63 4 112 -26v4q0 8 6.5 15t14.5 7q7 0 14 -7t7 -15v-85q0 -9 -7 -15t-14 -6q-8 0 -14.5 6t-6.5 15v29q-40 40 -107 35q-25 0 -58 -12q-46 -21 -46 -42q3 -11 20 -24.5t37 -17.5zM370 124v38q0 17 -17.5 34t-47.5 28
l-121 31q-34 11 -60 33v-19q2 -19 19 -37.5t41 -26.5q7 0 110 -28q60 -23 76 -53z" />
    <glyph glyph-name="Scaron" unicode="&#x160;" horiz-adv-x="711" 
d="M348 775l-104 98q-12 12 -1 23q10 12 23 3l101 -74l100 74q13 9 23 -3t-1 -23l-106 -100q-9 -9 -26 -4l-6 4h-1q0 2 -2 2zM636 263v-79q0 -22 -6 -43q-22 -64 -101 -105q-28 -19 -68 -28v1q-46 -12 -98 -15h-18q-104 0 -179 43q-24 13 -44 31v-48q0 -10 -7 -17t-16 -7
q-10 0 -17 7t-7 17v188q0 10 7 16.5t17 6.5q9 0 16 -6.5t7 -16.5v-50q8 -50 70 -84q68 -39 169 -36q48 3 90 15v1l22 6l13 6q46 20 48 60q2 30 -24 60q-30 33 -77 47l-179 54q-53 15 -94 61q-43 49 -43 102v75q-2 39 18 77q18 34 53 63q72 58 173 61q116 5 195 -58v30
q0 10 7 16.5t17 6.5q9 0 16 -6.5t7 -16.5v-159q0 -10 -7 -17t-16 -7q-10 0 -17 7t-7 17v62q-25 36 -74 57q-53 24 -119 22q-56 -3 -102 -24q-79 -44 -74 -90q3 -28 33 -54t67 -36l200 -61q65 -24 104 -60q43 -40 45 -92zM586 184v79q0 33 -31 62q-30 29 -86 49l-198 61
q-47 12 -85 46q-9 7 -23 23v-53q2 -39 32 -72q33 -36 72 -48q18 -6 28 -9t18.5 -5t43 -12t89.5 -27q60 -18 99 -62q28 -32 34 -71l3 8q5 17 4 31z" />
    <glyph glyph-name="scaron" unicode="&#x161;" horiz-adv-x="451" 
d="M218 537l-104 98q-12 12 -1 23q10 12 23 3l101 -74l100 74q13 9 23 -3t-1 -23l-106 -100q-9 -9 -26 -4l-6 4h-1q0 2 -2 2zM413 161v-46q0 -17 -5 -29q-13 -36 -59.5 -61t-106.5 -27h-11q-77 0 -133 36v-15q0 -8 -6 -14.5t-15 -6.5q-7 0 -14 7t-7 14v104q0 7 7 14t14 7
q9 0 15 -6.5t6 -14.5v-25q10 -25 48 -42t91 -15q33 0 62 11q38 22 38 38q0 12 -16.5 25.5t-40.5 17.5q-16 4 -30.5 8t-24.5 7t-18.5 5.5t-13.5 4.5t-9.5 3t-6.5 2t-3.5 1.5t-2.5 0.5h-2q-34 10 -60 40.5t-28 62.5v43q0 51 44.5 86t111.5 39q63 4 112 -26v4q0 8 6.5 15
t14.5 7q7 0 14 -7t7 -15v-85q0 -9 -7 -15t-14 -6q-8 0 -14.5 6t-6.5 15v29q-40 40 -107 35q-25 0 -58 -12q-46 -21 -46 -42q3 -11 20 -24.5t37 -17.5l121 -36q46 -16 71.5 -42t25.5 -58zM124 287v-19q2 -19 19 -37.5t41 -26.5q7 0 110 -28q60 -23 76 -53v38q0 17 -17.5 34
t-47.5 28l-121 31q-34 11 -60 33z" />
    <glyph glyph-name="Tcedilla" unicode="&#x162;" horiz-adv-x="764" 
d="M60 723h644q9 0 15.5 -6.5t6.5 -15.5v-91q0 -9 -6.5 -15.5t-15.5 -6.5t-15.5 6.5t-6.5 15.5v69h-208v-635h71q9 0 15.5 -6.5t6.5 -15.5t-6.5 -15.5t-15.5 -6.5h-143l-12 -24q26 -16 26 -48q0 -24 -16.5 -40.5t-39.5 -16.5q-24 0 -41 17q-6 6 -6 15t6 16q16 14 32 0
q3 -4 9 -4q12 0 12 13t-12 13q-13 0 -19 10q-7 11 -1 21l14 28h-146q-9 0 -15.5 6.5t-6.5 15.5t6.5 15.5t15.5 6.5h75v635h-201v-61q0 -9 -6.5 -15.5t-15.5 -6.5t-15.5 6.5t-6.5 15.5v83q0 9 6.5 15.5t15.5 6.5zM430 679h-103v-635h103v635z" />
    <glyph glyph-name="tcedilla" unicode="&#x163;" horiz-adv-x="390" 
d="M281 42h11q52 6 73 48q2 8 11.5 10.5t18.5 0.5q16 -10 11 -29q-17 -33 -48 -53t-66 -20h-17l-12 -24q26 -16 26 -48q0 -24 -16.5 -40.5t-39.5 -16.5q-24 0 -41 17q-6 6 -6 15t6 16q16 14 32 0q3 -4 9 -4q12 0 12 13t-12 13q-13 0 -19 10q-7 11 -1 21l13 28h-29
q-55 0 -92 37.5t-37 90.5v268h-29q-8 0 -15 7t-7 15q0 22 22 22h29v151h-29q-8 0 -15 7t-7 15q0 22 22 22h147q22 0 22 -22v-173h113q22 0 22 -22q0 -8 -7 -15t-15 -7h-113v-268q0 -32 20.5 -55.5t52.5 -29.5zM112 439h52v151h-52v-151zM112 395v-268q0 -33 24 -57.5
t57 -27.5q-29 35 -29 85v268h-52z" />
    <glyph glyph-name="Tcaron" unicode="&#x164;" horiz-adv-x="764" 
d="M363 800l-104 98q-12 12 -1 23q10 12 23 3l101 -74l100 74q13 9 23 -3t-1 -23l-106 -100q-9 -9 -26 -4l-6 4h-1q0 2 -2 2zM60 723h644q9 0 15.5 -6.5t6.5 -15.5v-91q0 -9 -6.5 -15.5t-15.5 -6.5t-15.5 6.5t-6.5 15.5v69h-208v-635h71q9 0 15.5 -6.5t6.5 -15.5t-6.5 -15.5
t-15.5 -6.5h-337q-9 0 -15.5 6.5t-6.5 15.5t6.5 15.5t15.5 6.5h75v635h-201v-61q0 -9 -6.5 -15.5t-15.5 -6.5t-15.5 6.5t-6.5 15.5v83q0 9 6.5 15.5t15.5 6.5zM430 679h-103v-635h103v635z" />
    <glyph glyph-name="tcaron" unicode="&#x165;" horiz-adv-x="452" 
d="M337 550l26 58q-8 2 -12 4q-22 10 -30.5 31.5t1.5 43.5q9 21 30.5 29.5t44.5 -1.5q21 -9 29 -29.5t-1 -43.5l-48 -110q-7 -13 -20 -13q-3 0 -9 2q-20 9 -11 29zM374 651q13 0 13 13t-13 13t-13 -13t13 -13zM281 38h11q52 6 73 48q2 8 11.5 10.5t18.5 0.5q16 -10 11 -29
q-17 -33 -48 -53t-66 -20h-95q-55 0 -92 37.5t-37 90.5v268h-29q-8 0 -15 7t-7 15q0 22 22 22h29v151h-29q-8 0 -15 7t-7 15q0 22 22 22h147q22 0 22 -22v-173h113q22 0 22 -22q0 -8 -7 -15t-15 -7h-113v-268q0 -32 20.5 -55.5t52.5 -29.5zM112 435h52v151h-52v-151z
M112 391v-268q0 -33 24 -57.5t57 -27.5q-29 35 -29 85v268h-52z" />
    <glyph glyph-name="Tbar" unicode="&#x166;" horiz-adv-x="764" 
d="M60 723h644q9 0 15.5 -6.5t6.5 -15.5v-91q0 -9 -6.5 -15.5t-15.5 -6.5t-15.5 6.5t-6.5 15.5v69h-208v-371h121q22 0 22 -22q0 -9 -6 -15.5t-16 -6.5h-121v-220h71q9 0 15.5 -6.5t6.5 -15.5t-6.5 -15.5t-15.5 -6.5h-337q-9 0 -15.5 6.5t-6.5 15.5t6.5 15.5t15.5 6.5h75
v220h-114q-10 0 -16 6.5t-6 15.5q0 22 22 22h114v371h-201v-61q0 -9 -6.5 -15.5t-15.5 -6.5t-15.5 6.5t-6.5 15.5v83q0 9 6.5 15.5t15.5 6.5zM430 308v371h-103v-371h103zM430 264h-103v-220h103v220z" />
    <glyph glyph-name="tbar" unicode="&#x167;" horiz-adv-x="427" 
d="M306 43h11q52 6 73 48q2 8 11.5 10.5t18.5 0.5q16 -10 11 -29q-17 -33 -48 -53t-66 -20h-95q-55 0 -92 37.5t-37 90.5v138h-114q-9 0 -15.5 6.5t-6.5 15.5t6.5 15.5t15.5 6.5h114v86h-29q-8 0 -15 7t-7 15q0 22 22 22h29v151h-29q-8 0 -15 7t-7 15q0 22 22 22h147
q22 0 22 -22v-173h113q22 0 22 -22q0 -8 -7 -15t-15 -7h-113v-86h114q9 0 15.5 -6.5t6.5 -15.5t-6.5 -15.5t-15.5 -6.5h-114v-138q0 -32 20.5 -55.5t52.5 -29.5zM137 440h52v151h-52v-151zM137 310h52v86h-52v-86zM137 266v-138q0 -33 24 -57.5t57 -27.5q-29 35 -29 85v138
h-52z" />
    <glyph glyph-name="Utilde" unicode="&#x168;" horiz-adv-x="828" 
d="M489 797h8q40 5 62 36q5 8 3.5 17t-9.5 14q-17 12 -30 -6q-15 -15 -30 -17q-15 -1 -57 15l-3 1l-1 1l-9 3q-48 17 -71 14q-37 -3 -69 -38q-15 -17 1 -31q17 -15 31 1q23 23 41 24q15 2 52 -11q1 0 4 -2t5 -2l3 -1q44 -18 69 -18zM599 723h186q9 0 15.5 -6.5t6.5 -15.5
q0 -10 -6.5 -16.5t-15.5 -6.5h-71v-443q0 -97 -69 -166q-67 -69 -166 -69h-130q-98 0 -167 69q-68 68 -68 166v443h-70q-10 0 -16.5 6.5t-6.5 16.5q0 9 6.5 15.5t16.5 6.5h337q9 0 15.5 -6.5t6.5 -15.5q0 -10 -6.5 -16.5t-15.5 -6.5h-77v-443q0 -80 56 -134q57 -55 136 -55
q70 6 117 55q56 56 56 134v443h-70q-10 0 -16.5 6.5t-6.5 16.5q0 9 6.5 15.5t16.5 6.5zM159 678v-443q0 -79 55 -134q56 -56 135 -56h8q-17 12 -29 24q-69 67 -69 166v443h-100z" />
    <glyph glyph-name="utilde" unicode="&#x169;" horiz-adv-x="557" 
d="M349 547h8q40 5 62 36q5 8 3.5 17t-9.5 14q-17 12 -30 -6q-15 -15 -30 -17q-15 -1 -57 15l-3 1l-1 1l-9 3q-48 17 -71 14q-37 -3 -69 -38q-15 -17 1 -31q17 -15 31 1q23 23 41 24q15 2 52 -11q1 0 4 -2t5 -2l3 -1q44 -18 69 -18zM483 44h28q8 0 15 -7t7 -15t-7 -14.5
t-15 -6.5h-141q-8 0 -14.5 6.5t-6.5 14.5v18q-46 -39 -92 -39h-4h-3h-35q-59 0 -100.5 41.5t-41.5 100.5v250h-28q-8 0 -14.5 7t-6.5 15t6.5 14.5t14.5 6.5h141q8 0 14.5 -6.5t6.5 -14.5v-318q0 -22 14 -37.5t32 -15.5q40 0 68 29t28 70v250h-28q-8 0 -15 7t-7 15t7 14.5
t15 6.5h141q8 0 14.5 -6.5t6.5 -14.5v-371zM116 393v-250q0 -32 16.5 -56.5t43.5 -35.5q-11 22 -11 46v296h-49zM441 393h-50v-349h50v349z" />
    <glyph glyph-name="Umacron" unicode="&#x16a;" horiz-adv-x="828" 
d="M304 810h217q9 0 15.5 6.5t6.5 15.5t-6.5 15.5t-15.5 6.5h-217q-9 0 -15.5 -6.5t-6.5 -15.5t6.5 -15.5t15.5 -6.5zM599 723h186q9 0 15.5 -6.5t6.5 -15.5q0 -10 -6.5 -16.5t-15.5 -6.5h-71v-443q0 -97 -69 -166q-67 -69 -166 -69h-130q-98 0 -167 69q-68 68 -68 166v443
h-70q-10 0 -16.5 6.5t-6.5 16.5q0 9 6.5 15.5t16.5 6.5h337q9 0 15.5 -6.5t6.5 -15.5q0 -10 -6.5 -16.5t-15.5 -6.5h-77v-443q0 -80 56 -134q57 -55 136 -55q70 6 117 55q56 56 56 134v443h-70q-10 0 -16.5 6.5t-6.5 16.5q0 9 6.5 15.5t16.5 6.5zM159 678v-443
q0 -79 55 -134q56 -56 135 -56h8q-17 12 -29 24q-69 67 -69 166v443h-100z" />
    <glyph glyph-name="umacron" unicode="&#x16b;" horiz-adv-x="557" 
d="M150 564h217q9 0 15.5 6.5t6.5 15.5t-6.5 15.5t-15.5 6.5h-217q-9 0 -15.5 -6.5t-6.5 -15.5t6.5 -15.5t15.5 -6.5zM483 44h28q8 0 15 -7t7 -15t-7 -14.5t-15 -6.5h-141q-8 0 -14.5 6.5t-6.5 14.5v18q-46 -39 -92 -39h-4h-3h-35q-59 0 -100.5 41.5t-41.5 100.5v250h-28
q-8 0 -14.5 7t-6.5 15t6.5 14.5t14.5 6.5h141q8 0 14.5 -6.5t6.5 -14.5v-318q0 -22 14 -37.5t32 -15.5q40 0 68 29t28 70v250h-28q-8 0 -15 7t-7 15t7 14.5t15 6.5h141q8 0 14.5 -6.5t6.5 -14.5v-371zM116 393v-250q0 -32 16.5 -56.5t43.5 -35.5q-11 22 -11 46v296h-49z
M441 393h-50v-349h50v349z" />
    <glyph glyph-name="Ubreve" unicode="&#x16c;" horiz-adv-x="828" 
d="M409 781q61 0 106 25q48 26 56 70q1 9 -4.5 16.5t-14.5 8.5t-16 -4.5t-9 -14.5q-3 -21 -33 -38q-36 -19 -85 -19q-48 0 -84 19q-30 17 -33 38q-2 9 -9 14.5t-16 4.5q-9 -2 -14.5 -9t-4.5 -16q6 -44 56 -70q45 -25 105 -25zM599 723h186q9 0 15.5 -6.5t6.5 -15.5
q0 -10 -6.5 -16.5t-15.5 -6.5h-71v-443q0 -97 -69 -166q-67 -69 -166 -69h-130q-98 0 -167 69q-68 68 -68 166v443h-70q-10 0 -16.5 6.5t-6.5 16.5q0 9 6.5 15.5t16.5 6.5h337q9 0 15.5 -6.5t6.5 -15.5q0 -10 -6.5 -16.5t-15.5 -6.5h-77v-443q0 -80 56 -134q57 -55 136 -55
q70 6 117 55q56 56 56 134v443h-70q-10 0 -16.5 6.5t-6.5 16.5q0 9 6.5 15.5t16.5 6.5zM159 678v-443q0 -79 55 -134q56 -56 135 -56h8q-17 12 -29 24q-69 67 -69 166v443h-100z" />
    <glyph glyph-name="ubreve" unicode="&#x16d;" horiz-adv-x="557" 
d="M268 535q61 0 106 25q48 26 56 70q1 9 -4.5 16.5t-14.5 8.5t-16 -4.5t-9 -14.5q-3 -21 -33 -38q-36 -19 -85 -19q-48 0 -84 19q-30 17 -33 38q-2 9 -9 14.5t-16 4.5q-9 -2 -14.5 -9t-4.5 -16q6 -44 56 -70q45 -25 105 -25zM483 44h28q8 0 15 -7t7 -15t-7 -14.5t-15 -6.5
h-141q-8 0 -14.5 6.5t-6.5 14.5v18q-46 -39 -92 -39h-4h-3h-35q-59 0 -100.5 41.5t-41.5 100.5v250h-28q-8 0 -14.5 7t-6.5 15t6.5 14.5t14.5 6.5h141q8 0 14.5 -6.5t6.5 -14.5v-318q0 -22 14 -37.5t32 -15.5q40 0 68 29t28 70v250h-28q-8 0 -15 7t-7 15t7 14.5t15 6.5h141
q8 0 14.5 -6.5t6.5 -14.5v-371zM116 393v-250q0 -32 16.5 -56.5t43.5 -35.5q-11 22 -11 46v296h-49zM441 393h-50v-349h50v349z" />
    <glyph glyph-name="Uring" unicode="&#x16e;" horiz-adv-x="828" 
d="M424 778q34 0 58 24t24 58t-24 58t-58 24t-58 -24t-24 -58t24 -58t58 -24zM424 898q16 0 27 -11t11 -27t-11 -27t-27 -11t-27 11t-11 27t11 27t27 11zM599 723h186q9 0 15.5 -6.5t6.5 -15.5q0 -10 -6.5 -16.5t-15.5 -6.5h-71v-443q0 -97 -69 -166q-67 -69 -166 -69h-130
q-98 0 -167 69q-68 68 -68 166v443h-70q-10 0 -16.5 6.5t-6.5 16.5q0 9 6.5 15.5t16.5 6.5h337q9 0 15.5 -6.5t6.5 -15.5q0 -10 -6.5 -16.5t-15.5 -6.5h-77v-443q0 -80 56 -134q57 -55 136 -55q70 6 117 55q56 56 56 134v443h-70q-10 0 -16.5 6.5t-6.5 16.5q0 9 6.5 15.5
t16.5 6.5zM159 678v-443q0 -79 55 -134q56 -56 135 -56h8q-17 12 -29 24q-69 67 -69 166v443h-100z" />
    <glyph glyph-name="uring" unicode="&#x16f;" horiz-adv-x="557" 
d="M268 549q34 0 58 24t24 58t-24 58t-58 24t-58 -24t-24 -58t24 -58t58 -24zM268 669q16 0 27 -11t11 -27t-11 -27t-27 -11t-27 11t-11 27t11 27t27 11zM483 44h28q8 0 15 -7t7 -15t-7 -14.5t-15 -6.5h-141q-8 0 -14.5 6.5t-6.5 14.5v18q-46 -39 -92 -39h-4h-3h-35
q-59 0 -100.5 41.5t-41.5 100.5v250h-28q-8 0 -14.5 7t-6.5 15t6.5 14.5t14.5 6.5h141q8 0 14.5 -6.5t6.5 -14.5v-318q0 -22 14 -37.5t32 -15.5q40 0 68 29t28 70v250h-28q-8 0 -15 7t-7 15t7 14.5t15 6.5h141q8 0 14.5 -6.5t6.5 -14.5v-371zM116 393v-250q0 -32 16.5 -56.5
t43.5 -35.5q-11 22 -11 46v296h-49zM441 393h-50v-349h50v349z" />
    <glyph glyph-name="Uhungarumlaut" unicode="&#x170;" horiz-adv-x="828" 
d="M429 854l-175 -81q-16 -7 -25 9q-7 16 7 25l167 99q5 5 18.5 2t19.5 -15q6 -13 1.5 -24.5t-13.5 -14.5zM629 854l-175 -81q-16 -7 -25 9q-7 16 7 25l167 99q5 5 18.5 2t19.5 -15q6 -13 1.5 -24.5t-13.5 -14.5zM599 723h186q9 0 15.5 -6.5t6.5 -15.5q0 -10 -6.5 -16.5
t-15.5 -6.5h-71v-443q0 -97 -69 -166q-67 -69 -166 -69h-130q-98 0 -167 69q-68 68 -68 166v443h-70q-10 0 -16.5 6.5t-6.5 16.5q0 9 6.5 15.5t16.5 6.5h337q9 0 15.5 -6.5t6.5 -15.5q0 -10 -6.5 -16.5t-15.5 -6.5h-77v-443q0 -80 56 -134q57 -55 136 -55q70 6 117 55
q56 56 56 134v443h-70q-10 0 -16.5 6.5t-6.5 16.5q0 9 6.5 15.5t16.5 6.5zM159 678v-443q0 -79 55 -134q56 -56 135 -56h8q-17 12 -29 24q-69 67 -69 166v443h-100z" />
    <glyph glyph-name="uhungarumlaut" unicode="&#x171;" horiz-adv-x="557" 
d="M284 613l-175 -81q-16 -7 -25 9q-7 16 7 25l167 99q5 5 18.5 2t19.5 -15q6 -13 1.5 -24.5t-13.5 -14.5zM454 613l-175 -81q-16 -7 -25 9q-7 16 7 25l167 99q5 5 18.5 2t19.5 -15q6 -13 1.5 -24.5t-13.5 -14.5zM483 44h28q8 0 15 -7t7 -15t-7 -14.5t-15 -6.5h-141
q-8 0 -14.5 6.5t-6.5 14.5v18q-46 -39 -92 -39h-4h-3h-35q-59 0 -100.5 41.5t-41.5 100.5v250h-28q-8 0 -14.5 7t-6.5 15t6.5 14.5t14.5 6.5h141q8 0 14.5 -6.5t6.5 -14.5v-318q0 -22 14 -37.5t32 -15.5q40 0 68 29t28 70v250h-28q-8 0 -15 7t-7 15t7 14.5t15 6.5h141
q8 0 14.5 -6.5t6.5 -14.5v-371zM116 393v-250q0 -32 16.5 -56.5t43.5 -35.5q-11 22 -11 46v296h-49zM441 393h-50v-349h50v349z" />
    <glyph glyph-name="Uogonek" unicode="&#x172;" horiz-adv-x="828" 
d="M599 721h186q9 0 15.5 -6.5t6.5 -15.5q0 -10 -6.5 -16.5t-15.5 -6.5h-71v-443q0 -94 -69 -166q-20 -22 -59 -46q-10 -7 -19 -13.5t-13.5 -9t-9.5 -6.5t-10 -9l-20 -20q-10 -10 -10 -24t10 -24t24 -10q12 0 24 10q15 16 31 0t0 -31q-23 -23 -55 -23t-55 23q-23 22 -23 55
t23 55l4 4h-138q-98 0 -167 69q-68 68 -68 166v443h-70q-10 0 -16.5 6.5t-6.5 16.5q0 9 6.5 15.5t16.5 6.5h337q9 0 15.5 -6.5t6.5 -15.5q0 -10 -6.5 -16.5t-15.5 -6.5h-77v-443q0 -80 56 -134q57 -55 135 -55h1q70 6 117 55q56 56 56 134v443h-70q-10 0 -16.5 6.5
t-6.5 16.5q0 9 6.5 15.5t16.5 6.5zM349 43h8q-17 12 -29 24q-69 67 -69 166v443h-100v-443q0 -79 55 -134q56 -56 135 -56z" />
    <glyph glyph-name="uogonek" unicode="&#x173;" horiz-adv-x="557" 
d="M483 44h28q8 0 15 -7t7 -15t-7 -14.5t-15 -6.5h-141q-8 0 -14.5 6.5t-6.5 14.5v17q-4 -4 -5 -6q-10 -9 -25 -25l-48 -48q-10 -10 -10 -24t10 -24t24 -10q12 0 24 10q15 16 31 0t0 -31q-23 -23 -55 -23t-55 23t-23 55t23 55l9 10h-34q-59 0 -100.5 41.5t-41.5 100.5v250
h-28q-8 0 -14.5 7t-6.5 15t6.5 14.5t14.5 6.5h141q8 0 14.5 -6.5t6.5 -14.5v-318q0 -22 14 -37.5t32 -15.5q40 0 68 29t28 70v250h-28q-8 0 -15 7t-7 15t7 14.5t15 6.5h141q8 0 14.5 -6.5t6.5 -14.5v-371zM116 393v-250q0 -32 16.5 -56.5t43.5 -35.5q-11 22 -11 46v296h-49z
M441 393h-50v-349h50v349z" />
    <glyph glyph-name="Wcircumflex" unicode="&#x174;" horiz-adv-x="1302" 
d="M696 901l104 -98q12 -12 1 -23q-10 -12 -23 -3l-101 74l-100 -74q-13 -9 -23 3t1 23l106 100q9 9 26 4l6 -4h1q0 -2 2 -2zM1067 719h203q9 0 15.5 -6.5t6.5 -15.5t-6.5 -15.5t-15.5 -6.5h-86l-292 -678q-5 -13 -20 -13h-3h-3q-14 0 -21 13l-193 450l-194 -450
q-5 -13 -20 -13h-3h-3q-14 0 -21 13l-291 678h-88q-10 0 -16 6.5t-6 15.5t6 15.5t16 6.5h262q15 0 20 -14q1 -1 4 -6l197 -458l113 262l-74 172h-70q-10 0 -16 6.5t-6 15.5t6 15.5t16 6.5h353q9 0 15.5 -6.5t6.5 -15.5t-6.5 -15.5t-15.5 -6.5h-75l187 -434l186 434h-68
q-10 0 -16 6.5t-6 15.5t6 15.5t16 6.5zM491 186l-3 5l-208 484h-112l267 -620zM925 186l-3 5l-208 484h-112l267 -620z" />
    <glyph glyph-name="wcircumflex" unicode="&#x175;" horiz-adv-x="814" 
d="M442 659l104 -98q12 -12 1 -23q-10 -12 -23 -3l-101 74l-100 -74q-13 -9 -23 3t1 23l106 100q9 9 26 4l6 -4h1q0 -2 2 -2zM692 436h104q8 0 15 -7t7 -15t-7 -14.5t-15 -6.5h-29l-139 -383q-2 -5 -9.5 -9.5t-12.5 -4.5h-103q-10 0 -18 14l-79 211l-75 -211q-8 -14 -21 -14
h-104q-11 0 -17 14l-143 383h-29q-8 0 -14.5 6.5t-6.5 14.5t6.5 15t14.5 7h203q8 0 15.5 -7t7.5 -15t-7.5 -14.5t-15.5 -6.5h-28l114 -318l79 207l-42 111h-30q-8 0 -14.5 6.5t-6.5 14.5t7 15t14 7h204q8 0 15 -7t7 -15t-7 -14.5t-15 -6.5h-28l114 -318l118 318h-29
q-8 0 -14.5 6.5t-6.5 14.5t6.5 15t14.5 7zM274 39l-128 354h-54l132 -354h50zM571 39l-128 354h-54l131 -354h51z" />
    <glyph glyph-name="Ycircumflex" unicode="&#x176;" horiz-adv-x="839" 
d="M473 901l104 -98q12 -12 1 -23q-10 -12 -23 -3l-101 74l-100 -74q-13 -9 -23 3t1 23l106 100q9 9 26 4l6 -4h1q0 -2 2 -2zM619 722h200q9 0 15.5 -6.5t6.5 -15.5t-6.5 -15.5t-15.5 -6.5h-75l-233 -289q1 -2 1 -5v-340h72q9 0 15.5 -6.5t6.5 -15.5t-6.5 -15.5t-15.5 -6.5
h-337q-9 0 -15.5 6.5t-6.5 15.5t6.5 15.5t15.5 6.5h74v276l-231 358h-70q-9 0 -15.5 6.5t-6.5 15.5t6.5 15.5t15.5 6.5h390q9 0 15.5 -6.5t6.5 -15.5t-6.5 -15.5t-15.5 -6.5h-85l162 -249l200 249h-68q-9 0 -15.5 6.5t-6.5 15.5t6.5 15.5t15.5 6.5zM468 44v333l-195 301
h-131l219 -340q4 -4 4 -12v-282h103z" />
    <glyph glyph-name="ycircumflex" unicode="&#x177;" horiz-adv-x="543" 
d="M292 659l104 -98q12 -12 1 -23q-10 -12 -23 -3l-101 74l-100 -74q-13 -9 -23 3t1 23l106 100q9 9 26 4l6 -4h1q0 -2 2 -2zM422 436h107q23 0 23 -22q0 -8 -7 -15t-16 -7h-28l-240 -597q-17 -41 -52.5 -65t-77.5 -24q-14 0 -21 1q-26 3 -44 22.5t-18 46.5q0 29 21 49.5
t50 20.5q14 0 21 -3l36 -18q16 -9 32 -2.5t26 26.5l8 17l-215 526h-27q-8 0 -15 7t-7 15q0 22 22 22h214q20 0 20 -22q0 -8 -6 -15t-14 -7h-34l137 -334l133 334h-28q-10 0 -16.5 7t-6.5 15q0 22 23 22zM296 0l-165 392h-56l190 -465zM141 -250q32 5 53 27q-16 0 -33 6
q-6 3 -12.5 6.5t-10.5 5.5l-7 3.5l-5 2.5t-3 1q-6 3 -11 3q-11 0 -18.5 -7.5t-7.5 -18.5q0 -12 7 -18l13 -8q10 -5 35 -3z" />
    <glyph glyph-name="Ydieresis" unicode="&#x178;" horiz-adv-x="839" 
d="M331 790q23 0 39.5 16.5t16.5 40.5q0 23 -16.5 39.5t-39.5 16.5q-24 0 -40.5 -16.5t-16.5 -39.5q0 -24 16.5 -40.5t40.5 -16.5zM518 790q23 0 39.5 16.5t16.5 40.5q0 23 -16.5 39.5t-39.5 16.5q-24 0 -40.5 -16.5t-16.5 -39.5q0 -24 16.5 -40.5t40.5 -16.5zM331 860
q13 0 13 -13t-13 -13t-13 13t13 13zM518 860q13 0 13 -13t-13 -13t-13 13t13 13zM619 722h200q9 0 15.5 -6.5t6.5 -15.5t-6.5 -15.5t-15.5 -6.5h-75l-233 -289q1 -2 1 -5v-340h72q9 0 15.5 -6.5t6.5 -15.5t-6.5 -15.5t-15.5 -6.5h-337q-9 0 -15.5 6.5t-6.5 15.5t6.5 15.5
t15.5 6.5h74v276l-231 358h-70q-9 0 -15.5 6.5t-6.5 15.5t6.5 15.5t15.5 6.5h390q9 0 15.5 -6.5t6.5 -15.5t-6.5 -15.5t-15.5 -6.5h-85l162 -249l200 249h-68q-9 0 -15.5 6.5t-6.5 15.5t6.5 15.5t15.5 6.5zM468 44v333l-195 301h-131l219 -340q4 -4 4 -12v-282h103z" />
    <glyph glyph-name="Zacute" unicode="&#x179;" horiz-adv-x="761" 
d="M517 854l-175 -81q-16 -7 -25 9q-7 16 7 25l167 99q5 5 18.5 2t19.5 -15q6 -13 1.5 -24.5t-13.5 -14.5zM667 44v72q0 9 6.5 15.5t15.5 6.5t15.5 -6.5t6.5 -15.5v-94q0 -9 -6.5 -15.5t-15.5 -6.5h-622q-13 0 -19 11q-6 13 1 23l417 643h-323v-69q0 -9 -6.5 -15.5
t-15.5 -6.5t-15.5 6.5t-6.5 15.5v91q0 9 6.5 15.5t15.5 6.5h568q13 0 19 -11q6 -13 -1 -23l-417 -643h377zM238 44l410 633h-130l-411 -633h131z" />
    <glyph glyph-name="zacute" unicode="&#x17a;" horiz-adv-x="491" 
d="M357 613l-175 -81q-16 -7 -25 9q-7 16 7 25l167 99q5 5 18.5 2t19.5 -15q6 -13 1.5 -24.5t-13.5 -14.5zM418 44v27q0 8 7 14.5t15 6.5t14.5 -6.5t6.5 -14.5v-48q0 -8 -6.5 -15.5t-14.5 -7.5h-384q-13 0 -18 12q-2 4 -2 11t2 10l251 359h-209v-29q0 -8 -6.5 -14.5
t-14.5 -6.5q-7 0 -14 6.5t-7 14.5v50q0 8 7 14.5t14 6.5h381q13 0 16 -10q4 -5 3.5 -12.5t-5.5 -9.5l-246 -358h210zM155 44l243 348h-61l-243 -348h61z" />
    <glyph glyph-name="Zdotaccent" unicode="&#x17b;" horiz-adv-x="761" 
d="M410 790q23 0 39.5 16.5t16.5 40.5q0 23 -16.5 39.5t-39.5 16.5q-24 0 -40.5 -16.5t-16.5 -39.5q0 -24 16.5 -40.5t40.5 -16.5zM410 860q13 0 13 -13t-13 -13t-13 13t13 13zM667 44v72q0 9 6.5 15.5t15.5 6.5t15.5 -6.5t6.5 -15.5v-94q0 -9 -6.5 -15.5t-15.5 -6.5h-622
q-13 0 -19 11q-6 13 1 23l417 643h-323v-69q0 -9 -6.5 -15.5t-15.5 -6.5t-15.5 6.5t-6.5 15.5v91q0 9 6.5 15.5t15.5 6.5h568q13 0 19 -11q6 -13 -1 -23l-417 -643h377zM238 44l410 633h-130l-411 -633h131z" />
    <glyph glyph-name="zdotaccent" unicode="&#x17c;" horiz-adv-x="491" 
d="M255 531q23 0 39.5 16.5t16.5 40.5q0 23 -16.5 39.5t-39.5 16.5q-24 0 -40.5 -16.5t-16.5 -39.5q0 -24 16.5 -40.5t40.5 -16.5zM255 601q13 0 13 -13t-13 -13t-13 13t13 13zM418 44v27q0 8 7 14.5t15 6.5t14.5 -6.5t6.5 -14.5v-48q0 -8 -6.5 -15.5t-14.5 -7.5h-384
q-13 0 -18 12q-2 4 -2 11t2 10l251 359h-209v-29q0 -8 -6.5 -14.5t-14.5 -6.5q-7 0 -14 6.5t-7 14.5v50q0 8 7 14.5t14 6.5h381q13 0 16 -10q4 -5 3.5 -12.5t-5.5 -9.5l-246 -358h210zM155 44l243 348h-61l-243 -348h61z" />
    <glyph glyph-name="Zcaron" unicode="&#x17d;" horiz-adv-x="761" 
d="M380 800l-104 98q-12 12 -1 23q10 12 23 3l101 -74l100 74q13 9 23 -3t-1 -23l-106 -100q-9 -9 -26 -4l-6 4h-1q0 2 -2 2zM667 44v72q0 9 6.5 15.5t15.5 6.5t15.5 -6.5t6.5 -15.5v-94q0 -9 -6.5 -15.5t-15.5 -6.5h-622q-13 0 -19 11q-6 13 1 23l417 643h-323v-69
q0 -9 -6.5 -15.5t-15.5 -6.5t-15.5 6.5t-6.5 15.5v91q0 9 6.5 15.5t15.5 6.5h568q13 0 19 -11q6 -13 -1 -23l-417 -643h377zM238 44l410 633h-130l-411 -633h131z" />
    <glyph glyph-name="zcaron" unicode="&#x17e;" horiz-adv-x="490" 
d="M217 537l-104 98q-12 12 -1 23q10 12 23 3l101 -74l100 74q13 9 23 -3t-1 -23l-106 -100q-9 -9 -26 -4l-6 4h-1q0 2 -2 2zM418 44v27q0 8 7 14.5t15 6.5t14.5 -6.5t6.5 -14.5v-48q0 -8 -6.5 -15.5t-14.5 -7.5h-384q-13 0 -18 12q-2 4 -2 11t2 10l251 359h-209v-29
q0 -8 -6.5 -14.5t-14.5 -6.5q-7 0 -14 6.5t-7 14.5v50q0 8 7 14.5t14 6.5h381q13 0 16 -10q4 -5 3.5 -12.5t-5.5 -9.5l-246 -358h210zM155 44l243 348h-61l-243 -348h61z" />
    <glyph glyph-name="florin" unicode="&#x192;" horiz-adv-x="520" 
d="M305 392l-191 -595q-13 -42 -47.5 -68.5t-76.5 -29.5h-21q-26 1 -45 19.5t-21 44.5q-2 29 17 51.5t48 23.5q13 2 21 -2l38 -15q17 -7 32.5 0.5t23.5 27.5l174 543h-84q-9 0 -15.5 6t-6.5 16q0 9 6.5 15.5t15.5 6.5h98l60 184q14 42 47.5 68.5t75.5 29.5q7 1 21 1
q26 -2 45.5 -20t21.5 -45q2 -29 -17.5 -51t-47.5 -24q-15 0 -22 2l-37 15q-16 8 -32.5 0.5t-23.5 -27.5l-43 -133h87q9 0 15.5 -6.5t6.5 -15.5q0 -10 -6.5 -16t-15.5 -6h-101zM490 670l-1 1q-16 7 -42 2q-30 -5 -51 -30q18 2 34 -4q10 -4 19.5 -8t13.5 -6t6 -2q4 -2 12 -2
q11 1 18 9t6 19q-2 11 -9 17l-1 2zM-46 -253h1q16 -6 42 -3q33 7 51 31q-17 -2 -34 4q-37 16 -39 16q-6 2 -11 2q-10 -1 -17.5 -9t-6.5 -19q0 -9 9 -18l1 -1z" />
    <glyph glyph-name="commaturnedmod" unicode="&#x2bb;" horiz-adv-x="247" 
d="M160 626l-26 -58q8 -2 12 -4q22 -10 30.5 -31.5t-1.5 -43.5q-9 -21 -30.5 -29.5t-44.5 1.5q-21 9 -29 29.5t1 43.5l48 110q6 13 20 13q3 0 9 -2q20 -9 11 -29zM123 525q-13 0 -13 -13t13 -13t13 13t-13 13z" />
    <glyph glyph-name="uni02BC" unicode="&#x2bc;" horiz-adv-x="247" 
d="M87 489l26 58q-8 2 -12 4q-22 10 -30.5 31.5t1.5 43.5q9 21 30.5 29.5t44.5 -1.5q21 -9 29 -29.5t-1 -43.5l-48 -110q-7 -13 -20 -13q-3 0 -9 2q-20 9 -11 29zM124 590q13 0 13 13t-13 13t-13 -13t13 -13z" />
    <glyph glyph-name="circumflex" unicode="&#x2c6;" horiz-adv-x="278" 
d="M158 707l104 -98q12 -12 1 -23q-10 -12 -23 -3l-101 74l-100 -74q-13 -9 -23 3t1 23l106 100q9 9 26 4l6 -4h1q0 -2 2 -2z" />
    <glyph glyph-name="caron" unicode="&#x2c7;" horiz-adv-x="278" 
d="M119 562l-104 98q-12 12 -1 23q10 12 23 3l101 -74l100 74q13 9 23 -3t-1 -23l-106 -100q-9 -9 -26 -4l-6 4h-1q0 2 -2 2z" />
    <glyph glyph-name="breve" unicode="&#x2d8;" horiz-adv-x="278" 
d="M140 552q61 0 106 25q48 26 56 70q1 9 -4.5 16.5t-14.5 8.5t-16 -4.5t-9 -14.5q-3 -21 -33 -38q-36 -19 -85 -19q-48 0 -84 19q-30 17 -33 38q-2 9 -9 14.5t-16 4.5q-9 -2 -14.5 -9t-4.5 -16q6 -44 56 -70q45 -25 105 -25z" />
    <glyph glyph-name="dotaccent" unicode="&#x2d9;" horiz-adv-x="278" 
d="M139 616q23 0 39.5 16.5t16.5 40.5q0 23 -16.5 39.5t-39.5 16.5q-24 0 -40.5 -16.5t-16.5 -39.5q0 -24 16.5 -40.5t40.5 -16.5zM139 686q13 0 13 -13t-13 -13t-13 13t13 13z" />
    <glyph glyph-name="ring" unicode="&#x2da;" horiz-adv-x="278" 
d="M139 560q34 0 58 24t24 58t-24 58t-58 24t-58 -24t-24 -58t24 -58t58 -24zM139 680q16 0 27 -11t11 -27t-11 -27t-27 -11t-27 11t-11 27t11 27t27 11z" />
    <glyph glyph-name="ogonek" unicode="&#x2db;" horiz-adv-x="231" 
d="M158 -40l-36 -36q-10 -10 -10 -24t10 -24t24 -10q12 0 24 10q15 16 31 0t0 -31q-23 -23 -55 -23t-55 23t-23 55t23 55l38 38q7 7 17 7q9 0 15.5 -6t6.5 -16q0 -8 -5 -13l-3 -3z" />
    <glyph glyph-name="tilde" unicode="&#x2dc;" horiz-adv-x="278" 
d="M207 576h8q40 5 62 36q5 8 3.5 17t-9.5 14q-17 12 -30 -6q-15 -15 -30 -17q-15 -1 -57 15l-3 1l-1 1l-9 3q-48 17 -71 14q-37 -3 -69 -38q-15 -17 1 -31q17 -15 31 1q23 23 41 24q15 2 52 -11q1 -1 4 -2t5 -2l3 -1q44 -18 69 -18z" />
    <glyph glyph-name="hungarumlaut" unicode="&#x2dd;" horiz-adv-x="278" 
d="M190 650l-175 -81q-16 -7 -25 9q-7 16 7 25l167 99q5 5 18.5 2t19.5 -15q6 -13 1.5 -24.5t-13.5 -14.5zM390 650l-175 -81q-16 -7 -25 9q-7 16 7 25l167 99q5 5 18.5 2t19.5 -15q6 -13 1.5 -24.5t-13.5 -14.5z" />
    <glyph glyph-name="gravecmb" unicode="&#x300;" 
d="M-264 637l175 -81q7 -3 14.5 -0.5t10.5 9.5q9 15 -7 25l-167 99q-5 5 -18.5 2t-19.5 -15q-5 -13 -0.5 -24t12.5 -15z" />
    <glyph glyph-name="acutecmb" unicode="&#x301;" 
d="M17 640l-175 -81q-16 -7 -25 9q-7 16 7 25l167 99q5 5 18.5 2t19.5 -15q6 -13 1.5 -24.5t-13.5 -14.5z" />
    <glyph glyph-name="circumflexcmb" unicode="&#x302;" 
d="M-120 707l104 -98q12 -12 1 -23q-10 -12 -23 -3l-101 74l-100 -74q-13 -9 -23 3t1 23l106 100q9 9 26 4l6 -4h1q0 -2 2 -2z" />
    <glyph glyph-name="tildecmb" unicode="&#x303;" 
d="M-63 576h8q40 5 62 36q5 8 3.5 17t-9.5 14q-17 12 -30 -6q-15 -15 -30 -17q-15 -1 -57 15l-3 1l-1 1l-9 3q-48 17 -71 14q-37 -3 -69 -38q-15 -17 1 -31q17 -15 31 1q23 23 41 24q15 2 52 -11q2 -1 5 -2t4 -2l3 -1q44 -18 69 -18z" />
    <glyph glyph-name="macroncmb" unicode="&#x304;" 
d="M-239 596h217q9 0 15.5 6.5t6.5 15.5t-6.5 15.5t-15.5 6.5h-217q-9 0 -15.5 -6.5t-6.5 -15.5t6.5 -15.5t15.5 -6.5z" />
    <glyph glyph-name="brevecmb" unicode="&#x306;" 
d="M-163 552q61 0 106 25q48 26 56 70q1 9 -4.5 16.5t-14.5 8.5t-16 -4.5t-9 -14.5q-3 -21 -33 -38q-36 -19 -85 -19q-48 0 -84 19q-30 17 -33 38q-2 9 -9 14.5t-16 4.5q-9 -2 -14.5 -9t-4.5 -16q6 -44 56 -70q45 -25 105 -25z" />
    <glyph glyph-name="dotaccentcmb" unicode="&#x307;" 
d="M-136 606q23 0 39.5 16.5t16.5 40.5q0 23 -16.5 39.5t-39.5 16.5q-24 0 -40.5 -16.5t-16.5 -39.5q0 -24 16.5 -40.5t40.5 -16.5zM-136 676q13 0 13 -13t-13 -13t-13 13t13 13z" />
    <glyph glyph-name="dieresiscmb" unicode="&#x308;" 
d="M-228 605q23 0 39.5 16.5t16.5 40.5q0 23 -16.5 39.5t-39.5 16.5q-24 0 -40.5 -16.5t-16.5 -39.5q0 -24 16.5 -40.5t40.5 -16.5zM-45 605q23 0 39.5 16.5t16.5 40.5q0 23 -16.5 39.5t-39.5 16.5q-24 0 -40.5 -16.5t-16.5 -39.5q0 -24 16.5 -40.5t40.5 -16.5zM-228 675
q13 0 13 -13t-13 -13t-13 13t13 13zM-45 675q13 0 13 -13t-13 -13t-13 13t13 13z" />
    <glyph glyph-name="ringcmb" unicode="&#x30a;" 
d="M-136 563q34 0 58 24t24 58t-24 58t-58 24t-58 -24t-24 -58t24 -58t58 -24zM-136 683q16 0 27 -11t11 -27t-11 -27t-27 -11t-27 11t-11 27t11 27t27 11z" />
    <glyph glyph-name="hungarumlautcmb" unicode="&#x30b;" 
d="M-114 650l-175 -81q-16 -7 -25 9q-7 16 7 25l167 99q5 5 18.5 2t19.5 -15q6 -13 1.5 -24.5t-13.5 -14.5zM86 650l-175 -81q-16 -7 -25 9q-7 16 7 25l167 99q5 5 18.5 2t19.5 -15q6 -13 1.5 -24.5t-13.5 -14.5z" />
    <glyph glyph-name="caroncmb" unicode="&#x30c;" 
d="M-156 562l-104 98q-12 12 -1 23q10 12 23 3l101 -74l100 74q13 9 23 -3t-1 -23l-106 -100q-9 -9 -26 -4l-6 4h-1q0 2 -2 2z" />
    <glyph glyph-name="cedillacmb" unicode="&#x327;" 
d="M-106 0l-20 -43q-5 -11 2 -21t18 -10q13 0 13 -13q0 -12 -13 -12q-4 0 -9 3q-15 16 -31 0q-6 -6 -6 -15t6 -16q16 -16 40 -16t40.5 16.5t16.5 39.5q0 32 -26 48l9 21q9 20 -11 29t-29 -11z" />
    <glyph glyph-name="ogonekcmb" unicode="&#x328;" 
d="M-82 -40l-36 -36q-10 -10 -10 -24t10 -24t24 -10q12 0 24 10q15 16 31 0t0 -31q-23 -23 -55 -23t-55 23t-23 55t23 55l38 38q7 7 17 7q9 0 15.5 -6t6.5 -16q0 -8 -5 -13l-3 -3z" />
    <glyph glyph-name="soliduslongoverlaycmb" unicode="&#x338;" 
d="M-52 707l-264 -676q-4 -9 0 -17.5t12 -11.5q3 -2 8 -2q16 0 21 14l264 676q4 9 0 17.5t-12 11.5q-9 4 -17.5 0t-11.5 -12z" />
    <glyph glyph-name="pi" unicode="&#x3c0;" horiz-adv-x="567" 
d="M461 354v-310h64q9 0 15.5 -6.5t6.5 -15.5t-6.5 -15.5t-15.5 -6.5h-178q-9 0 -15.5 6.5t-6.5 15.5v332h-75q0 -2 0.5 -4t0.5 -4q1 -48 2.5 -99.5t-10.5 -116.5t-39 -114q-7 -16 -23 -16h-148q-10 0 -17 7t-7 17t7 17t17 7h37q55 98 44 305q-19 0 -37 -5q-27 -6 -27 -22
q0 -10 -6.5 -16t-15.5 -6t-15.5 6t-6.5 16v19q0 78 48 115q37 29 96 29h376q10 0 16 -6t6 -16v-91q0 -9 -6 -15.5t-16 -6.5h-65zM56 388l10 3q27 7 84 7h354v47h-354q-44 0 -69 -19q-17 -13 -25 -38zM121 48h49q47 95 36 295q0 2 -0.5 6t-0.5 5h-46q11 -199 -38 -306z
M417 354h-48v-310h48v310z" />
    <glyph glyph-name="zerowidthspace" unicode="&#x200b;" 
 />
    <glyph glyph-name="hyphentwo" unicode="&#x2010;" horiz-adv-x="373" 
d="M115 196h144q9 0 15.5 6.5t6.5 16.5q0 9 -6.5 15.5t-15.5 6.5h-144q-10 0 -16.5 -6.5t-6.5 -15.5q0 -10 6.5 -16.5t16.5 -6.5z" />
    <glyph glyph-name="uni2011" unicode="&#x2011;" horiz-adv-x="370" 
d="M113 196h144q9 0 15.5 6.5t6.5 16.5q0 9 -6.5 15.5t-15.5 6.5h-144q-10 0 -16.5 -6.5t-6.5 -15.5q0 -10 6.5 -16.5t16.5 -6.5z" />
    <glyph glyph-name="figuredash" unicode="&#x2012;" horiz-adv-x="500" 
d="M23 196h455q9 0 15.5 6.5t6.5 16.5q0 9 -6.5 15.5t-15.5 6.5h-455q-10 0 -16.5 -6.5t-6.5 -15.5q0 -10 6.5 -16.5t16.5 -6.5z" />
    <glyph glyph-name="endash" unicode="&#x2013;" horiz-adv-x="500" 
d="M24 196h455q9 0 15.5 6.5t6.5 16.5q0 9 -6.5 15.5t-15.5 6.5h-455q-10 0 -16.5 -6.5t-6.5 -15.5q0 -10 6.5 -16.5t16.5 -6.5z" />
    <glyph glyph-name="emdash" unicode="&#x2014;" horiz-adv-x="1000" 
d="M154 196h695q9 0 15.5 6.5t6.5 16.5q0 9 -6.5 15.5t-15.5 6.5h-695q-10 0 -16.5 -6.5t-6.5 -15.5q0 -10 6.5 -16.5t16.5 -6.5z" />
    <glyph glyph-name="uni2015" unicode="&#x2015;" horiz-adv-x="1003" 
d="M153 196h698q9 0 15.5 6.5t6.5 16.5q0 9 -6.5 15.5t-15.5 6.5h-698q-10 0 -16.5 -6.5t-6.5 -15.5q0 -10 6.5 -16.5t16.5 -6.5z" />
    <glyph glyph-name="quoteleft" unicode="&#x2018;" horiz-adv-x="247" 
d="M161 626l-26 -58q8 -2 12 -4q22 -10 30.5 -31.5t-1.5 -43.5q-9 -21 -30.5 -29.5t-44.5 1.5q-21 9 -29 29.5t1 43.5l48 110q7 13 20 13q3 0 9 -2q20 -9 11 -29zM124 525q-13 0 -13 -13t13 -13t13 13t-13 13z" />
    <glyph glyph-name="quoteright" unicode="&#x2019;" horiz-adv-x="247" 
d="M87 489l26 58q-8 2 -12 4q-22 10 -30.5 31.5t1.5 43.5q9 21 30.5 29.5t44.5 -1.5q21 -9 29 -29.5t-1 -43.5l-48 -110q-7 -13 -20 -13q-3 0 -9 2q-20 9 -11 29zM124 590q13 0 13 13t-13 13t-13 -13t13 -13z" />
    <glyph glyph-name="quotesinglbase" unicode="&#x201a;" horiz-adv-x="249" 
d="M87 -71l26 58q-8 2 -12 4q-22 10 -30.5 31.5t1.5 43.5q9 21 30.5 29.5t44.5 -1.5q21 -9 29 -29.5t-1 -43.5l-48 -110q-7 -13 -20 -13q-3 0 -9 2q-20 9 -11 29zM124 30q13 0 13 13t-13 13t-13 -13t13 -13z" />
    <glyph glyph-name="quoteleftreversed" unicode="&#x201b;" horiz-adv-x="247" 
d="M87 489l26 58q-8 2 -12 4q-22 10 -30.5 31.5t1.5 43.5q9 21 30.5 29.5t44.5 -1.5q21 -9 29 -29.5t-1 -43.5l-48 -110q-7 -13 -20 -13q-3 0 -9 2q-20 9 -11 29zM124 590q13 0 13 13t-13 13t-13 -13t13 -13z" />
    <glyph glyph-name="quotedblleft" unicode="&#x201c;" horiz-adv-x="383" 
d="M151 626l-26 -58q8 -2 12 -4q22 -10 30.5 -31.5t-1.5 -43.5q-9 -21 -30.5 -29.5t-44.5 1.5q-21 9 -29 29.5t1 43.5l48 110q7 13 20 13q3 0 9 -2q20 -9 11 -29zM306 626l-26 -58q8 -2 12 -4q22 -10 30.5 -31.5t-1.5 -43.5q-9 -21 -30.5 -29.5t-44.5 1.5q-21 9 -29 29.5
t1 43.5l48 110q6 13 20 13q3 0 9 -2q20 -9 11 -29zM114 525q-13 0 -13 -13t13 -13t13 13t-13 13zM269 525q-13 0 -13 -13t13 -13t13 13t-13 13z" />
    <glyph glyph-name="quotedblright" unicode="&#x201d;" horiz-adv-x="383" 
d="M78 489l26 58q-8 2 -12 4q-22 10 -30.5 31.5t1.5 43.5q9 21 30.5 29.5t44.5 -1.5q21 -9 29 -29.5t-1 -43.5l-48 -110q-6 -13 -20 -13q-3 0 -9 2q-20 9 -11 29zM232 489l26 58q-8 2 -12 4q-22 10 -30.5 31.5t1.5 43.5q9 21 30.5 29.5t44.5 -1.5q21 -9 29 -29.5t-1 -43.5
l-48 -110q-6 -13 -20 -13q-3 0 -9 2q-20 9 -11 29zM115 590q13 0 13 13t-13 13t-13 -13t13 -13zM269 590q13 0 13 13t-13 13t-13 -13t13 -13z" />
    <glyph glyph-name="quotedblbase" unicode="&#x201e;" horiz-adv-x="416" 
d="M78 -71l26 58q-8 2 -12 4q-22 10 -30.5 31.5t1.5 43.5q9 21 30.5 29.5t44.5 -1.5q21 -9 29 -29.5t-1 -43.5l-48 -110q-6 -13 -20 -13q-3 0 -9 2q-20 9 -11 29zM264 -71l26 58q-8 2 -12 4q-22 10 -30.5 31.5t1.5 43.5q9 21 30.5 29.5t44.5 -1.5q21 -9 29 -29.5t-1 -43.5
l-48 -110q-6 -13 -20 -13q-3 0 -9 2q-20 9 -11 29zM115 30q13 0 13 13t-13 13t-13 -13t13 -13zM301 30q13 0 13 13t-13 13t-13 -13t13 -13z" />
    <glyph glyph-name="quotedblleftaltone" unicode="&#x201f;" horiz-adv-x="385" 
d="M79 489l26 58q-8 2 -12 4q-22 10 -30.5 31.5t1.5 43.5q9 21 30.5 29.5t44.5 -1.5q21 -9 29 -29.5t-1 -43.5l-48 -110q-7 -13 -20 -13q-3 0 -9 2q-20 9 -11 29zM233 489l26 58q-8 2 -12 4q-22 10 -30.5 31.5t1.5 43.5q9 21 30.5 29.5t44.5 -1.5q21 -9 29 -29.5t-1 -43.5
l-48 -110q-7 -13 -20 -13q-3 0 -9 2q-20 9 -11 29zM116 590q13 0 13 13t-13 13t-13 -13t13 -13zM270 590q13 0 13 13t-13 13t-13 -13t13 -13z" />
    <glyph glyph-name="bullet" unicode="&#x2022;" horiz-adv-x="441" 
d="M220 192q62 0 105.5 43.5t43.5 104.5t-43.5 104.5t-105.5 43.5q-61 0 -104.5 -43.5t-43.5 -104.5t43.5 -104.5t104.5 -43.5zM220 444q44 0 74.5 -30.5t30.5 -73.5t-30.5 -73.5t-74.5 -30.5q-43 0 -73.5 30.5t-30.5 73.5t30.5 73.5t73.5 30.5z" />
    <glyph glyph-name="onedotleader" unicode="&#x2024;" horiz-adv-x="341" 
d="M171 -11q23 0 39.5 16.5t16.5 40.5q0 23 -16.5 39.5t-39.5 16.5q-24 0 -40.5 -16.5t-16.5 -39.5q0 -24 16.5 -40.5t40.5 -16.5zM171 59q13 0 13 -13t-13 -13t-13 13t13 13z" />
    <glyph glyph-name="twodotleader" unicode="&#x2025;" horiz-adv-x="686" 
d="M171 -11q23 0 39.5 16.5t16.5 40.5q0 23 -16.5 39.5t-39.5 16.5q-24 0 -40.5 -16.5t-16.5 -39.5q0 -24 16.5 -40.5t40.5 -16.5zM504 -11q23 0 39.5 16.5t16.5 40.5q0 23 -16.5 39.5t-39.5 16.5q-24 0 -40.5 -16.5t-16.5 -39.5q0 -24 16.5 -40.5t40.5 -16.5zM171 59
q13 0 13 -13t-13 -13t-13 13t13 13zM504 59q13 0 13 -13t-13 -13t-13 13t13 13z" />
    <glyph glyph-name="ellipsis" unicode="&#x2026;" horiz-adv-x="997" 
d="M167 -11q23 0 39.5 16.5t16.5 40.5q0 23 -16.5 39.5t-39.5 16.5q-24 0 -40.5 -16.5t-16.5 -39.5q0 -24 16.5 -40.5t40.5 -16.5zM501 -11q23 0 39.5 16.5t16.5 40.5q0 23 -16.5 39.5t-39.5 16.5q-24 0 -40.5 -16.5t-16.5 -39.5q0 -24 16.5 -40.5t40.5 -16.5zM830 -11
q23 0 39.5 16.5t16.5 40.5q0 23 -16.5 39.5t-39.5 16.5q-24 0 -40.5 -16.5t-16.5 -39.5q0 -24 16.5 -40.5t40.5 -16.5zM167 59q13 0 13 -13t-13 -13t-13 13t13 13zM501 59q13 0 13 -13t-13 -13t-13 13t13 13zM830 59q13 0 13 -13t-13 -13t-13 13t13 13z" />
    <glyph glyph-name="perthousand" unicode="&#x2030;" horiz-adv-x="1109" 
d="M193 48l330 647q10 21 30 10q8 -4 11 -13t-1 -16l-330 -647q-4 -9 -13 -12t-16 2q-4 1 -7 4q-10 12 -4 25zM337 562q0 -61 -42.5 -104t-103.5 -43t-103.5 43t-42.5 104q0 60 42.5 103t103.5 43t103.5 -43t42.5 -103zM151 622v-157q19 -8 40 -8h4q15 3 25 15t10 28l2 157
q-19 9 -41 9h-4q-15 -3 -25.5 -15.5t-10.5 -28.5zM109 497v129q-22 -27 -22 -64t22 -65zM274 625v-125l-2 -2q23 26 23 64q0 34 -21 63zM565 309q61 0 103.5 -43t42.5 -104q0 -60 -42.5 -103t-103.5 -43q-60 0 -103 43t-43 103q0 61 43 104t103 43zM918 309q61 0 103.5 -43
t42.5 -104q0 -60 -42.5 -103t-103.5 -43q-60 0 -103 43t-43 103q0 61 43 104t103 43zM605 101v157q-17 9 -40 9q-2 0 -3 -1q-15 -2 -25.5 -14.5t-11.5 -28.5v-157q21 -8 40 -8h4q15 3 25.5 15t10.5 28zM958 101v157q-16 9 -40 9q-2 0 -3 -1q-15 -2 -25.5 -14.5t-11.5 -28.5
v-157q21 -8 40 -8h4q15 3 25.5 15t10.5 28zM484 98v129q-23 -30 -23 -65q0 -36 23 -64zM837 98v129q-23 -30 -23 -65q0 -36 23 -64zM647 226v-128q22 27 22 64q0 36 -22 64zM1000 226v-128q22 27 22 64q0 36 -22 64z" />
    <glyph glyph-name="uni2031" unicode="&#x2031;" horiz-adv-x="1467" 
d="M199 48l330 647q10 21 30 10q8 -4 11 -13t-1 -16l-330 -647q-4 -9 -13 -12t-16 2q-4 1 -7 4q-10 12 -4 25zM343 562q0 -61 -42.5 -104t-103.5 -43t-103.5 43t-42.5 104q0 60 42.5 103t103.5 43t103.5 -43t42.5 -103zM157 622v-157q19 -8 40 -8h4q15 3 25 15t10 28l2 157
q-20 9 -41 9h-4q-15 -3 -25.5 -15.5t-10.5 -28.5zM115 497v129q-22 -27 -22 -64t22 -65zM280 625v-125l-2 -2q23 26 23 64q0 34 -21 63zM571 309q61 0 103.5 -43t42.5 -104q0 -60 -42.5 -103t-103.5 -43q-60 0 -103 43t-43 103q0 61 43 104t103 43zM924 309q61 0 103.5 -43
t42.5 -104q0 -60 -42.5 -103t-103.5 -43q-60 0 -103 43t-43 103q0 61 43 104t103 43zM1276 309q61 0 103.5 -43t42.5 -104q0 -60 -42.5 -103t-103.5 -43q-60 0 -103 43t-43 103q0 61 43 104t103 43zM611 101v157q-17 9 -40 9q-2 0 -3 -1q-15 -2 -25.5 -14.5t-11.5 -28.5
v-157q21 -8 40 -8h4q15 3 25.5 15t10.5 28zM964 101v157q-16 9 -40 9q-2 0 -3 -1q-15 -2 -25.5 -14.5t-11.5 -28.5v-157q21 -8 40 -8h4q15 3 25.5 15t10.5 28zM1316 101v157q-16 9 -40 9q-2 0 -3 -1q-15 -2 -25.5 -14.5t-11.5 -28.5v-157q21 -8 40 -8h4q15 3 25.5 15
t10.5 28zM490 98v129q-23 -30 -23 -65q0 -36 23 -64zM843 98v129q-23 -30 -23 -65q0 -36 23 -64zM1195 98v129q-23 -30 -23 -65q0 -36 23 -64zM653 226v-128q22 27 22 64q0 36 -22 64zM1006 226v-128q22 27 22 64q0 36 -22 64zM1358 226v-128q22 27 22 64q0 36 -22 64z" />
    <glyph glyph-name="guilsinglleft" unicode="&#x2039;" horiz-adv-x="219" 
d="M112 216l74 -100q9 -13 -3 -23t-23 1l-94 100q-11 11 -11 23q0 11 10 21l95 101q12 12 23 1q12 -10 3 -23z" />
    <glyph glyph-name="guilsinglright" unicode="&#x203a;" horiz-adv-x="208" 
d="M107 217l-74 101q-9 13 3 23q11 11 23 -1l95 -101q10 -10 10 -21q0 -12 -11 -23l-94 -100q-11 -11 -23 -1t-3 23z" />
    <glyph glyph-name="exclamdbl" unicode="&#x203c;" horiz-adv-x="661" 
d="M273 687q26 -30 21 -64q-6 -58 -73 -413q-4 -18 -22 -18t-22 18q-63 335 -72 413q-5 34 21 64q31 34 73 34q45 0 74 -34zM535 687q26 -30 21 -64q-6 -58 -73 -413q-4 -18 -22 -18t-22 18q-63 335 -72 413q-5 34 21 64q31 34 73 34q45 0 74 -34zM250 629q2 14 -11 28
q-16 19 -40 19q-22 0 -39 -19q-13 -14 -11 -28q3 -23 50 -287q45 240 51 287zM512 629q2 14 -11 28q-16 19 -40 19q-22 0 -39 -19q-13 -14 -11 -28q3 -23 50 -287q45 240 51 287zM199 143q30 0 51 -21t21 -50q0 -30 -21 -51t-51 -21q-29 0 -50 21t-21 51q0 29 21 50t50 21z
M461 143q30 0 51 -21t21 -50q0 -30 -21 -51t-51 -21q-29 0 -50 21t-21 51q0 29 21 50t50 21zM199 42q13 0 21.5 8.5t8.5 21.5q0 12 -8.5 20.5t-21.5 8.5q-12 0 -20.5 -8.5t-8.5 -20.5q0 -13 8.5 -21.5t20.5 -8.5zM461 42q13 0 21.5 8.5t8.5 21.5q0 12 -8.5 20.5t-21.5 8.5
q-12 0 -20.5 -8.5t-8.5 -20.5q0 -13 8.5 -21.5t20.5 -8.5z" />
    <glyph glyph-name="uni2043" unicode="&#x2043;" horiz-adv-x="369" 
d="M113 196h144q9 0 15.5 6.5t6.5 16.5q0 9 -6.5 15.5t-15.5 6.5h-144q-10 0 -16.5 -6.5t-6.5 -15.5q0 -10 6.5 -16.5t16.5 -6.5z" />
    <glyph glyph-name="fraction" unicode="&#x2044;" horiz-adv-x="74" 
d="M194 706l-353 -676q-5 -8 -2 -17t11 -13q4 -3 10 -3q14 0 20 12l353 676q5 8 2 17t-11 13q-8 5 -17 2t-13 -11z" />
    <glyph glyph-name="uni2048" unicode="&#x2048;" horiz-adv-x="725" 
d="M607 687q26 -30 21 -64q-6 -58 -73 -413q-4 -18 -22 -18t-22 18q-63 335 -72 413q-5 34 21 64q31 34 73 34q45 0 74 -34zM204 718h38q67 0 113 -41q48 -43 48 -103q0 -74 -62 -125q-26 -22 -33.5 -41t-7.5 -51v-139q0 -9 -6.5 -15.5t-15.5 -6.5h-94q-9 0 -15.5 6.5
t-6.5 15.5v139q0 40 32 67q19 17 61 37q33 17 42 22q63 41 63 91q0 42 -34.5 71.5t-83.5 29.5h-6q-17 -1 -26 -13.5t-9 -29.5l2 -38v-1q0 -25 -19 -43t-46 -18q-26 0 -45 18t-19 43q0 52 38 88q39 37 92 37zM584 629q2 14 -11 28q-16 19 -40 19q-22 0 -39 -19
q-13 -14 -11 -28q3 -23 50 -287q45 240 51 287zM160 592l-2 39q0 19 6 34q-47 -23 -47 -72q0 -7 6.5 -12.5t14.5 -5.5q20 0 22 17zM257 239v118q0 40 8 61q-32 -16 -46 -29t-14 -32v-118h52zM230 143q30 0 51 -21t21 -50q0 -30 -21 -51t-51 -21q-29 0 -50 21t-21 51
q0 29 21 50t50 21zM533 143q30 0 51 -21t21 -50q0 -30 -21 -51t-51 -21q-29 0 -50 21t-21 51q0 29 21 50t50 21zM230 42q13 0 21.5 8.5t8.5 21.5q0 12 -8.5 20.5t-21.5 8.5q-12 0 -20.5 -8.5t-8.5 -20.5q0 -13 8.5 -21.5t20.5 -8.5zM533 42q13 0 21.5 8.5t8.5 21.5
q0 12 -8.5 20.5t-21.5 8.5q-12 0 -20.5 -8.5t-8.5 -20.5q0 -13 8.5 -21.5t20.5 -8.5z" />
    <glyph glyph-name="uni2049" unicode="&#x2049;" horiz-adv-x="704" 
d="M273 687q26 -30 21 -64q-6 -58 -73 -413q-4 -18 -22 -18t-22 18q-63 335 -72 413q-5 34 21 64q31 34 73 34q45 0 74 -34zM462 718h38q67 0 113 -41q48 -43 48 -103q0 -74 -62 -125q-26 -22 -33.5 -41t-7.5 -51v-139q0 -9 -6.5 -15.5t-15.5 -6.5h-94q-9 0 -15.5 6.5
t-6.5 15.5v139q0 40 32 67q19 17 61 37q33 17 42 22q63 41 63 91q0 42 -34.5 71.5t-83.5 29.5h-6q-17 -1 -26 -13.5t-9 -29.5l2 -38v-1q0 -25 -19 -43t-46 -18q-26 0 -45 18t-19 43q0 52 38 88q39 37 92 37zM250 629q2 14 -11 28q-16 19 -40 19q-22 0 -39 -19
q-13 -14 -11 -28q3 -23 50 -287q45 240 51 287zM418 592l-2 39q0 19 6 34q-47 -23 -47 -72q0 -7 6.5 -12.5t14.5 -5.5q20 0 22 17zM515 239v118q0 40 8 61q-32 -16 -46 -29t-14 -32v-118h52zM199 143q30 0 51 -21t21 -50q0 -30 -21 -51t-51 -21q-29 0 -50 21t-21 51
q0 29 21 50t50 21zM488 143q30 0 51 -21t21 -50q0 -30 -21 -51t-51 -21q-29 0 -50 21t-21 51q0 29 21 50t50 21zM199 42q13 0 21.5 8.5t8.5 21.5q0 12 -8.5 20.5t-21.5 8.5q-12 0 -20.5 -8.5t-8.5 -20.5q0 -13 8.5 -21.5t20.5 -8.5zM488 42q13 0 21.5 8.5t8.5 21.5
q0 12 -8.5 20.5t-21.5 8.5q-12 0 -20.5 -8.5t-8.5 -20.5q0 -13 8.5 -21.5t20.5 -8.5z" />
    <glyph glyph-name="uni204B" unicode="&#x204b;" horiz-adv-x="730" 
d="M436 724h248q9 0 15.5 -6.5t6.5 -15.5q0 -10 -6.5 -16t-15.5 -6h-66v-880q0 -10 -6.5 -16t-15.5 -6t-15.5 6t-6.5 16v880h-116v-880q0 -10 -6.5 -16t-15.5 -6t-15.5 6t-6.5 16v483q-17 -19 -44 -38q-54 -34 -116 -34q-95 0 -164 75q-66 74 -66 180q0 105 66 179
q67 75 164 75q94 0 160 -71v53q0 9 6.5 15.5t15.5 6.5zM173 654v-303q0 -41 25 -69q24 -27 58 -27q47 0 90 27q42 27 67 74l1 1v1v219q-3 2 -5 5q-26 44 -67 69t-88 25q-45 0 -81 -22zM127 351v269q-59 -64 -59 -154q0 -102 69 -164q-7 20 -10 49z" />
    <glyph glyph-name="Euro" unicode="&#x20ac;" horiz-adv-x="629" 
d="M608 701v-166q0 -9 -6.5 -15.5t-15.5 -6.5t-15.5 6.5t-6.5 15.5v60q-15 17 -29 28q-62 52 -134 54q-46 0 -79 -43q-35 -46 -35 -110v-74h157q9 0 15.5 -6.5t6.5 -15.5t-6.5 -15.5t-15.5 -6.5h-157v-89h157q9 0 15.5 -6.5t6.5 -15.5t-6.5 -15.5t-15.5 -6.5h-156v-198
q51 -30 107 -30q79 0 140 54q15 12 27 27h1l1 1v61q0 9 6.5 15.5t15.5 6.5t15.5 -6.5t6.5 -15.5v-166q0 -9 -6.5 -15.5t-15.5 -6.5t-15.5 6.5t-6.5 15.5v43q-76 -64 -169 -64q-63 0 -117 29q-50 26 -93 78q-57 69 -77 165h-84q-9 0 -15.5 6.5t-6.5 15.5t6.5 15.5t15.5 6.5
h78q-2 15 -2 44q0 30 2 45h-78q-9 0 -15.5 6.5t-6.5 15.5t6.5 15.5t15.5 6.5h85q18 94 76 164q41 51 93 78q56 30 117 30q92 0 169 -65v44q0 9 6.5 15.5t15.5 6.5t15.5 -6.5t6.5 -15.5zM243 450v74q0 62 28 112q-90 -64 -117 -186h89zM243 406h-97q-2 -30 -2 -45
q0 -30 2 -44h97v89zM243 273h-89q23 -101 89 -164v164z" />
    </font>
</defs>
</svg>
